<svg width="392" height="577" viewBox="0 0 392 577" fill="none" xmlns="http://www.w3.org/2000/svg">
<g clip-path="url(#clip0_397_9243)">
<g opacity="0.8">
<path d="M154.291 14.1289L-0.119581 39.6218L-125.236 121.244L-188.186 292.091L-112.49 488.431L49.4126 571.618L193.984 549.927L328.157 464.503L392.56 290.637L317.647 97.3162L154.291 14.1289Z" stroke="#2267AC" stroke-width="0.961574" stroke-miterlimit="10"/>
<path d="M49.4126 571.617L-5.26289 516.159L-11.3007 337.821L32.1938 158.7L-0.119581 39.6211L-126.69 200.741L-188.186 292.09L-129.708 385.788L-5.26289 516.159L193.984 549.926L310.156 394.062L317.647 208.903V97.3155" stroke="#2267AC" stroke-width="0.961574" stroke-miterlimit="10"/>
<path d="M154.292 14.1289L187.277 77.7493L183.475 262.126L143.111 439.01L193.985 549.927" stroke="#2267AC" stroke-width="0.961574" stroke-miterlimit="10"/>
<path d="M-0.566406 39.6211L187.723 78.084L317.647 97.3155" stroke="#2267AC" stroke-width="0.961574" stroke-miterlimit="10"/>
<path d="M-126.576 201.411L31.4126 158.476L187.724 78.084L317.201 208.456L392.115 290.413L310.157 394.062" stroke="#2267AC" stroke-width="0.961574" stroke-miterlimit="10"/>
<path d="M-127.137 201.412L-12.0833 337.821L142.328 439.01" stroke="#2267AC" stroke-width="0.961574" stroke-miterlimit="10"/>
<path d="M328.159 465.174L310.157 393.279L182.805 261.343L32.1953 158.029" stroke="#2267AC" stroke-width="0.961574" stroke-miterlimit="10"/>
<path d="M317.648 209.686L183.475 262.125L-12.0825 337.821L-130.49 386.57" stroke="#2267AC" stroke-width="0.961574" stroke-miterlimit="10"/>
<path d="M-112.488 488.431L-6.0443 515.377L141.546 439.01L310.157 394.062" stroke="#2267AC" stroke-width="0.961574" stroke-miterlimit="10"/>
<path d="M323.237 97.7634C323.041 99.1809 322.339 100.48 321.26 101.42C320.181 102.36 318.798 102.877 317.367 102.877C315.936 102.877 314.554 102.36 313.475 101.42C312.396 100.48 311.693 99.1809 311.497 97.7634C311.381 96.9246 311.446 96.0706 311.688 95.2591C311.93 94.4475 312.343 93.6973 312.899 93.0588C313.455 92.4203 314.142 91.9084 314.913 91.5576C315.684 91.2069 316.521 91.0254 317.367 91.0254C318.214 91.0254 319.051 91.2069 319.822 91.5576C320.593 91.9084 321.279 92.4203 321.836 93.0588C322.392 93.6973 322.805 94.4475 323.047 95.2591C323.288 96.0706 323.353 96.9246 323.237 97.7634Z" fill="#2267AC"/>
<path d="M323.575 208.904C323.575 210.476 322.951 211.983 321.839 213.094C320.728 214.206 319.221 214.83 317.649 214.83C316.232 214.634 314.933 213.932 313.993 212.853C313.053 211.774 312.535 210.391 312.535 208.96C312.535 207.529 313.053 206.146 313.993 205.067C314.933 203.988 316.232 203.286 317.649 203.09C319.202 203.09 320.692 203.699 321.8 204.786C322.909 205.873 323.546 207.352 323.575 208.904Z" fill="#2267AC"/>
<path d="M189.401 262.126C189.401 263.697 188.777 265.205 187.666 266.316C186.554 267.427 185.047 268.052 183.475 268.052C182.702 268.052 181.937 267.898 181.224 267.599C180.511 267.3 179.866 266.861 179.324 266.309C178.783 265.758 178.357 265.103 178.071 264.385C177.786 263.667 177.646 262.899 177.661 262.126C177.661 260.584 178.274 259.105 179.364 258.015C180.455 256.924 181.933 256.312 183.475 256.312C184.248 256.297 185.016 256.436 185.735 256.722C186.453 257.007 187.107 257.433 187.659 257.975C188.211 258.516 188.649 259.162 188.948 259.875C189.248 260.587 189.402 261.353 189.401 262.126Z" fill="#2267AC"/>
<path d="M316.081 393.28C316.081 394.852 315.457 396.359 314.345 397.47C313.234 398.582 311.727 399.206 310.155 399.206C309.382 399.206 308.617 399.052 307.904 398.753C307.191 398.454 306.545 398.016 306.004 397.464C305.462 396.912 305.037 396.258 304.751 395.539C304.465 394.821 304.326 394.053 304.341 393.28C304.341 391.738 304.954 390.259 306.044 389.169C307.134 388.078 308.613 387.466 310.155 387.466C310.928 387.451 311.696 387.59 312.414 387.876C313.133 388.161 313.787 388.587 314.339 389.129C314.891 389.67 315.329 390.316 315.628 391.029C315.927 391.742 316.081 392.507 316.081 393.28Z" fill="#2267AC"/>
<path d="M333.972 464.504C333.972 466.046 333.36 467.524 332.269 468.615C331.179 469.705 329.7 470.318 328.158 470.318C326.616 470.318 325.137 469.705 324.047 468.615C322.956 467.524 322.344 466.046 322.344 464.504C322.344 463.74 322.494 462.984 322.786 462.279C323.079 461.573 323.507 460.932 324.047 460.392C324.587 459.852 325.227 459.424 325.933 459.132C326.638 458.84 327.394 458.689 328.158 458.689C328.921 458.689 329.677 458.84 330.383 459.132C331.088 459.424 331.729 459.852 332.269 460.392C332.809 460.932 333.237 461.573 333.529 462.279C333.822 462.984 333.972 463.74 333.972 464.504Z" fill="#2267AC"/>
<path d="M199.911 549.592C199.911 550.365 199.757 551.13 199.458 551.843C199.159 552.556 198.721 553.202 198.169 553.743C197.617 554.285 196.963 554.711 196.244 554.996C195.526 555.282 194.758 555.421 193.985 555.406C193.222 555.406 192.466 555.256 191.76 554.964C191.055 554.671 190.414 554.243 189.874 553.703C189.334 553.163 188.906 552.522 188.614 551.817C188.321 551.112 188.171 550.356 188.171 549.592C188.156 548.819 188.296 548.051 188.581 547.333C188.867 546.614 189.292 545.96 189.834 545.408C190.375 544.856 191.021 544.418 191.734 544.119C192.447 543.82 193.212 543.666 193.985 543.666C194.763 543.666 195.534 543.819 196.253 544.117C196.972 544.415 197.625 544.851 198.175 545.402C198.726 545.952 199.162 546.605 199.46 547.324C199.758 548.043 199.911 548.814 199.911 549.592Z" fill="#2267AC"/>
<path d="M148.925 438.227C149.041 439.066 148.976 439.92 148.734 440.731C148.492 441.543 148.079 442.293 147.523 442.932C146.967 443.57 146.28 444.082 145.509 444.433C144.739 444.784 143.902 444.965 143.055 444.965C142.208 444.965 141.371 444.784 140.6 444.433C139.83 444.082 139.143 443.57 138.587 442.932C138.03 442.293 137.617 441.543 137.376 440.731C137.134 439.92 137.069 439.066 137.185 438.227C137.381 436.81 138.083 435.511 139.162 434.571C140.241 433.631 141.624 433.113 143.055 433.113C144.486 433.113 145.869 433.631 146.947 434.571C148.026 435.511 148.729 436.81 148.925 438.227Z" fill="#2267AC"/>
<path d="M0.552095 515.825C0.574182 517.006 0.242652 518.167 -0.399908 519.159C-1.04247 520.15 -1.96671 520.927 -3.05398 521.389C-4.14126 521.852 -5.34192 521.978 -6.50177 521.753C-7.66162 521.528 -8.72769 520.961 -9.56313 520.126C-10.3986 519.291 -10.9652 518.225 -11.1903 517.065C-11.4154 515.905 -11.2886 514.704 -10.8263 513.617C-10.364 512.53 -9.58721 511.605 -8.59574 510.963C-7.60426 510.32 -6.44333 509.989 -5.26205 510.011C-3.72004 510.011 -2.2412 510.623 -1.15083 511.714C-0.060462 512.804 0.552095 514.283 0.552095 515.825Z" fill="#2267AC"/>
<path d="M53.7753 571.282C53.7754 572.055 53.6214 572.82 53.3223 573.533C53.0231 574.246 52.5848 574.892 52.033 575.433C51.4812 575.975 50.827 576.401 50.1087 576.686C49.3903 576.972 48.6222 577.111 47.8493 577.096C46.3073 577.096 44.8285 576.484 43.7381 575.393C42.6477 574.303 42.0352 572.824 42.0352 571.282C42.0352 569.74 42.6477 568.261 43.7381 567.171C44.8285 566.08 46.3073 565.468 47.8493 565.468C48.6222 565.453 49.3903 565.592 50.1087 565.878C50.827 566.163 51.4812 566.589 52.033 567.131C52.5848 567.672 53.0231 568.318 53.3223 569.031C53.6214 569.744 53.7754 570.509 53.7753 571.282Z" fill="#2267AC"/>
<path d="M5.80763 39.6213C5.80777 40.3943 5.65375 41.1596 5.35459 41.8724C5.05543 42.5852 4.61715 43.2312 4.06536 43.7726C3.51357 44.314 2.85935 44.7399 2.14098 45.0254C1.42262 45.3109 0.654514 45.4503 -0.118371 45.4355C-1.66038 45.4355 -3.13922 44.8229 -4.22959 43.7325C-5.31996 42.6422 -5.93252 41.1633 -5.93252 39.6213C-5.94738 38.8484 -5.80797 38.0803 -5.52244 37.3619C-5.23691 36.6436 -4.81103 35.9894 -4.26965 35.4376C-3.72827 34.8858 -3.08226 34.4475 -2.36947 34.1483C-1.65667 33.8492 -0.891398 33.6952 -0.118371 33.6953C1.4533 33.6953 2.96061 34.3197 4.07195 35.431C5.18328 36.5423 5.80763 38.0496 5.80763 39.6213Z" fill="#2267AC"/>
<path d="M38.0097 158.364C38.0245 159.137 37.8851 159.905 37.5996 160.623C37.3141 161.342 36.8882 161.996 36.3468 162.548C35.8054 163.1 35.1594 163.538 34.4466 163.837C33.7338 164.136 32.9686 164.29 32.1955 164.29C30.6239 164.29 29.1166 163.666 28.0052 162.554C26.8939 161.443 26.2695 159.936 26.2695 158.364C26.2694 157.591 26.4234 156.826 26.7226 156.113C27.0217 155.4 27.46 154.754 28.0118 154.213C28.5636 153.671 29.2178 153.246 29.9362 152.96C30.6545 152.674 31.4226 152.535 32.1955 152.55C33.7375 152.55 35.2164 153.162 36.3068 154.253C37.3971 155.343 38.0097 156.822 38.0097 158.364Z" fill="#2267AC"/>
<path d="M193.986 78.6434C193.986 79.4164 193.832 80.1817 193.533 80.8945C193.234 81.6073 192.796 82.2533 192.244 82.7946C191.692 83.336 191.038 83.7619 190.32 84.0475C189.601 84.333 188.833 84.4724 188.06 84.4575C186.518 84.4575 185.039 83.845 183.949 82.7546C182.859 81.6642 182.246 80.1854 182.246 78.6434C182.246 77.1014 182.859 75.6225 183.949 74.5321C185.039 73.4418 186.518 72.8292 188.06 72.8292C188.833 72.8143 189.601 72.9537 190.32 73.2393C191.038 73.5248 191.692 73.9507 192.244 74.4921C192.796 75.0335 193.234 75.6795 193.533 76.3923C193.832 77.105 193.986 77.8703 193.986 78.6434Z" fill="#2267AC"/>
<path d="M160.105 14.1286C160.105 15.6706 159.492 17.1495 158.402 18.2399C157.312 19.3302 155.833 19.9428 154.291 19.9428C152.749 19.9428 151.27 19.3302 150.179 18.2399C149.089 17.1495 148.477 15.6706 148.477 14.1286C148.477 12.5866 149.089 11.1077 150.179 10.0174C151.27 8.92701 152.749 8.31445 154.291 8.31445C155.833 8.31445 157.312 8.92701 158.402 10.0174C159.492 11.1077 160.105 12.5866 160.105 14.1286Z" fill="#2267AC"/>
</g>
</g>
<defs>
<clipPath id="clip0_397_9243">
<rect width="586" height="577" fill="white" transform="translate(-194)"/>
</clipPath>
</defs>
</svg>
