<svg width="50" height="52" viewBox="0 0 50 52" fill="none" xmlns="http://www.w3.org/2000/svg">
<path d="M28.9144 12.0842V0C12.9378 0 0 11.5929 0 25.9073C0 40.2223 12.9385 51.8158 28.9144 51.8158V39.7316C20.3869 39.7316 13.4869 33.5486 13.4869 25.9073C13.4869 18.2673 20.3869 12.0842 28.9144 12.0842Z" fill="white"/>
<path d="M43.4369 12.6706C42.6266 12.6706 41.8244 12.5149 41.0759 12.2122C40.3275 11.9095 39.6473 11.4659 39.0745 10.9066C38.5016 10.3473 38.0472 9.68339 37.7372 8.95266C37.4272 8.22194 37.2676 7.43876 37.2676 6.64783C37.2676 5.85689 37.4272 5.07372 37.7372 4.34299C38.0472 3.61227 38.5016 2.94832 39.0745 2.38905C39.6473 1.82978 40.3275 1.38614 41.0759 1.08346C41.8244 0.780785 42.6266 0.625 43.4369 0.625C45.073 0.625 46.6421 1.25955 47.7992 2.38905C48.9561 3.51855 49.6061 5.05048 49.6061 6.64783C49.6061 8.24518 48.9561 9.77711 47.7992 10.9066C46.6421 12.0361 45.073 12.6706 43.4369 12.6706Z" fill="white"/>
<path d="M43.4369 52.0007C41.8006 52.0007 40.2315 51.3662 39.0745 50.2367C37.9176 49.1071 37.2676 47.5752 37.2676 45.9779C37.2676 44.3806 37.9176 42.8486 39.0745 41.7191C40.2315 40.5896 41.8006 39.9551 43.4369 39.9551C45.073 39.9551 46.6421 40.5896 47.7992 41.7191C48.9561 42.8486 49.6061 44.3806 49.6061 45.9779C49.6061 47.5752 48.9561 49.1071 47.7992 50.2367C46.6421 51.3662 45.073 52.0007 43.4369 52.0007Z" fill="white"/>
<path d="M43.6926 25.9075C43.6926 33.6717 37.3705 39.9542 29.5566 39.9542V11.8613C37.3698 11.8613 43.6926 18.1439 43.6926 25.9075Z" fill="white"/>
<path d="M43.8314 12.0456C43.0212 12.0456 42.2189 11.8899 41.4704 11.5872C40.722 11.2845 40.0419 10.8409 39.469 10.2816C38.8961 9.72234 38.4417 9.05839 38.1317 8.32766C37.8217 7.59694 37.6621 6.81376 37.6621 6.02283C37.6621 5.23189 37.8217 4.44872 38.1317 3.71799C38.4417 2.98727 38.8961 2.32332 39.469 1.76405C40.0419 1.20478 40.722 0.761136 41.4704 0.458461C42.2189 0.155785 43.0212 -1.09887e-08 43.8314 0C45.4675 3.29662e-08 47.0367 0.634547 48.1937 1.76405C49.3506 2.89355 50.0006 4.42548 50.0006 6.02283C50.0006 7.62018 49.3506 9.15211 48.1937 10.2816C47.0367 11.4111 45.4675 12.0456 43.8314 12.0456Z" fill="white"/>
<path d="M43.7259 51.6491C42.0897 51.6491 40.5206 51.0146 39.3635 49.8851C38.2066 48.7556 37.5566 47.2236 37.5566 45.6263C37.5566 44.029 38.2066 42.4971 39.3635 41.3675C40.5206 40.238 42.0897 39.6035 43.7259 39.6035C45.362 39.6035 46.9312 40.238 48.0882 41.3675C49.2451 42.4971 49.8951 44.029 49.8951 45.6263C49.8951 47.2236 49.2451 48.7556 48.0882 49.8851C46.9312 51.0146 45.362 51.6491 43.7259 51.6491Z" fill="white"/>
<path d="M43.7805 25.8243C43.7805 33.4412 37.468 39.6044 29.666 39.6044V12.0449C37.4674 12.0449 43.7805 18.2082 43.7805 25.8243Z" fill="white"/>
</svg>
