<svg width="392" height="819" viewBox="0 0 392 819" fill="none" xmlns="http://www.w3.org/2000/svg">
<path d="M656.756 279.901L539.938 175.755L397.842 129.658L225.359 187.976L120.117 370.194L157.069 548.427L264.748 647.304L415.491 698.061L591.236 638.978L694.621 459.265L656.756 279.901Z" stroke="#2267AC" stroke-width="0.961574" stroke-miterlimit="10"/>
<path d="M157.068 548.426L165.884 471.048L300.868 354.342L467.57 275.688L539.938 175.754L335.067 178.455L225.359 187.975L189.174 292.328L165.884 471.048L264.748 647.302L458.999 639.81L607.787 529.347L694.62 459.263" stroke="#2267AC" stroke-width="0.961574" stroke-miterlimit="10"/>
<path d="M397.84 129.658L335.065 178.457L189.173 292.329L120.115 370.194" stroke="#2267AC" stroke-width="0.961574" stroke-miterlimit="10"/>
<path d="M656.755 279.9L627.964 345.525L482.102 458.367L319.106 538.052L264.747 647.303" stroke="#2267AC" stroke-width="0.961574" stroke-miterlimit="10"/>
<path d="M334.615 178.963L467.253 274.938L627.985 346.082L607.855 528.718L591.129 638.487L458.999 639.809" stroke="#2267AC" stroke-width="0.961574" stroke-miterlimit="10"/>
<path d="M334.264 178.529L300.376 353.733L318.615 537.443" stroke="#2267AC" stroke-width="0.961574" stroke-miterlimit="10"/>
<path d="M414.968 698.482L459.607 639.319L482.29 457.353L468.092 275.268" stroke="#2267AC" stroke-width="0.961574" stroke-miterlimit="10"/>
<path d="M607.178 529.839L482.103 458.366L300.377 353.733L188.074 292.21" stroke="#2267AC" stroke-width="0.961574" stroke-miterlimit="10"/>
<path d="M120.117 370.193L166.002 469.948L318.124 536.834L458.999 639.81" stroke="#2267AC" stroke-width="0.961574" stroke-miterlimit="10"/>
<path d="M268.379 651.269L268.378 651.269C267.835 651.708 267.209 652.034 266.538 652.228C265.867 652.423 265.164 652.481 264.47 652.4C263.776 652.32 263.105 652.101 262.496 651.758C261.887 651.415 261.353 650.954 260.925 650.402L260.925 650.402L260.918 650.393C260.485 649.856 260.162 649.239 259.967 648.577C259.772 647.915 259.709 647.221 259.782 646.535C259.856 645.849 260.063 645.184 260.394 644.578C260.724 643.972 261.17 643.437 261.707 643.003L261.707 643.004L261.716 642.997C262.251 642.547 262.87 642.209 263.537 642.002C264.205 641.795 264.907 641.724 265.602 641.791C266.297 641.859 266.972 642.064 267.588 642.396C268.203 642.727 268.745 643.178 269.184 643.722L269.184 643.722C269.627 644.27 269.957 644.901 270.156 645.577C270.355 646.253 270.419 646.962 270.344 647.662C270.27 648.363 270.058 649.042 269.72 649.661L270.211 649.929L269.72 649.661C269.383 650.28 268.927 650.826 268.379 651.269Z" fill="#2267AC" stroke="#2267AC" stroke-width="1.11811"/>
<path d="M322.959 541.702C322.434 542.261 321.795 542.7 321.086 542.992C320.376 543.283 319.613 543.419 318.846 543.39C318.08 543.361 317.329 543.168 316.643 542.824C315.957 542.481 315.353 541.994 314.872 541.397C314.39 540.801 314.042 540.107 313.851 539.365C313.659 538.622 313.63 537.847 313.763 537.092C313.897 536.337 314.191 535.619 314.625 534.987C315.059 534.355 315.624 533.823 316.281 533.428C317.392 532.76 318.707 532.516 319.983 532.742C321.259 532.967 322.41 533.647 323.224 534.656C324.038 535.664 324.46 536.933 324.411 538.228C324.362 539.523 323.847 540.757 322.959 541.702Z" fill="#2267AC" stroke="#2267AC" stroke-width="1.11811"/>
<path d="M169.446 474.928L169.446 474.927L169.438 474.934C168.618 475.622 167.611 476.048 166.547 476.159C165.483 476.271 164.409 476.061 163.465 475.558C162.521 475.054 161.749 474.28 161.247 473.335C160.746 472.39 160.539 471.316 160.653 470.252C160.766 469.188 161.195 468.182 161.885 467.364C162.574 466.546 163.492 465.952 164.522 465.659C165.551 465.367 166.644 465.388 167.661 465.722C168.678 466.055 169.572 466.684 170.228 467.529L170.228 467.53L170.235 467.538C171.11 468.622 171.519 470.01 171.371 471.396C171.223 472.782 170.53 474.052 169.446 474.928Z" fill="#2267AC" stroke="#2267AC" stroke-width="1.11811"/>
<path d="M152.263 550.308L152.263 550.308L152.256 550.3C151.381 549.215 150.972 547.827 151.12 546.441C151.268 545.055 151.96 543.785 153.045 542.91C154.129 542.034 155.517 541.626 156.903 541.774C158.289 541.921 159.559 542.614 160.435 543.698L160.434 543.698L160.441 543.707C160.891 544.242 161.229 544.861 161.436 545.529C161.643 546.196 161.714 546.898 161.647 547.593C161.579 548.289 161.374 548.964 161.042 549.579C160.711 550.194 160.26 550.736 159.716 551.175L159.716 551.175C159.172 551.614 158.547 551.94 157.875 552.135C157.204 552.329 156.501 552.387 155.807 552.307C155.113 552.226 154.442 552.007 153.834 551.664C153.225 551.321 152.691 550.86 152.263 550.308Z" fill="#2267AC" stroke="#2267AC" stroke-width="1.11811"/>
<path d="M122.106 373.904C121.021 374.779 119.633 375.188 118.247 375.04C116.861 374.892 115.591 374.2 114.716 373.115C113.84 372.031 113.432 370.643 113.58 369.257C113.728 367.871 114.42 366.601 115.504 365.725C116.589 364.85 117.977 364.441 119.363 364.589C120.749 364.737 122.019 365.43 122.894 366.514C123.77 367.599 124.178 368.987 124.03 370.372C123.883 371.758 123.19 373.029 122.106 373.904Z" fill="#2267AC" stroke="#2267AC" stroke-width="1.11811"/>
<path d="M192.136 296.691C191.318 297.326 190.331 297.705 189.299 297.78C188.267 297.856 187.235 297.625 186.333 297.117C185.432 296.609 184.7 295.845 184.231 294.923C183.761 294 183.575 292.96 183.695 291.932C183.814 290.904 184.235 289.934 184.903 289.144C185.572 288.354 186.459 287.779 187.454 287.491C188.448 287.204 189.505 287.216 190.492 287.527C191.479 287.837 192.353 288.433 193.003 289.238C193.442 289.782 193.768 290.407 193.962 291.078C194.157 291.75 194.215 292.453 194.134 293.147C194.054 293.841 193.835 294.512 193.492 295.12C193.149 295.729 192.688 296.263 192.136 296.691Z" fill="#2267AC" stroke="#2267AC" stroke-width="1.11811"/>
<path d="M228.728 192.153L228.728 192.153C227.621 193.047 226.203 193.464 224.788 193.313C223.373 193.162 222.075 192.455 221.181 191.347L221.181 191.347C220.742 190.803 220.416 190.178 220.222 189.507C220.028 188.835 219.969 188.132 220.05 187.438C220.131 186.744 220.349 186.073 220.692 185.465C221.036 184.856 221.497 184.322 222.049 183.894L222.049 183.894L222.057 183.887C223.142 183.012 224.529 182.603 225.915 182.751C227.301 182.899 228.572 183.591 229.447 184.676L229.447 184.676L229.454 184.684C229.903 185.219 230.241 185.839 230.448 186.506C230.655 187.173 230.727 187.875 230.659 188.571C230.592 189.266 230.386 189.941 230.055 190.556C229.723 191.171 229.272 191.714 228.728 192.153Z" fill="#2267AC" stroke="#2267AC" stroke-width="1.11811"/>
<path d="M340.011 179.729C339.876 181.126 339.197 182.415 338.123 183.319C337.016 184.21 335.6 184.626 334.186 184.476C332.784 184.326 331.497 183.63 330.604 182.54C329.951 181.436 329.714 180.135 329.938 178.871C330.163 177.595 330.843 176.444 331.852 175.63C332.86 174.816 334.129 174.394 335.424 174.443C336.706 174.491 337.928 174.997 338.869 175.868C339.736 176.958 340.146 178.342 340.011 179.729Z" fill="#2267AC" stroke="#2267AC" stroke-width="1.11811"/>
<path d="M400.931 133.486L400.931 133.486L400.923 133.493C400.387 133.942 399.768 134.28 399.101 134.487C398.433 134.694 397.731 134.766 397.036 134.698C396.341 134.631 395.666 134.425 395.051 134.094C394.436 133.762 393.893 133.311 393.454 132.767L393.454 132.767C392.56 131.66 392.143 130.242 392.294 128.827C392.445 127.412 393.152 126.114 394.26 125.22L394.26 125.22C394.803 124.781 395.429 124.455 396.1 124.261C396.771 124.067 397.474 124.008 398.168 124.089C398.862 124.17 399.533 124.388 400.142 124.731C400.751 125.074 401.285 125.536 401.713 126.088L401.713 126.088L401.72 126.096C402.595 127.181 403.004 128.568 402.856 129.954C402.708 131.34 402.015 132.61 400.931 133.486Z" fill="#2267AC" stroke="#2267AC" stroke-width="1.11811"/>
<path d="M304.255 358.361L304.255 358.361L304.247 358.368C303.712 358.817 303.092 359.155 302.425 359.362C301.758 359.569 301.056 359.641 300.36 359.573C299.665 359.506 298.99 359.3 298.375 358.969C297.76 358.637 297.217 358.186 296.778 357.642L296.778 357.642C295.884 356.535 295.467 355.117 295.618 353.702C295.769 352.287 296.476 350.989 297.584 350.095L297.584 350.095C298.127 349.656 298.753 349.33 299.424 349.136C300.095 348.942 300.799 348.883 301.493 348.964C302.187 349.045 302.858 349.263 303.466 349.606C304.075 349.949 304.609 350.411 305.037 350.963L305.037 350.963L305.044 350.971C305.919 352.056 306.328 353.443 306.18 354.829C306.032 356.215 305.34 357.485 304.255 358.361Z" fill="#2267AC" stroke="#2267AC" stroke-width="1.11811"/>
</svg>
