<svg width="393" height="610" viewBox="0 0 393 610" fill="none" xmlns="http://www.w3.org/2000/svg">
<path d="M231.758 70.9006L114.94 -33.2447L-27.1561 -79.3416L-199.639 -21.0235L-304.881 161.194L-267.929 339.427L-160.25 438.304L-9.50712 489.061L166.238 429.978L269.622 250.265L231.758 70.9006Z" stroke="#2267AC" stroke-width="0.961574" stroke-miterlimit="10"/>
<path d="M-267.93 339.428L-259.114 262.05L-124.13 145.344L42.5723 66.6899L114.94 -33.2442L-89.9313 -30.5426L-199.639 -21.023L-235.824 83.3297L-259.114 262.05L-160.25 438.304L34.0007 430.812L182.789 320.349L269.622 250.265" stroke="#2267AC" stroke-width="0.961574" stroke-miterlimit="10"/>
<path d="M231.757 70.9019L202.966 136.527L57.1041 249.369L-105.892 329.054L-160.251 438.305" stroke="#2267AC" stroke-width="0.961574" stroke-miterlimit="10"/>
<path d="M114.658 -33.5918L202.986 137.085L269.621 250.266" stroke="#2267AC" stroke-width="0.961574" stroke-miterlimit="10"/>
<path d="M-90.3827 -30.0346L42.2551 65.94L202.987 137.084L182.857 319.72L166.131 429.489L34.0011 430.811" stroke="#2267AC" stroke-width="0.961574" stroke-miterlimit="10"/>
<path d="M-90.7344 -30.4688L-124.622 144.735L-106.383 328.445" stroke="#2267AC" stroke-width="0.961574" stroke-miterlimit="10"/>
<path d="M-10.0301 489.483L34.6092 430.321L57.2917 248.355L43.0938 66.2695" stroke="#2267AC" stroke-width="0.961574" stroke-miterlimit="10"/>
<path d="M182.18 320.841L57.1047 249.368L-124.622 144.735L-236.924 83.2123" stroke="#2267AC" stroke-width="0.961574" stroke-miterlimit="10"/>
<path d="M-304.881 161.195L-258.996 260.95L-106.874 327.836L34.0012 430.812" stroke="#2267AC" stroke-width="0.961574" stroke-miterlimit="10"/>
<path d="M272.496 254.418C271.386 255.087 270.071 255.33 268.795 255.104C267.519 254.879 266.367 254.199 265.553 253.19C264.739 252.182 264.318 250.913 264.367 249.618C264.415 248.323 264.931 247.089 265.818 246.145C266.344 245.586 266.982 245.146 267.692 244.855C268.401 244.563 269.165 244.428 269.931 244.456C270.698 244.485 271.449 244.678 272.135 245.022C272.82 245.365 273.424 245.852 273.906 246.449C274.388 247.046 274.736 247.739 274.927 248.481C275.118 249.224 275.148 249.999 275.015 250.754C274.881 251.51 274.587 252.227 274.153 252.859C273.718 253.491 273.153 254.023 272.496 254.418Z" fill="#2267AC" stroke="#2267AC" stroke-width="1.11811"/>
<path d="M188.045 320.94C187.909 322.337 187.231 323.626 186.156 324.53C185.049 325.421 183.633 325.837 182.219 325.687C180.817 325.537 179.53 324.841 178.637 323.751C177.984 322.647 177.747 321.346 177.971 320.082C178.196 318.806 178.876 317.655 179.885 316.841C180.893 316.027 182.162 315.605 183.457 315.654C184.74 315.702 185.962 316.208 186.903 317.079C187.769 318.169 188.179 319.553 188.045 320.94Z" fill="#2267AC" stroke="#2267AC" stroke-width="1.11811"/>
<path d="M60.4746 253.545L60.4745 253.545C59.3668 254.439 57.9495 254.857 56.5341 254.706C55.1188 254.555 53.8214 253.847 52.9274 252.74L52.9273 252.74C52.4884 252.196 52.1623 251.57 51.968 250.899C51.7738 250.228 51.7154 249.525 51.7962 248.831C51.8769 248.137 52.0953 247.466 52.4384 246.857C52.7816 246.249 53.2427 245.715 53.7947 245.286L53.7948 245.286L53.8032 245.28C54.8877 244.404 56.2756 243.996 57.6615 244.144C59.0474 244.291 60.3177 244.984 61.193 246.068L61.193 246.068L61.1999 246.077C61.6491 246.612 61.9871 247.231 62.194 247.899C62.401 248.566 62.4728 249.268 62.4053 249.963C62.3377 250.659 62.1322 251.334 61.8007 251.949C61.4692 252.564 61.0183 253.106 60.4746 253.545Z" fill="#2267AC" stroke="#2267AC" stroke-width="1.11811"/>
<path d="M37.9804 434.496L37.9803 434.496C36.8727 435.39 35.4554 435.808 34.04 435.657C32.6246 435.506 31.3272 434.799 30.4332 433.691L30.4332 433.691C29.9943 433.147 29.6682 432.522 29.474 431.85C29.2797 431.179 29.2212 430.476 29.302 429.782C29.3828 429.088 29.6012 428.417 29.9443 427.808C30.2875 427.2 30.7486 426.666 31.3006 426.237L31.3006 426.238L31.309 426.231C32.3936 425.355 33.7815 424.947 35.1673 425.095C36.5532 425.243 37.8235 425.935 38.6989 427.02L38.6988 427.02L38.7057 427.028C39.1549 427.563 39.4929 428.182 39.6999 428.85C39.9069 429.517 39.9787 430.219 39.9112 430.914C39.8436 431.61 39.6381 432.285 39.3066 432.9C38.9751 433.515 38.5242 434.058 37.9804 434.496Z" fill="#2267AC" stroke="#2267AC" stroke-width="1.11811"/>
<path d="M46.134 70.5698L46.1339 70.5697L46.1257 70.5767C45.5905 71.0259 44.9711 71.3638 44.3038 71.5708C43.6364 71.7778 42.9346 71.8496 42.2391 71.7821C41.5437 71.7146 40.8687 71.509 40.2537 71.1775C39.6386 70.846 39.0959 70.3952 38.6572 69.8514L38.6571 69.8513C37.7631 68.7437 37.3457 67.3263 37.4968 65.9109C37.6479 64.4955 38.355 63.1982 39.4627 62.3042L39.4627 62.3041C40.0064 61.8652 40.632 61.5391 41.3032 61.3449C41.9744 61.1506 42.6775 61.0922 43.3715 61.1729C44.0655 61.2537 44.7365 61.4721 45.3451 61.8152C45.9537 62.1584 46.4878 62.6195 46.9161 63.1715L46.916 63.1716L46.9228 63.18C47.7981 64.2645 48.2068 65.6524 48.0589 67.0383C47.9109 68.4241 47.2185 69.6945 46.134 70.5698Z" fill="#2267AC" stroke="#2267AC" stroke-width="1.11811"/>
<path d="M198.679 141.007L198.679 141.007L198.672 140.999C197.797 139.914 197.388 138.526 197.536 137.14C197.684 135.755 198.376 134.484 199.461 133.609C200.545 132.734 201.933 132.325 203.319 132.473C204.705 132.621 205.975 133.313 206.851 134.398L206.85 134.398L206.857 134.406C207.307 134.941 207.645 135.56 207.852 136.228C208.059 136.895 208.13 137.597 208.063 138.292C207.995 138.988 207.79 139.663 207.458 140.278C207.127 140.893 206.676 141.436 206.132 141.874L206.132 141.875C205.588 142.314 204.963 142.64 204.291 142.834C203.62 143.028 202.917 143.087 202.223 143.006C201.529 142.925 200.858 142.707 200.25 142.363C199.641 142.02 199.107 141.559 198.679 141.007Z" fill="#2267AC" stroke="#2267AC" stroke-width="1.11811"/>
<path d="M235.057 74.99C233.972 75.8653 232.584 76.274 231.198 76.1261C229.813 75.9781 228.542 75.2857 227.667 74.2012C226.792 73.1166 226.383 71.7288 226.531 70.3429C226.679 68.957 227.371 67.6867 228.456 66.8113C229.54 65.936 230.928 65.5273 232.314 65.6752C233.7 65.8231 234.97 66.5155 235.846 67.6001C236.721 68.6846 237.13 70.0725 236.982 71.4584C236.834 72.8443 236.141 74.1146 235.057 74.99Z" fill="#2267AC" stroke="#2267AC" stroke-width="1.11811"/>
</svg>
