<svg width="19" height="25" viewBox="0 0 19 25" fill="none" xmlns="http://www.w3.org/2000/svg">
<path d="M18.4853 0C18.7744 0.167428 18.8627 0.421146 18.8466 0.746344C18.8272 1.13916 18.8163 1.53519 18.8466 1.92671C18.929 2.99568 18.6521 3.98286 18.1711 4.9166C17.9586 5.32873 17.9334 5.71446 18.0287 6.16329C18.6057 8.89688 18.7976 11.6594 18.5967 14.4491C18.4911 15.9166 18.2889 17.3694 17.9714 18.8061C17.9154 19.0604 17.965 19.289 18.0603 19.5299C18.3166 20.1764 18.5555 20.8307 18.7828 21.4881C18.8388 21.6504 18.8375 21.8365 18.8388 22.0123C18.8453 22.6949 18.8453 23.3781 18.8408 24.0607C18.8382 24.489 18.6444 24.6796 18.2194 24.6796C12.3555 24.6802 6.49165 24.6802 0.627797 24.6796C0.202787 24.6796 0.00895653 24.489 0.00638071 24.0601C0.00187303 23.3775 0.00187292 22.6943 0.00702456 22.0117C0.0128202 21.2357 0.296804 20.5299 0.637456 19.8589C0.882803 19.3753 0.911137 18.9245 0.799733 18.4042C0.243356 15.8142 0.0714202 13.1921 0.225325 10.5493C0.316123 8.99219 0.525408 7.44991 0.863485 5.92696C0.92788 5.63718 0.879583 5.38539 0.768823 5.113C0.513173 4.48386 0.281993 3.84312 0.0682003 3.19788C0.00187298 2.99825 0.0108883 2.76965 0.0083125 2.55393C0.001229 1.94346 0.0179719 1.33234 0.000585112 0.722517C-0.00843026 0.40376 0.0855871 0.162921 0.362488 0.00064397C6.40278 1.47534e-08 12.4437 0 18.4853 0ZM17.6958 21.4856C17.6701 21.3941 17.6559 21.3155 17.6263 21.2428C17.4408 20.7907 17.2618 20.3355 17.0609 19.8905C16.8786 19.4867 16.8297 19.0772 16.9244 18.6464C17.2573 17.1305 17.4737 15.5979 17.5632 14.0485C17.7119 11.4695 17.5406 8.91169 16.9868 6.38739C16.8342 5.69256 16.8806 5.06599 17.2206 4.43685C17.4279 4.0537 17.5554 3.6274 17.7274 3.20046C12.1733 3.20046 6.67002 3.20046 1.10497 3.20046C1.33937 3.75168 1.54865 4.27071 1.78048 4.77943C1.96787 5.19092 2.01616 5.60691 1.91957 6.04609C1.50744 7.91743 1.28077 9.81194 1.2402 11.7271C1.19061 14.0569 1.42179 16.3603 1.92086 18.6367C2.01681 19.0759 1.97495 19.4957 1.77854 19.9027C1.64975 20.17 1.5274 20.4411 1.416 20.7154C1.3149 20.9633 1.23247 21.2183 1.13652 21.4856C6.67775 21.4856 12.1771 21.4856 17.6958 21.4856ZM17.7667 1.07347C12.1997 1.07347 6.64556 1.07347 1.08436 1.07347C1.08436 1.42572 1.08436 1.76508 1.08436 2.10573C6.65586 2.10573 12.21 2.10573 17.7667 2.10573C17.7667 1.75413 17.7667 1.41992 17.7667 1.07347ZM1.07921 23.6067C6.6462 23.6067 12.2003 23.6067 17.7615 23.6067C17.7615 23.2545 17.7615 22.9151 17.7615 22.5745C12.19 22.5745 6.6359 22.5745 1.07921 22.5745C1.07921 22.9254 1.07921 23.2596 1.07921 23.6067Z" fill="#141414"/>
<path d="M8.04557 17.6908C6.13109 17.696 4.44264 16.2735 4.12903 14.3918C3.80963 12.478 4.90049 10.6034 6.71 9.97366C6.89418 9.90926 6.99206 9.81782 7.0571 9.63043C7.64181 7.94134 9.38564 6.82343 11.1378 7.00181C13.0175 7.19242 14.4967 8.60332 14.7337 10.4322C14.9797 12.3299 13.8946 14.0982 12.0922 14.7248C11.9408 14.7776 11.8616 14.8529 11.8088 15.0068C11.2563 16.6154 9.75012 17.6863 8.04557 17.6908ZM8.04557 10.7947C6.44405 10.7973 5.13554 12.1058 5.1336 13.7054C5.13167 15.3146 6.44985 16.6322 8.05909 16.6296C9.66833 16.627 10.973 15.3095 10.9685 13.6912C10.964 12.0923 9.65159 10.7915 8.04557 10.7947ZM12.0387 13.5843C13.1805 13.1451 13.8856 11.7664 13.6641 10.438C13.4483 9.14682 12.2577 8.10233 10.944 8.05274C9.74239 8.00702 8.41262 8.81583 8.19432 9.72509C10.3084 9.83714 11.9248 11.4625 12.0387 13.5843Z" fill="#141414" fill-opacity="0.4"/>
<path d="M16.3272 16.0867C16.1746 16.8877 16.031 17.6914 15.8642 18.4899C15.8056 18.7707 15.5274 18.9143 15.2498 18.857C14.9794 18.8016 14.7888 18.5459 14.8364 18.2703C14.9704 17.4976 15.1101 16.7261 15.2556 15.9559C15.3091 15.6732 15.5667 15.4929 15.8339 15.5284C16.1063 15.5644 16.3072 15.8027 16.3272 16.0867Z" fill="#141414" fill-opacity="0.4"/>
<path d="M15.4361 14.158C15.4386 13.8489 15.6627 13.61 15.9544 13.6055C16.2442 13.601 16.4896 13.8444 16.4934 14.1419C16.4979 14.4543 16.2571 14.7054 15.9557 14.7035C15.6576 14.7015 15.4335 14.4665 15.4361 14.158Z" fill="#141414" fill-opacity="0.4"/>
<path d="M9.33606 14.7698C9.33735 15.0634 9.11776 15.2907 8.82605 15.2978C8.52596 15.3049 8.26838 15.0557 8.26709 14.7569C8.26581 14.4632 8.51309 14.2185 8.8048 14.225C9.09393 14.2314 9.33477 14.4781 9.33606 14.7698Z" fill="#141414"/>
<path d="M8.79822 12.5823C8.79243 12.8689 8.55738 13.102 8.2734 13.1026C7.97782 13.1033 7.72539 12.8425 7.73055 12.5424C7.73505 12.2539 7.96817 12.024 8.25473 12.0247C8.55159 12.024 8.80402 12.2835 8.79822 12.5823Z" fill="#141414"/>
<path d="M6.89027 14.6604C6.58761 14.6636 6.33582 14.4138 6.3384 14.1137C6.34097 13.8278 6.57215 13.5953 6.85871 13.5921C7.16137 13.5882 7.40929 13.8368 7.40736 14.1401C7.40543 14.4318 7.18069 14.6578 6.89027 14.6604Z" fill="#141414"/>
</svg>
