<svg width="48" height="48" viewBox="0 0 48 48" fill="none" xmlns="http://www.w3.org/2000/svg">
<g clip-path="url(#clip0_9_811)">
<path d="M24 48C37.2548 48 48 37.2548 48 24C48 10.7452 37.2548 0 24 0C10.7452 0 0 10.7452 0 24C0 37.2548 10.7452 48 24 48Z" fill="white"/>
<path d="M37.4473 16.0677C37.4473 15.929 37.4438 15.9219 37.298 15.9255C36.946 15.929 36.5976 15.8863 36.2527 15.833C34.9976 15.6446 30.9265 13.5077 30.2367 10.0126C30.2225 9.94502 30.0696 9.07746 30.0696 8.70768C30.0696 8.54413 30.066 8.54057 29.906 8.54057C29.8669 8.54057 29.8314 8.54057 29.7922 8.54057C28.1994 8.54057 26.6029 8.54057 25.01 8.54057C24.69 8.54057 24.7327 8.50146 24.7327 8.82146C24.7327 15.7335 24.7327 22.6455 24.7327 29.5575C24.7327 29.8135 24.7256 30.073 24.6794 30.3255C24.4376 31.6623 23.7549 32.7112 22.5958 33.4259C21.5931 34.0446 20.5016 34.2223 19.3425 33.9912C18.9762 33.9201 18.6349 33.7815 18.2936 33.6463C18.2651 33.6215 18.2367 33.5966 18.2118 33.5717C18.098 33.4757 17.97 33.3939 17.8456 33.3086C16.37 32.2881 15.6696 30.8695 15.8829 29.0952C16.0998 27.2961 17.1345 26.073 18.8411 25.4437C19.3496 25.2552 19.8865 25.177 20.4305 25.209C20.7825 25.2268 21.1309 25.273 21.4687 25.369C21.586 25.401 21.65 25.3619 21.6571 25.2375C21.6607 25.1948 21.6607 25.1486 21.6607 25.1059C21.6607 23.865 21.6145 21.1557 21.6074 21.1486C21.6109 20.793 21.6109 20.4339 21.618 20.0784C21.6216 19.9752 21.5682 19.9575 21.4829 19.9468C20.8393 19.8721 20.1958 19.8543 19.5487 19.9041C18.6562 19.9681 17.7887 20.153 16.946 20.4552C15.602 20.9388 14.4251 21.6855 13.4082 22.681C12.5336 23.5379 11.8473 24.5264 11.346 25.6428C10.8625 26.7095 10.5887 27.8295 10.5105 28.9957C10.4785 29.5006 10.482 30.009 10.5318 30.5175C10.5958 31.2179 10.7309 31.9041 10.9442 32.5761C11.5594 34.5032 12.6722 36.0819 14.2545 37.337C14.4145 37.465 14.5709 37.6037 14.7629 37.6855C14.8447 37.7566 14.9229 37.8277 15.0047 37.8988C15.2607 38.0908 15.5345 38.2579 15.8225 38.3966C17.5931 39.2712 19.4598 39.6268 21.426 39.3886C23.9789 39.0757 26.1051 37.945 27.7762 35.9966C29.3514 34.1619 30.1158 32.0108 30.13 29.6037C30.1514 26.1619 30.1336 22.7201 30.1371 19.2748C30.1371 19.193 30.0909 19.0757 30.1798 19.033C30.2509 19.001 30.322 19.0935 30.3896 19.1397C31.6696 19.9824 33.0527 20.5903 34.5496 20.9317C35.4207 21.1308 36.2989 21.2517 37.1949 21.2517C37.4758 21.2517 37.5149 21.2375 37.5149 20.9566C37.5114 19.737 37.4473 16.3948 37.4473 16.0677Z" fill="#071F60"/>
</g>
<defs>
<clipPath id="clip0_9_811">
<rect width="48" height="48" fill="white"/>
</clipPath>
</defs>
</svg>
