<svg width="287" height="133" viewBox="0 0 287 133" fill="none" xmlns="http://www.w3.org/2000/svg">
<path d="M0.568695 7.88752L0.568756 7.88801C2.91965 27.3106 5.27249 46.7333 7.62537 66.1559L7.715 66.8956C10.0379 86.0714 12.3609 105.247 14.6819 124.423C15.1214 128.006 16.2264 130.004 17.6305 131.054C19.0353 132.105 20.8531 132.293 22.9176 131.993L22.9196 131.993C102.889 120.73 183.32 117.307 263.284 120.242L263.285 120.242C267.294 120.393 271 117.432 271.575 113.663C273.925 98.0934 276.278 82.5242 278.63 66.9551L278.632 66.945L278.633 66.9384C280.985 51.3681 283.338 35.7978 285.688 20.2275L285.688 20.2268C285.971 18.3762 285.339 16.7542 284.087 15.6048C282.828 14.4487 280.915 13.7494 278.621 13.8371L278.621 13.8372C188.454 17.1485 97.7556 13.2854 7.58298 0.582986L7.58109 0.582712C5.31885 0.255235 3.43655 0.919513 2.18936 2.21218C0.939117 3.50799 0.276031 5.48898 0.568695 7.88752Z" stroke="white"/>
</svg>
