<svg width="191" height="89" viewBox="0 0 191 89" fill="none" xmlns="http://www.w3.org/2000/svg">
<path d="M190.455 5.28319L190.455 5.28343C188.891 18.2474 187.325 31.2114 185.76 44.1754L185.753 44.2361C184.185 57.2202 182.617 70.2043 181.05 83.1884C180.756 85.5954 180.014 86.9573 179.052 87.6787C178.091 88.4002 176.853 88.5237 175.468 88.3222L175.467 88.3221C122.183 80.7933 68.5912 78.5049 15.3101 80.4672L15.3098 80.4672C12.5994 80.5696 10.0899 78.5627 9.69987 75.9968C8.13334 65.5866 6.56548 55.1763 4.99762 44.766C3.42974 34.3557 1.86187 23.9453 0.295325 13.535L0.295269 13.5346C0.102877 12.2688 0.534394 11.1565 1.38842 10.3697C2.24607 9.57949 3.54364 9.1067 5.08983 9.16606L5.09021 9.16607C65.1704 11.3796 125.604 8.79721 185.687 0.306284L185.688 0.306147C187.218 0.0838723 188.5 0.53438 189.352 1.42008C190.205 2.30745 190.652 3.65853 190.455 5.28319Z" stroke="#141414" stroke-width="0.5"/>
</svg>
