<svg width="47" height="48" viewBox="0 0 47 48" fill="none" xmlns="http://www.w3.org/2000/svg">
<path d="M27.3188 24L21.15 20.4V27.6L27.3188 24Z" fill="white"/>
<path fill-rule="evenodd" clip-rule="evenodd" d="M0 24C0 10.7452 10.5213 0 23.5 0C36.4787 0 47 10.7452 47 24C47 37.2548 36.4787 48 23.5 48C10.5213 48 0 37.2548 0 24ZM32.6063 16.05C33.6344 16.35 34.3688 17.1 34.6625 18.15C35.25 20.1 35.25 24 35.25 24C35.25 24 35.25 27.9 34.8094 29.85C34.5156 30.9 33.7812 31.65 32.7531 31.95C30.8437 32.4 23.5 32.4 23.5 32.4C23.5 32.4 16.0094 32.4 14.2469 31.95C13.2187 31.65 12.4844 30.9 12.1906 29.85C11.75 27.9 11.75 24 11.75 24C11.75 24 11.75 20.1 12.0437 18.15C12.3375 17.1 13.0719 16.35 14.1 16.05C16.0094 15.6 23.3531 15.6 23.3531 15.6C23.3531 15.6 30.8438 15.6 32.6063 16.05Z" fill="white"/>
</svg>
