<svg width="93" height="73" viewBox="0 0 93 73" fill="none" xmlns="http://www.w3.org/2000/svg">
<path d="M51.9826 38.1161H18.1266V21.6938L19.6436 12.2786L29.2032 4.23602H41.9654L51.0676 13.3622L51.9826 38.1161Z" fill="#EBF8FC"/>
<path fill-rule="evenodd" clip-rule="evenodd" d="M19.1125 37.4695H57.9369L58.0762 67.9191H19.2891L19.1125 37.4695Z" fill="#D7E5E9"/>
<path d="M50.2044 58.2841C41.9147 58.5154 42.3649 63.2334 36.6917 62.6017C31.6776 62.0446 20.0154 65.7355 17.8168 65.7355L17.2596 67.5461L50.2741 67.4764L50.2044 58.2816V58.2841Z" fill="white"/>
<path d="M33.0057 56.083C32.9435 56.0506 32.854 56.0929 32.7893 56.1128C32.7147 56.1377 32.6152 56.1128 32.5381 56.1128C32.4411 56.1128 32.3541 56.088 32.262 56.0506C32.1203 55.9934 32.0034 55.8567 31.8691 55.7721C31.7347 55.6875 31.583 55.685 31.4363 55.7398C31.2995 55.7895 31.1627 55.884 31.0284 55.9536C30.817 56.0631 30.6106 56.0457 30.429 55.8964C30.2997 55.7895 30.1977 55.6403 30.0559 55.5507C29.9216 55.4662 29.7724 55.4513 29.6256 55.4861C29.3098 55.5582 29.0735 55.9089 28.775 56.0307C28.4666 56.1551 28.2428 55.7621 27.9642 55.6825C27.8051 55.6378 27.6508 55.6925 27.4942 55.7572C27.3947 55.7771 27.2977 55.8044 27.2007 55.8343C27.0614 55.8765 26.9097 55.9238 26.7853 56.0407C26.5963 56.2198 26.6112 56.5406 26.8077 56.6575C27.0415 56.7968 27.3026 56.4585 27.5265 56.3789C27.7081 56.3118 27.8697 56.4511 28.0115 56.568C28.1408 56.6724 28.2776 56.747 28.4293 56.7794C28.7427 56.8465 29.0486 56.568 29.3346 56.3939C29.454 56.3217 29.5684 56.272 29.6903 56.3217C29.7724 56.3541 29.842 56.4287 29.9166 56.4859C30.0684 56.6003 30.2201 56.7197 30.3917 56.7744C30.6802 56.8639 30.9389 56.6326 31.1876 56.4187C31.3318 56.2944 31.5034 56.1601 31.6726 56.1899C31.8566 56.2223 32.0058 56.4113 32.1824 56.4809C32.3864 56.563 32.6252 56.6127 32.839 56.5108C32.9236 56.471 33.1624 56.165 33.0082 56.0879L33.0057 56.083Z" fill="white"/>
<path d="M26.181 45.9183C26.1338 45.8934 26.0865 45.9282 26.0467 45.9581C25.9522 46.0302 25.8701 46.0924 25.7532 46.06C25.5841 46.0128 25.4647 45.8238 25.2906 45.7964C25.1936 45.7815 25.1016 45.8486 25.0146 45.8859C24.9449 45.9158 24.8827 45.9804 24.8206 46.0302C24.7484 46.0899 24.6614 46.1471 24.5793 46.0899C24.5097 46.0426 24.4574 45.9531 24.3978 45.8859C24.2833 45.7541 24.149 45.774 24.0197 45.8486C23.9152 45.9083 23.8307 46.0078 23.7312 46.075C23.6267 46.1471 23.4974 46.2565 23.3805 46.172C23.3009 46.1148 23.2462 46.0202 23.1616 45.9705C23.087 45.9257 23.0323 45.8984 22.9502 45.9058C22.8284 45.9208 22.714 46.0003 22.6095 46.0874C22.5498 46.0973 22.4901 46.1048 22.4329 46.1322C22.3707 46.162 22.2986 46.2515 22.3558 46.3411C22.4205 46.4381 22.5399 46.3709 22.6145 46.3311C22.7537 46.2515 22.8806 46.1471 23.0373 46.1645C23.1467 46.1769 23.2387 46.2615 23.3357 46.3262C23.4128 46.3784 23.4949 46.4157 23.582 46.4256C23.7486 46.443 23.8904 46.2665 24.0297 46.1744C24.1192 46.1147 24.2237 46.0774 24.3182 46.1371C24.3978 46.1869 24.4574 46.2913 24.5345 46.351C24.6589 46.448 24.7882 46.3759 24.9101 46.3063C24.9847 46.2615 25.0494 46.1869 25.1215 46.1371C25.2285 46.065 25.3354 46.0849 25.4399 46.1595C25.4996 46.2043 25.5543 46.2665 25.614 46.3137C25.6786 46.3635 25.7483 46.3759 25.8204 46.3684C25.9224 46.356 26.0467 46.264 26.1263 46.1819C26.1661 46.1421 26.2855 45.968 26.186 45.9183H26.181Z" fill="white"/>
<path d="M43.678 53.1184C43.6332 53.1234 43.5884 53.1308 43.5437 53.1408C43.4268 53.1607 43.3298 53.096 43.2352 53.0363C42.9467 52.8548 42.6607 52.6434 42.3026 52.7304C42.1608 52.7652 42.024 52.8597 41.922 52.9592C41.7852 53.0985 41.6733 53.3074 41.4445 53.2502C41.2853 53.2104 41.1237 53.0861 40.9819 53.004C40.8575 52.9319 40.7257 52.8647 40.5815 52.8448C40.4397 52.8274 40.2905 52.815 40.1537 52.8647C40.0442 52.9045 39.9671 53.0015 39.895 53.0861C39.7781 53.2253 39.6587 53.387 39.4772 53.4343C39.2906 53.4815 39.0991 53.2875 38.9698 53.1856C38.8504 53.091 38.7459 52.9866 38.5967 52.9418C38.4724 52.9045 38.3381 52.9393 38.2236 52.9891C37.9774 53.096 37.7859 53.3024 37.5869 53.4815C37.5521 53.5014 37.5148 53.5238 37.4775 53.5437C37.3805 53.5959 37.2735 53.6382 37.2089 53.7302C37.1666 53.7924 37.2014 53.877 37.2437 53.9267C37.3158 54.0113 37.4178 54.0212 37.5223 54.0138C37.7909 53.9914 37.9998 53.7949 38.2212 53.6606C38.3828 53.5636 38.5718 53.5263 38.7534 53.586C38.9026 53.6357 39.027 53.7526 39.1588 53.8322C39.3628 53.9541 39.6214 53.9441 39.808 53.7949C39.9149 53.7078 40.0094 53.6059 40.1412 53.5561C40.3377 53.4815 40.4695 53.5089 40.6461 53.6158C40.9147 53.7775 41.1759 53.877 41.4868 53.77C41.8499 53.6432 42.121 53.3273 42.5289 53.3248C42.8721 53.3223 43.1183 53.6954 43.4666 53.5735C43.5834 53.5338 43.6979 53.484 43.7899 53.3994C43.8396 53.3547 43.8919 53.2328 43.8446 53.1681C43.8023 53.1109 43.7377 53.1109 43.673 53.1159L43.678 53.1184Z" fill="white"/>
<path d="M33.1973 50.012L33.4733 49.6763C33.6997 49.4002 34.0305 49.2336 34.3861 49.2112L43.0265 48.7187C43.1409 48.7113 43.218 48.8282 43.1707 48.9326L42.6658 50.012" fill="white"/>
<path d="M33.2943 50.0917L33.1028 49.935L33.3789 49.5992C33.6276 49.2983 33.9907 49.1117 34.3812 49.0894L43.0215 48.5969C43.1185 48.5944 43.2106 48.6367 43.2653 48.7163C43.32 48.7959 43.3274 48.8978 43.2877 48.9849L42.7828 50.0643L42.5564 49.9598L43.0613 48.8804C43.0613 48.8804 43.0613 48.8605 43.0613 48.8556C43.0563 48.8506 43.0514 48.8406 43.0389 48.8431L34.3986 49.3356C34.0777 49.3555 33.7793 49.5097 33.5753 49.7559L33.2993 50.0917H33.2943Z" fill="#4A4A4A"/>
<path d="M33.9135 47.6095L33.9433 47.5647C37.1293 42.7621 38.4749 37.1164 38.6241 36.4598C38.4102 38.3475 38.8579 47.9999 39.0071 47.995C39.0469 47.995 33.9135 47.6095 33.9135 47.6095Z" fill="#FAB768"/>
<path d="M39.0072 48.1193C39.0072 48.1193 38.9972 48.1193 38.9922 48.1193C38.9002 48.1094 35.6246 47.8632 33.906 47.7363C33.8612 47.7338 33.8239 47.7065 33.804 47.6667C33.7841 47.6269 33.7866 47.5796 33.8115 47.5423L33.8413 47.4976C37.0199 42.7099 38.3605 37.0617 38.5048 36.4324C38.5197 36.3678 38.5818 36.3255 38.6465 36.3379C38.7112 36.3479 38.756 36.4101 38.7485 36.4747C38.5421 38.3003 38.9624 47.2986 39.1066 47.9179C39.1315 47.9378 39.1315 47.9627 39.1315 48C39.1315 48.0671 39.0768 48.1193 39.0121 48.1218H39.0072V48.1193ZM34.1348 47.5025L38.2212 47.8109C38.5147 47.8333 38.7137 47.8482 38.8505 47.8632C38.6341 46.6047 38.4401 40.3521 38.4625 37.6063C37.9128 39.601 36.5673 43.7918 34.1373 47.505L34.1348 47.5025Z" fill="#4A4A4A"/>
<path d="M39.0694 38.6286L42.1435 49.1988L38.368 48.6342C39.1714 46.5227 39.3729 40.3795 39.0694 38.6286Z" fill="#7FB0A1"/>
<path d="M42.1411 49.3206C42.1411 49.3206 42.1286 49.3206 42.1237 49.3206L38.3482 48.7561C38.3109 48.7511 38.2785 48.7287 38.2586 48.6964C38.2387 48.664 38.2363 48.6242 38.2487 48.5894C39.0595 46.458 39.2411 40.3546 38.9426 38.651C38.9302 38.5863 38.9724 38.5241 39.0371 38.5092C39.1018 38.4943 39.1664 38.5316 39.1839 38.5962L42.258 49.1664C42.2704 49.2062 42.258 49.251 42.2331 49.2833C42.2082 49.3107 42.1759 49.3256 42.1386 49.3256L42.1411 49.3206ZM38.5347 48.5322L41.967 49.0446L39.3032 39.8821C39.4052 42.3145 39.1739 46.6619 38.5347 48.5322Z" fill="#4B4A4B"/>
<path d="M35.8536 35.6042C35.8362 35.644 35.8238 35.6788 35.8188 35.7087C35.8188 35.7087 37.6518 34.6442 38.0523 34.8332C38.0523 34.8332 37.7886 34.0025 38.1095 33.5872L38.4825 34.5969L39.9748 33.7588C39.9748 33.7588 39.6789 32.2441 40.0345 32.361C40.3902 32.4779 40.5643 33.3186 40.5643 33.3186C40.5643 33.3186 43.4369 31.7666 43.7354 30.7643C43.7354 30.7643 43.7404 30.2495 43.9095 30.2594C43.8846 30.6847 44.0736 31.0876 44.4243 31.2667C44.7924 31.4532 45.2302 31.3388 45.5286 31.018C45.5311 31.0429 45.5361 31.0677 45.5435 31.0926C45.5908 31.2344 45.6953 31.3786 45.842 31.3985C45.8793 31.4035 45.9092 31.3985 45.934 31.3911C46.2201 34.1244 47.1179 36.9398 47.3318 37.8675C47.6228 39.121 48.839 42.6775 49.4459 44.4981C49.916 45.9083 51.4829 48.8903 52.1967 50.5716C52.908 52.2529 53.8258 52.8075 53.7611 53.2204C53.6964 53.6332 53.689 53.7103 53.689 53.7103L57.9942 53.3771C57.8823 52.8622 57.2729 52.9866 56.2681 52.718C55.2658 52.4519 54.8057 52.1534 54.1814 51.6286C53.5571 51.1014 52.1942 48.1019 51.6022 46.7315C51.075 45.5128 50.2467 43.8589 49.8786 42.6701C49.5479 41.6006 49.1325 40.4541 48.8067 39.5239C48.4809 38.5912 48.1003 37.4347 47.787 36.2335C47.5656 35.3779 47.093 33.0798 46.8393 31.8313C46.7871 31.9905 46.7349 32.085 46.7349 32.085C46.7349 32.085 46.7299 32.0452 46.7225 31.9805C46.7175 31.9158 46.71 31.8213 46.7026 31.7144C46.6976 31.6448 46.6926 31.5652 46.6876 31.4806C46.7697 31.4955 46.8543 31.5005 46.9388 31.4955C47.1701 31.4781 47.3791 31.3786 47.5482 31.2244C47.8044 31.3438 47.9611 31.3836 47.9611 31.3836C48.068 30.7718 48.3093 31.5776 48.3093 31.5776C48.7967 32.4158 51.2242 32.8709 51.2242 32.8709C51.2242 32.8709 51.1123 32.0203 51.3262 31.7865C51.5401 31.5527 51.7564 33.0798 51.7564 33.0798L53.0274 33.3459L53.005 32.2665C53.3432 32.5426 53.3905 33.4156 53.3905 33.4156C53.6168 33.0997 55.1862 33.4603 55.1862 33.4603C55.1763 33.4355 55.1564 33.4056 55.134 33.3758C54.9897 32.2939 54.0421 31.1573 54.0421 31.1573C53.1841 31.1225 53.7934 30.4584 53.7934 30.4584C53.5323 29.9262 52.6991 29.2173 52.6991 29.2173C52.1519 29.5133 52.2787 28.7348 52.2787 28.7348C52.2514 28.6901 52.2091 28.6453 52.1519 28.6005C53.0324 28.3941 53.8034 28.128 53.8034 28.128C53.8034 28.128 53.3482 27.4117 53.5173 27.0635C53.6865 26.7153 54.5197 27.9937 54.5197 27.9937L56.1388 27.4639L55.706 26.479C56.2134 26.5288 56.6014 27.3048 56.6014 27.3048C56.7506 26.8745 58.7603 26.2477 58.7603 26.2477C58.7379 26.2328 58.7031 26.2179 58.6633 26.203C58.0837 25.2927 56.5243 24.8201 56.5243 24.8201C55.4872 25.3126 55.9647 24.3277 55.9647 24.3277C55.4523 23.9969 54.1914 23.8502 54.1914 23.8502C53.6492 24.457 53.5074 23.6611 53.5074 23.6611C53.1169 23.4696 51.458 23.8427 51.361 23.9397C50.7964 24.4918 50.7964 24.084 50.8163 23.9074C51.0327 23.6587 51.172 23.487 51.172 23.487C51.172 23.487 50.5576 23.1836 50.5328 22.8603C50.5079 22.537 51.6221 23.0692 51.6221 23.0692L52.5449 21.9575L51.836 21.4526C52.2141 21.2561 52.806 21.6342 52.806 21.6342C52.7364 21.2611 53.8954 19.9031 53.8954 19.9031C53.873 19.9031 53.8432 19.9056 53.8083 19.9131C53.0274 19.5276 51.7316 19.8982 51.7316 19.8982C51.2018 20.7189 51.1347 19.8012 51.1347 19.8012C50.6372 19.8012 49.6896 20.2638 49.6896 20.2638C49.5578 20.9427 49.13 20.4379 49.13 20.4379C48.7768 20.4777 47.7596 21.4949 47.7298 21.6093C47.5183 22.4101 47.3119 21.7784 47.3119 21.7784C46.7722 22.2559 46.0037 23.681 45.8992 23.875C45.8246 23.5965 45.7301 23.3254 45.6132 23.0717C45.6132 23.0717 45.0934 22.813 45.0237 23.1762C45.0237 23.1762 44.1209 21.6366 43.5314 21.1591C43.5314 21.1591 43.3598 21.7859 43.1161 21.0099C43.0813 20.9005 42.0392 19.9429 41.6934 19.9156C41.6934 19.9156 41.3005 20.4229 41.1388 19.7663C41.1388 19.7663 40.1912 19.346 39.7037 19.3659C39.7037 19.3659 39.6813 20.2663 39.1242 19.4828C39.1242 19.4828 37.8433 19.1669 37.0972 19.5723C37.0649 19.5674 37.035 19.5624 37.0126 19.5649C37.0126 19.5649 38.2114 20.8482 38.1592 21.2163C38.1592 21.2163 38.7188 20.8258 39.0969 21.0024L38.4278 21.5198L39.3829 22.5718C39.3829 22.5718 40.4424 22.0122 40.4349 22.3281C40.4275 22.6439 39.8405 22.9648 39.8405 22.9648C39.8405 22.9648 40.5369 23.7581 41.2582 24.3625C41.2084 24.452 41.0866 24.4595 40.803 24.1312C40.721 24.0367 39.2685 23.5617 38.9078 23.6985C38.9078 23.6985 38.7312 24.3973 38.286 23.8079C38.286 23.8079 37.1544 23.8303 36.6769 24.0815C36.6769 24.0815 37.0375 25.0017 36.1471 24.4719C36.1471 24.4719 34.7269 24.758 34.1524 25.519C34.1151 25.529 34.0853 25.5389 34.0629 25.5513C34.0629 25.5513 35.8138 26.2826 35.9183 26.678C35.9183 26.678 36.3137 26.0189 36.7689 26.0189L36.3187 26.8571L37.7264 27.4689C37.7264 27.4689 38.5522 26.4019 38.679 26.7253C38.8059 27.0486 38.3557 27.648 38.3557 27.648C38.3557 27.648 39.0571 27.9663 39.8529 28.23C39.9599 28.3593 39.9873 28.5334 39.3928 28.5607C39.2585 28.5682 37.8433 29.5456 37.7041 29.9709C37.7041 29.9709 38.1517 30.6325 37.3583 30.6151C37.3583 30.6151 36.5799 31.6597 36.448 32.274C36.448 32.274 37.4578 32.6048 36.3958 33.035C36.3958 33.035 35.6298 34.5298 35.8511 35.5992L35.8536 35.6042ZM46.4315 31.4309C46.4265 31.4159 46.424 31.401 46.419 31.3861C46.4439 31.3985 46.4663 31.411 46.4911 31.4209C46.4762 31.4906 46.4638 31.5328 46.4638 31.5328C46.4638 31.5328 46.4514 31.4955 46.4315 31.4334V31.4309Z" fill="#5C7965"/>
<path d="M29.9788 42.0533C29.3247 41.7872 29.9465 41.5833 29.9465 41.5833C29.8644 41.2052 29.3869 40.5635 29.3869 40.5635C28.8969 40.576 29.173 40.1681 29.173 40.1681C29.0859 39.9069 28.2154 39.3026 28.1334 39.3001C27.7678 39.2827 27.7852 39.1757 27.8498 39.0962C28.3398 38.9345 28.7701 38.738 28.7701 38.738C28.7701 38.738 28.4915 38.3699 28.5711 38.1685C28.6507 37.9695 29.1581 38.6261 29.1581 38.6261L30.0236 38.2505L29.7475 37.7332C30.0286 37.7332 30.2723 38.1386 30.2723 38.1386C30.337 37.8949 31.4164 37.4447 31.4164 37.4447C31.404 37.4373 31.3841 37.4298 31.3617 37.4248C31.0085 36.9548 30.133 36.7807 30.133 36.7807C29.5834 37.1065 29.8072 36.5394 29.8072 36.5394C29.5113 36.3852 28.8148 36.3703 28.8148 36.3703C28.5413 36.7334 28.4318 36.3031 28.4318 36.3031C28.2105 36.2186 27.3151 36.512 27.2654 36.5693C27.0913 36.7707 27.0166 36.7682 26.9843 36.711C27.4295 36.3379 27.8573 35.8505 27.8573 35.8505C27.8573 35.8505 27.4967 35.654 27.4917 35.4575C27.4867 35.261 28.1408 35.6067 28.1408 35.6067L28.7278 34.9601L28.3149 34.6417C28.5487 34.5323 28.8919 34.7736 28.8919 34.7736C28.8596 34.5472 29.5983 33.7563 29.5983 33.7563C29.5859 33.7563 29.566 33.7563 29.5461 33.7613C29.0859 33.5126 28.2975 33.7066 28.2975 33.7066C27.9568 34.1891 27.9419 33.6345 27.9419 33.6345C27.6434 33.622 27.0589 33.8807 27.0589 33.8807C26.9594 34.2861 26.7182 33.9727 26.7182 33.9727C26.5043 33.9901 25.8626 34.5796 25.8427 34.6467C25.691 35.1242 25.5865 34.7387 25.5865 34.7387C25.2234 35.0347 24.6688 35.9823 24.6688 35.9823C24.6265 35.7585 24.3056 35.9176 24.3056 35.9176C24.2335 36.0743 24.1763 36.241 24.1291 36.4126C24.0644 36.2932 23.5918 35.4152 23.2586 35.1218C23.2586 35.1218 23.1317 35.5122 22.9999 35.0173C22.9825 34.9477 22.3557 34.3209 22.1369 34.296C22.1369 34.296 21.8732 34.6069 21.7911 34.1891C21.7911 34.1891 21.2067 33.9031 20.9007 33.9031C20.9007 33.9031 20.8585 34.4676 20.5326 33.9628C20.5326 33.9628 19.7368 33.734 19.2542 33.9727C19.2343 33.9677 19.2145 33.9653 19.202 33.9653C19.202 33.9653 19.9158 34.8009 19.8735 35.0322C19.8735 35.0322 20.2367 34.7984 20.4705 34.9203L20.0327 35.2312L20.6023 35.9151C20.6023 35.9151 21.2862 35.5868 21.2713 35.7858C21.2564 35.9848 20.8784 36.1713 20.8784 36.1713C20.8784 36.1713 20.9629 36.2758 21.0972 36.43C21.1097 36.5394 21.1097 36.7906 20.7615 36.4499C20.7018 36.3902 19.6796 36.1614 19.4383 36.2783C19.4383 36.2783 19.3512 36.7707 19.018 36.3952C19.018 36.3952 18.242 36.4847 17.9261 36.6886C17.9261 36.6886 18.2196 37.2955 17.5804 36.9921C17.5804 36.9921 16.6179 37.283 16.2622 37.8426C16.2373 37.8526 16.2174 37.8601 16.2025 37.87C16.2025 37.87 17.4411 38.2555 17.5331 38.5216C17.5331 38.5216 17.7719 38.0416 18.0853 38.0118L17.8192 38.6186L18.8165 38.9444C18.8165 38.9444 19.3289 38.1585 19.4333 38.3699C19.5378 38.5813 19.2567 39.024 19.2567 39.024C19.2567 39.024 19.7293 39.1882 20.274 39.315C20.2392 39.3424 20.2143 39.3697 20.1969 39.3971C20.1969 39.3971 20.2765 39.8771 19.9382 39.6955C19.9382 39.6955 19.4259 40.1333 19.2642 40.4591C19.2642 40.4591 19.6398 40.867 19.1125 40.8894C19.1125 40.8894 18.528 41.5907 18.4409 42.2548C18.426 42.2747 18.4136 42.2921 18.4086 42.307C18.4086 42.307 19.3761 42.0857 19.5129 42.2796C19.5129 42.2796 19.5428 41.7424 19.7517 41.5708L19.7368 42.2349L20.5202 42.0707C20.5202 42.0707 20.652 41.1306 20.7863 41.2749C20.9181 41.4191 20.8485 41.9414 20.8485 41.9414C20.8485 41.9414 22.3433 41.6604 22.6417 41.1455C22.6417 41.1455 22.791 40.6506 22.8556 41.0261C22.8556 41.0261 22.9526 41.0013 23.1093 40.9267C23.2138 41.0212 23.3431 41.0809 23.4849 41.0933C23.5371 41.0983 23.5893 41.0933 23.6391 41.0858L23.6291 41.2301C23.6242 41.2972 23.6192 41.3544 23.6167 41.3942C23.6142 41.434 23.6092 41.4589 23.6092 41.4589C23.6092 41.4589 23.5769 41.4017 23.5446 41.3022C23.3879 42.0707 23.0994 43.4859 22.9626 44.0132C22.7711 44.7518 22.5373 45.4656 22.3358 46.0401C22.1344 46.6147 21.8782 47.3185 21.6742 47.9776C21.4479 48.7088 20.938 49.726 20.6122 50.4771C20.2466 51.3203 19.4084 53.1682 19.0229 53.4915C18.6399 53.8148 18.3564 53.9989 17.7396 54.163C17.1228 54.3272 16.7472 54.2501 16.6776 54.5684L19.3289 54.7724C19.3289 54.7724 19.3239 54.7251 19.2841 54.4714C19.2443 54.2177 19.8089 53.8745 20.2466 52.8399C20.6844 51.8053 21.6519 49.9673 21.9404 49.0993C22.3134 47.9776 23.0621 45.7889 23.2411 45.0179C23.373 44.4484 23.9251 42.7149 24.1017 41.0311C24.1166 41.0361 24.1365 41.0386 24.1589 41.0361C24.2509 41.0237 24.3156 40.9341 24.343 40.8471C24.3479 40.8321 24.3504 40.8172 24.3529 40.7998C24.5369 40.9963 24.8056 41.0684 25.0319 40.954C25.2483 40.8446 25.3652 40.5959 25.3502 40.3347C25.4547 40.3273 25.4572 40.6456 25.4572 40.6456C25.6412 41.2624 27.4096 42.22 27.4096 42.22C27.4096 42.22 27.5166 41.7026 27.7354 41.6305C27.9543 41.5584 27.7727 42.491 27.7727 42.491L28.693 43.0084L28.9218 42.3866C29.1208 42.6428 28.9566 43.1526 28.9566 43.1526C29.2028 43.0357 30.332 43.6923 30.332 43.6923C30.3295 43.6749 30.3221 43.6525 30.3096 43.6277C30.4464 42.9711 29.9739 42.0483 29.9739 42.0483L29.9788 42.0533ZM23.7809 41.1231C23.7809 41.1231 23.7734 41.0983 23.7634 41.0535C23.7784 41.0485 23.7933 41.0411 23.8082 41.0336L23.8008 41.061C23.7883 41.1008 23.7809 41.1231 23.7809 41.1231Z" fill="#5C7965"/>
<path d="M92.9091 67.9613H0.0996575C0.0487712 67.9613 0.00878906 67.8804 0.00878906 67.7774C0.00878906 67.6744 0.0487712 67.5935 0.0996575 67.5935H92.9091C92.96 67.5935 92.9999 67.6744 92.9999 67.7774C92.9999 67.8804 92.96 67.9613 92.9091 67.9613Z" fill="#4A4A4A"/>
<path d="M19.2581 67.5895H16.4167C16.3926 53.6152 16.3445 24.5206 16.3445 19.9358C16.3445 14.2049 21.8587 2.47809 34.934 2.47809C45.3942 2.47809 50.8827 9.84646 52.3195 13.5306L51.573 19.4783C50.7864 14.6544 46.3574 5.00645 34.934 5.00645C23.5106 5.00645 19.7237 14.9594 19.2581 19.9358V67.5895Z" fill="white"/>
<path fill-rule="evenodd" clip-rule="evenodd" d="M53.8206 67.4641C53.8206 67.5337 53.8753 67.5884 53.945 67.5884C54.0146 67.5884 54.0693 67.5337 54.0693 67.4641V21.1641C54.0693 10.7407 45.5906 2.26215 35.167 2.26215C24.7433 2.26215 16.2646 10.7407 16.2646 21.1641V67.4641C16.2646 67.5337 16.3194 67.5884 16.389 67.5884C16.4586 67.5884 16.5134 67.5337 16.5134 67.4641V21.1641C16.5134 10.88 24.8826 2.51086 35.167 2.51086C45.4513 2.51086 53.8206 10.8775 53.8206 21.1641V67.4641ZM51.1793 67.4641C51.1793 67.5337 51.234 67.5884 51.3036 67.5884V67.586C51.3733 67.586 51.428 67.5312 51.428 67.4616V21.0174C51.428 12.1036 44.1755 4.85124 35.2615 4.85124C26.3476 4.85124 19.095 12.1036 19.095 21.0174V67.4616C19.095 67.5312 19.1498 67.586 19.2194 67.586C19.289 67.586 19.3438 67.5312 19.3438 67.4616V21.0174C19.3438 12.2404 26.4844 5.09995 35.2615 5.09995C44.0387 5.09995 51.1793 12.2404 51.1793 21.0174V67.4641Z" fill="#4A4A4A"/>
<path d="M78.222 72.5427V20.5373C78.222 7.08957 70.7158 -0.908953 62.5505 1.52344C55.385 3.65737 50.1893 12.3175 50.1893 21.092V67.5362" fill="#E9E6E2"/>
<path d="M76.5034 72.5427V20.5373C76.5034 7.08957 69.4573 -0.908953 61.7919 1.52344C55.0666 3.65737 50.1893 12.3175 50.1893 21.092V67.5362L76.5034 72.5402V72.5427Z" fill="white"/>
<path d="M76.5033 72.6671C76.5033 72.6671 76.4884 72.6671 76.481 72.6671L50.1669 67.663C50.1072 67.6531 50.0649 67.6009 50.0649 67.5412V21.092C50.0649 11.9817 55.0915 3.51811 61.7545 1.40407C64.5824 0.506223 67.3705 0.978772 69.8179 2.77197C74.0833 5.89329 76.6277 12.5339 76.6277 20.5374V72.5427C76.6277 72.58 76.6103 72.6149 76.5829 72.6372C76.5605 72.6571 76.5332 72.6671 76.5033 72.6671ZM50.3137 67.4342L76.379 72.391V20.5374C76.379 12.6134 73.8719 6.04749 69.6711 2.97343C67.2909 1.22997 64.5799 0.769855 61.8316 1.64283C58.6431 2.65508 55.7133 5.22426 53.5768 8.8803C51.4727 12.4841 50.3137 16.8216 50.3137 21.092V67.4342Z" fill="#4A4A4A"/>
<path d="M60.9016 62.7286C60.8867 62.7286 60.8743 62.7286 60.8593 62.7261L54.5917 61.9675C54.3729 61.9402 54.2037 61.7039 54.2037 61.4254V51.1835C54.2037 51.0243 54.2609 50.88 54.3579 50.788C54.4301 50.7184 54.5196 50.6885 54.6116 50.686L60.8792 50.9472C61.118 50.9571 61.3045 51.1959 61.3045 51.4869V62.2361C61.3045 62.3978 61.2449 62.5446 61.1429 62.6341C61.0732 62.6963 60.9912 62.7286 60.9041 62.7286H60.9016ZM54.5992 50.9347C54.5743 50.9347 54.5519 50.9447 54.5296 50.9671C54.4823 51.0118 54.4525 51.0964 54.4525 51.1835V61.4254C54.4525 61.582 54.542 61.7114 54.6216 61.7213L60.8892 62.4799C60.9215 62.4799 60.9514 62.4724 60.9762 62.45C61.026 62.4053 61.0558 62.3257 61.0558 62.2361V51.4869C61.0558 51.3202 60.9563 51.1984 60.8693 51.1959L54.6017 50.9347H54.5992Z" fill="#E9E6E2"/>
<path d="M70.7905 63.9248C70.7731 63.9248 70.7581 63.9248 70.7407 63.9224L63.6126 63.0593C63.3738 63.0295 63.1873 62.7808 63.1873 62.4898V51.5838C63.1873 51.4222 63.2469 51.2729 63.3489 51.1759C63.4285 51.0988 63.528 51.064 63.6325 51.064L70.7606 51.36C71.0193 51.3699 71.2282 51.6261 71.2282 51.9295V63.4125C71.2282 63.5766 71.166 63.7284 71.0566 63.8229C70.9795 63.89 70.885 63.9273 70.788 63.9273L70.7905 63.9248ZM63.6175 51.3078C63.5753 51.3078 63.5404 51.3301 63.5205 51.35C63.4683 51.4023 63.436 51.4868 63.436 51.5789V62.4848C63.436 62.6614 63.5454 62.7957 63.6424 62.8081L70.7706 63.6712C70.8278 63.6761 70.8701 63.6537 70.8949 63.6314C70.9496 63.5841 70.982 63.4995 70.982 63.4075V51.9246C70.982 51.7554 70.8775 51.6087 70.7507 51.6037L63.6225 51.3078H63.6175Z" fill="#E9E6E2"/>
<path d="M60.8792 47.592H60.8742L54.6066 47.4876C54.3828 47.4826 54.2062 47.2587 54.2062 46.9752V21.1267C54.2062 20.8507 54.3778 20.6119 54.5942 20.5845L60.8618 19.826C60.9638 19.8135 61.0657 19.8459 61.1453 19.9155C61.2473 20.0075 61.307 20.1518 61.307 20.3134V47.0697C61.307 47.2289 61.2498 47.3781 61.1478 47.4776C61.0732 47.5522 60.9787 47.592 60.8792 47.592ZM54.624 20.8308C54.5444 20.8407 54.4549 20.9676 54.4549 21.1242V46.9727C54.4549 47.1269 54.537 47.2364 54.6116 47.2364L60.8792 47.3408C60.9115 47.3383 60.9538 47.3184 60.9737 47.2985C61.0259 47.2463 61.0583 47.1617 61.0583 47.0672V20.311C61.0583 20.2214 61.0284 20.1418 60.9787 20.0971C60.9513 20.0747 60.9215 20.0623 60.8916 20.0672L54.624 20.8258V20.8308Z" fill="#E9E6E2"/>
<path d="M70.7631 47.7587H70.7556L63.6274 47.6393C63.3862 47.6343 63.1897 47.3931 63.1897 47.0996V20.0623C63.1897 19.7713 63.3762 19.5201 63.615 19.4927L70.7432 18.6297C70.8576 18.6148 70.972 18.6521 71.0615 18.7317C71.171 18.8287 71.2331 18.9779 71.2331 19.142V47.2115C71.2331 47.3756 71.1734 47.5274 71.0665 47.6318C70.9819 47.7139 70.875 47.7611 70.7631 47.7611V47.7587ZM70.7929 18.8734C70.7929 18.8734 70.7805 18.8734 70.773 18.8734L63.6448 19.7365C63.5478 19.7489 63.4384 19.8832 63.4384 20.0598V47.0971C63.4384 47.2513 63.5279 47.3856 63.6324 47.3881L70.7606 47.5075H70.7631C70.8203 47.5075 70.865 47.4776 70.8899 47.4503C70.9496 47.3931 70.9819 47.3035 70.9819 47.2065V19.1395C70.9819 19.045 70.9496 18.963 70.8949 18.9157C70.8725 18.8958 70.8377 18.8734 70.7904 18.8734H70.7929Z" fill="#E9E6E2"/>
<path d="M73.5113 39.5687C74.0676 39.5687 74.5186 39.0453 74.5186 38.3997C74.5186 37.7541 74.0676 37.2308 73.5113 37.2308C72.955 37.2308 72.504 37.7541 72.504 38.3997C72.504 39.0453 72.955 39.5687 73.5113 39.5687Z" fill="white"/>
<path d="M73.5113 39.693C72.887 39.693 72.3796 39.1135 72.3796 38.3997C72.3796 37.6859 72.887 37.1064 73.5113 37.1064C74.1356 37.1064 74.6429 37.6859 74.6429 38.3997C74.6429 39.1135 74.1356 39.693 73.5113 39.693ZM73.5113 37.3527C73.0238 37.3527 72.6284 37.8227 72.6284 38.3973C72.6284 38.9718 73.0238 39.4418 73.5113 39.4418C73.9988 39.4418 74.3942 38.9718 74.3942 38.3973C74.3942 37.8227 73.9988 37.3527 73.5113 37.3527Z" fill="#4A4A4A"/>
<path d="M25.691 18.5502C25.6537 18.5502 25.6189 18.5278 25.6064 18.493C25.3328 17.8513 24.9548 17.4634 24.4822 17.339C23.6739 17.1276 22.8432 17.7519 22.8333 17.7568C22.7935 17.7892 22.7338 17.7792 22.7014 17.7394C22.6691 17.6996 22.6791 17.6399 22.7188 17.6076C22.7562 17.5803 23.6291 16.9187 24.527 17.155C25.002 17.2793 25.3876 17.63 25.6761 18.1971C25.8402 17.8389 26.2183 17.5529 26.7182 17.4211C27.2479 17.2818 27.9394 17.334 28.2925 17.7618C28.3249 17.8016 28.3199 17.8613 28.2801 17.8936C28.2403 17.926 28.1806 17.921 28.1483 17.8812C27.8473 17.5156 27.2355 17.4783 26.7654 17.6026C26.3451 17.7121 25.8676 17.9981 25.783 18.4706C25.7755 18.5104 25.7432 18.5428 25.7009 18.5477C25.6984 18.5477 25.6935 18.5477 25.691 18.5477V18.5502Z" fill="#1E1D1D"/>
<path d="M28.3596 23.1862C28.3446 23.1862 28.3272 23.1812 28.3123 23.1737C28.2675 23.1488 28.2526 23.0916 28.28 23.0469C28.3048 23.0071 28.8769 22.0421 29.8668 21.7834C30.3393 21.6616 30.8243 21.7213 31.3143 21.9625C31.2073 21.3109 31.5406 20.7364 31.9187 20.3981C32.3813 19.9828 32.9583 19.8335 33.3861 20.0176C33.4333 20.0375 33.4557 20.0922 33.4358 20.1395C33.4159 20.1867 33.3612 20.2091 33.314 20.1892C32.9558 20.0375 32.4459 20.1743 32.043 20.5349C31.67 20.8682 31.3416 21.4601 31.5431 22.1117C31.5531 22.149 31.5431 22.1888 31.5108 22.2112C31.4809 22.2336 31.4386 22.2386 31.4063 22.2187C30.8989 21.9202 30.399 21.8332 29.9165 21.9575C29.0012 22.1963 28.4491 23.124 28.4416 23.1339C28.4242 23.1638 28.3919 23.1812 28.362 23.1812L28.3596 23.1862Z" fill="#1E1D1D"/>
<path d="M29.4764 14.5833H29.4689C29.4316 14.5808 29.3968 14.5534 29.3869 14.5186C29.2998 14.2351 29.1581 14.0585 28.9715 13.9963C28.6084 13.8769 28.1632 14.2027 28.1607 14.2052C28.1184 14.2351 28.0612 14.2276 28.0314 14.1853C28.0015 14.143 28.009 14.0858 28.0513 14.056C28.0737 14.0411 28.5761 13.6705 29.0312 13.8197C29.2352 13.8869 29.3918 14.0411 29.5013 14.2848C29.6406 14.1182 29.8445 14.0187 30.0683 14.0187H30.0733C30.3419 14.0187 30.5658 14.1629 30.6752 14.4017C30.6976 14.449 30.6752 14.5037 30.628 14.5261C30.5807 14.5484 30.526 14.5261 30.5036 14.4788C30.4265 14.3097 30.2648 14.2052 30.0708 14.2052H30.0683C29.8967 14.2052 29.6754 14.2898 29.5635 14.531C29.5485 14.5634 29.5162 14.5833 29.4789 14.5833H29.4764Z" fill="#1E1D1D"/>
</svg>
