<svg width="141" height="41" viewBox="0 0 141 41" fill="none" xmlns="http://www.w3.org/2000/svg">
<path d="M70.747 1.60137C66.3333 4.08772 62.4544 8.6293 59.6549 12.7221C57.2832 9.61723 57.5213 5.15944 60.3605 2.31916C63.192 -0.512303 67.6377 -0.750463 70.747 1.60137Z" fill="#FAB768"/>
<path d="M69.3235 9.82682C69.3235 9.82682 67.5428 8.04613 66.9364 8.7121C66.3333 9.37806 65.6629 9.60079 65.5052 10.1433C65.3464 10.6868 66.3101 12.0111 65.7037 12.4278C65.0928 12.8479 63.7168 12.634 63.3088 13.042C62.9009 13.4499 64.3001 15.1038 65.0939 15.4567C65.8867 15.8095 69.952 16.3454 70.7536 14.8977C71.5551 13.4499 70.8208 11.3837 69.3257 9.82572L69.3235 9.82682Z" fill="#FC9112"/>
<path d="M6.69385 17.9376H0.765201C0.340702 17.9376 0 17.5924 0 17.1724V13.8965C0 13.472 0.345112 13.1313 0.765201 13.1313H19.7386C20.1631 13.1313 20.5038 13.4765 20.5038 13.8965V17.1724C20.5038 17.5969 20.1587 17.9376 19.7386 17.9376H13.6942C13.2697 17.9376 12.929 18.2827 12.929 18.7028V39.6741C12.929 40.0986 12.5839 40.4393 12.1638 40.4393H8.23307C7.80857 40.4393 7.46787 40.0942 7.46787 39.6741V18.7028C7.46787 18.2783 7.12276 17.9376 6.70267 17.9376H6.69495H6.69385Z" fill="black"/>
<path d="M20.043 32.9801V22.4106C20.043 21.9817 20.3925 21.6333 20.8203 21.6333H24.267C24.6948 21.6333 25.0443 21.9817 25.0443 22.4106V31.6746C25.0443 35.0971 26.083 36.2515 28.4315 36.2515C30.6246 36.2515 32.5883 34.4035 32.5883 30.7903V22.4139C32.5883 21.9861 32.9367 21.6366 33.3656 21.6366H36.8873C37.3162 21.6366 37.6646 21.9861 37.6646 22.4139V39.6695C37.6646 40.0984 37.3162 40.4469 36.8873 40.4469H33.3656C32.9367 40.4469 32.5883 40.0984 32.5883 39.6695V38.2185L32.5133 38.1788C31.0899 39.9077 29.0909 40.7964 26.9728 40.7964C22.8954 40.7964 20.0485 38.718 20.0485 32.9878L20.0441 32.9801H20.043Z" fill="black"/>
<path d="M43.2713 12.1266H46.7456C47.1657 12.1266 47.5075 12.4673 47.5075 12.8885V29.5134H47.5824L54.047 21.8945C54.1936 21.7236 54.4042 21.6243 54.6302 21.6243H58.5213C59.1751 21.6243 59.5291 22.394 59.0968 22.889L53.9852 28.7471C53.7669 28.9974 53.7349 29.3579 53.9058 29.6391L59.6647 39.2802C59.9701 39.7874 59.6007 40.4346 59.0108 40.4346H55.1363C54.8662 40.4346 54.617 40.2924 54.4781 40.0575L50.5683 33.4342C50.307 32.9943 49.6961 32.9303 49.3466 33.3074L47.7048 35.1002C47.5736 35.2392 47.5031 35.4255 47.5031 35.6163V39.6738C47.5031 40.0939 47.1624 40.4357 46.7412 40.4357H43.2669C42.8468 40.4357 42.505 40.095 42.505 39.6738V12.8918C42.505 12.4717 42.8457 12.1299 43.2669 12.1299L43.2746 12.1255L43.2713 12.1266Z" fill="black"/>
<path d="M61.011 31.0925C61.011 25.3976 64.8182 21.3599 69.8593 21.3599C72.0524 21.3599 74.0514 22.2044 75.3998 23.8231L75.4748 23.7834V22.3996C75.4748 21.9751 75.8199 21.63 76.2444 21.63H79.7419C80.1664 21.63 80.5115 21.9751 80.5115 22.3996V39.6673C80.5115 40.0918 80.1664 40.4369 79.7419 40.4369H76.4738C76.0493 40.4369 75.7042 40.0918 75.7042 39.6673V38.2075L75.6292 38.1678C74.3204 39.8614 72.4361 40.7854 69.974 40.7854C64.8182 40.7854 61.011 36.8987 61.011 31.0925ZM75.7042 31.1322C75.7042 28.0945 73.6258 25.8618 70.9332 25.8618C68.2407 25.8618 66.127 27.9005 66.127 31.1322C66.127 34.1345 68.0896 36.2482 70.9332 36.2482C73.5111 36.2482 75.7042 34.2095 75.7042 31.1322Z" fill="black"/>
<path d="M84.1721 37.2516C84.1721 37.0773 84.2317 36.9064 84.343 36.7675L93.2112 25.9014L93.1715 25.7868H85.6287C85.2086 25.7868 84.8635 25.4461 84.8635 25.0216V22.3963C84.8635 21.9762 85.2042 21.6311 85.6287 21.6311H99.2556C99.6757 21.6311 100.021 21.9718 100.021 22.3963V24.7834C100.021 24.962 99.9613 25.1318 99.8466 25.2675L90.8638 36.2129L90.9035 36.2879H99.0252C99.4453 36.2879 99.7904 36.6286 99.7904 37.0531V39.6784C99.7904 40.0984 99.4497 40.4436 99.0252 40.4436H84.934C84.5139 40.4436 84.1688 40.1029 84.1688 39.6784V37.2516H84.1732H84.1721Z" fill="black"/>
<path d="M102.788 37.2516C102.788 37.0729 102.848 36.902 102.963 36.7642L111.831 25.8981L111.791 25.7835H104.251C103.827 25.7835 103.482 25.4384 103.482 25.0139V22.4007C103.482 21.9762 103.827 21.6311 104.251 21.6311H117.871C118.295 21.6311 118.64 21.9762 118.64 22.4007V24.7801C118.64 24.9587 118.576 25.1285 118.466 25.2675L109.483 36.2096L109.523 36.2846H117.64C118.065 36.2846 118.41 36.6297 118.41 37.0542V39.6673C118.41 40.0918 118.065 40.4369 117.64 40.4369H103.562C103.138 40.4369 102.793 40.0918 102.793 39.6673V37.2482L102.788 37.2527V37.2516Z" fill="black"/>
<path d="M120.908 31.0925C120.908 25.3976 124.716 21.3599 129.757 21.3599C131.95 21.3599 133.949 22.2044 135.297 23.8231L135.372 23.7834V22.3952C135.372 21.9751 135.714 21.63 136.137 21.63H139.648C140.068 21.63 140.413 21.9707 140.413 22.3952V39.6784C140.413 40.0984 140.073 40.4436 139.648 40.4436H136.368C135.948 40.4436 135.603 40.1029 135.603 39.6784V38.2108L135.528 38.1711C134.219 39.8647 132.335 40.7887 129.871 40.7887C124.716 40.7887 120.908 36.902 120.908 31.0958V31.0914V31.0925ZM135.603 31.1322C135.603 28.0945 133.524 25.8618 130.832 25.8618C128.139 25.8618 126.024 27.9005 126.024 31.1322C126.024 34.1345 127.988 36.2482 130.832 36.2482C133.41 36.2482 135.603 34.2095 135.603 31.1322Z" fill="black"/>
<path d="M98.5962 18.5956H89.6883C86.02 14.8798 81.9514 11.3493 78.282 11.3493C74.6125 11.3493 70.7116 14.8787 67.0234 18.5956H57.9689C61.506 12.3174 69.4182 1.30029 78.282 1.30029C87.1457 1.30029 95.0734 12.2777 98.5951 18.5956H98.5962Z" fill="url(#paint0_linear_956_2061)"/>
<path d="M85.7576 4.47149V2.02593C85.7576 2.02593 85.9571 1.60254 87.1799 1.60254C88.4027 1.60254 88.5526 1.97632 88.5526 1.97632V6.81781L85.7576 4.47149Z" fill="url(#paint1_linear_956_2061)"/>
<path d="M90.0247 1.70501V8.02949H85.0189V1.70831C85.0189 1.28823 85.3607 0.947525 85.7808 0.947525L85.7885 0.943115H89.2628C89.6829 0.943115 90.0247 1.28382 90.0247 1.70501Z" fill="url(#paint2_linear_956_2061)"/>
<defs>
<linearGradient id="paint0_linear_956_2061" x1="57.9689" y1="9.94794" x2="98.5962" y2="9.94794" gradientUnits="userSpaceOnUse">
<stop stop-color="#7FB0A1"/>
<stop offset="1" stop-color="#80B1A1"/>
</linearGradient>
<linearGradient id="paint1_linear_956_2061" x1="85.7576" y1="4.21017" x2="88.5538" y2="4.21017" gradientUnits="userSpaceOnUse">
<stop stop-color="#7FB0A1"/>
<stop offset="1" stop-color="#80B1A1"/>
</linearGradient>
<linearGradient id="paint2_linear_956_2061" x1="85.0189" y1="4.48575" x2="90.0247" y2="4.48575" gradientUnits="userSpaceOnUse">
<stop stop-color="#7FB0A1"/>
<stop offset="1" stop-color="#80B1A1"/>
</linearGradient>
</defs>
</svg>
