<svg width="82" height="87" viewBox="0 0 82 87" fill="none" xmlns="http://www.w3.org/2000/svg">
<path fill-rule="evenodd" clip-rule="evenodd" d="M81.2643 23.4175L81.7111 22.7474H80.2145L81.7111 20.3529H78.718L79.3166 18.5571V17.6592H78.1194V16.7612V15.8633L76.9221 14.3668V13.1695H73.9291L73.3305 11.9723V9.87716V8.08131H71.2353H70.3374V7.18339L67.9429 4.78893L68.8408 4.19031L69.4394 2.09515H66.7457L64.6505 2.69377L65.5484 0L63.154 0.598614L1.79585 61.9567L0.598618 63.154L0 63.7526H1.79585L0.299308 66.1471H3.29239L2.69377 67.9429V68.8408H3.891V69.7388V70.6367L5.08824 72.1332V73.3305H8.08132L8.67993 74.5277V76.6228V78.4187H10.7751H11.673V79.3166L14.0675 81.7111L13.1696 82.3097L12.5709 84.4048H15.2647L17.3599 83.8062L16.4619 86.5L18.8564 85.9014L81.1125 23.6453L81.4118 23.346L81.2643 23.4175Z" fill="#FC9112"/>
<path d="M74.1055 25L19.6055 79.5" stroke="white" stroke-linecap="round" stroke-linejoin="round"/>
<path d="M52.6055 41L19.6055 74" stroke="white" stroke-linecap="round" stroke-linejoin="round"/>
</svg>
