<svg width="115" height="80" viewBox="0 0 115 80" fill="none" xmlns="http://www.w3.org/2000/svg">
<g clip-path="url(#clip0_956_2312)">
<path d="M103.144 57.0367C103.144 57.0367 88.524 56.0719 80.9659 58.263C73.4078 60.4541 66.7979 61.0075 62.5573 60.3955C58.3167 59.7836 46.957 59.935 45.9194 57.6321C45.0815 55.7799 47.0936 54.6744 51.8531 55.1325C56.6126 55.5905 59.9051 55.6945 59.9051 55.6945C59.9051 55.6945 41.1419 55.1617 39.7878 54.1916C37.876 52.8218 38.8787 50.5998 40.2681 50.36C41.6576 50.1201 57.4635 51.0484 57.4635 51.0484C57.4635 51.0484 37.2004 52.2357 35.8034 49.1284C34.5753 46.3782 37.6314 45.8243 40.9458 45.9745C44.2601 46.1248 59.5884 45.641 59.5884 45.641C59.5884 45.641 38.5916 47.5816 37.6168 44.4084C36.7847 41.6387 40.7479 41.4824 43.032 41.1807C45.3161 40.879 61.8427 39.0939 63.2703 38.9821C64.5576 38.8333 65.8358 38.6139 67.0992 38.3251C67.0992 38.3251 60.2205 36.3368 58.6842 34.8221C56.8812 33.0735 56.8231 30.4463 59.6134 30.7421C62.4037 31.038 66.0398 32.5227 69.2784 33.1232C72.6107 33.7457 74.6553 34.107 81.2338 38.8176C82.0101 39.3832 82.7532 39.9933 83.4594 40.645C84.2138 41.3246 85.8078 42.382 88.4551 42.0375C89.8711 41.8478 99.47 38.8117 99.47 38.8117L103.144 57.0367Z" fill="white"/>
<path d="M46.0886 46.5881C46.2041 46.5843 46.3134 46.5345 46.3924 46.4498C46.4713 46.365 46.5135 46.2523 46.5096 46.1363C46.5057 46.0202 46.456 45.9105 46.3715 45.8312C46.287 45.7519 46.1747 45.7095 46.0591 45.7133L42.5518 45.6031C41.5395 45.6233 38.8095 45.4579 38.0376 44.4508C37.9369 44.318 37.8716 44.1616 37.8477 43.9965C37.8239 43.8314 37.8422 43.663 37.9011 43.507C38.4141 41.7038 44.0213 41.1786 47.4376 41.2973C47.5538 41.3004 47.6665 41.257 47.7508 41.1767C47.835 41.0964 47.8841 40.9858 47.8871 40.8691C47.89 40.7525 47.8468 40.6394 47.7667 40.5547C47.6866 40.47 47.5763 40.4207 47.4601 40.4177C46.4871 40.3903 37.9324 40.2483 37.0658 43.2693C36.9678 43.5586 36.9425 43.8677 36.9921 44.1692C37.0417 44.4707 37.1647 44.7553 37.3501 44.9978C38.5255 46.5331 42.1372 46.4976 42.5474 46.4899L46.02 46.6033L46.0886 46.5881Z" fill="#56717A"/>
<path d="M48.1392 51.1216C48.2541 51.1108 48.3601 51.0547 48.4337 50.9655C48.5073 50.8763 48.5426 50.7614 48.5318 50.646C48.521 50.5307 48.465 50.4243 48.3761 50.3504C48.2872 50.2764 48.1726 50.2409 48.0577 50.2517C45.6178 50.3837 38.9446 50.5876 37.3538 49.938C36.9451 49.7951 36.5889 49.5318 36.3315 49.1825C36.0742 48.8332 35.9278 48.4141 35.9115 47.9801C35.9097 47.713 35.9927 47.4522 36.1484 47.2357C36.3042 47.0192 36.5246 46.8581 36.7778 46.7757C37.8789 46.4184 39.0393 46.2814 40.1933 46.3724C40.2513 46.3785 40.3099 46.3731 40.3657 46.3564C40.4216 46.3398 40.4737 46.3123 40.5189 46.2754C40.5642 46.2386 40.6017 46.1932 40.6295 46.1418C40.6573 46.0903 40.6746 46.0339 40.6807 45.9757C40.6867 45.9175 40.6813 45.8587 40.6646 45.8026C40.648 45.7465 40.6206 45.6943 40.5839 45.6488C40.5471 45.6034 40.5018 45.5656 40.4506 45.5377C40.3993 45.5098 40.3431 45.4923 40.2851 45.4862C39.001 45.3764 37.7082 45.5289 36.4848 45.9344C36.0644 46.0743 35.6987 46.3437 35.4398 46.7043C35.1808 47.065 35.0418 47.4984 35.0425 47.9431C35.0577 48.553 35.2542 49.1445 35.6069 49.6416C35.9596 50.1387 36.4524 50.5186 37.0217 50.7326C39.1218 51.5933 47.7385 51.1372 48.1037 51.1161L48.1392 51.1216Z" fill="#56717A"/>
<path d="M50.9089 55.3509C51.0244 55.3459 51.1331 55.295 51.2112 55.2096C51.2893 55.1241 51.3303 55.0109 51.3252 54.895C51.3202 54.7791 51.2694 54.67 51.1842 54.5916C51.099 54.5131 50.9863 54.4719 50.8708 54.4769C50.7928 54.4842 42.832 54.3831 41.3099 54.1395C39.6312 53.858 38.6966 52.9803 38.6708 52.285C38.6264 51.8109 39.0799 51.4262 39.8489 51.2357C39.9623 51.2082 40.06 51.1366 40.1208 51.0367C40.1815 50.9368 40.2002 50.8167 40.1727 50.7029C40.1453 50.5891 40.0739 50.4909 39.9743 50.4299C39.8747 50.3689 39.7551 50.35 39.6418 50.3775C38.4499 50.6734 37.7614 51.3961 37.7985 52.3053C37.8512 53.5684 39.2397 54.6713 41.1706 54.9863C42.7551 55.2415 50.531 55.3292 50.8632 55.3288L50.9089 55.3509Z" fill="#56717A"/>
<path d="M60.7015 60.5414C60.8172 60.5381 60.9267 60.4888 61.0061 60.4045C61.0855 60.3201 61.1283 60.2075 61.1249 60.0914C61.1216 59.9754 61.0724 59.8654 60.9883 59.7856C60.9042 59.7059 60.792 59.6629 60.6763 59.6662C60.581 59.6751 51.0178 59.2195 47.8619 58.1944C46.509 57.7507 45.7519 57.181 45.827 56.6299C45.9086 56.008 46.88 55.4124 47.2448 55.387C47.3603 55.3814 47.4687 55.33 47.5463 55.2442C47.624 55.1583 47.6644 55.045 47.6588 54.9291C47.6531 54.8133 47.6019 54.7044 47.5163 54.6264C47.4307 54.5485 47.3178 54.5078 47.2024 54.5134C46.5136 54.534 45.0989 55.3905 44.9633 56.509C44.865 57.2334 45.2432 58.2379 47.5937 59.0181C50.8577 60.0769 60.2439 60.5096 60.6436 60.5292L60.7015 60.5414Z" fill="#56717A"/>
<path d="M85.7023 42.2607C85.7594 42.2571 85.8152 42.2422 85.8665 42.2169C85.9178 42.1917 85.9637 42.1565 86.0015 42.1135C86.0392 42.0704 86.0682 42.0203 86.0867 41.966C86.1051 41.9117 86.1128 41.8542 86.1091 41.797C86.1055 41.7397 86.0906 41.6837 86.0654 41.6321C86.0402 41.5806 86.0052 41.5345 85.9622 41.4966C85.9193 41.4587 85.8693 41.4296 85.8152 41.411C85.7611 41.3924 85.7039 41.3847 85.6468 41.3883C84.788 41.3551 83.9701 41.0109 83.3442 40.4193C77.4385 34.7243 73.4734 33.7399 73.3038 33.7032C73.1342 33.6664 69.7218 32.5161 67.9704 32.1581C66.9022 31.8998 65.8503 31.5779 64.8202 31.1939C61.6898 30.1137 58.4513 28.9998 57.2865 30.9386C57.0899 31.2438 56.9587 31.5867 56.9013 31.9456C56.8438 32.3045 56.8614 32.6716 56.9529 33.0234C57.3532 34.5436 59.0336 35.4963 59.1031 35.538L59.1421 35.5344L64.993 38.0314L63.1589 38.3305C63.0447 38.3493 62.9427 38.4129 62.8753 38.5073C62.8079 38.6016 62.7806 38.719 62.7995 38.8336C62.8183 38.9482 62.8818 39.0506 62.9758 39.1184C63.0699 39.1861 63.1869 39.2135 63.301 39.1947L66.6164 38.656C66.7085 38.64 66.793 38.5948 66.8574 38.5269C66.9218 38.459 66.9627 38.3721 66.9741 38.279C66.9855 38.1859 66.9667 38.0916 66.9206 38.01C66.8745 37.9284 66.8034 37.8639 66.7179 37.8259L59.5096 34.7452C59.3431 34.6467 58.077 33.8702 57.7915 32.7825C57.7302 32.5439 57.7198 32.295 57.7611 32.0522C57.8024 31.8093 57.8944 31.5781 58.031 31.3735C58.8284 30.0395 61.8634 31.0803 64.5374 32.0014C65.6043 32.4034 66.6942 32.7408 67.8012 33.012C69.5038 33.3615 73.0447 34.5304 73.0806 34.5402C73.1165 34.55 77.043 35.5424 82.7515 41.0452C83.5427 41.8052 84.59 42.2382 85.6846 42.258L85.7023 42.2607Z" fill="#56717A"/>
<path d="M105.545 59.4708L87.6501 58.1766C89.0187 52.0678 90.6459 46.2463 87.2711 40.6916L99.0317 35.5795C107.511 37.2072 107.288 53.2963 105.545 59.4708Z" fill="#5C7965"/>
<path d="M61.1098 60.769C63.7787 60.7848 85.498 56.8258 87.5364 56.6339C90.806 46.0865 86.9709 41.0313 86.9444 40.9811C86.9031 40.9283 86.8745 40.8667 86.8607 40.801C86.847 40.7353 86.8485 40.6674 86.8652 40.6024C86.8812 40.5374 86.9118 40.477 86.9547 40.4258C86.9977 40.3746 87.0518 40.334 87.1129 40.3071L98.8735 35.195C98.9259 35.172 98.9823 35.1595 99.0395 35.1583C99.0966 35.1571 99.1535 35.1673 99.2068 35.1882C99.2601 35.209 99.3088 35.2402 99.3501 35.28C99.3914 35.3198 99.4245 35.3673 99.4475 35.4199C99.4705 35.4725 99.483 35.5291 99.4842 35.5865C99.4854 35.6439 99.4754 35.701 99.4546 35.7544C99.4338 35.8079 99.4028 35.8568 99.3632 35.8982C99.3236 35.9396 99.2763 35.9728 99.2239 35.9959L87.9249 40.9024C88.8746 42.4545 91.4017 47.8736 88.1079 57.6949L105.576 59.0554C105.692 59.0545 105.803 59.0997 105.886 59.1813C105.969 59.2628 106.016 59.3739 106.017 59.4902C106.018 59.6065 105.973 59.7184 105.892 59.8013C105.81 59.8842 105.7 59.9313 105.584 59.9322L105.51 59.9391L87.4567 58.5369C87.3901 58.5314 87.3257 58.5105 87.2684 58.4759C87.2111 58.4414 87.1625 58.394 87.1264 58.3376C87.0903 58.2811 87.0675 58.2171 87.06 58.1505C87.0525 58.0838 87.0603 58.0163 87.083 57.9533L87.2122 57.5594C85.3508 57.7564 63.4521 61.7537 61.3099 61.6454L61.2362 61.6523C61.1222 61.6723 61.0048 61.646 60.91 61.5792C60.8152 61.5123 60.7508 61.4105 60.7308 61.296C60.7108 61.1815 60.7369 61.0637 60.8034 60.9686C60.8699 60.8735 60.9713 60.8089 61.0854 60.7889L61.1098 60.769Z" fill="#56717A"/>
<path d="M9.25147 58.1567C9.25147 58.1567 23.3831 53.0852 28.9644 57.6521C34.3571 62.0625 43.6512 61.9202 48.2858 61.4421C52.9203 60.9641 64.9289 61.5755 66.0837 59.0917C67.2385 56.608 65.3535 55.9306 60.159 56.2161C54.9644 56.5015 51.3821 56.4961 51.3821 56.4961C51.3821 56.4961 71.7899 56.741 73.3066 55.752C75.45 54.3518 74.4614 51.9109 72.9718 51.5986C71.4822 51.2864 54.2618 51.592 54.2618 51.592C54.2618 51.592 76.2169 53.7652 77.8812 50.4428C79.3429 47.5213 76.0511 46.7872 72.4404 46.8093C68.8297 46.8315 52.2089 45.6323 52.2089 45.6323C52.2089 45.6323 74.9251 48.647 76.1102 45.2568C77.1341 42.3067 72.8419 41.9661 70.3798 41.529C67.9176 41.0918 50.0396 38.4502 48.4963 38.268C47.1059 38.0511 45.7288 37.7575 44.3713 37.3887C44.3713 37.3887 51.9382 35.5136 53.6742 33.9674C55.7112 32.1535 55.9002 29.319 52.8579 29.5161C49.8156 29.7132 45.789 31.1631 42.2449 31.6686C38.5955 32.1954 36.3569 32.5 28.9901 37.3038C28.1215 37.8824 27.2862 38.5095 26.4882 39.1821C25.6386 39.8829 23.8685 40.959 20.9936 40.4683C19.4665 40.2074 12.0722 37.3295 12.0722 37.3295L9.25147 58.1567Z" fill="white"/>
<path d="M3.56862 59.2863L23.0271 57.8654C21.5567 51.2532 19.7842 44.9426 23.4763 38.9417L10.6814 33.4198C1.47659 35.1975 1.68778 52.6022 3.56862 59.2863Z" fill="#FAB768"/>
<path d="M3.22396 59.5549C3.1761 59.4928 3.14596 59.419 3.13671 59.3411C3.12745 59.2631 3.13943 59.1841 3.17138 59.1123C3.20334 59.0405 3.2541 58.9785 3.31827 58.933C3.38244 58.8875 3.45767 58.8601 3.53599 58.8537L22.5813 57.3576C18.9713 46.6356 21.8196 40.7461 22.818 39.1347L10.5118 33.8278C10.404 33.7838 10.3183 33.6987 10.2736 33.5913C10.2288 33.4839 10.2287 33.3629 10.2731 33.2551C10.3176 33.1473 10.4031 33.0613 10.5108 33.0162C10.6184 32.9711 10.7395 32.9705 10.8473 33.0146L23.6372 38.5514C23.6979 38.5804 23.751 38.6231 23.7923 38.6761C23.8336 38.7291 23.8621 38.791 23.8754 38.8569C23.8908 38.9216 23.8913 38.989 23.8766 39.0539C23.862 39.1189 23.8327 39.1797 23.7909 39.2317C23.7358 39.2747 19.2111 45.2237 23.5613 57.6201C23.5827 57.6826 23.5895 57.7493 23.5812 57.8151C23.573 57.8808 23.5498 57.9438 23.5135 57.9994C23.477 58.0558 23.428 58.103 23.3703 58.1374C23.3126 58.1719 23.2478 58.1926 23.1809 58.198L3.58998 59.7332C3.51895 59.7355 3.44847 59.7205 3.38469 59.6895C3.3209 59.6584 3.26571 59.6122 3.22396 59.5549Z" fill="#4A4A4A"/>
<path d="M13.7007 50.8318C13.6549 50.7727 13.6252 50.7027 13.6144 50.6286C13.5634 50.2932 12.4186 42.3291 17.7597 36.3617C17.8367 36.2759 17.9445 36.2239 18.0595 36.217C18.1744 36.2101 18.2873 36.2488 18.3735 36.3248C18.4591 36.4015 18.5108 36.5089 18.5173 36.6237C18.5238 36.7386 18.4846 36.8515 18.4082 36.9379C13.3569 42.602 14.4724 50.429 14.4842 50.5081C14.5009 50.6221 14.4717 50.7384 14.403 50.8313C14.3342 50.9242 14.2314 50.9862 14.1172 51.0037C14.0386 51.0158 13.9582 51.0062 13.8848 50.9758C13.8114 50.9455 13.7477 50.8957 13.7007 50.8318Z" fill="#4A4A4A"/>
<path d="M22.6263 40.8788C22.5905 40.8324 22.5644 40.7792 22.5497 40.7225C22.5349 40.6657 22.5318 40.6065 22.5405 40.5484C22.5553 40.4341 22.6146 40.3302 22.7057 40.2592C22.7967 40.1883 22.912 40.1561 23.0264 40.1697C23.0424 40.1903 24.2851 40.2923 26.1974 38.8018L26.2663 38.748C28.5431 37.0287 34.5902 32.4645 40.3937 31.3898C42.1276 31.0703 43.8852 30.6605 45.5847 30.2684C49.7487 29.3074 53.039 28.5473 54.5922 29.268C54.9465 29.4104 55.2514 29.6527 55.4696 29.9656C55.6879 30.2784 55.8102 30.6483 55.8216 31.0301C55.8576 32.3981 54.6608 33.8828 53.4749 34.5146C51.3617 35.6233 49.1391 36.5086 46.8433 37.1561L65.103 39.9748C66.9807 40.1667 76.4708 41.3063 76.6766 44.1642C76.7056 44.4721 76.6631 44.7828 76.5523 45.0721C76.4415 45.3613 76.2654 45.6214 76.0378 45.8319C74.5231 47.2498 70.7295 46.7744 70.5837 46.7722L55.2293 45.215C55.1635 45.225 55.0964 45.2198 55.0331 45.1998C54.9698 45.1799 54.9119 45.1457 54.8639 45.1C54.8159 45.0542 54.779 44.9981 54.7561 44.9358C54.7332 44.8736 54.7248 44.8068 54.7317 44.7408C54.7385 44.6747 54.7604 44.611 54.7956 44.5545C54.8308 44.4981 54.8785 44.4504 54.9349 44.4151C54.9913 44.3797 55.055 44.3577 55.1211 44.3507C55.1873 44.3437 55.2541 44.3519 55.3164 44.3746L70.677 45.9325C71.674 46.0603 74.4459 46.1843 75.4476 45.238C75.5786 45.1167 75.6792 44.9662 75.7413 44.7989C75.8034 44.6317 75.8252 44.4522 75.8049 44.2753C75.6914 42.7083 69.4219 41.3375 64.9986 40.8784L44.4098 37.7009C44.3057 37.6863 44.2106 37.6345 44.1419 37.5553C44.0732 37.476 44.0356 37.3745 44.036 37.2694C44.0363 37.1644 44.0747 37.0628 44.1439 36.9835C44.2131 36.9042 44.3086 36.8525 44.4128 36.8378C47.7718 36.3221 51.5312 34.6004 53.0753 33.7887C54.1226 33.2207 54.9875 31.9782 54.9561 31.0922C54.9515 30.871 54.8797 30.6567 54.7501 30.4778C54.6206 30.2989 54.4394 30.1638 54.2307 30.0905C52.9475 29.4959 49.4686 30.2982 45.7906 31.1508C44.0781 31.5475 42.3117 31.9532 40.569 32.2685C34.9736 33.3189 29.0418 37.7822 26.7995 39.4747L26.7306 39.5284C24.4503 41.2505 22.9472 41.0701 22.8971 41.0485C22.7884 41.0283 22.6917 40.9677 22.6263 40.8788Z" fill="#4A4A4A"/>
<path d="M48.022 55.738C47.9546 55.6506 47.9209 55.5418 47.927 55.4313C47.934 55.3742 47.9522 55.3189 47.9806 55.2688C48.009 55.2186 48.047 55.1746 48.0925 55.1391C48.138 55.1037 48.19 55.0775 48.2456 55.0622C48.3012 55.0469 48.3592 55.0428 48.4163 55.05C55.6192 55.6712 69.9407 56.5712 72.5797 55.5296C73.3452 55.2255 74.2841 54.7033 74.4225 53.9499C74.5816 53.0809 73.6514 52.2499 73.6433 52.2396C73.6008 52.2013 73.5662 52.1551 73.5416 52.1035C73.517 52.0518 73.5029 51.9958 73.5 51.9386C73.4971 51.8815 73.5055 51.8242 73.5247 51.7702C73.5439 51.7162 73.5736 51.6665 73.6121 51.6238C73.6843 51.5388 73.7863 51.4844 73.897 51.472C74.0078 51.4595 74.119 51.4898 74.2079 51.5568C74.2507 51.6117 75.4997 52.7239 75.2481 54.0568C75.0786 54.9835 74.2779 55.74 72.8649 56.3006C69.3782 57.6828 49.1628 55.958 48.3081 55.8847C48.1974 55.8741 48.095 55.8217 48.022 55.738Z" fill="#4A4A4A"/>
<path d="M22.2041 55.9573C22.1707 55.9152 22.1462 55.8668 22.1319 55.8149C22.0992 55.7046 22.1115 55.5857 22.1662 55.4841C22.2209 55.3825 22.3136 55.3066 22.4239 55.2728C22.582 55.2269 26.3535 54.1248 30.141 57.7833C33.6181 61.1429 44.6798 61.1294 44.7915 61.1306C44.9033 61.1318 60.4889 61.6424 64.6452 59.7051C65.0674 59.5361 66.0924 58.9965 66.1867 58.3215C66.2537 57.7892 65.6871 57.2542 65.1923 56.8894C65.1428 56.8572 65.1003 56.8152 65.0676 56.7661C65.0348 56.7169 65.0124 56.6615 65.0018 56.6034C64.9912 56.5452 64.9926 56.4854 65.0058 56.4277C65.0191 56.37 65.0439 56.3155 65.0789 56.2676C65.1139 56.2198 65.1582 56.1795 65.2092 56.1492C65.2602 56.1189 65.3168 56.0993 65.3756 56.0916C65.4343 56.0839 65.494 56.0881 65.5509 56.1042C65.6078 56.1202 65.6609 56.1477 65.7068 56.185C66.6945 56.905 67.1461 57.6621 67.0571 58.4433C66.8835 59.7484 65.1917 60.449 64.9904 60.5176C60.6722 62.5314 45.4298 62.0347 44.7862 62.0121C44.3325 62.0126 33.2742 62.0235 29.5524 58.4352C26.1472 55.1464 22.8338 56.0901 22.6949 56.1321C22.6049 56.1598 22.5086 56.1577 22.4202 56.1262C22.3317 56.0947 22.256 56.0355 22.2041 55.9573Z" fill="#4A4A4A"/>
<path d="M50.6492 51.0858C50.5843 51.0023 50.5521 50.8979 50.5587 50.7921C50.5659 50.6769 50.6186 50.569 50.7052 50.4922C50.7917 50.4154 50.9051 50.376 51.0205 50.3825L70.2335 51.5036C73.1244 51.6949 77.7607 51.3755 77.9029 49.7031C77.9345 49.4404 77.9095 49.1742 77.8298 48.9224C77.75 48.6705 77.6172 48.4388 77.4404 48.2427C76.2875 46.934 73.5584 46.8153 73.5201 46.8231C73.4629 46.8206 73.4068 46.8068 73.3549 46.7826C73.3031 46.7584 73.2566 46.7243 73.218 46.6821C73.1795 46.6399 73.1497 46.5905 73.1303 46.5367C73.1109 46.4829 73.1023 46.4258 73.105 46.3686C73.1073 46.3113 73.1208 46.2551 73.1448 46.203C73.1689 46.1509 73.203 46.104 73.2451 46.065C73.2872 46.026 73.3366 45.9957 73.3904 45.9757C73.4442 45.9558 73.5014 45.9466 73.5587 45.9487C73.6854 45.9548 76.7071 46.0938 78.0939 47.667C78.3494 47.9504 78.542 48.2846 78.659 48.6478C78.7761 49.0111 78.815 49.3952 78.7733 49.7751C78.5121 52.837 71.0301 52.4333 70.18 52.373L50.967 51.2519C50.9052 51.2484 50.8448 51.2318 50.79 51.2031C50.7352 51.1745 50.6872 51.1345 50.6492 51.0858Z" fill="#4A4A4A"/>
<path d="M72.6022 11.6184L73.6778 8.77105C73.7183 8.64758 73.7279 8.51605 73.7056 8.38804C73.6833 8.26004 73.6298 8.13947 73.5499 8.03699C73.47 7.93451 73.3662 7.85325 73.2475 7.80037C73.1288 7.74749 72.9989 7.72461 72.8693 7.73375L69.8487 8.07914C69.7264 8.09247 69.6026 8.07713 69.4873 8.03434L66.64 6.95888C66.5165 6.91837 66.385 6.90886 66.257 6.93117C66.1289 6.95348 66.0084 7.00692 65.9059 7.0868C65.8034 7.16668 65.7221 7.27055 65.6692 7.38924C65.6164 7.50793 65.5935 7.63779 65.6026 7.76741L65.9478 10.788C65.9605 10.9114 65.9441 11.036 65.8999 11.1518L64.8274 13.9967C64.7869 14.1202 64.7773 14.2517 64.7997 14.3797C64.822 14.5077 64.8754 14.6283 64.9553 14.7308C65.0351 14.8333 65.139 14.9145 65.2577 14.9674C65.3764 15.0203 65.5063 15.0432 65.6359 15.034L68.6565 14.6886C68.7787 14.6638 68.9051 14.6708 69.0238 14.7088L71.8687 15.7811C71.9922 15.8283 72.1259 15.8428 72.2567 15.8232C72.3875 15.8036 72.511 15.7506 72.6153 15.6693C72.7196 15.588 72.8012 15.4811 72.8521 15.3591C72.9031 15.237 72.9216 15.1039 72.906 14.9726L72.5633 11.9551C72.5496 11.8414 72.5629 11.726 72.6022 11.6184Z" fill="#F7A800"/>
<path d="M78.4995 18.0209L80.0603 17.8412C80.1865 17.8248 80.3149 17.8407 80.4333 17.8874L81.9029 18.4423C82.0304 18.491 82.1684 18.506 82.3034 18.4857C82.4384 18.4655 82.566 18.4107 82.6736 18.3268C82.7813 18.2429 82.8656 18.1326 82.9182 18.0066C82.9707 17.8806 82.9899 17.7431 82.9739 17.6076L82.7946 16.047C82.7782 15.9207 82.7941 15.7924 82.8409 15.6739L83.3963 14.2043C83.445 14.0768 83.46 13.9388 83.4398 13.8038C83.4196 13.6688 83.3649 13.5413 83.281 13.4337C83.197 13.326 83.0867 13.2418 82.9608 13.1893C82.8348 13.1367 82.6973 13.1175 82.5618 13.1337L81.0042 13.3108C80.878 13.3272 80.7496 13.3114 80.6312 13.2647L79.1616 12.7097C79.0341 12.6611 78.8961 12.6461 78.7611 12.6664C78.6261 12.6866 78.4985 12.7413 78.3909 12.8253C78.2832 12.9092 78.1989 13.0195 78.1463 13.1455C78.0938 13.2715 78.0746 13.4089 78.0906 13.5445L78.2699 15.1051C78.2863 15.2313 78.2703 15.3597 78.2236 15.4781L77.6682 16.9477C77.6191 17.0751 77.6037 17.213 77.6235 17.3481C77.6433 17.4832 77.6976 17.6109 77.7812 17.7188C77.8648 17.8267 77.9748 17.9112 78.1007 17.9641C78.2265 18.0171 78.3639 18.0366 78.4995 18.0209Z" fill="#F7A800"/>
</g>
<defs>
<clipPath id="clip0_956_2312">
<rect width="115" height="80" fill="white"/>
</clipPath>
</defs>
</svg>
