<svg width="223" height="177" viewBox="0 0 223 177" fill="none" xmlns="http://www.w3.org/2000/svg">
<path d="M30.9262 109.527C32.7086 108.499 33.3178 106.233 32.2875 104.455L19.9758 83.0509C18.9455 81.2728 17.1781 80.29 15.3957 81.3178L15.7642 81.1377C13.9818 82.1656 15.6514 86.3969 16.6818 88.175L25.8421 108.169C26.8725 109.947 29.1438 110.555 30.9262 109.527V109.527Z" fill="#EEB962"/>
<path d="M19.4718 109.947C16.9671 109.947 14.9367 107.616 14.9367 104.74C14.9367 101.865 16.9671 99.5335 19.4718 99.5335C21.9764 99.5335 24.0068 101.865 24.0068 104.74C24.0068 107.616 21.9764 109.947 19.4718 109.947Z" fill="#FAB768"/>
<path d="M32.8062 102.452L35.6866 91.7611L41.4626 76.0436L36.4237 78.1443L32.8513 94.4094L29.9182 102.865L32.8062 102.452Z" fill="#6097A7"/>
<path d="M33.9265 108.499L30.3015 98.033L26.2327 81.7979L23.2469 86.3518L29.4366 101.822L31.768 110.457L33.9265 108.499Z" fill="#6097A7"/>
<path d="M25.1348 109.369C26.7969 110.577 29.1208 110.21 30.3317 108.552L45.8998 88.5952C47.1107 86.9372 47.5243 82.1582 45.8622 80.9503C44.2001 79.7424 42.6207 81.753 41.4099 83.4111L26.5111 103.375C25.3003 105.033 23.4577 108.161 25.1198 109.362L25.1348 109.369Z" fill="#EEB962"/>
<path d="M29.4083 107.824C28.3453 105.603 29.5651 102.811 32.1328 101.588C34.7004 100.366 37.6436 101.175 38.7066 103.396C39.7695 105.617 38.5497 108.409 35.9821 109.632C33.4145 110.855 30.4713 110.045 29.4083 107.824Z" fill="#FAB768"/>
<path d="M80.5555 20.6984L92.5737 30.9992L88.4673 42.6354L75.6895 25.6125L80.5555 20.6984Z" fill="white"/>
<path d="M88.4672 43.0106C88.4672 43.0106 88.5048 43.0106 88.5274 43.0106C88.6628 42.9881 88.7756 42.898 88.8283 42.763L92.9346 31.1343C92.9872 30.9917 92.9421 30.8267 92.8218 30.7216L80.8035 20.4209C80.6531 20.2933 80.4275 20.3008 80.2921 20.4434L75.4261 25.3574C75.2983 25.4925 75.2832 25.695 75.396 25.8451L88.1814 42.868C88.2566 42.9656 88.3619 43.0181 88.4823 43.0181L88.4672 43.0106ZM92.1299 31.1193L88.3469 41.8477L76.1782 25.65L80.5704 21.2161L92.1299 31.1268V31.1193Z" fill="#4A4A4A"/>
<path d="M66.4841 20.9159C67.4693 26.4301 70.8537 37.1435 76.577 36.3408C82.6012 35.493 85.3463 31.2692 85.7148 25.6799C85.7148 25.6799 88.6028 25.6124 88.2193 23.0541C87.9561 21.306 86.0382 22.4689 86.0382 22.4689C86.0382 22.4689 88.0087 8.96455 78.5249 8.67196C71.2523 8.44689 65.1303 13.3685 66.4841 20.9159Z" fill="white"/>
<path d="M75.9828 36.7609C76.2009 36.7609 76.4115 36.7459 76.6296 36.7159C82.2175 35.9281 85.5643 32.1394 86.0682 26.025C86.5721 25.9574 87.5122 25.7324 88.1064 25.0347C88.5501 24.5095 88.7156 23.8268 88.5952 23.0015C88.4899 22.2813 88.1289 21.9737 87.8431 21.8386C87.3994 21.6286 86.888 21.7186 86.4894 21.8536C86.6774 19.903 86.9256 14.2087 84.0902 10.8326C82.7365 9.22711 80.8713 8.37183 78.5399 8.29681C74.3809 8.16176 70.6505 9.63974 68.304 12.3406C66.2809 14.6813 65.5213 17.6673 66.1155 20.9759C66.3561 22.3338 67.3188 27.0753 69.4171 31.1641C71.3124 34.8403 73.5686 36.7534 75.9828 36.7534V36.7609ZM87.2565 22.4688C87.3543 22.4688 87.452 22.4838 87.5272 22.5214C87.7002 22.6039 87.8055 22.7989 87.8506 23.114C87.9409 23.7067 87.8356 24.1944 87.5348 24.547C86.9331 25.2672 85.7223 25.3047 85.7072 25.3047H85.3612L85.3387 25.6573C85.0604 29.8362 83.3081 35.0203 76.5243 35.9731C71.1544 36.7234 67.8528 26.4151 66.8525 20.8558L66.484 20.9233L66.8525 20.8558C66.3035 17.7723 66.9954 15.0039 68.8681 12.8433C71.0265 10.3525 74.629 8.93451 78.5098 9.05455C80.6231 9.12207 82.3003 9.87982 83.5111 11.3203C86.6925 15.1015 85.6771 22.3488 85.6621 22.4238L85.5493 23.2116L86.2337 22.7989C86.3991 22.6939 86.8729 22.4688 87.249 22.4688H87.2565Z" fill="#4A4A4A"/>
<path d="M74.2078 33.3474C76.0805 33.3474 77.1259 32.4096 77.1785 32.3571C77.3289 32.2146 77.3364 31.982 77.201 31.8244C77.0582 31.6744 76.825 31.6669 76.6746 31.8019C76.6144 31.8544 75.1328 33.1599 72.4629 32.3046C72.2674 32.2446 72.0568 32.3496 71.9891 32.5447C71.929 32.7397 72.0342 32.9498 72.2298 33.0173C72.9668 33.2499 73.6287 33.3474 74.2078 33.3474Z" fill="#4A4A4A"/>
<path d="M88.377 27.0154C93.2054 30.384 96.8304 18.6202 91.0018 18.5002C88.9336 18.4552 86.2637 10.6902 84.4587 9.64736C84.0676 9.42228 83.2704 9.32476 83.3606 8.88211C83.6765 7.34412 81.6459 6.57888 81.2623 6.39882C75.6217 3.71296 71.5003 7.93681 67.5443 7.87679C67.1006 7.87679 66.6418 7.74175 66.2056 7.83178C65.7694 7.92181 65.3784 8.42447 65.6115 8.78458C65.8447 9.1522 66.5666 9.18221 66.5441 9.62485C65.7093 9.66986 64.882 9.71488 64.0472 9.75989C63.8817 9.7674 63.7012 9.7824 63.5809 9.89494C63.4681 9.99247 63.4304 10.1425 63.4079 10.2851C63.295 11.0878 63.7087 11.9206 64.4157 12.3182C63.4906 12.2282 62.3399 12.2507 61.8586 13.0534C61.6856 13.3385 61.6405 13.6686 61.633 13.9987C61.633 13.8337 65.0173 18.1476 64.2652 17.915C64.8519 18.0951 65.4836 18.1251 66.1003 18.0951C71.4251 17.81 74.1551 14.4489 79.4573 14.7265C77.6523 14.7115 81.5331 23.9544 84.3007 23.8944C84.8197 23.6243 87.8957 26.6928 88.3695 27.0304L88.377 27.0154Z" fill="#4A4A4A"/>
<path d="M58.8577 16.6093C59.3767 15.484 60.5951 14.5462 61.9488 14.006C61.4826 13.5859 61.2418 13.0457 61.7232 12.3855C62.4377 11.4252 64.521 11.02 65.6491 10.93C68.68 10.6899 70.5451 11.8078 73.027 12.8881C73.1248 12.9331 75.1027 14.1185 76.1105 14.3811C77.1559 14.6512 80.781 13.8559 81.7887 14.1936C82.0219 14.2761 82.1723 14.3511 82.0144 14.4786C82.0144 14.5162 82.0445 15.1764 82.0144 15.2214C80.8261 16.7294 82.5333 18.4024 80.4576 18.5224C79.4874 18.5749 78.0434 22.3111 71.4025 18.4099C71.3198 18.3649 71.1994 18.4099 71.1393 18.4849C70.2669 19.6253 69.6125 20.5481 68.0407 21.0132C67.1156 21.2908 65.9875 21.4859 65.1828 21.0958C64.724 20.8707 64.2352 20.0979 63.8967 19.7903C63.0769 19.0251 62.8889 19.2052 61.9187 19.3702C59.9182 19.7153 58.0681 18.3274 58.8577 16.6093V16.6093Z" fill="#4A4A4A"/>
<path d="M83.2257 24.2768C83.1053 23.384 83.4362 22.4237 84.2034 21.7635C85.3691 20.7507 87.0914 20.8182 88.054 21.921C89.0167 23.0239 88.8437 24.7344 87.678 25.7473C87.1139 26.2349 86.2942 26.37 85.6248 26.3625" fill="white"/>
<path d="M85.6997 26.7377C86.3616 26.7377 87.2641 26.6101 87.9259 26.0325C89.2496 24.8846 89.4301 22.934 88.3396 21.6811C87.249 20.4282 85.2786 20.3381 83.9549 21.486C83.1201 22.2137 82.7065 23.2716 82.8569 24.3294C82.887 24.532 83.075 24.6745 83.2781 24.652C83.4811 24.622 83.624 24.4345 83.6014 24.2319C83.4886 23.4291 83.8045 22.6114 84.4513 22.0562C85.4591 21.1784 86.9482 21.2309 87.768 22.1762C88.5877 23.1215 88.4373 24.5995 87.4295 25.4698C86.888 25.9349 86.0683 26.0025 85.6246 25.9874C85.3914 25.9874 85.2485 26.1525 85.241 26.3551C85.241 26.5651 85.4064 26.7302 85.6095 26.7377C85.6396 26.7377 85.6621 26.7377 85.6922 26.7377H85.6997Z" fill="#4A4A4A"/>
<path d="M92.8444 14.3737C92.8444 14.3737 92.0998 20.7808 88.4221 20.7733C84.7444 20.7658 80.1267 16.0393 80.1267 16.0393C80.1267 16.0393 63.6786 16.6995 61.9714 9.96234C61.9714 9.96234 89.3021 12.5057 92.8368 14.3662L92.8444 14.3737Z" fill="white"/>
<path d="M61.9789 9.96257C61.9789 9.96257 63.5282 -1.38855 77.7651 0.141941C94.2282 1.91251 92.7842 15.987 92.7842 15.987C92.7842 15.987 74.9222 14.509 61.9789 9.96257Z" fill="#FAB768"/>
<path d="M80.1041 36.2958C80.2921 36.2958 80.4576 36.1533 80.4801 35.9582L81.3601 26.9404L85.8124 17.3148C85.9027 17.1272 85.8124 16.9021 85.6319 16.8196C85.4439 16.7296 85.2183 16.8196 85.1355 16.9997L80.6606 26.6853C80.6456 26.7228 80.6306 26.7678 80.6306 26.8053L79.7431 35.8832C79.7206 36.0858 79.871 36.2733 80.0816 36.2958C80.0966 36.2958 80.1041 36.2958 80.1192 36.2958H80.1041Z" fill="#E9E6E2"/>
<path d="M80.9841 27.218C81.0442 27.218 81.1119 27.203 81.1646 27.173C81.3451 27.0754 81.4127 26.8428 81.3075 26.6628L74.8019 15.0941C74.7041 14.914 74.471 14.8465 74.2905 14.9516C74.11 15.0491 74.0423 15.2817 74.1476 15.4617L80.6531 27.0304C80.7208 27.1504 80.8487 27.2255 80.9841 27.2255V27.218Z" fill="#E9E6E2"/>
<g opacity="0.5">
<path opacity="0.5" d="M149.522 127.473L101.366 162.981C106.262 168.893 111.955 172.382 118.288 173.95L133.119 115.994C140.068 117.922 145.603 121.658 149.522 127.48V127.473Z" fill="#E9E6E2"/>
</g>
<g opacity="0.5">
<path opacity="0.5" d="M123.785 115.296L127.538 174.918C135.172 174.025 141.196 171.144 145.957 166.687L105.209 122.798C110.601 118.019 116.753 115.409 123.785 115.296V115.296Z" fill="#E9E6E2"/>
</g>
<g opacity="0.5">
<path opacity="0.5" d="M19.178 117.044L43.1544 172.997C50.1789 169.546 54.9772 164.729 58.0231 158.832L3.91076 130.563C7.45307 124.149 12.4694 119.542 19.178 117.044V117.044Z" fill="#E9E6E2"/>
</g>
<g opacity="0.5">
<path opacity="0.5" d="M60.5427 151.457L0.864995 138.831C-0.345858 146.543 0.842431 153.236 3.91845 159.11L58.2339 131.223C61.4603 137.811 62.3478 144.548 60.5353 151.457H60.5427Z" fill="#E9E6E2"/>
</g>
<path d="M3.16627 176.14H165.533C165.744 176.14 165.909 175.975 165.909 175.765C165.909 175.555 165.744 175.39 165.533 175.39H3.16627C2.95568 175.39 2.79023 175.555 2.79023 175.765C2.79023 175.975 2.95568 176.14 3.16627 176.14Z" fill="#E9E6E2"/>
<path d="M53.5338 81.6178C53.5338 81.6178 64.2359 71.2344 68.5829 66.0728C72.1328 61.8564 85.4597 42.2302 85.4597 42.2302L93.9657 47.1367C93.9657 47.1367 85.5048 59.4932 82.8199 62.3966C75.1411 70.6868 62.822 79.352 60.8666 80.725C58.9112 82.0979 57.7605 83.0882 57.7605 83.0882C57.7605 83.0882 57.5048 84.5062 57.6552 85.3239C57.8056 86.1417 56.6324 86.8169 55.4892 86.2992C54.8725 86.0217 51.6686 85.1139 53.5413 81.6178H53.5338Z" fill="white"/>
<path d="M56.3161 86.8544C56.7673 86.8544 57.196 86.7194 57.527 86.4643C57.9256 86.1567 58.106 85.7066 58.0308 85.2639C57.918 84.6562 58.0609 83.6509 58.1136 83.2908C58.437 83.0207 59.4974 82.1504 61.0918 81.0326C65.3787 78.0241 76.0958 70.2066 83.1053 62.6517C85.7827 59.7633 93.9428 47.857 94.2888 47.3543L94.5144 47.0167L85.354 41.7275L85.1585 42.0201C85.0231 42.2152 71.8015 61.6839 68.3043 65.8327C64.0249 70.9193 53.3905 81.2426 53.2777 81.3477L53.21 81.4377C52.5857 82.6081 52.4278 83.6359 52.7437 84.5062C53.21 85.7891 54.5788 86.3293 55.1579 86.5618C55.2331 86.5918 55.2932 86.6143 55.3384 86.6368C55.6542 86.7794 55.9927 86.8544 56.3236 86.8544H56.3161ZM93.4314 47.2568C92.0626 49.2524 84.9403 59.5532 82.5487 62.134C75.592 69.6364 64.9199 77.4164 60.6556 80.4174C58.7077 81.7828 57.5646 82.7656 57.5194 82.8031L57.4217 82.8932L57.3991 83.0207C57.3915 83.0807 57.1359 84.5137 57.2938 85.3915C57.3389 85.624 57.1734 85.7891 57.0682 85.8716C56.7748 86.0967 56.2259 86.2167 55.6467 85.9541C55.5941 85.9316 55.5189 85.9016 55.4361 85.8641C54.9097 85.654 53.8041 85.2114 53.4506 84.2511C53.21 83.6059 53.3454 82.7956 53.8417 81.8428C54.5863 81.1226 64.7018 71.2644 68.8759 66.3129C72.1625 62.4116 83.91 45.1786 85.5796 42.7253L93.4314 47.2568V47.2568Z" fill="#4A4A4A"/>
<path d="M95.4167 145.081H105.555C106.344 145.081 106.984 145.719 106.984 146.506V146.514C106.984 147.301 106.344 147.939 105.555 147.939H95.4167C94.6275 147.939 93.9877 147.301 93.9877 146.514V146.506C93.9877 145.719 94.6275 145.081 95.4167 145.081Z" fill="white"/>
<path d="M95.4166 148.314H105.547C106.547 148.314 107.352 147.504 107.352 146.514C107.352 145.523 106.54 144.713 105.547 144.713H95.4166C94.4163 144.713 93.6115 145.523 93.6115 146.514C93.6115 147.504 94.4238 148.314 95.4166 148.314ZM105.547 145.456C106.126 145.456 106.6 145.928 106.6 146.506C106.6 147.084 106.126 147.556 105.547 147.556H95.4166C94.8375 147.556 94.3636 147.084 94.3636 146.506C94.3636 145.928 94.8375 145.456 95.4166 145.456H105.547Z" fill="#4A4A4A"/>
<path d="M94.92 115.349L106.291 132.612L102.915 136.956L93.867 124.787L94.92 115.349Z" fill="white"/>
<path d="M102.915 137.331C103.028 137.331 103.141 137.278 103.216 137.188L106.593 132.844C106.69 132.717 106.698 132.544 106.608 132.409L95.2361 115.146C95.1459 115.011 94.988 114.951 94.8375 114.989C94.6871 115.026 94.5668 115.154 94.5518 115.311L93.4988 124.749C93.4913 124.847 93.5139 124.937 93.5741 125.012L102.622 137.173C102.689 137.271 102.802 137.323 102.922 137.323L102.915 137.331ZM105.833 132.597L102.922 136.333L94.2584 124.682L95.1835 116.421L105.841 132.589L105.833 132.597Z" fill="#4A4A4A"/>
<path d="M110.662 135.042L106.164 131.471C106.164 131.471 105.397 133.707 100.614 134.592C100.614 134.592 99.9145 135.38 98.6661 138.801C98.087 140.391 92.4464 140.932 92.2208 144.398L92.5893 145.276C92.5893 145.276 98.7639 145.441 100.2 144.353C103.028 142.215 107.315 139.454 110.662 135.042V135.042Z" fill="#4A4A4A"/>
<path d="M93.5515 145.666C95.4091 145.666 99.2448 145.553 100.433 144.653C100.892 144.308 101.388 143.94 101.915 143.557C104.682 141.532 108.134 139.004 110.97 135.267C111.09 135.102 111.067 134.877 110.902 134.75L106.405 131.179C106.307 131.103 106.186 131.081 106.066 131.111C105.946 131.149 105.856 131.231 105.818 131.351C105.818 131.366 105.013 133.399 100.561 134.224C100.478 134.239 100.403 134.285 100.35 134.345C100.32 134.382 99.5907 135.222 98.3272 138.673C98.1542 139.139 97.2066 139.589 96.1988 140.061C94.3337 140.939 92.0172 142.027 91.8593 144.383C91.8593 144.443 91.8593 144.503 91.8894 144.555L92.2579 145.433C92.3181 145.568 92.4459 145.658 92.5964 145.666C92.7317 145.666 93.0777 145.673 93.5665 145.673L93.5515 145.666ZM110.142 135.11C107.412 138.606 104.118 141.014 101.463 142.957C100.937 143.347 100.433 143.708 99.9743 144.06C98.9364 144.848 94.6871 144.945 92.8445 144.915L92.6038 144.345C92.7843 142.485 94.7623 141.562 96.5072 140.744C97.7105 140.181 98.7484 139.694 99.0191 138.936C99.9968 136.273 100.629 135.23 100.832 134.937C104.412 134.247 105.795 132.792 106.284 132.049L110.142 135.11V135.11Z" fill="#4A4A4A"/>
<path d="M99.696 74.4531L72.6587 85.7217C69.8384 87.3347 67.9657 93.7642 69.7556 96.4651L95.4167 130.143L101.802 125.312C97.9588 114.156 93.9201 103.99 89.1443 97.5229L115.565 87.8973L99.6886 74.4606L99.696 74.4531Z" fill="#4D8B99"/>
<path d="M101.561 122.723L92.9046 128.553L97.2667 134.975L105.337 127.555L101.561 122.723Z" fill="#4D8B99"/>
<path d="M125.598 175.345C142.414 175.345 156.095 161.698 156.095 144.923C156.095 128.148 142.414 114.501 125.598 114.501C108.781 114.501 95.1009 128.148 95.1009 144.923C95.1009 161.698 108.781 175.345 125.598 175.345ZM125.598 115.244C142.001 115.244 155.343 128.553 155.343 144.916C155.343 161.278 142.001 174.588 125.598 174.588C109.195 174.588 95.853 161.278 95.853 144.916C95.853 128.553 109.195 115.244 125.598 115.244Z" fill="#4A4A4A"/>
<path d="M48.2762 105.243H102.802C103.013 105.243 103.178 105.078 103.178 104.868C103.178 104.658 103.013 104.493 102.802 104.493H48.2762C48.0656 104.493 47.9002 104.658 47.9002 104.868C47.9002 105.078 48.0656 105.243 48.2762 105.243Z" fill="#4A4A4A"/>
<path d="M82.4735 144.968C82.5712 144.968 82.669 144.93 82.7367 144.855C82.8796 144.705 82.8796 144.473 82.7367 144.323L46.7195 108.559C46.5766 108.409 46.3359 108.416 46.1855 108.559C46.0426 108.709 46.0426 108.941 46.1855 109.091L82.2027 144.855C82.2779 144.93 82.3757 144.968 82.4659 144.968H82.4735Z" fill="#4A4A4A"/>
<path d="M87.7078 151.45C87.8657 151.45 88.0161 151.353 88.0688 151.188L107.623 90.4782C107.683 90.2831 107.578 90.073 107.382 90.0055C107.187 89.9455 106.976 90.0505 106.908 90.2456L87.3543 150.955C87.2941 151.15 87.3994 151.36 87.595 151.428C87.6326 151.443 87.6702 151.443 87.7078 151.443V151.45Z" fill="#4A4A4A"/>
<path d="M125.598 145.29C125.665 145.29 125.733 145.275 125.793 145.238C125.966 145.125 126.026 144.9 125.914 144.72L102.614 106.976C102.509 106.796 102.276 106.743 102.095 106.856C101.922 106.968 101.862 107.193 101.975 107.373L125.274 145.118C125.342 145.23 125.47 145.298 125.598 145.298V145.29Z" fill="#4A4A4A"/>
<path d="M31.0908 145.29C31.2337 145.29 31.3766 145.208 31.4368 145.058L53.7435 92.3161C53.7962 92.196 53.7811 92.061 53.7059 91.956L49.5093 85.9841L64.5434 89.9528C64.7465 90.0053 64.9496 89.8853 65.0022 89.6827C65.0549 89.4802 64.9345 89.2776 64.7314 89.2251L48.7046 84.9937C48.5541 84.9562 48.3887 85.0162 48.2984 85.1438C48.2082 85.2713 48.2082 85.4439 48.2984 85.5714L52.9689 92.211L30.7448 144.765C30.6621 144.953 30.7523 145.178 30.9479 145.253C30.993 145.275 31.0457 145.283 31.0908 145.283V145.29Z" fill="#4A4A4A"/>
<path d="M48.5995 85.7366C48.5995 85.7366 48.6597 85.7366 48.6898 85.7291L59.595 83.1483C59.798 83.1033 59.9183 82.9007 59.8732 82.6981C59.8281 82.4956 59.625 82.368 59.4219 82.4206L48.5167 85.0014C48.3137 85.0464 48.1858 85.249 48.2385 85.4515C48.2761 85.6241 48.434 85.7366 48.607 85.7366H48.5995Z" fill="#4A4A4A"/>
<path d="M103.456 90.4105H120.085C121.364 90.4105 122.401 91.4434 122.401 92.7175C122.401 93.9916 121.364 95.0245 120.085 95.0245H103.456C102.177 95.0245 101.14 93.9916 101.14 92.7175C101.14 91.4434 102.177 90.4105 103.456 90.4105Z" fill="#4A4A4A"/>
<path d="M103.456 95.3996H120.093C121.574 95.3996 122.785 94.1992 122.785 92.7137C122.785 91.2283 121.582 90.0279 120.093 90.0279H103.456C101.975 90.0279 100.764 91.2283 100.764 92.7137C100.764 94.1992 101.967 95.3996 103.456 95.3996ZM120.093 90.7856C121.16 90.7856 122.033 91.6559 122.033 92.7212C122.033 93.7866 121.16 94.6569 120.093 94.6569H103.456C102.388 94.6569 101.516 93.7866 101.516 92.7212C101.516 91.6559 102.388 90.7856 103.456 90.7856H120.093Z" fill="#4A4A4A"/>
<path d="M87.5045 159.823C82.7735 159.823 78.9382 155.997 78.9382 151.278C78.9382 146.558 82.7735 142.732 87.5045 142.732C92.2355 142.732 96.0707 146.558 96.0707 151.278C96.0707 155.997 92.2355 159.823 87.5045 159.823Z" fill="white"/>
<path d="M87.5046 160.198C92.4383 160.198 96.4469 156.199 96.4469 151.277C96.4469 146.356 92.4383 142.357 87.5046 142.357C82.571 142.357 78.5624 146.356 78.5624 151.277C78.5624 156.199 82.571 160.198 87.5046 160.198V160.198ZM87.5046 143.107C92.0247 143.107 95.6948 146.776 95.6948 151.277C95.6948 155.779 92.0171 159.447 87.5046 159.447C82.9921 159.447 79.3144 155.779 79.3144 151.277C79.3144 146.776 82.9921 143.107 87.5046 143.107Z" fill="#4A4A4A"/>
<path d="M68.5972 158.435C68.6423 158.435 68.6799 158.435 68.725 158.412L88.4071 151.367C88.6026 151.3 88.7079 151.082 88.6327 150.887C88.5575 150.692 88.3469 150.587 88.1513 150.662L68.4694 157.707C68.2738 157.775 68.1685 157.992 68.2437 158.187C68.2964 158.337 68.4468 158.435 68.5972 158.435V158.435Z" fill="#4A4A4A"/>
<path d="M125.597 149.079C123.292 149.079 121.423 147.215 121.423 144.916C121.423 142.616 123.292 140.752 125.597 140.752C127.903 140.752 129.772 142.616 129.772 144.916C129.772 147.215 127.903 149.079 125.597 149.079Z" fill="white"/>
<path d="M125.598 149.454C128.11 149.454 130.148 147.421 130.148 144.915C130.148 142.41 128.11 140.376 125.598 140.376C123.086 140.376 121.047 142.41 121.047 144.915C121.047 147.421 123.086 149.454 125.598 149.454ZM125.598 141.127C127.688 141.127 129.396 142.83 129.396 144.915C129.396 147.001 127.688 148.704 125.598 148.704C123.507 148.704 121.8 147.001 121.8 144.915C121.8 142.83 123.507 141.127 125.598 141.127Z" fill="#4A4A4A"/>
<path d="M31.0612 175.908C48.1936 175.908 62.1222 162.006 62.1222 144.923C62.1222 127.84 48.1861 113.938 31.0612 113.938C13.9362 113.938 0.000113184 127.84 0.000113184 144.923C0.000113184 162.006 13.9362 175.908 31.0612 175.908ZM31.0612 114.681C47.7724 114.681 61.3701 128.245 61.3701 144.915C61.3701 161.586 47.7724 175.15 31.0612 175.15C14.3499 175.15 0.752196 161.586 0.752196 144.915C0.752196 128.245 14.3499 114.681 31.0612 114.681Z" fill="#4A4A4A"/>
<path d="M31.0608 148.914C28.8469 148.914 27.0522 147.124 27.0522 144.916C27.0522 142.707 28.8469 140.917 31.0608 140.917C33.2747 140.917 35.0693 142.707 35.0693 144.916C35.0693 147.124 33.2747 148.914 31.0608 148.914Z" fill="white"/>
<path d="M31.0609 149.289C33.4751 149.289 35.4455 147.331 35.4455 144.916C35.4455 142.5 33.4826 140.542 31.0609 140.542C28.6392 140.542 26.6762 142.5 26.6762 144.916C26.6762 147.331 28.6392 149.289 31.0609 149.289ZM31.0609 141.299C33.0614 141.299 34.6934 142.927 34.6934 144.923C34.6934 146.919 33.0614 148.547 31.0609 148.547C29.0603 148.547 27.4283 146.919 27.4283 144.923C27.4283 142.927 29.0603 141.299 31.0609 141.299Z" fill="#4A4A4A"/>
<path d="M64.5289 157.137H74.667C75.4561 157.137 76.0959 157.775 76.0959 158.562V158.57C76.0959 159.357 75.4561 159.995 74.667 159.995H64.5289C63.7397 159.995 63.0999 159.357 63.0999 158.57V158.562C63.0999 157.775 63.7397 157.137 64.5289 157.137Z" fill="white"/>
<path d="M64.5289 160.37H74.6594C75.6597 160.37 76.4644 159.56 76.4644 158.57C76.4644 157.579 75.6521 156.769 74.6594 156.769H64.5289C63.5286 156.769 62.7238 157.579 62.7238 158.57C62.7238 159.56 63.5361 160.37 64.5289 160.37ZM74.6594 157.512C75.2385 157.512 75.7123 157.985 75.7123 158.562C75.7123 159.14 75.2385 159.613 74.6594 159.613H64.5289C63.9498 159.613 63.4759 159.14 63.4759 158.562C63.4759 157.985 63.9498 157.512 64.5289 157.512H74.6594Z" fill="#4A4A4A"/>
<path d="M82.1425 129.918L85.8051 149.8L80.345 150.167L75.5317 131.021L82.1425 129.918Z" fill="white"/>
<path d="M80.3375 150.542H80.3601L85.8278 150.175C85.9331 150.175 86.0308 150.115 86.0985 150.032C86.1662 149.95 86.1887 149.837 86.1737 149.732L82.5111 129.851C82.4735 129.648 82.2854 129.513 82.0824 129.551L75.4716 130.646C75.3663 130.661 75.276 130.721 75.2158 130.811C75.1557 130.901 75.1406 131.006 75.1632 131.111L79.969 150.257C80.0141 150.422 80.1645 150.542 80.33 150.542H80.3375ZM85.3614 149.455L80.6309 149.77L75.998 131.321L81.8417 130.353L85.3614 149.455Z" fill="#4A4A4A"/>
<path d="M88.7459 152.118L86.7604 147.091C86.7604 147.091 82.3983 148.149 78.9989 147.767C78.668 147.729 78.3521 147.864 78.1716 148.142C77.5775 149.027 75.3513 151.495 70.3575 152.381C64.5138 153.416 65.5291 155.757 65.86 156.867L65.8074 157.032C65.8074 157.032 67.9734 157.032 71.8617 156.919C76.4795 156.784 77.1337 156.424 88.7609 152.11L88.7459 152.118Z" fill="#4A4A4A"/>
<path d="M65.7925 157.407C65.7925 157.407 68.0111 157.407 71.8542 157.294C76.2013 157.167 77.1789 156.807 86.5349 153.326L88.8739 152.455C88.9716 152.418 89.0468 152.35 89.0844 152.253C89.122 152.155 89.1296 152.058 89.0844 151.96L87.0989 146.934C87.0312 146.761 86.8432 146.664 86.6627 146.709C86.6176 146.716 82.3232 147.744 79.0291 147.376C78.5553 147.324 78.104 147.534 77.8483 147.916C77.5024 148.434 75.4868 151.075 70.2824 151.998C67.7403 152.448 66.191 153.183 65.5367 154.256C64.9501 155.224 65.2585 156.222 65.4465 156.814V156.897C65.4014 157.009 65.4164 157.137 65.4916 157.234C65.5593 157.332 65.6796 157.392 65.8 157.392L65.7925 157.407ZM88.2572 151.893L86.2792 152.628C76.833 156.139 76.0659 156.424 71.8392 156.544C68.9286 156.627 66.9657 156.649 66.1835 156.657L66.1685 156.604C65.9955 156.042 65.7699 155.336 66.1835 154.654C66.71 153.791 68.1314 153.153 70.4177 152.748C75.9305 151.773 78.0965 148.914 78.4801 148.352C78.5854 148.202 78.7659 148.119 78.9539 148.142C81.887 148.464 85.4519 147.766 86.5274 147.526L88.2572 151.893Z" fill="#4A4A4A"/>
<path d="M84.8426 138.876L75.2009 138.598L65.6644 98.1231C65.2734 94.732 66.9505 91.4309 69.9288 89.7429L101.208 73.4702L122.011 72.5549L124.161 77.3039C123.65 82.1355 125.011 90.2231 116.889 94.5219L80.5707 102.167C84.5718 114.606 85.3089 126.767 84.8351 138.861L84.8426 138.876Z" fill="#6097A7"/>
<path d="M56.5867 86.6742C56.5867 86.6742 69.1314 67.8207 72.5233 61.9914C75.291 57.2273 82.9773 43.1003 82.9773 43.1003L97.2142 41.2847C97.2142 41.2847 84.8199 61.8413 82.6689 65.1574C76.5319 74.6404 66.0028 83.1706 64.3181 84.8587C62.6334 86.5467 62.6034 87.522 62.6034 87.522C62.6034 87.522 62.4605 89.6602 62.7463 90.4404C63.0321 91.2207 61.1969 91.5808 59.9786 91.2657C59.3242 91.1007 55.3382 90.4254 56.5792 86.6667L56.5867 86.6742Z" fill="white"/>
<path d="M60.9488 91.7685C61.746 91.7685 62.5658 91.5735 62.9343 91.1608C63.1525 90.9208 63.2126 90.6207 63.0998 90.3206C62.8817 89.7429 62.9419 88.1299 62.9795 87.5522C62.9795 87.5372 63.0622 86.6519 64.5889 85.1289C64.8822 84.8363 65.4388 84.3411 66.2134 83.6509C69.7106 80.5299 77.9083 73.2301 82.9924 65.3676C85.1208 62.0815 97.4173 41.69 97.5376 41.48L97.9363 40.8198L82.7367 42.7554L82.6464 42.9279C82.5712 43.0705 74.93 57.1075 72.2 61.804C68.8532 67.5583 56.3987 86.2843 56.2784 86.4718L56.2333 86.5619C55.8497 87.7172 55.8948 88.7225 56.3611 89.5553C57.1884 91.0183 59.0536 91.4534 59.753 91.611L59.8959 91.641C60.2118 91.7235 60.5803 91.761 60.9564 91.761L60.9488 91.7685ZM96.4923 41.7651C94.3488 45.3212 84.2634 62.0215 82.3606 64.97C77.3292 72.7425 69.1916 79.9973 65.717 83.0958C64.9349 83.7935 64.3633 84.3036 64.0625 84.6037C62.3176 86.3518 62.2424 87.4096 62.2349 87.5222C62.2198 87.7322 62.092 89.7504 62.4004 90.5831C62.4079 90.6132 62.4154 90.6207 62.3778 90.6582C62.107 90.9583 60.9639 91.1458 60.0764 90.9133L59.9185 90.8757C59.3018 90.7332 57.6772 90.3581 57.0154 89.1802C56.6619 88.5575 56.6319 87.7697 56.9327 86.8394C57.6021 85.8266 69.5752 67.8209 72.8543 62.1791C75.4264 57.7452 82.3381 45.0661 83.218 43.4531L96.4923 41.7651V41.7651Z" fill="#4A4A4A"/>
<path d="M85.3613 134.9L74.1027 135.905L75.4715 143.332L85.8051 141.907L85.3613 134.9Z" fill="#4D8B99"/>
<path d="M87.9182 32.5521L90.9641 29.0935C90.9641 29.0935 95.4841 28.1257 99.1468 31.2392C112.105 42.2527 122.657 56.6273 126.425 84.5962C126.425 84.5962 90.9716 94.1242 93.6716 76.7112C93.7468 76.2085 91.1521 56.5522 91.1521 56.5522L85.6469 62.4491L76.9152 52.6285C76.9152 52.6285 81.5104 38.0288 87.9182 32.5596V32.5521Z" fill="#FAB768"/>
<path d="M16.0267 110.554H39.1232C39.2962 110.554 39.4466 110.442 39.4842 110.277L44.5683 90.9507L51.3972 95.8948C51.5626 96.0148 51.8033 95.9773 51.9236 95.8122C52.044 95.6472 52.0064 95.4071 51.8409 95.2871L44.5683 90.0204C44.4705 89.9454 44.3351 89.9304 44.2223 89.9679C44.102 90.0129 44.0193 90.1029 43.9817 90.223L38.8299 109.804H16.3125L10.875 90.1554C10.8223 89.9529 10.6117 89.8403 10.4162 89.8929C10.2131 89.9454 10.1003 90.1554 10.1529 90.3505L15.6657 110.277C15.7108 110.442 15.8612 110.554 16.0267 110.554V110.554Z" fill="#4A4A4A"/>
<path d="M23.5403 110.555C23.5403 110.555 23.5704 110.555 23.5854 110.555C23.7885 110.532 23.9389 110.345 23.9163 110.142L21.6977 90.1706C21.6751 89.968 21.4946 89.818 21.284 89.8405C21.081 89.863 20.9305 90.0506 20.9531 90.2531L23.1717 110.224C23.1943 110.42 23.3597 110.555 23.5478 110.555H23.5403Z" fill="#4A4A4A"/>
<path d="M31.0307 110.134C31.2187 110.134 31.3767 109.999 31.4067 109.812L34.039 90.253C34.0691 90.0505 33.9187 89.8554 33.7156 89.8329C33.5051 89.8029 33.317 89.9529 33.2945 90.1555L30.6622 109.714C30.6321 109.917 30.7825 110.112 30.9856 110.134C31.0006 110.134 31.0157 110.134 31.0382 110.134H31.0307Z" fill="#4A4A4A"/>
<path d="M10.5366 90.5756H44.1472C44.3578 90.5756 44.5232 90.4106 44.5232 90.2005C44.5232 89.9905 44.3578 89.8254 44.1472 89.8254H10.5366C10.326 89.8254 10.1606 89.9905 10.1606 90.2005C10.1606 90.4106 10.326 90.5756 10.5366 90.5756V90.5756Z" fill="#4A4A4A"/>
<path d="M108.292 116.827C108.413 116.827 108.533 116.767 108.608 116.661C109.014 116.046 150.259 55.0368 210.47 37.6163C210.673 37.5562 210.786 37.3537 210.726 37.1511C210.666 36.9486 210.463 36.836 210.26 36.896C149.785 54.3991 108.398 115.634 107.984 116.249C107.871 116.421 107.916 116.654 108.089 116.767C108.149 116.812 108.225 116.827 108.3 116.827H108.292Z" fill="#4A4A4A"/>
<path d="M205.281 38.3816C205.281 38.3816 212.426 39.5819 212.809 51.1056C213.193 62.6293 223 63.1545 223 63.1545C223 63.1545 200.189 70.2442 198.294 54.2116C196.948 42.8305 191.315 43.9408 191.315 43.9408C195.158 41.9002 199.971 40.0771 205.281 38.3741V38.3816Z" fill="#EEB962"/>
<path d="M204.935 52.3734C206.733 47.7369 205.251 42.6353 201.634 39.6043C202.792 39.1992 203.988 38.8016 205.206 38.4114C208.831 42.3952 210.132 48.2321 208.049 53.5813C206.748 56.9273 204.341 59.5307 201.401 61.1287C200.633 60.3709 199.972 59.4556 199.445 58.3828C201.867 57.1674 203.875 55.0968 204.928 52.3809L204.935 52.3734Z" fill="#D89E4A"/>
</svg>
