<svg width="300" height="151" viewBox="0 0 300 151" fill="none" xmlns="http://www.w3.org/2000/svg">
<path d="M160.028 4.14934C160.083 3.70307 160.133 3.2568 160.181 2.81052C160.296 1.72315 160.166 0.291075 159.111 0.00799149C158.081 -0.268432 156.963 6.71375 156.823 7.36651C155.297 14.4919 153.833 21.5923 153.389 28.8659C153.381 29.0124 153.377 29.1756 153.479 29.2822C153.527 29.3322 153.592 29.3621 153.657 29.3888C154.371 29.6869 155.199 29.8018 155.911 29.5053C157.562 28.8176 156.99 25.8452 157.091 24.4531C157.266 22.0619 157.58 19.684 157.946 17.3144C158.622 12.9233 159.49 8.56046 160.028 4.14934Z" fill="#FFCD00"/>
<path d="M173.585 40.4308C173.423 40.2892 173.27 40.1427 173.145 39.9678C173.064 39.8546 172.997 39.7314 172.909 39.6231C172.833 39.5299 172.741 39.45 172.658 39.3634C172.388 39.0853 172.185 38.7406 171.831 38.5591C171.563 38.4225 171.33 38.3842 171.099 38.1794C170.422 37.5749 169.831 36.8506 169.184 36.2111C168.983 36.0113 168.638 35.8665 168.365 35.8714C167.695 35.8831 167.069 35.7182 166.515 35.3752C166.018 35.0672 165.553 34.8224 164.954 34.7308C163.717 34.5409 162.51 34.1097 161.272 33.9332C159.98 33.7483 158.665 33.7367 157.359 33.6701C155.459 33.5751 153.313 33.4353 151.436 33.8066C150.882 33.9165 150.341 34.0913 149.785 34.1963C148.448 34.4477 147.037 34.2878 145.742 34.7058C144.814 35.0055 144.005 35.5817 143.132 36.018C142.478 36.3444 141.786 36.5925 141.127 36.9105C139.594 37.6515 138.272 38.7589 136.969 39.8546C136.297 40.4191 135.626 40.9836 134.989 41.5864C132.837 43.6196 131.375 45.9476 129.921 48.457C129.252 49.611 128.64 50.8066 128.195 52.0672C127.891 52.9298 127.137 54.9163 128.046 55.5275C128.492 55.8272 129.991 55.5974 130.54 55.6124C131.488 55.6407 132.436 55.6673 133.385 55.6957C134.693 55.7339 136.024 55.7689 137.285 55.4192C138.23 55.1561 139.11 54.6815 140.068 54.4734C141.619 54.137 143.221 54.52 144.807 54.595C147.181 54.7065 149.524 54.1204 151.867 53.7124C153.649 53.4027 155.326 53.8606 157.124 53.2162C157.545 53.0646 157.963 52.8815 158.407 52.8298C158.727 52.7932 159.049 52.8265 159.369 52.8598C160.627 52.9914 161.885 53.1213 163.144 53.2528C163.35 53.2745 163.562 53.2961 163.766 53.2578C163.956 53.2228 164.131 53.1396 164.312 53.0763C164.815 52.8981 165.367 52.8698 165.884 52.9947C166.284 53.0913 166.666 53.2761 167.077 53.2944C167.473 53.3127 167.858 53.1729 168.232 53.0463C171.049 52.0938 174.059 51.7192 177.022 51.9523C177.982 52.0272 179.074 52.1255 179.784 51.4744C180.142 51.1463 178.827 49.9474 178.636 49.7159C178.045 49.0015 177.703 47.9741 177.345 47.1282C176.58 45.3231 175.914 43.4598 174.808 41.8262C174.573 41.4815 174.338 41.1335 174.041 40.8404C173.897 40.6972 173.738 40.5656 173.585 40.4308Z" fill="#FFCD00"/>
<path d="M115.988 27.1022C116.206 27.3153 116.424 27.5268 116.642 27.7366C120.963 31.9013 125.287 36.0693 129.884 39.9259C130.37 40.3339 130.877 40.7468 131.485 40.9233C132.729 41.283 133.51 40.4471 133.21 39.2615C132.961 38.2707 132.022 37.3948 131.312 36.7104C128.042 33.5598 124.407 30.8206 120.781 28.0896C118.513 26.3811 116.244 24.671 113.976 22.9625C113.752 22.7926 113.153 22.418 113.001 22.9159C112.94 23.1174 113.031 23.3322 113.128 23.5203C113.833 24.8841 114.888 26.0215 115.988 27.1022Z" fill="#FFCD00"/>
<path d="M112.091 36.3273C112.111 36.3506 112.129 36.3706 112.146 36.3889C112.429 36.6737 112.83 36.737 113.166 36.9368C114.376 37.6545 115.417 38.7186 116.59 39.5079C119.394 41.3945 122.647 42.5169 125.502 44.327C126.244 44.7982 126.962 45.2728 127.761 45.6425C127.888 45.7007 128.54 46.1404 128.643 46.132C129.017 46.1021 129.071 45.6341 128.919 45.3394C128.794 45.0963 128.566 44.9248 128.345 44.7649C125.513 42.7134 122.488 40.9466 119.635 38.9284C118.465 38.1008 117.42 37.3148 116.113 36.732C114.752 36.1258 113.625 34.8503 112.005 35.0801C111.422 35.1634 111.82 35.9993 112.091 36.3273Z" fill="#FFCD00"/>
<path d="M125.292 22.2655C125.304 22.2938 125.314 22.3188 125.325 22.3421C125.505 22.7001 125.868 22.8866 126.125 23.1797C127.054 24.2371 127.714 25.5726 128.585 26.6866C130.666 29.3509 133.411 31.4258 135.564 34.0318C136.123 34.7096 136.661 35.384 137.306 35.9834C137.41 36.0784 137.894 36.6978 137.992 36.7228C138.356 36.8094 138.553 36.3814 138.499 36.055C138.456 35.7853 138.291 35.5521 138.13 35.3307C136.072 32.5015 133.744 29.8838 131.654 27.0796C130.798 25.9306 130.049 24.8582 128.986 23.8991C127.879 22.9016 127.204 21.338 125.591 21.0549C125.017 20.9533 125.135 21.8709 125.292 22.2655Z" fill="#FFCD00"/>
<path d="M144.577 11.8741C144.574 11.9041 144.571 11.9324 144.569 11.9574C144.551 12.357 144.775 12.6967 144.857 13.0797C145.148 14.4569 145.072 15.9439 145.285 17.3427C145.795 20.6847 147.175 23.8403 147.777 27.1673C147.933 28.0316 148.072 28.8842 148.341 29.7218C148.384 29.855 148.502 30.6326 148.577 30.7026C148.854 30.9573 149.233 30.6792 149.348 30.3695C149.441 30.1131 149.413 29.8283 149.381 29.5569C148.972 26.0816 148.223 22.658 147.772 19.1894C147.587 17.7673 147.459 16.4651 147.002 15.1096C146.524 13.6975 146.701 12.004 145.434 10.9666C144.98 10.5936 144.634 11.4528 144.577 11.8741Z" fill="#FFCD00"/>
<path d="M167.007 11.8574C166.989 11.8824 166.974 11.9057 166.961 11.9273C166.756 12.2703 166.793 12.6767 166.683 13.053C166.287 14.4035 165.515 15.6757 165.039 17.0095C163.904 20.195 163.623 23.627 162.577 26.8425C162.304 27.6784 162.023 28.4927 161.863 29.3586C161.838 29.4968 161.573 30.2379 161.607 30.3344C161.728 30.6891 162.196 30.6258 162.442 30.406C162.647 30.2245 162.755 29.9614 162.856 29.7067C164.142 26.4529 165.106 23.0842 166.354 19.817C166.864 18.4782 167.369 17.2709 167.608 15.8589C167.858 14.3885 168.814 12.9814 168.192 11.4677C167.969 10.9215 167.259 11.5143 167.007 11.8574Z" fill="#FFCD00"/>
<path d="M185.015 20.0344C184.988 20.0494 184.965 20.0644 184.945 20.0794C184.621 20.3142 184.494 20.7005 184.243 21.0019C183.345 22.0843 182.132 22.9468 181.168 23.9809C178.865 26.4554 177.247 29.4944 175.012 32.0305C174.431 32.6899 173.849 33.326 173.36 34.0571C173.282 34.1736 172.746 34.7481 172.738 34.8514C172.709 35.226 173.162 35.3526 173.476 35.2493C173.736 35.1627 173.941 34.9646 174.134 34.7714C176.603 32.2953 178.822 29.5843 181.261 27.0799C182.261 26.0541 183.201 25.1449 183.982 23.9443C184.794 22.6937 186.23 21.7812 186.258 20.1443C186.268 19.5565 185.381 19.8179 185.015 20.0344Z" fill="#FFCD00"/>
<path d="M197.56 36.6903C197.531 36.6919 197.502 36.6936 197.477 36.6969C197.08 36.7469 196.783 37.0266 196.421 37.1715C195.115 37.6927 193.637 37.8692 192.296 38.3171C189.092 39.3879 186.218 41.2829 183.044 42.4418C182.218 42.7432 181.403 43.023 180.624 43.431C180.501 43.4959 179.754 43.744 179.699 43.8306C179.495 44.1453 179.832 44.4734 180.158 44.5333C180.428 44.5816 180.703 44.505 180.964 44.4284C184.316 43.4343 187.559 42.1155 190.9 41.083C192.268 40.6601 193.529 40.3121 194.787 39.631C196.096 38.9216 197.795 38.8067 198.6 37.383C198.888 36.8701 197.985 36.6753 197.56 36.6903Z" fill="#FFCD00"/>
<path d="M184.105 47.0584C183.494 46.837 182.887 46.6005 182.263 46.429C182.004 46.3574 181.697 46.3058 181.484 46.4723C181.38 46.5539 181.315 46.6771 181.268 46.802C180.864 47.8861 181.586 48.9634 181.89 49.9709C182.019 50.3938 181.989 50.8951 182.331 51.1931C182.709 51.5212 183.578 51.5362 184.04 51.5112C184.815 51.4679 185.563 51.2464 186.301 51.03C187.058 50.8085 187.839 50.7535 188.634 50.6786C190.453 50.5054 192.273 50.3605 194.091 50.2007C197.72 49.881 201.354 49.4963 204.913 48.6887C205.505 48.5538 206.201 48.304 206.327 47.7112C206.445 47.1517 205.929 46.6205 205.37 46.4939C204.811 46.3674 204.236 46.5306 203.678 46.6655C198.953 47.8145 193.99 47.0868 189.148 47.5264C188.173 47.6146 187.191 47.7512 186.221 47.6313C185.493 47.5397 184.797 47.3082 184.105 47.0584Z" fill="#FFCD00"/>
<path d="M125.235 48.076C124.656 47.8662 123.874 47.8995 123.279 47.9062C118.357 47.9695 114.164 44.0396 109.595 42.7541C108.231 42.3711 106.84 42.093 105.479 41.7016C104.825 41.5135 104.178 41.3003 103.541 41.0605C103.308 41.4369 103.667 41.8965 104.015 42.1696C106.206 43.8914 109.015 44.6424 111.306 46.2293C113.439 47.7064 115.84 48.2809 117.986 49.6696C119.412 50.5921 120.783 51.6096 122.176 52.5804C122.557 52.8452 123.006 53.1249 123.455 53.0017C123.791 52.9101 124.027 52.6137 124.232 52.3306C124.853 51.473 125.923 50.4789 126.026 49.3666C126.094 48.6305 125.743 48.2592 125.235 48.076Z" fill="#FFCD00"/>
<path d="M132.12 13.1814C134.398 17.6857 136.503 22.275 138.717 26.8094C139.285 27.9734 139.861 29.1323 140.448 30.2863C140.671 30.7259 141.393 32.8291 142.168 32.496C142.739 32.2529 142.3 29.5353 142.251 29.0457C141.568 22.1002 136.581 16.2137 132.844 10.622C132.573 10.2157 130.926 7.5197 130.33 8.33398C130.217 8.48885 130.23 8.70199 130.257 8.89182C130.485 10.5187 131.395 11.7476 132.12 13.1814Z" fill="#FFCD00"/>
<path d="M180.463 12.4482C180.877 11.6506 181.291 10.853 181.706 10.0554C182.028 9.43424 182.355 8.68989 182.035 8.06711C181.365 7.99218 180.711 8.37018 180.262 8.87307C179.812 9.37762 179.523 9.99874 179.198 10.5916C177.919 12.9312 176.042 14.8828 174.525 17.0775C171.726 21.1256 170.174 25.968 167.112 29.8213C166.605 30.4591 166.022 31.2051 166.207 31.9994C166.352 32.6205 166.956 33.0518 167.58 33.185C169.473 33.5913 170.22 31.8628 171.002 30.5057C172.232 28.3726 173.347 26.1462 174.486 23.9514C176.48 20.1165 178.471 16.2815 180.463 12.4482Z" fill="#FFCD00"/>
<path d="M197.234 26.007C197.813 25.3625 198.441 24.7714 199.286 24.2568C200.134 23.739 201.156 23.1811 201.294 22.1953C197.63 22.6233 194.903 25.6456 191.742 27.5489C189.702 28.7762 187.409 29.5655 185.464 30.9393C184.439 31.662 183.524 32.5395 182.461 33.2056C180.509 34.4279 177.333 35.1439 176.193 37.3603C175.696 38.3278 176.448 39.4385 177.495 39.4768C178.258 39.5051 178.964 39.1004 179.619 38.7058C183.393 36.4278 187.083 34.0116 190.689 31.4738C192.301 30.3381 194.511 29.1958 195.802 27.6988C196.311 27.1077 196.757 26.5398 197.234 26.007Z" fill="#FFCD00"/>
<path d="M293.723 108.196C292.439 108.196 291.247 108.594 290.266 109.27C288.602 106.749 285.931 104.924 282.965 103.272L288.02 102.664C289.62 102.471 290.86 101.172 290.978 99.5619C291.322 94.901 289.688 92.0852 288.259 90.5432C286.218 88.3434 283.244 87.1811 279.661 87.1811C279.316 87.1811 278.962 87.1928 278.607 87.2144C275.213 87.4243 272.326 88.803 270.182 90.6864C269.831 90.5632 269.456 90.4949 269.07 90.4949C268.995 90.4949 268.92 90.4966 268.844 90.5032L261.235 91.0128C260.994 91.0294 260.758 91.071 260.53 91.136C260.368 91.1127 260.205 91.101 260.041 91.101C259.966 91.101 259.891 91.1027 259.814 91.1093L252.352 91.6089C251.261 91.6822 250.286 92.28 249.718 93.1925C248.254 92.2467 246.554 91.7538 244.703 91.7538C244.462 91.7538 244.216 91.7621 243.97 91.7788C241.361 91.9536 238.429 92.9078 236.078 95.6687C236.008 95.3623 235.893 95.0625 235.735 94.7794C235.136 93.7087 234.008 93.051 232.794 93.051C232.719 93.051 232.644 93.0543 232.567 93.0593L222.921 93.7054C222.039 93.7637 221.228 94.165 220.649 94.8044C220.062 94.3382 219.328 94.0684 218.556 94.0684C218.481 94.0684 218.407 94.0701 218.33 94.0767L210.866 94.5763C210.282 94.6162 209.73 94.8044 209.257 95.1125C208.816 94.9043 208.327 94.7878 207.818 94.7878C207.743 94.7878 207.667 94.7894 207.592 94.7961L203.59 95.0642C203.156 93.7337 202.504 92.4132 201.642 91.1593C200.926 90.1202 199.896 88.6265 198.161 87.3726L203.208 87.0363C203.339 87.0279 203.467 87.0063 203.594 86.983C203.642 86.9846 203.688 86.993 203.738 86.993C203.813 86.993 203.888 86.9913 203.965 86.9846L211.715 86.4668C212.746 86.3985 213.68 85.8606 214.26 85.0247C214.952 86.1587 215.696 87.0845 216.536 87.8522C218.498 89.649 221.197 90.6781 223.94 90.6781C224.634 90.6781 225.328 90.6131 226.002 90.4832C229.716 89.7722 233.842 87.0063 234.126 82.6135C234.203 81.4345 233.659 80.3022 232.691 79.6261C232.115 79.2248 231.441 79.02 230.762 79.02C230.298 79.02 229.832 79.1166 229.395 79.3097C228.691 79.6228 228.225 80.0607 227.969 80.3188C227.821 80.4054 227.679 80.4787 227.546 80.537C227.177 80.7018 226.954 80.7285 226.849 80.7302C226.648 80.7302 226.258 80.4904 225.841 79.9558C224.609 78.3822 224.097 74.2076 223.822 71.9645L222.313 59.762C222.318 59.3623 222.416 59.1675 222.506 59.0426C223.257 57.9802 223.328 56.5798 222.693 55.4458C222.094 54.3767 220.966 53.7223 219.753 53.7223C219.678 53.7223 219.603 53.7239 219.528 53.7306L209.51 54.4C208.469 54.4699 207.528 55.0178 206.949 55.8671C206.317 55.1627 205.41 54.7464 204.442 54.7464C204.367 54.7464 204.292 54.748 204.217 54.7547L196.467 55.2726C195.857 55.3125 195.283 55.5174 194.797 55.8487C194.339 55.6189 193.825 55.4924 193.291 55.4924C193.216 55.4924 193.141 55.494 193.065 55.5007L186.449 55.942C186.065 55.967 185.699 56.0652 185.356 56.2117C185.063 56.1285 184.757 56.0835 184.443 56.0835C184.368 56.0835 184.293 56.0852 184.217 56.0919L176.466 56.6097C175.184 56.6947 174.062 57.5039 173.573 58.6929C173.483 58.9127 173.425 59.1392 173.383 59.3673C173.353 59.2757 173.318 59.1858 173.275 59.0975C172.704 57.9386 171.265 57.0727 169.987 57.0727C169.913 57.0727 169.838 57.0743 169.761 57.081L162.402 57.5489C161.126 57.6338 160.006 58.4348 159.514 59.6171C159.447 59.7786 159.397 59.9435 159.357 60.1083C157.673 58.618 155.486 57.832 152.975 57.832C152.69 57.832 152.396 57.842 152.103 57.862C149.163 58.0585 145.852 59.1908 143.408 62.6028C143.118 62.2265 142.819 61.9017 142.528 61.6286C140.924 60.1283 138.638 59.369 135.731 59.369C135.325 59.369 134.899 59.384 134.465 59.4123L126.185 59.9651C125.189 60.0317 124.294 60.5379 123.713 61.3156C123.087 60.6878 122.232 60.3215 121.327 60.3215C121.252 60.3215 121.177 60.3231 121.102 60.3298L111.066 60.9975C110.682 61.0225 110.313 61.1124 109.968 61.2606C110.572 58.0268 109.94 54.5532 108.165 51.8822C106.394 49.2096 102.719 46.0291 95.2865 46.0291C84.5681 46.0291 74.3771 50.7482 67.3275 58.976C59.6871 67.8948 56.7804 81.0865 60.2595 91.0527C62.8468 98.4662 69.3557 102.719 78.1157 102.719C79.8045 102.719 81.6048 102.564 83.4649 102.26C89.9772 101.192 96.4179 96.1849 101.604 90.8895C101.652 91.1143 101.722 91.3358 101.817 91.5523C102.359 92.7812 103.572 93.5639 104.9 93.5639C104.975 93.5639 105.05 93.5622 105.125 93.5555L112.89 93.0393C113.537 92.996 114.148 92.7679 114.655 92.3982C115.141 92.663 115.693 92.8078 116.264 92.8078C116.339 92.8078 116.414 92.8062 116.489 92.7995L124.254 92.2833C124.387 92.275 124.518 92.2517 124.648 92.2284C124.751 92.2383 124.854 92.25 124.959 92.25C125.034 92.25 125.109 92.2483 125.184 92.2417L132.934 91.7238C133.159 91.7088 133.378 91.6722 133.591 91.6139C133.736 91.6322 133.884 91.6422 134.032 91.6422C134.107 91.6422 134.182 91.6405 134.257 91.6339L142.007 91.116C143.165 91.0394 144.181 90.3733 144.731 89.3825C146.263 90.39 148.11 90.9162 150.176 90.9162C150.464 90.9162 150.762 90.9062 151.06 90.8862C153.396 90.7297 155.968 89.9737 158.148 87.9321C158.149 87.9371 158.151 87.9405 158.153 87.9455C158.723 89.1044 159.9 89.8288 161.176 89.8288C161.251 89.8288 161.326 89.8271 161.4 89.8205L173.989 88.9795C174.242 88.9629 174.486 88.9146 174.719 88.8463C174.889 88.873 175.062 88.8896 175.237 88.8896C175.312 88.8896 175.387 88.888 175.463 88.8813L180.265 88.5599C179.148 89.4924 178.14 90.6348 177.32 92.0169C175.262 95.4822 174.996 99.4004 175.659 103.222C175.378 102.871 175.067 102.529 174.721 102.205C173.19 100.769 171.165 99.9949 168.859 99.9449C169.621 99.3488 170.097 98.4545 170.152 97.4821C170.219 96.3031 169.75 95.1708 168.756 94.1184C167.252 92.5248 164.058 90.6631 160.008 90.6631C156.05 90.6631 150.562 92.4165 145.839 100.275C145.21 99.3587 144.17 98.8109 143.06 98.8109C142.99 98.8109 142.92 98.8126 142.849 98.8176L135.052 99.3055C134.425 99.3454 133.839 99.5569 133.345 99.8999C132.49 99.7234 131.565 99.6268 130.56 99.6268C130.17 99.6268 129.763 99.6402 129.347 99.6668L121.018 100.188C120.8 100.201 120.59 100.243 120.384 100.296C120.322 100.293 120.261 100.288 120.199 100.288C120.129 100.288 120.059 100.29 119.988 100.295L105.534 101.2C105.329 101.214 105.13 101.245 104.937 101.294C104.86 101.289 104.784 101.277 104.707 101.277C104.637 101.277 104.566 101.279 104.496 101.284L96.6991 101.772C96.0851 101.81 95.5077 102.015 95.0169 102.346C94.5527 102.11 94.0319 101.978 93.4879 101.978C93.418 101.978 93.3464 101.98 93.2766 101.985L86.6212 102.401C86.4432 102.413 86.2702 102.439 86.0988 102.478C86.0805 102.478 86.0622 102.474 86.0439 102.474C85.974 102.474 85.9025 102.476 85.8326 102.481L78.0359 102.969C77.7231 102.989 77.4186 103.05 77.1307 103.152C76.8995 103.102 76.6632 103.077 76.422 103.077C76.3521 103.077 76.2805 103.079 76.2106 103.084L68.4139 103.572C67.369 103.637 66.434 104.188 65.855 105.03C64.3292 104.045 62.494 103.528 60.4459 103.528C60.1746 103.528 59.8951 103.537 59.6139 103.555C57.1931 103.707 54.521 104.479 52.2831 106.616C52.1966 104.308 51.5144 102.036 50.2649 100.158C48.4896 97.4887 44.8142 94.3065 37.3818 94.3065C26.6634 94.3065 16.4725 99.0257 9.42282 107.253C1.78085 116.177 -1.12586 129.369 2.35487 139.335C4.94379 146.749 11.451 151 20.2111 151C21.8999 151 23.7002 150.845 25.5603 150.54C30.6533 149.706 36.2421 146.387 42.172 140.679C45.0604 137.898 47.6144 134.956 49.6576 132.395C49.8889 132.736 50.1384 133.056 50.403 133.357C52.1933 135.382 54.7156 136.453 57.6972 136.453C57.9717 136.453 58.2546 136.444 58.5391 136.426C61.4375 136.245 64.6986 135.159 67.1295 131.875C67.4888 132.363 67.8998 132.808 68.3673 133.204C70.2026 134.761 72.5036 135.55 75.2057 135.55C75.5002 135.55 75.8063 135.54 76.1092 135.522C78.6382 135.364 80.8577 134.591 82.7262 133.227C83.3585 134.038 84.3301 134.531 85.3767 134.531C85.4466 134.531 85.5181 134.529 85.588 134.524L93.3847 134.037C93.9986 133.998 94.576 133.793 95.0668 133.462C95.531 133.698 96.0535 133.83 96.5959 133.83C96.6658 133.83 96.7373 133.828 96.8089 133.823L103.464 133.405C104.582 133.335 105.577 132.716 106.143 131.772C106.224 131.873 106.309 131.973 106.404 132.065C107.038 132.696 107.893 133.047 108.782 133.047C108.852 133.047 108.922 133.046 108.993 133.041L114.509 132.696C115.643 132.624 116.62 131.995 117.177 131.079C117.811 131.852 118.758 132.318 119.778 132.318C119.848 132.318 119.919 132.316 119.989 132.311L127.786 131.823C128.012 131.808 128.234 131.774 128.448 131.715C128.6 131.735 128.753 131.747 128.907 131.747C128.977 131.747 129.047 131.745 129.119 131.74L136.915 131.252C137.488 131.216 138.025 131.036 138.491 130.744C138.925 130.946 139.405 131.056 139.899 131.056C139.969 131.056 140.04 131.054 140.11 131.049L147.907 130.561C149.195 130.481 150.324 129.67 150.815 128.475C151.306 127.279 151.071 125.909 150.211 124.946C150.141 124.866 150.073 124.791 150.091 124.472L150.561 116.249C151.188 114.091 155.545 100.198 163.555 100.198C164.137 100.198 164.745 100.273 165.367 100.414C164.675 100.614 163.999 100.872 163.364 101.189C158.228 103.743 155.036 109.526 154.607 117.06C154.332 121.881 155.842 127.206 158.643 131.301C161.296 135.179 166.412 139.913 175.718 140.443C176.247 140.473 176.786 140.489 177.317 140.489C186.807 140.489 195.135 135.762 198.04 128.726C198.258 128.2 198.441 127.67 198.599 127.141C198.872 127.213 199.154 127.254 199.444 127.254C199.519 127.254 199.594 127.253 199.67 127.246L207.132 126.746C207.716 126.706 208.269 126.518 208.743 126.21C209.184 126.418 209.675 126.535 210.182 126.535C210.257 126.535 210.334 126.533 210.41 126.526L216.781 126.1C216.987 126.087 217.189 126.047 217.385 125.997L224.468 125.522C225.087 125.481 225.671 125.271 226.165 124.928C226.634 125.168 227.158 125.299 227.701 125.299C227.776 125.299 227.851 125.298 227.927 125.291L235.391 124.791C236.231 124.735 237 124.367 237.567 123.789C238.75 124.307 240.078 124.577 241.519 124.577C241.795 124.577 242.078 124.567 242.364 124.548C244.456 124.408 246.357 123.716 248.048 122.488C248.68 123.211 249.6 123.642 250.58 123.642C250.655 123.642 250.73 123.641 250.806 123.634L254.876 123.361C254.064 124.134 252.272 126.007 252.272 126.007C250.355 127.947 250.187 129.92 251.247 131.194C252.86 133.131 256.575 131.154 256.575 131.154C259.435 129.214 262.37 128.102 264.629 128.102C264.824 128.102 265.017 128.11 265.199 128.127C266.598 128.257 267.934 128.681 269.346 129.131C271.37 129.774 273.661 130.503 276.506 130.503C283.296 130.503 289.615 125.867 291.43 119.754C292.141 120.044 292.916 120.205 293.732 120.205C297.071 120.205 299.788 117.508 299.788 114.192C299.78 110.887 297.071 108.196 293.723 108.196Z" fill="white"/>
<path d="M294.332 114.272V114.241C294.635 114.144 294.876 113.938 294.876 113.616C294.876 113.36 294.765 113.168 294.605 113.057C294.429 112.929 294.206 112.849 293.71 112.849C293.279 112.849 292.943 112.897 292.703 112.929V115.551H293.31V114.512H293.598C293.934 114.512 294.094 114.641 294.142 114.912C294.222 115.232 294.27 115.455 294.35 115.551H294.989C294.941 115.455 294.878 115.312 294.798 114.912C294.715 114.561 294.587 114.354 294.332 114.272ZM293.612 114.081H293.324V113.33C293.387 113.313 293.5 113.298 293.66 113.298C294.043 113.298 294.219 113.458 294.219 113.698C294.219 113.969 293.948 114.081 293.612 114.081Z" fill="#FF0000"/>
<path d="M293.74 111.569H293.723C292.221 111.569 291.023 112.72 291.023 114.192C291.023 115.664 292.221 116.83 293.723 116.83C295.226 116.83 296.407 115.662 296.407 114.192C296.409 112.722 295.226 111.569 293.74 111.569ZM293.74 116.288C292.573 116.288 291.695 115.361 291.695 114.194C291.695 113.043 292.573 112.099 293.708 112.099H293.725C294.876 112.099 295.738 113.043 295.738 114.21C295.738 115.361 294.874 116.303 293.74 116.288Z" fill="#FF0000"/>
<path d="M104.902 90.1885L112.667 89.6723C112.193 88.9313 112.046 87.9954 112.229 86.8614L112.44 86.0255L117.023 85.7208L117.114 86.5367C117.134 87.6557 116.85 88.6215 116.264 89.4325L124.029 88.9163C123.254 88.1719 122.779 87.2561 122.606 86.172L120.48 66.5893C120.46 65.4703 120.743 64.5044 121.33 63.6935L111.294 64.3612C111.768 65.1023 111.913 66.0381 111.732 67.1721L110.858 70.6773C106.258 77.4197 94.8937 92.8178 83.7427 92.8178C78.079 92.8178 74.7746 89.6173 73.2822 84.9714C70.076 74.9819 79.5665 54.4899 96.7405 54.4899C101.997 54.4899 104.595 58.7878 103.411 61.5887C100.401 68.6974 93.1001 69.0621 89.2017 65.9765C87.0288 67.9164 87.5712 75.8145 92.5643 75.2883C96.6074 74.862 103.409 68.9272 106.113 62.4629C108.09 57.7387 106.424 49.3994 95.283 49.3994C85.4664 49.3994 76.1739 53.8272 69.8847 61.1691C62.4407 69.8581 60.6521 81.9524 63.439 89.937C65.5836 96.0833 71.4936 100.799 82.9174 98.9258C93.6808 97.1607 105.359 82.0257 109.639 75.563L106.735 87.2244C106.404 88.3468 105.793 89.3326 104.902 90.1885ZM115.766 71.8347L116.482 80.7152L113.717 80.8983L115.766 71.8347Z" fill="#FF0000"/>
<path d="M131.746 85.4274L132.097 79.2662C132.43 79.1446 132.909 78.9131 133.53 78.5718L134.743 85.7138C134.771 86.5348 134.535 87.3873 134.032 88.2682L141.782 87.7504C141.087 87.1742 140.549 86.26 140.168 85.0128L138.516 75.0182C140.543 72.9367 141.621 70.757 141.751 68.4773C141.857 66.599 141.351 65.1353 140.232 64.0879C139.11 63.0405 137.265 62.6008 134.694 62.774L126.415 63.3269C127.122 64.1278 127.443 65.1053 127.378 66.256L126.265 85.7921C126.2 86.9444 125.765 87.9718 124.961 88.8727L132.711 88.3548C132.001 87.5572 131.679 86.5797 131.746 85.4274ZM132.741 67.9595L134.405 67.8479C135.741 67.758 136.373 68.3408 136.302 69.593C136.252 70.4706 135.877 71.3182 135.177 72.1374C134.476 72.9567 133.546 73.6561 132.383 74.2323L132.741 67.9595Z" fill="#FF0000"/>
<path d="M150.833 87.5225C156.327 87.1562 159.324 82.5885 159.825 73.8229C160.324 65.0573 157.827 60.8577 152.333 61.224C146.787 61.5937 143.765 66.163 143.266 74.9286C142.766 83.6942 145.288 87.8922 150.833 87.5225ZM148.747 74.5623C148.912 71.6565 149.263 69.5683 149.8 68.2978C150.338 67.0272 151.085 66.3595 152.041 66.2962C152.973 66.2346 153.632 66.8074 154.015 68.0164C154.397 69.2253 154.507 71.2835 154.341 74.1893C154.176 77.0701 153.832 79.1516 153.308 80.4338C152.782 81.7176 152.053 82.3887 151.121 82.4503C150.163 82.5136 149.487 81.9358 149.093 80.7152C148.697 79.4946 148.582 77.4431 148.747 74.5623Z" fill="#FF0000"/>
<path d="M174.095 79.7946C173.486 80.3342 172.465 80.6522 171.029 80.7471L167.703 80.9686L168.698 63.499C168.78 62.0719 169.089 61.0528 169.625 60.4434L162.632 60.9096C163.102 61.4525 163.297 62.4366 163.216 63.8653L162.103 83.4015C162.021 84.8285 161.712 85.8477 161.176 86.4571L173.764 85.6162L174.095 79.7946Z" fill="#FF0000"/>
<path d="M182.025 82.0707L183.138 62.5345C183.203 61.3822 183.639 60.3548 184.445 59.4539L176.694 59.9718C177.402 60.7728 177.723 61.7502 177.658 62.9009L176.545 82.437C176.48 83.5893 176.044 84.6168 175.24 85.5176L182.99 84.9998C182.28 84.2005 181.959 83.223 182.025 82.0707Z" fill="#FF0000"/>
<path d="M192.005 81.4045L192.552 71.7864L196.369 84.1072L202.984 83.6659C202.277 82.8649 201.956 81.8875 202.021 80.7368L203.134 61.2007C203.199 60.0484 203.635 59.0209 204.44 58.1201L196.69 58.6379C197.397 59.4389 197.718 60.4164 197.654 61.567L197.076 71.7114L193.289 58.8644L186.674 59.3057C187.381 60.1066 187.702 61.0841 187.637 62.2348L186.524 81.7709C186.459 82.9232 186.023 83.9506 185.22 84.8515L192.97 84.3336C192.261 83.5343 191.94 82.5569 192.005 81.4045Z" fill="#FF0000"/>
<path d="M205.532 80.6518C205.217 81.7708 204.622 82.7583 203.743 83.6158L211.493 83.098C211.007 82.357 210.848 81.4194 211.012 80.2854L211.21 79.4495C212.362 79.3729 213.523 79.2397 214.676 79.2181C215.709 79.1981 215.55 79.3113 215.773 80.2571C216.019 81.2995 216.58 82.3453 217.132 83.2528C217.601 84.0238 218.147 84.7515 218.812 85.361C220.546 86.9496 223.06 87.6107 225.368 87.1694C227.712 86.7198 230.591 85.0413 230.764 82.3953C230.424 82.5468 230.258 82.8698 229.95 83.0647C229.619 83.2728 229.276 83.461 228.919 83.6208C228.285 83.9039 227.601 84.0954 226.904 84.1054C225.366 84.1271 224.1 83.2062 223.187 82.0372C221.303 79.6294 220.792 74.9268 220.433 72.0211C219.98 68.3593 219.528 64.6975 219.075 61.0374C219.032 60.691 218.989 60.343 218.947 59.9966C218.911 58.876 219.18 57.9102 219.753 57.0975L209.735 57.7669C210.219 58.508 210.379 59.4455 210.214 60.5795L205.532 80.6518ZM214.318 65.2437L215.167 74.1325L212.408 74.3174L214.318 65.2437Z" fill="#FF0000"/>
<path d="M59.822 106.925C54.2432 107.275 51.205 111.804 50.7075 120.515C50.6742 121.105 50.6559 121.671 50.6493 122.217C46.0089 128.886 36.4152 141.1 25.8382 141.1C20.1746 141.1 16.8702 137.9 15.3777 133.254C12.1715 123.264 21.662 102.772 38.8361 102.772C44.0921 102.772 46.6927 107.07 45.5064 109.871C42.4965 116.98 35.1956 117.345 31.2973 114.259C29.1243 116.199 29.6667 124.097 34.6599 123.571C38.703 123.144 45.5047 117.21 48.2084 110.745C50.1851 106.021 48.5196 97.6818 37.3786 97.6818C27.562 97.6818 18.2695 102.11 11.9802 109.451C4.53788 118.144 2.74927 130.238 5.53618 138.223C7.68086 144.369 13.5908 149.085 25.0146 147.212C35.0575 145.565 45.899 132.275 50.7807 125.254C51.3664 130.734 53.8804 133.337 58.3279 133.059C63.8551 132.713 66.8683 128.185 67.3658 119.473C67.8649 110.762 65.3492 106.579 59.822 106.925ZM61.8519 119.819C61.6888 122.681 61.3427 124.75 60.8153 126.022C60.2878 127.296 59.5541 127.96 58.6174 128.02C57.654 128.08 56.9735 127.504 56.5758 126.288C56.1782 125.074 56.0601 123.034 56.2248 120.172C56.3895 117.285 56.7422 115.211 57.2813 113.949C57.8204 112.689 58.5724 112.028 59.5358 111.966C60.4742 111.908 61.1364 112.479 61.5224 113.683C61.9051 114.887 62.0166 116.932 61.8519 119.819Z" fill="#FF0000"/>
<path d="M78.2437 106.34C78.9558 107.14 79.2803 108.111 79.2137 109.256L78.4251 123.069C78.2753 125.682 77.5283 127.031 76.1855 127.115C74.7913 127.202 74.169 125.94 74.3171 123.327L75.1057 109.514C75.1706 108.37 75.6082 107.35 76.4168 106.455L68.6201 106.943C69.3322 107.743 69.6567 108.713 69.5901 109.859L68.7366 124.793C68.5802 127.53 69.1825 129.477 70.5435 130.631C71.9045 131.785 73.6881 132.294 75.8944 132.156C78.1006 132.018 79.9425 131.282 81.4216 129.95C82.9008 128.617 83.7177 126.583 83.8741 123.843L84.7277 108.91C84.7925 107.766 85.2301 106.745 86.0388 105.853L78.2437 106.34Z" fill="#FF0000"/>
<path d="M97.8786 108.056L97.3029 118.135L93.4861 105.355L86.8307 105.771C87.5429 106.57 87.8656 107.541 87.8008 108.687L86.691 128.1C86.6261 129.245 86.1885 130.264 85.3799 131.159L93.1766 130.671C92.4645 129.873 92.14 128.901 92.2066 127.755L92.7523 118.197L96.5991 130.454L103.254 130.038C102.542 129.24 102.218 128.268 102.284 127.122L103.394 107.709C103.459 106.565 103.897 105.545 104.705 104.65L96.9086 105.138C97.6207 105.939 97.9435 106.912 97.8786 108.056Z" fill="#FF0000"/>
<path d="M120.197 103.665L105.744 104.571L105.391 110.732C106.296 109.931 107.331 109.495 108.497 109.422L109.943 109.332L108.78 129.679L114.296 129.334L115.459 108.987L116.866 108.899C118.033 108.825 119.026 109.135 119.845 109.828L120.197 103.665Z" fill="#FF0000"/>
<path d="M135.077 125.159L133.41 115.22C135.448 113.158 136.531 110.995 136.661 108.729C136.767 106.862 136.257 105.405 135.13 104.361C134.002 103.315 132.145 102.874 129.558 103.035L121.229 103.556C121.941 104.356 122.264 105.327 122.199 106.472L121.089 125.885C121.024 127.031 120.587 128.05 119.778 128.944L127.575 128.456C126.863 127.659 126.538 126.686 126.605 125.54L126.954 119.417C127.289 119.298 127.769 119.069 128.395 118.731L129.618 125.835C129.646 126.651 129.408 127.497 128.904 128.373L136.701 127.885C136.002 127.309 135.46 126.4 135.077 125.159ZM130.049 112.344C129.345 113.156 128.408 113.847 127.24 114.417L127.596 108.182L129.27 108.077C130.615 107.993 131.25 108.574 131.18 109.818C131.129 110.689 130.751 111.531 130.049 112.344Z" fill="#FF0000"/>
<path d="M147.215 115.692C147.215 115.692 152.893 93.3279 166.786 97.2944C166.881 95.6425 155.469 87.7977 147.273 104.714L144.842 110.111L142.905 104.876C142.614 103.779 142.666 102.883 143.058 102.188L135.262 102.676C136.228 103.434 136.919 104.185 137.332 104.928L141.699 116.038L141.208 124.624C141.143 125.769 140.706 126.788 139.897 127.683L147.694 127.195C146.982 126.397 146.657 125.425 146.724 124.279L147.215 115.692Z" fill="#FF0000"/>
<path d="M215.696 119.83L217.23 100.487C217.32 99.3468 217.763 98.331 218.558 97.4385L211.094 97.938C211.754 98.7323 212.041 99.6998 211.951 100.84L211.154 110.885L207.818 98.1578L201.447 98.5841C202.108 99.3784 202.394 100.346 202.304 101.487L200.77 120.83C200.68 121.97 200.236 122.988 199.442 123.879L206.904 123.379C206.244 122.585 205.958 121.617 206.049 120.477L206.805 110.953L210.182 123.159L216.553 122.733C215.891 121.94 215.605 120.973 215.696 119.83Z" fill="#FF0000"/>
<path d="M231.954 99.2922C231.945 98.1831 232.226 97.2273 232.797 96.423L223.15 97.0691C223.599 97.8035 223.731 98.7327 223.545 99.855L218.565 119.724C218.235 120.832 217.638 121.809 216.774 122.657L224.238 122.157C223.789 121.423 223.658 120.493 223.842 119.371L224.054 118.544L228.458 118.249L228.538 119.056C228.546 120.165 228.265 121.123 227.694 121.926L235.158 121.426C234.421 120.687 233.972 119.779 233.817 118.703L231.954 99.2922ZM225.325 113.463L227.376 104.483L227.982 113.285L225.325 113.463Z" fill="#FF0000"/>
<path d="M244.479 113.513C244.426 114.182 244.216 114.783 243.847 115.313C243.479 115.844 243.04 116.126 242.53 116.159C241.609 116.221 240.971 115.648 240.62 114.437C240.269 113.228 240.208 111.197 240.434 108.344C240.662 105.468 241.05 103.4 241.595 102.143C242.141 100.886 242.877 100.226 243.798 100.165C244.307 100.13 244.69 100.333 244.945 100.772C245.199 101.212 245.301 101.753 245.251 102.399C245.189 103.169 244.948 103.777 244.527 104.224L250.865 103.763C250.92 100.628 250.314 98.3746 249.048 97.0025C247.78 95.632 246.164 95.0126 244.198 95.1441C238.858 95.5021 235.844 100.02 235.156 108.699C234.468 117.38 236.794 121.539 242.133 121.183C244.171 121.046 245.95 120.15 247.47 118.494C248.989 116.838 249.938 114.394 250.314 111.162L243.943 111.588C244.366 112.053 244.544 112.695 244.479 113.513Z" fill="#FF0000"/>
<path d="M257.181 116.864L257.528 112.475L258.339 110.94C259.112 114.032 259.851 116.818 262.861 118.468C263.48 118.808 264.154 119.067 264.858 119.124C266.315 119.241 267.726 118.455 268.718 117.379C269.912 116.082 271.386 113.819 270.989 111.97C270.829 112.31 270.441 112.471 270.082 112.576C268.698 112.981 267.189 113.054 265.869 112.466C264.615 111.905 263.523 110.998 262.793 109.825C261.789 108.215 261.53 106.009 262.433 104.299C263.761 101.786 265.11 99.2864 266.45 96.7803C267.25 95.5181 268.124 94.5473 269.072 93.8662L261.463 94.3758C261.64 95.1784 261.586 96.0093 261.302 96.8669L258.287 102.915L258.715 97.5213C258.804 96.3807 259.247 95.3649 260.042 94.4723L252.58 94.9719C253.241 95.7662 253.527 96.7337 253.437 97.8743L251.903 117.217C251.813 118.358 251.369 119.375 250.575 120.266L258.037 119.767C257.375 118.972 257.091 118.005 257.181 116.864Z" fill="#FF0000"/>
<path d="M279.968 105.485C276.378 103.585 273.754 101.41 275.068 97.4621C275.591 95.8952 276.904 94.3582 278.983 94.3582C282.085 94.3582 283.271 97.622 281.754 100.02L287.619 99.3138C288.088 92.9577 284.13 90.2551 278.817 90.5832C273.756 90.8962 270.48 94.5297 269.674 97.2606C268.543 101.102 268.887 106.542 275.784 109.938C278.404 111.228 282.208 113.628 281.7 116.505C281.308 118.73 279.581 120.533 276.877 120.533C273.345 120.533 273.002 119.18 269.025 119.18C262.739 119.18 254.783 128.292 254.677 128.363C257.864 126.2 261.947 124.438 265.503 124.768C269.431 125.133 272.29 127.129 276.499 127.129C281.897 127.129 287.372 123.149 288.402 117.952C289.642 111.691 286.56 108.972 279.968 105.485Z" fill="#FF0000"/>
<path d="M198.868 93.0695C197.502 91.0846 195.762 88.6351 190.762 88.4253C183.619 88.1255 172.831 94.3833 182.621 112.387C184.474 115.798 187.365 121.634 185.842 126.542C183.711 133.416 176.129 135.607 170.951 130.505C167.893 127.493 166.001 123.323 165.746 119.037C165.587 116.337 166.096 113.521 167.651 111.312C169.207 109.102 171.929 107.62 174.605 107.995C174.007 106.802 173.39 105.582 172.418 104.669C170.42 102.796 167.139 103.077 164.863 104.208C160.058 106.598 158.257 112.241 157.971 117.25C157.585 124.017 161.583 136.256 175.907 137.074C184.321 137.554 192.341 133.684 194.922 127.436C197.865 120.309 193.855 112.389 191.687 108.353C186.022 97.802 185.791 90.0272 191.481 90.267C195.391 90.4302 197.953 98.4914 194.908 100.739C195.627 100.958 196.17 101.59 196.83 101.975C197.734 102.501 198.872 102.513 199.712 102.007C200.968 101.249 201.762 97.2758 198.868 93.0695Z" fill="#FF0000"/>
</svg>
