<svg width="248" height="123" viewBox="0 0 248 123" fill="none" xmlns="http://www.w3.org/2000/svg">
<path d="M131.549 3.37993C131.595 3.01641 131.636 2.65289 131.676 2.28937C131.771 1.40362 131.663 0.237101 130.791 0.00650963C129.94 -0.218656 129.016 5.46882 128.9 6.00054C127.639 11.8047 126.428 17.5884 126.061 23.5133C126.054 23.6327 126.052 23.7656 126.135 23.8524C126.175 23.8931 126.229 23.9175 126.283 23.9392C126.873 24.182 127.558 24.2756 128.146 24.0342C129.511 23.474 129.038 21.0527 129.122 19.9188C129.266 17.971 129.526 16.034 129.829 14.1038C130.387 10.5269 131.105 6.97309 131.549 3.37993Z" fill="#FFCD00"/>
<path d="M142.756 32.9335C142.623 32.8182 142.496 32.6988 142.393 32.5564C142.326 32.4642 142.271 32.3638 142.198 32.2756C142.135 32.1997 142.059 32.1346 141.99 32.064C141.767 31.8375 141.6 31.5567 141.307 31.4089C141.085 31.2976 140.893 31.2664 140.701 31.0996C140.142 30.6072 139.653 30.0172 139.118 29.4963C138.952 29.3335 138.667 29.2155 138.442 29.2196C137.887 29.2291 137.37 29.0948 136.912 28.8154C136.501 28.5644 136.117 28.3651 135.622 28.2905C134.599 28.1358 133.601 27.7845 132.578 27.6407C131.509 27.4902 130.423 27.4807 129.343 27.4264C127.772 27.3491 125.998 27.2352 124.446 27.5376C123.988 27.6272 123.541 27.7696 123.082 27.855C121.976 28.0599 120.81 27.9296 119.74 28.2701C118.972 28.5143 118.304 28.9836 117.582 29.339C117.041 29.6048 116.469 29.8069 115.924 30.066C114.657 30.6696 113.564 31.5716 112.487 32.4642C111.931 32.924 111.377 33.3838 110.85 33.8748C109.072 35.531 107.863 37.4273 106.66 39.4714C106.108 40.4114 105.601 41.3853 105.234 42.4122C104.982 43.1148 104.359 44.733 105.11 45.2308C105.479 45.475 106.718 45.2878 107.172 45.3C107.956 45.323 108.74 45.3447 109.524 45.3678C110.605 45.399 111.706 45.4275 112.748 45.1426C113.529 44.9283 114.257 44.5417 115.049 44.3722C116.331 44.0982 117.656 44.4102 118.967 44.4712C120.929 44.5621 122.866 44.0846 124.803 43.7523C126.276 43.5 127.662 43.873 129.149 43.3481C129.497 43.2247 129.842 43.0754 130.209 43.0334C130.474 43.0036 130.74 43.0307 131.004 43.0578C132.044 43.165 133.084 43.2708 134.125 43.3779C134.296 43.3956 134.471 43.4132 134.64 43.382C134.797 43.3535 134.941 43.2857 135.091 43.2341C135.506 43.089 135.963 43.0659 136.391 43.1677C136.721 43.2464 137.037 43.3969 137.377 43.4118C137.704 43.4268 138.022 43.3128 138.331 43.2097C140.66 42.4339 143.148 42.1287 145.598 42.3186C146.392 42.3796 147.294 42.4596 147.881 41.9293C148.177 41.6621 147.09 40.6854 146.932 40.4969C146.444 39.915 146.161 39.0781 145.865 38.389C145.232 36.9186 144.682 35.4008 143.767 34.0702C143.573 33.7894 143.379 33.5059 143.133 33.2672C143.015 33.1505 142.883 33.0434 142.756 32.9335Z" fill="#FFCD00"/>
<path d="M95.1424 22.0769C95.3226 22.2505 95.5028 22.4228 95.683 22.5937C99.255 25.9861 102.83 29.3812 106.63 32.5227C107.032 32.855 107.451 33.1914 107.953 33.3352C108.982 33.6282 109.627 32.9472 109.38 31.9815C109.173 31.1744 108.398 30.4609 107.81 29.9034C105.108 27.3371 102.102 25.1058 99.1051 22.8812C97.2304 21.4895 95.3542 20.0965 93.4795 18.7048C93.2938 18.5665 92.7987 18.2613 92.6735 18.6668C92.6226 18.831 92.6983 19.0059 92.778 19.1592C93.3612 20.2701 94.2333 21.1966 95.1424 22.0769Z" fill="#FFCD00"/>
<path d="M91.9214 29.5915C91.9379 29.6105 91.953 29.6267 91.9668 29.6417C92.2006 29.8736 92.5321 29.9252 92.8099 30.0879C93.8099 30.6725 94.6709 31.5393 95.6406 32.1822C97.9582 33.7191 100.647 34.6333 103.007 36.1077C103.621 36.4916 104.215 36.8782 104.875 37.1793C104.98 37.2268 105.519 37.5849 105.604 37.5781C105.914 37.5537 105.958 37.1725 105.833 36.9324C105.729 36.7344 105.541 36.5947 105.358 36.4645C103.017 34.7934 100.517 33.3542 98.1576 31.7102C97.1907 31.0361 96.3269 30.3958 95.2458 29.9211C94.1207 29.4273 93.1895 28.3883 91.8499 28.5755C91.3684 28.6433 91.6972 29.3243 91.9214 29.5915Z" fill="#FFCD00"/>
<path d="M102.834 18.1365C102.844 18.1596 102.852 18.1799 102.862 18.1989C103.01 18.4905 103.31 18.6425 103.523 18.8812C104.291 19.7425 104.837 20.8304 105.556 21.7378C107.277 23.9081 109.546 25.5982 111.326 27.721C111.788 28.273 112.232 28.8224 112.766 29.3107C112.851 29.388 113.252 29.8926 113.333 29.913C113.634 29.9835 113.796 29.6349 113.752 29.369C113.717 29.1493 113.58 28.9594 113.447 28.779C111.746 26.4744 109.821 24.3421 108.094 22.0579C107.385 21.122 106.766 20.2485 105.888 19.4672C104.973 18.6547 104.414 17.381 103.082 17.1504C102.607 17.0677 102.705 17.815 102.834 18.1365Z" fill="#FFCD00"/>
<path d="M118.777 9.67227C118.774 9.69668 118.771 9.71974 118.77 9.74009C118.755 10.0656 118.94 10.3423 119.008 10.6543C119.249 11.7761 119.185 12.9874 119.361 14.1268C119.784 16.8491 120.924 19.4195 121.422 22.1296C121.551 22.8336 121.665 23.5281 121.888 24.2104C121.924 24.3189 122.021 24.9524 122.083 25.0093C122.312 25.2169 122.625 24.9903 122.72 24.738C122.797 24.5291 122.774 24.2972 122.748 24.0761C122.409 21.2453 121.79 18.4565 121.418 15.631C121.265 14.4726 121.159 13.4119 120.781 12.3078C120.386 11.1575 120.532 9.77807 119.485 8.93302C119.11 8.62918 118.824 9.32909 118.777 9.67227Z" fill="#FFCD00"/>
<path d="M137.319 9.65887C137.304 9.67922 137.292 9.69821 137.281 9.71584C137.111 9.99527 137.142 10.3262 137.051 10.6328C136.724 11.7328 136.085 12.7691 135.692 13.8556C134.754 16.4505 134.521 19.2461 133.656 21.8653C133.431 22.5462 133.198 23.2095 133.066 23.9149C133.046 24.0274 132.827 24.631 132.854 24.7097C132.955 24.9986 133.341 24.9471 133.545 24.768C133.714 24.6202 133.803 24.4059 133.887 24.1984C134.951 21.5479 135.747 18.8039 136.779 16.1426C137.201 15.052 137.618 14.0686 137.816 12.9184C138.022 11.7206 138.813 10.5745 138.298 9.34147C138.114 8.89656 137.527 9.37945 137.319 9.65887Z" fill="#FFCD00"/>
<path d="M152.206 16.3188C152.184 16.331 152.164 16.3432 152.148 16.3554C151.88 16.5466 151.775 16.8613 151.567 17.1068C150.825 17.9885 149.822 18.6911 149.026 19.5335C147.122 21.5491 145.784 24.0246 143.936 26.0904C143.456 26.6276 142.975 27.1457 142.571 27.7412C142.506 27.8361 142.063 28.3041 142.056 28.3882C142.033 28.6934 142.407 28.7965 142.667 28.7124C142.881 28.6418 143.051 28.4804 143.21 28.3231C145.251 26.3061 147.086 24.0978 149.103 22.0578C149.929 21.2222 150.706 20.4816 151.351 19.5036C152.023 18.485 153.21 17.7416 153.233 16.4083C153.241 15.9295 152.508 16.1424 152.206 16.3188Z" fill="#FFCD00"/>
<path d="M162.576 29.8871C162.552 29.8885 162.528 29.8898 162.508 29.8925C162.179 29.9332 161.934 30.1611 161.634 30.2791C160.555 30.7037 159.333 30.8475 158.225 31.2123C155.575 32.0845 153.2 33.6281 150.576 34.5722C149.893 34.8177 149.219 35.0456 148.576 35.3779C148.474 35.4308 147.856 35.6329 147.811 35.7035C147.642 35.9598 147.921 36.227 148.191 36.2759C148.413 36.3152 148.64 36.2528 148.856 36.1904C151.628 35.3806 154.309 34.3063 157.071 33.4654C158.201 33.1208 159.244 32.8373 160.284 32.2826C161.366 31.7047 162.77 31.6111 163.436 30.4514C163.674 30.0336 162.927 29.8749 162.576 29.8871Z" fill="#FFCD00"/>
<path d="M151.453 38.3323C150.948 38.1519 150.446 37.9592 149.93 37.8195C149.716 37.7612 149.463 37.7192 149.287 37.8548C149.2 37.9213 149.146 38.0216 149.108 38.1234C148.774 39.0064 149.371 39.884 149.622 40.7046C149.728 41.0492 149.704 41.4575 149.987 41.7003C150.299 41.9675 151.017 41.9797 151.399 41.9593C152.04 41.9241 152.658 41.7437 153.269 41.5673C153.895 41.3869 154.54 41.3422 155.197 41.2811C156.7 41.1401 158.205 41.022 159.709 40.8918C162.708 40.6314 165.712 40.3181 168.654 39.6602C169.144 39.5503 169.719 39.3469 169.824 38.864C169.921 38.4082 169.495 37.9755 169.033 37.8724C168.571 37.7693 168.095 37.9023 167.634 38.0121C163.728 38.9481 159.625 38.3553 155.622 38.7134C154.816 38.7853 154.005 38.8965 153.203 38.7989C152.6 38.7243 152.025 38.5357 151.453 38.3323Z" fill="#FFCD00"/>
<path d="M102.787 39.1609C102.309 38.99 101.662 39.0171 101.17 39.0225C97.1012 39.0741 93.635 35.8729 89.8581 34.8258C88.7302 34.5138 87.5803 34.2873 86.4552 33.9685C85.9147 33.8152 85.3796 33.6416 84.8528 33.4463C84.6603 33.7528 84.9573 34.1272 85.2448 34.3497C87.0563 35.7522 89.378 36.364 91.272 37.6566C93.0353 38.8598 95.0201 39.3277 96.7944 40.459C97.9732 41.2104 99.1065 42.0392 100.258 42.83C100.573 43.0457 100.944 43.2736 101.316 43.1732C101.593 43.0986 101.789 42.8571 101.958 42.6265C102.471 41.928 103.355 41.1182 103.441 40.2121C103.497 39.6126 103.207 39.3101 102.787 39.1609Z" fill="#FFCD00"/>
<path d="M108.479 10.7372C110.362 14.4063 112.102 18.1446 113.932 21.8381C114.401 22.7863 114.877 23.7303 115.363 24.6703C115.547 25.0284 116.144 26.7416 116.785 26.4703C117.257 26.2723 116.894 24.0586 116.854 23.6598C116.289 18.0022 112.166 13.2072 109.077 8.65237C108.853 8.3214 107.491 6.12536 106.999 6.78865C106.905 6.91479 106.916 7.08841 106.938 7.24305C107.127 8.56827 107.879 9.56931 108.479 10.7372Z" fill="#FFCD00"/>
<path d="M148.442 10.1404C148.785 9.49071 149.127 8.84099 149.47 8.19126C149.737 7.68532 150.006 7.079 149.742 6.5717C149.188 6.51066 148.647 6.81857 148.276 7.2282C147.905 7.6392 147.665 8.14515 147.397 8.62803C146.339 10.5338 144.788 12.1235 143.533 13.9113C141.22 17.2087 139.937 21.1532 137.406 24.292C136.986 24.8115 136.505 25.4192 136.658 26.0662C136.777 26.5721 137.277 26.9234 137.792 27.0319C139.358 27.3629 139.975 25.955 140.622 24.8495C141.638 23.1119 142.56 21.2984 143.502 19.5106C145.15 16.3868 146.796 13.2629 148.442 10.1404Z" fill="#FFCD00"/>
<path d="M162.307 21.1842C162.786 20.6593 163.304 20.1777 164.003 19.7586C164.704 19.3367 165.549 18.8823 165.663 18.0793C162.634 18.4279 160.38 20.8899 157.767 22.4402C156.08 23.4399 154.185 24.0829 152.577 25.2019C151.73 25.7906 150.973 26.5054 150.094 27.048C148.481 28.0436 145.855 28.6269 144.913 30.4323C144.502 31.2204 145.124 32.1251 145.989 32.1563C146.62 32.1793 147.203 31.8497 147.745 31.5283C150.865 29.6727 153.915 27.7045 156.896 25.6373C158.229 24.7122 160.055 23.7817 161.123 22.5623C161.544 22.0808 161.912 21.6182 162.307 21.1842Z" fill="#FFCD00"/>
<path d="M242.072 88.1332C241.01 88.1332 240.025 88.4574 239.214 89.0081C237.838 86.9544 235.63 85.4678 233.178 84.1222L237.357 83.6271C238.68 83.4698 239.705 82.4118 239.802 81.1001C240.087 77.3035 238.736 75.0098 237.555 73.7537C235.867 71.9619 233.409 71.0151 230.446 71.0151C230.162 71.0151 229.869 71.0246 229.576 71.0423C226.77 71.2132 224.383 72.3363 222.611 73.8704C222.32 73.77 222.011 73.7144 221.692 73.7144C221.63 73.7144 221.568 73.7158 221.505 73.7212L215.215 74.1363C215.015 74.1498 214.82 74.1837 214.632 74.2366C214.498 74.2176 214.363 74.2081 214.227 74.2081C214.165 74.2081 214.103 74.2095 214.04 74.2149L207.871 74.6219C206.969 74.6815 206.163 75.1685 205.694 75.9118C204.484 75.1414 203.078 74.7399 201.548 74.7399C201.349 74.7399 201.145 74.7466 200.942 74.7602C198.785 74.9026 196.362 75.6799 194.418 77.9288C194.36 77.6792 194.265 77.4351 194.135 77.2045C193.64 76.3323 192.707 75.7965 191.703 75.7965C191.641 75.7965 191.579 75.7992 191.516 75.8033L183.541 76.3296C182.812 76.3771 182.142 76.704 181.664 77.2248C181.178 76.845 180.571 76.6253 179.933 76.6253C179.871 76.6253 179.809 76.6266 179.746 76.6321L173.576 77.039C173.093 77.0716 172.636 77.2248 172.246 77.4758C171.881 77.3062 171.477 77.2113 171.056 77.2113C170.994 77.2113 170.931 77.2126 170.869 77.218L167.561 77.4364C167.202 76.3526 166.663 75.277 165.95 74.2556C165.359 73.4092 164.508 72.1925 163.073 71.1711L167.245 70.8971C167.353 70.8903 167.459 70.8727 167.564 70.8537C167.604 70.8551 167.642 70.8619 167.684 70.8619C167.745 70.8619 167.807 70.8605 167.871 70.8551L174.277 70.4332C175.13 70.3776 175.902 69.9395 176.382 69.2586C176.954 70.1823 177.569 70.9365 178.263 71.5618C179.885 73.0253 182.116 73.8636 184.384 73.8636C184.958 73.8636 185.531 73.8107 186.088 73.7049C189.158 73.1257 192.569 70.8727 192.805 67.2945C192.868 66.3341 192.418 65.4118 191.618 64.8611C191.142 64.5342 190.585 64.3673 190.023 64.3673C189.64 64.3673 189.255 64.446 188.893 64.6033C188.311 64.8583 187.926 65.2151 187.714 65.4253C187.592 65.4959 187.475 65.5555 187.365 65.603C187.059 65.7373 186.875 65.759 186.788 65.7604C186.622 65.7604 186.3 65.565 185.955 65.1296C184.937 63.8478 184.513 60.4473 184.286 58.6202L183.039 48.6803C183.043 48.3548 183.124 48.1961 183.199 48.0943C183.819 47.2289 183.878 46.0882 183.353 45.1645C182.857 44.2936 181.925 43.7606 180.922 43.7606C180.86 43.7606 180.798 43.7619 180.736 43.7673L172.455 44.3126C171.594 44.3696 170.817 44.8159 170.338 45.5076C169.815 44.9339 169.066 44.5948 168.265 44.5948C168.203 44.5948 168.142 44.5961 168.08 44.6015L161.673 45.0234C161.168 45.0559 160.693 45.2228 160.292 45.4927C159.914 45.3055 159.489 45.2024 159.047 45.2024C158.985 45.2024 158.923 45.2038 158.86 45.2092L153.391 45.5687C153.074 45.589 152.771 45.669 152.488 45.7884C152.246 45.7206 151.992 45.684 151.732 45.684C151.671 45.684 151.609 45.6853 151.545 45.6907L145.139 46.1126C144.078 46.1818 143.151 46.841 142.747 47.8095C142.672 47.9885 142.624 48.173 142.59 48.3588C142.565 48.2842 142.536 48.211 142.5 48.1391C142.029 47.195 140.839 46.4897 139.783 46.4897C139.721 46.4897 139.659 46.491 139.596 46.4965L133.512 46.8776C132.457 46.9468 131.531 47.5992 131.124 48.5623C131.069 48.6939 131.028 48.8282 130.995 48.9624C129.603 47.7484 127.794 47.1082 125.719 47.1082C125.483 47.1082 125.24 47.1163 124.998 47.1326C122.568 47.2927 119.83 48.215 117.81 50.9944C117.571 50.6878 117.323 50.4233 117.082 50.2008C115.756 48.9787 113.866 48.3602 111.464 48.3602C111.128 48.3602 110.776 48.3724 110.417 48.3955L103.573 48.8458C102.749 48.9 102.009 49.3124 101.529 49.9458C101.012 49.4345 100.305 49.1361 99.5564 49.1361C99.4945 49.1361 99.4326 49.1374 99.3707 49.1428L91.074 49.6868C90.7563 49.7071 90.4509 49.7804 90.1662 49.9011C90.6655 47.2669 90.1428 44.4374 88.6752 42.2617C87.2117 40.0847 84.1734 37.4939 78.0293 37.4939C69.1687 37.4939 60.7441 41.338 54.9163 48.0401C48.6003 55.3051 46.1974 66.0506 49.0734 74.1688C51.2122 80.2076 56.593 83.6719 63.8347 83.6719C65.2308 83.6719 66.719 83.5458 68.2568 83.2975C73.6402 82.4281 78.9646 78.3493 83.2518 74.0359C83.2917 74.219 83.3495 74.3994 83.4279 74.5757C83.8763 75.5768 84.879 76.2143 85.9766 76.2143C86.0385 76.2143 86.1004 76.2129 86.1623 76.2075L92.5815 75.787C93.1165 75.7518 93.6213 75.5659 94.0408 75.2648C94.4425 75.4805 94.8991 75.5985 95.3709 75.5985C95.4328 75.5985 95.4947 75.5971 95.5566 75.5917L101.976 75.1712C102.086 75.1644 102.194 75.1454 102.302 75.1264C102.387 75.1346 102.472 75.1441 102.559 75.1441C102.621 75.1441 102.683 75.1427 102.745 75.1373L109.151 74.7155C109.337 74.7032 109.519 74.6734 109.695 74.6259C109.814 74.6409 109.937 74.649 110.059 74.649C110.121 74.649 110.183 74.6476 110.245 74.6422L116.652 74.2204C117.609 74.158 118.449 73.6154 118.903 72.8083C120.17 73.629 121.697 74.0576 123.405 74.0576C123.643 74.0576 123.889 74.0494 124.136 74.0332C126.067 73.9057 128.193 73.2899 129.995 71.6269C129.996 71.631 129.998 71.6337 129.999 71.6377C130.471 72.5818 131.443 73.1718 132.498 73.1718C132.56 73.1718 132.622 73.1705 132.684 73.1651L143.091 72.4801C143.3 72.4665 143.502 72.4272 143.694 72.3716C143.835 72.3933 143.978 72.4068 144.122 72.4068C144.184 72.4068 144.246 72.4055 144.309 72.4L148.279 72.1382C147.356 72.8978 146.522 73.8284 145.844 74.9542C144.143 77.7769 143.923 80.9686 144.472 84.0815C144.239 83.7953 143.982 83.5173 143.696 83.2528C142.43 82.0835 140.756 81.4528 138.85 81.4121C139.48 80.9265 139.873 80.1981 139.919 79.406C139.974 78.4456 139.586 77.5232 138.765 76.666C137.521 75.3679 134.881 73.8514 131.533 73.8514C128.261 73.8514 123.724 75.2797 119.819 81.6807C119.299 80.9346 118.44 80.4884 117.522 80.4884C117.465 80.4884 117.407 80.4897 117.348 80.4938L110.902 80.8912C110.384 80.9238 109.9 81.0961 109.491 81.3755C108.784 81.2317 108.019 81.153 107.189 81.153C106.867 81.153 106.53 81.1639 106.186 81.1856L99.3005 81.6101C99.1203 81.621 98.947 81.6549 98.7765 81.6983C98.7256 81.6956 98.6747 81.6915 98.6238 81.6915C98.566 81.6915 98.5083 81.6929 98.4491 81.697L86.5006 82.4348C86.3315 82.4457 86.1664 82.4715 86.0069 82.5108C85.9436 82.5067 85.8803 82.4972 85.8171 82.4972C85.7593 82.4972 85.7001 82.4986 85.6424 82.5027L79.197 82.9001C78.6895 82.9313 78.2122 83.0981 77.8065 83.3681C77.4227 83.1755 76.9922 83.0683 76.5424 83.0683C76.4847 83.0683 76.4255 83.0697 76.3677 83.0737L70.866 83.4128C70.7188 83.4223 70.5757 83.444 70.4341 83.4752C70.4189 83.4752 70.4038 83.4725 70.3887 83.4725C70.3309 83.4725 70.2718 83.4739 70.214 83.4779L63.7687 83.8754C63.5101 83.8916 63.2584 83.9418 63.0204 84.0246C62.8292 83.9839 62.6339 83.9635 62.4345 83.9635C62.3767 83.9635 62.3176 83.9649 62.2598 83.969L55.8145 84.3664C54.9507 84.4193 54.1777 84.8683 53.6991 85.5546C52.4378 84.7516 50.9207 84.3311 49.2275 84.3311C49.0033 84.3311 48.7722 84.3379 48.5398 84.3528C46.5385 84.4763 44.3295 85.1056 42.4795 86.8459C42.408 84.9659 41.8441 83.1158 40.8111 81.5857C39.3435 79.4114 36.3052 76.8193 30.1611 76.8193C21.3005 76.8193 12.8759 80.6634 7.04809 87.3654C0.730677 94.6345 -1.67222 105.38 1.20521 113.498C3.3454 119.537 8.72476 123 15.9665 123C17.3626 123 18.8508 122.874 20.3885 122.626C24.5988 121.946 29.2189 119.243 34.121 114.593C36.5087 112.328 38.62 109.931 40.3091 107.845C40.5003 108.123 40.7066 108.383 40.9253 108.629C42.4053 110.278 44.4904 111.15 46.9552 111.15C47.1822 111.15 47.416 111.144 47.6512 111.129C50.0472 110.981 52.7431 110.096 54.7526 107.421C55.0497 107.819 55.3895 108.181 55.776 108.504C57.2931 109.772 59.1953 110.415 61.4291 110.415C61.6725 110.415 61.9256 110.407 62.1759 110.392C64.2666 110.263 66.1014 109.634 67.646 108.523C68.1687 109.183 68.972 109.585 69.8371 109.585C69.8949 109.585 69.954 109.584 70.0118 109.58L76.4571 109.182C76.9647 109.151 77.442 108.984 77.8477 108.714C78.2315 108.907 78.6634 109.014 79.1118 109.014C79.1695 109.014 79.2287 109.013 79.2878 109.008L84.7896 108.668C85.7139 108.611 86.5364 108.106 87.0041 107.337C87.0715 107.42 87.1416 107.502 87.22 107.576C87.744 108.09 88.451 108.376 89.1855 108.376C89.2433 108.376 89.301 108.375 89.3602 108.371L93.9198 108.09C94.8578 108.032 95.6652 107.519 96.126 106.773C96.65 107.402 97.4327 107.782 98.2758 107.782C98.3336 107.782 98.3927 107.781 98.4505 107.777L104.896 107.379C105.083 107.367 105.266 107.339 105.443 107.291C105.568 107.308 105.695 107.317 105.823 107.317C105.881 107.317 105.938 107.316 105.998 107.312L112.443 106.914C112.916 106.884 113.36 106.738 113.745 106.5C114.104 106.665 114.501 106.754 114.909 106.754C114.967 106.754 115.026 106.753 115.084 106.749L121.529 106.351C122.594 106.286 123.528 105.626 123.933 104.652C124.339 103.678 124.145 102.561 123.434 101.777C123.376 101.712 123.32 101.651 123.335 101.391L123.723 94.6928C124.241 92.9349 127.844 81.6183 134.465 81.6183C134.947 81.6183 135.449 81.6793 135.963 81.7946C135.391 81.9574 134.832 82.1676 134.307 82.4254C130.061 84.5061 127.423 89.217 127.068 95.3534C126.841 99.2802 128.089 103.618 130.405 106.954C132.597 110.113 136.827 113.969 144.52 114.4C144.957 114.425 145.403 114.438 145.841 114.438C153.687 114.438 160.571 110.587 162.973 104.856C163.153 104.428 163.304 103.997 163.435 103.565C163.66 103.623 163.894 103.657 164.133 103.657C164.195 103.657 164.257 103.656 164.321 103.651L170.489 103.244C170.972 103.211 171.429 103.058 171.821 102.807C172.185 102.976 172.591 103.071 173.011 103.071C173.072 103.071 173.136 103.07 173.199 103.065L178.466 102.717C178.636 102.707 178.803 102.674 178.965 102.633L184.82 102.247C185.332 102.213 185.815 102.042 186.223 101.762C186.611 101.958 187.044 102.065 187.493 102.065C187.555 102.065 187.616 102.064 187.68 102.058L193.85 101.651C194.545 101.605 195.18 101.305 195.649 100.835C196.627 101.257 197.725 101.476 198.916 101.476C199.144 101.476 199.378 101.468 199.614 101.453C201.343 101.339 202.916 100.775 204.313 99.7753C204.836 100.364 205.596 100.715 206.406 100.715C206.468 100.715 206.53 100.714 206.593 100.709L209.958 100.486C209.287 101.115 207.805 102.641 207.805 102.641C206.221 104.222 206.082 105.829 206.958 106.867C208.291 108.444 211.362 106.834 211.362 106.834C213.727 105.254 216.153 104.348 218.021 104.348C218.182 104.348 218.341 104.355 218.491 104.368C219.648 104.474 220.752 104.82 221.92 105.186C223.593 105.71 225.487 106.304 227.839 106.304C233.452 106.304 238.676 102.528 240.176 97.5481C240.764 97.7841 241.405 97.9157 242.079 97.9157C244.839 97.9157 247.085 95.7183 247.085 93.0176C247.078 90.3252 244.839 88.1332 242.072 88.1332Z" fill="white"/>
<path d="M242.575 93.0828V93.0571C242.825 92.9784 243.025 92.8102 243.025 92.5484C243.025 92.3395 242.933 92.1835 242.801 92.0926C242.655 91.9882 242.471 91.9231 242.061 91.9231C241.704 91.9231 241.427 91.9624 241.229 91.9882V94.1246H241.731V93.2782H241.969C242.246 93.2782 242.378 93.3826 242.418 93.6037C242.484 93.8641 242.524 94.0459 242.59 94.1246H243.118C243.078 94.0459 243.026 93.9292 242.96 93.6037C242.891 93.3175 242.786 93.1493 242.575 93.0828ZM241.98 92.9268H241.742V92.3151C241.794 92.3015 241.887 92.2893 242.019 92.2893C242.336 92.2893 242.482 92.4195 242.482 92.6149C242.482 92.836 242.257 92.9268 241.98 92.9268Z" fill="#FF0000"/>
<path d="M242.085 90.8813H242.072C240.83 90.8813 239.839 91.8186 239.839 93.0177C239.839 94.2168 240.83 95.1663 242.072 95.1663C243.314 95.1663 244.29 94.2154 244.29 93.0177C244.292 91.82 243.314 90.8813 242.085 90.8813ZM242.085 94.7254C241.121 94.7254 240.395 93.9699 240.395 93.0191C240.395 92.0818 241.121 91.3127 242.059 91.3127H242.073C243.025 91.3127 243.737 92.0818 243.737 93.0326C243.737 93.9699 243.024 94.7376 242.085 94.7254Z" fill="#FF0000"/>
<path d="M85.9779 73.4648L92.3971 73.0443C92.0051 72.4407 91.8841 71.6784 92.0354 70.7547L92.2101 70.0737L95.998 69.8255L96.0737 70.4902C96.0902 71.4017 95.855 72.1884 95.3708 72.849L101.79 72.4285C101.149 71.8222 100.757 71.0761 100.614 70.1931L98.8562 54.2416C98.8397 53.3301 99.0735 52.5434 99.5591 51.8828L91.2624 52.4267C91.6544 53.0303 91.774 53.7926 91.6241 54.7163L90.902 57.5716C87.0989 63.0638 77.7046 75.6066 68.4864 75.6066C63.8044 75.6066 61.0727 72.9995 59.839 69.2151C57.1885 61.078 65.034 44.3858 79.2314 44.3858C83.5764 44.3858 85.7248 47.8868 84.7455 50.1683C82.2573 55.9588 76.2219 56.2559 72.9992 53.7424C71.2029 55.3227 71.6513 61.7562 75.779 61.3275C79.1213 60.9803 84.7441 56.146 86.9792 50.8804C88.6133 47.0322 87.2365 40.2393 78.0265 40.2393C69.9114 40.2393 62.2295 43.846 57.0303 49.8264C50.8766 56.9043 49.398 66.7559 51.7018 73.26C53.4748 78.2665 58.3604 82.1079 67.8042 80.5819C76.7019 79.1441 86.3562 66.8156 89.8938 61.5513L87.4937 71.0504C87.2199 71.9646 86.7152 72.7676 85.9779 73.4648ZM94.9596 58.5143L95.551 65.7481L93.265 65.8973L94.9596 58.5143Z" fill="#FF0000"/>
<path d="M108.169 69.5869L108.46 64.5682C108.735 64.4691 109.131 64.2806 109.644 64.0025L110.647 69.8202C110.67 70.4889 110.475 71.1834 110.059 71.901L116.466 71.4791C115.891 71.0098 115.447 70.2651 115.132 69.2492L113.766 61.1079C115.441 59.4124 116.333 57.6368 116.44 55.7799C116.528 54.2499 116.11 53.0576 115.184 52.2044C114.257 51.3512 112.732 50.9931 110.607 51.1342L103.762 51.5845C104.347 52.2369 104.612 53.0331 104.559 53.9704L103.639 69.884C103.585 70.8226 103.225 71.6595 102.56 72.3933L108.967 71.9715C108.38 71.3218 108.114 70.5256 108.169 69.5869ZM108.992 55.3581L110.367 55.2672C111.472 55.1939 111.994 55.6687 111.935 56.6887C111.894 57.4035 111.585 58.094 111.006 58.7613C110.426 59.4287 109.658 59.9984 108.696 60.4677L108.992 55.3581Z" fill="#FF0000"/>
<path d="M123.949 71.2932C128.49 70.9948 130.967 67.2741 131.381 60.1339C131.794 52.9937 129.73 49.5728 125.188 49.8712C120.603 50.1724 118.106 53.8944 117.693 61.0346C117.279 68.1748 119.364 71.5943 123.949 71.2932ZM122.224 60.7362C122.36 58.3692 122.65 56.6683 123.094 55.6333C123.539 54.5984 124.156 54.0544 124.947 54.0029C125.717 53.9527 126.262 54.4193 126.578 55.4041C126.895 56.3888 126.986 58.0654 126.848 60.4323C126.712 62.7789 126.427 64.4745 125.994 65.5189C125.559 66.5647 124.957 67.1113 124.187 67.1615C123.394 67.2131 122.836 66.7424 122.51 65.7481C122.182 64.7539 122.088 63.0828 122.224 60.7362Z" fill="#FF0000"/>
<path d="M143.179 64.9981C142.675 65.4376 141.831 65.6966 140.644 65.7739L137.894 65.9544L138.717 51.7241C138.784 50.5617 139.04 49.7316 139.483 49.2351L133.702 49.6149C134.091 50.0571 134.252 50.8587 134.185 52.0226L133.264 67.9361C133.197 69.0985 132.941 69.9287 132.498 70.4251L142.905 69.7401L143.179 64.9981Z" fill="#FF0000"/>
<path d="M149.734 66.8524L150.654 50.9388C150.708 50.0002 151.068 49.1633 151.734 48.4294L145.327 48.8513C145.912 49.5037 146.177 50.3 146.124 51.2372L145.203 67.1508C145.15 68.0894 144.789 68.9263 144.125 69.6602L150.532 69.2383C149.944 68.5872 149.679 67.791 149.734 66.8524Z" fill="#FF0000"/>
<path d="M157.984 66.3099L158.436 58.4752L161.592 68.5113L167.06 68.1519C166.476 67.4994 166.21 66.7032 166.264 65.7659L167.184 49.8524C167.238 48.9138 167.598 48.0768 168.264 47.343L161.857 47.7649C162.442 48.4173 162.707 49.2135 162.653 50.1508L162.176 58.4141L159.046 47.9493L153.577 48.3088C154.161 48.9612 154.427 49.7575 154.373 50.6947L153.453 66.6083C153.399 67.5469 153.039 68.3838 152.375 69.1176L158.782 68.6958C158.196 68.0447 157.93 67.2485 157.984 66.3099Z" fill="#FF0000"/>
<path d="M169.166 65.6966C168.906 66.6081 168.414 67.4125 167.688 68.111L174.095 67.6892C173.693 67.0856 173.561 66.3219 173.697 65.3982L173.861 64.7173C174.813 64.6549 175.773 64.5463 176.726 64.5287C177.58 64.5124 177.448 64.6047 177.632 65.3751C177.836 66.2242 178.299 67.0761 178.756 67.8153C179.144 68.4433 179.595 69.0361 180.145 69.5325C181.578 70.8266 183.657 71.3651 185.564 71.0056C187.502 70.6394 189.882 69.2721 190.025 67.1168C189.744 67.2402 189.607 67.5033 189.352 67.662C189.079 67.8316 188.795 67.9849 188.5 68.1151C187.976 68.3457 187.41 68.5017 186.834 68.5098C185.563 68.5274 184.516 67.7773 183.761 66.8251C182.204 64.8637 181.782 61.0332 181.485 58.6663C181.111 55.6835 180.737 52.7007 180.362 49.7193C180.327 49.4372 180.291 49.1537 180.257 48.8715C180.226 47.9587 180.449 47.1719 180.922 46.51L172.641 47.0553C173.041 47.6589 173.173 48.4226 173.037 49.3463L169.166 65.6966ZM176.43 53.1456L177.132 60.3862L174.851 60.5368L176.43 53.1456Z" fill="#FF0000"/>
<path d="M48.7116 87.0983C44.0997 87.3832 41.5881 91.0727 41.1769 98.1681C41.1494 98.6483 41.1342 99.1095 41.1287 99.5544C37.2926 104.987 29.3618 114.936 20.6181 114.936C15.9361 114.936 13.2045 112.329 11.9707 108.545C9.32021 100.408 17.1657 83.7154 31.3631 83.7154C35.7081 83.7154 37.8579 87.2164 36.8772 89.4979C34.3891 95.2884 28.3536 95.5855 25.1309 93.072C23.3346 94.6523 23.783 101.086 27.9107 100.657C31.253 100.31 36.8759 95.4756 39.111 90.21C40.745 86.3618 39.3682 79.5688 30.1582 79.5688C22.0431 79.5688 14.3612 83.1756 9.16203 89.156C3.00967 96.2366 1.53107 106.088 3.83494 112.592C5.60788 117.599 10.4935 121.44 19.9373 119.914C28.2394 118.573 37.2018 107.747 41.2374 102.028C41.7215 106.492 43.7998 108.613 47.4764 108.386C52.0456 108.104 54.5366 104.416 54.9478 97.319C55.3605 90.2235 53.2808 86.8162 48.7116 87.0983ZM50.3896 97.6011C50.2548 99.9328 49.9687 101.617 49.5327 102.654C49.0967 103.691 48.4901 104.233 47.7157 104.281C46.9194 104.33 46.3568 103.861 46.0281 102.871C45.6993 101.882 45.6017 100.22 45.7379 97.8887C45.874 95.5366 46.1656 93.8479 46.6113 92.8197C47.0569 91.7929 47.6786 91.2544 48.475 91.2042C49.2507 91.1568 49.7982 91.622 50.1173 92.6027C50.4336 93.5834 50.5258 95.2491 50.3896 97.6011Z" fill="#FF0000"/>
<path d="M63.9407 86.622C64.5294 87.2731 64.7976 88.0639 64.7426 88.9971L64.0906 100.249C63.9668 102.377 63.3492 103.476 62.2392 103.545C61.0866 103.615 60.5722 102.587 60.6946 100.459L61.3466 89.2074C61.4002 88.2755 61.762 87.444 62.4304 86.7156L55.9851 87.1131C56.5738 87.7641 56.842 88.5549 56.787 89.4882L56.0814 101.653C55.9521 103.883 56.45 105.468 57.5751 106.408C58.7002 107.348 60.1747 107.763 61.9985 107.651C63.8224 107.538 65.345 106.939 66.5678 105.853C67.7905 104.768 68.4659 103.111 68.5952 100.879L69.3008 88.715C69.3544 87.7831 69.7162 86.9517 70.3846 86.2246L63.9407 86.622Z" fill="#FF0000"/>
<path d="M80.1722 88.0192L79.6963 96.2297L76.541 85.8191L71.0392 86.1582C71.6279 86.8093 71.8948 87.6001 71.8411 88.5333L70.9237 104.346C70.8701 105.28 70.5083 106.11 69.8398 106.838L76.2852 106.441C75.6965 105.791 75.4283 104.999 75.4833 104.066L75.9344 96.2799L79.1145 106.264L84.6162 105.925C84.0276 105.276 83.7593 104.483 83.8144 103.55L84.7318 87.7371C84.7854 86.8052 85.1472 85.9738 85.8156 85.2454L79.3703 85.6428C79.959 86.2952 80.2258 87.0874 80.1722 88.0192Z" fill="#FF0000"/>
<path d="M98.6224 84.4424L86.6739 85.1803L86.3823 90.199C87.1306 89.5466 87.9861 89.1912 88.9503 89.1315L90.1455 89.0583L89.1841 105.632L93.7437 105.352L94.7051 88.7775L95.8688 88.7056C96.8329 88.6459 97.6541 88.8982 98.3308 89.4625L98.6224 84.4424Z" fill="#FF0000"/>
<path d="M110.923 101.951L109.545 93.8547C111.23 92.1754 112.125 90.4135 112.233 88.5674C112.321 87.0468 111.898 85.8599 110.967 85.0095C110.035 84.1576 108.5 83.7982 106.361 83.9298L99.4753 84.3543C100.064 85.0054 100.331 85.7962 100.277 86.7294L99.3597 102.543C99.3061 103.476 98.9443 104.306 98.2759 105.034L104.721 104.637C104.133 103.987 103.864 103.195 103.919 102.262L104.208 97.2742C104.485 97.1766 104.882 96.9907 105.399 96.7154L106.41 102.502C106.434 103.167 106.237 103.856 105.82 104.569L112.266 104.172C111.688 103.702 111.239 102.962 110.923 101.951ZM106.767 91.5121C106.185 92.1741 105.41 92.737 104.445 93.2009L104.739 88.1225L106.123 88.037C107.234 87.9678 107.76 88.4412 107.702 89.4545C107.659 90.1639 107.347 90.8502 106.767 91.5121Z" fill="#FF0000"/>
<path d="M120.957 94.2385C120.957 94.2385 125.651 76.0217 137.136 79.2527C137.215 77.9072 127.78 71.5171 121.005 85.2969L118.995 89.6931L117.394 85.4285C117.154 84.5346 117.196 83.8049 117.521 83.2393L111.076 83.6367C111.875 84.2539 112.446 84.8656 112.787 85.4706L116.397 94.5206L115.992 101.514C115.938 102.448 115.576 103.278 114.908 104.006L121.353 103.609C120.764 102.959 120.496 102.167 120.551 101.234L120.957 94.2385Z" fill="#FF0000"/>
<path d="M177.569 97.6104L178.837 81.8542C178.911 80.9251 179.277 80.0976 179.935 79.3706L173.764 79.7775C174.31 80.4245 174.547 81.2126 174.473 82.1418L173.814 90.3237L171.056 79.9566L165.789 80.3038C166.336 80.9508 166.572 81.7389 166.498 82.6681L165.23 98.4243C165.155 99.3534 164.788 100.182 164.132 100.908L170.301 100.501C169.755 99.8539 169.518 99.0658 169.594 98.1367L170.218 90.3793L173.011 100.322L178.277 99.9746C177.73 99.329 177.493 98.5409 177.569 97.6104Z" fill="#FF0000"/>
<path d="M191.008 80.8803C191.002 79.9769 191.234 79.1984 191.706 78.5432L183.731 79.0695C184.102 79.6677 184.211 80.4246 184.057 81.3388L179.94 97.5236C179.668 98.4256 179.174 99.2219 178.46 99.9123L184.63 99.5053C184.259 98.9072 184.15 98.1503 184.303 97.2361L184.478 96.5619L188.119 96.3218L188.185 96.9797C188.191 97.8831 187.959 98.663 187.487 99.3168L193.657 98.9099C193.048 98.3076 192.677 97.5684 192.549 96.6921L191.008 80.8803ZM185.529 92.4235L187.225 85.1083L187.725 92.2783L185.529 92.4235Z" fill="#FF0000"/>
<path d="M201.363 92.4643C201.319 93.0096 201.145 93.4993 200.84 93.9306C200.536 94.3633 200.173 94.5925 199.752 94.6197C198.99 94.6698 198.463 94.2032 198.173 93.2171C197.883 92.2324 197.832 90.5775 198.019 88.254C198.208 85.9114 198.528 84.2268 198.979 83.2027C199.43 82.1786 200.038 81.6414 200.8 81.5912C201.221 81.5627 201.537 81.7282 201.748 82.0863C201.958 82.4444 202.042 82.8853 202.001 83.4116C201.95 84.0382 201.751 84.5333 201.403 84.8982L206.642 84.5225C206.687 81.9683 206.186 80.1331 205.14 79.0154C204.092 77.8991 202.756 77.3945 201.13 77.5016C196.717 77.7933 194.224 81.4732 193.656 88.5429C193.087 95.6139 195.01 99.0023 199.423 98.712C201.108 98.6008 202.579 97.871 203.836 96.5214C205.092 95.1731 205.876 93.1819 206.186 90.549L200.92 90.8963C201.269 91.2747 201.416 91.7983 201.363 92.4643Z" fill="#FF0000"/>
<path d="M211.863 95.1947L212.15 91.6192L212.82 90.3686C213.46 92.8874 214.07 95.1567 216.559 96.5009C217.07 96.7777 217.627 96.9893 218.209 97.0354C219.414 97.1303 220.58 96.4901 221.4 95.6138C222.388 94.5572 223.606 92.7138 223.278 91.2082C223.146 91.4849 222.825 91.6165 222.528 91.7019C221.384 92.0315 220.136 92.0912 219.045 91.6124C218.008 91.1553 217.106 90.416 216.502 89.4611C215.673 88.1495 215.458 86.3522 216.205 84.9592C217.303 82.9123 218.418 80.8763 219.525 78.8349C220.187 77.8068 220.909 77.016 221.693 76.4612L215.403 76.8762C215.549 77.53 215.505 78.2069 215.27 78.9054L212.778 83.832L213.131 79.4385C213.205 78.5094 213.571 77.682 214.229 76.9549L208.06 77.3618C208.606 78.0089 208.842 78.7969 208.768 79.7261L207.5 95.4823C207.426 96.4114 207.058 97.2402 206.402 97.9659L212.571 97.559C212.024 96.9119 211.789 96.1239 211.863 95.1947Z" fill="#FF0000"/>
<path d="M230.701 85.9249C227.733 84.3772 225.564 82.6057 226.65 79.3896C227.082 78.1132 228.167 76.8613 229.887 76.8613C232.45 76.8613 233.431 79.5199 232.177 81.4731L237.025 80.898C237.413 75.7205 234.141 73.519 229.749 73.7863C225.565 74.0413 222.857 77.001 222.191 79.2255C221.256 82.3548 221.54 86.7862 227.242 89.5519C229.408 90.6032 232.552 92.5578 232.133 94.9017C231.808 96.7138 230.38 98.1828 228.145 98.1828C225.225 98.1828 224.942 97.0801 221.655 97.0801C216.458 97.0801 209.881 104.502 209.793 104.561C212.428 102.799 215.803 101.364 218.743 101.632C221.99 101.929 224.353 103.556 227.833 103.556C232.295 103.556 236.822 100.314 237.673 96.0804C238.698 90.9803 236.15 88.7652 230.701 85.9249Z" fill="#FF0000"/>
<path d="M163.658 75.8114C162.528 74.1945 161.09 72.1992 156.957 72.0283C151.052 71.7842 142.133 76.8816 150.226 91.5472C151.759 94.3252 154.148 99.0794 152.889 103.077C151.127 108.676 144.86 110.461 140.579 106.305C138.051 103.851 136.487 100.455 136.277 96.9634C136.145 94.7647 136.566 92.471 137.852 90.671C139.138 88.871 141.388 87.6638 143.6 87.969C143.106 86.9978 142.596 86.0036 141.792 85.2602C140.14 83.7343 137.428 83.9635 135.546 84.8845C131.574 86.831 130.086 91.4279 129.849 95.508C129.53 101.02 132.835 110.99 144.677 111.656C151.632 112.047 158.262 108.895 160.395 103.805C162.828 97.9997 159.513 91.5486 157.721 88.2606C153.038 79.6664 152.847 73.3332 157.551 73.5285C160.783 73.6615 162.901 80.2279 160.384 82.0591C160.978 82.2368 161.427 82.7522 161.973 83.0655C162.72 83.4942 163.66 83.5037 164.355 83.0913C165.394 82.4741 166.05 79.2377 163.658 75.8114Z" fill="#FF0000"/>
</svg>
