<svg width="38" height="24" viewBox="0 0 38 24" fill="none" xmlns="http://www.w3.org/2000/svg">
<path d="M35 0H3C1.34315 0 0 1.34315 0 3V21C0 22.6569 1.34315 24 3 24H35C36.6569 24 38 22.6569 38 21V3C38 1.34315 36.6569 0 35 0Z" fill="black" fill-opacity="0.07"/>
<path fill-rule="evenodd" clip-rule="evenodd" d="M35 1C36.1 1 37 1.9 37 3V21C37 22.1 36.1 23 35 23H3C1.9 23 1 22.1 1 21V3C1 1.9 1.9 1 3 1H35Z" fill="#3D95CE"/>
<path d="M24.6749 8.36002C24.6749 11.424 22.1179 15.405 20.0419 18.2H15.3019L13.3999 6.57002L17.5509 6.16802L18.5559 14.443C19.4959 12.877 20.6549 10.418 20.6549 8.74102C20.6549 7.82302 20.5009 7.19802 20.2609 6.68302L24.0409 5.90002C24.4779 6.63802 24.6749 7.39902 24.6749 8.36002Z" fill="white"/>
</svg>
