<svg width="38" height="24" viewBox="0 0 38 24" fill="none" xmlns="http://www.w3.org/2000/svg">
<path opacity="0.07" d="M35 0H3C1.3 0 0 1.3 0 3V21C0 22.7 1.4 24 3 24H35C36.7 24 38 22.7 38 21V3C38 1.3 36.6 0 35 0Z" fill="black"/>
<path d="M35 1C36.1 1 37 1.9 37 3V21C37 22.1 36.1 23 35 23H3C1.9 23 1 22.1 1 21V3C1 1.9 1.9 1 3 1H35Z" fill="white"/>
<path fill-rule="evenodd" clip-rule="evenodd" d="M11.5 5H15V16.5C15 17.163 14.7366 17.7989 14.2678 18.2678C13.7989 18.7366 13.163 19 12.5 19H9V7.5C9 6.83696 9.26339 6.20107 9.73223 5.73223C10.2011 5.26339 10.837 5 11.5 5Z" fill="#006EBC"/>
<path fill-rule="evenodd" clip-rule="evenodd" d="M18.5 5H22V16.5C22 17.163 21.7366 17.7989 21.2678 18.2678C20.7989 18.7366 20.163 19 19.5 19H16V7.5C16 6.83696 16.2634 6.20107 16.7322 5.73223C17.2011 5.26339 17.837 5 18.5 5Z" fill="#F00036"/>
<path fill-rule="evenodd" clip-rule="evenodd" d="M25.5 5H29V16.5C29 17.163 28.7366 17.7989 28.2678 18.2678C27.7989 18.7366 27.163 19 26.5 19H23V7.5C23 6.83696 23.2634 6.20107 23.7322 5.73223C24.2011 5.26339 24.837 5 25.5 5Z" fill="#2AB419"/>
<path d="M10.7551 14.5C9.69512 14.5 8.63312 14.196 8.09912 13.513L8.87912 12.837C8.94712 13.97 12.4241 14.077 12.4241 12.647V9.50003H14.2261V12.647C14.2261 13.375 13.6521 13.969 12.6531 14.279C12.1871 14.423 11.2881 14.5 10.7551 14.5ZM18.8711 14.5C18.1971 14.5 17.4831 14.393 16.9061 14.134C15.9581 13.709 15.5941 12.928 15.6061 11.935C15.6181 10.921 16.0421 10.153 17.0741 9.77003C18.3931 9.28003 20.4171 9.50903 21.0001 10.04V11.012C20.4281 10.491 19.0421 10.114 18.0811 10.552C17.5871 10.778 17.3441 11.469 17.3371 12C17.3311 12.56 17.5821 13.252 18.0811 13.497C19.0341 13.964 20.4711 13.537 21.0001 13.056V14.066C20.6421 14.321 19.7471 14.5 18.8711 14.5ZM27.5501 11.913C27.9201 11.678 28.1321 11.346 28.1321 10.908C28.1321 10.47 28.0161 10.221 27.7841 9.96903C27.5781 9.76203 27.2041 9.50003 26.5461 9.50003H23.0001V14.5H26.5461C27.2421 14.5 27.6431 14.27 27.8611 14.085C28.1441 13.835 28.2871 13.555 28.2871 13.125C28.2871 12.694 28.1321 12.217 27.5501 11.913ZM25.6441 11.632H24.2161V10.188H25.7111C26.6671 10.188 26.6551 11.632 25.6441 11.632ZM25.9321 13.789H24.2161V12.276H25.9321C26.9181 12.276 27.0151 13.789 25.9321 13.789Z" fill="white"/>
</svg>
