<svg width="281" height="171" viewBox="0 0 281 171" fill="none" xmlns="http://www.w3.org/2000/svg">
<rect opacity="0.4" width="22.8943" height="212.93" transform="matrix(0.965605 0.260014 -0.257629 0.966244 177.646 -13.4771)" fill="url(#paint0_linear_2_3)"/>
<rect opacity="0.3" width="22.8943" height="212.93" transform="matrix(0.965605 0.260014 -0.257629 0.966244 218.015 -2.60669)" fill="url(#paint1_linear_2_3)"/>
<rect opacity="0.2" width="22.8943" height="212.93" transform="matrix(0.965605 0.260014 -0.257629 0.966244 258.384 8.26367)" fill="url(#paint2_linear_2_3)"/>
<rect opacity="0.4" width="22.8943" height="212.93" transform="matrix(0.965605 0.260014 -0.257629 0.966244 137.277 -24.3475)" fill="url(#paint3_linear_2_3)"/>
<rect opacity="0.4" width="22.8943" height="212.93" transform="matrix(0.965605 0.260014 -0.257629 0.966244 96.9075 -35.2179)" fill="url(#paint4_linear_2_3)"/>
<rect opacity="0.4" width="22.8943" height="212.93" transform="matrix(0.965605 0.260014 -0.257629 0.966244 56.5384 -46.0883)" fill="url(#paint5_linear_2_3)"/>
<rect opacity="0.4" width="22.8943" height="212.93" transform="matrix(0.965605 0.260014 -0.257629 0.966244 16.1694 -56.9587)" fill="url(#paint6_linear_2_3)"/>
<defs>
<linearGradient id="paint0_linear_2_3" x1="11.4472" y1="0" x2="11.4472" y2="212.93" gradientUnits="userSpaceOnUse">
<stop stop-color="#D9D9D9" stop-opacity="0.6"/>
<stop offset="0.53125" stop-color="white"/>
<stop offset="1" stop-color="white" stop-opacity="0.6"/>
</linearGradient>
<linearGradient id="paint1_linear_2_3" x1="11.4472" y1="0" x2="11.4472" y2="212.93" gradientUnits="userSpaceOnUse">
<stop stop-color="#D9D9D9" stop-opacity="0.6"/>
<stop offset="0.53125" stop-color="white"/>
<stop offset="1" stop-color="white" stop-opacity="0.6"/>
</linearGradient>
<linearGradient id="paint2_linear_2_3" x1="11.4472" y1="0" x2="11.4472" y2="212.93" gradientUnits="userSpaceOnUse">
<stop stop-color="#D9D9D9" stop-opacity="0.6"/>
<stop offset="0.53125" stop-color="white"/>
<stop offset="1" stop-color="white" stop-opacity="0.6"/>
</linearGradient>
<linearGradient id="paint3_linear_2_3" x1="11.4472" y1="0" x2="11.4472" y2="212.93" gradientUnits="userSpaceOnUse">
<stop stop-color="#D9D9D9" stop-opacity="0.6"/>
<stop offset="0.53125" stop-color="white"/>
<stop offset="1" stop-color="white" stop-opacity="0.6"/>
</linearGradient>
<linearGradient id="paint4_linear_2_3" x1="11.4472" y1="0" x2="11.4472" y2="212.93" gradientUnits="userSpaceOnUse">
<stop stop-color="#D9D9D9" stop-opacity="0.6"/>
<stop offset="0.53125" stop-color="white"/>
<stop offset="1" stop-color="white" stop-opacity="0.6"/>
</linearGradient>
<linearGradient id="paint5_linear_2_3" x1="11.4472" y1="0" x2="11.4472" y2="212.93" gradientUnits="userSpaceOnUse">
<stop stop-color="#D9D9D9" stop-opacity="0.6"/>
<stop offset="0.53125" stop-color="white"/>
<stop offset="1" stop-color="white" stop-opacity="0.6"/>
</linearGradient>
<linearGradient id="paint6_linear_2_3" x1="11.4472" y1="0" x2="11.4472" y2="212.93" gradientUnits="userSpaceOnUse">
<stop stop-color="#D9D9D9" stop-opacity="0.6"/>
<stop offset="0.53125" stop-color="white"/>
<stop offset="1" stop-color="white" stop-opacity="0.6"/>
</linearGradient>
</defs>
</svg>
