<svg width="41" height="78" viewBox="0 0 41 78" fill="none" xmlns="http://www.w3.org/2000/svg">
<path d="M26.1998 64.67C26.1998 64.67 29.1998 59.91 32.8598 59.22C34.5498 58.86 36.2598 58.61 37.9798 58.48C35.9898 59.17 34.1898 60.32 32.7198 61.83C30.6498 64.14 29.7798 64.98 30.4998 65.42C31.6398 66.2 32.9098 66.76 34.2498 67.08C35.4998 67.28 36.7398 67.56 37.9498 67.92C37.9498 67.92 34.6198 67.51 34.7598 68.03C34.8998 68.55 36.6698 68.98 36.6698 68.98C35.5798 68.98 34.4998 68.83 33.4498 68.54C32.3398 68.18 31.1698 68.07 30.0198 68.23C29.2698 68.27 28.5198 68.2 27.7998 68.01C26.7498 68.99 25.9098 70.18 25.3498 71.51C24.8898 73.14 24.1198 77.73 24.1198 77.73C24.1198 77.73 22.5998 72.9 23.0098 70.31C23.1998 68.91 23.8098 67.61 24.7598 66.58C24.2398 66.33 23.7398 66.01 23.2898 65.64C22.7098 65.15 22.5098 65.45 22.5098 65.45C22.5098 65.45 24.2498 63.41 26.1998 64.67V64.67Z" fill="#254D32"/>
<path d="M26.78 26.67C26.78 26.67 23.78 21.91 20.12 21.22C18.43 20.86 16.72 20.61 15 20.48C16.99 21.17 18.79 22.32 20.26 23.83C22.33 26.14 23.2 26.98 22.48 27.42C21.34 28.2 20.07 28.76 18.73 29.08C17.48 29.28 16.24 29.56 15.03 29.92C15.03 29.92 18.36 29.51 18.22 30.03C18.08 30.55 16.31 30.98 16.31 30.98C17.4 30.98 18.48 30.83 19.53 30.54C20.64 30.18 21.81 30.07 22.96 30.23C23.71 30.27 24.46 30.2 25.18 30.01C26.23 30.99 27.07 32.18 27.63 33.51C28.09 35.14 28.86 39.73 28.86 39.73C28.86 39.73 30.38 34.9 29.97 32.31C29.78 30.91 29.17 29.61 28.22 28.58C28.74 28.33 29.24 28.01 29.69 27.64C30.27 27.15 30.47 27.45 30.47 27.45C30.47 27.45 28.73 25.41 26.78 26.67V26.67Z" fill="#254D32"/>
<path d="M8.28 52.19C8.28 52.19 11.54 53.54 12.36 55.73C12.76 56.74 13.1 57.77 13.36 58.82C12.72 57.66 11.82 56.67 10.73 55.92C9.08 54.89 8.47 54.44 8.28 54.93C7.92 55.72 7.70999 56.56 7.64999 57.43C7.65999 58.22 7.62 59.02 7.53 59.81C7.53 59.81 7.43 57.71 7.12 57.85C6.81 58 6.73999 59.13 6.73999 59.13C6.62999 58.46 6.6 57.77 6.67 57.09C6.77 56.37 6.71 55.63 6.5 54.94C6.39 54.48 6.35999 54.01 6.39999 53.54C5.67999 52.99 4.86 52.6 3.98 52.4C2.92 52.29 0 52.3 0 52.3C0 52.3 2.82 50.84 4.47 50.82C5.35 50.79 6.21999 51.03 6.95999 51.51C7.05999 51.16 7.2 50.82 7.38 50.5C7.62 50.09 7.41 50 7.41 50C7.41 50 8.85999 50.86 8.28999 52.2L8.28 52.19Z" fill="#254D32"/>
<path d="M32.0799 2.19C32.0799 2.19 28.8199 3.54 27.9999 5.73C27.5999 6.74 27.2599 7.77 26.9999 8.82C27.6399 7.66 28.5399 6.67 29.6299 5.92C31.2799 4.89 31.8899 4.44 32.0799 4.93C32.4399 5.72 32.6499 6.56 32.7099 7.43C32.6999 8.22 32.7399 9.02 32.8299 9.81C32.8299 9.81 32.9299 7.71 33.2399 7.85C33.5499 8 33.6199 9.13 33.6199 9.13C33.7299 8.46 33.7599 7.77 33.6899 7.09C33.5899 6.37 33.6499 5.63 33.8599 4.94C33.9699 4.48 33.9999 4.01 33.9599 3.54C34.6799 2.99 35.4999 2.6 36.3799 2.4C37.4399 2.29 40.3599 2.3 40.3599 2.3C40.3599 2.3 37.5399 0.84 35.8899 0.82C35.0099 0.79 34.1399 1.03 33.3999 1.51C33.2999 1.16 33.1599 0.82 32.9799 0.5C32.7399 0.09 32.9499 0 32.9499 0C32.9499 0 31.4999 0.860001 32.0699 2.2L32.0799 2.19Z" fill="#254D32"/>
</svg>
