<svg width="94" height="78" viewBox="0 0 94 78" fill="none" xmlns="http://www.w3.org/2000/svg">
<path d="M76.0276 0.877779L74.3956 0C74.3956 0 79.5398 0.37512 81.6758 1.50048V0.585186C81.6758 0.585186 87.7 2.5058 89.8359 8.1401L90.3774 7.1798C90.3774 7.1798 93.2202 12.439 91.9643 17.113L93.1375 16.2802C93.1375 16.2802 93.9723 24.0452 89.4523 27.1737L90.5428 27.2187C90.5428 27.2187 87.7376 31.4875 80.0814 33.1531C80.0814 33.1531 88.3242 21.5394 84.4359 11.7638C80.5477 1.98814 76.0201 0.87028 76.0201 0.87028L76.0276 0.877779Z" fill="#E9E6E2"/>
<path d="M71.1919 33.3255C85.2784 34.9385 91.8215 28.6665 91.9719 17.1128C92.1224 5.56662 82.255 -1.28306 72.132 1.32777C67.2735 2.58067 64.0997 10.0981 64.0997 10.0981C71.9665 3.586 80.9314 11.1934 81.1795 17.3604C81.3826 22.4395 77.6147 30.107 70.1314 30.6396L71.1994 33.3255H71.1919Z" fill="#E9E6E2"/>
<path d="M70.7553 31.9374C70.7553 31.9374 90.1365 31.5323 88.8805 16.6176C87.5418 0.749992 68.8751 1.4177 64.1069 10.1055C71.9737 3.59339 80.9385 11.2008 81.1867 17.3678C81.3898 22.4469 76.6742 30.0994 69.191 30.632L70.7703 31.9374H70.7553Z" fill="#EEB962"/>
<path d="M14.3866 18.9734C16.8233 14.4644 25.2617 12.1537 26.5402 13.009C27.6533 13.7592 19.9896 16.9477 17.7559 20.5489C17.1392 21.5467 13.8 20.0537 14.3866 18.9734V18.9734Z" fill="#EEB962"/>
<path d="M22.1634 42.5607C18.5835 38.1118 12.8752 33.6403 9.51335 33.1977C6.12146 32.7551 3.963 32.575 2.08279 30.3843C1.04492 29.1689 0.164967 27.1133 0.871925 25.6128C1.66913 23.9247 4.14348 24.75 7.52033 22.7244C10.4685 20.9538 11.2958 17.8328 17.7487 18.8306C25.3898 20.016 28.3455 27.8635 33.8131 29.5816L22.1559 42.5607H22.1634Z" fill="#EEB962"/>
<path d="M17.1845 20.2636C18.9595 16.4899 29.263 15.3496 30.4588 16.1073C31.8802 17.0001 24.9987 18.6281 21.1555 22.7919C20.1853 23.8423 16.5528 21.6066 17.1845 20.2636Z" fill="#EEB962"/>
<path d="M18.9744 19.281C23.0958 16.9928 26.8938 16.9027 27.2774 17.0678C27.8414 17.3004 22.2384 19.8212 21.3209 20.7065L18.9744 19.281Z" fill="white"/>
<path d="M68.3412 29.8518C72.1016 31.975 73.5457 36.2289 74.23 38.6897C74.9069 41.1279 74.8994 43.2961 74.8994 43.2961C76.1027 45.3293 78.6824 46.0795 78.7952 46.087C80.352 46.2296 81.3673 45.6519 82.3902 45.7344C87.7826 46.162 90.2795 59.8239 90.3547 61.0468C90.3773 61.3994 87.9029 61.9771 87.7901 61.857C86.85 60.8817 88.0684 60.0715 88.0684 60.0715C87.6923 58.7736 85.6692 56.0202 84.6389 54.4747C84.6389 54.4747 83.413 54.9248 82.2021 55.0674C75.1702 55.9077 74.0044 51.0086 74.0044 51.0086C74.0044 51.0086 78.3966 54.1071 80.5851 56.7404C81.1417 57.4081 86.3235 64.3854 86.143 71.7602C86.1205 72.6305 83.1046 72.6155 82.2247 72.4429C81.0966 72.2179 81.4726 70.6499 82.0066 69.9821C82.4202 69.4645 82.9016 69.4195 83.3528 69.4195C83.3528 69.4195 80.5776 63.9802 75.2454 59.9814C69.5371 55.6976 66.5663 57.6482 61.941 53.3718C58.9026 50.5659 58.1656 49.5156 58.1656 49.5156C55.5859 52.179 46.5233 56.9805 38.3557 57.3781C38.3557 57.3781 37.8292 59.6889 37.5886 61.3169C36.7989 66.7186 24.4647 75.909 21.2609 77.2069C20.238 77.6196 16.8461 77.552 16.7634 77.1844C15.906 73.4632 19.0121 74.7762 20.3057 73.8609C24.916 70.5973 28.3003 65.0606 28.1499 59.8464C28.0672 56.883 27.1196 55.1874 27.1196 55.1874C24.3519 57.3631 19.7717 57.5882 9.95706 62.2172C7.84371 63.215 7.02392 63.0049 5.56488 62.9374C4.25625 62.8774 3.97799 60.7917 4.54206 60.109C5.73035 58.676 7.49023 59.8014 7.93396 59.7789C10.3481 59.6288 21.7572 49.4256 22.0731 47.9776C22.5319 45.8544 21.8249 43.3637 20.7118 41.293L32.3165 28.4414C34.2418 29.7168 36.3326 30.3395 39.0025 30.5345C42.6727 30.8046 45.5005 30.6621 49.5918 29.7543C51.9759 29.2216 54.7962 28.7415 58.4138 28.674C64.1296 28.5614 65.8067 28.4264 68.3262 29.8518H68.3412Z" fill="#EEB962"/>
<path d="M33.7531 29.2291C33.174 28.4414 31.9782 27.9762 31.023 28.0888C31.023 28.0888 26.6083 37.5193 18.9897 39.1848C18.8769 40.5953 19.8772 41.7131 21.1332 42.1558C21.1332 42.1558 28.9623 38.7872 33.7531 29.2366V29.2291Z" fill="#E77B5E"/>
<path d="M0.713855 27.0835C0.533356 27.1436 -0.241294 25.478 0.0745804 25.1854C0.397976 24.8928 1.90966 24.5477 1.99991 24.6903C2.09016 24.8328 1.07486 26.956 0.713855 27.076V27.0835Z" fill="#4A4A4A"/>
<path d="M9.73887 24.1801C9.43981 24.1801 9.19737 23.7434 9.19737 23.2048C9.19737 22.6661 9.43981 22.2295 9.73887 22.2295C10.0379 22.2295 10.2804 22.6661 10.2804 23.2048C10.2804 23.7434 10.0379 24.1801 9.73887 24.1801Z" fill="#4A4A4A"/>
<path d="M3.44419 29.8818C5.31688 29.8818 6.36226 28.944 6.4149 28.8915C6.56532 28.749 6.57284 28.5164 6.43747 28.3589C6.30209 28.2013 6.06143 28.2013 5.90349 28.3364C5.84333 28.3964 4.36172 29.6943 1.69183 28.839C1.49628 28.779 1.2857 28.884 1.21801 29.0791C1.15784 29.2741 1.26314 29.4842 1.45868 29.5517C2.19572 29.7843 2.85756 29.8818 3.43666 29.8818H3.44419Z" fill="#4A4A4A"/>
<path d="M24.1491 46.0721L23.1714 45.4869L21.8929 47.5876L19.9074 46.3872L21.1859 44.2865L20.2157 43.7013L17.2675 48.5554L18.2377 49.1406L19.3959 47.2349L21.3814 48.4353L20.2232 50.3409L21.2009 50.9261L24.1491 46.0721V46.0721Z" fill="#6097A7"/>
<path d="M20.2756 44.0237C20.4335 44.0237 20.599 44.0012 20.7569 43.9637C21.2533 43.8362 21.6669 43.521 21.9302 43.0784C22.1934 42.6358 22.2611 42.1256 22.1332 41.6305C21.9527 40.9327 21.4037 40.4001 20.6968 40.2425L20.5313 40.9777C20.96 41.0753 21.2909 41.3979 21.4037 41.818C21.4789 42.1181 21.4413 42.4332 21.2759 42.7033C21.1179 42.9734 20.8622 43.1609 20.5614 43.2435C20.2605 43.3185 19.9447 43.2735 19.6739 43.1159C19.4032 42.9584 19.2151 42.7033 19.1324 42.4032C19.0121 41.923 19.2001 41.4204 19.6138 41.1428L19.1926 40.5201C18.5157 40.9702 18.1998 41.803 18.4029 42.5908C18.6285 43.4535 19.4107 44.0237 20.2605 44.0237H20.2756Z" fill="#4A4A4A"/>
</svg>
