<svg width="219" height="217" viewBox="0 0 219 217" fill="none" xmlns="http://www.w3.org/2000/svg">
<g opacity="0.5">
<path opacity="0.5" d="M86.2264 189.638C77.3217 189.638 69.1758 190.209 62.8719 191.149C56.2696 189.891 46.8201 189.1 36.3265 189.1C16.3575 189.1 0.175995 191.954 0.175995 195.469C0.175995 198.984 16.3639 201.838 36.3265 201.838C45.2312 201.838 53.377 201.267 59.681 200.326C66.2833 201.585 75.7327 202.376 86.2264 202.376C106.195 202.376 122.377 199.522 122.377 196.007C122.377 192.492 106.189 189.638 86.2264 189.638Z" fill="#E9E6E2"/>
</g>
<g opacity="0.5">
<path opacity="0.5" d="M190.365 200.573C190.365 196.935 175.176 193.99 156.445 193.99C137.715 193.99 122.526 196.941 122.526 200.573C122.526 200.878 122.643 201.176 122.85 201.468C122.267 201.468 121.676 201.462 121.08 201.462C99.5672 201.462 82.134 204.847 82.134 209.024C82.134 213.201 99.5736 216.586 121.08 216.586C130.477 216.586 139.097 215.937 145.829 214.861C146.782 214.874 147.742 214.887 148.721 214.887C167.451 214.887 182.641 211.936 182.641 208.304C182.641 207.279 181.434 206.306 179.281 205.444C186.091 204.238 190.371 202.506 190.371 200.573H190.365Z" fill="#E9E6E2"/>
</g>
<g opacity="0.5">
<path opacity="0.5" d="M195.067 191.986C208.238 191.986 218.914 190.13 218.914 187.842C218.914 185.553 208.238 183.697 195.067 183.697C181.896 183.697 171.22 185.553 171.22 187.842C171.22 190.13 181.896 191.986 195.067 191.986Z" fill="#E9E6E2"/>
</g>
<path d="M89.1643 65.6468L88.5417 65.4717C89.0411 63.6622 88.6454 61.7166 88.2628 59.8357C88.1396 59.2261 88.0163 58.6165 87.9191 58.0133C87.5624 55.7823 87.5948 53.4993 87.6207 51.4888C87.6532 48.9595 87.705 46.3912 87.7699 43.8618L88.4184 43.8813C88.3536 46.4106 88.3017 48.9724 88.2693 51.5018C88.2433 53.4864 88.2109 55.7434 88.5611 57.916C88.6584 58.5127 88.7816 59.1094 88.8984 59.7125C89.3005 61.6647 89.7091 63.6882 89.1708 65.6468H89.1643Z" fill="#4A4A4A"/>
<path d="M102.868 186.343L102.745 162.042L95.4684 162.891L95.8316 186.719L102.868 186.343Z" fill="white"/>
<path d="M95.5137 187.057L95.1375 162.6L103.069 161.679L103.193 186.654L95.5137 187.063V187.057ZM95.799 163.177L96.1557 186.376L102.544 186.038L102.427 162.405L95.799 163.177Z" fill="#4A4A4A"/>
<path d="M103.121 183.924C103.121 183.924 105.281 190.034 104.081 194.658L76.524 194.256C76.524 194.256 74.8961 189.229 81.1482 188.069C87.3938 186.908 95.4748 182.536 95.4748 182.536C95.4748 182.536 99.3013 186.901 103.121 183.924V183.924Z" fill="#4A4A4A"/>
<path d="M104.081 195.125L76.5241 194.723C76.5241 194.723 76.1285 193.27 76.4916 191.636L104.438 192.044C104.405 193.095 104.302 194.139 104.081 195.125V195.125Z" fill="white"/>
<path d="M127.475 186.194L122.552 162.392L129.848 161.711L134.434 185.098L127.475 186.194Z" fill="white"/>
<path d="M127.222 186.557L122.163 162.1L130.114 161.354L134.823 185.357L127.228 186.55L127.222 186.557ZM122.941 162.677L127.728 185.818L134.051 184.825L129.582 162.054L122.941 162.677Z" fill="#4A4A4A"/>
<path d="M126.573 183.515C126.573 183.515 124.426 189.624 125.633 194.248L153.19 193.801C153.19 193.801 154.805 188.768 148.559 187.62C142.307 186.472 134.226 182.114 134.226 182.114C134.226 182.114 130.406 186.485 126.58 183.515H126.573Z" fill="#4A4A4A"/>
<path d="M125.626 194.424L153.183 193.977C153.183 193.977 153.579 192.66 153.216 191.181L125.269 191.635C125.302 192.582 125.406 193.529 125.626 194.424Z" fill="white"/>
<path d="M113.9 22.5243L114.581 33.1152C114.581 33.1152 112.467 39.7434 106.721 38.148C100.975 36.546 103.147 32.7325 103.147 32.7325L103.926 31.0333L104.71 24.9693L113.9 22.5307V22.5243Z" fill="white"/>
<path d="M108.446 38.7188C107.882 38.7188 107.279 38.6409 106.63 38.4594C104.529 37.8757 103.193 36.9288 102.667 35.6446C102.025 34.0816 102.829 32.6353 102.862 32.577L103.608 30.9426L104.418 24.71L114.199 22.1158L114.906 33.1607L114.886 33.219C114.867 33.2774 113.07 38.7253 108.446 38.7253V38.7188ZM105.002 25.2223L104.217 31.1631L103.439 32.8623C103.42 32.9012 102.739 34.1335 103.27 35.3982C103.724 36.4877 104.911 37.3049 106.805 37.8303C111.974 39.27 114.024 33.7379 114.251 33.0699L113.602 22.9394L105.002 25.2158V25.2223Z" fill="#4A4A4A"/>
<path d="M117.292 12.6265C118.343 17.8993 119.141 28.6848 113.946 30.0662C108.478 31.519 104.931 29.3074 102.687 24.4627C102.687 24.4627 100.255 26.2462 99.3597 22.504C98.9641 20.8502 101.033 21.1875 101.033 21.1875C101.033 21.1875 94.6836 9.88314 102.726 6.14098C108.893 3.26788 115.846 5.4146 117.292 12.633V12.6265Z" fill="white"/>
<path d="M110.794 30.8449C107.194 30.8449 104.477 28.8862 102.551 24.9235C102.155 25.1181 101.467 25.3581 100.761 25.0987C99.9498 24.8003 99.3791 23.9507 99.0483 22.5823C98.9186 22.044 99.0029 21.6094 99.2883 21.2981C99.6061 20.9544 100.093 20.8571 100.482 20.8376C99.671 19.2227 97.4075 14.151 98.7306 10.0586C99.3402 8.17135 100.637 6.75101 102.589 5.84303C106.059 4.22813 109.717 4.1503 112.636 5.62901C115.243 6.95206 116.968 9.35172 117.61 12.5621C117.869 13.8592 118.687 18.4315 118.285 22.8352C117.889 27.1935 116.462 29.7358 114.03 30.3844C112.882 30.6892 111.799 30.8449 110.794 30.8449ZM102.816 23.9766L102.985 24.3334C105.294 29.3207 108.855 31.0978 113.861 29.7618C118.758 28.4582 118.038 18.0294 116.974 12.6983C116.371 9.68896 114.769 7.44497 112.344 6.21919C109.607 4.83129 106.15 4.90911 102.862 6.4397C101.078 7.26985 99.898 8.55399 99.3467 10.2662C97.8745 14.8255 101.279 20.9738 101.318 21.0322L101.643 21.6159L100.981 21.5121C100.754 21.4732 100.041 21.4408 99.7618 21.7456C99.6256 21.8883 99.5996 22.1218 99.6774 22.4396C99.9498 23.5875 100.391 24.2815 100.981 24.502C101.714 24.7679 102.492 24.2231 102.499 24.2166L102.816 23.9831V23.9766Z" fill="#4A4A4A"/>
<path d="M100.41 20.4748C99.2169 18.7691 98.2895 16.8818 97.6539 14.9037C97.0508 13.0099 96.7719 10.7724 97.9652 9.18341C98.2247 8.83967 98.8797 8.46351 98.6462 8.10032C97.8485 6.84861 99.3077 5.40233 99.5866 5.11696C101.156 3.53449 102.966 3.76797 105.151 3.31398C107.48 2.82756 110.106 3.00267 111.968 1.52397C112.292 1.26454 112.603 0.953238 113.005 0.875411C113.407 0.791099 113.92 1.10241 113.848 1.50451C113.771 1.91959 113.161 2.21143 113.342 2.59408C114.069 2.32817 114.802 2.06227 115.528 1.79636C115.671 1.74447 115.833 1.69259 115.976 1.74447C116.105 1.78987 116.19 1.9131 116.261 2.02984C116.637 2.70434 116.566 3.59935 116.099 4.20899C116.864 3.79391 117.856 3.38532 118.544 3.92362C118.79 4.1117 118.94 4.39707 119.063 4.68243C119.685 6.18059 119.387 8.08735 118.155 9.13801C117.714 9.51418 117.182 9.7736 116.637 9.96816C111.968 11.6674 106.396 9.28718 101.941 11.4858C102.836 14.735 102.739 18.2502 101.662 21.4411C101.124 21.3892 100.728 20.9223 100.423 20.4748H100.41Z" fill="#4A4A4A"/>
<path d="M135.491 87.8727C135.491 87.8727 135.121 82.5805 136.859 88.9039C137.073 89.6692 138.195 92.5618 138.889 94.3064C139.246 95.2144 140.128 95.8046 141.107 95.7786C142.592 95.7332 144.142 95.2079 141.464 92.672C141.042 92.2699 144.013 92.1921 144.013 92.1921L145.011 93.126L145.53 95.6684C145.53 95.6684 148.364 95.2144 146.386 91.1869C146.146 90.7005 142.56 88.6251 142.56 88.6251L141.146 85.739L135.497 87.8727H135.491Z" fill="white"/>
<path d="M141.036 96.1031C139.966 96.1031 138.986 95.4351 138.584 94.4234C137.767 92.3545 136.749 89.7343 136.548 88.982C136.437 88.5799 136.334 88.2296 136.243 87.9313L135.192 88.3269L135.16 87.8924C134.998 85.5771 135.367 85.5122 135.594 85.4798C135.886 85.4279 136.146 85.5381 136.658 87.0817L141.302 85.3241L142.8 88.3853C143.948 89.0468 146.419 90.5255 146.672 91.0314C147.456 92.6269 147.619 93.9045 147.145 94.8255C146.646 95.7983 145.628 95.9734 145.582 95.9799L145.277 96.0318L144.72 93.2884L143.889 92.5166C143.176 92.5425 142.378 92.6074 141.95 92.6917C143.027 93.7683 143.416 94.5725 143.176 95.2016C142.962 95.7659 142.268 96.0642 141.114 96.1031C141.088 96.1031 141.062 96.1031 141.036 96.1031V96.1031ZM136.853 87.7043C136.95 88.0286 137.054 88.3983 137.17 88.8134C137.378 89.5722 138.526 92.5036 139.187 94.1834C139.499 94.9682 140.27 95.474 141.094 95.4481C141.924 95.4221 142.463 95.247 142.573 94.9681C142.638 94.793 142.644 94.2353 141.243 92.8993C141.114 92.776 141.068 92.6009 141.127 92.4453C141.198 92.2637 141.328 91.9264 144.006 91.8551H144.142L145.316 92.9447L145.783 95.2405C146.03 95.1368 146.373 94.9227 146.581 94.5141C146.944 93.8007 146.782 92.6917 146.101 91.3103C145.919 91.0314 144.039 89.8316 142.404 88.8912L142.32 88.8393L140.997 86.1283L136.872 87.6849L136.853 87.7043ZM135.789 86.5758C135.782 86.8223 135.782 87.1141 135.789 87.4125L136.048 87.3152C135.945 86.9909 135.854 86.7574 135.782 86.5758H135.789Z" fill="#4A4A4A"/>
<path d="M142.3 82.5678C142.3 82.5678 143.397 80.9723 142.3 78.631C141.204 76.2898 133.869 48.9402 132.449 45.8984C131.029 42.8567 128.149 38.8227 125.665 37.0457C125.561 36.9743 125.451 36.9289 125.341 36.9159C123.629 36.235 115.775 33.0376 115.775 33.0376C115.775 33.0376 115.71 32.6874 115.502 32.4863C115.295 32.2853 114.666 32.3242 114.666 32.3242L114.854 33.083C109.341 36.5138 102.395 33.4332 102.395 33.4332L102.602 32.4798C101.863 32.5901 101.675 33.2775 101.675 33.2775C101.675 33.2775 89.2616 36.7538 89.1254 37.7007C86.2717 39.6399 83.3857 43.7323 81.9653 49.2774C80.545 54.8161 77.3022 68.8054 76.8936 70.4333C76.485 72.0547 78.7161 76.199 80.7461 76.9643C82.2312 77.522 86.0188 75.9395 88.5352 74.4089C88.5093 78.5856 88.386 83.1644 88.4509 83.4304C88.7233 84.4875 89.9361 85.0777 91.1554 85.0777L123.252 84.961C123.252 84.961 124.472 84.2865 125.146 83.3136C125.399 82.9504 125.697 74.9213 125.775 67.1257C127.254 73.9355 128.72 80.1292 129.336 81.6274C130.685 84.9155 134.116 85.6549 134.116 85.6549L135.186 88.5086C137.975 88.2037 142.787 85.7392 142.787 85.7392L142.3 82.5678Z" fill="#7FB0A1"/>
<path d="M91.1685 85.0775L92.3943 178.132H103.523L106.974 104.612L124.971 178.132H135.004C135.004 178.132 125.081 112.103 123.272 84.9608L91.175 85.0775H91.1685Z" fill="white"/>
<path d="M135.367 178.457H124.705L107.181 106.869L103.822 178.457H92.0634L90.8312 84.7535L123.557 84.6302L123.577 84.9351C125.367 111.759 135.205 177.426 135.303 178.081L135.361 178.45L135.367 178.457ZM125.211 177.808H134.615C133.817 172.445 124.725 111.253 122.961 85.2853L91.4927 85.402L92.712 177.808H103.212L106.753 102.355L125.224 177.808H125.211Z" fill="#4A4A4A"/>
<path d="M112.454 104.943H102.194C102.012 104.943 101.87 104.8 101.87 104.619C101.87 104.437 102.012 104.294 102.194 104.294H112.454C112.636 104.294 112.778 104.437 112.778 104.619C112.778 104.8 112.636 104.943 112.454 104.943Z" fill="#4A4A4A"/>
<path d="M111.125 108.724C111.047 108.724 110.969 108.698 110.904 108.64L106.974 105.066L103.926 108.069C103.796 108.192 103.595 108.192 103.465 108.069C103.342 107.939 103.342 107.738 103.465 107.608L106.734 104.385C106.857 104.262 107.052 104.262 107.181 104.379L111.339 108.16C111.468 108.283 111.481 108.484 111.358 108.62C111.293 108.692 111.209 108.724 111.118 108.724H111.125Z" fill="#4A4A4A"/>
<path d="M123.687 90.1233H91.2268V90.7719H123.687V90.1233Z" fill="#4A4A4A"/>
<path d="M106.967 104.943C106.967 104.943 106.941 104.943 106.922 104.943C103.601 104.502 102.81 93.3727 102.732 92.1015C102.719 91.9199 102.855 91.7707 103.037 91.7577C103.212 91.7318 103.368 91.881 103.381 92.0626C103.575 95.1821 104.535 103.069 106.636 104.178L106.539 95.6556C106.539 95.474 106.682 95.3313 106.857 95.3248C107.032 95.3248 107.181 95.4675 107.181 95.6426L107.285 104.612C107.285 104.709 107.246 104.794 107.175 104.859C107.116 104.91 107.039 104.943 106.961 104.943H106.967Z" fill="#4A4A4A"/>
<path d="M115.941 62.4427L107.635 74.7706L108.173 75.133L116.479 62.8051L115.941 62.4427Z" fill="#4A4A4A"/>
<path d="M125.451 67.1188L124.692 54.4784C124.582 52.6625 124.472 50.7882 124.472 48.9268C124.472 48.6025 124.472 48.2783 124.472 47.9475C124.491 46.0991 124.511 44.1924 123.914 42.4607L124.53 42.2532C125.159 44.0886 125.14 46.0602 125.12 47.9605C125.12 48.2847 125.12 48.609 125.12 48.9333C125.12 50.7752 125.231 52.643 125.341 54.446L126.1 67.0864L125.451 67.1253V67.1188Z" fill="#4A4A4A"/>
<path d="M103.004 36.3517C101.052 35.1778 101.344 33.3035 101.364 33.2256L102.006 33.3359L101.688 33.284L102.006 33.3359C101.993 33.3943 101.779 34.86 103.342 35.8004L103.011 36.3582L103.004 36.3517Z" fill="#4A4A4A"/>
<path d="M106.779 37.7656L106.714 37.1235C106.76 37.1235 110.969 36.689 112.752 35.9561C115.989 34.6266 115.489 33.1738 115.483 33.1609L116.086 32.9144C116.112 32.9663 116.3 33.4722 116.014 34.1726C115.632 35.0935 114.62 35.8978 113.005 36.5593C111.131 37.3246 106.961 37.7526 106.786 37.7721L106.779 37.7656Z" fill="#4A4A4A"/>
<path d="M135.445 85.6028C135.4 85.6028 135.367 85.6028 135.341 85.5834L135.166 85.3175L135.491 85.2915L135.471 84.9737C135.737 84.9348 139.641 83.7544 142.138 82.2822L142.469 82.84C140.523 83.9879 136.243 85.5963 135.445 85.5963V85.6028Z" fill="#4A4A4A"/>
<path d="M129.213 78.8125C127.87 76.8669 131.943 71.6201 134.518 69.5252C134.784 69.3112 134.991 69.1426 135.121 68.9286C135.186 68.8248 135.231 68.6886 135.225 68.5654L132.092 69.2204C131.573 69.3307 130.977 69.415 130.497 69.0842C129.881 68.6562 129.777 67.7676 130.218 66.6521C130.854 65.0437 131.658 63.5001 132.605 62.0539L133.149 62.4106C132.228 63.8179 131.444 65.3291 130.821 66.8986C130.704 67.1969 130.354 68.2022 130.867 68.5524C131.139 68.7405 131.554 68.6691 131.963 68.5848L135.582 67.826L135.705 68.0011C135.945 68.3449 135.938 68.8442 135.679 69.2593C135.497 69.5641 135.218 69.7911 134.978 69.9857C131.989 72.4113 128.83 77.1004 129.751 78.4364L129.219 78.806L129.213 78.8125Z" fill="#4A4A4A"/>
<path d="M115.544 56.6798L98.3534 73.4966L98.8069 73.9602L115.998 57.1434L115.544 56.6798Z" fill="#4A4A4A"/>
<path d="M81.4335 66.5291L81.6022 65.8286C81.8875 64.6612 82.3221 62.975 82.8214 61.8335L83.4181 62.0929C83.029 62.9685 82.6852 64.2008 82.4193 65.2449C82.7112 65.0698 82.9966 64.8817 83.2819 64.7001C83.6062 64.4926 83.937 64.2786 84.2677 64.0775C85.3508 63.429 86.2458 63.0852 87.0695 63.0009L87.1408 63.643C86.408 63.7208 85.6037 64.0386 84.5985 64.6353C84.2742 64.8298 83.9499 65.0374 83.6321 65.2449C83.1327 65.5692 82.6139 65.9 82.0756 66.1853L81.44 66.5226L81.4335 66.5291Z" fill="#4A4A4A"/>
<path d="M89.962 71.7237C94.249 60.2961 93.5356 35.6575 93.5356 35.6575L97.4658 34.7041C97.4658 34.7041 99.6061 56.8458 93.6588 71.6004C93.6588 71.6004 90.6819 77.0743 88.7817 78.741L88.5547 74.4022L90.8051 72.3138L89.975 71.7172L89.962 71.7237Z" fill="white"/>
<path d="M88.4833 79.4287L88.2109 74.2727L90.2798 72.3464L89.5664 71.8406L89.6507 71.6071C93.8663 60.3676 93.2113 35.9106 93.1983 35.6641V35.3982L97.7382 34.2957L97.7771 34.6654C97.7966 34.8859 99.859 57.0535 93.9441 71.7173C93.808 71.9768 90.9024 77.2949 88.9762 78.9812L88.4768 79.4222L88.4833 79.4287ZM88.8789 74.5386L89.0605 78.0018C90.8895 75.9978 93.341 71.4968 93.3669 71.445C98.7824 58.0004 97.4139 38.0703 97.1675 35.1064L93.8598 35.9106C93.9182 38.5826 94.2749 60.7957 90.3511 71.6006L91.3045 72.2816L88.8724 74.5386H88.8789Z" fill="#4A4A4A"/>
<path d="M91.9271 59.7314L88.1979 63.4606L89.8647 68.5388C89.8647 68.5388 93.1982 65.4452 96.1362 61.6381C98.5488 58.5056 100.105 56.0865 98.0429 53.3042C95.9805 50.5284 93.1204 54.2576 93.1204 54.2576C93.1204 54.2576 92.7248 59.1801 91.9271 59.7314V59.7314Z" fill="white"/>
<path d="M89.7091 69.1228L87.8218 63.3766L91.7391 59.4723C92.1542 59.1805 92.6082 56.5279 92.7897 54.2385V54.1412L92.8546 54.0634C92.9195 53.9791 94.489 51.9556 96.253 51.9556H96.2725C97.0508 51.9556 97.7317 52.3512 98.296 53.1165C100.488 56.0674 98.8926 58.5968 96.3892 61.8396C93.4707 65.6271 90.1177 68.7532 90.0853 68.7856L89.7156 69.1293L89.7091 69.1228ZM88.5612 63.5517L90.0074 67.9554C90.9543 67.041 93.5486 64.4532 95.8704 61.4439C98.27 58.3309 99.6969 56.0998 97.7706 53.5056C97.3231 52.9089 96.8302 52.6106 96.266 52.6106H96.253C94.9754 52.6106 93.7107 54.0504 93.4318 54.3941C93.3216 55.6718 92.9519 59.3426 92.1412 59.9912L88.5676 63.5647L88.5612 63.5517Z" fill="#4A4A4A"/>
<path d="M46.0419 25.0083L44.6021 32.8947L49.7062 34.0881L50.8477 30.0541L46.0419 25.0083Z" fill="#E77B5E"/>
<path d="M37.0204 187.762C36.735 186.971 33.168 180.751 33.168 180.751L27.305 170.582C25.5345 171.042 24.4384 172.748 24.4189 174.979V174.999C24.4189 175.148 24.4189 175.297 24.4319 175.453C24.4838 177.476 24.3152 185.622 24.4643 191.212H26.0987C26.0987 191.212 26.1441 187.36 26.0987 183.806C27.065 187.568 28.3427 191.212 29.6463 191.212H41.5862C41.5862 188.943 37.0204 187.775 37.0204 187.775V187.762Z" fill="#4A4A4A"/>
<path d="M30.9563 184.24C29.5555 184.396 28.2519 183.508 27.8952 182.146C26.9872 178.656 25.7809 173.786 25.8068 172.716C25.8263 171.808 26.7148 170.245 28.1222 170.271C30.3662 170.316 31.3974 173.312 31.4298 173.559C31.6892 175.446 32.5648 178.189 33.3301 180.544C33.8813 182.249 32.7334 184.033 30.9563 184.234V184.24Z" fill="white"/>
<path d="M30.6386 184.585C29.2247 184.585 27.9471 183.625 27.5839 182.23C26.611 178.495 25.4566 173.812 25.4825 172.71C25.5085 171.575 26.5332 169.953 28.0833 169.953C28.0962 169.953 28.1157 169.953 28.1287 169.953C30.5867 170.005 31.7022 173.17 31.7541 173.527C32.0005 175.317 32.7853 177.827 33.6414 180.453C33.9332 181.361 33.81 182.341 33.2912 183.138C32.7788 183.936 31.9357 184.461 30.9888 184.565C30.872 184.578 30.7553 184.585 30.6386 184.585V184.585ZM28.0833 170.602C26.9029 170.602 26.1506 171.97 26.1311 172.729C26.1116 173.514 26.8705 176.919 28.213 182.068C28.5243 183.268 29.6917 184.066 30.9239 183.923C31.6763 183.839 32.3443 183.424 32.7529 182.788C33.1614 182.153 33.2652 181.374 33.0317 180.654C32.1692 177.995 31.3714 175.453 31.1185 173.611C31.0536 173.261 30.0484 170.641 28.1222 170.602H28.0897H28.0833Z" fill="#4A4A4A"/>
<path d="M25.9301 172.586L28.7902 125.715L35.4379 127.291L31.8255 175.531" fill="white"/>
<path d="M32.1498 175.557L31.5012 175.505L35.0942 127.544L29.0886 126.118L26.2544 172.606L25.6058 172.567L28.4919 125.307L35.7817 127.039L32.1498 175.557Z" fill="#4A4A4A"/>
<path d="M32.1498 175.557L31.5012 175.505L35.0942 127.544L29.0886 126.117L26.2544 173.89L25.6058 173.851L28.4854 125.307L35.7817 127.038L32.1498 175.557Z" fill="#4A4A4A"/>
<path d="M50.0565 187.762C49.7711 186.971 46.204 180.751 46.204 180.751L40.3411 170.582C38.5705 171.042 37.4745 172.748 37.455 174.979V174.999C37.455 175.148 37.455 175.297 37.468 175.453C37.5199 177.476 37.3512 185.622 37.5004 191.212H39.1348C39.1348 191.212 39.1802 187.36 39.1348 183.806C40.1011 187.568 41.3788 191.212 42.6824 191.212H54.6223C54.6223 188.943 50.0565 187.775 50.0565 187.775V187.762Z" fill="#4A4A4A"/>
<path d="M43.9988 184.24C42.5979 184.396 41.2943 183.508 40.9376 182.146C40.0297 178.656 38.8233 173.786 38.8493 172.716C38.8687 171.808 39.7573 170.245 41.1646 170.271C43.4086 170.316 44.4398 173.312 44.4723 173.559C44.7317 175.446 45.6072 178.189 46.3725 180.544C46.9238 182.249 45.7759 184.033 43.9988 184.234V184.24Z" fill="white"/>
<path d="M43.6811 184.585C42.2673 184.585 40.9896 183.618 40.6264 182.23C39.6536 178.495 38.4991 173.812 38.5251 172.71C38.551 171.575 39.5757 169.953 41.1258 169.953C41.1388 169.953 41.1582 169.953 41.1712 169.953C43.6292 170.005 44.7447 173.17 44.7966 173.527C45.0431 175.317 45.8278 177.827 46.6839 180.453C46.9758 181.361 46.8525 182.341 46.3337 183.138C45.8213 183.936 44.9782 184.461 44.0313 184.565C43.9146 184.578 43.7978 184.585 43.6811 184.585V184.585ZM41.1258 170.602C39.9454 170.602 39.1931 171.97 39.1736 172.729C39.1542 173.52 39.913 176.919 41.2555 182.068C41.5668 183.268 42.7342 184.066 43.9665 183.923C44.7188 183.839 45.3868 183.424 45.7954 182.788C46.204 182.153 46.3078 181.374 46.0743 180.654C45.2117 177.995 44.414 175.453 44.161 173.611C44.0962 173.261 43.0909 170.641 41.1647 170.602H41.1323H41.1258Z" fill="#4A4A4A"/>
<path d="M38.9727 172.586L41.8263 125.715L48.4805 127.291L44.8615 175.531" fill="white"/>
<path d="M45.1858 175.557L44.5372 175.505L48.1367 127.544L42.1311 126.117L39.2969 172.606L38.6483 172.567L41.5279 125.307L48.8242 127.038L45.1858 175.557Z" fill="#4A4A4A"/>
<path d="M45.1858 175.557L44.5372 175.505L48.1367 127.544L42.1311 126.117L39.2904 173.89L38.6418 173.851L41.5279 125.307L48.8242 127.038L45.1858 175.557Z" fill="#4A4A4A"/>
<path d="M45.5424 43.8938L48.2728 42.6291C51.9501 43.4204 54.7065 46.4815 55.1151 50.2172L61.3866 66.8916C61.3866 66.8916 71.556 77.8846 80.8303 73.7339L85.2989 84.7269C85.2989 84.7269 49.0381 96.2712 47.3778 95.9015C47.3778 95.9015 48.4739 81.964 48.1237 79.746L47.8253 71.4055L45.5424 43.9003V43.8938Z" fill="#5C7965"/>
<path d="M47.4232 96.2259C47.3713 96.2259 47.3324 96.2259 47.3064 96.2129L47.0276 96.1545L47.047 95.8756C47.06 95.7394 48.1366 81.9512 47.7993 79.7915L47.4945 71.4121L45.1986 43.6929L48.2339 42.2855L48.3376 42.3114C52.1447 43.1286 54.9918 46.2741 55.4328 50.1395L61.6655 66.7166C62.3854 67.4754 72.0424 77.314 80.6941 73.4356L80.9989 73.2994L85.7269 84.928L85.3961 85.0318C81.7447 86.1927 50.1536 96.2259 47.4232 96.2259V96.2259ZM45.8861 44.095L48.1496 71.3797L48.4479 79.7331C48.7657 81.7566 47.8966 93.3398 47.728 95.5708C50.6141 95.2141 71.0371 88.9231 84.8708 84.5194L80.6617 74.162C79.2608 74.7392 77.8404 74.9857 76.4396 74.9857C68.5466 74.9857 61.2504 67.2095 61.1596 67.1122L61.0947 67.0084L54.8037 50.2562C54.4146 46.6827 51.8139 43.7707 48.3182 42.973L45.8926 44.095H45.8861Z" fill="#4A4A4A"/>
<path d="M41.9948 42.2334L41.5019 37.9724L41.5343 37.9594L41.1776 34.6907L32.2859 31.1042C32.247 31.2534 33.168 35.5987 33.583 39.3019C33.596 39.4122 33.6349 39.7624 33.6868 40.3007C33.836 41.7405 33.129 43.0246 31.7541 43.1479C31.6568 43.1544 31.4233 43.1608 31.112 43.1738C31.2871 44.3023 29.4453 45.5475 30.0679 46.5658C30.8656 47.8693 29.8538 56.1125 30.5413 57.4809C31.339 59.0894 32.6037 60.4319 33.3755 62.0468C34.251 63.8822 38.6158 59.1023 39.9648 60.62C40.2632 59.3877 40.568 58.1554 40.8728 56.9297C41.5343 54.2706 44.4269 54.8284 45.6916 52.4028C46.0937 51.631 47.4816 49.3675 47.7605 48.5438C48.0458 47.7007 46.7747 45.6383 47.0081 44.7822C47.1703 44.1856 45.6267 43.0506 45.8537 42.4669C44.2777 42.3566 42.4164 42.2399 42.0013 42.2334H41.9948Z" fill="white"/>
<path d="M34.0565 62.7991C33.9268 62.7991 33.8101 62.7796 33.6998 62.7472C33.4209 62.6629 33.2134 62.4748 33.0772 62.1895C32.6946 61.3788 32.1627 60.6199 31.6569 59.8806C31.164 59.1672 30.6516 58.4213 30.2495 57.6236C29.9058 56.9426 29.9317 55.1397 30.016 52.2471C30.0809 50.055 30.1522 47.3246 29.7955 46.7344C29.3545 46.008 29.8279 45.2492 30.2495 44.5812C30.5478 44.1077 30.8591 43.6148 30.7943 43.2257C30.7813 43.1349 30.8073 43.0376 30.8656 42.9663C30.924 42.8949 31.0148 42.8495 31.1056 42.8495C31.4104 42.843 31.6309 42.8366 31.7282 42.8301C32.2081 42.7912 32.5973 42.5901 32.8891 42.2334C33.2718 41.7729 33.4404 41.0855 33.3626 40.3396L33.2588 39.3603V39.3408C32.9864 36.9088 32.4935 34.2043 32.1952 32.5829C31.9357 31.1755 31.9357 31.1366 31.9682 31.0199C31.9941 30.9291 32.0525 30.8577 32.1368 30.8123C32.2211 30.7734 32.3184 30.7669 32.4027 30.7994L41.2944 34.3859C41.4047 34.4313 41.4825 34.535 41.4955 34.6518L41.8522 37.9205C41.8522 37.9724 41.8522 38.0178 41.8392 38.0632L42.2867 41.9091C42.9936 41.9415 44.5826 42.0453 45.8732 42.1296C45.977 42.1361 46.0678 42.1945 46.1261 42.2788C46.178 42.3631 46.191 42.4734 46.1521 42.5706C46.1132 42.7068 46.4958 43.1933 46.6774 43.4267C47.0665 43.9261 47.4427 44.3996 47.3195 44.8536C47.2287 45.1778 47.4751 45.8848 47.6956 46.5009C47.981 47.3246 48.2534 48.0963 48.0718 48.6346C47.8708 49.2248 47.1638 50.4571 46.5931 51.4494C46.3337 51.9034 46.1067 52.2925 45.9835 52.5389C45.3479 53.7647 44.3102 54.2965 43.4022 54.7635C42.3905 55.2823 41.5149 55.7298 41.1971 57.001C40.8923 58.2268 40.5875 59.459 40.2891 60.6913C40.2632 60.808 40.1724 60.8988 40.0557 60.9313C39.9389 60.9572 39.8157 60.9248 39.7379 60.834C39.2385 60.2762 37.883 61.0415 36.6832 61.7225C35.7103 62.2738 34.7894 62.7991 34.0695 62.7991H34.0565ZM31.4364 43.4851C31.3845 43.9845 31.0861 44.4579 30.7943 44.9249C30.3727 45.5994 30.1263 46.0339 30.3468 46.3971C30.7813 47.1041 30.7554 49.0886 30.6646 52.2666C30.6062 54.3679 30.5349 56.7481 30.8332 57.3318C31.2094 58.0906 31.7087 58.8105 32.1952 59.5109C32.7205 60.2697 33.2588 61.0545 33.6674 61.9041C33.7387 62.0597 33.8295 62.0987 33.8944 62.1246C34.3808 62.2803 35.425 61.6836 36.3524 61.1583C37.5976 60.4513 38.8883 59.7249 39.7638 60.0816C40.0232 59.005 40.2891 57.922 40.5615 56.8454C40.9507 55.2888 42.0467 54.7311 43.1039 54.1863C44.0118 53.7258 44.8679 53.2848 45.4062 52.2406C45.536 51.9942 45.7694 51.5856 46.0353 51.1251C46.5607 50.2106 47.2806 48.9589 47.4622 48.4271C47.5724 48.1028 47.313 47.3635 47.0925 46.7149C46.8201 45.9367 46.5672 45.1973 46.7034 44.6849C46.7358 44.5487 46.3596 44.0623 46.178 43.8288C45.8862 43.4592 45.6073 43.1025 45.5295 42.7587C44.0767 42.6614 42.3905 42.5512 42.0013 42.5512C41.8392 42.5512 41.703 42.428 41.6835 42.2658L41.1906 38.0048C41.1906 37.9529 41.1906 37.9075 41.2036 37.8621L40.8793 34.9177L32.6946 31.6165C32.7335 31.8565 32.7918 32.1548 32.8502 32.4661C33.1421 34.0746 33.635 36.7596 33.9074 39.1917C33.9203 39.2241 33.9268 39.263 33.9268 39.3019C33.9268 39.3149 33.9268 39.3279 33.9268 39.3473L34.0241 40.2683C34.1214 41.1827 33.8944 42.0453 33.4015 42.642C32.9994 43.1284 32.4416 43.4138 31.7931 43.4721C31.7282 43.4721 31.6115 43.4851 31.4493 43.4851H31.4364Z" fill="#4A4A4A"/>
<path d="M52.8647 55.5746C51.6259 52.0724 50.1343 48.8037 48.9539 45.7944C48.0978 43.6088 48.1237 42.6295 48.1237 42.6295C47.8903 42.61 46.9369 42.5387 45.8473 42.4608C45.6268 43.0381 48.8047 49.9322 41.3139 49.7117C34.9127 49.5236 31.2872 44.2963 31.1121 43.1678C29.8864 43.2002 27.3116 43.8293 26.3063 43.8358C26.9679 49.5755 27.9796 59.2001 24.4579 59.5244C27.2143 73.5591 26.6566 81.9384 25.8588 86.2448C25.3854 88.8066 24.8211 89.9222 24.8211 89.9222C35.6066 94.916 47.9292 90.5188 47.9292 90.5188C47.8384 89.2671 47.8189 88.0284 47.8449 86.8221C48.0394 77.1326 51.4054 69.3046 51.4054 69.3046C52.1059 68.8765 53.4938 67.7675 54.0256 66.9438C57.0738 62.2159 54.3499 59.7513 52.8777 55.5811L52.8647 55.5746Z" fill="white"/>
<path d="M36.4563 92.6139C32.7595 92.6139 28.6087 92.0367 24.6785 90.2143C24.6007 90.1754 24.5358 90.1105 24.5099 90.0262C24.4839 89.9419 24.4839 89.8511 24.5228 89.7732C24.5228 89.7603 25.0741 88.6512 25.5281 86.1803C26.3777 81.6144 26.8187 73.2999 24.1272 59.583C24.1078 59.4857 24.1272 59.3884 24.1921 59.3171C24.2569 59.2392 24.3477 59.2003 24.445 59.2003C24.8406 59.1614 25.1909 58.9668 25.4892 58.5972C27.3959 56.2494 26.4361 47.8895 25.9756 43.875C25.9626 43.7842 25.9951 43.6934 26.0534 43.622C26.1118 43.5507 26.2026 43.5118 26.2934 43.5118C26.7604 43.5118 27.6489 43.3561 28.5115 43.2005C29.4584 43.0318 30.4442 42.8632 31.0862 42.8438C31.2678 42.8567 31.3911 42.9605 31.417 43.1161C31.5532 43.9722 34.9322 49.1996 41.3075 49.3877C43.2272 49.4331 44.5697 49.0245 45.2961 48.136C46.4116 46.7805 45.9122 44.5624 45.6398 43.3691C45.5101 42.7984 45.4517 42.5324 45.5296 42.3379C45.5814 42.2017 45.7047 42.1109 45.8538 42.1303C46.9499 42.2082 47.9033 42.2795 48.1368 42.299C48.3054 42.3184 48.4351 42.4611 48.4286 42.6297C48.4286 42.6362 48.4286 43.5961 49.2393 45.665C49.6738 46.7805 50.1538 47.9284 50.6467 49.1088C51.4963 51.1388 52.3718 53.2401 53.1566 55.4582C53.4938 56.4051 53.8894 57.2611 54.2786 58.0913C55.5887 60.8931 56.7171 63.3186 54.2786 67.1062C53.7533 67.9234 52.4302 69.013 51.6454 69.5124C51.2758 70.4203 48.3248 77.8658 48.1497 86.8158C48.1238 88.0805 48.1497 89.3128 48.234 90.4866C48.247 90.6293 48.1562 90.7655 48.02 90.8174C47.9422 90.8434 42.8835 92.6074 36.4433 92.6074L36.4563 92.6139ZM25.2427 89.7538C34.9127 94.0667 45.8668 90.8434 47.5855 90.2856C47.5141 89.1701 47.4882 88.0027 47.5141 86.8093C47.7022 77.1653 51.0682 69.2465 51.1007 69.1686C51.1266 69.1038 51.172 69.0584 51.2304 69.0195C51.9567 68.572 53.2668 67.4954 53.7468 66.756C55.9973 63.2668 54.9855 61.1071 53.7078 58.3702C53.3122 57.527 52.9101 56.658 52.5599 55.6787C51.7816 53.4801 50.9126 51.3852 50.063 49.3617C49.5701 48.1749 49.0901 47.0269 48.6491 45.9049C48.0395 44.3484 47.8644 43.3821 47.8125 42.9216C47.4623 42.8956 46.8721 42.8502 46.1911 42.8048C46.217 42.9281 46.2559 43.0837 46.2884 43.2264C46.5802 44.5235 47.1315 46.9426 45.8084 48.551C44.9459 49.6017 43.4282 50.0946 41.301 50.0362C35.1462 49.8546 31.4624 45.185 30.8657 43.5053C30.2691 43.5507 29.4389 43.6934 28.6347 43.836C27.8953 43.9658 27.1884 44.089 26.6631 44.1344C27.1754 48.6224 28.025 56.5023 25.9951 58.9993C25.6708 59.4014 25.2752 59.6608 24.8277 59.7775C27.4673 73.3972 27.0133 81.7117 26.1637 86.2905C25.82 88.1389 25.4308 89.2479 25.2363 89.7473L25.2427 89.7538Z" fill="#4A4A4A"/>
<path d="M52.9749 123.9C53.0009 120.631 52.6636 117.362 52.2291 114.126C51.8335 111.201 51.2174 108.309 51.0033 105.364C50.5688 99.3456 51.8465 93.2881 51.3017 87.2824C51.0228 84.2277 50.277 81.2184 49.0901 78.4102C49.0901 78.4102 40.3346 80.0835 30.8657 78.5075C29.0822 81.6141 27.4283 78.4815 26.7733 82.0356C26.2415 84.9152 27.0911 78.3194 26.0664 81.0498C24.3607 85.6092 19.4316 91.9196 17.032 110.267C16.351 115.482 12.0381 147.086 12.4337 151.736C26.0469 153.772 24.3088 170.025 38.0257 168.975C37.7533 166.225 52.7155 153.435 52.9685 123.9H52.9749Z" fill="#4A4A4A"/>
<path d="M24.0493 44.1215L26.4944 43.9788L28.7059 43.6481C28.7059 43.6481 30.9889 52.3128 30.8202 59.2329C30.6516 66.153 30.6516 71.2506 31.6179 75.4987C32.5908 79.7467 32.2341 89.2869 32.2341 89.2869L15.0149 97.0955L24.0493 44.1215Z" fill="#5C7965"/>
<path d="M14.5934 97.64L23.777 43.8099L26.4814 43.6477L28.9524 43.2781L29.0238 43.557C29.0497 43.6413 31.3132 52.3449 31.1446 59.2325C30.9824 65.7376 30.9435 71.0557 31.9358 75.414C32.9021 79.6556 32.5714 88.8975 32.5584 89.2866V89.4877L14.5934 97.6335V97.64ZM24.3282 44.4325L15.4365 96.5504L31.9163 89.0791C31.9617 87.6847 32.1758 79.3961 31.3002 75.5762C30.2885 71.1465 30.3274 65.783 30.4895 59.2325C30.6387 53.1361 28.8422 45.561 28.4595 44.0239L26.5398 44.3093L24.3217 44.439L24.3282 44.4325Z" fill="#4A4A4A"/>
<path d="M76.8418 192.614L76.4397 175.603L81.3882 176.18L81.6281 192.867L76.8418 192.614Z" fill="white"/>
<path d="M81.9524 193.211L76.524 192.926L76.1089 175.24L81.7124 175.888L81.9524 193.211ZM77.1531 192.31L81.2909 192.53L81.0639 176.472L76.764 175.973L77.1466 192.316L77.1531 192.31Z" fill="#4A4A4A"/>
<path d="M76.6666 190.967C76.6666 190.967 75.1944 195.124 76.0116 198.269L94.7549 197.997C94.7549 197.997 95.8574 194.579 91.6094 193.788C87.3613 192.997 81.8616 190.026 81.8616 190.026C81.8616 190.026 79.2544 192.997 76.6601 190.967H76.6666Z" fill="#4A4A4A"/>
<path d="M76.0181 198.587L94.7613 198.315C94.7613 198.315 95.0272 197.329 94.7808 196.214L75.7716 196.493C75.7911 197.206 75.8689 197.913 76.0181 198.587Z" fill="white"/>
<path d="M62.2686 193.568L65.6216 177.374L60.6602 176.913L57.5406 192.822L62.2686 193.568Z" fill="white"/>
<path d="M62.528 193.931L57.158 193.088L60.4007 176.563L66.0172 177.088L62.528 193.931V193.931ZM57.9233 192.55L62.0156 193.192L65.2325 177.659L60.9196 177.257L57.9233 192.55Z" fill="#4A4A4A"/>
<path d="M62.8846 191.746C62.8846 191.746 64.3439 195.903 63.5267 199.048L44.7834 198.744C44.7834 198.744 43.6809 195.319 47.9354 194.541C52.1835 193.763 57.6897 190.792 57.6897 190.792C57.6897 190.792 60.2904 193.769 62.8911 191.746H62.8846Z" fill="#4A4A4A"/>
<path d="M63.5268 199.165L44.7836 198.86C44.7836 198.86 44.5176 197.965 44.7641 196.96L63.7733 197.271C63.7538 197.92 63.676 198.562 63.5268 199.165Z" fill="white"/>
<path d="M84.6374 113.431L86.4015 188.975H75.1555L72.01 127.148L64.0976 190.149H54.7455C54.7455 190.149 57.2878 135.236 58.747 113.341L84.6374 113.438V113.431Z" fill="white"/>
<path d="M64.3894 190.467H54.4081L54.4211 190.13C54.447 189.579 56.9764 134.964 58.4227 113.315L58.4421 113.01L84.9551 113.107V113.425L86.7386 189.3H74.8506L74.8376 188.995L71.8802 130.845L64.3894 190.474V190.467ZM55.0891 189.819H63.8187L71.6921 127.103L72.3407 127.129L75.4667 188.651H86.0771L84.326 113.756L59.0583 113.665C57.6703 134.607 55.3096 185.181 55.0956 189.825L55.0891 189.819Z" fill="#4A4A4A"/>
<path d="M84.6374 113.432L86.4014 188.976H75.1555L71.8933 129.192L64.1041 190.143H54.7519C54.7519 190.143 57.2943 135.23 58.7535 113.335L84.6439 113.432H84.6374Z" fill="white"/>
<path d="M64.3894 190.467H54.4081L54.4211 190.13C54.447 189.579 56.9764 134.964 58.4227 113.315L58.4421 113.01L84.9551 113.107V113.425L86.7386 189.3H74.8506L74.8311 188.995L71.7635 132.765L64.3894 190.467V190.467ZM55.0891 189.819H63.8187L71.5754 129.146L72.2239 129.172L75.4732 188.651H86.0836L84.3325 113.756L59.0647 113.665C57.6768 134.607 55.3161 185.181 55.1021 189.825L55.0891 189.819Z" fill="#4A4A4A"/>
<path d="M71.6511 121.946L71.5665 129.183L72.215 129.191L72.2996 121.953L71.6511 121.946Z" fill="#4A4A4A"/>
<path d="M87.7828 73.9415C87.7828 73.9415 87.3872 73.8572 87.264 73.2151C87.1407 72.5731 87.1083 71.9699 87.2769 71.6197C87.4456 71.2695 87.5623 69.2719 87.024 68.2926C87.024 68.2926 86.2976 67.8321 85.8242 68.6428C85.3507 69.4535 85.5258 71.0944 85.4999 71.1852C85.3637 71.7753 84.6892 75.1673 84.9227 75.7964C85.1561 76.4255 86.5116 78.3841 87.1537 78.9094C87.8023 79.4348 87.8736 80.012 88.1654 80.3752C89.3977 81.8993 91.8946 81.0043 92.3811 80.8422C92.3811 80.8422 93.1269 81.3675 93.2955 80.9783C93.4641 80.5892 93.0685 79.6099 92.5886 79.1559C92.1087 78.7019 92.4459 77.1778 92.2449 76.8341C92.0503 76.4903 91.8752 76.2244 91.9076 75.8223C91.9206 75.6537 91.9076 74.0647 91.525 74.0647C91.4406 74.0647 91.1358 74.0323 91.1293 73.7405C91.1229 73.2281 89.2615 72.8195 89.2615 72.8195L87.7828 73.9415Z" fill="white"/>
<path d="M90.2538 81.5686C89.0345 81.5686 88.3276 81.0822 87.919 80.5763C87.7958 80.4207 87.705 80.2456 87.6207 80.064C87.4715 79.7656 87.3224 79.4543 86.9592 79.156C86.2782 78.6047 84.8838 76.6072 84.6244 75.9067C84.326 75.0895 85.1821 71.1528 85.1951 71.1139C85.1886 71.1398 85.1886 71.0815 85.1821 71.0166C85.1497 70.1865 85.1627 69.1488 85.5518 68.4872C85.7464 68.1565 85.9993 67.9489 86.3106 67.8776C86.7711 67.7609 87.1602 68.0008 87.2056 68.0268C87.251 68.0527 87.2899 68.0981 87.3159 68.1435C87.9061 69.2071 87.8023 71.3085 87.5753 71.7689C87.4585 72.0089 87.465 72.5148 87.5883 73.1568C87.6272 73.3709 87.705 73.4876 87.7634 73.5525L89.067 72.5602C89.1448 72.5018 89.2421 72.4823 89.3329 72.5018C90.2992 72.7093 91.4472 73.0985 91.4601 73.7341C91.4601 73.7341 91.5055 73.7341 91.5315 73.7341C91.6677 73.7341 91.7909 73.7924 91.8882 73.8962C92.2903 74.3307 92.2384 75.8224 92.2384 75.8419C92.2189 76.1143 92.3292 76.3024 92.4913 76.5942L92.5303 76.6655C92.6535 76.8796 92.647 77.1974 92.6405 77.6449C92.6405 78.0794 92.6275 78.7344 92.8156 78.916C93.3085 79.383 93.8598 80.5115 93.6004 81.1081C93.529 81.2638 93.4058 81.3805 93.2437 81.4259C92.9388 81.5102 92.5627 81.3351 92.3422 81.1989C91.5185 81.4648 90.831 81.5686 90.2538 81.5686V81.5686ZM86.5571 68.4937C86.5246 68.4937 86.4857 68.4937 86.4533 68.5067C86.3236 68.5391 86.2068 68.6429 86.1096 68.818C85.7658 69.4017 85.8112 70.6015 85.8307 70.9972C85.8307 71.1593 85.8372 71.2112 85.8307 71.2631C85.5712 72.398 85.0719 75.2452 85.2405 75.6862C85.461 76.2829 86.797 78.1832 87.3742 78.6566C87.8477 79.0393 88.0487 79.4543 88.2109 79.7786C88.2887 79.9342 88.3536 80.0704 88.4314 80.1677C88.9113 80.7644 89.962 81.3092 92.2449 80.5439C92.3422 80.5115 92.4978 80.5115 92.5821 80.5698C92.7313 80.6736 92.9194 80.7644 93.0232 80.7839C93.0491 80.518 92.7897 79.7721 92.3746 79.3765C91.979 79.0003 91.992 78.274 91.9984 77.6254C91.9984 77.3854 92.0049 77.0612 91.9725 76.9768L91.9336 76.912C91.739 76.5747 91.5574 76.257 91.5963 75.7835C91.6158 75.5435 91.5639 74.6291 91.4407 74.3696C91.1229 74.3307 90.8246 74.1167 90.8181 73.7276C90.7402 73.5979 90.0593 73.3255 89.3458 73.1504L87.9904 74.1816C87.9125 74.2399 87.8152 74.2594 87.7245 74.2399C87.6596 74.227 87.1148 74.0843 86.9527 73.2606C86.797 72.4434 86.81 71.8403 86.9916 71.4641C87.1148 71.2047 87.2251 69.4276 86.7905 68.5262C86.7387 68.5067 86.6543 68.4808 86.5635 68.4808L86.5571 68.4937Z" fill="#4A4A4A"/>
<path d="M73.3265 73.177C71.076 73.1252 68.8514 71.9318 67.6776 70.8098C67.8397 68.9095 68.0278 67.0093 68.0861 66.3932C68.806 66.1013 68.9941 65.6149 69.0136 65.5565C69.033 65.5046 69.0395 65.4527 69.0265 65.4009L68.8644 64.2789L68.2872 58.1824L75.7456 56.5935C75.8558 57.4496 76.1542 59.7325 76.4849 61.9051C76.8027 64.0259 77.1919 65.4527 77.5486 65.8094C77.6588 65.9197 77.8469 65.9846 78.489 66.1986C78.8068 66.3024 79.1829 66.4321 79.5526 66.5683L79.9093 70.1483C78.3463 71.9837 75.8364 73.1705 73.4821 73.1705H73.3265V73.177Z" fill="white"/>
<path d="M75.4667 56.9955C75.6029 58.0267 75.8688 60.0437 76.1607 61.9634C76.4006 63.5329 76.7898 65.5175 77.3151 66.0428C77.4772 66.205 77.6718 66.2763 78.3917 66.5098C78.6511 66.5941 78.9495 66.6979 79.2543 66.8016L79.5786 70.0444C78.0869 71.7307 75.6743 72.8462 73.4886 72.8462C73.4367 72.8462 73.3913 72.8462 73.3395 72.8462C71.2446 72.7943 69.1757 71.7242 68.0148 70.6735C68.1575 68.9873 68.3196 67.3335 68.391 66.6071C69.0914 66.2569 69.299 65.7315 69.3249 65.6667C69.3573 65.5694 69.3703 65.4591 69.3573 65.3554L69.1952 64.2528L68.6439 58.4482L75.4732 56.9955H75.4667ZM76.0245 56.2172L67.9435 57.9359L68.5531 64.3306L68.7153 65.4526C68.7153 65.4526 68.5466 65.9261 67.7878 66.1596C67.7878 66.1596 67.5414 68.5787 67.3468 70.9394C68.5726 72.1652 70.9203 73.4493 73.3265 73.5012C73.3784 73.5012 73.4367 73.5012 73.4886 73.5012C75.8883 73.5012 78.5928 72.2819 80.2531 70.2584C80.0909 68.6435 79.9353 67.087 79.8639 66.3412C78.9235 65.9715 77.8923 65.6926 77.7821 65.5824C77.5551 65.3554 77.1595 64.2074 76.8092 61.8596C76.3942 59.1098 76.0245 56.2107 76.0245 56.2107V56.2172Z" fill="#4A4A4A"/>
<path d="M79.864 70.2588C78.1712 72.3277 75.7586 73.5535 73.32 73.4951C70.9139 73.4367 69.059 72.1461 67.8397 70.9139C67.6776 72.8401 67.5868 74.7663 67.8008 75.3889C68.2678 76.7768 70.5053 84.7021 71.53 88.2497C72.5547 91.7973 73.4887 96.681 74.0464 97.3166C74.6042 97.9521 80.4801 76.1477 80.3893 75.3889C80.3439 75.0062 80.0974 72.5677 79.864 70.2588V70.2588Z" fill="#E77B5E"/>
<path d="M92.1023 77.3341C91.1359 74.0265 82.2183 68.4619 79.4295 66.5681L79.0987 74.3119C78.8328 79.2344 75.3047 85.8302 74.7469 85.1946C74.4227 84.8314 72.477 81.5303 70.8751 78.7934C68.8516 75.3301 67.8139 71.348 68.1317 67.3529C68.1576 67.0416 68.19 66.7238 68.2289 66.406C66.3546 67.301 58.1439 70.6605 57.2554 71.8084C55.7897 73.6957 54.8298 78.5275 51.7492 86.9782C48.6685 95.4353 46.431 99.1516 47.1768 106.558C47.9227 113.965 54.726 121.708 54.726 121.708C54.726 121.708 55.2449 130.165 56.4836 131.586C57.7288 133.006 62.82 126.994 69.0202 128.888C79.436 132.072 84.6958 127.766 85.6038 126.962C87.2446 125.515 87.2251 121.715 87.2251 121.715C87.2251 121.715 96.1947 113.284 97.9847 108.504C98.9186 106.007 95.3191 88.3466 92.1023 77.3471V77.3341Z" fill="#FAB768"/>
<path d="M57.0089 132.124C56.7041 132.124 56.4512 132.027 56.2501 131.793C55.0114 130.379 54.499 123.109 54.4147 121.838C53.6365 120.93 47.5725 113.692 46.8591 106.59C46.2429 100.461 47.6827 96.7258 49.8554 91.0768C50.3483 89.7992 50.8801 88.4113 51.4443 86.8677C52.6766 83.4887 53.5651 80.6805 54.285 78.4235C55.3681 75.0251 56.0815 72.7811 56.996 71.6072C57.664 70.7446 61.5553 68.9935 65.8228 67.1257C66.8151 66.6911 67.6388 66.3344 68.0863 66.1139C68.19 66.062 68.3198 66.075 68.417 66.1464C68.5143 66.2177 68.5662 66.3344 68.5468 66.4512C68.5078 66.7625 68.4754 67.0738 68.4495 67.3851C68.1446 71.2051 69.0786 75.0964 71.1475 78.6375C73.7936 83.1709 74.6302 84.4875 74.8896 84.8637C75.7652 84.1568 78.5345 78.631 78.768 74.3052L79.0988 66.5614C79.0988 66.4447 79.1701 66.3409 79.2739 66.289C79.3776 66.2372 79.5073 66.2436 79.6046 66.3085C79.9224 66.5225 80.3245 66.7884 80.7785 67.0933C84.5272 69.5772 91.5121 74.2144 92.4006 77.2496C95.4553 87.6719 99.3013 105.87 98.2765 108.614C96.5644 113.199 88.5806 120.865 87.5365 121.857C87.5235 122.59 87.3743 125.826 85.8113 127.208C84.3975 128.453 79.0015 132.286 68.9164 129.205C65.2521 128.083 62.0158 129.815 59.6486 131.073C58.546 131.663 57.651 132.137 56.9895 132.137L57.0089 132.124ZM67.8398 66.9376C67.3794 67.1451 66.7762 67.411 66.0822 67.7159C63.3064 68.9351 58.1309 71.1986 57.5083 72.0028C56.6652 73.0859 55.9648 75.291 54.9011 78.6181C54.1812 80.8815 53.2862 83.6963 52.0475 87.0882C51.4833 88.6383 50.945 90.0262 50.452 91.3103C48.234 97.0695 46.8915 100.552 47.4946 106.525C48.221 113.737 54.9011 121.416 54.966 121.494C55.0114 121.546 55.0438 121.617 55.0438 121.689C55.1865 124.011 55.7637 130.276 56.7236 131.372C57.0349 131.728 58.1115 131.158 59.3502 130.496C61.6721 129.257 65.1872 127.377 69.111 128.576C78.8718 131.56 84.0343 127.908 85.3833 126.715C86.8944 125.379 86.8944 121.747 86.8944 121.715C86.8944 121.624 86.9333 121.54 86.9982 121.475C87.089 121.39 95.9353 113.043 97.6734 108.387C98.5554 106.026 94.9884 88.3853 91.7845 77.4377C90.9608 74.6295 83.8462 69.908 80.4218 67.638C80.1689 67.4694 79.9354 67.3138 79.7214 67.1711L79.4165 74.3376C79.1766 78.8256 76.0959 85.162 74.9999 85.5447C74.8053 85.6095 74.6172 85.5641 74.494 85.4214C74.2216 85.1101 72.905 82.9375 70.5832 78.9683C68.4495 75.3104 67.4831 71.2894 67.8009 67.3332C67.8139 67.2035 67.8204 67.0738 67.8333 66.9441L67.8398 66.9376Z" fill="#4A4A4A"/>
<path d="M74.6108 85.539C74.2865 92.7639 73.5277 100.06 73.2813 107.292C73.2099 109.354 72.2565 124.738 72.1917 126.8C72.1852 127.079 72.6197 127.079 72.6327 126.8C72.8597 119.569 74.4811 98.9446 74.7859 91.7197C74.8702 89.6573 74.961 87.5949 75.0583 85.539C75.0713 85.2601 74.6303 85.2601 74.6173 85.539H74.6108Z" fill="#4A4A4A"/>
<path d="M72.3992 127.144C72.3344 127.144 72.263 127.124 72.2111 127.092C72.1139 127.027 72.0555 126.923 72.062 126.8C72.0944 125.737 72.3668 121.112 72.6262 116.644C72.8792 112.344 73.1126 108.284 73.1516 107.292C73.2877 103.374 73.5731 99.3727 73.852 95.5008C74.0855 92.2321 74.3319 88.8467 74.4811 85.539C74.4941 85.312 74.6821 85.2148 74.8573 85.2018C75.0518 85.2083 75.188 85.3574 75.1815 85.5455C75.0907 87.6079 74.9999 89.6703 74.9091 91.7263C74.7665 95.0274 74.3579 101.065 73.9298 107.454C73.4175 115.035 72.8856 122.876 72.7624 126.807C72.7624 126.936 72.6911 127.04 72.5873 127.098C72.5354 127.131 72.4706 127.144 72.4122 127.144H72.3992ZM74.7405 85.5455C74.5914 88.8596 74.3449 92.2451 74.1114 95.5138C73.8325 99.3792 73.5472 103.381 73.411 107.292C73.3786 108.29 73.1386 112.35 72.8857 116.65C72.6262 121.119 72.3538 125.737 72.3214 126.8C72.3214 126.839 72.3344 126.852 72.3473 126.865C72.3733 126.884 72.4252 126.884 72.4576 126.865C72.4835 126.852 72.4965 126.826 72.4965 126.794C72.6197 122.863 73.1516 115.016 73.6639 107.434C74.0984 101.046 74.507 95.0079 74.6432 91.7133C74.7275 89.6509 74.8183 87.5885 74.9156 85.5326C74.9156 85.4872 74.8897 85.4612 74.8443 85.4547C74.8313 85.4547 74.7405 85.4547 74.7405 85.539V85.5455Z" fill="#4A4A4A"/>
<path d="M85.7011 119.829C84.7737 119.407 84.2419 118.519 83.8009 117.637C83.3339 116.696 82.9837 115.697 82.7502 114.673C82.2832 112.617 82.3092 110.47 82.8215 108.427C82.8929 108.155 82.4648 108.038 82.4 108.31C81.8552 110.483 81.8422 112.759 82.3611 114.939C82.6205 116.022 83.0096 117.079 83.522 118.065C83.976 118.934 84.5532 119.79 85.4741 120.211C85.7271 120.328 85.9541 119.952 85.6946 119.835L85.7011 119.829Z" fill="#4A4A4A"/>
<path d="M85.5778 120.36C85.5259 120.36 85.4805 120.347 85.4287 120.328C84.4234 119.867 83.8202 118.907 83.4117 118.123C82.8928 117.124 82.4972 116.067 82.2378 114.971C81.7189 112.778 81.7319 110.47 82.2767 108.284C82.3026 108.187 82.361 108.109 82.4453 108.063C82.5166 108.025 82.6074 108.018 82.6918 108.038C82.7761 108.057 82.8539 108.109 82.9058 108.18C82.9641 108.258 82.9836 108.362 82.9577 108.459C82.4518 110.483 82.4258 112.623 82.8863 114.646C83.1198 115.678 83.47 116.67 83.9305 117.584C84.365 118.453 84.8839 119.309 85.7659 119.718C85.9345 119.796 85.9994 119.977 85.9216 120.146C85.8632 120.269 85.7335 120.367 85.5843 120.367L85.5778 120.36ZM82.5945 108.284C82.5945 108.284 82.5685 108.284 82.5556 108.29C82.5556 108.29 82.5296 108.303 82.5231 108.342C81.9848 110.489 81.9719 112.759 82.4842 114.906C82.7436 115.982 83.1263 117.02 83.6386 117.999C84.0278 118.745 84.5985 119.66 85.5324 120.088C85.6103 120.12 85.6621 120.055 85.6751 120.029C85.7011 119.971 85.6686 119.958 85.6492 119.945C84.6958 119.51 84.1445 118.603 83.6905 117.695C83.2236 116.761 82.8669 115.755 82.6269 114.698C82.1599 112.636 82.1794 110.457 82.6982 108.394C82.7177 108.316 82.6399 108.29 82.6269 108.284C82.6139 108.284 82.6074 108.284 82.601 108.284H82.5945Z" fill="#4A4A4A"/>
<path d="M56.9376 121.482C58.974 120.367 60.2322 118.259 60.7446 116.047C61.4126 113.181 60.8743 110.21 60.362 107.363C60.3101 107.084 59.8885 107.201 59.9404 107.48C60.4333 110.204 60.9586 113.051 60.349 115.801C59.8755 117.954 58.6887 120.016 56.7106 121.1C56.4641 121.236 56.6846 121.612 56.9311 121.476L56.9376 121.482Z" fill="#4A4A4A"/>
<path d="M56.8273 121.644C56.7689 121.644 56.7106 121.625 56.6522 121.592C56.542 121.527 56.4706 121.398 56.4706 121.268C56.4706 121.151 56.5355 121.047 56.6457 120.989C58.4228 120.016 59.6939 118.161 60.2193 115.775C60.8159 113.083 60.3101 110.294 59.8236 107.596L59.8042 107.506C59.7782 107.376 59.8236 107.253 59.9274 107.168C60.0312 107.084 60.1674 107.058 60.2841 107.097C60.3879 107.136 60.4592 107.227 60.4852 107.343C61.004 110.236 61.5423 113.193 60.8678 116.079C60.2906 118.557 58.8768 120.567 56.9959 121.599C56.9441 121.631 56.8857 121.644 56.8273 121.644ZM56.8727 121.372L56.9376 121.488L56.8727 121.372C58.6887 120.379 60.0571 118.427 60.6214 116.021C61.2829 113.193 60.7511 110.255 60.2452 107.421C60.2322 107.356 60.2193 107.35 60.2063 107.343C60.1804 107.337 60.1349 107.343 60.1025 107.369C60.0766 107.395 60.0636 107.421 60.0701 107.46L60.0895 107.551C60.5825 110.275 61.0883 113.09 60.4852 115.827C59.9404 118.291 58.6238 120.204 56.7819 121.216C56.743 121.235 56.743 121.255 56.743 121.274C56.743 121.307 56.7625 121.352 56.7949 121.372C56.8208 121.385 56.8468 121.385 56.8792 121.372H56.8727Z" fill="#4A4A4A"/>
<path d="M64.8111 40.7686C65.4272 39.1407 66.186 38.7516 66.7243 38.6219C67.2367 38.4986 67.7361 38.6089 68.1511 38.771C68.5727 38.9397 69.0656 38.8294 69.3121 38.4727C69.8633 37.675 70.8362 37.2858 71.6922 37.4934C72.1203 37.5971 72.4965 37.8436 72.7883 38.1808C73.1256 38.57 73.7028 38.6478 74.1308 38.3689C74.7794 37.9474 75.616 37.8112 76.3943 38.0511C77.2115 38.2976 77.8341 38.9072 78.1065 39.6531C78.2816 40.133 78.8004 40.4119 79.3193 40.2822C79.9613 40.12 80.6618 40.2238 81.226 40.587C81.8616 41.0021 82.2313 41.6895 82.2378 42.4094C82.2378 42.7791 82.5102 43.1164 82.8863 43.2396C83.3144 43.3823 83.6776 43.6611 83.9046 44.0308C84.2288 44.5626 84.2224 45.2242 83.911 45.7689C83.7359 46.0802 83.7878 46.4499 84.0213 46.7353C84.1316 46.8715 84.2288 47.0401 84.2872 47.2412C84.4493 47.8184 84.2159 48.4864 83.6581 48.9858C83.3468 49.2647 83.269 49.6862 83.47 50.0494C83.9629 50.9379 83.8851 51.8848 83.3598 52.3907C83.1587 52.5853 82.9058 52.6955 82.6658 52.7539C82.1405 52.8836 81.7708 53.3181 81.6606 53.8175C80.8823 57.3392 78.8782 59.6545 76.7899 59.7518C76.3294 59.7713 75.5966 59.6934 74.6821 59.1292L63.929 52.6371C63.9485 52.5009 64.383 41.8906 64.8046 40.7621L64.8111 40.7686Z" fill="#4A4A4A"/>
<path d="M81.7123 54.9454C80.6682 53.5121 79.1376 53.9985 78.502 54.2904L79.384 52.0399L77.7821 43.933L65.9849 44.0367L64.8564 47.8632C64.8564 47.8632 62.4697 57.2219 62.9626 60.0236C63.4555 62.8189 67.0939 64.2068 71.3549 63.234C74.7274 62.4687 76.2904 59.7058 76.8028 58.5838C79.0468 60.7435 82.9705 56.69 81.7058 54.9519L81.7123 54.9454Z" fill="white"/>
<path d="M68.7024 63.8635C67.055 63.8635 65.5893 63.4874 64.4803 62.748C63.475 62.08 62.8459 61.1591 62.6513 60.076C62.1519 57.2418 64.4478 48.1685 64.5516 47.7794L65.6801 43.9399C65.719 43.8037 65.8422 43.7064 65.9914 43.7064L77.7886 43.6027C77.9637 43.6027 78.0805 43.7129 78.1129 43.8621L79.7148 51.969C79.7278 52.0274 79.7148 52.0923 79.6954 52.1506L79.0728 53.7396C79.9029 53.532 81.0963 53.5256 81.9848 54.7448C82.763 55.8085 81.9588 57.4493 80.8044 58.4546C79.7862 59.3366 78.2167 59.9787 76.9325 59.0772C76.2515 60.4067 74.6172 62.8064 71.4457 63.5328C70.4989 63.7468 69.5779 63.8571 68.7088 63.8571L68.7024 63.8635ZM66.2314 44.355L65.1742 47.948C65.1548 48.0258 62.8135 57.2612 63.2869 59.9592C63.4491 60.8607 63.9809 61.639 64.837 62.2032C66.3611 63.215 68.7737 63.4809 71.2966 62.9037C74.5134 62.1708 76.0181 59.5377 76.5174 58.4351C76.5628 58.3378 76.6472 58.273 76.7509 58.2471C76.8547 58.2276 76.9585 58.26 77.0363 58.3314C78.0545 59.3172 79.4295 58.7854 80.3699 57.9617C81.3168 57.138 81.9783 55.8474 81.453 55.121C80.5774 53.9212 79.3127 54.2649 78.6382 54.5697C78.515 54.6281 78.3788 54.6022 78.2815 54.5114C78.1842 54.4206 78.1518 54.2779 78.2037 54.1547L79.0533 51.995L77.5227 44.2447L66.2378 44.342L66.2314 44.355Z" fill="#4A4A4A"/>
<path d="M78.5475 53.6554L77.9443 55.1925C77.9443 55.1925 76.2516 55.4065 76.4137 53.9926C76.5759 52.5723 77.6979 48.9728 77.6979 48.9728C77.6979 48.9728 72.477 46.4045 65.5764 46.5213L64.7916 45.6392L66.8864 42.8958L78.7615 43.9465L80.2402 50.2505L78.5475 53.6554V53.6554Z" fill="#4A4A4A"/>
<path d="M44.3491 100.65L49.9137 104.742C50.4326 105.125 51.0228 105.417 51.6519 105.605L55.5627 106.584C56.0102 106.72 56.5031 106.409 56.6004 105.936C56.6782 105.546 56.4642 105.177 56.0945 105.073L53.1046 104.399L54.7195 104.353C55.0309 104.347 55.3486 104.269 55.6405 104.133L56.782 103.614C57.2165 103.413 57.4175 102.9 57.223 102.492L57.0349 102.103L57.0933 102.07C57.5278 101.811 57.6834 101.253 57.4435 100.838C57.2295 100.468 56.7625 100.332 56.3539 100.52C55.4784 100.922 54.0904 101.564 53.8894 101.642C53.5975 101.759 50.718 100.592 50.2056 99.9949C49.6932 99.3982 50.4131 99.0026 50.4131 99.0026L52.5209 99.1777C53.0917 99.2231 53.5975 98.6783 53.4613 98.1205C53.4613 98.1075 53.4613 98.1011 53.4549 98.0881C53.377 97.8027 53.15 97.5887 52.8582 97.5368L50.3483 97.0504L47.2547 95.0075C45.2895 93.879 43.6746 95.5976 43.4801 95.7533L35.8012 93.0553L34.7505 97.7055L44.3427 100.624L44.3491 100.65Z" fill="white"/>
<path d="M55.7833 106.934C55.6795 106.934 55.5757 106.921 55.472 106.889L51.5741 105.916C50.8932 105.715 50.277 105.41 49.7258 105.001L44.2066 100.941L34.6663 98.0357C34.5042 97.9839 34.4069 97.8217 34.4458 97.6531L35.4964 93.0029C35.5159 92.9122 35.5743 92.8343 35.6586 92.7889C35.7364 92.7435 35.8337 92.737 35.9245 92.7695L43.4218 95.4026C45.0951 93.9239 46.5219 94.2222 47.4299 94.7411L50.4846 96.7581L52.9296 97.2315C53.3447 97.3094 53.6755 97.6142 53.7792 98.0228C53.8765 98.4184 53.7792 98.7946 53.5263 99.0864C53.2669 99.3847 52.8842 99.5469 52.5016 99.5145L50.5105 99.3458C50.4457 99.3977 50.3743 99.4755 50.3549 99.5534C50.3419 99.6182 50.3808 99.696 50.4586 99.7933C50.8867 100.299 53.3642 101.298 53.8117 101.33C54.1295 101.194 55.6341 100.5 56.2178 100.228C56.782 99.9684 57.4241 100.163 57.7224 100.675C58.0143 101.175 57.8846 101.823 57.4436 102.206L57.5149 102.349C57.6446 102.621 57.6576 102.926 57.5538 103.218C57.4436 103.523 57.2166 103.769 56.9182 103.905L55.7768 104.424C55.6471 104.482 55.5109 104.534 55.3747 104.573L56.1659 104.748C56.7172 104.904 57.0285 105.436 56.9182 105.994C56.8534 106.318 56.6523 106.597 56.367 106.772C56.1854 106.882 55.9843 106.934 55.7768 106.934H55.7833ZM35.1397 97.5039L44.4465 100.338C44.4789 100.351 44.5114 100.364 44.5438 100.39L50.1084 104.482C50.6013 104.846 51.1526 105.118 51.7428 105.293L55.6406 106.266C55.7768 106.305 55.913 106.285 56.0362 106.214C56.1659 106.136 56.2567 106.006 56.2827 105.864C56.3281 105.643 56.2113 105.436 56.0038 105.377L53.0334 104.709C52.8713 104.67 52.7675 104.521 52.7805 104.359C52.7934 104.197 52.9296 104.074 53.0918 104.067L54.7067 104.022C54.9791 104.015 55.245 103.951 55.4979 103.834L56.6394 103.315C56.7756 103.25 56.8793 103.133 56.9312 102.997C56.9766 102.874 56.9701 102.738 56.9182 102.628L56.7302 102.238C56.6588 102.089 56.7107 101.908 56.8534 101.823C57.1906 101.622 57.2944 101.259 57.1452 101C57.0155 100.773 56.7302 100.695 56.4707 100.818C55.3487 101.337 54.1813 101.875 53.9933 101.953C53.4614 102.167 50.4262 100.779 49.9463 100.215C49.6804 99.9036 49.6674 99.6182 49.6998 99.4366C49.7776 98.9956 50.1992 98.7556 50.2446 98.7297C50.303 98.6973 50.3678 98.6908 50.4262 98.6908L52.534 98.8659C52.7091 98.8789 52.8907 98.801 53.0139 98.6584C53.1307 98.5222 53.1761 98.36 53.1372 98.2108C53.0918 98.0228 52.9556 97.8995 52.7869 97.8671L50.277 97.3807C50.2381 97.3742 50.1927 97.3548 50.1603 97.3353L47.0667 95.2923C46.016 94.6892 44.894 94.9097 43.759 95.9474L43.6747 96.0187C43.5839 96.0901 43.4672 96.1095 43.3634 96.0706L36.0283 93.4959L35.1268 97.4974L35.1397 97.5039Z" fill="#4A4A4A"/>
<path d="M28.4661 43.2719C28.4661 43.2719 21.7146 43.3173 19.7624 47.6496C18.5821 50.2763 14.9112 64.1294 17.4601 74.8436C20.0089 85.5577 33.0319 99.8259 39.7574 99.8259L41.3658 94.1057C41.3658 94.1057 30.4312 78.5598 26.9095 73.3389L26.488 60.8737" fill="#5C7965"/>
<path d="M40.0039 100.15H39.7574C32.7725 100.15 19.6652 85.5318 17.1423 74.9214C14.5805 64.1619 18.2902 50.1336 19.4641 47.5199C21.4746 43.0514 28.1742 42.9541 28.4596 42.9541V43.6027C28.4012 43.6027 21.8962 43.6999 20.0543 47.7858C18.8934 50.3606 15.2485 64.1683 17.7714 74.7722C20.2164 85.0518 32.6817 99.1644 39.511 99.4952L41.0091 94.1641C39.9585 92.6724 29.9577 78.4301 26.6436 73.5205L26.5917 73.4427L26.1637 60.8802L26.8122 60.8607L27.2338 73.2352C30.7684 78.469 41.5215 93.7684 41.6317 93.9176L41.7225 94.0473L40.0039 100.15V100.15Z" fill="#4A4A4A"/>
<path d="M86.771 74.7456C86.6738 74.3889 86.8164 74.0127 87.1083 73.7987C87.8217 73.2669 89.2485 72.1968 89.4366 72.0541C89.6831 71.8725 91.8103 71.8271 91.1293 73.7403C91.1293 73.7403 89.0605 74.4927 88.36 75.1283C87.6596 75.7639 86.8943 75.2061 86.771 74.7586V74.7456V74.7456Z" fill="white"/>
<path d="M87.6921 75.7378C87.5818 75.7378 87.4651 75.7183 87.3548 75.6859C86.9332 75.5626 86.5701 75.2189 86.4663 74.8428V74.8298C86.3301 74.3499 86.5117 73.8375 86.9203 73.5327L87.1862 73.3381C87.9385 72.7739 89.0864 71.9113 89.2551 71.788C89.521 71.5935 90.4744 71.5416 91.0775 71.9826C91.3823 72.2096 91.8363 72.7479 91.4472 73.844C91.4148 73.9348 91.3434 74.0061 91.2526 74.0385C90.6949 74.2396 89.1254 74.8752 88.5935 75.3616C88.3276 75.608 88.0163 75.7313 87.6985 75.7313L87.6921 75.7378ZM87.0889 74.6547V74.6741C87.1278 74.8038 87.3094 74.9984 87.5364 75.0633C87.7504 75.1216 87.958 75.0633 88.1525 74.8817C88.7816 74.3044 90.3771 73.6754 90.8765 73.4873C90.9997 73.0657 90.9543 72.7479 90.7532 72.5533C90.416 72.242 89.7415 72.2615 89.6118 72.3199C89.4691 72.4236 88.3276 73.2862 87.5753 73.8505L87.3094 74.045C87.1213 74.1877 87.0305 74.4277 87.0889 74.6482V74.6547Z" fill="#4A4A4A"/>
<path d="M92.4784 75.8155C92.6406 75.7377 93.0492 75.0956 92.4914 74.4406C91.9401 73.7856 91.3175 74.032 91.3175 74.032C91.3175 74.032 88.2563 75.7247 87.7894 75.9517C87.3224 76.1722 87.0695 77.2942 87.7375 77.6056C88.412 77.9169 91.7391 76.1593 92.4784 75.8155Z" fill="white"/>
<path d="M87.945 77.9619C87.8088 77.9619 87.6921 77.9425 87.6013 77.8971C87.2251 77.722 87.0046 77.3523 87.0046 76.8853C87.0046 76.4313 87.2251 75.8606 87.6532 75.6596C88.1072 75.4456 91.1359 73.7658 91.1683 73.7528C91.2397 73.7204 92.0504 73.4156 92.7443 74.2392C93.0492 74.5959 93.1659 75.0175 93.0751 75.4261C93.0102 75.7374 92.8222 76.0228 92.6211 76.1136C92.5108 76.1654 92.3422 76.2497 92.1282 76.3535C90.0917 77.3588 88.6973 77.9684 87.9515 77.9684L87.945 77.9619ZM91.6029 74.3106C91.5121 74.3106 91.4472 74.33 91.4342 74.3365C91.3499 74.3884 88.4055 76.0163 87.932 76.2433C87.8153 76.3016 87.6532 76.5675 87.6532 76.8853C87.6532 77.0345 87.6921 77.2291 87.8737 77.3134C88.0877 77.3912 88.9568 77.1902 91.8364 75.7698C92.0374 75.6725 92.206 75.5882 92.3163 75.5364C92.3617 75.4845 92.6276 75.1083 92.2449 74.6543C92.005 74.3689 91.7585 74.3106 91.6029 74.3106V74.3106Z" fill="#4A4A4A"/>
<path d="M92.1346 76.6402C92.2708 76.6661 92.5238 76.6143 92.9842 76.9126C93.4382 77.2109 93.9441 78.2292 93.5744 78.6767C93.2048 79.1307 89.6312 80.7456 89.2745 80.8234C88.9178 80.9012 87.7374 80.1294 88.5222 79.2928C89.1707 78.5988 90.7143 78.1578 91.6936 77.5806C92.0179 77.386 92.193 77.0164 92.1346 76.6402V76.6402Z" fill="white"/>
<path d="M89.2161 81.1539C88.8335 81.1539 88.3211 80.8296 88.0812 80.421C87.8217 79.9735 87.8996 79.4871 88.2822 79.072C88.7297 78.5921 89.5274 78.2418 90.2927 77.8981C90.7273 77.7035 91.1683 77.509 91.525 77.3014C91.739 77.1782 91.8493 76.9383 91.8104 76.6918C91.7909 76.588 91.8298 76.4778 91.9076 76.4064C91.9855 76.3351 92.0957 76.3027 92.1995 76.3221C92.42 76.3416 92.7248 76.361 93.1594 76.6399C93.5485 76.8928 93.9246 77.509 94.009 78.0408C94.0608 78.3845 94.0025 78.6764 93.8274 78.8839C93.3734 79.4417 89.6701 81.0695 89.3458 81.1409C89.3069 81.1539 89.2615 81.1539 89.2161 81.1539V81.1539ZM92.4459 77.0096C92.3811 77.3663 92.1736 77.6711 91.8558 77.8592C91.4731 78.0862 91.0062 78.2937 90.5586 78.4948C89.8517 78.8061 89.1189 79.1368 88.7557 79.5195C88.5287 79.7595 88.5676 79.9346 88.613 80.0448C88.7362 80.3302 89.1059 80.5118 89.2032 80.5118C89.5858 80.4145 93.0037 78.8385 93.315 78.4753C93.3669 78.4105 93.3799 78.2937 93.3604 78.1446C93.302 77.7554 93.0167 77.3274 92.8026 77.1912C92.6535 77.0939 92.5367 77.0485 92.4459 77.0226V77.0096Z" fill="#4A4A4A"/>
<path d="M93.1334 79.9663C93.1334 79.9663 93.8468 80.79 93.2955 81.6785C92.7442 82.5671 91.8557 83.6112 90.5391 84.0458C90.5391 84.0458 89.5922 83.501 90.4029 82.606C91.2136 81.711 92.0957 80.8484 92.2902 80.1868C92.4913 79.5318 93.1334 79.9598 93.1334 79.9598V79.9663Z" fill="white"/>
<path d="M90.5391 84.3701C90.4808 84.3701 90.4289 84.3571 90.377 84.3247C90.3251 84.2922 89.8452 84.0069 89.7609 83.4686C89.7025 83.1054 89.8387 82.7422 90.1565 82.3855L90.5651 81.938C91.1877 81.2635 91.8298 80.5695 91.9789 80.0896C92.0892 79.7329 92.2967 79.5967 92.4589 79.5383C92.8545 79.3956 93.2631 79.6616 93.3085 79.6875C93.3344 79.707 93.3539 79.7199 93.3733 79.7459C93.6717 80.0961 94.0997 80.9781 93.5614 81.8407C92.7766 83.1054 91.7649 83.9745 90.6299 84.3441C90.5975 84.3571 90.5651 84.3571 90.5262 84.3571L90.5391 84.3701ZM92.7118 80.1545C92.7118 80.1545 92.6858 80.1545 92.6794 80.1545C92.6534 80.161 92.6275 80.2128 92.6015 80.2842C92.4135 80.9003 91.7519 81.6202 91.045 82.3855L90.6429 82.8265C90.4613 83.0276 90.3835 83.2092 90.4029 83.3648C90.4224 83.4945 90.5132 83.6048 90.591 83.6826C91.5249 83.3324 92.3421 82.5995 93.0166 81.5099C93.3798 80.9198 93.0166 80.3555 92.9128 80.2128C92.848 80.1804 92.7637 80.148 92.7053 80.148L92.7118 80.1545Z" fill="#4A4A4A"/>
<path d="M26.2413 28.2831C26.4618 27.9135 26.9028 27.6865 27.3244 27.5762C26.1829 24.4178 26.2997 20.9026 28.5891 18.023C31.1379 14.8256 36.3523 11.5504 42.5784 15.4158C44.6927 16.7259 47.3194 24.3075 46.7422 28.6009C46.4049 31.1433 46.1325 35.5535 43.9663 36.9154C40.97 38.8092 35.9048 36.2604 32.8696 34.425C31.9032 33.8478 31.0212 33.1279 30.2364 32.3172C30.1197 32.3755 29.9965 32.4339 29.8667 32.4728C29.0885 32.7063 28.2194 32.5182 27.5514 32.0577C26.8834 31.5973 26.4164 30.8839 26.17 30.1121C25.9754 29.5154 25.917 28.8215 26.2413 28.2896V28.2831Z" fill="white"/>
<path d="M41.3917 37.9144C39.1477 37.9144 36.2357 36.8443 32.6946 34.704C31.7931 34.1592 30.9435 33.4912 30.1587 32.7065C30.0939 32.7324 30.0225 32.7584 29.9577 32.7778C29.1146 33.0308 28.1482 32.8621 27.3635 32.3173C26.6825 31.8439 26.1442 31.0916 25.8588 30.203C25.6772 29.6323 25.541 28.8087 25.9626 28.1082C26.1961 27.7256 26.5852 27.4921 26.9095 27.3624C25.7291 23.8342 26.235 20.4488 28.3363 17.8092C31.3326 14.0475 36.6897 11.369 42.7472 15.1306C44.9328 16.4861 47.6697 24.1001 47.0601 28.64C47.0212 28.9319 46.9823 29.2432 46.9434 29.5804C46.6191 32.246 46.1846 35.9039 44.1351 37.188C43.3698 37.6679 42.4554 37.9144 41.3917 37.9144V37.9144ZM30.2301 31.9931C30.3144 31.9931 30.3987 32.0255 30.4636 32.0903C31.2483 32.901 32.1109 33.595 33.0318 34.1463C37.9479 37.1167 41.6706 37.9792 43.7914 36.6367C45.5814 35.5147 45.9965 32.0385 46.3013 29.4961C46.3402 29.1589 46.3791 28.8411 46.418 28.5492C46.9758 24.4114 44.3686 16.9012 42.4035 15.6819C36.7092 12.1473 31.6634 14.6701 28.8422 18.2177C26.8252 20.7536 26.3906 24.0353 27.6294 27.4597C27.6618 27.544 27.6553 27.6413 27.6099 27.7191C27.571 27.7969 27.4932 27.8618 27.4089 27.8812C26.9938 27.9915 26.6695 28.199 26.5203 28.4455C26.209 28.9578 26.3647 29.6388 26.4814 30.002C26.7279 30.7543 27.1689 31.3899 27.7396 31.7855C28.3493 32.2071 29.1275 32.3498 29.7761 32.1552C29.8864 32.1228 29.9901 32.0774 30.0874 32.0255C30.1328 31.9995 30.1847 31.9866 30.2366 31.9866L30.2301 31.9931Z" fill="#4A4A4A"/>
<path d="M30.6451 5.85011C30.6451 5.85011 34.1733 1.98472 35.0812 2.15334C35.9892 2.32197 36.2097 3.54773 36.2097 3.54773C36.2097 3.54773 41.2555 0.869198 42.144 2.14037C43.0325 3.41154 42.4359 4.91619 42.4359 4.91619C42.4359 4.91619 45.9056 5.10427 47.0795 6.07061C48.2599 7.03696 47.326 7.56229 47.326 7.56229C47.326 7.56229 51.6129 9.38474 51.4638 10.8699C51.3146 12.3551 49.8813 12.5691 49.8813 12.5691C49.8813 12.5691 55.0049 15.1309 53.7013 16.6745C52.3912 18.2116 51.9567 18.0884 51.9567 18.0884C51.9567 18.0884 52.7284 19.3984 52.1188 20.4945C51.5092 21.5906 49.2522 20.7215 49.2522 20.7215C49.2522 20.7215 49.557 22.1937 49.1484 22.3299C48.7398 22.4661 47.5789 21.5646 47.5789 21.5646C47.5789 21.5646 47.3519 22.051 46.9628 22.2521C46.5737 22.4531 46.3596 22.732 46.3596 22.732C46.3596 22.732 45.1793 18.2181 44.4269 18.1338C43.6746 18.0494 43.1363 16.2724 41.7225 17.3749C41.3658 17.6538 39.0439 17.6668 37.682 16.9404C36.6702 16.4021 36.5405 16.8496 36.5405 16.8496C36.5405 16.8496 36.08 18.5813 35.3018 18.9834C34.5235 19.3855 33.9333 18.4256 33.9333 18.4256C33.9333 18.4256 34.3484 21.6814 30.0225 23.4454C29.1859 23.7892 29.9577 25.1771 29.9577 25.1771L31.8839 31.2346L29.9447 28.9711C29.9447 28.9711 28.3233 26.4158 25.9626 28.6987C25.4502 29.1981 27.0197 31.8053 27.0197 31.8053C27.0197 31.8053 25.087 33.4851 23.8483 30.8455C23.6472 30.4174 23.6342 29.8272 23.6342 29.8272C23.6342 29.8272 18.7441 29.0749 18.6274 26.9995C18.5106 24.9241 19.7559 23.4 19.7559 23.4C19.7559 23.4 18.141 23.4714 17.9464 22.3105C17.7454 21.1495 18.0177 20.9874 18.4652 20.7669C18.9128 20.5464 18.1085 20.6826 18.4263 19.6838C18.7441 18.685 20.1839 17.9262 20.1839 17.9262C20.1839 17.9262 18.2188 17.9133 18.3096 16.6486C18.4004 15.3839 19.237 14.7613 19.6067 14.4954C19.9764 14.2359 19.6456 13.4577 19.9115 13.0945C20.1774 12.7313 20.9427 12.4719 20.9427 12.4719C20.9427 12.4719 20.1126 10.4095 21.5329 9.5793C22.9533 8.75564 26.0404 7.91252 26.0404 7.91252C26.0404 7.91252 25.3918 6.01225 25.8782 5.70742C26.3647 5.4026 26.9354 5.55178 26.9354 5.55178C26.9354 5.55178 25.6318 4.42328 27.2078 4.42977C28.7838 4.44274 30.6386 5.8566 30.6386 5.8566L30.6451 5.85011Z" fill="#4A4A4A"/>
<path d="M29.2118 29.8145L33.1096 35.8525L29.2442 39.6336L26.0468 36.8253L29.2118 29.8145Z" fill="#E77B5E"/>
<path d="M191.941 189.956C193.649 189.956 195.034 188.571 195.034 186.862C195.034 185.153 193.649 183.768 191.941 183.768C190.232 183.768 188.847 185.153 188.847 186.862C188.847 188.571 190.232 189.956 191.941 189.956Z" fill="#4A4A4A"/>
<path d="M141.879 95.0011L143.552 94.0412L161.828 128.687L160.155 129.64L141.879 95.0011Z" fill="white"/>
<path d="M160.026 130.088L141.444 94.871L143.682 93.5933L162.263 128.81L160.026 130.088ZM142.313 95.1239L160.285 129.193L161.394 128.557L143.423 94.4883L142.313 95.1239Z" fill="#4A4A4A"/>
<path d="M159.811 127.778L172.951 120.281C174.728 119.269 176.985 119.885 177.997 121.662L201.961 167.282L204.938 172.503C205.95 174.28 205.334 176.537 203.557 177.548L190.417 185.046C188.64 186.057 186.383 185.441 185.371 183.664L158.43 132.824C157.418 131.047 158.034 128.79 159.811 127.778V127.778Z" fill="#EEB962"/>
<path d="M188.594 185.857C188.238 185.857 187.881 185.811 187.524 185.714C186.487 185.429 185.624 184.761 185.092 183.827L158.145 132.973C157.049 131.054 157.723 128.596 159.649 127.493L172.789 119.996C174.715 118.9 177.18 119.568 178.276 121.494L202.247 167.126L205.217 172.341C206.313 174.267 205.645 176.731 203.719 177.828L190.579 185.325C189.963 185.675 189.282 185.857 188.594 185.857V185.857ZM159.974 128.057C158.359 128.978 157.794 131.041 158.715 132.662L185.663 183.515C186.104 184.287 186.83 184.851 187.699 185.091C188.568 185.331 189.476 185.215 190.261 184.767L203.401 177.27C205.016 176.349 205.58 174.286 204.659 172.665L201.682 167.444L177.712 121.812C177.271 121.04 176.544 120.476 175.675 120.242C174.806 120.009 173.898 120.119 173.113 120.567L159.974 128.064V128.057Z" fill="#4A4A4A"/>
<path d="M140.51 94.345C140.556 92.8923 141.769 91.7443 143.228 91.7897C144.681 91.8351 145.829 93.0479 145.783 94.5072C145.738 95.9599 144.525 97.1079 143.066 97.0625C141.613 97.0171 140.465 95.8043 140.51 94.345V94.345Z" fill="white"/>
<path d="M143.144 97.387C143.144 97.387 143.085 97.387 143.053 97.387C142.262 97.361 141.529 97.0302 140.984 96.4595C140.439 95.8823 140.154 95.13 140.18 94.3387C140.206 93.5475 140.536 92.8146 141.107 92.2698C141.684 91.7251 142.443 91.4462 143.228 91.4656C144.019 91.4916 144.752 91.8223 145.297 92.3931C145.842 92.9703 146.127 93.7226 146.101 94.5138C146.075 95.3051 145.744 96.038 145.174 96.5827C144.622 97.1016 143.902 97.387 143.144 97.387ZM143.144 92.1142C142.553 92.1142 141.996 92.3347 141.561 92.7433C141.114 93.1649 140.854 93.7421 140.835 94.3582C140.815 94.9743 141.036 95.5645 141.464 96.012C141.885 96.4595 142.463 96.7189 143.079 96.7384C143.695 96.7643 144.285 96.5374 144.733 96.1093C145.18 95.6877 145.44 95.1105 145.459 94.4944C145.478 93.8783 145.258 93.2881 144.83 92.8406C144.408 92.3931 143.831 92.1337 143.215 92.1142C143.189 92.1142 143.17 92.1142 143.144 92.1142Z" fill="#4A4A4A"/>
<path d="M166.574 124.256L166.005 124.567L196.797 181.115L197.367 180.805L166.574 124.256Z" fill="#4A4A4A"/>
<path d="M113.018 198.342L85.7531 198.063C83.6193 198.044 81.9071 196.306 81.9266 194.172L82.0239 182.187C82.0433 180.053 83.7815 178.341 85.9152 178.36L113.18 178.639C114.14 178.646 114.912 179.43 114.899 180.39L114.763 196.624C114.756 197.584 113.972 198.355 113.012 198.342H113.018Z" fill="white"/>
<path d="M113.031 198.667H113.012L85.7465 198.388C84.631 198.381 83.5803 197.934 82.7956 197.136C82.0108 196.338 81.5828 195.288 81.5957 194.166L81.693 182.18C81.6995 181.065 82.147 180.014 82.9447 179.229C83.736 178.451 84.7737 178.03 85.8762 178.03H85.9151L113.18 178.308C114.315 178.315 115.23 179.249 115.223 180.384L115.087 196.617C115.081 197.746 114.153 198.66 113.025 198.66L113.031 198.667ZM113.018 198.018H113.031C113.803 198.018 114.439 197.395 114.445 196.617L114.581 180.384C114.581 179.606 113.959 178.97 113.18 178.957L85.9151 178.678H85.8827C84.9488 178.678 84.0732 179.035 83.4052 179.696C82.7307 180.358 82.3546 181.246 82.3481 182.187L82.2508 194.172C82.2443 195.119 82.601 196.008 83.2625 196.682C83.9241 197.357 84.8126 197.733 85.753 197.739L113.018 198.018V198.018Z" fill="#4A4A4A"/>
<path d="M114.75 187.978H81.9785V188.627H114.75V187.978Z" fill="#4A4A4A"/>
<path d="M120.483 158.319H168.288C177.167 158.319 184.379 165.531 184.379 174.41V195.611C184.379 198.711 181.862 201.228 178.762 201.228H120.483V158.319V158.319Z" fill="#7FB0A1"/>
<path d="M178.756 201.552H120.477C120.295 201.552 120.152 201.409 120.152 201.228V158.319C120.152 158.137 120.295 157.995 120.477 157.995H168.282C177.335 157.995 184.697 165.356 184.697 174.41V195.611C184.697 198.886 182.031 201.552 178.756 201.552V201.552ZM120.801 200.903H178.756C181.674 200.903 184.048 198.53 184.048 195.611V174.41C184.048 165.719 176.979 158.643 168.282 158.643H120.801V200.903V200.903Z" fill="#4A4A4A"/>
<path d="M110.722 158.319H158.527C167.406 158.319 174.618 165.531 174.618 174.41V195.371C174.618 198.607 171.991 201.227 168.762 201.227H110.729V158.319H110.722Z" fill="#7FB0A1"/>
<path d="M168.755 201.552H110.722C110.541 201.552 110.398 201.409 110.398 201.227V158.319C110.398 158.137 110.541 157.995 110.722 157.995H158.527C167.581 157.995 174.942 165.356 174.942 174.41V195.371C174.942 198.782 172.167 201.552 168.762 201.552H168.755ZM111.047 200.903H168.755C171.81 200.903 174.287 198.419 174.287 195.371V174.41C174.287 165.719 167.218 158.643 158.521 158.643H111.04V200.903H111.047Z" fill="#4A4A4A"/>
<path d="M139.914 158.254V153.851C139.914 151.905 141.749 150.322 144.019 150.322H152.522C154.792 150.322 156.627 151.905 156.627 153.851V158.254" fill="white"/>
<path d="M156.958 158.254H156.309V153.85C156.309 152.086 154.617 150.646 152.528 150.646H144.026C141.944 150.646 140.245 152.086 140.245 153.85V158.254H139.596V153.85C139.596 151.723 141.581 149.998 144.026 149.998H152.528C154.973 149.998 156.958 151.723 156.958 153.85V158.254Z" fill="#4A4A4A"/>
<path d="M133.229 126.289L132.684 154.165L133.333 154.178L133.878 126.302L133.229 126.289Z" fill="#4A4A4A"/>
<path d="M119.126 126.293L118.581 154.169L119.23 154.182L119.775 126.306L119.126 126.293Z" fill="#4A4A4A"/>
<path d="M134.998 125.645H118.006C116.852 125.645 115.917 126.58 115.917 127.734C115.917 128.887 116.852 129.822 118.006 129.822H134.998C136.151 129.822 137.086 128.887 137.086 127.734C137.086 126.58 136.151 125.645 134.998 125.645Z" fill="white"/>
<path d="M135.004 130.146H118.012C116.683 130.146 115.599 129.063 115.599 127.734C115.599 126.404 116.683 125.321 118.012 125.321H135.004C136.334 125.321 137.417 126.404 137.417 127.734C137.417 129.063 136.334 130.146 135.004 130.146ZM118.012 125.969C117.039 125.969 116.248 126.761 116.248 127.734C116.248 128.706 117.039 129.498 118.012 129.498H135.004C135.977 129.498 136.768 128.706 136.768 127.734C136.768 126.761 135.977 125.969 135.004 125.969H118.012Z" fill="#4A4A4A"/>
<path d="M142.531 142.253L118.672 142.057C113.625 142.016 109.5 146.073 109.459 151.12L109.057 200.117C109.015 205.163 113.073 209.288 118.12 209.33L141.979 209.525C147.026 209.567 151.151 205.509 151.192 200.462L151.594 151.466C151.635 146.419 147.578 142.294 142.531 142.253Z" fill="#FAB768"/>
<path d="M142.035 209.86C142.035 209.86 141.983 209.86 141.957 209.86L118.096 209.665C115.567 209.646 113.2 208.64 111.429 206.837C109.659 205.034 108.692 202.648 108.712 200.125L109.114 151.133C109.159 145.912 113.44 141.697 118.654 141.748L142.514 141.943C145.044 141.962 147.411 142.968 149.182 144.771C150.952 146.574 151.919 148.96 151.899 151.483L151.497 200.475C151.452 205.664 147.217 209.86 142.035 209.86ZM118.576 142.39C113.751 142.39 109.801 146.295 109.762 151.133L109.36 200.125C109.321 204.989 113.245 208.971 118.103 209.017L141.963 209.211H142.035C146.86 209.211 150.81 205.307 150.848 200.469L151.251 151.477C151.27 149.122 150.368 146.898 148.721 145.225C147.067 143.545 144.862 142.611 142.508 142.592L118.648 142.397H118.576V142.39Z" fill="#4A4A4A"/>
<path d="M131 142.255L106.726 142.056C101.794 142.015 97.7626 145.981 97.7221 150.913L97.3168 200.325C97.2763 205.257 101.242 209.288 106.174 209.328L130.448 209.528C135.381 209.568 139.412 205.603 139.452 200.67L139.857 151.259C139.898 146.327 135.932 142.296 131 142.255Z" fill="#FAB768"/>
<path d="M130.503 209.859H130.425L106.144 209.658C103.673 209.639 101.357 208.66 99.6256 206.896C97.8939 205.131 96.947 202.803 96.9665 200.332L97.3751 150.912C97.414 145.834 101.558 141.735 106.63 141.735H106.708L130.99 141.936C136.094 141.982 140.206 146.165 140.167 151.269L139.758 200.682C139.719 205.761 135.575 209.859 130.503 209.859ZM130.432 209.211H130.503C135.218 209.211 139.071 205.397 139.11 200.676L139.518 151.262C139.557 146.515 135.731 142.624 130.983 142.585L106.701 142.384H106.63C101.915 142.384 98.0625 146.197 98.0236 150.919L97.615 200.339C97.5956 202.635 98.4711 204.807 100.086 206.442C101.701 208.082 103.854 208.99 106.15 209.01L130.432 209.211Z" fill="#4A4A4A"/>
<path d="M109.51 173.872L109.419 173.23C109.795 173.178 118.687 171.803 118.829 162.366C118.901 157.541 116.747 154.428 114.666 151.419C112.623 148.461 110.69 145.673 111.533 141.742L112.169 141.879C111.377 145.536 113.148 148.092 115.197 151.049C117.24 154 119.556 157.347 119.478 162.379C119.329 172.38 109.607 173.859 109.51 173.872V173.872Z" fill="#4A4A4A"/>
<path d="M87.0501 165.493C87.0047 165.279 85.98 160.233 88.8531 156.465C90.6366 154.123 93.5291 152.813 97.4464 152.586L97.4853 153.235C93.7691 153.455 91.0387 154.675 89.3719 156.86C86.6739 160.388 87.6727 165.318 87.6857 165.363L87.0501 165.499V165.493Z" fill="#4A4A4A"/>
<path d="M110.567 166.491L91.7262 158.274C90.8182 157.878 89.7546 158.3 89.3589 159.202L87.971 162.386L84.5985 170.117C84.2029 171.025 84.6245 172.088 85.526 172.484L104.367 180.701C105.274 181.097 106.338 180.675 106.734 179.774L110.106 172.043L111.494 168.859C111.89 167.951 111.468 166.887 110.567 166.491Z" fill="#F3F2F0"/>
<path d="M105.086 181.175C104.801 181.175 104.516 181.116 104.243 181L85.4028 172.782C84.3326 172.315 83.8397 171.064 84.3067 169.987L89.0671 159.072C89.5341 158.002 90.7858 157.509 91.8624 157.976L110.703 166.193C111.222 166.42 111.617 166.835 111.825 167.361C112.032 167.886 112.026 168.463 111.799 168.982L107.039 179.897C106.812 180.416 106.397 180.812 105.871 181.019C105.618 181.116 105.352 181.168 105.093 181.168L105.086 181.175ZM91.0063 158.449C90.4356 158.449 89.8972 158.78 89.6508 159.331L84.8904 170.247C84.5661 170.992 84.9099 171.861 85.6492 172.186L104.49 180.403C104.846 180.559 105.249 180.565 105.618 180.422C105.988 180.28 106.273 180.001 106.429 179.644L111.189 168.729C111.514 167.983 111.17 167.114 110.431 166.79L91.59 158.573C91.4019 158.488 91.2008 158.449 91.0063 158.449Z" fill="#4A4A4A"/>
<path d="M103.082 171.815C101.857 174.624 98.5878 175.908 95.786 174.682C92.9778 173.456 91.6937 170.188 92.9194 167.386C94.1452 164.578 97.4139 163.293 100.216 164.519C103.024 165.745 104.308 169.014 103.082 171.815Z" fill="white"/>
<path d="M97.9977 175.473C97.1999 175.473 96.4022 175.311 95.6564 174.98C94.2166 174.351 93.114 173.203 92.5368 171.744C91.9661 170.285 91.992 168.689 92.6211 167.25C93.9117 164.286 97.3815 162.924 100.345 164.214C103.309 165.505 104.671 168.975 103.381 171.939C102.752 173.378 101.604 174.481 100.144 175.058C99.4504 175.331 98.724 175.467 97.9977 175.467V175.473ZM98.0041 164.383C95.9871 164.383 94.0674 165.557 93.2113 167.515C92.6536 168.793 92.6276 170.213 93.14 171.511C93.6523 172.808 94.6316 173.832 95.9158 174.39C97.1934 174.948 98.6138 174.974 99.9109 174.462C101.208 173.949 102.233 172.97 102.79 171.686C103.938 169.046 102.732 165.965 100.092 164.811C99.418 164.513 98.7111 164.376 98.0106 164.376L98.0041 164.383Z" fill="#4A4A4A"/>
<path d="M97.9912 173.677C97.4464 173.677 96.8951 173.567 96.3698 173.34C95.371 172.905 94.6057 172.107 94.2036 171.096C93.808 170.084 93.8275 168.975 94.262 167.976C94.6965 166.977 95.4943 166.212 96.506 165.81C97.5178 165.414 98.6268 165.434 99.6256 165.868C101.688 166.763 102.628 169.176 101.733 171.232C101.065 172.763 99.5672 173.677 97.9912 173.677ZM98.0042 166.173C96.6811 166.173 95.4229 166.945 94.8587 168.229C94.1064 169.961 94.8976 171.984 96.6292 172.737C98.3609 173.489 100.384 172.698 101.137 170.966C101.889 169.234 101.098 167.211 99.3662 166.452C98.9186 166.257 98.4582 166.167 98.0042 166.167V166.173Z" fill="#4A4A4A"/>
<path d="M103.705 161.004L102.537 160.498L101.856 160.2L100.696 159.687L98.458 161.211L100.942 162.295L101.623 162.593L104.107 163.676L103.705 161.004Z" fill="white"/>
<path d="M104.107 164C104.062 164 104.016 163.994 103.977 163.974L98.3284 161.51C98.2181 161.465 98.1468 161.361 98.1338 161.244C98.1208 161.127 98.1792 161.011 98.2765 160.946L100.507 159.422C100.598 159.357 100.715 159.344 100.819 159.396L103.828 160.706C103.932 160.751 104.003 160.842 104.016 160.952L104.418 163.624C104.438 163.741 104.392 163.858 104.295 163.929C104.237 163.974 104.165 163.994 104.1 163.994L104.107 164ZM99.1261 161.153L103.698 163.144L103.407 161.231L100.728 160.064L99.1261 161.153V161.153Z" fill="#4A4A4A"/>
</svg>
