<svg width="277" height="150" viewBox="0 0 277 150" fill="none" xmlns="http://www.w3.org/2000/svg">
<path d="M276.538 106.659H0.200094C0.0880413 106.659 0 106.572 0 106.46C0 106.348 0.0880413 106.26 0.200094 106.26H276.538C276.65 106.26 276.738 106.348 276.738 106.46C276.738 106.572 276.65 106.659 276.538 106.659Z" fill="#4A4A4A"/>
<mask id="mask0_3_1113" style="mask-type:alpha" maskUnits="userSpaceOnUse" x="45" y="0" width="217" height="150">
<path d="M155 150C214.095 150 262 116.421 262 75C262 33.5786 214.095 0 155 0C95.9056 0 45 23.9711 45 75C45 126.029 95.9056 150 155 150Z" fill="white"/>
</mask>
<g mask="url(#mask0_3_1113)">
<path d="M65.3099 100.77C65.3099 100.77 65.3099 100.84 65.3099 100.87V101C65.3179 102.408 65.8829 103.756 66.8816 104.75C67.8803 105.743 69.2315 106.3 70.6399 106.3H70.7399C72.1484 106.3 73.4995 105.743 74.4982 104.75C75.497 103.756 76.062 102.408 76.0699 101V100.89C76.0699 100.89 76.0699 100.82 76.0699 100.79L65.3099 100.77Z" fill="#1E1D1D"/>
<path d="M52 100.77V101C52 101.699 52.1379 102.392 52.4059 103.038C52.6739 103.684 53.0667 104.271 53.5617 104.765C54.0568 105.26 54.6444 105.651 55.2911 105.918C55.9377 106.185 56.6305 106.321 57.33 106.32H57.43C58.1295 106.321 58.8223 106.185 59.4689 105.918C60.1156 105.651 60.7032 105.26 61.1983 104.765C61.6933 104.271 62.0861 103.684 62.3541 103.038C62.6221 102.392 62.76 101.699 62.76 101V100.79L52 100.77Z" fill="#1E1D1D"/>
<path d="M195.69 69.17L165.84 40.05L146.7 69.32L195.69 69.17Z" fill="#E6E2DC"/>
<path d="M125.34 69.15L140.95 56.58H144.98L165.78 40.01V53.37L156.09 58.65V63.85L147.58 69.15H125.34Z" fill="white"/>
<path d="M251.98 64.96L215.31 25.82L196.81 64.96H251.98Z" fill="#E6E2DC"/>
<path d="M164.48 65.11L192.68 40.7H198.22L215.41 25.82V44.44L209.4 48.97L209.25 54.98L197.94 65.06L164.48 65.11Z" fill="white"/>
<path d="M242.35 38.96L266.59 64.96H230.55L242.35 38.96Z" fill="#E6E2DC"/>
<path d="M208.34 65.46L220.35 55.02H224.48L242.35 38.98V50.79L238.69 54.3V57.81L234.62 61.43L230.55 64.89L209.05 64.93" fill="white"/>
<path d="M125.17 103.55C125.81 104.48 126.17 105.3 127.33 105.3H173.09C173.68 105.299 174.259 105.144 174.771 104.851C175.283 104.559 175.71 104.138 176.01 103.63L176.73 102.44C177.029 101.931 177.455 101.509 177.968 101.216C178.48 100.923 179.06 100.769 179.65 100.77H203C203.547 100.77 204.087 100.902 204.572 101.154C205.058 101.407 205.476 101.772 205.79 102.22L206.79 103.71C207.113 104.177 207.55 104.556 208.059 104.809C208.567 105.063 209.132 105.183 209.7 105.16C213.02 105.03 216.35 104.8 219.7 104.47L246.18 101.83C248.27 101.624 250.209 100.648 251.619 99.0916C253.029 97.5353 253.81 95.5102 253.81 93.41V86.9C253.804 85.4668 253.434 84.0586 252.735 82.8078C252.035 81.557 251.028 80.5047 249.81 79.75L225.8 64.54C216.433 58.6211 205.58 55.4796 194.5 55.48H90.7401C89.8384 55.48 88.9735 55.8382 88.3359 56.4758C87.6983 57.1134 87.3401 57.9782 87.3401 58.88V101.88C87.3401 102.783 87.698 103.648 88.3353 104.288C88.9727 104.927 89.8374 105.287 90.7401 105.29C91.331 105.288 91.9112 105.133 92.4245 104.84C92.9379 104.547 93.3669 104.127 93.6701 103.62L94.3801 102.43C94.6787 101.921 95.1053 101.499 95.6176 101.206C96.1299 100.913 96.7099 100.759 97.3001 100.76H123.45L125.17 103.55Z" fill="#7FB0A1" stroke="#1E1D1D" stroke-width="0.75" stroke-miterlimit="10"/>
<path d="M252.953 91C253.016 91.9897 253.016 92.9827 252.953 93.9724C252.8 95.922 252.025 97.7567 250.758 99.1707C249.491 100.585 247.809 101.493 245.991 101.743C245.991 101.743 214.483 105.268 209.689 105.236C205.472 105.236 207.491 100.597 201.733 100.575C195.298 100.575 179.057 100.671 179.057 100.671C178.372 100.692 177.953 101.3 177.416 101.754C176.878 102.207 176.25 102.481 176.073 103.187C175.248 105.83 171.946 106 171.946 106L162 105.469L174.492 91.2972L252.953 91Z" fill="#5C7965"/>
<path d="M182 91H87V101H182V91Z" fill="#5C7965"/>
<path d="M47.64 104.07C47 105 46.64 105.82 45.48 105.82H-0.280029C-0.869784 105.819 -1.44909 105.664 -1.96103 105.371C-2.47297 105.079 -2.89995 104.658 -3.20003 104.15L-3.92003 102.96C-4.21859 102.451 -4.64524 102.029 -5.15752 101.736C-5.66981 101.443 -6.24988 101.289 -6.84003 101.29H-30.19C-30.7373 101.29 -31.2765 101.422 -31.7621 101.674C-32.2477 101.927 -32.6655 102.292 -32.98 102.74L-33.98 104.23C-34.3034 104.698 -34.7398 105.076 -35.2486 105.329C-35.7574 105.583 -36.3221 105.703 -36.89 105.68C-40.21 105.55 -43.54 105.32 -46.89 104.99L-73.37 102.35C-75.4601 102.144 -77.3988 101.168 -78.809 99.6116C-80.2193 98.0554 -81.0002 96.0302 -81 93.93V87.42C-80.9944 85.9868 -80.6243 84.5786 -79.9245 83.3278C-79.2248 82.077 -78.2184 81.0248 -77 80.27L-52.99 65.06C-43.6233 59.1411 -32.7702 55.9996 -21.69 56H82.07C82.9717 56 83.8365 56.3582 84.4741 56.9958C85.1118 57.6335 85.47 58.4983 85.47 59.4V102.4C85.47 103.303 85.1121 104.168 84.4747 104.808C83.8374 105.447 82.9726 105.807 82.07 105.81C81.4791 105.808 80.8989 105.653 80.3855 105.36C79.8722 105.067 79.4432 104.647 79.14 104.14L78.43 102.95C78.1314 102.441 77.7048 102.019 77.1925 101.726C76.6802 101.433 76.1001 101.279 75.51 101.28H49.36L47.64 104.07Z" fill="#7FB0A1" stroke="#1E1D1D" stroke-width="0.75" stroke-miterlimit="10"/>
<path d="M85 92H33V101H85V92Z" fill="#5C7965"/>
<path d="M123.45 99.78L123.53 100.38L125.44 103.38L126.13 104.32C126.255 104.512 126.425 104.669 126.626 104.779C126.827 104.889 127.051 104.948 127.28 104.95H132.45V99.8L123.45 99.78Z" fill="#5C7965"/>
<path d="M125.17 103.55C125.81 104.48 126.17 105.3 127.33 105.3H173.09C173.68 105.299 174.259 105.144 174.771 104.851C175.283 104.559 175.71 104.138 176.01 103.63L176.73 102.44C177.029 101.931 177.455 101.509 177.968 101.216C178.48 100.923 179.06 100.769 179.65 100.77H203C203.547 100.77 204.087 100.902 204.572 101.154C205.058 101.407 205.476 101.772 205.79 102.22L206.79 103.71C207.113 104.177 207.55 104.556 208.059 104.809C208.567 105.063 209.132 105.183 209.7 105.16C213.02 105.03 216.35 104.8 219.7 104.47L246.18 101.83C248.27 101.624 250.209 100.648 251.619 99.0916C253.029 97.5353 253.81 95.5102 253.81 93.41V86.9C253.804 85.4668 253.434 84.0586 252.735 82.8078C252.035 81.557 251.028 80.5047 249.81 79.75L225.8 64.54C216.433 58.6211 205.58 55.4796 194.5 55.48H90.7401C89.8384 55.48 88.9735 55.8382 88.3359 56.4758C87.6983 57.1134 87.3401 57.9782 87.3401 58.88V101.88C87.3401 102.783 87.698 103.648 88.3353 104.288C88.9727 104.927 89.8374 105.287 90.7401 105.29C91.331 105.288 91.9112 105.133 92.4245 104.84C92.9379 104.547 93.3669 104.127 93.6701 103.62L94.3801 102.43C94.6787 101.921 95.1053 101.499 95.6176 101.206C96.1299 100.913 96.7099 100.759 97.3001 100.76H123.45L125.17 103.55Z" stroke="#1E1D1D" stroke-width="0.75" stroke-miterlimit="10"/>
<path d="M218.12 60.47L209.12 60.66C208.722 60.6553 208.329 60.7509 207.978 60.938C207.627 61.125 207.329 61.3975 207.11 61.7303C206.892 62.063 206.761 62.4454 206.73 62.842C206.698 63.2387 206.767 63.6369 206.93 64L207.19 64.61C207.949 66.3879 209.13 67.9544 210.63 69.174C212.13 70.3935 213.905 71.2296 215.8 71.61C223.628 73.2622 231.647 73.8275 239.63 73.29L226.86 65.22C224.073 63.415 221.151 61.827 218.12 60.47V60.47Z" fill="white" stroke="#1E1D1D" stroke-width="0.75" stroke-miterlimit="10"/>
<path d="M140.71 62.8H131.45C131.008 62.8 130.57 62.8872 130.162 63.0567C129.754 63.2262 129.383 63.4746 129.071 63.7877C128.758 64.1007 128.511 64.4723 128.343 64.8811C128.175 65.2899 128.089 65.7279 128.09 66.17V91.17H144.09V66.17C144.09 65.7266 144.002 65.2876 143.833 64.878C143.663 64.4685 143.413 64.0966 143.099 63.7835C142.785 63.4704 142.413 63.2224 142.003 63.0536C141.593 62.8849 141.153 62.7987 140.71 62.8Z" stroke="#1E1D1D" stroke-width="0.75" stroke-miterlimit="10"/>
<path d="M138.49 67.09H133.65C132.606 67.09 131.76 67.9362 131.76 68.98V76.9C131.76 77.9438 132.606 78.79 133.65 78.79H138.49C139.534 78.79 140.38 77.9438 140.38 76.9V68.98C140.38 67.9362 139.534 67.09 138.49 67.09Z" fill="white"/>
<path d="M215.27 77.23L210.35 73.76C204.204 69.4264 196.87 67.0969 189.35 67.09H150.45V78.8H195.03C198.929 78.8013 202.823 79.0888 206.68 79.66L213.87 80.73C214.3 80.7912 214.739 80.7062 215.115 80.4886C215.491 80.271 215.783 79.9333 215.945 79.5298C216.106 79.1263 216.127 78.6803 216.005 78.2633C215.883 77.8462 215.624 77.4824 215.27 77.23V77.23Z" fill="white" stroke="#1E1D1D" stroke-width="0.75" stroke-miterlimit="10"/>
<path d="M123 67H93V79H123V67Z" fill="white" stroke="#1E1D1D" stroke-width="0.75" stroke-miterlimit="10"/>
<path d="M79.9999 67H49.9999V79H79.9999V67Z" fill="white" stroke="#1E1D1D" stroke-width="0.75" stroke-miterlimit="10"/>
<path d="M192.37 100.77V101C192.37 102.411 192.93 103.764 193.928 104.762C194.926 105.76 196.279 106.32 197.69 106.32H197.8C199.212 106.32 200.566 105.76 201.565 104.762C202.565 103.765 203.127 102.412 203.13 101V100.89C203.135 100.857 203.135 100.823 203.13 100.79L192.37 100.77Z" fill="#1E1D1D"/>
<path d="M179.07 100.77C179.07 100.77 179.07 100.84 179.07 100.87V101C179.073 102.412 179.635 103.765 180.635 104.762C181.634 105.76 182.988 106.32 184.4 106.32H184.51C185.92 106.317 187.272 105.756 188.269 104.759C189.266 103.762 189.827 102.41 189.83 101V100.89C189.83 100.89 189.83 100.82 189.83 100.79L179.07 100.77Z" fill="#1E1D1D"/>
<path d="M110.12 100.77C110.12 100.77 110.12 100.84 110.12 100.87V101C110.128 102.408 110.693 103.756 111.692 104.75C112.69 105.743 114.042 106.3 115.45 106.3H115.55C116.958 106.3 118.31 105.743 119.308 104.75C120.307 103.756 120.872 102.408 120.88 101V100.89C120.88 100.89 120.88 100.82 120.88 100.79L110.12 100.77Z" fill="#1E1D1D"/>
<path d="M96.81 100.77V101C96.81 101.699 96.948 102.392 97.2159 103.038C97.4839 103.684 97.8767 104.271 98.3718 104.765C98.8668 105.26 99.4545 105.651 100.101 105.918C100.748 106.185 101.441 106.321 102.14 106.32H102.24C102.94 106.321 103.632 106.185 104.279 105.918C104.926 105.651 105.513 105.26 106.008 104.765C106.503 104.271 106.896 103.684 107.164 103.038C107.432 102.392 107.57 101.699 107.57 101V100.79L96.81 100.77Z" fill="#1E1D1D"/>
<path d="M242.27 102.22L219.7 104.47C215.77 104.87 212.76 105.57 208.82 105.69L248.45 105.49L247.64 101.49C245.865 101.833 244.072 102.076 242.27 102.22V102.22Z" fill="#1E1D1D"/>
<path d="M245.007 83.8286C245.602 82.7692 244.87 81.2286 243.372 80.3875C241.875 79.5464 240.178 79.7234 239.583 80.7827C238.988 81.8421 239.72 83.3828 241.218 84.2239C242.715 85.0649 244.412 84.888 245.007 83.8286Z" fill="white" stroke="#1E1D1D" stroke-width="0.75" stroke-miterlimit="10"/>
<path d="M87.33 60.66H84.88V98.33H87.33V60.66Z" fill="#1E1D1D"/>
<path d="M87.9299 91.2001H253.44" stroke="#1E1D1D" stroke-width="0.75" stroke-miterlimit="10"/>
<path d="M48 92H84" stroke="#1E1D1D" stroke-width="0.75" stroke-miterlimit="10"/>
<path d="M255.3 105.82H75.62" stroke="#4A4A4A" stroke-width="0.75" stroke-linecap="round" stroke-linejoin="round"/>
<path d="M178.91 94.82L170.29 103.44" stroke="#1E1D1D" stroke-width="0.75" stroke-linecap="round" stroke-linejoin="round"/>
<path d="M161.08 91.7L169.62 100.24" stroke="#1E1D1D" stroke-width="0.75" stroke-linecap="round" stroke-linejoin="round"/>
<path d="M156 95L162.27 100.09" stroke="#1E1D1D" stroke-width="0.75" stroke-linecap="round" stroke-linejoin="round"/>
<path d="M170.6 27.57C170.6 27.57 170.25 29.66 169.08 30.44C168.541 30.8075 167.98 31.1414 167.4 31.44C167.991 30.9039 168.453 30.2406 168.75 29.5C169.13 28.39 169.31 27.97 169 27.92C168.484 27.83 167.956 27.83 167.44 27.92C166.977 28.0389 166.506 28.1225 166.03 28.17C166.03 28.17 167.25 27.83 167.13 27.67C167.01 27.51 166.32 27.67 166.32 27.67C166.7 27.5088 167.1 27.4011 167.51 27.35C167.948 27.3132 168.373 27.1763 168.75 26.95C169.007 26.8309 169.28 26.7501 169.56 26.71C169.781 26.2125 169.897 25.6745 169.9 25.13C169.82 24.49 169.42 22.78 169.42 22.78C170.044 23.4974 170.541 24.3157 170.89 25.2C171.031 25.7138 171.01 26.2586 170.83 26.76C171.05 26.7714 171.268 26.8083 171.48 26.87C171.75 26.96 171.78 26.82 171.78 26.82C171.78 26.82 171.45 27.72 170.6 27.57Z" fill="#CEC8C0"/>
<path d="M150.19 19.89C150.529 20.2624 150.733 20.7378 150.77 21.24C150.748 21.5317 150.711 21.822 150.66 22.11C150.629 21.7583 150.524 21.4173 150.35 21.11C150.07 20.67 149.97 20.48 149.87 20.58C149.688 20.7311 149.536 20.9141 149.42 21.12C149.333 21.3182 149.229 21.5089 149.11 21.69C149.11 21.69 149.33 21.16 149.24 21.16C149.15 21.16 148.99 21.43 148.99 21.43C149.046 21.2514 149.123 21.0802 149.22 20.92C149.331 20.755 149.403 20.5669 149.43 20.37C149.454 20.2455 149.502 20.1267 149.57 20.02C149.457 19.8006 149.301 19.6067 149.11 19.45C148.86 19.3 148.11 18.96 148.11 18.96C148.54 18.9449 148.969 19.0024 149.38 19.13C149.603 19.22 149.789 19.3819 149.91 19.59C149.977 19.513 150.054 19.4457 150.14 19.39C150.24 19.32 150.2 19.27 150.2 19.27C150.2 19.27 150.45 19.63 150.19 19.89Z" fill="#CEC8C0"/>
<path d="M184.45 25.39C183.964 25.7042 183.386 25.8451 182.81 25.79C182.469 25.7118 182.135 25.6082 181.81 25.48C182.225 25.5296 182.646 25.4817 183.04 25.34C183.6 25.1 183.83 25.02 183.75 24.88C183.609 24.648 183.43 24.4416 183.22 24.27C183.009 24.1312 182.809 23.9774 182.62 23.81C182.62 23.81 183.18 24.16 183.21 24.06C183.24 23.96 182.94 23.72 182.94 23.72C183.135 23.8164 183.316 23.9374 183.48 24.08C183.65 24.2389 183.851 24.3614 184.07 24.44C184.209 24.5009 184.34 24.5781 184.46 24.67C184.731 24.5896 184.98 24.4495 185.19 24.26C185.41 24.01 185.93 23.26 185.93 23.26C185.871 23.7486 185.726 24.2227 185.5 24.66C185.354 24.8949 185.137 25.077 184.88 25.18C184.949 25.2706 185.01 25.3677 185.06 25.47C185.12 25.61 185.18 25.57 185.18 25.57C185.18 25.57 184.68 25.78 184.45 25.39Z" fill="#CEC8C0"/>
</g>
</svg>
