<svg width="180" height="99" viewBox="0 0 180 99" fill="none" xmlns="http://www.w3.org/2000/svg">
<g clip-path="url(#clip0_658_686)">
<path d="M5.94131 17.7822C5.94131 15.173 7.17068 13.6754 9.29795 13.6754C11.4252 13.6754 12.3567 14.7786 12.3567 17.4508V26.3272H17.5301V16.1084C17.5301 11.4059 15.5581 9.11971 11.5008 9.11971C10.5226 9.08977 9.54971 9.27401 8.65026 9.65951C7.75081 10.045 6.94653 10.6225 6.29376 11.3514L6.20984 11.4479L5.94131 11.3262V0.738266H0.784668V26.3272H5.94131V17.7822Z" fill="black"/>
<path d="M24.2726 20.9326C25.8628 20.9326 27.0628 19.628 27.0628 17.8955C27.0628 16.163 25.9132 14.8584 24.2726 14.8584C22.6321 14.8584 21.4614 16.1168 21.4614 17.8955C21.4614 19.6741 22.6572 20.9326 24.2726 20.9326Z" fill="black"/>
<path d="M76.6993 17.6815C76.6993 12.7189 73.2294 9.11551 68.4546 9.11551C63.3273 9.11551 59.7483 12.7106 59.7483 17.8577C59.7483 23.0049 63.3861 26.6377 68.5972 26.6377C71.9539 26.6377 74.4714 25.6561 76.1203 23.7012L73.1833 20.6977C72.6697 21.252 72.0491 21.6965 71.359 22.0043C70.6689 22.3122 69.9235 22.477 69.1679 22.4889C66.8392 22.4889 65.2406 21.3185 64.884 19.3553L64.8462 19.1581H76.6154C76.649 18.7722 76.6993 18.101 76.6993 17.6815ZM64.863 16.2343L64.9049 16.0287C65.0354 15.2066 65.4618 14.4604 66.1038 13.9305C66.7459 13.4005 67.5595 13.1234 68.3917 13.151C70.07 13.151 71.3077 14.2249 71.6896 16.0287L71.7315 16.2343H64.863Z" fill="black"/>
<path d="M36.1594 17.8619C36.1594 15.2401 37.3426 13.667 39.323 13.667C40.544 13.667 41.9957 14.3717 41.9957 17.7109V26.3105H47.1566V17.8619C47.1566 15.3198 48.3566 13.667 50.2153 13.667C52.0741 13.667 52.888 14.9926 52.888 17.7109V26.4783H52.737H58.0657V16.4356C58.0657 11.5695 56.0559 9.10292 52.1286 9.10292C49.7202 9.10292 47.7566 9.96707 46.4475 11.6199L46.3971 11.687H46.1496L46.0992 11.5989C45.172 9.97546 43.4936 9.1155 41.2447 9.1155C40.3342 9.13019 39.4379 9.34397 38.6188 9.74182C37.7998 10.1397 37.0777 10.712 36.5034 11.4185L36.4531 11.4772H36.2055L36.172 11.3094V9.43432H30.9985V11.2297C31.894 12.0877 32.6008 13.1228 33.074 14.269C33.5472 15.4152 33.7763 16.6474 33.7468 17.8871C33.7826 19.1232 33.5563 20.3529 33.0826 21.4953C32.6089 22.6377 31.8987 23.6668 30.9985 24.515V26.3147H36.1594V17.8619Z" fill="black"/>
<path d="M17.5804 46.2028C17.5804 41.2318 14.1147 37.6326 9.33988 37.6326C4.19583 37.6326 0.629395 41.2276 0.629395 46.3748C0.629395 51.5219 4.26716 55.1505 9.47835 55.1505C12.835 55.1505 15.3735 54.1689 17.0014 52.2141L14.0644 49.2105C13.5497 49.7642 12.9282 50.2079 12.2374 50.5151C11.5466 50.8222 10.8007 50.9863 10.0448 50.9976C7.7203 50.9976 6.11751 49.8272 5.76086 47.8681L5.7231 47.6668H17.5049C17.5543 47.1803 17.5795 46.6917 17.5804 46.2028ZM5.91191 44.5667L5.95387 44.3654C6.08485 43.5455 6.50945 42.8011 7.14859 42.2709C7.78772 41.7407 8.59782 41.4609 9.428 41.4835C11.1063 41.4835 12.3651 42.5616 12.7259 44.3654L12.7679 44.5667H5.91191Z" fill="black"/>
<path d="M83.937 39.6755L83.6559 39.8223L83.572 39.7216C83.0109 39.0637 82.3136 38.5355 81.5283 38.1734C80.7431 37.8112 79.8885 37.6239 79.0238 37.6241H78.944C74.4881 37.6241 71.2573 41.3157 71.2573 46.3999C71.2573 51.5471 74.5342 55.1421 79.2294 55.1505C81.2475 55.1505 82.758 54.4667 83.8447 53.053L83.9287 52.944L84.214 53.0908V54.8149H89.1314V37.9555H83.937V39.6755ZM80.3874 50.6284C78.0755 50.6284 76.5231 48.9504 76.5231 46.4083C76.5231 43.8662 78.1133 42.1547 80.3874 42.1547C82.5524 42.1547 84.1636 43.9836 84.1636 46.4083C84.1636 48.833 82.586 50.6284 80.3874 50.6284Z" fill="black"/>
<path d="M122.585 39.6377H122.266L122.22 39.5874C121.59 38.9563 120.84 38.458 120.014 38.1222C119.188 37.7864 118.303 37.6199 117.411 37.6326C113.077 37.6326 109.93 41.2318 109.93 46.1986C109.93 51.0185 113.207 54.5171 117.726 54.5171C118.581 54.5433 119.433 54.3925 120.227 54.0741C121.021 53.7558 121.741 53.2768 122.341 52.6671L122.425 52.579L122.702 52.7133V54.3912C122.702 56.4887 120.864 57.8311 118.024 57.8311C116.218 57.7889 114.45 57.2988 112.88 56.4048L111.743 60.541C113.757 61.6233 115.884 62.1057 118.624 62.1099C124.771 62.1099 127.758 59.0434 127.758 52.7342V37.9514H122.585V39.6377ZM122.82 46.2279C122.774 47.2197 122.344 48.1546 121.62 48.834C120.896 49.5134 119.935 49.8837 118.943 49.8662C117.95 49.8488 117.003 49.4449 116.303 48.7404C115.604 48.0359 115.206 47.0864 115.196 46.0937C115.196 43.7949 116.774 42.1924 119.027 42.1924C119.535 42.1793 120.041 42.2708 120.512 42.4615C120.983 42.6521 121.41 42.9378 121.767 43.3006C122.123 43.6634 122.401 44.0956 122.582 44.5704C122.764 45.0451 122.847 45.5523 122.824 46.0601L122.82 46.2279Z" fill="black"/>
<path d="M146.459 46.2028C146.459 41.236 142.993 37.6367 138.218 37.6367C133.091 37.6367 129.512 41.2318 129.512 46.379C129.512 51.5261 133.15 55.1547 138.361 55.1547C141.718 55.1547 144.235 54.1731 145.884 52.2183L142.947 49.2147C142.433 49.7681 141.812 50.2117 141.122 50.5188C140.432 50.8259 139.687 50.9902 138.932 51.0017C136.603 51.0017 135 49.8314 134.643 47.8723L134.61 47.671H146.387C146.437 47.1832 146.461 46.6931 146.459 46.2028ZM134.79 44.5667L134.832 44.3654C134.965 43.5462 135.39 42.8029 136.029 42.273C136.667 41.7432 137.477 41.4627 138.306 41.4835C139.985 41.4835 141.222 42.5616 141.604 44.3654L141.646 44.5667H134.79Z" fill="black"/>
<path d="M102.331 37.6325C101.378 37.6192 100.432 37.8151 99.5625 38.2064C98.6926 38.5978 97.9191 39.1752 97.2965 39.8978L97.2462 39.9565H96.9231V37.9514H91.7581V54.8317H96.9231V46.3412C96.9231 43.7026 98.1399 42.1924 100.28 42.1924C102.42 42.1924 103.192 43.3041 103.192 46.0224V54.8317H108.352V44.6842C108.327 39.9397 106.364 37.6325 102.331 37.6325Z" fill="black"/>
<path d="M44.1148 50.5948C41.5721 50.5948 39.8644 48.9169 39.8644 46.3999C39.8644 43.883 41.5889 42.1673 44.1106 42.205C44.7542 42.2038 45.3907 42.3406 45.9769 42.6062C46.5632 42.8718 47.0857 43.26 47.5092 43.7445L50.8239 40.4641C49.1456 38.6729 46.5484 37.6451 43.6239 37.6451C38.2491 37.6451 34.6365 41.1857 34.6365 46.4545C34.6365 51.5765 38.27 55.1589 43.4812 55.1673C46.691 55.1673 49.263 54.1941 50.9288 52.3483L47.7777 49.0805C47.3078 49.5759 46.7387 49.9668 46.1076 50.2277C45.4765 50.4886 44.7975 50.6137 44.1148 50.5948Z" fill="black"/>
<path d="M34.5526 37.9514H28.8001L26.1945 42.2134H26.0057L25.9218 42.1295L23.4337 37.9514H17.6477L23.2365 46.1272L17.5386 54.8317H23.0519L26.0099 50.5403H26.1903L26.2742 50.6116L29.1484 54.8317H34.67L28.9637 46.165L34.5526 37.9514Z" fill="black"/>
<path d="M63.6211 37.6326C62.6467 37.6035 61.6776 37.787 60.7813 38.1702C59.885 38.5534 59.0829 39.1272 58.4309 39.8517L58.3427 39.9482L58.0658 39.8055V28.7981H52.9092V53.9214C53.5591 53.6711 54.2304 53.4802 54.9148 53.3509C55.049 53.3509 55.1665 53.3132 55.263 53.2964C55.852 53.2279 56.4449 53.1984 57.0379 53.2083C57.3818 53.2199 57.7249 53.2493 58.0658 53.2964V46.2951C58.0658 43.69 59.2952 42.1924 61.4225 42.1924C63.5497 42.1924 64.477 43.2915 64.477 45.9679V54.8107H69.6504V44.6213C69.6504 39.9188 67.6784 37.6326 63.6211 37.6326Z" fill="black"/>
<path d="M156.327 70.894C156.327 70.8605 156.298 70.8185 156.281 70.764C156.183 70.4975 156.031 70.2543 155.833 70.05C155.636 69.8456 155.399 69.6845 155.136 69.5768C152.169 68.1673 147.537 67.4542 141.369 67.4542C138.629 67.4542 135.529 67.5926 132.139 67.8737C133.091 65.1176 134.157 62.135 135.302 58.9972L135.608 58.1583V58.1247C135.614 58.0878 135.623 58.0514 135.634 58.0156V57.9947C135.634 57.5752 135.327 57.1557 134.761 56.7614L134.719 56.7362L134.576 56.6649C134.349 56.5067 134.084 56.4099 133.808 56.3838C133.716 56.3793 133.626 56.4052 133.55 56.4575C133.474 56.5098 133.417 56.5857 133.389 56.6733L132.873 58.0911C132.512 59.0811 131.988 60.5326 131.32 62.4119C130.653 64.2912 129.986 66.1873 129.302 68.1631C123.667 68.7462 117.772 69.6146 111.776 70.7472L111.495 70.8017C111.441 70.8008 111.388 70.817 111.344 70.8479C111.305 70.8706 111.27 70.8989 111.239 70.9318C111.199 70.9669 111.169 71.0116 111.151 71.0618C111.135 71.1049 111.127 71.1502 111.126 71.1961C111.122 71.2463 111.122 71.2968 111.126 71.3471C111.137 71.4018 111.154 71.4553 111.176 71.5065L111.218 71.5946L111.248 71.6575C111.282 71.7271 111.327 71.7908 111.382 71.8463C111.423 71.8909 111.461 71.9386 111.495 71.9889L111.638 72.1399C111.941 72.5211 112.383 72.7669 112.867 72.8237C112.935 72.8232 113.002 72.8161 113.069 72.8027L113.849 72.6685C114.403 72.5594 115.179 72.4168 116.153 72.249C117.126 72.0812 118.25 71.884 119.488 71.6785C120.726 71.4729 122.199 71.259 123.81 71.0241C125.421 70.7892 126.944 70.6046 128.492 70.4116C128.018 71.8211 127.267 73.9773 126.264 76.8298C125.778 78.2183 125.35 79.4433 124.976 80.5172C124.481 80.8024 123.634 81.3352 122.459 82.1112C121.666 82.6272 121.083 82.9964 120.671 83.2439C116.056 86.1803 112.783 87.6569 110.925 87.6569H110.87C110.65 87.6507 110.43 87.6226 110.215 87.573C110.027 87.2146 109.928 86.816 109.926 86.411C109.934 86.1665 109.966 85.9234 110.022 85.6853C110.282 84.5619 110.768 83.503 111.449 82.5727L111.705 82.2245L111.726 82.1993C112.123 81.6665 112.552 81.158 113.01 80.6766C114.399 79.1916 115.628 78.3106 116.664 78.0548L116.308 79.0489C116.284 79.2215 116.3 79.3973 116.355 79.5625C116.411 79.7277 116.504 79.8779 116.627 80.0012C117.105 80.6137 117.579 80.9283 118.036 80.9367C118.148 80.9265 118.254 80.8865 118.344 80.8207C118.434 80.755 118.505 80.666 118.548 80.5633L118.645 80.3242C118.903 79.719 119.082 79.0832 119.178 78.4323C119.182 78.0625 119.081 77.6991 118.888 77.3836C118.63 76.9415 118.264 76.5726 117.823 76.3119C117.382 76.0513 116.882 75.9076 116.371 75.8944H116.312C115.824 75.9032 115.34 75.9852 114.877 76.1377C113.224 76.7166 111.625 77.9541 110.119 79.8166C109.884 80.1061 109.662 80.4123 109.414 80.7731C108.638 81.4191 107.769 82.0777 106.838 82.7321C102.466 85.8279 99.0337 87.3968 96.6337 87.3968H96.5455C96.1536 87.3921 95.7647 87.3284 95.3917 87.2081C95.077 87.0864 94.9134 86.7089 94.905 86.0838C94.8966 85.4588 95.0602 85.0183 95.3246 84.8883L95.6938 84.754C95.9246 84.6785 96.2393 84.5611 96.6504 84.3891C97.0616 84.2171 97.4896 84.0241 97.9847 83.7976C98.4798 83.5711 98.9791 83.3236 99.5246 83.0341C100.07 82.7447 100.582 82.4552 101.06 82.1574C101.533 81.8582 101.98 81.5215 102.399 81.1506C102.76 80.8364 103.072 80.4686 103.322 80.0599C103.512 79.717 103.622 79.3356 103.645 78.9441C103.638 78.3327 103.425 77.7416 103.041 77.2661C102.768 76.8836 102.409 76.5704 101.993 76.3519C101.576 76.1333 101.115 76.0154 100.645 76.0076H100.523C100.199 76.0284 99.8788 76.0832 99.5665 76.1712C98.0476 76.6369 96.5665 77.7779 95.1567 79.5691C93.6043 81.5281 92.8029 83.4242 92.7777 85.2029C92.7747 85.4233 92.7902 85.6436 92.8239 85.8615C93.0714 87.8247 94.4602 89.0119 96.9609 89.3894C97.2159 89.4176 97.4722 89.4316 97.7288 89.4314H97.7959C100.313 89.4314 103.67 88.0596 107.706 85.3581C107.706 85.4898 107.713 85.6215 107.727 85.7524C107.803 86.375 108.007 86.975 108.327 87.5143C108.631 88.0703 109.057 88.5509 109.572 88.9205C110.087 89.2901 110.678 89.5392 111.302 89.6495C111.548 89.6894 111.796 89.7132 112.045 89.7208H112.133C113.403 89.6683 114.653 89.384 115.821 88.8818C117.558 88.1813 120.189 86.7131 123.625 84.5233C120.516 93.6305 120.52 93.7521 120.655 95.7531V95.8748C120.683 96.2332 120.81 96.5766 121.023 96.8664C121.236 97.1562 121.525 97.3809 121.859 97.515C121.984 97.5782 122.115 97.6301 122.249 97.6702C122.348 97.6966 122.449 97.7107 122.551 97.7121C122.614 97.716 122.676 97.7073 122.736 97.6864C122.795 97.6655 122.849 97.6329 122.895 97.5905C122.939 97.5403 122.972 97.4816 122.991 97.418C123.011 97.3544 123.017 97.2874 123.008 97.2213C122.95 96.2649 123.21 94.6121 123.785 92.3007C124.46 89.6243 124.964 88.219 126.629 83.5501L127.078 82.2916L127.162 82.0609C127.695 80.5717 128.325 78.7972 129.088 76.6327C130.137 73.6962 130.909 71.5107 131.379 70.1431C135.713 69.7236 139.582 69.4929 142.884 69.4929C148.49 69.4929 152.66 70.1264 155.278 71.3722C155.445 71.4504 155.621 71.5054 155.803 71.5358H155.832C155.907 71.5525 155.984 71.5486 156.056 71.5246C156.128 71.5007 156.193 71.4575 156.242 71.3997C156.292 71.3419 156.325 71.2718 156.338 71.1968C156.35 71.1217 156.343 71.0446 156.315 70.9737L156.327 70.894ZM97.3721 80.2235C98.5511 79.0783 99.8896 77.8408 100.8 77.8408C101.007 77.8384 101.206 77.9149 101.358 78.0548C101.466 78.1626 101.543 78.297 101.582 78.4443C101.621 78.5916 101.621 78.7467 101.581 78.8937C101.295 80.0054 99.063 81.4359 96.0211 82.4846C96.0421 82.279 96.084 81.8218 97.3721 80.2235Z" fill="#BEA18D"/>
<path d="M140.849 70.6969C140.684 70.462 140.471 70.2655 140.223 70.1207C139.976 69.9759 139.7 69.8862 139.414 69.8579C139.335 69.8544 139.256 69.8688 139.184 69.9C139.111 69.9313 139.046 69.9785 138.994 70.0383L136.515 73.8682C136.471 73.9486 136.444 74.0371 136.435 74.1283C136.488 74.4279 136.623 74.7069 136.825 74.9337C136.992 75.1595 137.203 75.3486 137.445 75.4894C137.688 75.6301 137.956 75.7194 138.235 75.7517C138.316 75.747 138.394 75.726 138.466 75.6899C138.538 75.6538 138.603 75.6035 138.655 75.542L141.172 71.712C141.219 71.6331 141.247 71.5438 141.252 71.452C141.2 71.1643 141.059 70.9002 140.849 70.6969Z" fill="#BEA18D"/>
<path d="M178.813 82.0861C178.667 81.8574 178.472 81.6637 178.243 81.5187C178.014 81.3737 177.756 81.281 177.487 81.2471C177.373 81.2511 177.263 81.2859 177.168 81.3478C176.996 81.4904 176.643 81.7672 176.098 82.149C170.992 85.8531 169.385 86.6291 168.923 86.6291H168.894C168.888 86.5804 168.888 86.5311 168.894 86.4823C168.894 86.4152 168.894 86.281 168.927 86.0293C169.154 84.0451 169.271 82.8328 169.276 82.4258C169.301 80.9702 169.066 79.9299 168.575 79.3216C168.297 78.9571 167.941 78.6592 167.533 78.4495C167.125 78.2398 166.675 78.1236 166.217 78.1093H166.154C165.924 78.1089 165.694 78.1357 165.47 78.189C165.211 78.2586 164.959 78.3542 164.719 78.4742C163.427 79.1035 161.111 80.9912 157.817 84.0451C159.386 81.0793 160.225 79.502 160.309 79.3594C160.343 79.2798 160.358 79.1939 160.355 79.1077C160.349 78.9595 160.306 78.8152 160.229 78.6882C159.984 78.2107 159.603 77.8165 159.134 77.5555C158.833 77.3937 158.499 77.3033 158.157 77.2913H158.123C157.557 77.2913 156.55 77.5723 155.048 78.1303C153.749 78.6451 152.424 79.0904 151.078 79.4642C150.741 78.8613 150.274 78.3401 149.712 77.9377C149.15 77.5354 148.506 77.2616 147.827 77.1361H147.709C147.661 77.1198 147.612 77.1086 147.562 77.1025H147.466C147.434 77.1053 147.401 77.1053 147.369 77.1025C147.325 77.0853 147.278 77.0768 147.231 77.0773H146.987C146.86 77.0774 146.732 77.0858 146.606 77.1025C145.636 77.1696 145.137 77.5681 145.125 78.2939C145.133 78.6723 145.259 79.0388 145.485 79.3426C145.383 79.3416 145.281 79.3677 145.192 79.4181C145.119 79.4626 145.053 79.5162 144.994 79.5775C142.997 80.987 141.6 82.4007 140.849 83.7724C138.097 86.3481 135.944 87.6737 134.513 87.6737C134.46 87.4342 134.434 87.1892 134.438 86.9438C134.439 86.7824 134.45 86.6213 134.471 86.4614C134.677 84.5107 135.655 81.7421 137.383 78.2393C137.43 78.1746 137.455 78.0968 137.455 78.017C137.406 77.7248 137.27 77.4542 137.064 77.2409C136.895 77.0107 136.68 76.8175 136.434 76.6733C136.187 76.529 135.913 76.4367 135.629 76.4019C135.546 76.4086 135.465 76.4339 135.392 76.476C135.319 76.5181 135.257 76.576 135.21 76.6453C133.242 80.5969 132.231 83.634 132.201 85.6937C132.157 86.4424 132.321 87.1888 132.676 87.8499C133.152 88.6909 133.935 89.3148 134.862 89.5908C135.136 89.6652 135.417 89.7101 135.701 89.725C137.056 89.6998 138.68 88.9489 140.53 87.4933C140.64 87.7448 140.781 87.9815 140.95 88.198C141.365 88.7099 141.893 89.1186 142.493 89.3923C143.093 89.6659 143.748 89.797 144.407 89.7753H144.499C145.379 89.7757 146.244 89.5566 147.017 89.1377C147.923 88.634 148.739 87.9817 149.429 87.208C150.961 85.5301 151.75 83.764 151.779 82.0022V81.6582C153.524 81.3148 155.224 80.7758 156.848 80.0515C152.497 88.0932 152.467 88.584 152.459 88.7434C152.547 89.7082 153.164 90.2787 154.301 90.4591H154.326C154.49 90.4591 154.813 90.35 155.736 89.6201C156.155 89.2761 157.666 87.8834 160.372 85.3623C163.628 82.3168 165.869 80.5927 167.035 80.2235V80.3913C167.035 80.7521 166.985 81.3394 166.892 82.1783C166.8 83.0173 166.72 83.743 166.712 84.1919C166.687 85.7692 167.132 86.9564 168.063 87.7282C168.585 88.1138 169.214 88.3252 169.863 88.3323H169.93C170.626 88.312 171.311 88.1626 171.952 87.8918C173.417 87.3339 175.494 85.9747 178.12 83.8521C178.511 83.5291 178.783 83.311 178.939 83.2019C179.032 83.1018 179.09 82.9734 179.102 82.8369C179.094 82.5611 178.992 82.2963 178.813 82.0861ZM148.129 78.7301C148.586 78.7553 148.968 79.0909 149.283 79.7285C149.178 79.7285 149.06 79.7285 148.926 79.7285H148.725C148.15 79.7285 147.466 79.5943 147.42 79.1958C147.423 79.1625 147.432 79.13 147.445 79.0993C147.502 78.9754 147.597 78.8724 147.716 78.8048C147.835 78.7371 147.972 78.7081 148.108 78.7217L148.129 78.7301ZM149.366 81.8134C149.043 83.0719 148.108 84.4604 146.627 85.9076C145.234 87.2542 144.08 87.938 143.186 87.938H143.161C143.006 87.9462 142.852 87.9114 142.716 87.8373C142.579 87.7633 142.466 87.6529 142.389 87.5185C142.303 87.3221 142.253 87.1117 142.242 86.8976C142.394 86.2756 142.672 85.6915 143.06 85.1819C143.465 84.5888 143.9 84.0175 144.365 83.4704C144.739 83.0509 145.104 82.6314 145.439 82.3168C146.178 81.5952 146.736 81.2303 147.092 81.2303L147.218 81.2597C148.662 81.675 149.178 81.8008 149.371 81.8344L149.366 81.8134Z" fill="#BEA18D"/>
<path d="M99.021 61.1912C98.786 60.3774 98.0769 59.9621 97.4182 59.6642C97.0029 59.4695 96.551 59.3651 96.0923 59.358C94.649 59.358 93.386 60.4906 92.442 62.6342C91.2965 65.2435 90.8056 66.5607 90.0629 68.5533C89.5511 69.9292 88.9175 71.6407 87.8601 74.3129C87.5832 74.7701 86.8532 75.7979 86.1483 76.7879C85.5567 77.6269 84.9944 78.4029 84.7427 78.7973C80.1273 86.1006 76.4434 90.1235 74.593 91.9483C74.7158 90.6631 74.9861 89.3963 75.3986 88.1729C75.7049 87.2374 77.9413 83.1054 86.8657 68.763L86.9119 68.6917C88.842 65.5875 90.0126 63.2048 89.4294 61.6484C89.1609 60.9227 88.5273 60.39 87.4951 60.0795C87.2467 60.0006 86.9879 59.9596 86.7273 59.9579C84.0713 59.9579 82.2965 64.4339 81.3399 66.8375L81.2308 67.1144C80.2783 69.1112 79.3343 71.4226 78.6462 73.1048C78.3441 73.8514 78.0965 74.4597 77.9245 74.8414C77.1273 76.6998 76.4937 78.1974 75.9441 79.5272C75.905 79.523 75.8656 79.523 75.8266 79.5272C75.7075 79.5244 75.5909 79.5613 75.4951 79.632C73.8661 80.9 71.9543 81.7549 69.9231 82.1238C70.2063 81.4597 70.3615 80.7481 70.3804 80.0264C70.4107 79.4542 70.3223 78.882 70.1208 78.3457C69.9194 77.8093 69.6092 77.3204 69.2098 76.9095C68.4462 76.1419 67.3427 75.735 65.9287 75.693H65.8741C65.3053 75.6735 64.7374 75.753 64.1958 75.9279C62.8699 76.3474 62.186 77.1864 62.1692 78.4113V78.5833C62.1692 78.6253 62.1692 78.6588 62.1692 78.6798C61.7617 79.0047 61.3788 79.3595 61.0238 79.7411C60.6411 80.1451 60.2838 80.5724 59.9539 81.0206C59.4839 81.4736 58.6741 82.2371 57.5455 83.2816C56.2322 84.4939 54.9441 85.6266 53.7189 86.6375C52.4937 87.6485 50.9706 88.8483 49.2252 90.1361C47.6333 91.3173 45.9791 92.4124 44.2699 93.4165C42.7308 94.3161 41.1146 95.077 39.4406 95.6902C38.0394 96.229 36.5567 96.5254 35.056 96.5669H34.9217C34.355 96.562 33.7911 96.4859 33.2434 96.3404C30.9357 95.7195 29.7818 93.8822 29.8112 90.887C29.9455 87.25 31.5944 82.4972 34.7035 76.7585C37.5654 71.5933 41.1043 66.8334 45.2266 62.6049C49.5818 58.1834 53.4671 55.7084 56.786 55.247C57.3008 55.1654 57.8214 55.1261 58.3427 55.1295H58.5399C59.2173 55.0927 59.8905 55.2577 60.4741 55.6036C60.8392 55.9098 61.0322 56.4845 61.0406 57.2815C60.9257 58.7283 60.5712 60.1459 59.9916 61.4764C59.1619 63.2146 58.1265 64.8469 56.9077 66.3384C53.5677 70.37 49.4694 73.7078 44.8448 76.1628C44.7744 76.1924 44.7142 76.2419 44.6717 76.3053C44.6292 76.3687 44.6062 76.4431 44.6056 76.5194C44.6521 76.7882 44.7662 77.0408 44.9371 77.2535C45.4364 77.8576 45.9273 78.1596 46.4056 78.168C46.4956 78.1584 46.5843 78.1387 46.6699 78.1093H46.6951C49.4461 76.5995 52.0321 74.807 54.4112 72.7608C58.0573 69.6104 60.6797 66.3342 62.207 63.0286C62.8734 61.7013 63.2644 60.253 63.3567 58.7707C63.3817 57.9007 63.19 57.0381 62.7989 56.2604C62.4078 55.4828 61.8295 54.8145 61.1161 54.3157C60.2147 53.7041 59.1806 53.3158 58.0993 53.1831C57.7556 53.1367 57.4096 53.1087 57.0629 53.0992H56.8238C56.3049 53.0973 55.7864 53.1282 55.2713 53.1915L54.9231 53.2418C54.2213 53.3705 53.533 53.5643 52.8671 53.8207C50.1189 54.8653 46.993 57.0802 43.5944 60.4067C39.3824 64.5333 35.762 69.223 32.8364 74.3423C29.4378 80.2151 27.6797 85.249 27.6126 89.3559C27.5972 89.9641 27.6267 90.5726 27.7007 91.1764C27.8585 92.3518 28.2616 93.4809 28.8839 94.4904C29.4428 95.448 30.1896 96.2828 31.0794 96.9446C31.9691 97.6063 32.9835 98.0814 34.0615 98.3414C34.7063 98.4954 35.3665 98.5756 36.0294 98.5805H36.1511C40.4182 98.5805 46.0448 95.9461 52.8713 90.7528C54.8937 89.2006 56.8741 87.552 58.7455 85.8573C58.9924 86.5411 59.4399 87.1347 60.0294 87.5604C60.0509 87.5884 60.0705 87.6179 60.0881 87.6485C60.8172 88.1338 61.6799 88.3787 62.5553 88.3491H62.6476C64.9678 88.3491 67.0406 86.9606 68.807 84.2171C68.9832 84.2171 69.2266 84.2464 69.5622 84.2506H69.7343C71.3703 84.2401 72.9837 83.8676 74.4588 83.16C73.0574 86.8557 72.4196 89.2594 72.3902 90.9206C72.3887 91.617 72.571 92.3014 72.9189 92.9048C73.4727 93.9325 74.1776 94.4611 75.0168 94.4778C75.3493 94.4654 75.6706 94.3544 75.9399 94.159C76.771 93.4414 77.5184 92.6323 78.1678 91.747C78.4615 91.3694 78.7594 90.9961 79.0574 90.6185C82.2435 86.6916 85.1593 82.5529 87.7846 78.2309C83.9874 88.3323 83.3622 90.2662 83.3119 93.5927C83.2699 94.1559 83.3516 94.7214 83.5511 95.2497C83.6371 95.4217 83.7442 95.5824 83.8699 95.7279C84.0928 96.061 84.3892 96.3386 84.7361 96.5393C85.0831 96.74 85.4714 96.8585 85.8713 96.8857H86.014C86.1184 96.8863 86.2192 96.8479 86.2968 96.778C86.3744 96.7082 86.4231 96.612 86.4336 96.5082C86.3629 96.2449 86.241 95.9982 86.0746 95.7822C85.9083 95.5662 85.7009 95.3853 85.4643 95.2497C85.4248 94.9649 85.4107 94.6771 85.4224 94.3897C85.5153 93.0155 85.7803 91.6583 86.2112 90.3501C86.3664 89.8299 86.5301 89.272 86.7063 88.6721C87.4448 86.0964 88.456 82.5727 90.6546 76.5823C91.0364 75.3658 91.7035 74.51 92.8112 73.0964C93.579 72.1148 94.5315 70.894 95.7483 69.1154C98.4084 65.0211 99.4406 62.5839 99.021 61.1912ZM85.0783 64.4003C85.5441 63.4313 86.2532 62.4748 86.5217 63.2048C87.0797 64.7401 79.7329 76.4061 79.7329 76.4061C79.7329 76.4061 84.2056 66.2209 85.0867 64.4003H85.0783ZM65.3916 84.259C63.9986 85.7524 62.7105 86.5117 61.5608 86.5117H61.5189C61.2649 86.5088 61.014 86.4561 60.7804 86.3565C60.768 86.1623 60.768 85.9676 60.7804 85.7734C60.8014 85.6098 60.835 85.4168 60.8769 85.2113C61.1842 84.1943 61.689 83.2478 62.3622 82.4259C62.6182 82.0945 62.9077 81.7547 63.2266 81.4149L63.2979 81.331L63.3231 81.3058C64.0721 82.2071 65.0029 82.9404 66.0546 83.4578C65.8741 83.7179 65.6434 83.9864 65.4 84.259H65.3916ZM66.9944 82.1112C65.6601 81.7756 64.8378 81.1338 64.5399 80.2109C64.6543 80.1488 64.7719 80.0928 64.8923 80.0431C65.3119 79.846 65.5175 79.674 65.5175 79.4852C65.5175 79.2964 65.2951 78.9483 64.8797 78.5623C65.0156 78.4242 65.1711 78.3069 65.3413 78.2142C66.0525 77.8442 66.843 77.6527 67.6448 77.6562H67.7329C67.8231 77.6477 67.9138 77.6668 67.993 77.7108C68.1191 77.9895 68.1753 78.2948 68.1567 78.6001C68.0644 79.8471 67.6683 81.0526 67.0028 82.1112H66.9944ZM94.9049 65.9902C93.4532 68.4694 92.3874 70.2145 91.9091 70.9863C92.2993 69.967 93.3147 67.4794 94.6783 64.673C95.5175 62.995 96.042 62.37 96.2727 62.37C96.2905 62.3645 96.3095 62.3645 96.3273 62.37C96.7007 62.6258 95.6643 64.7233 94.9133 65.9902H94.9049Z" fill="#BEA18D"/>
</g>
<defs>
<clipPath id="clip0_658_686">
<rect width="180" height="99" fill="white"/>
</clipPath>
</defs>
</svg>
