<svg width="221" height="69" viewBox="0 0 221 69" fill="none" xmlns="http://www.w3.org/2000/svg">
<g clip-path="url(#clip0_658_667)">
<path d="M59.0819 50.3888H44.1573C44.6131 52.8656 46.7093 54.149 49.398 54.149C51.1981 54.104 53.0209 53.451 54.502 51.8073L58.535 55.8828C56.6894 58.1344 53.6361 59.7781 48.6689 59.7781C42.0383 59.7781 37.1849 55.2523 37.1849 48.5199C37.1849 41.9677 41.856 37.3068 48.4866 37.3068C54.6843 37.3068 59.1958 41.8776 59.1958 48.2948C59.2186 48.9252 59.1275 49.9385 59.0819 50.3888ZM44.1801 46.2683H52.3829C51.9272 44.1518 50.4917 42.8008 48.3955 42.8008C46.2536 42.8008 44.6358 44.1067 44.1801 46.2683Z" fill="#F7A800"/>
<path d="M65.3479 48.2272L58.0793 37.7346H65.9631L69.1986 43.0935H69.2442L72.5709 37.7346H80.4091L73.1405 48.2722L80.5459 59.3953H73.0038L69.2898 53.9914H69.2442L65.4846 59.3953H57.9653L65.3479 48.2272Z" fill="#F7A800"/>
<path d="M78.7686 48.61C78.7686 41.8326 83.4396 37.3068 90.4348 37.3068C93.8071 37.3068 97.4755 38.3651 99.8908 41.067L95.3565 45.5028C94.3311 44.1743 92.6222 43.4538 91.0044 43.4538C87.9512 43.4538 85.8549 45.5028 85.8549 48.5425C85.8549 51.6047 87.9967 53.5861 91.05 53.5861C93.0323 53.5861 94.4678 52.8881 95.721 51.5371L100.028 55.9728C98.0452 58.2245 94.8324 59.7331 90.2525 59.7331C83.5991 59.7781 78.7686 55.2748 78.7686 48.61Z" fill="#F7A800"/>
<path d="M101.463 26.7691H108.458V40.1439L108.549 40.1889C110.258 38.275 112.628 37.3068 115.317 37.3068C119.851 37.3068 123.201 39.4684 123.201 46.3133V59.3953H116.205V48.0471C116.205 44.5571 114.998 43.4763 112.537 43.4763C110.076 43.4763 108.458 45.0749 108.458 48.4299V59.3728H101.463V26.7691Z" fill="#F7A800"/>
<path d="M124.818 48.565C124.818 41.9227 129.17 37.3068 134.821 37.3068C137.145 37.3068 139.356 38.23 140.882 40.0088L140.973 39.9637V37.7121H148.014V59.3728H141.338V57.1212L141.247 57.0761C139.811 58.9 137.829 59.7781 135.186 59.7781C129.17 59.7781 124.818 55.2748 124.818 48.565ZM141.27 48.565C141.27 45.5928 139.242 43.4312 136.644 43.4312C133.955 43.4312 131.927 45.4802 131.927 48.565C131.927 51.6272 133.864 53.6537 136.644 53.6537C139.173 53.6762 141.27 51.6722 141.27 48.565Z" fill="#F7A800"/>
<path d="M150.908 37.7121H157.903V40.2339H157.994C159.703 38.275 162.027 37.3068 164.579 37.3068C169.113 37.3068 172.417 39.5134 172.417 46.3809V59.3728H165.422V48.0696C165.422 44.4895 164.215 43.4538 161.913 43.4538C159.498 43.4538 157.88 45.0975 157.88 48.4524V59.3503H150.885V37.7121H150.908Z" fill="#F7A800"/>
<path d="M176.336 66.4655L177.909 60.8364C179.754 61.8946 182.17 62.7503 184.585 62.7503C188.39 62.7503 190.327 60.8814 190.327 58.6298V56.6258L190.236 56.5808C188.755 58.0894 186.727 58.9675 184.175 58.9675C178.25 58.9675 174.035 54.4417 174.035 48.2948C174.035 41.8776 178.25 37.3068 183.765 37.3068C186.134 37.3068 188.39 38.1399 190.053 39.8286H190.145V37.7121H197.185V56.5358C197.185 63.5834 194.223 68.537 185.337 68.537C181.805 68.5595 179.025 67.929 176.336 66.4655ZM190.464 48.1372C190.464 45.3902 188.436 43.4763 185.838 43.4763C183.149 43.4763 181.167 45.3902 181.167 48.1822C181.167 50.9742 183.195 52.8431 185.838 52.8431C188.481 52.8431 190.464 50.8842 190.464 48.1372Z" fill="#F7A800"/>
<path d="M220.882 50.3888H205.958C206.414 52.8656 208.51 54.149 211.199 54.149C212.999 54.104 214.821 53.451 216.303 51.8073L220.336 55.8828C218.49 58.1344 215.437 59.7781 210.469 59.7781C203.839 59.7781 198.985 55.2523 198.985 48.5199C198.985 41.9677 203.657 37.3068 210.287 37.3068C216.485 37.3068 220.996 41.8776 220.996 48.2948C221.019 48.9252 220.928 49.9385 220.882 50.3888ZM205.981 46.2683H214.183C213.728 44.1518 212.292 42.8008 210.196 42.8008C208.054 42.8008 206.436 44.1067 205.981 46.2683Z" fill="#F7A800"/>
<path d="M30.2582 26.1612C32.3545 26.1612 34.0178 24.4725 34.0178 22.1308C34.0178 19.7441 32.4228 18.1004 30.2582 18.1004C28.0252 18.1004 26.453 19.7891 26.453 22.1308C26.453 24.4049 28.048 26.1612 30.2582 26.1612Z" fill="#F7A800"/>
<path d="M97.0884 23.9546H82.1638C82.6195 26.4314 84.7158 27.7148 87.4045 27.7148C89.2046 27.6698 91.0274 27.0168 92.5085 25.3731L96.5415 29.4486C94.6959 31.7002 91.6426 33.3439 86.6754 33.3439C80.0447 33.3439 75.1914 28.8181 75.1914 22.0857C75.1914 15.5335 79.8625 10.8726 86.4931 10.8726C92.6908 10.8726 97.2023 15.4434 97.2023 21.8606C97.2251 22.491 97.1339 23.5043 97.0884 23.9546ZM82.1866 19.8341H90.3894C89.9337 17.7176 88.4982 16.3666 86.4019 16.3666C84.2601 16.3666 82.6423 17.65 82.1866 19.8341Z" fill="#F7A800"/>
<path d="M0.13562 0.334976H7.1308V13.7097L7.22194 13.7547C8.93086 11.8408 11.3006 10.8726 13.9893 10.8726C18.5236 10.8726 21.8731 13.0342 21.8731 19.8792V32.9611H14.8779V21.6129C14.8779 18.1229 13.6703 17.0421 11.2094 17.0421C8.74857 17.0421 7.1308 18.6408 7.1308 21.9957V32.9386H0.13562V0.334976Z" fill="#F7A800"/>
<path d="M65.6899 10.8726C62.6366 10.8726 60.039 11.9309 58.2845 14.115H58.1934C56.8946 11.8633 54.616 10.8726 51.8362 10.8726C49.5576 10.8726 47.3475 11.8858 45.6385 13.8448H45.593V11.2779H38.5978V13.8448C40.7852 15.8262 42.084 18.7083 42.084 22.1308C42.084 25.5307 40.7852 28.3903 38.5978 30.3717V32.9386H45.593V22.0857C45.593 18.6633 47.2107 17.0421 49.3982 17.0421C51.7223 17.0421 52.5881 19.0911 52.5881 21.9281V32.9611H59.5833V22.1083C59.5833 18.6858 61.2467 17.0646 63.2518 17.0646C65.6671 17.0646 66.4418 19.1136 66.4418 21.9506V32.9836H73.4597V20.352C73.4597 13.4845 70.3153 10.8726 65.6899 10.8726Z" fill="#F7A800"/>
</g>
<defs>
<clipPath id="clip0_658_667">
<rect width="221" height="69" fill="white"/>
</clipPath>
</defs>
</svg>
