<svg width="329" height="621" viewBox="0 0 329 621" fill="none" xmlns="http://www.w3.org/2000/svg">
<g filter="url(#filter0_f_397_16069)">
<path d="M167.758 81.9006L50.9401 -22.2447L-91.1561 -68.3416L-263.639 -10.0235L-368.881 172.194L-331.929 350.427L-224.25 449.304L-73.5071 500.061L102.238 440.978L205.622 261.265L167.758 81.9006Z" stroke="#2267AC" stroke-width="0.961574" stroke-miterlimit="10"/>
<path d="M-331.932 350.428L-323.116 273.05L-188.132 156.344L-21.4296 77.6899L50.9379 -22.2442L-153.933 -19.5426L-263.641 -10.023L-299.826 94.3297L-323.116 273.05L-224.252 449.304L-30.0012 441.812L118.787 331.349L205.62 261.265" stroke="#2267AC" stroke-width="0.961574" stroke-miterlimit="10"/>
<path d="M167.757 81.9019L138.966 147.527L-6.89594 260.369L-169.892 340.054L-224.251 449.305" stroke="#2267AC" stroke-width="0.961574" stroke-miterlimit="10"/>
<path d="M50.6562 -22.5918L138.984 148.085L205.62 261.266" stroke="#2267AC" stroke-width="0.961574" stroke-miterlimit="10"/>
<path d="M-154.383 -19.0346L-21.7449 76.94L138.987 148.084L118.857 330.72L102.131 440.489L-29.9989 441.811" stroke="#2267AC" stroke-width="0.961574" stroke-miterlimit="10"/>
<path d="M-154.734 -19.4688L-188.622 155.735L-170.383 339.445" stroke="#2267AC" stroke-width="0.961574" stroke-miterlimit="10"/>
<path d="M-74.0301 500.483L-29.3908 441.321L-6.70831 259.355L-20.9062 77.2695" stroke="#2267AC" stroke-width="0.961574" stroke-miterlimit="10"/>
<path d="M118.178 331.841L-6.89721 260.368L-188.623 155.735L-300.926 94.2123" stroke="#2267AC" stroke-width="0.961574" stroke-miterlimit="10"/>
<path d="M208.494 265.418C207.384 266.087 206.069 266.33 204.793 266.104C203.517 265.879 202.365 265.199 201.551 264.19C200.737 263.182 200.316 261.913 200.365 260.618C200.413 259.323 200.929 258.089 201.816 257.145C202.342 256.586 202.98 256.146 203.69 255.855C204.399 255.563 205.163 255.428 205.929 255.456C206.696 255.485 207.447 255.678 208.133 256.022C208.818 256.365 209.422 256.852 209.904 257.449C210.386 258.046 210.734 258.739 210.925 259.481C211.116 260.224 211.146 260.999 211.013 261.754C210.879 262.51 210.585 263.227 210.151 263.859C209.716 264.491 209.152 265.023 208.494 265.418Z" fill="#2267AC" stroke="#2267AC" stroke-width="1.11811"/>
<path d="M124.045 331.94C123.909 333.337 123.231 334.626 122.156 335.53C121.049 336.421 119.633 336.837 118.219 336.687C116.817 336.537 115.53 335.841 114.637 334.751C113.984 333.647 113.747 332.346 113.971 331.082C114.196 329.806 114.876 328.655 115.885 327.841C116.893 327.027 118.162 326.605 119.457 326.654C120.74 326.702 121.962 327.208 122.903 328.079C123.769 329.169 124.179 330.553 124.045 331.94Z" fill="#2267AC" stroke="#2267AC" stroke-width="1.11811"/>
<path d="M-3.52544 264.545L-3.52552 264.545C-4.63316 265.439 -6.05053 265.857 -7.46588 265.706C-8.88124 265.555 -10.1786 264.847 -11.0726 263.74L-11.0727 263.74C-11.5116 263.196 -11.8377 262.57 -12.032 261.899C-12.2262 261.228 -12.2846 260.525 -12.2038 259.831C-12.1231 259.137 -11.9047 258.466 -11.5616 257.857C-11.2184 257.249 -10.7573 256.715 -10.2053 256.286L-10.2052 256.286L-10.1968 256.28C-9.1123 255.404 -7.72439 254.996 -6.33852 255.144C-4.95264 255.291 -3.68231 255.984 -2.80695 257.068L-2.80703 257.068L-2.80012 257.077C-2.35092 257.612 -2.01294 258.231 -1.80597 258.899C-1.599 259.566 -1.52719 260.268 -1.59473 260.963C-1.66227 261.659 -1.86779 262.334 -2.19929 262.949C-2.5308 263.564 -2.98165 264.106 -3.52544 264.545Z" fill="#2267AC" stroke="#2267AC" stroke-width="1.11811"/>
<path d="M134.677 152.007L134.677 152.007L134.67 151.999C133.795 150.914 133.386 149.526 133.534 148.14C133.682 146.755 134.374 145.484 135.459 144.609C136.543 143.734 137.931 143.325 139.317 143.473C140.703 143.621 141.973 144.313 142.849 145.398L142.849 145.398L142.855 145.406C143.305 145.941 143.643 146.56 143.85 147.228C144.057 147.895 144.128 148.597 144.061 149.292C143.993 149.988 143.788 150.663 143.456 151.278C143.125 151.893 142.674 152.436 142.13 152.874L142.13 152.875C141.586 153.314 140.961 153.64 140.29 153.834C139.618 154.028 138.915 154.087 138.221 154.006C137.527 153.925 136.856 153.707 136.248 153.363C135.639 153.02 135.105 152.559 134.677 152.007Z" fill="#2267AC" stroke="#2267AC" stroke-width="1.11811"/>
<path d="M171.057 85.99C169.972 86.8653 168.584 87.274 167.198 87.1261C165.813 86.9781 164.542 86.2857 163.667 85.2012C162.792 84.1166 162.383 82.7288 162.531 81.3429C162.679 79.957 163.371 78.6867 164.456 77.8113C165.54 76.936 166.928 76.5273 168.314 76.6752C169.7 76.8231 170.97 77.5155 171.846 78.6001C172.721 79.6846 173.13 81.0725 172.982 82.4584C172.834 83.8443 172.141 85.1146 171.057 85.99Z" fill="#2267AC" stroke="#2267AC" stroke-width="1.11811"/>
</g>
<defs>
<filter id="filter0_f_397_16069" x="-493" y="-202" width="825.137" height="826.51" filterUnits="userSpaceOnUse" color-interpolation-filters="sRGB">
<feFlood flood-opacity="0" result="BackgroundImageFix"/>
<feBlend mode="normal" in="SourceGraphic" in2="BackgroundImageFix" result="shape"/>
<feGaussianBlur stdDeviation="2" result="effect1_foregroundBlur_397_16069"/>
</filter>
</defs>
</svg>
