<svg width="238" height="747" viewBox="0 0 238 747" fill="none" xmlns="http://www.w3.org/2000/svg">
<g filter="url(#filter0_f_397_16100)">
<path d="M331.711 96.9995L196.145 175.196L107.752 295.624L108.946 477.695L248.888 634.842L429.708 655.739L557.401 584.564L652.934 457.391L652.039 271.982L513.891 117.385L331.711 96.9995Z" stroke="#2267AC" stroke-width="0.961574" stroke-miterlimit="10"/>
<path d="M429.71 655.74L359.017 623.068L290.612 458.26L268.296 275.289L196.148 175.197L134.367 370.549L108.948 477.696L196.655 544.824L359.017 623.068L557.403 584.565L611.3 397.79L553.158 221.837L513.893 117.386" stroke="#2267AC" stroke-width="0.961574" stroke-miterlimit="10"/>
<path d="M107.753 295.625L134.366 370.55L196.654 544.825L248.889 634.844" stroke="#2267AC" stroke-width="0.961574" stroke-miterlimit="10"/>
<path d="M195.727 175.355L385.508 145.103L513.891 117.387" stroke="#2267AC" stroke-width="0.961574" stroke-miterlimit="10"/>
<path d="M134.705 371.137L267.482 275.355L385.508 145.102L552.58 221.575L651.541 271.931L611.297 397.79" stroke="#2267AC" stroke-width="0.961574" stroke-miterlimit="10"/>
<path d="M134.184 371.336L289.878 458.536L470.02 498.92" stroke="#2267AC" stroke-width="0.961574" stroke-miterlimit="10"/>
<path d="M553.435 222.57L446.295 318.868L289.88 458.535L196.199 545.832" stroke="#2267AC" stroke-width="0.961574" stroke-miterlimit="10"/>
<path d="M248.89 634.843L358.008 622.611L469.288 499.194L611.299 397.79" stroke="#2267AC" stroke-width="0.961574" stroke-miterlimit="10"/>
<path d="M201.727 543.382C202.073 544.358 202.122 545.414 201.87 546.418C201.618 547.422 201.074 548.329 200.309 549.025C199.543 549.721 198.589 550.176 197.565 550.332C196.542 550.488 195.496 550.338 194.557 549.902C193.619 549.465 192.83 548.761 192.29 547.878C191.75 546.995 191.483 545.972 191.522 544.938C191.561 543.904 191.905 542.904 192.51 542.064C193.115 541.225 193.955 540.582 194.923 540.218C195.577 539.972 196.274 539.859 196.972 539.885C197.67 539.912 198.356 540.077 198.99 540.372C199.623 540.666 200.192 541.084 200.662 541.601C201.132 542.118 201.494 542.724 201.727 543.382Z" fill="#2267AC" stroke="#2267AC" stroke-width="1.11811"/>
<path d="M113.97 475.809L113.97 475.809C114.471 477.142 114.422 478.618 113.834 479.915C113.246 481.211 112.167 482.221 110.835 482.722L110.835 482.722C110.181 482.968 109.485 483.081 108.786 483.054C108.088 483.028 107.402 482.862 106.769 482.568C106.135 482.273 105.567 481.855 105.097 481.338C104.627 480.821 104.265 480.216 104.031 479.557L104.031 479.557L104.028 479.547C103.537 478.242 103.585 476.796 104.161 475.527C104.736 474.258 105.793 473.269 107.097 472.779L107.097 472.779L107.107 472.775C107.757 472.517 108.451 472.39 109.149 472.403C109.848 472.416 110.537 472.569 111.176 472.851C111.815 473.134 112.391 473.541 112.871 474.049C113.351 474.557 113.725 475.155 113.97 475.809Z" fill="#2267AC" stroke="#2267AC" stroke-width="1.11811"/>
<path d="M137.129 366.255C138.414 366.822 139.424 367.871 139.944 369.175C140.443 370.506 140.394 371.981 139.806 373.276C139.224 374.56 138.159 375.563 136.843 376.069C135.59 376.342 134.281 376.158 133.151 375.549C132.01 374.934 131.131 373.927 130.675 372.714C130.219 371.501 130.217 370.164 130.67 368.949C131.119 367.747 131.983 366.746 133.106 366.126C134.412 365.646 135.855 365.691 137.129 366.255Z" fill="#2267AC" stroke="#2267AC" stroke-width="1.11811"/>
<path d="M112.36 293.894L112.36 293.894L112.364 293.904C112.622 294.553 112.749 295.247 112.735 295.946C112.722 296.644 112.57 297.333 112.288 297.972C112.005 298.611 111.598 299.188 111.09 299.667C110.582 300.147 109.984 300.521 109.33 300.767L109.329 300.767C107.997 301.267 106.52 301.218 105.224 300.631C103.928 300.043 102.918 298.964 102.417 297.631L102.417 297.631C102.171 296.977 102.058 296.281 102.084 295.583C102.111 294.884 102.276 294.199 102.571 293.565C102.866 292.931 103.284 292.363 103.801 291.893C104.318 291.423 104.923 291.061 105.582 290.828L105.582 290.828L105.592 290.824C106.896 290.333 108.342 290.381 109.612 290.957C110.881 291.533 111.87 292.589 112.36 293.894Z" fill="#2267AC" stroke="#2267AC" stroke-width="1.11811"/>
<path d="M201.169 173.309L201.169 173.31C201.415 173.964 201.529 174.66 201.502 175.358C201.476 176.056 201.31 176.742 201.016 177.376C200.721 178.009 200.303 178.578 199.786 179.048C199.269 179.518 198.664 179.88 198.005 180.113L198.005 180.113L197.995 180.117C196.69 180.607 195.244 180.56 193.975 179.984C192.706 179.408 191.717 178.352 191.227 177.047L191.227 177.047L191.223 177.037C190.964 176.388 190.838 175.694 190.851 174.995C190.864 174.297 191.017 173.608 191.299 172.969C191.582 172.33 191.989 171.753 192.497 171.274C193.005 170.794 193.603 170.42 194.257 170.174L194.257 170.174C195.59 169.673 197.066 169.722 198.363 170.31C199.659 170.898 200.669 171.977 201.169 173.309Z" fill="#2267AC" stroke="#2267AC" stroke-width="1.11811"/>
</g>
<defs>
<filter id="filter0_f_397_16100" x="-1.27734" y="-1.91992" width="755.691" height="750.35" filterUnits="userSpaceOnUse" color-interpolation-filters="sRGB">
<feFlood flood-opacity="0" result="BackgroundImageFix"/>
<feBlend mode="normal" in="SourceGraphic" in2="BackgroundImageFix" result="shape"/>
<feGaussianBlur stdDeviation="1" result="effect1_foregroundBlur_397_16100"/>
</filter>
</defs>
</svg>
