<svg width="49" height="48" viewBox="0 0 49 48" fill="none" xmlns="http://www.w3.org/2000/svg">
<circle cx="24.9688" cy="24" r="24" fill="url(#paint0_linear_397_8701)"/>
<path d="M31.7598 23.0046L20.5898 23.0046L25.4698 18.1246C25.8598 17.7346 25.8598 17.0946 25.4698 16.7046C25.0798 16.3146 24.4498 16.3146 24.0598 16.7046L17.4698 23.2946C17.0798 23.6846 17.0798 24.3146 17.4698 24.7046L24.0598 31.2946C24.4498 31.6846 25.0798 31.6846 25.4698 31.2946C25.8598 30.9046 25.8598 30.2746 25.4698 29.8846L20.5898 25.0046L31.7598 25.0046C32.3098 25.0046 32.7598 24.5546 32.7598 24.0046C32.7598 23.4546 32.3098 23.0046 31.7598 23.0046Z" fill="white"/>
<defs>
<linearGradient id="paint0_linear_397_8701" x1="0.96875" y1="24" x2="48.9688" y2="24" gradientUnits="userSpaceOnUse">
<stop stop-color="#F26523"/>
<stop offset="0.534361" stop-color="#F77916"/>
<stop offset="0.868252" stop-color="#FF9900"/>
</linearGradient>
</defs>
</svg>
