<svg width="96" height="96" viewBox="0 0 96 96" fill="none" xmlns="http://www.w3.org/2000/svg">
<path d="M55.1855 81.4355C66.3693 81.4355 75.4355 72.3693 75.4355 61.1855C75.4355 50.0018 66.3693 40.9355 55.1855 40.9355C44.0018 40.9355 34.9355 50.0018 34.9355 61.1855C34.9355 72.3693 44.0018 81.4355 55.1855 81.4355Z" fill="url(#paint0_linear_397_9683)"/>
<path d="M54.5858 76.4997H54.3608L41.3258 74.5047C41.1306 74.4754 40.9432 74.4079 40.7742 74.306C40.6052 74.2042 40.458 74.07 40.3409 73.9111C40.2239 73.7523 40.1394 73.5719 40.0921 73.3803C40.0449 73.1887 40.0359 72.9897 40.0658 72.7947C40.1285 72.4034 40.3435 72.0528 40.664 71.8195C40.9844 71.5862 41.3841 71.4892 41.7758 71.5497L54.0908 73.4247L56.5208 71.1447L39.4208 64.1547C38.0828 63.5973 36.6477 63.3103 35.1983 63.3103C33.7488 63.3103 32.3137 63.5973 30.9758 64.1547L8.08575 73.9497C7.90308 74.0356 7.70494 74.0838 7.50321 74.0913C7.30148 74.0988 7.1003 74.0656 6.91173 73.9935C6.72316 73.9214 6.55108 73.812 6.4058 73.6719C6.26052 73.5317 6.14502 73.3637 6.06623 73.1778C5.98744 72.9919 5.94698 72.7921 5.94727 72.5902C5.94756 72.3883 5.98859 72.1886 6.06791 72.003C6.14724 71.8173 6.26321 71.6496 6.4089 71.5099C6.55458 71.3701 6.72698 71.2612 6.91575 71.1897L29.7908 61.3947C31.4949 60.6854 33.3224 60.3203 35.1683 60.3203C37.0141 60.3203 38.8416 60.6854 40.5458 61.3947L59.8058 69.2547C60.0403 69.3486 60.2474 69.5002 60.4077 69.6956C60.568 69.8909 60.6763 70.1235 60.7227 70.3719C60.7691 70.6202 60.752 70.8763 60.673 71.1163C60.594 71.3563 60.4556 71.5725 60.2708 71.7447L55.6208 76.1247C55.3358 76.3763 54.9658 76.5104 54.5858 76.4997Z" fill="white"/>
<path d="M14.5495 89.8955C14.3038 89.8959 14.0617 89.8359 13.8447 89.7208C13.6276 89.6057 13.4421 89.4391 13.3045 89.2355C13.1939 89.0721 13.1167 88.8885 13.0772 88.6952C13.0377 88.5019 13.0368 88.3027 13.0744 88.109C13.112 87.9153 13.1875 87.7309 13.2965 87.5665C13.4054 87.402 13.5458 87.2606 13.7095 87.1505L27.0145 78.1505C27.2021 78.0255 27.4156 77.9443 27.6389 77.9132C27.8623 77.882 28.0898 77.9016 28.3045 77.9705L53.2345 85.9505L86.0995 68.4755C85.4039 67.6997 84.4788 67.1663 83.4588 66.9531C82.4389 66.74 81.3775 66.8582 80.4295 67.2905L62.7895 75.2405C62.4275 75.4116 62.0123 75.4318 61.6354 75.2968C61.2584 75.1618 60.9505 74.8825 60.7795 74.5205C60.6084 74.1585 60.5882 73.7433 60.7232 73.3664C60.8582 72.9894 61.1375 72.6816 61.4995 72.5105L79.1395 64.5005C80.6659 63.8006 82.3764 63.6079 84.0203 63.9507C85.6642 64.2935 87.1551 65.1538 88.2745 66.4055L89.6095 67.9055C89.7609 68.0746 89.872 68.2759 89.9344 68.4941C89.9967 68.7124 90.0087 68.9419 89.9695 69.1655C89.9309 69.3894 89.842 69.6015 89.7095 69.786C89.577 69.9705 89.4043 70.1225 89.2045 70.2305L54.0895 88.9205C53.9136 89.0138 53.7208 89.0711 53.5225 89.0891C53.3242 89.1072 53.1243 89.0855 52.9345 89.0255L28.0795 81.0755L15.3895 89.6405C15.1412 89.8074 14.8486 89.8962 14.5495 89.8955Z" fill="white"/>
<path d="M53.4901 54.2099C49.6535 54.2129 45.9022 53.0779 42.7107 50.9486C39.5193 48.8192 37.031 45.7912 35.5608 42.2475C34.0905 38.7038 33.7043 34.8036 34.4509 31.0403C35.1976 27.2771 37.0436 23.8198 39.7554 21.1059C42.4673 18.392 45.9231 16.5433 49.6858 15.7937C53.4485 15.0441 57.3489 15.4273 60.8938 16.8949C64.4386 18.3624 67.4686 20.8483 69.6004 24.0381C71.7322 27.2279 72.8701 30.9783 72.8701 34.8149C72.8661 39.955 70.8235 44.8836 67.1903 48.5196C63.5572 52.1556 58.6301 54.202 53.4901 54.2099ZM53.4901 18.4349C50.2462 18.432 47.0743 19.3914 44.3759 21.1917C41.6774 22.9921 39.5737 25.5525 38.331 28.5489C37.0882 31.5453 36.7623 34.843 37.3944 38.0247C38.0265 41.2065 39.5883 44.1292 41.8821 46.4229C44.1759 48.7167 47.0985 50.2785 50.2803 50.9106C53.462 51.5427 56.7597 51.2168 59.7561 49.9741C62.7525 48.7313 65.3129 46.6276 67.1133 43.9291C68.9136 41.2307 69.8731 38.0588 69.8701 34.8149C69.8622 30.4731 68.1339 26.3114 65.0637 23.2413C61.9936 20.1711 57.8319 18.4429 53.4901 18.4349Z" fill="white"/>
<path d="M53.4894 62.8042C47.9529 62.8072 42.5398 61.1681 37.9349 58.0944C33.33 55.0206 29.7401 50.6502 27.6193 45.5359C25.4985 40.4217 24.9421 34.7934 26.0204 29.3629C27.0987 23.9323 29.7633 18.9436 33.6772 15.0276C37.591 11.1116 42.5784 8.44437 48.0083 7.36315C53.4382 6.28193 59.0669 6.83535 64.1822 8.95341C69.2976 11.0715 73.6699 14.659 76.7462 19.2623C79.8224 23.8655 81.4644 29.2777 81.4644 34.8142C81.4565 42.2326 78.507 49.3451 73.2628 54.5921C68.0187 59.8391 60.9078 62.7923 53.4894 62.8042ZM53.4894 9.83923C48.5456 9.83626 43.7119 11.2998 39.6 14.0446C35.4882 16.7893 32.2828 20.6921 30.3895 25.259C28.4962 29.826 28.0001 34.8519 28.9638 39.7009C29.9276 44.5498 32.308 49.004 35.8038 52.4998C39.2996 55.9956 43.7538 58.376 48.6028 59.3398C53.4517 60.3035 58.4776 59.8074 63.0446 57.9141C67.6115 56.0208 71.5143 52.8155 74.2591 48.7036C77.0039 44.5917 78.4674 39.7581 78.4644 34.8142C78.4565 28.1929 75.8226 21.845 71.1406 17.163C66.4586 12.481 60.1107 9.84717 53.4894 9.83923Z" fill="white"/>
<path d="M53.4908 14.2199C53.1182 14.2031 52.7652 14.048 52.5008 13.7849C52.359 13.646 52.2463 13.4804 52.1691 13.2975C52.0918 13.1147 52.0516 12.9184 52.0508 12.7199C52.0516 12.5215 52.0918 12.3252 52.1691 12.1423C52.2463 11.9595 52.359 11.7939 52.5008 11.6549C52.7818 11.3756 53.162 11.2188 53.5583 11.2188C53.9546 11.2188 54.3347 11.3756 54.6158 11.6549C54.7575 11.7939 54.8703 11.9595 54.9475 12.1423C55.0248 12.3252 55.065 12.5215 55.0658 12.7199C55.065 12.9184 55.0248 13.1147 54.9475 13.2975C54.8703 13.4804 54.7575 13.646 54.6158 13.7849L54.3908 13.9649C54.274 14.0417 54.14 14.0881 54.0008 14.0999C53.9106 14.1434 53.8146 14.1737 53.7158 14.1899C53.6423 14.2091 53.5667 14.2192 53.4908 14.2199Z" fill="white"/>
<path d="M69.1055 20.6856C68.7076 20.6856 68.3261 20.5275 68.0448 20.2462C67.7635 19.9649 67.6055 19.5834 67.6055 19.1856C67.6059 18.9845 67.6467 18.7856 67.7255 18.6006C67.7979 18.4178 67.9107 18.2537 68.0555 18.1206C68.2286 17.945 68.4424 17.8148 68.6779 17.7415C68.9134 17.6683 69.1633 17.6542 69.4055 17.7006L69.6755 17.7906L69.9455 17.9256L70.1705 18.1206C70.4498 18.4016 70.6067 18.7818 70.6067 19.1781C70.6067 19.5744 70.4498 19.9545 70.1705 20.2356L69.9455 20.4306L69.6755 20.5656L69.4055 20.6556L69.1055 20.6856Z" fill="white"/>
<path d="M75.5846 36.3156C75.3872 36.3168 75.1915 36.2789 75.0087 36.2043C74.826 36.1297 74.6598 36.0197 74.5196 35.8806C74.4507 35.8132 74.3902 35.7377 74.3396 35.6556C74.2805 35.571 74.2302 35.4806 74.1896 35.3856C74.1577 35.2977 74.1326 35.2074 74.1146 35.1156C74.0998 35.0162 74.0998 34.9151 74.1146 34.8156C74.1122 34.6206 74.1479 34.427 74.2196 34.2456C74.3011 34.0633 74.4127 33.896 74.5496 33.7506C74.8307 33.4713 75.2108 33.3145 75.6071 33.3145C76.0034 33.3145 76.3836 33.4713 76.6646 33.7506C76.8052 33.8901 76.9168 34.056 76.9929 34.2388C77.0691 34.4216 77.1083 34.6176 77.1083 34.8156C77.1083 35.0137 77.0691 35.2097 76.9929 35.3925C76.9168 35.5753 76.8052 35.7412 76.6646 35.8806C76.5227 36.0215 76.354 36.1325 76.1685 36.2072C75.9831 36.2819 75.7845 36.3188 75.5846 36.3156Z" fill="white"/>
<path d="M69.1058 51.9444C68.8096 51.943 68.5206 51.8538 68.275 51.6883C68.0294 51.5228 67.8383 51.2884 67.7258 51.0144C67.6489 50.8341 67.6081 50.6404 67.6058 50.4444C67.6012 50.2195 67.6473 49.9963 67.7407 49.7916C67.8341 49.5869 67.9723 49.4058 68.1452 49.2617C68.3181 49.1177 68.5211 49.0144 68.7393 48.9594C68.9575 48.9045 69.1853 48.8994 69.4058 48.9444L69.6758 49.0194L69.9458 49.1694L70.1708 49.3494C70.3844 49.5599 70.5301 49.8297 70.5889 50.1238C70.6478 50.4179 70.617 50.7229 70.5008 50.9994C70.4138 51.1787 70.3028 51.3452 70.1708 51.4944L69.9458 51.6744L69.6758 51.8094L69.4058 51.8994L69.1058 51.9444Z" fill="white"/>
<path d="M53.4896 58.4094C53.2922 58.4105 53.0965 58.3727 52.9138 58.298C52.731 58.2234 52.5648 58.1134 52.4246 57.9744C52.2762 57.8385 52.163 57.6686 52.0946 57.4794C51.9907 57.1976 51.9738 56.8912 52.046 56.5997C52.1182 56.3082 52.2762 56.0451 52.4996 55.8444C52.7807 55.565 53.1608 55.4082 53.5571 55.4082C53.9534 55.4082 54.3336 55.565 54.6146 55.8444C54.7515 55.9898 54.8631 56.1571 54.9446 56.3394C55.024 56.5189 55.065 56.7131 55.065 56.9094C55.065 57.1057 55.024 57.2998 54.9446 57.4794C54.8688 57.6648 54.7566 57.8331 54.6146 57.9744C54.4674 58.1208 54.2914 58.2351 54.0978 58.3099C53.9041 58.3848 53.697 58.4187 53.4896 58.4094Z" fill="white"/>
<path d="M37.8595 51.9442C37.4617 51.9442 37.0801 51.7862 36.7988 51.5049C36.5175 51.2236 36.3595 50.8421 36.3595 50.4442C36.3571 50.2492 36.3928 50.0556 36.4645 49.8742C36.5442 49.6909 36.6559 49.5233 36.7945 49.3792C36.9339 49.2386 37.0998 49.1271 37.2826 49.0509C37.4654 48.9748 37.6615 48.9355 37.8595 48.9355C38.0575 48.9355 38.2536 48.9748 38.4364 49.0509C38.6191 49.1271 38.785 49.2386 38.9245 49.3792C39.0634 49.52 39.1708 49.6888 39.2395 49.8742C39.3163 50.0546 39.3571 50.2482 39.3595 50.4442C39.3595 50.8421 39.2015 51.2236 38.9201 51.5049C38.6388 51.7862 38.2573 51.9442 37.8595 51.9442Z" fill="white"/>
<path d="M31.3946 36.3156C31.1971 36.3167 31.0015 36.2789 30.8187 36.2043C30.6359 36.1296 30.4697 36.0196 30.3296 35.8806C30.1905 35.7404 30.0805 35.5742 30.0059 35.3915C29.9313 35.2087 29.8934 35.013 29.8946 34.8156C29.8934 34.6182 29.9313 34.4225 30.0059 34.2397C30.0805 34.057 30.1905 33.8908 30.3296 33.7506C30.5042 33.5777 30.7186 33.4503 30.954 33.3797C31.1894 33.309 31.4386 33.2973 31.6796 33.3456C31.7784 33.3619 31.8743 33.3922 31.9646 33.4356C32.0567 33.4656 32.143 33.5112 32.2196 33.5706L32.4446 33.7506C32.5863 33.8895 32.699 34.0552 32.7763 34.238C32.8535 34.4208 32.8937 34.6171 32.8946 34.8156C32.8937 35.0141 32.8535 35.2104 32.7763 35.3932C32.699 35.576 32.5863 35.7417 32.4446 35.8806C32.3763 35.9486 32.3009 36.009 32.2196 36.0606C32.1397 36.1189 32.0543 36.1691 31.9646 36.2106L31.6796 36.2856C31.5867 36.3103 31.4905 36.3204 31.3946 36.3156Z" fill="white"/>
<path d="M37.8595 20.6994H37.5595L37.2895 20.6094L37.0195 20.4744L36.7945 20.2794C36.6594 20.1382 36.5479 19.9761 36.4645 19.7994C36.3928 19.618 36.3571 19.4244 36.3595 19.2294C36.3583 19.032 36.3962 18.8363 36.4708 18.6535C36.5455 18.4708 36.6555 18.3046 36.7945 18.1644C36.9339 18.0238 37.0998 17.9122 37.2826 17.8361C37.4654 17.7599 37.6615 17.7207 37.8595 17.7207C38.0575 17.7207 38.2536 17.7599 38.4364 17.8361C38.6191 17.9122 38.785 18.0238 38.9245 18.1644C39.0635 18.3046 39.1735 18.4708 39.2481 18.6535C39.3228 18.8363 39.3606 19.032 39.3595 19.2294C39.3578 19.6229 39.2016 20 38.9245 20.2794C38.639 20.5547 38.2561 20.7057 37.8595 20.6994Z" fill="white"/>
<path d="M54.4501 35.8059H49.5001C49.1884 35.8019 48.8908 35.6753 48.6718 35.4535C48.4528 35.2317 48.3301 34.9326 48.3301 34.6209V28.0509C48.3301 27.7406 48.4533 27.443 48.6728 27.2235C48.8922 27.0041 49.1898 26.8809 49.5001 26.8809H54.4501C55.534 27.0217 56.5297 27.5522 57.2511 28.3734C57.9725 29.1946 58.3703 30.2503 58.3703 31.3434C58.3703 32.4364 57.9725 33.4921 57.2511 34.3133C56.5297 35.1345 55.534 35.665 54.4501 35.8059ZM50.7001 33.4509H54.4501C55.011 33.4509 55.549 33.228 55.9456 32.8314C56.3422 32.4348 56.5651 31.8968 56.5651 31.3359C56.5651 30.7749 56.3422 30.237 55.9456 29.8403C55.549 29.4437 55.011 29.2209 54.4501 29.2209H50.7001V33.4509Z" fill="white"/>
<path d="M56.1002 42.3742H49.5002C49.3453 42.3742 49.1919 42.3435 49.0489 42.2837C48.906 42.224 48.7763 42.1365 48.6675 42.0262C48.5587 41.916 48.4728 41.7853 48.4149 41.6416C48.357 41.4979 48.3282 41.3441 48.3302 41.1892V34.6192C48.3302 34.3089 48.4534 34.0113 48.6729 33.7919C48.8923 33.5725 49.1899 33.4492 49.5002 33.4492H56.1002C57.1841 33.59 58.1798 34.1206 58.9012 34.9418C59.6226 35.763 60.0204 36.8187 60.0204 37.9117C60.0204 39.0048 59.6226 40.0605 58.9012 40.8817C58.1798 41.7029 57.1841 42.2334 56.1002 42.3742ZM50.7002 40.0192H56.1002C56.6284 39.9746 57.1207 39.7333 57.4794 39.343C57.8381 38.9526 58.0372 38.4418 58.0372 37.9117C58.0372 37.3816 57.8381 36.8708 57.4794 36.4805C57.1207 36.0902 56.6284 35.8488 56.1002 35.8042H50.7002V40.0192Z" fill="white"/>
<path d="M52.8155 29.2208C52.6606 29.2228 52.5069 29.194 52.3632 29.1361C52.2195 29.0781 52.0888 28.9923 51.9785 28.8834C51.8683 28.7746 51.7808 28.6449 51.721 28.502C51.6613 28.3591 51.6305 28.2057 51.6305 28.0508V26.4158C51.6118 26.25 51.6283 26.0821 51.6789 25.9231C51.7295 25.7641 51.8132 25.6176 51.9243 25.4932C52.0355 25.3688 52.1717 25.2692 52.3239 25.2011C52.4762 25.1329 52.6412 25.0977 52.8081 25.0977C52.9749 25.0977 53.1399 25.1329 53.2922 25.2011C53.4444 25.2692 53.5806 25.3688 53.6918 25.4932C53.8029 25.6176 53.8866 25.7641 53.9372 25.9231C53.9878 26.0821 54.0043 26.25 53.9856 26.4158V28.0508C53.9856 28.3611 53.8623 28.6587 53.6429 28.8781C53.4234 29.0975 53.1259 29.2208 52.8155 29.2208Z" fill="white"/>
<path d="M52.8159 44.0106C52.661 44.0125 52.5072 43.9838 52.3635 43.9258C52.2198 43.8679 52.0891 43.7821 51.9788 43.6732C51.8686 43.5644 51.7811 43.4347 51.7213 43.2918C51.6616 43.1489 51.6308 42.9955 51.6309 42.8406V41.1906C51.6636 40.9012 51.8017 40.634 52.0189 40.4399C52.2361 40.2459 52.5171 40.1387 52.8084 40.1387C53.0996 40.1387 53.3806 40.2459 53.5978 40.4399C53.815 40.634 53.9532 40.9012 53.9859 41.1906V42.8406C53.9859 43.1509 53.8626 43.4485 53.6432 43.6679C53.4238 43.8873 53.1262 44.0106 52.8159 44.0106Z" fill="white"/>
<path d="M49.5009 29.2209H47.8809C47.5706 29.2209 47.273 29.0976 47.0536 28.8782C46.8342 28.6588 46.7109 28.3612 46.7109 28.0509C46.7109 27.7406 46.8342 27.443 47.0536 27.2235C47.273 27.0041 47.5706 26.8809 47.8809 26.8809H49.5009C49.8112 26.8809 50.1088 27.0041 50.3283 27.2235C50.5477 27.443 50.6709 27.7406 50.6709 28.0509C50.6709 28.3612 50.5477 28.6588 50.3283 28.8782C50.1088 29.0976 49.8112 29.2209 49.5009 29.2209Z" fill="white"/>
<path d="M49.5 42.3742H47.88C47.5906 42.3415 47.3234 42.2034 47.1294 41.9862C46.9354 41.769 46.8281 41.488 46.8281 41.1967C46.8281 40.9055 46.9354 40.6245 47.1294 40.4073C47.3234 40.1901 47.5906 40.0519 47.88 40.0192H49.5C49.6658 40.0005 49.8337 40.017 49.9927 40.0676C50.1517 40.1182 50.2982 40.2018 50.4226 40.313C50.547 40.4241 50.6466 40.5603 50.7147 40.7126C50.7829 40.8649 50.8181 41.0299 50.8181 41.1967C50.8181 41.3636 50.7829 41.5285 50.7147 41.6808C50.6466 41.8331 50.547 41.9693 50.4226 42.0804C50.2982 42.1916 50.1517 42.2752 49.9927 42.3259C49.8337 42.3765 49.6658 42.393 49.5 42.3742Z" fill="white"/>
<defs>
<linearGradient id="paint0_linear_397_9683" x1="34.9355" y1="61.1855" x2="75.4355" y2="61.1855" gradientUnits="userSpaceOnUse">
<stop stop-color="#F26523"/>
<stop offset="0.534361" stop-color="#F77916"/>
<stop offset="0.868252" stop-color="#FF9900"/>
</linearGradient>
</defs>
</svg>
