<svg width="96" height="96" viewBox="0 0 96 96" fill="none" xmlns="http://www.w3.org/2000/svg">
<path d="M48 68.25C59.1838 68.25 68.25 59.1838 68.25 48C68.25 36.8162 59.1838 27.75 48 27.75C36.8162 27.75 27.75 36.8162 27.75 48C27.75 59.1838 36.8162 68.25 48 68.25Z" fill="url(#paint0_linear_397_9661)"/>
<path d="M66.7954 67.3955C62.9594 67.3955 59.2096 66.258 56.0201 64.1268C52.8306 61.9957 50.3447 58.9666 48.8768 55.4226C47.4088 51.8787 47.0247 47.979 47.7731 44.2167C48.5214 40.4544 50.3686 36.9986 53.0811 34.2861C55.7935 31.5737 59.2494 29.7265 63.0116 28.9781C66.7739 28.2298 70.6736 28.6139 74.2175 30.0818C77.7615 31.5498 80.7906 34.0357 82.9218 37.2252C85.0529 40.4147 86.1904 44.1645 86.1904 48.0005C86.1864 53.1431 84.1418 58.074 80.5053 61.7104C76.8689 65.3468 71.9381 67.3915 66.7954 67.3955ZM66.7954 31.6055C63.5528 31.6055 60.383 32.567 57.6868 34.3685C54.9907 36.17 52.8893 38.7306 51.6484 41.7264C50.4075 44.7222 50.0828 48.0187 50.7154 51.199C51.348 54.3793 52.9095 57.3006 55.2024 59.5935C57.4953 61.8864 60.4166 63.4478 63.5969 64.0805C66.7772 64.7131 70.0737 64.3884 73.0695 63.1475C76.0653 61.9066 78.6258 59.8052 80.4273 57.1091C82.2289 54.4129 83.1904 51.2431 83.1904 48.0005C83.1864 43.6535 81.4578 39.4856 78.384 36.4118C75.3102 33.3381 71.1424 31.6094 66.7954 31.6055Z" fill="white"/>
<path d="M66.7052 60.0747C66.5494 60.0752 66.395 60.045 66.2508 59.9858C66.1067 59.9266 65.9756 59.8396 65.8652 59.7297L56.8652 50.6397C56.6697 50.4456 56.5489 50.1887 56.5242 49.9143C56.4995 49.6399 56.5725 49.3656 56.7302 49.1397L65.8202 36.4197C65.9339 36.276 66.0787 36.16 66.2436 36.0802C66.4086 36.0004 66.5895 35.959 66.7727 35.959C66.9559 35.959 67.1368 36.0004 67.3017 36.0802C67.4667 36.16 67.6114 36.276 67.7252 36.4197L76.8152 49.1397C76.9729 49.3656 77.0458 49.6399 77.0211 49.9143C76.9964 50.1887 76.8757 50.4456 76.6802 50.6397L67.6802 59.7297C67.555 59.8581 67.4019 59.9559 67.2329 60.0158C67.0638 60.0756 66.8833 60.0957 66.7052 60.0747ZM59.2052 49.6947L66.7052 57.1947L74.2052 49.6947L66.7052 39.1947L59.2052 49.6947Z" fill="white"/>
<path d="M75.7796 51.001H75.5396L66.7046 49.201L57.8546 51.001C57.696 51.0511 57.5286 51.0673 57.3633 51.0484C57.198 51.0296 57.0386 50.9762 56.8953 50.8916C56.7521 50.8071 56.6282 50.6934 56.5318 50.5578C56.4354 50.4223 56.3686 50.268 56.3358 50.1049C56.303 49.9418 56.3048 49.7737 56.3413 49.6114C56.3777 49.4491 56.448 49.2963 56.5473 49.1629C56.6467 49.0296 56.7731 48.9186 56.9182 48.8373C57.0633 48.756 57.2239 48.7061 57.3896 48.691L66.4646 46.876C66.6181 46.846 66.776 46.846 66.9296 46.876L76.0046 48.691C76.2649 48.7718 76.4895 48.9399 76.6404 49.167C76.7912 49.3941 76.8592 49.6662 76.8327 49.9376C76.8063 50.2089 76.6871 50.4629 76.4953 50.6566C76.3034 50.8503 76.0506 50.9719 75.7796 51.001Z" fill="white"/>
<path d="M66.7045 60.0742C66.3903 60.0742 66.0888 59.9493 65.8666 59.7271C65.6444 59.5048 65.5195 59.2034 65.5195 58.8892V47.9992C65.5522 47.7098 65.6904 47.4426 65.9076 47.2485C66.1248 47.0545 66.4058 46.9473 66.697 46.9473C66.9883 46.9473 67.2693 47.0545 67.4865 47.2485C67.7037 47.4426 67.8418 47.7098 67.8745 47.9992V58.8892C67.8765 59.0441 67.8477 59.1978 67.7898 59.3415C67.7319 59.4852 67.646 59.6159 67.5372 59.7262C67.4284 59.8364 67.2987 59.9239 67.1558 59.9837C67.0128 60.0434 66.8594 60.0742 66.7045 60.0742Z" fill="white"/>
<path d="M29.2049 89.1455C25.3683 89.1484 21.617 88.0135 18.4256 85.8841C15.2341 83.7548 12.7459 80.7267 11.2756 77.183C9.80533 73.6393 9.41911 69.7391 10.1658 65.9759C10.9124 62.2126 12.7584 58.7554 15.4703 56.0414C18.1821 53.3275 21.638 51.4788 25.4006 50.7292C29.1633 49.9797 33.0638 50.3629 36.6086 51.8304C40.1535 53.2979 43.1834 55.7838 45.3152 58.9736C47.4471 62.1634 48.5849 65.9139 48.5849 69.7505C48.581 74.8905 46.5384 79.8191 42.9052 83.4551C39.272 87.0911 34.345 89.1375 29.2049 89.1455ZM29.2049 53.3555C25.9617 53.3525 22.7904 54.3115 20.0923 56.1112C17.3942 57.9109 15.2904 60.4704 14.0472 63.466C12.804 66.4615 12.4772 69.7585 13.1081 72.9398C13.739 76.1211 15.2993 79.0438 17.5916 81.3382C19.8839 83.6326 22.8052 85.1955 25.9859 85.8293C29.1666 86.4632 32.4639 86.1394 35.4606 84.8989C38.4572 83.6585 41.0187 81.5571 42.8208 78.8606C44.623 76.1641 45.5849 72.9937 45.5849 69.7505C45.581 65.4061 43.8544 61.2405 40.7839 58.1671C37.7133 55.0938 33.5493 53.3634 29.2049 53.3555Z" fill="white"/>
<path d="M32.115 77.9994H23.115C22.902 77.9991 22.6915 77.9535 22.4975 77.8655C22.3036 77.7776 22.1305 77.6494 21.99 77.4894C21.8491 77.3288 21.744 77.1401 21.682 76.9357C21.6199 76.7314 21.6021 76.5161 21.63 76.3043L23.355 62.4593C23.4026 62.0962 23.5814 61.763 23.8577 61.5226C24.134 61.2822 24.4887 61.1512 24.855 61.1544H33C33.7026 61.1532 34.3975 61.3016 35.0384 61.5898C35.6792 61.8779 36.2514 62.2992 36.7168 62.8257C37.1822 63.3521 37.5302 63.9716 37.7377 64.643C37.9451 65.3143 38.0073 66.0221 37.92 66.7193L37.05 73.6493C36.8968 74.8504 36.3113 75.9546 35.403 76.7552C34.4947 77.5558 33.3258 77.9981 32.115 77.9994ZM24.75 74.9994H32.115C32.5936 74.9961 33.0548 74.8195 33.4133 74.5024C33.7718 74.1853 34.0033 73.749 34.065 73.2743L34.92 66.3594C34.961 66.0837 34.942 65.8024 34.8643 65.5347C34.7866 65.2671 34.652 65.0194 34.4696 64.8086C34.2873 64.5977 34.0616 64.4288 33.8079 64.3133C33.5543 64.1978 33.2787 64.1385 33 64.1393H26.115L24.75 74.9994Z" fill="white"/>
<path d="M28.2444 71.0547H19.8594C19.4616 71.0547 19.08 70.8967 18.7987 70.6153C18.5174 70.334 18.3594 69.9525 18.3594 69.5547C18.3594 69.1569 18.5174 68.7753 18.7987 68.494C19.08 68.2127 19.4616 68.0547 19.8594 68.0547H28.2444C28.6422 68.0547 29.0237 68.2127 29.305 68.494C29.5863 68.7753 29.7444 69.1569 29.7444 69.5547C29.7444 69.9525 29.5863 70.334 29.305 70.6153C29.0237 70.8967 28.6422 71.0547 28.2444 71.0547Z" fill="white"/>
<path d="M29.2049 45.6455C25.3683 45.6484 21.617 44.5135 18.4256 42.3841C15.2341 40.2548 12.7459 37.2267 11.2756 33.683C9.80533 30.1393 9.41911 26.2391 10.1658 22.4759C10.9124 18.7126 12.7584 15.2554 15.4703 12.5414C18.1821 9.82751 21.638 7.97882 25.4006 7.22925C29.1633 6.47967 33.0638 6.86288 36.6086 8.3304C40.1535 9.79792 43.1834 12.2838 45.3152 15.4736C47.4471 18.6634 48.5849 22.4139 48.5849 26.2505C48.581 31.3905 46.5384 36.3191 42.9052 39.9551C39.272 43.5911 34.345 45.6375 29.2049 45.6455ZM29.2049 9.85547C25.9617 9.8525 22.7904 10.8115 20.0923 12.6112C17.3942 14.4109 15.2904 16.9704 14.0472 19.966C12.804 22.9615 12.4772 26.2585 13.1081 29.4398C13.739 32.6211 15.2993 35.5438 17.5916 37.8382C19.8839 40.1326 22.8052 41.6955 25.9859 42.3293C29.1666 42.9632 32.4639 42.6394 35.4606 41.3989C38.4572 40.1585 41.0187 38.0571 42.8208 35.3606C44.623 32.6641 45.5849 29.4937 45.5849 26.2505C45.581 21.9061 43.8544 17.7405 40.7839 14.6671C37.7133 11.5938 33.5493 9.86341 29.2049 9.85547Z" fill="white"/>
<path d="M30.1655 27.555H25.2305C24.8326 27.555 24.4511 27.397 24.1698 27.1157C23.8885 26.8344 23.7305 26.4528 23.7305 26.055V19.5C23.7305 19.1022 23.8885 18.7206 24.1698 18.4393C24.4511 18.158 24.8326 18 25.2305 18H30.1655C31.4345 18 32.6516 18.5041 33.549 19.4015C34.4463 20.2989 34.9505 21.5159 34.9505 22.785C34.9505 24.0541 34.4463 25.2711 33.549 26.1685C32.6516 27.0659 31.4345 27.57 30.1655 27.57V27.555ZM26.7305 24.555H30.1655C30.3999 24.555 30.632 24.5088 30.8486 24.4191C31.0651 24.3294 31.2619 24.1979 31.4277 24.0322C31.5934 23.8664 31.7249 23.6697 31.8146 23.4531C31.9043 23.2365 31.9505 23.0044 31.9505 22.77C31.9505 22.5356 31.9043 22.3035 31.8146 22.0869C31.7249 21.8703 31.5934 21.6736 31.4277 21.5078C31.2619 21.3421 31.0651 21.2106 30.8486 21.1209C30.632 21.0312 30.3999 20.985 30.1655 20.985H26.7305V24.555Z" fill="white"/>
<path d="M31.8155 34.1247H25.2305C24.8326 34.1247 24.4511 33.9667 24.1698 33.6853C23.8885 33.404 23.7305 33.0225 23.7305 32.6247V26.0547C23.7305 25.6569 23.8885 25.2753 24.1698 24.994C24.4511 24.7127 24.8326 24.5547 25.2305 24.5547H31.8155C33.0845 24.5547 34.3016 25.0588 35.199 25.9562C36.0963 26.8535 36.6005 28.0706 36.6005 29.3397C36.6005 30.6087 36.0963 31.8258 35.199 32.7232C34.3016 33.6206 33.0845 34.1247 31.8155 34.1247ZM26.7305 31.1247H31.8155C32.2889 31.1247 32.7429 30.9366 33.0777 30.6019C33.4124 30.2671 33.6005 29.8131 33.6005 29.3397C33.6005 28.8663 33.4124 28.4123 33.0777 28.0775C32.7429 27.7427 32.2889 27.5547 31.8155 27.5547H26.7305V31.1247Z" fill="white"/>
<path d="M28.5 20.9996C28.1022 20.9996 27.7206 20.8416 27.4393 20.5603C27.158 20.279 27 19.8974 27 19.4996V17.8496C27 17.4518 27.158 17.0703 27.4393 16.7889C27.7206 16.5076 28.1022 16.3496 28.5 16.3496C28.8978 16.3496 29.2794 16.5076 29.5607 16.7889C29.842 17.0703 30 17.4518 30 17.8496V19.4996C30 19.8974 29.842 20.279 29.5607 20.5603C29.2794 20.8416 28.8978 20.9996 28.5 20.9996Z" fill="white"/>
<path d="M28.5 35.775C28.1022 35.775 27.7206 35.617 27.4393 35.3357C27.158 35.0544 27 34.6728 27 34.275V32.625C27 32.2272 27.158 31.8456 27.4393 31.5643C27.7206 31.283 28.1022 31.125 28.5 31.125C28.8978 31.125 29.2794 31.283 29.5607 31.5643C29.842 31.8456 30 32.2272 30 32.625V34.275C30 34.6728 29.842 35.0544 29.5607 35.3357C29.2794 35.617 28.8978 35.775 28.5 35.775Z" fill="white"/>
<path d="M25.2307 21H23.5957C23.1979 21 22.8163 20.842 22.535 20.5607C22.2537 20.2794 22.0957 19.8978 22.0957 19.5C22.0957 19.1022 22.2537 18.7206 22.535 18.4393C22.8163 18.158 23.1979 18 23.5957 18H25.2307C25.6285 18 26.0101 18.158 26.2914 18.4393C26.5727 18.7206 26.7307 19.1022 26.7307 19.5C26.7307 19.8978 26.5727 20.2794 26.2914 20.5607C26.0101 20.842 25.6285 21 25.2307 21Z" fill="white"/>
<path d="M25.2307 34.125H23.5957C23.1979 34.125 22.8163 33.967 22.535 33.6857C22.2537 33.4044 22.0957 33.0228 22.0957 32.625C22.0957 32.2272 22.2537 31.8456 22.535 31.5643C22.8163 31.283 23.1979 31.125 23.5957 31.125H25.2307C25.6285 31.125 26.0101 31.283 26.2914 31.5643C26.5727 31.8456 26.7307 32.2272 26.7307 32.625C26.7307 33.0228 26.5727 33.4044 26.2914 33.6857C26.0101 33.967 25.6285 34.125 25.2307 34.125Z" fill="white"/>
<defs>
<linearGradient id="paint0_linear_397_9661" x1="27.75" y1="48" x2="68.25" y2="48" gradientUnits="userSpaceOnUse">
<stop stop-color="#F26523"/>
<stop offset="0.534361" stop-color="#F77916"/>
<stop offset="0.868252" stop-color="#FF9900"/>
</linearGradient>
</defs>
</svg>
