<svg width="96" height="96" viewBox="0 0 96 96" fill="none" xmlns="http://www.w3.org/2000/svg">
<path d="M68.1445 48C79.3283 48 88.3945 38.9338 88.3945 27.75C88.3945 16.5662 79.3283 7.5 68.1445 7.5C56.9608 7.5 47.8945 16.5662 47.8945 27.75C47.8945 38.9338 56.9608 48 68.1445 48Z" fill="url(#paint0_linear_397_9608)"/>
<path d="M48.0005 67.3955C44.1645 67.3955 40.4147 66.258 37.2252 64.1268C34.0357 61.9957 31.5498 58.9666 30.0818 55.4226C28.6139 51.8787 28.2298 47.979 28.9781 44.2167C29.7265 40.4544 31.5737 36.9986 34.2861 34.2861C36.9986 31.5737 40.4544 29.7265 44.2167 28.9781C47.979 28.2298 51.8787 28.6139 55.4226 30.0818C58.9666 31.5498 61.9957 34.0357 64.1268 37.2252C66.258 40.4147 67.3955 44.1645 67.3955 48.0005C67.3915 53.1431 65.3468 58.074 61.7104 61.7104C58.074 65.3468 53.1431 67.3915 48.0005 67.3955ZM48.0005 31.6055C44.7579 31.6055 41.588 32.567 38.8919 34.3685C36.1958 36.17 34.0944 38.7306 32.8535 41.7264C31.6126 44.7222 31.2879 48.0187 31.9205 51.199C32.5531 54.3793 34.1146 57.3006 36.4075 59.5935C38.7003 61.8864 41.6217 63.4478 44.802 64.0805C47.9823 64.7131 51.2788 64.3884 54.2746 63.1475C57.2704 61.9066 59.8309 59.8052 61.6324 57.1091C63.4339 54.4129 64.3955 51.2431 64.3955 48.0005C64.368 43.6608 62.6318 39.5066 59.5631 36.4379C56.4944 33.3692 52.3402 31.633 48.0005 31.6055Z" fill="white"/>
<path d="M48.0004 75.9754C42.4675 75.9754 37.0588 74.3347 32.4583 71.2608C27.8579 68.1868 24.2722 63.8177 22.1549 58.706C20.0375 53.5942 19.4835 47.9694 20.5629 42.5427C21.6424 37.1161 24.3067 32.1315 28.2191 28.2191C32.1315 24.3067 37.1161 21.6424 42.5427 20.5629C47.9694 19.4835 53.5942 20.0375 58.706 22.1549C63.8177 24.2722 68.1868 27.8579 71.2608 32.4583C74.3347 37.0588 75.9754 42.4675 75.9754 48.0004C75.9714 55.4186 73.0228 62.5319 67.7773 67.7773C62.5319 73.0228 55.4186 75.9714 48.0004 75.9754ZM48.0004 23.0254C43.0608 23.0254 38.2322 24.4902 34.125 27.2344C30.0179 29.9787 26.8168 33.8793 24.9265 38.4429C23.0362 43.0065 22.5416 48.0281 23.5053 52.8728C24.469 57.7175 26.8476 62.1676 30.3404 65.6604C33.8332 69.1532 38.2833 71.5318 43.128 72.4955C47.9727 73.4592 52.9943 72.9646 57.5579 71.0743C62.1215 69.184 66.0221 65.9829 68.7664 61.8758C71.5106 57.7687 72.9754 52.94 72.9754 48.0004C72.9675 41.3791 70.3336 35.0312 65.6516 30.3492C60.9696 25.6672 54.6217 23.0333 48.0004 23.0254Z" fill="white"/>
<path d="M47.9991 27.4043C47.6522 27.4023 47.3167 27.2801 47.0498 27.0585C46.7828 26.8369 46.6009 26.5297 46.5351 26.1891C46.4692 25.8484 46.5235 25.4955 46.6886 25.1904C46.8537 24.8853 47.1195 24.6468 47.4406 24.5157C47.7618 24.3845 48.1185 24.3687 48.45 24.471C48.7815 24.5732 49.0673 24.7872 49.2588 25.0766C49.4502 25.3659 49.5354 25.7126 49.4999 26.0577C49.4645 26.4028 49.3105 26.725 49.0641 26.9693C48.7767 27.2434 48.3963 27.3987 47.9991 27.4043Z" fill="white"/>
<path d="M63.63 33.8709C63.4326 33.872 63.2369 33.8342 63.0542 33.7595C62.8714 33.6849 62.7052 33.5749 62.565 33.4359C62.4922 33.368 62.4268 33.2926 62.37 33.2109L62.235 33.0009C62.2031 32.9079 62.178 32.8126 62.16 32.7159C62.1446 32.6165 62.1446 32.5153 62.16 32.4159C62.1617 32.0224 62.3179 31.6453 62.595 31.3659C62.8761 31.0865 63.2563 30.9297 63.6525 30.9297C64.0488 30.9297 64.429 31.0865 64.71 31.3659C64.9156 31.5755 65.0551 31.8409 65.1113 32.1291C65.1674 32.4173 65.1378 32.7156 65.026 32.9871C64.9142 33.2587 64.7252 33.4914 64.4824 33.6565C64.2396 33.8216 63.9536 33.9118 63.66 33.9159L63.63 33.8709Z" fill="white"/>
<path d="M70.0957 49.4992C69.6986 49.4937 69.3182 49.3383 69.0307 49.0642C68.8941 48.9216 68.7871 48.7534 68.7157 48.5692C68.6388 48.3889 68.5981 48.1952 68.5957 47.9992C68.6012 47.6021 68.7566 47.2217 69.0307 46.9342C69.2416 46.7261 69.5095 46.5851 69.8005 46.529C70.0915 46.473 70.3925 46.5044 70.6657 46.6192C70.8512 46.688 71.0199 46.7953 71.1607 46.9342C71.4348 47.2217 71.5902 47.6021 71.5957 47.9992C71.5933 48.1952 71.5526 48.3889 71.4757 48.5692C71.4043 48.7534 71.2973 48.9216 71.1607 49.0642C71.0199 49.2031 70.8512 49.3105 70.6657 49.3792C70.4854 49.4561 70.2917 49.4969 70.0957 49.4992Z" fill="white"/>
<path d="M63.6296 65.1306H63.3296L62.9996 65.0106L62.7446 64.8756C62.6629 64.8188 62.5874 64.7534 62.5196 64.6806C62.4433 64.6162 62.3775 64.5402 62.3246 64.4556L62.1896 64.2006C62.1558 64.1081 62.1306 64.0127 62.1146 63.9156C62.1 63.8211 62.1 63.725 62.1146 63.6306C62.0998 63.5311 62.0998 63.43 62.1146 63.3306C62.1325 63.2338 62.1576 63.1386 62.1896 63.0456L62.3246 62.7906C62.4438 62.6312 62.5853 62.4898 62.7446 62.3706L62.9996 62.2356L63.2846 62.1606C63.477 62.1158 63.6772 62.1158 63.8696 62.1606L64.1546 62.2356L64.4096 62.3706C64.4943 62.4235 64.5702 62.4892 64.6346 62.5656C64.7074 62.6334 64.7728 62.7088 64.8296 62.7906L64.9646 63.0456L65.0546 63.3306C65.062 63.4304 65.062 63.5307 65.0546 63.6306C65.062 63.7254 65.062 63.8207 65.0546 63.9156L64.9646 64.2006L64.8296 64.4556C64.7104 64.6149 64.5689 64.7563 64.4096 64.8756L64.1546 65.0106L63.8696 65.1006L63.6296 65.1306Z" fill="white"/>
<path d="M47.9997 71.5946C47.8029 71.5997 47.6077 71.5586 47.4297 71.4746C47.2455 71.4032 47.0773 71.2962 46.9347 71.1596C46.6606 70.8722 46.5052 70.4918 46.4997 70.0946C46.4923 69.9998 46.4923 69.9045 46.4997 69.8096C46.5136 69.7103 46.544 69.614 46.5897 69.5246C46.6196 69.4325 46.6653 69.3462 46.7247 69.2696L46.9047 69.0296C47.0441 68.889 47.21 68.7775 47.3928 68.7013C47.5756 68.6251 47.7716 68.5859 47.9697 68.5859C48.1677 68.5859 48.3637 68.6251 48.5465 68.7013C48.7293 68.7775 48.8952 68.889 49.0346 69.0296C49.3088 69.3171 49.4641 69.6975 49.4697 70.0946C49.4673 70.2907 49.4265 70.4843 49.3497 70.6646C49.2809 70.8501 49.1736 71.0188 49.0346 71.1596C48.7548 71.4268 48.3864 71.5817 47.9997 71.5946Z" fill="white"/>
<path d="M32.3707 65.1301C32.074 65.1288 31.7844 65.0397 31.5384 64.8738C31.2924 64.708 31.1012 64.4729 30.9888 64.1984C30.8764 63.9238 30.8479 63.6221 30.907 63.3314C30.9661 63.0407 31.11 62.774 31.3207 62.5651C31.6017 62.2857 31.9819 62.1289 32.3782 62.1289C32.7744 62.1289 33.1546 62.2857 33.4357 62.5651C33.715 62.8461 33.8719 63.2263 33.8719 63.6226C33.8719 64.0189 33.715 64.399 33.4357 64.6801C33.2967 64.8218 33.1311 64.9346 32.9483 65.0118C32.7655 65.0891 32.5691 65.1293 32.3707 65.1301Z" fill="white"/>
<path d="M25.9054 49.4992C25.708 49.5004 25.5123 49.4625 25.3295 49.3879C25.1468 49.3132 24.9806 49.2033 24.8404 49.0642C24.5663 48.7768 24.4109 48.3964 24.4054 47.9992C24.3987 47.8993 24.3987 47.7991 24.4054 47.6992C24.4218 47.6053 24.4521 47.5143 24.4954 47.4292C24.5254 47.3371 24.571 47.2508 24.6304 47.1742C24.6822 47.0884 24.7425 47.008 24.8104 46.9342C25.0213 46.7261 25.2892 46.5851 25.5802 46.529C25.8712 46.473 26.1722 46.5044 26.4454 46.6192C26.6272 46.6952 26.7946 46.8017 26.9404 46.9342L27.1204 47.1742C27.1798 47.2508 27.2254 47.3371 27.2554 47.4292C27.2986 47.5143 27.329 47.6053 27.3454 47.6992C27.3521 47.7991 27.3521 47.8993 27.3454 47.9992C27.3399 48.3964 27.1845 48.7768 26.9104 49.0642C26.7646 49.1967 26.5972 49.3033 26.4154 49.3792C26.2538 49.4488 26.0811 49.4895 25.9054 49.4992Z" fill="white"/>
<path d="M32.371 33.871C31.9774 33.8693 31.6003 33.7131 31.321 33.436C31.0416 33.1549 30.8848 32.7747 30.8848 32.3785C30.8848 31.9822 31.0416 31.602 31.321 31.321C31.602 31.0416 31.9822 30.8848 32.3785 30.8848C32.7747 30.8848 33.1549 31.0416 33.436 31.321C33.7131 31.6003 33.8693 31.9774 33.871 32.371C33.8864 32.4704 33.8864 32.5716 33.871 32.671C33.8778 32.7658 33.8778 32.8611 33.871 32.956L33.736 33.211C33.6792 33.2927 33.6138 33.3681 33.541 33.436C33.3886 33.5882 33.2052 33.7059 33.0034 33.7809C32.8015 33.856 32.5858 33.8867 32.371 33.871Z" fill="white"/>
<path d="M47.9991 90.0005C39.6919 90.0011 31.571 87.5382 24.6636 82.9232C17.7562 78.3082 12.3725 71.7485 9.19334 64.0736C6.01421 56.3988 5.18247 47.9535 6.8033 39.8059C8.42413 31.6583 12.4247 24.1743 18.2991 18.3005C18.5816 18.0181 18.9647 17.8594 19.3641 17.8594C19.7636 17.8594 20.1467 18.0181 20.4291 18.3005C20.7116 18.583 20.8703 18.9661 20.8703 19.3655C20.8703 19.765 20.7116 20.1481 20.4291 20.4305C14.9778 25.8847 11.2657 32.8326 9.76206 40.3959C8.25842 47.9593 9.03073 55.7987 11.9814 62.9232C14.932 70.0478 19.9285 76.1377 26.3394 80.4233C32.7503 84.7088 40.2878 86.9977 47.9991 87.0005C48.397 87.0005 48.7785 87.1586 49.0598 87.4399C49.3411 87.7212 49.4991 88.1027 49.4991 88.5005C49.4991 88.8983 49.3411 89.2799 49.0598 89.5612C48.7785 89.8425 48.397 90.0005 47.9991 90.0005Z" fill="white"/>
<path d="M76.5 78.27C76.3026 78.2711 76.1069 78.2333 75.9241 78.1586C75.7414 78.084 75.5752 77.974 75.435 77.835C75.2944 77.6955 75.1828 77.5296 75.1067 77.3469C75.0305 77.1641 74.9913 76.968 74.9913 76.77C74.9913 76.572 75.0305 76.3759 75.1067 76.1931C75.1828 76.0103 75.2944 75.8444 75.435 75.705C80.9247 70.2661 84.6748 63.3189 86.2095 55.7451C87.7441 48.1713 86.9942 40.3123 84.0548 33.1654C81.1153 26.0186 76.119 19.9061 69.6997 15.6036C63.2805 11.3011 55.7277 9.00272 48 9C47.6022 9 47.2206 8.84196 46.9393 8.56066C46.658 8.27936 46.5 7.89782 46.5 7.5C46.5 7.10218 46.658 6.72064 46.9393 6.43934C47.2206 6.15804 47.6022 6 48 6C56.3236 5.99927 64.4597 8.47178 71.3755 13.1036C78.2913 17.7355 83.6749 24.3178 86.8428 32.015C90.0107 39.7122 90.8201 48.1771 89.1683 56.3352C87.5164 64.4932 83.4777 71.9765 77.565 77.835C77.4248 77.974 77.2586 78.084 77.0759 78.1586C76.8931 78.2333 76.6974 78.2711 76.5 78.27Z" fill="white"/>
<path d="M84.855 78.2691H76.5C76.1022 78.2691 75.7206 78.111 75.4393 77.8297C75.158 77.5484 75 77.1669 75 76.7691V68.4141C75 68.0162 75.158 67.6347 75.4393 67.3534C75.7206 67.0721 76.1022 66.9141 76.5 66.9141C76.8978 66.9141 77.2794 67.0721 77.5607 67.3534C77.842 67.6347 78 68.0162 78 68.4141V75.2691H84.855C85.2528 75.2691 85.6344 75.4271 85.9157 75.7084C86.197 75.9897 86.355 76.3712 86.355 76.7691C86.355 77.1669 86.197 77.5484 85.9157 77.8297C85.6344 78.111 85.2528 78.2691 84.855 78.2691Z" fill="white"/>
<path d="M19.3491 29.2202C18.9513 29.2202 18.5698 29.0622 18.2885 28.7809C18.0072 28.4996 17.8491 28.1181 17.8491 27.7202V20.8652H10.9941C10.5963 20.8652 10.2148 20.7072 9.93348 20.4259C9.65218 20.1446 9.49414 19.7631 9.49414 19.3652C9.49414 18.9674 9.65218 18.5859 9.93348 18.3046C10.2148 18.0233 10.5963 17.8652 10.9941 17.8652H19.3491C19.747 17.8652 20.1285 18.0233 20.4098 18.3046C20.6911 18.5859 20.8491 18.9674 20.8491 19.3652V27.7202C20.8491 28.1181 20.6911 28.4996 20.4098 28.7809C20.1285 29.0622 19.747 29.2202 19.3491 29.2202Z" fill="white"/>
<path d="M48.9741 49.3044H44.0391C43.6412 49.3044 43.2597 49.1463 42.9784 48.865C42.6971 48.5837 42.5391 48.2022 42.5391 47.8044V41.2344C42.5391 40.8366 42.6971 40.455 42.9784 40.1737C43.2597 39.8924 43.6412 39.7344 44.0391 39.7344H48.9741C50.2431 39.7344 51.4602 40.2385 52.3576 41.1359C53.2549 42.0332 53.7591 43.2503 53.7591 44.5194C53.7591 45.7884 53.2549 47.0055 52.3576 47.9029C51.4602 48.8002 50.2431 49.3044 48.9741 49.3044ZM45.5391 46.3044H48.9741C49.2085 46.3044 49.4406 46.2582 49.6572 46.1685C49.8737 46.0788 50.0705 45.9473 50.2362 45.7816C50.402 45.6158 50.5335 45.419 50.6232 45.2025C50.7129 44.9859 50.7591 44.7538 50.7591 44.5194C50.7591 44.285 50.7129 44.0529 50.6232 43.8363C50.5335 43.6197 50.402 43.4229 50.2362 43.2572C50.0705 43.0914 49.8737 42.96 49.6572 42.8703C49.4406 42.7805 49.2085 42.7344 48.9741 42.7344H45.5391V46.3044Z" fill="white"/>
<path d="M50.6091 55.8747H44.0391C43.6412 55.8747 43.2597 55.7167 42.9784 55.4353C42.6971 55.154 42.5391 54.7725 42.5391 54.3747V47.8047C42.5391 47.4069 42.6971 47.0253 42.9784 46.744C43.2597 46.4627 43.6412 46.3047 44.0391 46.3047H50.6091C51.8781 46.3047 53.0952 46.8088 53.9926 47.7062C54.8899 48.6035 55.3941 49.8206 55.3941 51.0897C55.3941 52.3587 54.8899 53.5758 53.9926 54.4732C53.0952 55.3706 51.8781 55.8747 50.6091 55.8747ZM45.5391 52.8747H50.6091C51.0825 52.8747 51.5365 52.6866 51.8712 52.3519C52.206 52.0171 52.3941 51.5631 52.3941 51.0897C52.3941 50.6163 52.206 50.1623 51.8712 49.8275C51.5365 49.4927 51.0825 49.3047 50.6091 49.3047H45.5391V52.8747Z" fill="white"/>
<path d="M47.3242 42.7359C46.9264 42.7359 46.5449 42.5779 46.2636 42.2966C45.9823 42.0153 45.8242 41.6338 45.8242 41.2359V39.5859C45.8242 39.389 45.863 39.1939 45.9384 39.0119C46.0138 38.8299 46.1243 38.6646 46.2636 38.5253C46.4028 38.386 46.5682 38.2755 46.7502 38.2001C46.9322 38.1247 47.1272 38.0859 47.3242 38.0859C47.5212 38.0859 47.7163 38.1247 47.8982 38.2001C48.0802 38.2755 48.2456 38.386 48.3849 38.5253C48.5242 38.6646 48.6347 38.8299 48.71 39.0119C48.7854 39.1939 48.8242 39.389 48.8242 39.5859V41.2359C48.8242 41.6338 48.6662 42.0153 48.3849 42.2966C48.1036 42.5779 47.722 42.7359 47.3242 42.7359Z" fill="white"/>
<path d="M47.3242 57.525C46.9264 57.525 46.5449 57.367 46.2636 57.0857C45.9823 56.8044 45.8242 56.4228 45.8242 56.025V54.375C45.8242 54.178 45.863 53.983 45.9384 53.801C46.0138 53.619 46.1243 53.4536 46.2636 53.3143C46.4028 53.1751 46.5682 53.0646 46.7502 52.9892C46.9322 52.9138 47.1272 52.875 47.3242 52.875C47.5212 52.875 47.7163 52.9138 47.8982 52.9892C48.0802 53.0646 48.2456 53.1751 48.3849 53.3143C48.5242 53.4536 48.6347 53.619 48.71 53.801C48.7854 53.983 48.8242 54.178 48.8242 54.375V56.025C48.8242 56.4228 48.6662 56.8044 48.3849 57.0857C48.1036 57.367 47.722 57.525 47.3242 57.525Z" fill="white"/>
<path d="M44.0406 42.7344H42.3906C41.9928 42.7344 41.6113 42.5763 41.33 42.295C41.0487 42.0137 40.8906 41.6322 40.8906 41.2344C40.8906 40.8366 41.0487 40.455 41.33 40.1737C41.6113 39.8924 41.9928 39.7344 42.3906 39.7344H44.0406C44.4385 39.7344 44.82 39.8924 45.1013 40.1737C45.3826 40.455 45.5406 40.8366 45.5406 41.2344C45.5406 41.6322 45.3826 42.0137 45.1013 42.295C44.82 42.5763 44.4385 42.7344 44.0406 42.7344Z" fill="white"/>
<path d="M44.0406 55.875H42.3906C41.9928 55.875 41.6113 55.717 41.33 55.4357C41.0487 55.1544 40.8906 54.7728 40.8906 54.375C40.8906 53.9772 41.0487 53.5956 41.33 53.3143C41.6113 53.033 41.9928 52.875 42.3906 52.875H44.0406C44.4385 52.875 44.82 53.033 45.1013 53.3143C45.3826 53.5956 45.5406 53.9772 45.5406 54.375C45.5406 54.7728 45.3826 55.1544 45.1013 55.4357C44.82 55.717 44.4385 55.875 44.0406 55.875Z" fill="white"/>
<defs>
<linearGradient id="paint0_linear_397_9608" x1="47.8945" y1="27.75" x2="88.3945" y2="27.75" gradientUnits="userSpaceOnUse">
<stop stop-color="#F26523"/>
<stop offset="0.534361" stop-color="#F77916"/>
<stop offset="0.868252" stop-color="#FF9900"/>
</linearGradient>
</defs>
</svg>
