<svg width="96" height="96" viewBox="0 0 96 96" fill="none" xmlns="http://www.w3.org/2000/svg">
<path d="M39.9746 63.4941C51.1584 63.4941 60.2246 54.4279 60.2246 43.2441C60.2246 32.0604 51.1584 22.9941 39.9746 22.9941C28.7908 22.9941 19.7246 32.0604 19.7246 43.2441C19.7246 54.4279 28.7908 63.4941 39.9746 63.4941Z" fill="url(#paint0_linear_397_9570)"/>
<path d="M79.9795 30.4805H16.0195C15.6217 30.4805 15.2402 30.3224 14.9589 30.0411C14.6776 29.7598 14.5195 29.3783 14.5195 28.9805C14.5195 28.5826 14.6776 28.2011 14.9589 27.9198C15.2402 27.6385 15.6217 27.4805 16.0195 27.4805H79.9795C80.3774 27.4805 80.7589 27.6385 81.0402 27.9198C81.3215 28.2011 81.4795 28.5826 81.4795 28.9805C81.4795 29.3783 81.3215 29.7598 81.0402 30.0411C80.7589 30.3224 80.3774 30.4805 79.9795 30.4805Z" fill="white"/>
<path d="M27 72.96C26.6022 72.96 26.2206 72.802 25.9393 72.5207C25.658 72.2394 25.5 71.8578 25.5 71.46V30C25.5 29.6022 25.658 29.2206 25.9393 28.9393C26.2206 28.658 26.6022 28.5 27 28.5C27.3978 28.5 27.7794 28.658 28.0607 28.9393C28.342 29.2206 28.5 29.6022 28.5 30V71.475C28.496 71.8702 28.3363 72.2479 28.0554 72.526C27.7745 72.804 27.3952 72.96 27 72.96Z" fill="white"/>
<path d="M79.9795 73.1706H71.1445C70.7467 73.1706 70.3652 73.0126 70.0839 72.7313C69.8026 72.45 69.6445 72.0684 69.6445 71.6706C69.6445 71.2728 69.8026 70.8913 70.0839 70.61C70.3652 70.3287 70.7467 70.1706 71.1445 70.1706H78.4945V20.2506H17.5045V70.2156H42.0745C42.4724 70.2156 42.8539 70.3737 43.1352 70.655C43.4165 70.9363 43.5745 71.3178 43.5745 71.7156C43.5745 72.1135 43.4165 72.495 43.1352 72.7763C42.8539 73.0576 42.4724 73.2156 42.0745 73.2156H16.0195C15.6217 73.2156 15.2402 73.0576 14.9589 72.7763C14.6776 72.495 14.5195 72.1135 14.5195 71.7156V18.7656C14.5195 18.3678 14.6776 17.9863 14.9589 17.705C15.2402 17.4237 15.6217 17.2656 16.0195 17.2656H79.9795C80.3774 17.2656 80.7589 17.4237 81.0402 17.705C81.3215 17.9863 81.4795 18.3678 81.4795 18.7656V71.7006C81.4717 72.0932 81.3102 72.4671 81.0297 72.7419C80.7493 73.0168 80.3722 73.1707 79.9795 73.1706Z" fill="white"/>
<path d="M70.1394 78.7045H42.7344C42.3366 78.7045 41.955 78.5464 41.6737 78.2651C41.3924 77.9838 41.2344 77.6023 41.2344 77.2045V49.8145C41.2344 49.4166 41.3924 49.0351 41.6737 48.7538C41.955 48.4725 42.3366 48.3145 42.7344 48.3145H70.1394C70.5372 48.3145 70.9187 48.4725 71.2 48.7538C71.4813 49.0351 71.6394 49.4166 71.6394 49.8145V77.2345C71.6315 77.6271 71.47 78.0009 71.1896 78.2758C70.9091 78.5506 70.5321 78.7045 70.1394 78.7045ZM44.2044 75.7045H68.6694V51.2995H44.2044V75.7045Z" fill="white"/>
<path d="M56.4297 71.8495C56.0319 71.8495 55.6503 71.6915 55.369 71.4102C55.0877 71.1289 54.9297 70.7474 54.9297 70.3495V66.2695C54.9297 65.8717 55.0877 65.4902 55.369 65.2089C55.6503 64.9276 56.0319 64.7695 56.4297 64.7695C56.8275 64.7695 57.209 64.9276 57.4903 65.2089C57.7717 65.4902 57.9297 65.8717 57.9297 66.2695V70.3795C57.9218 70.7721 57.7603 71.146 57.4799 71.4208C57.1994 71.6957 56.8224 71.8496 56.4297 71.8495Z" fill="white"/>
<path d="M64.6657 51.3006C64.2679 51.3006 63.8863 51.1426 63.605 50.8613C63.3237 50.58 63.1657 50.1984 63.1657 49.8006V45.7056C63.1657 43.9154 62.4545 42.1985 61.1887 40.9326C59.9228 39.6668 58.2059 38.9556 56.4157 38.9556C54.6255 38.9556 52.9086 39.6668 51.6427 40.9326C50.3769 42.1985 49.6657 43.9154 49.6657 45.7056V49.8156C49.6657 50.2134 49.5077 50.595 49.2264 50.8763C48.9451 51.1576 48.5635 51.3156 48.1657 51.3156C47.7679 51.3156 47.3863 51.1576 47.105 50.8763C46.8237 50.595 46.6657 50.2134 46.6657 49.8156V45.7056C46.6143 44.4 46.8271 43.0975 47.2914 41.8762C47.7556 40.6548 48.4616 39.5398 49.3672 38.5979C50.2727 37.656 51.3591 36.9067 52.5613 36.3948C53.7635 35.883 55.0566 35.6191 56.3632 35.6191C57.6698 35.6191 58.9629 35.883 60.1651 36.3948C61.3673 36.9067 62.4537 37.656 63.3592 38.5979C64.2648 39.5398 64.9708 40.6548 65.4351 41.8762C65.8993 43.0975 66.1121 44.4 66.0607 45.7056V49.8156C66.0579 50.1933 65.9126 50.556 65.654 50.8313C65.3954 51.1066 65.0425 51.2742 64.6657 51.3006Z" fill="white"/>
<path d="M56.4305 66.9156C55.5231 66.9125 54.6371 66.6397 53.8852 66.1318C53.1333 65.6239 52.5494 64.9038 52.2078 64.0632C51.8661 63.2226 51.7822 62.2994 51.9665 61.411C52.1509 60.5225 52.5953 59.709 53.2433 59.0737C53.8912 58.4385 54.7134 58.0103 55.6053 57.8435C56.4972 57.6768 57.4186 57.779 58.2523 58.1373C59.0859 58.4955 59.7943 59.0935 60.2872 59.8553C60.7801 60.6172 61.0354 61.5083 61.0205 62.4156C60.9969 63.6173 60.5029 64.7618 59.6447 65.6032C58.7864 66.4446 57.6324 66.9158 56.4305 66.9156ZM56.4305 60.7206C56.1107 60.7236 55.799 60.8211 55.5346 61.0009C55.2702 61.1807 55.0648 61.4347 54.9445 61.731C54.8242 62.0272 54.7943 62.3525 54.8585 62.6657C54.9227 62.979 55.0781 63.2662 55.3053 63.4913C55.5324 63.7164 55.8211 63.8692 56.1349 63.9305C56.4487 63.9918 56.7737 63.9588 57.0688 63.8358C57.364 63.7128 57.6161 63.5051 57.7935 63.239C57.9708 62.973 58.0655 62.6604 58.0655 62.3406C58.0655 62.1266 58.0231 61.9147 57.9407 61.7172C57.8584 61.5196 57.7377 61.3404 57.5857 61.1897C57.4337 61.0391 57.2533 60.9201 57.055 60.8396C56.8568 60.7591 56.6445 60.7186 56.4305 60.7206Z" fill="white"/>
<path d="M73.5 25.1992C73.1022 25.1992 72.7206 25.0412 72.4393 24.7599C72.158 24.4786 72 24.097 72 23.6992C72 23.3014 72.158 22.9199 72.4393 22.6386C72.7206 22.3573 73.1022 22.1992 73.5 22.1992C73.8978 22.1992 74.2794 22.3573 74.5607 22.6386C74.842 22.9199 75 23.3014 75 23.6992C75 24.097 74.842 24.4786 74.5607 24.7599C74.2794 25.0412 73.8978 25.1992 73.5 25.1992Z" fill="white"/>
<path d="M67.6797 25.1992C67.2819 25.1992 66.9003 25.0412 66.619 24.7599C66.3377 24.4786 66.1797 24.097 66.1797 23.6992C66.1797 23.3014 66.3377 22.9199 66.619 22.6386C66.9003 22.3573 67.2819 22.1992 67.6797 22.1992C68.0775 22.1992 68.459 22.3573 68.7403 22.6386C69.0217 22.9199 69.1797 23.3014 69.1797 23.6992C69.1797 24.097 69.0217 24.4786 68.7403 24.7599C68.459 25.0412 68.0775 25.1992 67.6797 25.1992Z" fill="white"/>
<defs>
<linearGradient id="paint0_linear_397_9570" x1="19.7246" y1="43.2441" x2="60.2246" y2="43.2441" gradientUnits="userSpaceOnUse">
<stop stop-color="#F26523"/>
<stop offset="0.534361" stop-color="#F77916"/>
<stop offset="0.868252" stop-color="#FF9900"/>
</linearGradient>
</defs>
</svg>
