<svg width="96" height="96" viewBox="0 0 96 96" fill="none" xmlns="http://www.w3.org/2000/svg">
<path d="M28.7852 74.1895C39.9689 74.1895 49.0352 65.1232 49.0352 53.9395C49.0352 42.7557 39.9689 33.6895 28.7852 33.6895C17.6014 33.6895 8.53516 42.7557 8.53516 53.9395C8.53516 65.1232 17.6014 74.1895 28.7852 74.1895Z" fill="url(#paint0_linear_397_9636)"/>
<path d="M37.6191 25.6195C37.2213 25.6195 36.8398 25.4615 36.5585 25.1802C36.2772 24.8989 36.1191 24.5174 36.1191 24.1195V17.8945C36.1191 17.4967 36.2772 17.1152 36.5585 16.8339C36.8398 16.5526 37.2213 16.3945 37.6191 16.3945C38.017 16.3945 38.3985 16.5526 38.6798 16.8339C38.9611 17.1152 39.1191 17.4967 39.1191 17.8945V24.1195C39.1191 24.5174 38.9611 24.8989 38.6798 25.1802C38.3985 25.4615 38.017 25.6195 37.6191 25.6195Z" fill="white"/>
<path d="M58.3809 25.6195C57.983 25.6195 57.6015 25.4615 57.3202 25.1802C57.0389 24.8989 56.8809 24.5174 56.8809 24.1195V17.8945C56.8809 17.4967 57.0389 17.1152 57.3202 16.8339C57.6015 16.5526 57.983 16.3945 58.3809 16.3945C58.7787 16.3945 59.1602 16.5526 59.4415 16.8339C59.7228 17.1152 59.8809 17.4967 59.8809 17.8945V24.1195C59.8809 24.5174 59.7228 24.8989 59.4415 25.1802C59.1602 25.4615 58.7787 25.6195 58.3809 25.6195Z" fill="white"/>
<path d="M48 25.6191C47.6022 25.6191 47.2206 25.4611 46.9393 25.1798C46.658 24.8985 46.5 24.517 46.5 24.1191V15.1191C46.5 14.7213 46.658 14.3398 46.9393 14.0585C47.2206 13.7772 47.6022 13.6191 48 13.6191C48.3978 13.6191 48.7794 13.7772 49.0607 14.0585C49.342 14.3398 49.5 14.7213 49.5 15.1191V24.1191C49.5 24.517 49.342 24.8985 49.0607 25.1798C48.7794 25.4611 48.3978 25.6191 48 25.6191Z" fill="white"/>
<path d="M24.1195 59.8809H17.8945C17.4967 59.8809 17.1152 59.7228 16.8339 59.4415C16.5526 59.1602 16.3945 58.7787 16.3945 58.3809C16.3945 57.983 16.5526 57.6015 16.8339 57.3202C17.1152 57.0389 17.4967 56.8809 17.8945 56.8809H24.1195C24.5174 56.8809 24.8989 57.0389 25.1802 57.3202C25.4615 57.6015 25.6195 57.983 25.6195 58.3809C25.6195 58.7787 25.4615 59.1602 25.1802 59.4415C24.8989 59.7228 24.5174 59.8809 24.1195 59.8809Z" fill="white"/>
<path d="M24.1195 39.1191H17.8945C17.4967 39.1191 17.1152 38.9611 16.8339 38.6798C16.5526 38.3985 16.3945 38.017 16.3945 37.6191C16.3945 37.2213 16.5526 36.8398 16.8339 36.5585C17.1152 36.2772 17.4967 36.1191 17.8945 36.1191H24.1195C24.5174 36.1191 24.8989 36.2772 25.1802 36.5585C25.4615 36.8398 25.6195 37.2213 25.6195 37.6191C25.6195 38.017 25.4615 38.3985 25.1802 38.6798C24.8989 38.9611 24.5174 39.1191 24.1195 39.1191Z" fill="white"/>
<path d="M24.1191 49.5H15.1191C14.7213 49.5 14.3398 49.342 14.0585 49.0607C13.7772 48.7794 13.6191 48.3978 13.6191 48C13.6191 47.6022 13.7772 47.2206 14.0585 46.9393C14.3398 46.658 14.7213 46.5 15.1191 46.5H24.1191C24.517 46.5 24.8985 46.658 25.1798 46.9393C25.4611 47.2206 25.6191 47.6022 25.6191 48C25.6191 48.3978 25.4611 48.7794 25.1798 49.0607C24.8985 49.342 24.517 49.5 24.1191 49.5Z" fill="white"/>
<path d="M78.1059 59.8809H71.8809C71.483 59.8809 71.1015 59.7228 70.8202 59.4415C70.5389 59.1602 70.3809 58.7787 70.3809 58.3809C70.3809 57.983 70.5389 57.6015 70.8202 57.3202C71.1015 57.0389 71.483 56.8809 71.8809 56.8809H78.1059C78.5037 56.8809 78.8852 57.0389 79.1665 57.3202C79.4478 57.6015 79.6059 57.983 79.6059 58.3809C79.6059 58.7787 79.4478 59.1602 79.1665 59.4415C78.8852 59.7228 78.5037 59.8809 78.1059 59.8809Z" fill="white"/>
<path d="M78.1059 39.1191H71.8809C71.483 39.1191 71.1015 38.9611 70.8202 38.6798C70.5389 38.3985 70.3809 38.017 70.3809 37.6191C70.3809 37.2213 70.5389 36.8398 70.8202 36.5585C71.1015 36.2772 71.483 36.1191 71.8809 36.1191H78.1059C78.5037 36.1191 78.8852 36.2772 79.1665 36.5585C79.4478 36.8398 79.6059 37.2213 79.6059 37.6191C79.6059 38.017 79.4478 38.3985 79.1665 38.6798C78.8852 38.9611 78.5037 39.1191 78.1059 39.1191Z" fill="white"/>
<path d="M81 49.5H72C71.6022 49.5 71.2206 49.342 70.9393 49.0607C70.658 48.7794 70.5 48.3978 70.5 48C70.5 47.6022 70.658 47.2206 70.9393 46.9393C71.2206 46.658 71.6022 46.5 72 46.5H81C81.3978 46.5 81.7794 46.658 82.0607 46.9393C82.342 47.2206 82.5 47.6022 82.5 48C82.5 48.3978 82.342 48.7794 82.0607 49.0607C81.7794 49.342 81.3978 49.5 81 49.5Z" fill="white"/>
<path d="M37.6191 79.6059C37.2213 79.6059 36.8398 79.4478 36.5585 79.1665C36.2772 78.8852 36.1191 78.5037 36.1191 78.1059V71.8809C36.1191 71.483 36.2772 71.1015 36.5585 70.8202C36.8398 70.5389 37.2213 70.3809 37.6191 70.3809C38.017 70.3809 38.3985 70.5389 38.6798 70.8202C38.9611 71.1015 39.1191 71.483 39.1191 71.8809V78.1059C39.1191 78.5037 38.9611 78.8852 38.6798 79.1665C38.3985 79.4478 38.017 79.6059 37.6191 79.6059Z" fill="white"/>
<path d="M58.3809 79.6059C57.983 79.6059 57.6015 79.4478 57.3202 79.1665C57.0389 78.8852 56.8809 78.5037 56.8809 78.1059V71.8809C56.8809 71.483 57.0389 71.1015 57.3202 70.8202C57.6015 70.5389 57.983 70.3809 58.3809 70.3809C58.7787 70.3809 59.1602 70.5389 59.4415 70.8202C59.7228 71.1015 59.8809 71.483 59.8809 71.8809V78.1059C59.8809 78.5037 59.7228 78.8852 59.4415 79.1665C59.1602 79.4478 58.7787 79.6059 58.3809 79.6059Z" fill="white"/>
<path d="M48 82.5C47.6022 82.5 47.2206 82.342 46.9393 82.0607C46.658 81.7794 46.5 81.3978 46.5 81V72C46.5 71.6022 46.658 71.2206 46.9393 70.9393C47.2206 70.658 47.6022 70.5 48 70.5C48.3978 70.5 48.7794 70.658 49.0607 70.9393C49.342 71.2206 49.5 71.6022 49.5 72V81C49.5 81.3978 49.342 81.7794 49.0607 82.0607C48.7794 82.342 48.3978 82.5 48 82.5Z" fill="white"/>
<path d="M66.6891 73.3791H29.3091C27.5373 73.3712 25.8402 72.6639 24.5873 71.411C23.3344 70.1581 22.627 68.461 22.6191 66.6891V29.3091C22.627 27.5373 23.3344 25.8402 24.5873 24.5873C25.8402 23.3344 27.5373 22.627 29.3091 22.6191H66.6891C68.461 22.627 70.1581 23.3344 71.411 24.5873C72.6639 25.8402 73.3712 27.5373 73.3791 29.3091V66.6891C73.3712 68.461 72.6639 70.1581 71.411 71.411C70.1581 72.6639 68.461 73.3712 66.6891 73.3791ZM29.3091 25.6191C28.3317 25.6231 27.3954 26.0131 26.7043 26.7043C26.0131 27.3954 25.6231 28.3317 25.6191 29.3091V66.6891C25.6231 67.6666 26.0131 68.6028 26.7043 69.294C27.3954 69.9852 28.3317 70.3752 29.3091 70.3791H66.6891C67.6666 70.3752 68.6028 69.9852 69.294 69.294C69.9852 68.6028 70.3752 67.6666 70.3791 66.6891V29.3091C70.3752 28.3317 69.9852 27.3954 69.294 26.7043C68.6028 26.0131 67.6666 25.6231 66.6891 25.6191H29.3091Z" fill="white"/>
<path d="M58.5902 63.4345H37.4102C37.0123 63.4345 36.6308 63.2765 36.3495 62.9952C36.0682 62.7139 35.9102 62.3324 35.9102 61.9345V40.7695C35.9102 40.3717 36.0682 39.9902 36.3495 39.7089C36.6308 39.4276 37.0123 39.2695 37.4102 39.2695H58.5902C58.988 39.2695 59.3695 39.4276 59.6508 39.7089C59.9321 39.9902 60.0902 40.3717 60.0902 40.7695V61.9345C60.0902 62.3324 59.9321 62.7139 59.6508 62.9952C59.3695 63.2765 58.988 63.4345 58.5902 63.4345ZM38.9102 60.4345H57.0902V42.2695H38.9102V60.4345Z" fill="white"/>
<path d="M48 58.1409C47.6022 58.1409 47.2206 57.9829 46.9393 57.7016C46.658 57.4203 46.5 57.0388 46.5 56.6409V53.4609C46.5 53.0631 46.658 52.6816 46.9393 52.4003C47.2206 52.119 47.6022 51.9609 48 51.9609C48.3978 51.9609 48.7794 52.119 49.0607 52.4003C49.342 52.6816 49.5 53.0631 49.5 53.4609V56.6409C49.5 57.0388 49.342 57.4203 49.0607 57.7016C48.7794 57.9829 48.3978 58.1409 48 58.1409Z" fill="white"/>
<path d="M54.3443 42.2691C53.9465 42.2691 53.5649 42.1111 53.2836 41.8298C53.0023 41.5485 52.8443 41.167 52.8443 40.7691V37.5891C52.8443 36.3042 52.3338 35.0718 51.4252 34.1632C50.5166 33.2546 49.2843 32.7441 47.9993 32.7441C46.7143 32.7441 45.482 33.2546 44.5734 34.1632C43.6648 35.0718 43.1543 36.3042 43.1543 37.5891V40.7691C43.1543 41.167 42.9963 41.5485 42.715 41.8298C42.4337 42.1111 42.0521 42.2691 41.6543 42.2691C41.2565 42.2691 40.8749 42.1111 40.5936 41.8298C40.3123 41.5485 40.1543 41.167 40.1543 40.7691V37.5891C40.1543 35.5085 40.9808 33.5131 42.452 32.0419C43.9233 30.5707 45.9187 29.7441 47.9993 29.7441C50.0799 29.7441 52.0753 30.5707 53.5466 32.0419C55.0178 33.5131 55.8443 35.5085 55.8443 37.5891V40.7691C55.8443 41.167 55.6863 41.5485 55.405 41.8298C55.1237 42.1111 54.7421 42.2691 54.3443 42.2691Z" fill="white"/>
<path d="M47.9996 54.3293C47.2283 54.3293 46.4742 54.1006 45.8329 53.672C45.1915 53.2435 44.6917 52.6344 44.3965 51.9218C44.1013 51.2091 44.0241 50.425 44.1745 49.6684C44.325 48.9119 44.6965 48.217 45.2419 47.6716C45.7873 47.1262 46.4822 46.7547 47.2388 46.6042C47.9953 46.4538 48.7794 46.531 49.4921 46.8262C50.2047 47.1214 50.8138 47.6212 51.2423 48.2626C51.6709 48.9039 51.8996 49.658 51.8996 50.4293C51.8957 51.4624 51.4835 52.4521 50.753 53.1826C50.0224 53.9132 49.0327 54.3254 47.9996 54.3293ZM47.9996 49.4993C47.8821 49.4973 47.7654 49.5187 47.6563 49.5623C47.5472 49.6059 47.4479 49.6708 47.3641 49.7531C47.2803 49.8355 47.2138 49.9338 47.1684 50.0421C47.123 50.1505 47.0996 50.2668 47.0996 50.3843C47.0996 50.623 47.1944 50.8519 47.3632 51.0207C47.532 51.1895 47.7609 51.2843 47.9996 51.2843C48.2383 51.2843 48.4672 51.1895 48.636 51.0207C48.8048 50.8519 48.8996 50.623 48.8996 50.3843C48.8996 50.2668 48.8763 50.1505 48.8308 50.0421C48.7854 49.9338 48.7189 49.8355 48.6351 49.7531C48.5513 49.6708 48.452 49.6059 48.3429 49.5623C48.2338 49.5187 48.1171 49.4973 47.9996 49.4993Z" fill="white"/>
<defs>
<linearGradient id="paint0_linear_397_9636" x1="8.53516" y1="53.9394" x2="49.0352" y2="53.9394" gradientUnits="userSpaceOnUse">
<stop stop-color="#F26523"/>
<stop offset="0.534361" stop-color="#F77916"/>
<stop offset="0.868252" stop-color="#FF9900"/>
</linearGradient>
</defs>
</svg>
