<svg width="96" height="96" viewBox="0 0 96 96" fill="none" xmlns="http://www.w3.org/2000/svg">
<path d="M66.3008 53.1758C77.4845 53.1758 86.5508 44.1095 86.5508 32.9258C86.5508 21.742 77.4845 12.6758 66.3008 12.6758C55.117 12.6758 46.0508 21.742 46.0508 32.9258C46.0508 44.1095 55.117 53.1758 66.3008 53.1758Z" fill="url(#paint0_linear_397_9594)"/>
<path d="M37.0659 44.2354C36.2293 44.2354 35.4115 43.9873 34.7159 43.5225C34.0203 43.0577 33.4781 42.3971 33.1579 41.6241C32.8378 40.8512 32.754 40.0007 32.9172 39.1802C33.0804 38.3596 33.4833 37.6059 34.0749 37.0143C34.6665 36.4228 35.4202 36.0199 36.2407 35.8567C37.0612 35.6935 37.9118 35.7772 38.6847 36.0974C39.4576 36.4175 40.1183 36.9597 40.5831 37.6553C41.0479 38.351 41.2959 39.1688 41.2959 40.0054C41.2979 40.5614 41.1899 41.1124 40.978 41.6265C40.7661 42.1406 40.4546 42.6077 40.0614 43.0009C39.6682 43.3941 39.2011 43.7056 38.687 43.9174C38.1729 44.1293 37.622 44.2374 37.0659 44.2354ZM37.0659 38.7904C36.822 38.7904 36.5836 38.8629 36.3811 38.9988C36.1785 39.1346 36.0208 39.3276 35.9282 39.5532C35.8356 39.7789 35.8121 40.0269 35.8608 40.2659C35.9095 40.5049 36.0281 40.724 36.2016 40.8955C36.3752 41.0669 36.5957 41.1828 36.8353 41.2286C37.0749 41.2743 37.3227 41.2478 37.5471 41.1524C37.7716 41.057 37.9626 40.897 38.096 40.6928C38.2293 40.4885 38.2989 40.2493 38.2959 40.0054C38.292 39.6818 38.1607 39.3728 37.9304 39.1453C37.7002 38.9179 37.3896 38.7904 37.0659 38.7904Z" fill="white"/>
<path d="M31.6659 47.2947H17.1309C16.733 47.2947 16.3515 47.1366 16.0702 46.8553C15.7889 46.574 15.6309 46.1925 15.6309 45.7947C15.6309 45.3968 15.7889 45.0153 16.0702 44.734C16.3515 44.4527 16.733 44.2947 17.1309 44.2947H31.0509L34.2759 41.0697C34.5628 40.8239 34.9319 40.6955 35.3094 40.7101C35.687 40.7247 36.0451 40.8812 36.3122 41.1483C36.5793 41.4155 36.7358 41.7736 36.7504 42.1511C36.765 42.5286 36.6366 42.8977 36.3909 43.1847L32.7309 46.8597C32.5907 46.9987 32.4245 47.1087 32.2417 47.1833C32.059 47.258 31.8633 47.2958 31.6659 47.2947Z" fill="white"/>
<path d="M36.9891 70.5752C36.1519 70.5782 35.3326 70.3326 34.635 69.8696C33.9374 69.4066 33.3929 68.747 33.0705 67.9744C32.748 67.2017 32.6621 66.3507 32.8236 65.5292C32.9851 64.7077 33.3868 63.9526 33.9778 63.3595C34.5687 62.7664 35.3224 62.3621 36.1434 62.1976C36.9643 62.0332 37.8156 62.1161 38.5894 62.4358C39.3632 62.7555 40.0247 63.2977 40.4902 63.9936C40.9557 64.6895 41.2041 65.508 41.2041 66.3452C41.2061 66.9 41.0985 67.4497 40.8876 67.9628C40.6767 68.4759 40.3665 68.9424 39.9749 69.3354C39.5833 69.7284 39.118 70.0402 38.6056 70.2529C38.0933 70.4657 37.5439 70.5752 36.9891 70.5752ZM36.9891 65.1302C36.7446 65.1272 36.5048 65.1972 36.3002 65.3312C36.0957 65.4652 35.9357 65.6572 35.8407 65.8825C35.7458 66.1079 35.7202 66.3564 35.7671 66.5964C35.8141 66.8364 35.9316 67.0569 36.1045 67.2299C36.2774 67.4028 36.4979 67.5202 36.7379 67.5672C36.9779 67.6142 37.2265 67.5886 37.4518 67.4936C37.6772 67.3987 37.8691 67.2387 38.0031 67.0341C38.1371 66.8296 38.2071 66.5897 38.2041 66.3452C38.2041 66.023 38.0761 65.7139 37.8483 65.4861C37.6204 65.2582 37.3114 65.1302 36.9891 65.1302Z" fill="white"/>
<path d="M35.3409 65.6854C35.1434 65.6866 34.9478 65.6487 34.765 65.5741C34.5822 65.4994 34.416 65.3894 34.2759 65.2504L31.0509 62.0254H17.1309C16.733 62.0254 16.3515 61.8674 16.0702 61.5861C15.7889 61.3048 15.6309 60.9232 15.6309 60.5254C15.6309 60.1276 15.7889 59.7461 16.0702 59.4648C16.3515 59.1835 16.733 59.0254 17.1309 59.0254H31.6659C31.8633 59.0243 32.059 59.0621 32.2417 59.1368C32.4245 59.2114 32.5907 59.3214 32.7309 59.4604L36.3909 63.1354C36.6702 63.4165 36.827 63.7966 36.827 64.1929C36.827 64.5892 36.6702 64.9694 36.3909 65.2504C36.1115 65.5275 35.7344 65.6838 35.3409 65.6854Z" fill="white"/>
<path d="M46.754 57.3897C45.9174 57.3867 45.1005 57.1357 44.4065 56.6684C43.7126 56.2012 43.1727 55.5386 42.8553 54.7646C42.5379 53.9905 42.4572 53.1397 42.6233 52.3197C42.7894 51.4998 43.195 50.7475 43.7886 50.158C44.3823 49.5686 45.1374 49.1684 45.9585 49.0081C46.7797 48.8478 47.6299 48.9345 48.4017 49.2574C49.1734 49.5803 49.8322 50.1248 50.2945 50.8221C50.7568 51.5194 51.002 52.3381 50.999 53.1747C50.9991 53.7307 50.889 54.2813 50.6753 54.7946C50.4616 55.308 50.1485 55.774 49.7539 56.1658C49.3593 56.5576 48.8911 56.8674 48.3763 57.0775C47.8614 57.2875 47.3101 57.3936 46.754 57.3897ZM46.754 51.9447C46.4304 51.9486 46.1214 52.0799 45.894 52.3102C45.6665 52.5404 45.539 52.851 45.539 53.1747C45.5724 53.4756 45.7156 53.7536 45.9411 53.9555C46.1667 54.1574 46.4588 54.269 46.7615 54.269C47.0643 54.269 47.3564 54.1574 47.5819 53.9555C47.8075 53.7536 47.9507 53.4756 47.984 53.1747C47.984 52.8484 47.8545 52.5356 47.6238 52.3049C47.3931 52.0742 47.0803 51.9447 46.754 51.9447Z" fill="white"/>
<path d="M42.9745 54.6758H17.8945C17.4967 54.6758 17.1152 54.5177 16.8339 54.2364C16.5526 53.9551 16.3945 53.5736 16.3945 53.1758C16.3945 52.778 16.5526 52.3964 16.8339 52.1151C17.1152 51.8338 17.4967 51.6758 17.8945 51.6758H42.9745C43.3724 51.6758 43.7539 51.8338 44.0352 52.1151C44.3165 52.3964 44.4745 52.778 44.4745 53.1758C44.4745 53.5736 44.3165 53.9551 44.0352 54.2364C43.7539 54.5177 43.3724 54.6758 42.9745 54.6758Z" fill="white"/>
<path d="M68.835 58.8909H66C65.5109 58.8968 65.0255 58.8059 64.5718 58.6233C64.1181 58.4407 63.705 58.1701 63.3564 57.827C63.0077 57.484 62.7305 57.0753 62.5406 56.6246C62.3507 56.1739 62.2519 55.69 62.25 55.2009V49.3809C62.252 48.8911 62.3506 48.4065 62.5403 47.955C62.73 47.5034 63.007 47.0938 63.3555 46.7495C63.7039 46.4053 64.1168 46.1332 64.5707 45.949C65.0245 45.7648 65.5102 45.6719 66 45.6759H68.7C69.0978 45.6759 69.4794 45.8339 69.7607 46.1152C70.042 46.3965 70.2 46.7781 70.2 47.1759C70.2 47.5737 70.042 47.9553 69.7607 48.2366C69.4794 48.5179 69.0978 48.6759 68.7 48.6759H66C65.813 48.6759 65.6337 48.7502 65.5015 48.8824C65.3693 49.0146 65.295 49.1939 65.295 49.3809V55.2009C65.2989 55.3853 65.3749 55.5608 65.5067 55.6897C65.6385 55.8187 65.8156 55.8909 66 55.8909H68.88C69.2778 55.8909 69.6594 56.0489 69.9407 56.3302C70.222 56.6115 70.38 56.9931 70.38 57.3909C70.38 57.7887 70.222 58.1703 69.9407 58.4516C69.6594 58.7329 69.2778 58.8909 68.88 58.8909H68.835Z" fill="white"/>
<path d="M70.8301 75H20.7451C19.9355 75 19.1338 74.8405 18.3858 74.5307C17.6379 74.2209 16.9582 73.7668 16.3858 73.1943C15.2296 72.0382 14.5801 70.4701 14.5801 68.835V37.605C14.5998 35.9816 15.2575 34.4311 16.4111 33.2887C17.5647 32.1464 19.1216 31.5038 20.7451 31.5H70.8301C71.2279 31.5 71.6094 31.658 71.8907 31.9393C72.172 32.2206 72.3301 32.6022 72.3301 33V73.5C72.3301 73.8978 72.172 74.2794 71.8907 74.5607C71.6094 74.842 71.2279 75 70.8301 75ZM20.7451 34.5C19.9043 34.504 19.0993 34.8408 18.5062 35.4367C17.913 36.0326 17.5801 36.8392 17.5801 37.68V68.76C17.5701 69.1819 17.6446 69.6015 17.7991 69.9942C17.9537 70.3869 18.1852 70.7447 18.4801 71.0466C18.775 71.3485 19.1273 71.5884 19.5163 71.7521C19.9053 71.9158 20.3231 72.0001 20.7451 72H69.3301V34.5H20.7451Z" fill="white"/>
<path d="M16.0801 62.76C15.6823 62.76 15.3007 62.602 15.0194 62.3207C14.7381 62.0394 14.5801 61.6578 14.5801 61.26V30.105C14.5998 28.4816 15.2575 26.9311 16.4111 25.7887C17.5647 24.6464 19.1216 24.0038 20.7451 24H66.3301C66.7279 24 67.1094 24.158 67.3907 24.4393C67.672 24.7206 67.8301 25.1022 67.8301 25.5V33C67.8301 33.3978 67.672 33.7794 67.3907 34.0607C67.1094 34.342 66.7279 34.5 66.3301 34.5C65.9323 34.5 65.5507 34.342 65.2694 34.0607C64.9881 33.7794 64.8301 33.3978 64.8301 33V27H20.7451C19.9043 27.004 19.0993 27.3408 18.5062 27.9367C17.913 28.5326 17.5801 29.3392 17.5801 30.18V61.26C17.5801 61.6578 17.422 62.0394 17.1407 62.3207C16.8594 62.602 16.4779 62.76 16.0801 62.76Z" fill="white"/>
<defs>
<linearGradient id="paint0_linear_397_9594" x1="46.0508" y1="32.9258" x2="86.5508" y2="32.9258" gradientUnits="userSpaceOnUse">
<stop stop-color="#F26523"/>
<stop offset="0.534361" stop-color="#F77916"/>
<stop offset="0.868252" stop-color="#FF9900"/>
</linearGradient>
</defs>
</svg>
