<?xml version="1.0" standalone="no"?>
<!DOCTYPE svg PUBLIC "-//W3C//DTD SVG 1.1//EN" "http://www.w3.org/Graphics/SVG/1.1/DTD/svg11.dtd" >
<svg xmlns="http://www.w3.org/2000/svg" xmlns:xlink="http://www.w3.org/1999/xlink" version="1.1">
<metadata>
Created by FontForge 20190801 at Fri Jan  1 00:00:00 1904
 By www-data
Converted by ALLTYPE
</metadata>
<defs>
<font id="TimesBold" horiz-adv-x="250" >
  <font-face 
    font-family="TimesBold"
    font-weight="5"
    font-stretch="normal"
    units-per-em="1000"
    panose-1="0 0 0 0 0 0 0 0 0 0"
    ascent="800"
    descent="-200"
    x-height="461"
    cap-height="676"
    bbox="-168 -218 1000 934"
    underline-thickness="50"
    underline-position="-105"
    unicode-range="U+0020-F002"
  />
<missing-glyph 
 />
    <glyph glyph-name=".notdef" 
 />
    <glyph glyph-name="glyph1" horiz-adv-x="0" 
 />
    <glyph glyph-name="glyph2" 
 />
    <glyph glyph-name="space" unicode=" " 
 />
    <glyph glyph-name="space" unicode="&#xa0;" 
 />
    <glyph glyph-name="exclam" unicode="!" horiz-adv-x="333" 
d="M82 71q0 33 24 58.5t60 25.5q35 0 60 -25t25 -60q0 -36 -25 -59.5t-60 -23.5q-36 0 -60 24t-24 59v1zM180 234h-29q-6 58 -13 101.5t-14 75.5q-11 49 -21 78t-16 54q-3 11 -4.5 22.5t-1.5 25.5q0 48 23 73.5t62 25.5q38 0 61 -25.5t23 -73.5q0 -14 -1.5 -25.5t-4.5 -22.5
q-6 -25 -16 -54t-21 -78q-7 -32 -14 -75.5t-13 -102.5v1z" />
    <glyph glyph-name="quotedbl" unicode="&#x22;" horiz-adv-x="555" 
d="M168 404h-41q-3 13 -7 30l-8 34q-1 4 -2 8.5t-2 8.5q-10 43 -17.5 81t-7.5 51v0v1v0v0q0 32 17 52t47 20t47.5 -20t17.5 -52q0 -12 -7.5 -50.5t-17.5 -82.5l-2 -8l-2 -8q-4 -18 -8 -34.5t-7 -31.5v1zM428 404h-41q-3 13 -7 30l-8 34q-1 4 -2 8.5t-2 8.5q-10 43 -17.5 81
t-7.5 51v0v1v0v0q0 32 17 52t47 20t47.5 -20t17.5 -52q0 -12 -7.5 -50.5t-17.5 -82.5l-2 -8l-2 -8q-4 -18 -8 -34.5t-7 -31.5v1z" />
    <glyph glyph-name="numbersign" unicode="#" horiz-adv-x="500" 
d="M467 283l-1 -73h-97l-29 -210h-78l29 210h-113l-29 -210h-78l29 210h-96l1 73h106l18 134h-96l1 73h105l30 210h77l-29 -210h113l30 210h77l-29 -210h88l-1 -73h-97l-18 -134h87v0zM320 417h-113l-18 -134h113l18 134v0z" />
    <glyph glyph-name="dollar" unicode="$" horiz-adv-x="500" 
d="M428 481h-21q-4 11 -10.5 31t-17.5 42q-16 29 -42.5 54t-67.5 32v-214q5 -4 10.5 -6.5t10.5 -5.5q74 -38 128 -84t54 -132q0 -108 -62.5 -147t-137.5 -51h-1.5h-1.5v-99h-55v99q-24 0 -43 2.5t-36 7.5q-19 5 -40 13t-49 19v157l21 -2q27 -97 66 -128.5t80 -39.5v252
q-14 6 -30.5 14.5t-33.5 18.5q-45 28 -82.5 71.5t-37.5 109.5q0 75 46 117t102 54q9 2 18.5 3.5t18.5 1.5v79h55v-76q46 -8 75 -16.5t48 -16.5q11 -5 19.5 -10t16.5 -10v-140v0zM269 250v-220q8 0 18.5 3t22.5 8q19 10 35.5 32t16.5 66q0 32 -13.5 51t-38.5 35
q-9 6 -19.5 11.5t-21.5 12.5v1zM213 454v190q-4 -2 -8 -3l-8 -2q-27 -8 -50 -27t-23 -60q0 -29 14 -48t31 -30q15 -10 27.5 -15t16.5 -6v1z" />
    <glyph glyph-name="percent" unicode="%" horiz-adv-x="1000" 
d="M535 119q0 85 53 153t117 90q13 4 25.5 6.5t24.5 2.5q66 0 94 -34.5t28 -87.5q0 -22 -6 -51t-18 -60q-23 -57 -69 -104.5t-117 -47.5q-61 0 -96.5 39.5t-35.5 92.5v1zM652 92v-12.5t2 -12.5q3 -14 14 -25t37 -11q36 0 69 40.5t52 89.5q8 23 13 44.5t5 39.5q0 5 -1 15
t-4 20q-5 15 -16 27.5t-33 12.5q-32 0 -59.5 -37t-46.5 -81q-15 -35 -23.5 -66.5t-8.5 -44.5v1zM728 692l-394 -700h-55l346 616l-2 2q-13 -7 -29 -12t-33 -8q-14 -3 -27 -4.5t-24 -1.5q-5 0 -9.5 0.5t-8.5 0.5q-6 1 -12.5 2t-14.5 2v-4.5t1 -4.5v-4.5v-4.5q0 -22 -4 -46
t-12 -49q-20 -69 -69.5 -126t-129.5 -57q-50 0 -88.5 36t-38.5 94q0 84 38.5 139t85.5 83q26 16 50.5 24t42.5 8q32 0 48.5 -7.5t30.5 -15.5q0 -1 0.5 -1h0.5q1 -1 2 -1.5t2 -1.5q14 -10 34.5 -19t61.5 -9q35 0 63.5 8.5t48.5 18.5q17 9 27 17t12 10q0 1 0.5 1.5t1.5 0.5
q3 5 7 9t9 4l38 1v0zM238 393q0 -25 13 -39.5t37 -14.5q39 0 72 41.5t51 91.5q10 26 15.5 51t5.5 44t-7 28.5t-16 13.5q-1 1 -2.5 1.5t-3.5 1.5q-4 1 -7.5 3.5t-6.5 4.5q-5 4 -9.5 7t-8.5 3q-7 0 -15 -3.5t-16 -10.5q-20 -17 -38.5 -48.5t-33.5 -65.5q-14 -33 -22 -62.5
t-8 -47.5v1z" />
    <glyph glyph-name="ampersand" unicode="&#x26;" horiz-adv-x="833" 
d="M577 419h206v-24q-29 -4 -42 -10t-24 -20q-1 -2 -3 -5l-4 -6q-19 -31 -30.5 -49.5t-22.5 -34.5q0 -1 -1 -2t-2 -3q-11 -17 -25 -36.5t-39 -53.5q13 -16 24.5 -30.5t23.5 -25.5q16 -17 33.5 -26t38.5 -9q19 0 33.5 11t23.5 27l20 -11q0 -1 -7 -12.5t-15 -24.5t-14.5 -23.5
t-7.5 -11.5q-9 -11 -19 -19t-20 -14q-24 -14 -46 -18t-31 -4q-50 0 -83 24t-60 53l-4.5 4.5t-4.5 5.5q-9 -7 -22 -16t-28 -19q-32 -19 -76 -35t-96 -16q-72 0 -131.5 43.5t-59.5 132.5q0 66 36.5 110t80.5 73q21 14 42 24.5l37 18.5q-21 34 -33 61t-17 53q-1 7 -1.5 14.5
t-0.5 14.5q0 80 50.5 116t111.5 42q8 1 16 1.5t16 0.5q79 0 117 -29.5t47 -64.5q2 -7 3 -13.5t1 -13.5q0 -49 -34.5 -80.5t-76.5 -50.5q-10 -5 -20.5 -9t-20.5 -7l151 -213q5 5 10.5 12t11.5 14q13 17 25 35t20 37q4 11 6.5 21.5t2.5 20.5q0 25 -10.5 32t-40.5 11
q-4 1 -7.5 1.5t-7.5 0.5v25v0zM201 260q0 -18 5 -38.5t15 -42.5q20 -44 56.5 -81.5t84.5 -37.5q4 0 8 0.5t8 1.5q19 3 38 14t36 23q-15 20 -33 45.5t-36 51.5q-3 4 -5.5 8t-5.5 8q-13 19 -25.5 37.5t-23.5 35.5l-48 73q-9 -6 -17 -11t-15 -10q-22 -17 -32 -35t-10 -43v1z
M323 599q0 -12 3 -24.5t8 -24.5q6 -15 14.5 -30t17.5 -28t17 -23.5t14 -17.5q5 2 11.5 4t12.5 6q17 8 31.5 24.5t14.5 47.5q0 9 -1.5 19t-4.5 21q-9 31 -31 57.5t-54 26.5h-3.5h-3.5q-17 -2 -31.5 -14t-14.5 -45v1z" />
    <glyph glyph-name="quotesingle" unicode="'" horiz-adv-x="278" 
d="M160 404h-41q-3 13 -7 30l-8 34q-1 4 -2 8.5t-2 8.5q-10 43 -17.5 81t-7.5 51v0v1v0v0q0 32 17 52t47 20t47.5 -20t17.5 -52q0 -12 -7.5 -50.5t-17.5 -82.5l-2 -8l-2 -8q-4 -18 -8 -34.5t-7 -31.5v1z" />
    <glyph glyph-name="parenleft" unicode="(" horiz-adv-x="333" 
d="M306 694v-27q-3 -3 -5.5 -5t-5.5 -3q-58 -40 -97 -109.5t-39 -288.5q0 -204 37 -280.5t110 -120.5v-28q-70 38 -116.5 84.5t-76.5 94.5q-43 72 -55 138t-12 103q0 126 42.5 212.5t94.5 138.5q37 38 71.5 60t51.5 30v1z" />
    <glyph glyph-name="parenright" unicode=")" horiz-adv-x="333" 
d="M27 -168v27q3 2 5.5 4t5.5 3q58 40 97 109t39 288q0 204 -37 281t-110 121v29q70 -39 116.5 -85.5t76.5 -95.5q43 -72 55 -138t12 -103q0 -126 -42.5 -212t-94.5 -138q-37 -38 -71.5 -60t-51.5 -30v0z" />
    <glyph glyph-name="asterisk" unicode="*" horiz-adv-x="500" 
d="M278 476v-8q4 -3 8.5 -5.5t9.5 -4.5q21 -8 42 -11.5t40 -5.5q30 -3 49.5 -11t19.5 -41q0 -20 -14.5 -34t-34.5 -14q-6 0 -17 3t-23 13q-4 4 -7.5 8t-7.5 9q-16 23 -25.5 36t-16.5 21l-8 6l-8 6q-4 2 -8.5 4.5t-10.5 5.5l-7 -4q3 -31 8.5 -51t12.5 -33q4 -9 8 -16.5
t8 -14.5q2 -7 4 -13.5t2 -14.5q0 -19 -13 -35.5t-39 -16.5q-19 0 -29.5 11t-14.5 25q-2 5 -2.5 10t-0.5 9q0 16 3.5 26t9.5 18q1 3 2.5 5.5t3.5 5.5q7 12 13 30.5t6 53.5l-7 6q-5 -4 -9.5 -7.5t-8.5 -6.5q-27 -21 -40 -40.5t-24 -34.5q-9 -12 -19.5 -19.5t-28.5 -7.5
q-4 0 -8.5 1t-9.5 3q-11 5 -20 16t-9 28q0 5 1 12.5t6 16.5q4 6 11.5 12t20.5 11q11 4 20.5 5t18.5 1h4h3h3.5h2.5q17 0 35 4t42 23l1 8q-30 14 -57 18.5t-49 6.5q-29 3 -46.5 11.5t-17.5 41.5q0 18 8 28t17 15q5 3 10 4t9 1q27 0 40 -11t22 -27q5 -7 9 -14.5t10 -15.5
q9 -12 22 -23.5t33 -20.5l7 4q0 32 -6.5 51t-14.5 33q-2 3 -4 6.5t-4 6.5q-6 10 -10 21t-4 26q0 21 15 35t36 14q20 0 30 -9.5t14 -20.5q3 -7 4 -13.5t1 -10.5q0 -14 -4 -24t-9 -19q-2 -3 -3.5 -5.5t-2.5 -4.5q-8 -13 -14 -29t-6 -43v-4t1 -3v-4v-4l8 -2q37 25 53 49t28 40
q8 12 18 18.5t27 6.5q18 0 29.5 -9.5t16.5 -21.5q3 -6 4 -11t1 -9t-2 -11t-7 -15q-5 -7 -13 -13.5t-19 -10.5q-5 -2 -10 -3t-10 -1q-6 -1 -11 -1h-10q-18 0 -38 -3.5t-49 -23.5v1z" />
    <glyph glyph-name="plus" unicode="+" horiz-adv-x="570" 
d="M241 297v209h88v-209h208v-88h-208v-209h-88v209h-208v88h208v0z" />
    <glyph glyph-name="comma" unicode="," 
d="M57 -180l-11 22q8 6 21.5 15.5t28.5 22.5q21 19 39 42t20 48v2v2q0 9 -5 15.5t-15 6.5q-2 0 -4 -0.5t-4 -0.5q-3 0 -6 -0.5t-8 -0.5q-6 0 -12.5 1t-13.5 3q-18 6 -33 23t-15 51q0 39 24 60.5t58 21.5q47 0 71 -28.5t29 -63.5q1 -6 1.5 -11.5t0.5 -10.5q0 -61 -30 -104
t-66 -71q-20 -15 -38 -26t-32 -19v0z" />
    <glyph glyph-name="hyphen" unicode="-" horiz-adv-x="333" 
d="M287 287v-116h-243v116h243v0z" />
    <glyph glyph-name="period" unicode="." 
d="M41 71q0 33 24 58.5t60 25.5q35 0 60 -25t25 -60q0 -36 -25 -59.5t-60 -23.5q-36 0 -60 24t-24 59v1z" />
    <glyph glyph-name="slash" unicode="/" horiz-adv-x="278" 
d="M302 691l-236 -710h-90l236 710h90v0z" />
    <glyph glyph-name="zero" unicode="0" horiz-adv-x="500" 
d="M24 332q0 157 55 240.5t120 105.5q14 5 26.5 7t25.5 2q9 0 17.5 -1t17.5 -3q71 -18 130.5 -105t59.5 -247q0 -135 -60.5 -239.5t-165.5 -104.5q-96 0 -161 96.5t-65 247.5v1zM318 222v229q0 112 -16.5 160t-52.5 48q-37 0 -50 -44t-16 -96q-1 -18 -1 -35.5v-33.5v-228
q0 -108 15 -158t54 -50q19 0 30 11t16 24q3 5 4.5 10.5t2.5 10.5l2.5 12.5t2.5 17.5q4 23 6.5 55t2.5 66v1z" />
    <glyph glyph-name="one" unicode="1" horiz-adv-x="500" 
d="M442 24v-24h-375v24q87 -2 103 25.5t16 73.5v386v11.5t-1 13.5q-2 16 -10 29.5t-28 13.5q-10 0 -33 -7.5t-49 -17.5v27l252 109h17v-570q0 -51 17 -73t91 -22v1z" />
    <glyph glyph-name="two" unicode="2" horiz-adv-x="500" 
d="M478 211l-45 -211h-416v23q122 129 202.5 231.5t80.5 190.5q0 9 -3 25.5t-11 34.5q-11 26 -35.5 47t-69.5 21q-11 0 -30.5 -3.5t-40.5 -19.5q-14 -10 -27 -26t-24 -41l-28 1q6 15 16 39.5t26 50.5q26 42 69 77.5t109 35.5q15 0 35 -3.5t40 -11.5q41 -16 75.5 -56
t34.5 -116q0 -22 -14 -77t-100 -137l-162 -153h151q66 -1 90.5 8t39.5 40q3 6 6.5 13.5t6.5 15.5l24 1v0z" />
    <glyph glyph-name="three" unicode="3" horiz-adv-x="500" 
d="M58 523l-21 12q5 10 12 22t16 23q29 40 78.5 73.5t117.5 33.5q72 0 120 -32.5t48 -102.5q0 -56 -23.5 -81.5t-54.5 -44.5q-1 -1 -2.5 -1.5t-2.5 -1.5q59 -22 90.5 -71t31.5 -105q0 -105 -83 -183t-218 -78q-60 0 -105.5 22t-45.5 69q0 25 19 40.5t43 15.5
q32 0 54.5 -15.5t41.5 -33.5q5 -5 10 -9.5t10 -8.5q14 -13 28.5 -22t31.5 -9h5.5h4.5q34 3 62 29.5t28 89.5q0 72 -40.5 111.5t-88.5 62.5q-19 8 -37.5 15t-34.5 12v18q11 2 23 6.5t25 9.5q31 14 56.5 40t25.5 74q0 44 -25.5 73.5t-80.5 29.5q-32 0 -55 -14.5t-38 -32.5
q-9 -10 -15.5 -20t-10.5 -17v1z" />
    <glyph glyph-name="four" unicode="4" horiz-adv-x="500" 
d="M412 255h63v-111h-63v-144h-145v144h-248v113q24 37 51 77t56 80q14 19 27.5 37.5t26.5 36.5q41 54 80 105t72 94l80 1v-433v0zM269 255v294h-2l-207 -294h209v0z" />
    <glyph glyph-name="five" unicode="5" horiz-adv-x="500" 
d="M149 549l-22 -81q58 -4 103 -10t88 -25q7 -3 14.5 -7t14.5 -8q6 -4 13 -8.5t14 -10.5q29 -23 53 -65.5t24 -101.5q0 -98 -74.5 -169t-211.5 -71q-58 0 -100.5 22t-42.5 65v4.5t1 4.5q3 19 17.5 35t43.5 16q26 0 50 -13.5t47 -29.5q7 -6 15 -11.5t15 -9.5q16 -10 31 -16.5
t31 -6.5q8 0 18.5 2t21.5 6q23 10 41.5 32.5t18.5 63.5q0 45 -32.5 80t-71.5 53q-1 0 -1.5 0.5t-1.5 0.5q-35 16 -72.5 23.5t-75.5 11.5q-17 1 -33.5 2.5t-33.5 2.5l97 346h322l-43 -127h-278v0z" />
    <glyph glyph-name="six" unicode="6" horiz-adv-x="500" 
d="M470 688v-26q-16 -4 -33.5 -9t-34.5 -11q-61 -23 -116.5 -77t-81.5 -162q3 1 6 2.5t6 2.5q14 5 31 8.5t47 3.5q14 0 30.5 -2.5t33.5 -8.5q44 -15 80.5 -60.5t36.5 -138.5q0 -16 -5.5 -44.5t-20.5 -59.5q-21 -45 -66.5 -82t-125.5 -37q-18 0 -37.5 3t-39.5 10
q-57 21 -104.5 85.5t-47.5 197.5q0 8 0.5 16t0.5 16q12 129 120.5 240t320.5 132v1zM323 156q0 107 -16.5 163t-68.5 56h-3.5h-3.5q-10 0 -20 -2.5t-17 -10.5l-1.5 -8.5t-2.5 -20.5l-2 -14t-1 -14q-1 -9 -1.5 -17.5t-0.5 -15.5q0 -148 15.5 -203.5t61.5 -55.5t53.5 41.5
t7.5 100.5v1z" />
    <glyph glyph-name="seven" unicode="7" horiz-adv-x="500" 
d="M477 676l-235 -676h-95l200 539h-207q-9 -1 -21 -2t-25 -7q-15 -8 -29 -25.5t-23 -51.5l-25 1l44 222h416v0z" />
    <glyph glyph-name="eight" unicode="8" horiz-adv-x="500" 
d="M266 688q84 -1 126 -31t57 -66q5 -13 7 -25.5t2 -23.5q0 -48 -29 -77t-64 -45q-11 -5 -22 -9.5t-21 -7.5q65 -38 107.5 -91t42.5 -123q0 -94 -64 -148t-171 -54q-81 0 -145 42.5t-64 124.5q0 69 36.5 104t80.5 53q8 4 16.5 6.5t16.5 5.5q-56 32 -97.5 78t-41.5 108
q0 70 53.5 124t173.5 54v1zM149 157q0 -55 23 -97t72 -42q39 0 57.5 19.5t25.5 42.5q4 17 5 32t1 23q0 59 -37.5 95t-85.5 68q-3 2 -5.5 3.5t-4.5 3.5q-6 -8 -11 -16l-10 -16q-14 -23 -22 -49.5t-8 -67.5v1zM168 578q0 -37 20.5 -66t44.5 -49q23 -19 42 -29.5t23 -12.5
q3 4 5.5 7.5t5.5 7.5q13 19 21.5 40.5t8.5 59.5q0 8 -0.5 17t-2.5 19q-5 32 -24 59t-62 27q-37 0 -59.5 -25t-22.5 -56v1z" />
    <glyph glyph-name="nine" unicode="9" horiz-adv-x="500" 
d="M31 -13v26q15 2 31 6t32 10q62 22 118.5 76t86.5 167q-6 -3 -11.5 -5.5t-10.5 -4.5t-10.5 -3t-11.5 -2q-11 -2 -22.5 -3t-25.5 -1t-30.5 2.5t-33.5 8.5q-44 15 -80.5 60.5t-36.5 138.5q0 16 5.5 44.5t20.5 59.5q21 45 66.5 82.5t125.5 37.5q18 0 37.5 -3t39.5 -11
q57 -21 104.5 -85.5t47.5 -197.5q0 -8 -0.5 -16t-0.5 -16q-12 -129 -120.5 -240t-320.5 -131v0zM178 519q0 -109 16.5 -165t68.5 -56q4 0 8 0.5t8 0.5q10 2 18.5 5t9.5 7t2 10.5t2 14.5q0 6 1 11.5t1 11.5q1 12 2 23t1 19q0 148 -15 203.5t-62 55.5q-46 0 -53.5 -41.5
t-7.5 -100.5v1z" />
    <glyph glyph-name="colon" unicode=":" horiz-adv-x="333" 
d="M82 71q0 33 24 58.5t60 25.5q35 0 60 -25t25 -60q0 -36 -25 -59.5t-60 -23.5q-36 0 -60 24t-24 59v1zM82 388q0 33 24 58t60 25q35 0 60 -24.5t25 -59.5q0 -36 -25 -60.5t-60 -24.5q-36 0 -60 25t-24 60v1z" />
    <glyph glyph-name="semicolon" unicode=";" horiz-adv-x="333" 
d="M266 41q0 -62 -30 -105t-66 -71q-20 -15 -38 -26t-32 -19l-11 22q8 6 21.5 15.5t28.5 22.5q21 19 39 42t20 48v2v2q0 8 -4.5 15t-15.5 7l-22 -2q-1 0 -12.5 1t-24.5 7q-14 7 -25.5 23.5t-11.5 46.5q0 39 24 60.5t58 21.5q47 0 71 -28.5t29 -63.5q1 -6 1.5 -11.5
t0.5 -10.5v1zM82 388q0 33 24 58t60 25q35 0 60 -24.5t25 -59.5q0 -36 -25 -60.5t-60 -24.5q-36 0 -60 25t-24 60v1z" />
    <glyph glyph-name="less" unicode="&#x3c;" horiz-adv-x="570" 
d="M539 80v-88l-508 223v76l508 223v-88l-394 -173l394 -173v0z" />
    <glyph glyph-name="equal" unicode="=" horiz-adv-x="570" 
d="M537 195v-88h-504v88h504v0zM537 399v-88h-504v88h504v0z" />
    <glyph glyph-name="greater" unicode="&#x3e;" horiz-adv-x="570" 
d="M31 80l394 173l-394 173v88l508 -223v-76l-508 -223v88v0z" />
    <glyph glyph-name="question" unicode="?" horiz-adv-x="500" 
d="M154 71q0 33 24.5 58.5t60.5 25.5q35 0 59.5 -25t24.5 -60q0 -36 -24.5 -59.5t-59.5 -23.5q-36 0 -60.5 24t-24.5 59v1zM253 231h-30q-1 13 -1.5 24t-0.5 19q0 24 7 44t16 39q4 6 7.5 12.5t7.5 13.5q14 26 25.5 58t11.5 80q0 11 -1 25.5t-4 29.5q-7 28 -25 52t-56 24
q-3 0 -11.5 -1t-17.5 -4q-11 -3 -20.5 -11.5t-9.5 -23.5q0 -8 3.5 -14t8.5 -12l3 -3l4 -4q6 -7 12 -18t6 -29q0 -26 -11 -39.5t-25 -19.5q-7 -3 -13.5 -4t-11.5 -1q-33 0 -49 19.5t-20 42.5q0 4 -0.5 7.5t-0.5 7.5q0 12 4 28.5t14 34.5q17 30 58 55t118 25q10 0 37 -3
t57 -16q38 -15 69 -50t31 -101q0 -48 -27 -84t-67 -61q-23 -14 -39.5 -24.5t-27.5 -20.5q-7 -6 -12.5 -12.5t-8.5 -13.5q-6 -12 -8 -29.5t-2 -42.5v1z" />
    <glyph glyph-name="at" unicode="@" horiz-adv-x="930" 
d="M595 466l11 40h71l-66 -260q-1 -5 -1.5 -10t-0.5 -10v-5.5t1 -4.5q1 -14 9.5 -25.5t27.5 -11.5q46 0 78 47t44 103q3 14 4.5 28.5t1.5 28.5q0 15 -2.5 31t-6.5 32q-23 76 -95.5 139t-186.5 63q-112 0 -198 -85.5t-86 -256.5q0 -111 82 -197t212 -86q60 0 102 11.5
t81 28.5q5 2 10.5 4.5t10.5 4.5l13 -34q-49 -25 -102.5 -42.5t-113.5 -17.5q-154 0 -243.5 72.5t-122.5 159.5q-11 27 -16 54t-5 52q0 167 112 269t264 102q143 0 240.5 -86t97.5 -217q0 -16 -2 -32.5t-6 -33.5q-16 -67 -62.5 -123t-120.5 -56q-29 0 -48 11.5t-29 26.5
q-8 10 -11.5 19.5t-3.5 14.5v1v0l-2 1q-3 -6 -11.5 -15.5t-20.5 -18.5q-16 -14 -38.5 -25.5t-48.5 -13.5h-1.5h-1.5q-8 0 -18.5 2t-22.5 8q-20 10 -37.5 36.5t-17.5 79.5q0 21 6 49t19 57q23 54 67 98.5t111 44.5q33 0 46.5 -14.5t23.5 -32.5q0 -1 0.5 -1.5l1.5 -1.5
q0 -1 0.5 -1.5t0.5 -1.5v1zM577 406q0 31 -10.5 47.5t-33.5 16.5q-11 0 -24.5 -5t-27.5 -15q-32 -22 -58.5 -67t-26.5 -108q0 -45 18.5 -65t43.5 -20q9 0 18.5 3.5t18.5 11.5q27 21 50.5 70.5t31.5 129.5v1z" />
    <glyph glyph-name="A" unicode="A" horiz-adv-x="722" 
d="M689 25v-25h-324v25q5 -1 10 -0.5t9 1.5q35 3 48 9t13 28q0 11 -6 29.5t-13 39.5q-2 4 -3.5 8.5t-3.5 8.5q-6 14 -11 26t-9 21l-225 1q-21 -55 -32.5 -86.5t-11.5 -43.5q0 -22 18 -30.5t40 -10.5q6 -1 12 -1.5t12 -0.5v-24h-203v25q29 3 45 18t30 43q5 12 11 25.5
t12 29.5l222 549h28l223 -526q16 -39 28 -65t23 -42q11 -18 24 -25.5t31 -7.5h1.5h1.5v1zM189 236h195l-101 243l-94 -243v0z" />
    <glyph glyph-name="B" unicode="B" horiz-adv-x="667" 
d="M16 0v25q1 -1 2.5 -1t3.5 1q39 4 60.5 15t21.5 55v485q0 48 -26 58t-60 12h-0.5h-1.5v26h309q18 -1 52 -3t71 -11q51 -13 94 -46t43 -101q0 -51 -26.5 -80t-58.5 -45q-20 -10 -39 -15.5t-31 -9.5v-1q11 -3 21.5 -5.5t21.5 -5.5q55 -17 100.5 -57t45.5 -111q0 -8 -1 -16.5
t-3 -16.5q-12 -56 -75.5 -103t-201.5 -49h-322v0zM264 343v-250q0 -35 14.5 -48.5t45.5 -13.5q63 0 88 32t32 71q2 12 2.5 24t0.5 23q0 85 -34.5 117t-76.5 40q-10 2 -21 3t-21 1l-30 1v0zM264 597v-224q101 -1 128.5 33t27.5 110q0 53 -21 91t-82 38q-34 0 -43 -13t-10 -29
v-3.5v-3.5v1z" />
    <glyph glyph-name="C" unicode="C" horiz-adv-x="722" 
d="M657 152l30 -25q-55 -63 -119 -104.5t-160 -41.5q-175 0 -267 105t-92 245q0 152 98.5 255.5t255.5 103.5q34 0 64.5 -7.5t56.5 -16.5q25 -10 43.5 -17.5t28.5 -7.5q19 0 28 12.5t16 29.5q1 1 1.5 2t0.5 2l27 1v-234h-25q-5 12 -12 26.5t-15 28.5q-33 55 -85.5 101.5
t-120.5 46.5q-109 0 -147 -97.5t-38 -224.5q0 -24 1.5 -54t7.5 -61q4 -28 12.5 -55t21.5 -50q14 -24 32 -39.5t37 -25.5q24 -13 47 -17.5t36 -4.5q16 0 32 2t31 5q42 11 85 38t88 78v1z" />
    <glyph glyph-name="D" unicode="D" horiz-adv-x="722" 
d="M14 0v25q47 -1 65 18t18 47v494q0 40 -22 51t-49 14h-4t-4 1h-2h-2v26h305q188 -1 271.5 -88.5t96.5 -192.5q2 -12 2.5 -24t0.5 -24q0 -138 -85.5 -240t-274.5 -107h-316v0zM259 595v-502q0 -31 10.5 -45t46.5 -14q84 0 142 62t58 241q0 25 -3 60t-12 72q-16 64 -57 118
t-123 54q-42 0 -52 -12t-10 -27v-2v-2v-2v-2v1z" />
    <glyph glyph-name="E" unicode="E" horiz-adv-x="667" 
d="M16 651v25h577v-201h-25q-17 106 -72.5 136t-156.5 30q-41 0 -57 -7.5t-16 -39.5v-231q72 -2 111.5 26.5t50.5 121.5l26 1v-338h-26q-9 93 -48.5 123.5t-113.5 30.5v-241q0 -34 17.5 -45.5t66.5 -11.5h14t13 1q67 4 130 38.5t106 137.5l28 1l-40 -208h-585v25
q2 -1 4 -0.5t4 0.5q39 4 59.5 15t20.5 55v485q0 48 -26 58t-60 12h-0.5h-1.5v1z" />
    <glyph glyph-name="F" unicode="F" horiz-adv-x="611" 
d="M16 651v25h567v-201h-24q-16 77 -54 121.5t-167 44.5q-40 0 -56 -7.5t-16 -39.5v-231q93 -2 118 43t35 105l25 1v-338h-25q-8 61 -33 107.5t-120 46.5v-232q0 -50 28 -60t79 -12h1.5h1.5v-24h-360v25q2 -1 4 -0.5t4 0.5q39 4 59.5 15t20.5 55v485q0 48 -25.5 58t-60.5 12
h-0.5h-1.5v1z" />
    <glyph glyph-name="G" unicode="G" horiz-adv-x="778" 
d="M755 287v-25q-2 -1 -4.5 -1.5t-4.5 -0.5q-41 -5 -59 -18.5t-18 -72.5v-126q-23 -17 -69 -30.5t-96 -21.5q-28 -5 -55 -7.5t-50 -2.5q-184 0 -271.5 106.5t-90.5 234.5v4.5v4.5q0 148 96 253.5t258 105.5q34 0 64.5 -7.5t56.5 -16.5q25 -10 43.5 -17.5t28.5 -7.5
q19 0 28 12.5t16 29.5q1 1 1.5 2t0.5 2l27 1v-234h-25q-5 12 -12 26.5t-15 28.5q-33 55 -85.5 101.5t-120.5 46.5q-109 0 -147 -97.5t-38 -226.5q0 -22 2.5 -63.5t13.5 -87.5q16 -63 56 -116t123 -53q66 0 85 20.5t19 52.5v106q0 46 -23 56t-72 13h-2.5h-3.5v26h343v0z" />
    <glyph glyph-name="H" unicode="H" horiz-adv-x="778" 
d="M759 25v-25h-340v25q1 -1 2.5 -1t2.5 1q38 4 61.5 15t23.5 55v231h-241v-230q0 -45 23.5 -56t61.5 -15q1 -1 2.5 -1h2.5v-24h-337v25q1 -1 2.5 -0.5t3.5 0.5q37 5 58 16t21 54v485q0 47 -25.5 57t-56.5 13h-1.5h-1.5v26h337v-25q-1 -1 -1.5 -1h-0.5h-2h-2
q-31 -3 -57.5 -13.5t-26.5 -57.5v-206h241v207q0 46 -26.5 56.5t-57.5 13.5h-2h-2h-0.5h-1.5v26h340v-25q-1 -1 -2.5 -1h-2.5q-31 -3 -57 -13.5t-26 -57.5v-483q0 -44 22 -55t58 -16q2 0 4 -0.5t4 -0.5v1z" />
    <glyph glyph-name="I" unicode="I" horiz-adv-x="389" 
d="M370 25v-25h-350v25q1 -1 1.5 -1h1.5q39 4 64.5 14.5t25.5 56.5v485q0 47 -28 57.5t-62 12.5h-1.5h-1.5v26h350v-25q-1 -1 -1.5 -1h-1.5q-34 -2 -63 -11.5t-29 -59.5v-483q0 -48 26 -58.5t66 -13.5h1.5h1.5v1z" />
    <glyph glyph-name="J" unicode="J" horiz-adv-x="500" 
d="M479 676v-25q-1 -1 -2.5 -1h-3.5q-40 -3 -61.5 -16t-21.5 -76v-435q0 -123 -59 -167.5t-130 -50.5q-7 0 -14.5 -0.5t-14.5 -0.5q-61 0 -95.5 20t-50.5 45q-14 20 -18.5 37.5t-4.5 23.5q0 32 15.5 49.5t33.5 23.5q6 2 11.5 3t10.5 1q6 0 14 -2t17 -6q15 -8 28 -24.5
t13 -42.5q0 -15 -4 -23t-9 -13q-1 -1 -2 -1.5t-2 -1.5q-4 -5 -7 -10.5t-3 -14.5q0 -13 11.5 -22t32.5 -9q34 0 47 16.5t16 37.5q2 8 2 16.5v15.5v557q0 49 -28.5 58.5t-69.5 11.5h-1.5h-1.5v26h352v0z" />
    <glyph glyph-name="K" unicode="K" horiz-adv-x="778" 
d="M769 25v-25h-336v25q46 1 62.5 4.5t16.5 15.5v2.5v2.5q-2 8 -7.5 17.5t-16.5 21.5l-182 228l-27 -25v-196q0 -44 22 -55t58 -16q2 0 4 -0.5t4 -0.5v-24h-337v25q1 -1 2.5 -1t3.5 1q38 4 59.5 15t21.5 55v485q0 48 -25.5 58t-59.5 12h-0.5h-1.5v26h338v-25q-1 -1 -2 -1h-2
q-39 -3 -62 -16t-23 -76v-213l217 218q13 12 20.5 20.5t11.5 15.5q2 4 3 8.5t1 9.5q0 17 -15.5 23.5t-69.5 9.5v26h289v-25q-25 -2 -47 -7.5t-43 -15.5q-44 -21 -95 -69.5t-136 -135.5l305 -377q2 -3 3.5 -4.5t2.5 -3.5q10 -9 20 -11t23 -3v1z" />
    <glyph glyph-name="L" unicode="L" horiz-adv-x="667" 
d="M638 227l-41 -227h-578v25q3 -1 5.5 -0.5t5.5 0.5q36 5 55.5 16t19.5 54v485q0 48 -25.5 58t-58.5 12h-0.5h-1.5v26h349v-25q-1 -1 -2.5 -1h-2.5q-50 -2 -73 -14.5t-23 -77.5v-471q0 -37 19.5 -47t69.5 -10q113 0 166 55.5t87 140.5l29 1v0z" />
    <glyph glyph-name="M" unicode="M" horiz-adv-x="944" 
d="M921 25v-25h-332v25q2 -1 4 -0.5t4 0.5q41 4 61 15.5t20 58.5v505h-2l-250 -604h-27l-250 589h-2v-465q0 -53 19.5 -74.5t81.5 -25.5v-24h-234v25q59 4 75 20t16 59v476q0 38 -18 52t-71 18v26h253l200 -472l200 472h252v-25q-1 -1 -2 -1h-2q-40 -3 -62 -16t-22 -76v-441
q0 -57 16.5 -71t57.5 -20q4 -1 7 -1.5t7 -0.5v1z" />
    <glyph glyph-name="N" unicode="N" horiz-adv-x="722" 
d="M16 0v25q45 4 66.5 17t21.5 62v475q-42 51 -58.5 61t-26.5 10v26h211l347 -427h2v303q0 44 -16 69t-77 29v26h215v-25q-54 -8 -66 -26.5t-12 -54.5v-588h-28l-445 542h-2v-400q0 -55 20 -74.5t75 -25.5v-24h-227v0z" />
    <glyph glyph-name="O" unicode="O" horiz-adv-x="778" 
d="M389 691q145 -1 249.5 -96.5t104.5 -259.5q0 -157 -100 -255.5t-254 -98.5t-254 98.5t-100 255.5q0 164 104.5 259.5t249.5 95.5v1zM389 658q-90 -1 -128.5 -81.5t-45.5 -176.5q-2 -16 -2.5 -32.5t-0.5 -32.5q0 -25 2 -64t10 -81q13 -66 49.5 -121.5t115.5 -55.5
t115.5 55.5t49.5 121.5q8 42 10 81t2 64q0 16 -0.5 32.5t-2.5 32.5q-7 96 -45.5 176.5t-128.5 80.5v1z" />
    <glyph glyph-name="P" unicode="P" horiz-adv-x="611" 
d="M16 0v25q23 3 34 5t16 4q2 0 3.5 1t2.5 2q1 0 1 0.5t1 0.5l2 2t3 2q8 7 14.5 22t6.5 52v443q0 60 -21 73.5t-59 17.5h-2h-2v26h322q22 -1 51.5 -3.5t61.5 -9.5q56 -14 102.5 -52.5t46.5 -119.5q0 -15 -4 -38t-18 -47q-11 -18 -27.5 -35t-41.5 -31q-7 -4 -13.5 -7
t-12.5 -6q-40 -17 -88 -20.5t-133 -4.5v-185q0 -57 15 -71t57 -20q4 0 8 -0.5t8 -1.5v-24h-334v0zM262 606v-268q91 -2 128.5 27.5t37.5 122.5q0 86 -28 119t-90 33q-25 0 -36 -9t-12 -26v1z" />
    <glyph glyph-name="Q" unicode="Q" horiz-adv-x="778" 
d="M730 -117l6 -24q-30 -11 -56 -18t-51 -11q-19 -3 -38 -4.5t-40 -1.5q-5 0 -51 4.5t-100 32.5q-37 19 -71.5 51.5t-55.5 85.5q-100 29 -157.5 102t-73.5 155q-4 17 -5.5 33.5t-1.5 33.5q0 173 104.5 270.5t249.5 97.5t249.5 -95.5t104.5 -259.5q0 -130 -70 -221.5
t-183 -119.5q23 -53 58.5 -81.5t74.5 -36.5q10 -3 20 -4t20 -1q17 0 31 3t27 6q2 1 4.5 1.5t4.5 1.5v0zM389 658q-90 -1 -128.5 -81.5t-45.5 -176.5q-2 -16 -2.5 -32.5t-0.5 -32.5q0 -25 2 -64t10 -81q13 -66 49.5 -121.5t115.5 -55.5t115.5 55.5t49.5 121.5q8 42 10 81
t2 64q0 16 -0.5 32.5t-2.5 32.5q-7 96 -45.5 176.5t-128.5 80.5v1z" />
    <glyph glyph-name="R" unicode="R" horiz-adv-x="722" 
d="M715 25v-25h-205l-207 313h-27v-196q0 -57 16.5 -71t57.5 -20q4 -1 7 -1.5t7 -0.5v-24h-338v25q3 -1 6 -0.5t6 0.5q44 6 60 20t16 71v443q0 62 -21.5 75t-62.5 16h-2h-2v26h322q21 -1 56.5 -3t73.5 -12q57 -14 104.5 -50.5t47.5 -111.5q0 -63 -29.5 -96.5t-65.5 -51.5
q-16 -8 -32.5 -13.5t-29.5 -9.5l201 -284q3 -4 5.5 -7t5.5 -5q8 -5 15.5 -6.5t14.5 -1.5v1zM276 600v-255q98 0 140.5 27.5t42.5 124.5q0 76 -30.5 110t-90.5 34q-39 0 -48.5 -8.5t-12.5 -28.5q0 -1 -0.5 -2.5t-0.5 -2.5v1z" />
    <glyph glyph-name="S" unicode="S" horiz-adv-x="556" 
d="M484 475h-28q-4 14 -10 31t-16 34q-23 45 -64.5 82t-105.5 37h-4h-4q-37 -2 -68 -25.5t-31 -69.5q0 -25 6.5 -42.5t25.5 -32.5q12 -10 29.5 -20.5t41.5 -22.5l147 -72q9 -6 21.5 -14.5t25.5 -20.5q24 -23 43.5 -60t19.5 -90q0 -14 -2.5 -29t-6.5 -31q-18 -56 -74.5 -102
t-164.5 -46q-36 0 -62.5 5.5t-46.5 11.5q-21 5 -35.5 10.5t-26.5 5.5q-14 0 -20 -8.5t-9 -19.5q0 -1 -0.5 -2.5t-0.5 -2.5h-29v247h29q1 -8 3 -15.5t4 -14.5q19 -70 65.5 -127.5t132.5 -57.5q48 0 73.5 17.5t37.5 39.5q10 18 12 34t2 21q0 43 -24 66.5t-62 42.5
q-6 3 -12.5 6.5t-13.5 6.5l-67 33q-12 5 -22.5 10.5t-20.5 10.5q-96 57 -112 109t-16 83q0 16 3.5 38.5t13.5 45.5q19 42 65.5 77.5t138.5 35.5q30 0 54 -5t43 -11q19 -7 33.5 -12t25.5 -5q17 0 23 10t10 24l30 1v-217v0z" />
    <glyph glyph-name="T" unicode="T" horiz-adv-x="667" 
d="M513 25v-25h-357v25q3 -1 5 -0.5t5 0.5q49 4 68 17.5t19 73.5v528q-15 -2 -31.5 -3.5t-33.5 -4.5q-43 -9 -80 -42.5t-48 -119.5l-29 1l3 201h600l2 -201h-29q-11 84 -47.5 117.5t-78.5 42.5q-17 4 -34 5.5t-32 2.5v-526q0 -63 19.5 -76t70.5 -16q2 -1 4 -1h4v1z" />
    <glyph glyph-name="U" unicode="U" horiz-adv-x="722" 
d="M701 676v-25q-41 -7 -59.5 -21.5t-18.5 -64.5v-318q0 -19 -2 -40t-6 -43q-6 -31 -17.5 -61t-30.5 -50q-22 -23 -51 -38t-60 -23q-23 -6 -45 -8.5t-41 -2.5q-21 0 -54.5 3t-69.5 16q-20 6 -40.5 16.5t-38.5 26.5q-1 1 -2.5 2t-2.5 2q-30 28 -47 63.5t-17 113.5v335
q0 59 -18 72.5t-56 17.5q-2 0 -4 0.5t-4 0.5v26h338v-25q-1 -1 -2 -1h-2q-48 -2 -70.5 -14.5t-22.5 -77.5v-333q0 -17 1 -39.5t6 -46.5q10 -42 39.5 -76t97.5 -34q83 0 120 38t49 84q6 27 7.5 52t1.5 43v306q0 45 -16.5 70t-81.5 28v26h220v0z" />
    <glyph glyph-name="V" unicode="V" horiz-adv-x="722" 
d="M701 676v-25q-34 -5 -50 -17.5t-29 -39.5q-3 -5 -5.5 -12t-5.5 -14l-228 -586h-27l-256 599q-5 12 -10 21.5t-10 16.5q-11 16 -24 21t-32 9q-2 0 -4 0.5t-4 0.5v26h336v-25q-4 -1 -8.5 -1.5t-8.5 -0.5q-38 -3 -53.5 -9t-15.5 -32q0 -8 4 -21t10 -27q1 -2 2 -4.5t2 -4.5
q3 -8 6.5 -15.5t5.5 -13.5l131 -315l127 329q1 2 2 4.5t2 5.5q2 3 3 6t2 7q5 12 8 23.5t3 21.5q0 29 -21.5 36.5t-64.5 9.5v26h213v0z" />
    <glyph glyph-name="W" unicode="W" horiz-adv-x="1000" 
d="M981 676v-25q-26 -3 -43 -20t-26 -45l-200 -601h-27l-168 468h-7l-182 -468h-28l-212 602q-2 5 -4.5 11t-4.5 10q-9 22 -21.5 30t-38.5 12v26h294v-25q-1 -1 -1.5 -1h-1.5q-26 -2 -43.5 -8.5t-17.5 -33.5q0 -8 2 -16.5t5 -16.5l119 -360h2l117 305l-35 96l-0.5 0.5
l-1.5 1.5q-9 15 -22.5 23t-47.5 9v26h312v-25q-2 -1 -3.5 -1t-3.5 -1q-29 -2 -47 -7.5t-18 -29.5q0 -6 2.5 -16.5t5.5 -20.5q1 -2 1.5 -3.5t0.5 -2.5l2 -6l2 -6l107 -332h2l111 340q0 1 0.5 2.5t1.5 2.5q2 7 3.5 15t1.5 21q0 30 -20.5 36t-45.5 8h-1.5h-1.5v26h182v0z" />
    <glyph glyph-name="X" unicode="X" horiz-adv-x="722" 
d="M688 676v-25q-23 -3 -41 -7.5t-35 -15.5q-33 -20 -73.5 -72.5t-118.5 -162.5l182 -282q30 -47 47 -64t31 -20q4 -2 9 -2.5t10 -0.5v-24h-340v25q2 -1 3 -1h3q36 2 55 7.5t19 24.5q0 5 -3 13t-7 18q-2 4 -4 8.5t-4 8.5q-1 1 -1.5 2t-1.5 2l-101 163l-38 -51
q-62 -84 -78 -112t-16 -42q0 -21 18.5 -29t41.5 -11q5 -1 10.5 -1.5t10.5 -0.5v-24h-250v25q26 3 51.5 12t52.5 43l175 222l-198 291q-2 2 -4 5t-5 6q-13 19 -28.5 32t-42.5 14v26h346v-25q-5 -1 -10 -1.5t-10 -0.5q-33 -3 -46 -8t-13 -24q0 -4 0.5 -7t1.5 -5q1 -5 4 -10.5
t9 -14.5l97 -149q73 100 92.5 129.5t21.5 43.5v5.5v5.5q0 22 -17 27t-47 7q-2 1 -4 1h-4v26h250v0z" />
    <glyph glyph-name="Y" unicode="Y" horiz-adv-x="722" 
d="M699 676v-25q-7 -2 -16.5 -4t-19.5 -7q-8 -4 -16.5 -11t-15.5 -18l-191 -310v-184q0 -60 17.5 -73.5t62.5 -18.5q3 0 6 -0.5t6 -0.5v-24h-347v25q3 -1 6 -0.5t6 0.5q45 5 63 18.5t18 72.5v148l-183 332q-2 2 -6.5 9.5t-13.5 16.5q-9 10 -24 18.5t-36 9.5v26h335v-25
q-52 -1 -66.5 -7.5t-14.5 -27.5q0 -6 3 -13.5t7 -15.5q1 -2 2 -4.5t2 -4.5q3 -5 5.5 -9.5t4.5 -8.5l120 -231l111 185q2 3 7.5 12t11.5 21l4.5 9t4.5 10q5 11 8 21.5t3 18.5q0 28 -23 35t-57 9h-2h-2v26h220v0z" />
    <glyph glyph-name="Z" unicode="Z" horiz-adv-x="667" 
d="M634 241l-26 -241h-580v16l382 625q-42 -2 -71 -3t-49 -2q-30 -1 -43.5 -2.5t-24.5 -4.5q-3 -1 -6.5 -2t-7.5 -2q-37 -11 -60 -38.5t-37 -57.5q-8 -16 -13.5 -31.5t-10.5 -28.5l-28 1l21 206h524v-16l-379 -625q167 -3 255.5 22.5t127.5 182.5l26 1v0z" />
    <glyph glyph-name="bracketleft" unicode="[" horiz-adv-x="333" 
d="M301 678v-33h-63q-42 -1 -54.5 -14t-12.5 -57v-637q0 -24 6.5 -38.5t43.5 -14.5h80v-33h-234v827h234v0z" />
    <glyph glyph-name="backslash" unicode="\" horiz-adv-x="278" 
d="M211 -19l-236 710h93l235 -710h-92v0z" />
    <glyph glyph-name="bracketright" unicode="]" horiz-adv-x="333" 
d="M32 -149v33h80q38 0 44 14t6 39v638q0 43 -12.5 56t-54.5 13l-63 1v33h234v-827h-234v0z" />
    <glyph glyph-name="asciicircum" unicode="^" horiz-adv-x="581" 
d="M162 311h-89l178 365h80l178 -365h-89l-129 272l-129 -272v0z" />
    <glyph glyph-name="underscore" unicode="_" horiz-adv-x="500" 
d="M500 -125h-500v50h500v-50v0z" />
    <glyph glyph-name="grave" unicode="`" horiz-adv-x="333" 
d="M246 528h-56l-142 88q-19 10 -29.5 22.5t-10.5 29.5q0 4 1 8.5t4 9.5q4 10 14.5 18t29.5 8q14 0 26.5 -7.5t21.5 -15.5q1 -2 2 -3l2 -2l137 -156v0z" />
    <glyph glyph-name="a" unicode="a" horiz-adv-x="500" 
d="M473 64l15 -21q-21 -26 -48.5 -41.5t-61.5 -15.5q-39 0 -55.5 14.5t-22.5 31.5q-2 6 -3.5 12t-2.5 11q-5 -5 -9.5 -9t-9.5 -8q-45 -37 -84.5 -44.5t-55.5 -7.5q-7 0 -13.5 1t-13.5 2q-31 8 -57 32.5t-26 70.5q0 75 74.5 113t175.5 68q5 2 9.5 3.5t9.5 2.5v74q0 37 -16 62
t-72 25q-22 0 -37.5 -8.5t-19.5 -19.5q-1 -2 -1.5 -4t-0.5 -4q0 -5 2 -9t4 -7t4.5 -5.5t4.5 -5.5q6 -7 10.5 -16.5t4.5 -24.5q0 -5 -1.5 -11t-4.5 -12q-7 -13 -21 -23t-40 -10q-4 0 -13 0.5t-19 5.5q-13 5 -23.5 19t-10.5 43q0 47 47 85.5t140 38.5q83 0 141.5 -33
t58.5 -104v-260v-6t1 -7q2 -5 6.5 -9t14.5 -4q3 0 5.5 1t4.5 3l10 11v0zM293 100v145q-7 -3 -23.5 -8t-35.5 -16q-23 -14 -43 -37.5t-20 -60.5v-6t1 -5q2 -21 14 -38.5t36 -17.5q18 0 32 8.5t25 18.5q4 4 7.5 8.5t6.5 7.5v1z" />
    <glyph glyph-name="b" unicode="b" horiz-adv-x="556" 
d="M17 652v24h194v-259q4 4 10.5 10t14.5 12q16 13 39.5 23t57.5 10q86 0 137 -67t51 -165v-1.5v-1.5q-1 -94 -55.5 -172.5t-177.5 -78.5q-21 0 -50 8.5t-60 34.5q-4 3 -7.5 6t-7.5 7l-79 -55h-12v607q0 32 -12 41.5t-36 14.5q-2 0 -3.5 0.5t-3.5 0.5v1zM211 360v-263
q0 -8 1 -15.5t4 -16.5q5 -18 20 -33t43 -15q45 0 70 45t25 163q0 16 -1 38t-5 45q-6 41 -25.5 75.5t-61.5 34.5q-25 0 -38.5 -11.5t-21.5 -25.5q-3 -6 -5.5 -11.5t-4.5 -10.5v1z" />
    <glyph glyph-name="c" unicode="c" horiz-adv-x="444" 
d="M412 109l18 -18q-34 -50 -83 -77.5t-108 -27.5q-96 0 -155 68t-59 160q0 110 49.5 167.5t109.5 77.5q20 7 39.5 10t37.5 3q7 0 14.5 -0.5t14.5 -1.5q47 -6 86.5 -33t39.5 -74q0 -26 -11 -39t-23 -19q-12 -4 -21.5 -5t-12.5 -1q-42 0 -49 31.5t-7 71.5q0 16 -8 24.5
t-18 11.5q-4 2 -8 2.5t-7 0.5q-36 0 -53.5 -29t-24.5 -63q-4 -22 -5.5 -42.5t-1.5 -33.5q0 -105 40.5 -163t98.5 -58q40 0 62.5 16t39.5 35q2 1 3 2.5t2 2.5v1z" />
    <glyph glyph-name="d" unicode="d" horiz-adv-x="556" 
d="M534 43v-23q-43 -6 -70 -9.5t-46 -6.5q-8 -1 -15.5 -2.5t-15.5 -2.5q-11 -2 -22 -5t-26 -7v65q-4 -5 -8 -9t-7 -8q-23 -22 -49.5 -35.5t-74.5 -13.5q-6 0 -11.5 0.5t-10.5 1.5q-58 10 -105.5 68.5t-47.5 158.5q0 124 56 187.5t123 68.5q4 1 7.5 1h6.5q35 0 59.5 -14
t41.5 -30q5 -5 9 -9.5t8 -8.5v184q0 37 -15.5 45.5t-51.5 10.5q-2 1 -4.5 1h-4.5v25h215v-575v-3.5v-3.5q0 -19 9.5 -35t49.5 -17v1zM336 112v243q0 -1 -4 9t-14 21q-9 12 -24 21.5t-36 9.5q-53 0 -69 -57t-16 -130q0 -16 0.5 -37t3.5 -43q5 -41 21 -74.5t55 -33.5
q19 0 35.5 11t27.5 25q9 11 14.5 20.5t5.5 13.5v1z" />
    <glyph glyph-name="e" unicode="e" horiz-adv-x="444" 
d="M402 125l24 -14q-7 -11 -13.5 -20.5t-13.5 -17.5q-39 -49 -79.5 -68t-91.5 -19h-1.5h-1.5q-75 1 -137.5 59t-62.5 185q0 111 60 176.5t146 65.5q77 0 116 -38t55 -84q11 -31 14.5 -60t4.5 -46l-252 1q0 -10 1 -19.5t2 -18.5q6 -56 31 -103t86 -47q30 0 52 12.5t37 27.5
q8 8 13.5 14.5t10.5 12.5v1zM164 282h134v4.5v5.5q-1 10 -1 21.5t-1 22.5q-1 16 -2.5 31t-4.5 27q0 2 -1 3.5t-1 3.5q-5 15 -17 27.5t-35 12.5q-28 0 -49.5 -28t-21.5 -132v1z" />
    <glyph glyph-name="f" unicode="f" horiz-adv-x="333" 
d="M14 0v24l1 -1h1q25 3 40 12t15 48v334h-57v44h57q0 14 0.5 31t1.5 33q5 62 39 113.5t141 51.5q7 0 14.5 -0.5t14.5 -1.5q40 -7 73.5 -30.5t33.5 -67.5q0 -26 -16.5 -44t-46.5 -18q-22 0 -35.5 10.5t-18.5 23.5q-3 5 -4 10.5t-1 9.5q0 10 3.5 18.5t7.5 15.5q4 6 7.5 12
t3.5 12q0 9 -6.5 13t-13.5 5q-3 1 -5.5 1h-4.5q-25 0 -35 -14.5t-12 -32.5q-1 -8 -1.5 -16t-0.5 -14v-121h87v-44h-87v-314q0 -53 16.5 -65.5t65.5 -14.5v-23h-278v0z" />
    <glyph glyph-name="g" unicode="g" horiz-adv-x="500" 
d="M482 398h-81q3 -4 8 -9.5t10 -13.5q9 -12 15.5 -31t6.5 -46q0 -46 -25.5 -82.5t-79.5 -53.5q-5 -2 -9 -3l-8 -2q-13 -3 -33 -3.5t-76 -0.5q-5 0 -10.5 -1.5t-12.5 -4.5q-12 -6 -22.5 -17.5t-10.5 -26.5q0 -25 22.5 -30t77.5 -6h65q13 -1 32 -3t39 -7q35 -10 64 -34.5
t29 -77.5q0 -88 -74.5 -118.5t-163.5 -32.5h-9.5h-9.5q-93 0 -145.5 24.5t-52.5 66.5q0 30 25 50.5t67 24.5v2q-1 0 -2 0.5t-2 0.5q-32 12 -53 27.5t-21 53.5q0 33 23 57.5t51 38.5q11 7 22 11t21 7v3q-55 19 -88.5 58.5t-33.5 93.5q0 60 51 109.5t154 49.5q7 0 13.5 -0.5
t13.5 -0.5q20 -2 40.5 -7t42.5 -14l130 1v-53v0zM324 -52h-173q-9 -7 -15.5 -13.5t-10.5 -12.5q-5 -7 -7 -14t-2 -16q0 -26 19.5 -39.5t42.5 -19.5q20 -5 37 -6t23 -1q12 0 33 0.5t44 4.5q33 5 61 19.5t28 46.5q0 27 -20.5 39t-59.5 12v0zM174 311q0 -53 11 -91.5t55 -38.5
q39 0 51.5 31t13.5 68q1 7 1 15v15q0 11 -0.5 24.5t-1.5 27.5q-4 30 -17 54.5t-47 24.5q-43 0 -54 -37t-12 -81v-6.5v-6.5v1z" />
    <glyph glyph-name="h" unicode="h" horiz-adv-x="556" 
d="M534 24v-24h-235v24q25 1 36 14.5t11 41.5v243q0 6 -0.5 14.5t-1.5 18.5q-3 18 -14.5 33.5t-38.5 15.5h-4t-4 -1q-14 -2 -28 -10.5t-25 -18.5q-10 -9 -16 -17t-6 -11v-266v-8t1 -7q1 -15 10.5 -27.5t37.5 -15.5v-23h-241v24q2 -1 3.5 -0.5t3.5 0.5q23 5 34.5 15t11.5 44
v511q0 31 -9.5 40.5t-32.5 14.5q-2 0 -5 0.5t-6 1.5v25h192v-281q13 14 25.5 26t24.5 21q22 16 45 23t48 7q10 0 20 -1.5t21 -4.5q35 -9 64 -40.5t29 -94.5v-247q0 -6 0.5 -13t2.5 -15q3 -12 13 -22.5t33 -10.5v1z" />
    <glyph glyph-name="i" unicode="i" horiz-adv-x="278" 
d="M255 24v-24h-239v24q3 0 6 0.5t6 1.5q21 5 31 15t10 42v295q0 33 -12 43t-41 15v25h192v-380q0 -24 9 -39.5t38 -18.5v1zM60 613q0 31 22 54t56 23q32 0 54.5 -23t22.5 -55q0 -33 -22.5 -55t-54.5 -22q-34 0 -56 22.5t-22 54.5v1z" />
    <glyph glyph-name="j" unicode="j" horiz-adv-x="333" 
d="M260 461v-459q0 -16 -1.5 -40.5t-8.5 -50.5q-13 -43 -51 -78.5t-123 -35.5q-9 0 -19.5 1t-20.5 4q-35 7 -63.5 30.5t-28.5 66.5v4v3q3 20 18 36t43 16q23 0 36.5 -11t18.5 -24q2 -5 3 -10t1 -9q0 -9 -3.5 -17.5t-7.5 -15.5q-5 -8 -8.5 -14t-3.5 -12t5 -9.5t11 -5.5
q6 -1 10.5 -1.5t5.5 -0.5q30 0 39 22t9 54v474q0 39 -17 47.5t-42 10.5h-2h-2v25h202v0zM108 613q0 31 21.5 54t55.5 23q32 0 55 -23t23 -55q0 -33 -23 -55t-55 -22q-34 0 -55.5 22.5t-21.5 54.5v1z" />
    <glyph glyph-name="k" unicode="k" horiz-adv-x="556" 
d="M513 461v-23q-4 -2 -8 -2.5t-7 -1.5q-15 -3 -26.5 -6t-21.5 -9q-6 -3 -12 -7t-12 -9q-9 -7 -23.5 -20t-29.5 -27q-3 -3 -6.5 -6t-6.5 -6q-10 -10 -19.5 -20t-16.5 -18l194 -267q6 -9 10.5 -12t8.5 -4h3.5h2.5v-23h-234v24q4 -1 8 -0.5t9 0.5q9 2 17 6t8 12q0 6 -4 13.5
t-9 15.5q-1 3 -3 5t-4 5q-1 1 -2 3t-2 3l-95 135l-23 -24v-114q0 -34 8 -45t44 -16v-23h-239v24q23 -1 33 11.5t13 28.5q1 5 1.5 10t0.5 9v511q0 3 -0.5 10.5t-3.5 16.5q-4 11 -14 20.5t-30 9.5v25h187v-431l128 128q1 0 2.5 2t3.5 3l4 6t3 5q4 6 6 11t2 8q0 12 -6.5 16.5
t-26.5 8.5q-5 1 -11.5 2t-14.5 2v24h214v0z" />
    <glyph glyph-name="l" unicode="l" horiz-adv-x="278" 
d="M255 24v-24h-239v24q23 -1 34 11.5t15 28.5q1 5 1.5 10t0.5 9v511q0 3 -0.5 10.5t-4.5 16.5q-4 11 -14.5 20.5t-31.5 9.5v25h190v-592v-3.5v-2.5q1 -21 11.5 -38t37.5 -17v1z" />
    <glyph glyph-name="m" unicode="m" horiz-adv-x="833" 
d="M814 24v-24h-238v24q30 0 39 13t10 28v8v7v243v13.5t-1 15.5q-3 20 -13.5 36.5t-39.5 16.5q-17 0 -33.5 -9t-28.5 -21q-10 -9 -16 -17t-6 -11v-266q0 -25 9.5 -40.5t37.5 -17.5v-23h-234v24q28 1 37 13t10 27q1 4 1 8v8v243v13t-1 15q-2 20 -13 37t-41 17q-18 0 -34 -9
t-28 -21q-9 -9 -15 -17t-6 -11v-266q0 -24 8.5 -39.5t37.5 -18.5v-23h-240v24q1 -1 1.5 -1h0.5q24 5 38.5 14.5t14.5 45.5v295q0 37 -16 46t-37 12h-1.5h-0.5v25h191v-72h2q4 6 11 16t18 20q18 18 46 32.5t67 14.5q48 0 74 -17t40 -38q5 -8 9.5 -16.5t7.5 -15.5
q34 44 69.5 65.5t78.5 21.5q10 0 20 -1.5t21 -4.5q35 -9 64 -40.5t29 -94.5v-250v-7.5v-6.5q1 -16 10 -29.5t40 -14.5v1z" />
    <glyph glyph-name="n" unicode="n" horiz-adv-x="556" 
d="M539 24v-24h-235v24q25 1 36 14.5t11 41.5v243q0 6 -0.5 14.5t-1.5 18.5q-3 18 -14.5 33.5t-38.5 15.5h-4t-4 -1q-14 -2 -28 -10.5t-25 -18.5q-10 -9 -16 -17t-6 -11v-266v-8t1 -7q1 -15 10.5 -27.5t37.5 -15.5v-23h-241v24q2 -1 3.5 -0.5t3.5 0.5q23 5 34.5 15t11.5 44
v295q0 33 -11.5 43.5t-41.5 14.5v25h191v-72h2q4 6 11 16t18 20q17 18 45 32.5t68 14.5q10 0 20 -1.5t21 -4.5q35 -9 64 -40.5t29 -94.5v-250v-8v-8q1 -15 10 -28t39 -14v1z" />
    <glyph glyph-name="o" unicode="o" horiz-adv-x="500" 
d="M25 229q0 96 61 169.5t165 73.5q98 0 161.5 -70t63.5 -174q0 -100 -61.5 -171t-163.5 -71q-104 0 -165 72.5t-61 169.5v1zM172 229q0 -82 10 -147.5t70 -65.5q52 0 64.5 58.5t12.5 153.5q0 116 -16 164.5t-62 48.5q-55 0 -67 -63.5t-12 -149.5v1z" />
    <glyph glyph-name="p" unicode="p" horiz-adv-x="556" 
d="M292 -184v-21h-273v24q35 5 45.5 16t10.5 42v501q0 28 -9.5 41t-44.5 17v25h191v-66h2q3 4 6 9.5t7 11.5q14 21 40.5 38.5t73.5 17.5q8 0 16.5 -1t17.5 -3q56 -12 102.5 -66.5t46.5 -160.5q0 -124 -57.5 -189t-134.5 -65q-35 0 -57.5 12t-42.5 30q-5 4 -9 8.5t-9 8.5
v-140q0 -59 21.5 -74t56.5 -16v0zM214 346v-243q0 -1 4.5 -10.5t13.5 -20.5q9 -12 23.5 -21.5t35.5 -9.5q40 0 57.5 32.5t22.5 71.5q4 21 4.5 41.5t0.5 35.5v24t-1 25q-2 54 -17 99t-60 45q-19 0 -36 -11.5t-29 -25.5q-9 -10 -14 -19t-5 -14v1z" />
    <glyph glyph-name="q" unicode="q" horiz-adv-x="556" 
d="M536 -181v-24h-267v25q4 1 7.5 1.5t7.5 1.5q32 6 45 19t13 61v139q-9 -11 -18 -18.5t-18 -13.5q-24 -13 -45.5 -18.5t-37.5 -5.5q-75 0 -132 57.5t-57 185.5v9.5t1 9.5q5 84 62 154t164 70q39 0 69.5 -16.5t57.5 -40.5l78 57h15v-595q0 -33 12 -42.5t35 -13.5
q2 -1 4 -1.5t4 -0.5v0zM342 98v263q0 29 -16 54t-51 25q-48 0 -67.5 -44t-24.5 -96q-2 -16 -2.5 -32t-0.5 -31q0 -97 22.5 -147.5t71.5 -50.5q20 0 33.5 9t21.5 20t11 20t2 9v1z" />
    <glyph glyph-name="r" unicode="r" horiz-adv-x="444" 
d="M295 24v-24h-266v24q1 -1 2 -0.5t2 0.5q22 4 36 13.5t14 45.5v295q0 37 -15.5 46t-38.5 12v25h189v-79h2q5 7 12 16.5t16 18.5q18 21 44 38t59 17t50.5 -14t25.5 -31q4 -9 5.5 -18t1.5 -15q0 -5 -1 -11l-2 -12q-5 -17 -19.5 -30.5t-41.5 -13.5q-22 0 -34 9t-20 21
q-3 3 -5 6l-4 6q-5 7 -11 12t-15 5q-4 0 -11.5 -3t-15.5 -9q-12 -10 -22 -30t-10 -53v-188q0 -47 13.5 -62.5t59.5 -17.5v1z" />
    <glyph glyph-name="s" unicode="s" horiz-adv-x="389" 
d="M340 326h-25q-16 52 -48.5 82.5t-75.5 30.5q-27 0 -45.5 -17t-18.5 -40q0 -31 24.5 -49t58.5 -33q8 -4 16.5 -8t17.5 -8q44 -21 80.5 -52t36.5 -93q0 -71 -43.5 -112t-113.5 -41q-9 0 -18.5 1t-18.5 3q-11 2 -21.5 5t-20.5 5q-18 5 -31.5 9.5t-16.5 4.5q-5 0 -8.5 -2
t-6.5 -6q-3 -3 -6 -7.5t-6 -11.5h-25v165h28q2 -10 7 -27.5t16 -36.5q14 -26 42 -47.5t76 -21.5q32 0 49 16.5t21 36.5q0 3 0.5 6.5t0.5 6.5q0 26 -22.5 43.5t-54.5 33.5q-10 4 -20.5 9t-21.5 11q-45 22 -82 53.5t-37 89.5q0 66 45 106.5t114 40.5q18 0 34 -3.5t30 -7.5
t25 -7.5t18 -3.5q10 0 15 4t7 10q1 1 1.5 3t1.5 3l22 1v-145v0z" />
    <glyph glyph-name="t" unicode="t" horiz-adv-x="333" 
d="M305 461v-44h-94v-301v-1.5v-0.5v-11.5t2 -12.5q2 -12 10 -22t27 -10q16 0 28 11t20 24q2 5 4.5 9t4.5 8l25 -10q-4 -10 -9.5 -20t-11.5 -20q-18 -28 -47.5 -50t-78.5 -22q-46 0 -69.5 16.5t-32.5 37.5q-7 15 -9 29t-2 21v325h-52v27q1 0 1.5 0.5t1.5 0.5q9 9 18.5 17
t18.5 17q28 26 58 61t68 89l25 1v-169h94v0z" />
    <glyph glyph-name="u" unicode="u" horiz-adv-x="556" 
d="M537 43v-23q-37 -5 -62 -7.5t-43 -5.5q-14 -2 -25.5 -4t-22.5 -4q-9 -2 -19 -5t-22 -7v65q-6 -6 -13 -12t-16 -13q-20 -15 -48.5 -28t-64.5 -13q-76 0 -106 43t-30 96v253q0 29 -9 41t-40 17v25h188v-339v-12.5t1 -12.5q2 -17 13 -32t42 -15q23 0 40 10t30 23q3 2 6 5
l6 6v284q0 39 -17 47.5t-41 10.5h-2h-2v25h201v-360q0 -30 11 -44t45 -15v1z" />
    <glyph glyph-name="v" unicode="v" horiz-adv-x="500" 
d="M485 461v-24q0 -1 -0.5 -1h-0.5q-11 -2 -19.5 -4.5t-16.5 -11.5q-5 -6 -10 -15.5t-11 -23.5l-160 -395h-26l-120 296q-2 5 -4.5 10.5t-4.5 11.5q-2 4 -4 9t-4 9q-14 31 -26 55.5t-15 31.5q-2 4 -4 7.5t-4 6.5q-5 5 -10 7.5t-14 3.5q-2 1 -4.5 1.5t-5.5 0.5v25h250v-24
q-2 -1 -4 -1.5t-4 -0.5q-21 -2 -33 -6t-12 -20v0v-1q0 -2 1.5 -7.5t7.5 -21.5l79 -202l72 182q5 12 8 23t3 21q0 21 -14 26.5t-30 6.5h-4.5h-4.5h-0.5h-1.5v25h151v0z" />
    <glyph glyph-name="w" unicode="w" horiz-adv-x="722" 
d="M707 461v-24q-1 -1 -1.5 -1t-1.5 -1q-8 -1 -15 -4t-14 -11q-4 -5 -8.5 -13.5t-9.5 -20.5l-155 -400h-23l-100 303h-5l-122 -303h-24l-148 374q-10 23 -16.5 37.5t-11.5 22.5q-6 8 -12.5 11t-16.5 5v25h222v-24q-3 -1 -6.5 -1.5t-7.5 -1.5q-9 -3 -16.5 -8.5t-7.5 -19.5
q0 -16 23.5 -73t60.5 -158l68 172q-7 25 -12 40.5t-9 24.5q-6 14 -14 17.5t-22 5.5q-2 0 -4 0.5t-4 0.5v25h234v-24q-19 -2 -33.5 -6t-14.5 -20q0 -10 10.5 -48t23.5 -83q1 -3 1.5 -6t1.5 -6q7 -23 13 -45t10 -41l2 1q6 17 14 37t15 40q1 1 1.5 2t0.5 2q18 45 32.5 84.5
t14.5 50.5q0 23 -12.5 29t-32.5 8h-1.5h-1.5v25h135v0z" />
    <glyph glyph-name="x" unicode="x" horiz-adv-x="500" 
d="M484 24v-24h-241v24q1 -1 1.5 -1h1.5q16 1 29 5.5t13 15.5q0 5 -4.5 16t-13.5 25q-7 11 -20.5 29.5t-36.5 55.5q-6 -7 -16 -20t-21 -28q-2 -3 -4.5 -6t-4.5 -6q-13 -19 -23.5 -36t-10.5 -25q0 -13 9.5 -18t20.5 -6q5 -1 9.5 -1.5t8.5 -0.5h1h1v-23h-169v24q1 -1 1.5 -1
h1.5q7 1 13 2t11 3q20 8 48.5 41.5t102.5 130.5l-128 198q-4 5 -7.5 10t-7.5 9q-7 9 -15 13t-22 6v25h250v-24q-18 -1 -32.5 -5t-14.5 -16q0 -6 9.5 -22.5t21.5 -34.5q1 -3 3 -5.5t3 -4.5q11 -15 20 -28t14 -19q48 62 60.5 79t13.5 25v2.5v2.5q0 14 -9 18t-32 6
q-2 0 -4.5 0.5t-5.5 0.5v25h168v-24q-21 -4 -38.5 -13.5t-31.5 -26.5l-101 -125l148 -228q1 -3 2 -4t2 -3q5 -5 10.5 -8t12.5 -5l1 -0.5t2 -0.5v1z" />
    <glyph glyph-name="y" unicode="y" horiz-adv-x="500" 
d="M480 461v-24q0 -1 -0.5 -1h-0.5q-12 -2 -21.5 -5.5t-19.5 -17.5q-4 -5 -8 -13t-8 -19l-149 -396q-11 -28 -20 -52t-18 -43q-22 -49 -49.5 -72t-77.5 -23q-37 0 -58.5 17t-28.5 37q-3 6 -4 12t-1 12q0 4 1 12.5t6 18.5q6 13 19.5 23.5t39.5 10.5q23 0 35 -9.5t17 -21.5
q2 -6 3 -11t1 -9q0 -3 -0.5 -6t-0.5 -5q-1 -2 -1.5 -4t-0.5 -3t0.5 -3t1.5 -4q2 -4 5.5 -7t9.5 -3q16 0 28.5 14t21.5 31q6 11 10 21t6 16l18 53l-120 295q-2 5 -4.5 10.5t-4.5 11.5q-2 4 -4 9t-4 9q-14 31 -26 55.5t-15 31.5q-2 4 -4 7.5t-4 6.5q-5 5 -10 7.5t-14 3.5
q-2 1 -4.5 1.5t-5.5 0.5v25h250v-24q-1 -1 -1.5 -1h-1.5q-19 -2 -34.5 -6t-15.5 -21q0 -6 4.5 -18.5t9.5 -25.5q1 -1 1 -2t1 -2q1 -2 2 -4.5t2 -5.5l72 -184l68 192q3 8 5.5 15t3.5 14q1 4 1.5 7.5t0.5 7.5q0 21 -14 26.5t-30 6.5h-4.5h-4.5h-0.5h-1.5v25h151v0z" />
    <glyph glyph-name="z" unicode="z" horiz-adv-x="444" 
d="M420 160l-16 -160h-383v25l234 404q-1 -1 -1.5 -1h-1.5q-87 -1 -128 -15t-60 -95l-26 1l7 142h371v-26l-231 -403q8 -1 15.5 -1h14.5q23 0 45.5 2t41.5 8q23 9 40 26.5t28 37.5q9 15 14.5 29.5t7.5 24.5l28 1v0z" />
    <glyph glyph-name="braceleft" unicode="{" horiz-adv-x="394" 
d="M129 -34v179q0 49 -21 75t-86 40q65 14 86 40.5t21 75.5v180q0 91 55.5 116t155.5 25v-11q-61 -12 -83.5 -42t-22.5 -83v-170q0 -54 -20.5 -85t-93.5 -45v-1q73 -14 93.5 -45.5t20.5 -84.5v-170q0 -52 22.5 -82.5t83.5 -40.5v-12q-100 0 -155.5 25t-55.5 116v0z" />
    <glyph glyph-name="bar" unicode="|" horiz-adv-x="220" 
d="M66 -19v710h88v-710h-88v0z" />
    <glyph glyph-name="braceright" unicode="}" horiz-adv-x="394" 
d="M54 -175v12q61 11 83.5 41t22.5 83v171q0 52 20.5 83.5t93.5 44.5v3q-73 13 -93.5 44t-20.5 84v172q0 51 -22.5 81.5t-83.5 40.5v13q100 -1 155.5 -26t55.5 -116v-178q0 -50 21 -76.5t86 -40.5q-65 -14 -86 -40t-21 -76v-178q0 -92 -55.5 -117t-155.5 -25v0z" />
    <glyph glyph-name="asciitilde" unicode="~" horiz-adv-x="520" 
d="M455 333l36 -70q-1 -2 -2 -3.5t-2 -2.5q-22 -31 -49.5 -56t-71.5 -25q-23 0 -44 7t-42 17q-4 2 -8 4.5t-8 4.5q-24 14 -52 24.5t-63 10.5q-31 0 -50 -21t-31 -46q-1 -1 -1.5 -2.5t-1.5 -2.5l-36 71q1 0 1.5 1.5t1.5 2.5q17 31 45.5 56t76.5 25q21 0 44.5 -7t47.5 -17
q5 -2 9.5 -4t9.5 -4q2 -1 4.5 -2t4.5 -2q3 -1 5 -2t5 -2q23 -11 44.5 -19.5t38.5 -8.5q28 0 48 21t36 46q1 1 2 2.5t2 2.5v1z" />
    <glyph glyph-name="glyph98" unicode="&#xa1;" horiz-adv-x="333" 
d="M153 254h29q6 -60 13 -103.5t14 -75.5q11 -49 21 -77.5t16 -53.5q3 -11 4.5 -22.5t1.5 -25.5q0 -48 -23 -73.5t-62 -25.5q-38 0 -61 25.5t-23 73.5q0 14 1.5 25.5t4.5 22.5q6 25 16 53.5t21 77.5q7 32 14 75.5t13 102.5v1zM251 417q0 -35 -24 -60.5t-60 -25.5
q-35 0 -60 25.5t-25 59.5q0 36 25 60t60 24q36 0 60 -24.5t24 -59.5v1z" />
    <glyph glyph-name="cent" unicode="&#xa2;" horiz-adv-x="500" 
d="M429 588l-48 -136q27 -14 45 -36t18 -53q0 -25 -10.5 -38t-22.5 -19q-12 -5 -22 -6t-11 -1h-3.5h-3.5q-10 2 -20 6.5t-17 13.5l-82 -229q17 -19 37 -28.5t44 -9.5q35 0 56.5 12t35.5 27q4 4 8 8.5t7 8.5l18 -17q-13 -19 -26 -33t-26 -24q-42 -34 -80.5 -41t-57.5 -7
q-13 0 -26 1.5t-25 5.5l-47 -133h-40l51 145q-54 22 -91 77t-37 141q0 113 62.5 174t137.5 72q9 2 17.5 2.5t16.5 0.5q7 0 14.5 -0.5t14.5 -1.5t14.5 -2.5t14.5 -3.5l44 124h40v0zM225 128l96 269v3q0 16 -9 25.5t-20 13.5q-3 1 -6.5 1.5t-6.5 0.5q-34 0 -51.5 -27.5
t-24.5 -59.5q-6 -25 -7.5 -48t-1.5 -33q0 -43 8 -80t23 -66v1z" />
    <glyph glyph-name="sterling" unicode="&#xa3;" horiz-adv-x="500" 
d="M384 373v-65h-109q1 -11 1.5 -24.5t0.5 -27.5v-8.5v-9.5q0 -15 -2.5 -33t-6.5 -36q-2 -9 -5 -18l-6 -18q38 -15 61.5 -18.5t32.5 -3.5q57 0 76 19.5t27 51.5l23 1q-1 -17 -3 -35t-6 -37q-9 -47 -35 -86t-88 -39q-23 0 -51.5 10.5t-72.5 51.5q-4 -5 -9 -11.5t-12 -13.5
q-14 -14 -37 -25t-59 -11q-6 0 -16.5 1.5t-22.5 7.5q-17 6 -30.5 23t-13.5 48q0 8 1 19.5t6 23.5q7 20 29 36.5t69 16.5q15 0 24.5 -1.5t18.5 -3.5q2 0 4.5 -0.5t4.5 -1.5q0 17 -4 35.5t-10 36.5q-3 11 -6.5 21t-7.5 20q-3 10 -6.5 19.5t-6.5 18.5l-98 1v65h80
q-5 28 -9.5 56.5t-4.5 56.5q0 15 2.5 31t7.5 33q15 50 59.5 91.5t130.5 41.5q61 0 93 -18t45 -39q12 -19 14 -35.5t2 -20.5q0 -28 -16 -50t-55 -22q-25 0 -42 17.5t-17 47.5l2 45q0 3 -0.5 8.5t-2.5 11.5q-3 9 -12 17t-29 8q-30 0 -42 -18.5t-14 -40.5v-6v-6q0 -9 5 -39
t12 -65q1 -3 1.5 -6.5t1.5 -6.5q6 -33 12 -60.5t7 -32.5l114 1v0zM53 66q0 -20 9.5 -30.5t21.5 -15.5q7 -2 13 -3t10 -1q29 0 44 14t22 30q3 7 5 13t3 12l-2.5 2.5l-2.5 2.5q-12 10 -28 18.5t-42 8.5q-21 0 -32 -9t-16 -20q-3 -6 -4 -12.5t-1 -10.5v1z" />
    <glyph glyph-name="Idieresis" unicode="&#xa4;" horiz-adv-x="500" 
d="M-26 119l98 98q-17 22 -27 53t-10 67t10.5 67.5t26.5 53.5l-98 99l58 56l96 -96q23 15 55 24.5t66 9.5q38 0 69 -9.5t54 -25.5l96 97l58 -56l-98 -98q16 -24 26.5 -55t10.5 -67t-10 -67.5t-27 -53.5l98 -97l-58 -58l-96 98q-23 -17 -55 -27.5t-68 -10.5q-34 0 -66 10.5
t-55 26.5l-96 -97l-58 58v0zM377 338q0 52 -36 91.5t-92 39.5q-54 0 -90 -39.5t-36 -92.5q0 -54 36 -94t90 -40q56 0 92 40t36 94v1z" />
    <glyph glyph-name="ae" unicode="&#xa5;" horiz-adv-x="500" 
d="M450 292h-131l-4 -11v-67h135v-50h-135v-49q0 -60 23 -73t67 -17q2 0 4.5 -0.5t4.5 -0.5v-24h-331v25q2 -1 4.5 -0.5t4.5 0.5q45 4 69 17t24 72v50h-135v50h135v57l-11 21h-124v50h99l-130 255q-10 20 -29 35.5t-53 16.5l-1 27h301v-26q-44 -1 -60.5 -8t-16.5 -25
q0 -15 28.5 -71t62.5 -123q2 -3 3.5 -6t3.5 -6q8 -17 17 -34t17 -34l2 1l89 173q15 25 26 48t11 42q0 29 -22 34.5t-53 7.5h-1.5h-1.5v27h205v-26q-6 -2 -15 -3t-18 -5q-8 -4 -16.5 -11t-14.5 -19l-109 -204l-35 -66h111v-50v0z" />
    <glyph glyph-name="brokenbar" unicode="&#xa6;" 
 />
    <glyph glyph-name="section" unicode="&#xa7;" horiz-adv-x="500" 
d="M404 -4q0 -52 -43.5 -90t-123.5 -38q-10 0 -20.5 1t-21.5 4q-39 8 -72 32t-33 65q0 5 1.5 12.5t5.5 15.5q7 12 20 23t35 11q25 0 40.5 -11.5t21.5 -24.5q2 -5 3 -9.5t1 -8.5q0 -15 -7 -23.5t-16 -14.5q-4 -3 -8.5 -5.5t-7.5 -4.5l-5 -5t-2 -5q0 -2 2 -6t8 -8
q7 -5 21.5 -10t39.5 -5q42 0 59 20t17 49q0 30 -10.5 44t-24.5 25q0 1 -0.5 1.5t-1.5 0.5l-57 47q-56 46 -91 76.5t-54 57.5q-12 18 -17.5 36.5t-5.5 41.5q0 59 24.5 85t53.5 34q12 4 23.5 5t21.5 1h2.5h2.5h1.5h1.5q2 -1 4 -1h3l2 3q-8 6 -15.5 12.5t-15.5 13.5
q-28 26 -47.5 53t-19.5 61q0 62 43 97.5t100 35.5q54 0 86 -16.5t47 -36.5q10 -12 14 -23.5t4 -19.5q0 -23 -10.5 -37t-23.5 -21q-8 -5 -16 -7t-13 -2q-21 0 -38 14.5t-22 31.5q-1 3 -1.5 5.5t-0.5 5.5q0 12 6.5 21t14.5 17q8 7 14.5 13t6.5 11q0 2 -1 4t-4 5q-6 4 -19 8
t-36 4q-31 0 -54 -18.5t-23 -53.5q0 -6 1.5 -12t4.5 -11q13 -28 50 -56t79 -60q51 -39 93 -86t42 -109q0 -56 -25.5 -80.5t-55.5 -31.5q-16 -4 -31 -5t-26 -1v-1q43 -29 71 -65t28 -81v0zM132 337q0 -15 3 -26t10 -22q9 -15 27.5 -32t48.5 -42l1.5 -1.5l1.5 -1.5
q21 -17 43 -31.5t45 -14.5q25 0 37.5 13.5t15.5 29.5q1 4 1.5 7.5t0.5 7.5q0 7 -0.5 13t-2.5 12q-4 10 -13 21.5t-27 30.5q-1 1 -15.5 14.5t-34.5 30.5l-16 12t-17 12q-14 9 -28 15t-25 6q-5 0 -11 -1t-12 -4q-13 -4 -23 -16t-10 -34v1z" />
    <glyph glyph-name="dieresis" unicode="&#xa8;" horiz-adv-x="333" 
d="M-2 602q1 4 1.5 10t3.5 12q6 16 20.5 29t37.5 13q26 0 45 -19.5t19 -46.5q0 -26 -18 -45t-46 -19q-23 0 -37.5 13t-20.5 29q-3 6 -3.5 12t-0.5 11zM208 602q0 4 1 10t4 12q6 16 20 29t37 13q26 0 45.5 -19.5t19.5 -46.5q0 -26 -18.5 -45t-46.5 -19q-23 0 -37.5 13
t-20.5 29q-2 6 -3 12t-1 11v1z" />
    <glyph glyph-name="copyright" unicode="&#xa9;" horiz-adv-x="747" 
d="M374 -19q-148 0 -248 102.5t-100 250.5q0 149 100 252.5t248 103.5q149 0 248 -103.5t99 -252.5q0 -148 -99 -250.5t-248 -102.5v0zM374 33q117 -1 196.5 88.5t79.5 212.5q0 124 -79 214t-197 90t-197.5 -90t-79.5 -214q0 -123 79.5 -212.5t197.5 -89.5v1zM525 256h19
l-16 -74q-1 -7 -4.5 -10.5t-9.5 -6.5q-3 -2 -6.5 -3t-7.5 -3q-6 -1 -14.5 -3.5t-19.5 -4.5q-15 -4 -33.5 -7t-39.5 -3q-95 0 -156 50.5t-61 153.5q0 13 2 26t5 27q15 54 66.5 99.5t151.5 45.5q35 0 56.5 -5t40.5 -12h0.5h0.5q2 -1 3.5 -1.5t2.5 -0.5q12 -4 17 -9t5 -12v-71
h-19q-1 2 -1.5 5t-1.5 6q-10 29 -33.5 53t-71.5 24q-61 0 -91 -47.5t-31 -122.5q-1 -79 27 -132.5t98 -53.5q45 0 75 26.5t47 64.5v1z" />
    <glyph glyph-name="ellipsis" unicode="&#xaa;" horiz-adv-x="300" 
d="M291 443l10 -12q-13 -16 -31 -25.5t-40 -9.5q-25 0 -36 8.5t-15 18.5q-1 4 -2 7.5t-2 6.5q-4 -3 -7.5 -6t-7.5 -6q-28 -21 -53 -25t-35 -4q-4 0 -8.5 0.5t-9.5 1.5q-21 4 -37.5 19.5t-16.5 45.5q0 47 53 69.5t120 39.5v41q0 22 -9 36.5t-43 14.5q-14 0 -24 -5t-13 -10
q-1 -2 -1.5 -3.5t-0.5 -2.5q0 -4 1.5 -6.5t4.5 -5.5l2 -2l2 -2q4 -4 7 -9t3 -12q0 -3 -1 -6.5t-3 -7.5q-5 -8 -15 -14t-28 -6q-2 0 -8 0.5t-13 3.5q-8 3 -15 11.5t-7 25.5q0 29 31 51.5t95 22.5q54 0 92 -19.5t38 -62.5v-155v-4t1 -4q0 -3 2 -5.5t7 -2.5q2 0 4 0.5t3 1.5
l6 7v0zM172 465v87q-4 -2 -14.5 -5.5t-22.5 -10.5q-14 -8 -26 -22.5t-12 -35.5v-4t1 -4q2 -12 9.5 -22t20.5 -10q12 0 21 5.5t16 11.5q2 2 4 4.5t3 4.5v1z" />
    <glyph glyph-name="ydieresis" unicode="&#xab;" horiz-adv-x="500" 
d="M229 59l-206 166v4l203 164q9 7 16 12.5t13 7.5q2 0 3.5 0.5t3.5 0.5q10 0 11.5 -4t1.5 -10q0 -12 -15.5 -37t-35.5 -53l-6 -8l-6 -8q-15 -20 -29.5 -38.5t-23.5 -29.5q8 -13 23.5 -32t31.5 -41q2 -2 4 -4.5t4 -4.5q21 -28 38 -53.5t17 -37.5q0 -10 -3 -14t-9 -4
q-7 0 -15.5 6.5t-17.5 13.5l-1.5 1.5l-1.5 1.5v1zM425 59l-206 166v4l203 164q9 7 16 12.5t13 7.5q2 0 3.5 0.5t3.5 0.5q10 0 11.5 -4t1.5 -10q0 -12 -15.5 -37t-35.5 -53l-6 -8l-6 -8q-15 -20 -29.5 -38.5t-23.5 -29.5q8 -13 23.5 -32t31.5 -41q2 -2 4 -4.5t4 -4.5
q21 -28 38 -53.5t17 -37.5q0 -10 -3 -14t-9 -4q-7 0 -15.5 6.5t-17.5 13.5l-1.5 1.5l-1.5 1.5v1z" />
    <glyph glyph-name="emdash" unicode="&#xac;" 
 />
    <glyph glyph-name="uni00AD" unicode="&#xad;" horiz-adv-x="500" 
 />
    <glyph glyph-name="registered" unicode="&#xae;" horiz-adv-x="747" 
d="M374 -19q-148 0 -248 102.5t-100 250.5q0 149 100 252.5t248 103.5q149 0 248 -103.5t99 -252.5q0 -148 -99 -250.5t-248 -102.5v0zM374 33q117 -1 196.5 88.5t79.5 212.5q0 124 -79 214t-197 90t-197.5 -90t-79.5 -214q0 -123 79.5 -212.5t197.5 -89.5v1zM207 514v18
h193q47 -1 81 -24t34 -74q0 -35 -22 -63.5t-58 -40.5l58 -81q5 -7 9.5 -13.5t8.5 -12.5q14 -18 27.5 -33.5t24.5 -26.5v-10h-81q-2 -1 -4.5 -0.5t-5.5 2.5q-19 11 -40.5 55.5t-52.5 95.5q-3 3 -5 6.5t-4 6.5l-37 1v-105v-2.5v-0.5q0 -26 5.5 -33t40.5 -9v-17h-172v18
q35 1 40.5 8t5.5 33v0.5v1.5v256v0.5v0.5q0 27 -5.5 34t-40.5 8v1zM333 510v-168h35q35 -1 48.5 26.5t13.5 61.5q0 44 -17 61.5t-44 17.5l-36 1v0z" />
    <glyph glyph-name="glyph263" unicode="&#xaf;" 
 />
    <glyph glyph-name="glyph264" unicode="&#xb0;" 
 />
    <glyph glyph-name="mu" unicode="&#xb1;" horiz-adv-x="570" 
d="M33 0v88h504v-88h-504v0zM241 359v147h88v-147h208v-88h-208v-143h-88v143h-208v88h208v0z" />
    <glyph glyph-name="uni00B2" unicode="&#xb2;" 
 />
    <glyph glyph-name="uni00B3" unicode="&#xb3;" 
 />
    <glyph glyph-name="acute" unicode="&#xb4;" horiz-adv-x="333" 
d="M284 616l-142 -88h-56l137 157q17 19 31 23t21 4q4 0 8.5 -0.5t9.5 -2.5q12 -3 21.5 -12.5t9.5 -28.5q0 -16 -7 -26t-19 -18q-3 -2 -6.5 -4.5t-7.5 -4.5v1z" />
    <glyph glyph-name="oslash" unicode="&#xb5;" horiz-adv-x="556" 
d="M475 461v-360q0 -19 8 -29.5t17 -15.5l6 -2t5 -1h1.5h1.5h0.5h1.5q5 0 10 1.5t10 4.5v-23q-6 -6 -11.5 -11t-11.5 -10q-17 -13 -35.5 -20.5t-46.5 -7.5q-32 0 -59 11t-43 40q-19 -25 -43 -38t-53 -13q-34 0 -59 8.5t-43 23.5l-2 -1q2 -20 6.5 -37.5t9.5 -33.5
q6 -20 11 -38.5t5 -36.5q0 -35 -14.5 -56.5t-45.5 -21.5q-37 0 -52.5 21.5t-15.5 56.5q0 16 5 35.5t12 44.5q6 26 11 59t5 76v374h139v-312q0 -38 16 -55t36 -20h3h4q7 0 17 2.5t20 6.5t19 8.5t16 9.5v360h139v0z" />
    <glyph glyph-name="paragraph" unicode="&#xb6;" horiz-adv-x="540" 
d="M293 651v-837h-175v25q3 0 5.5 0.5t5.5 0.5q26 3 45 7.5t22 18.5q1 7 1.5 12.5t0.5 11.5q1 10 1 21.5v27.5v326q-96 -1 -147.5 58.5t-51.5 153.5q0 104 53.5 151t165.5 47l300 1v-25q-3 -1 -6.5 -1.5t-6.5 -0.5q-29 -3 -46 -7.5t-20 -18.5q-1 -7 -1.5 -12.5t-0.5 -11.5
q-1 -10 -1 -21.5v-27.5v-611v-27.5t1 -21.5q0 -6 0.5 -11.5t1.5 -12.5q3 -14 19.5 -18.5t43.5 -7.5q2 0 5 -0.5t6 -0.5v-25h-171v837h-50v0zM199 290v361q-55 -13 -82 -50t-27 -126q0 -86 34 -130t75 -56v1z" />
    <glyph glyph-name="glyph265" unicode="&#xb7;" 
 />
    <glyph glyph-name="glyph121" unicode="&#xb8;" horiz-adv-x="333" 
d="M116 -96l43 96h42l-28 -64q2 1 4 1.5t4 0.5q5 2 10.5 2.5t12.5 0.5q38 0 64 -16.5t26 -53.5q0 -38 -23.5 -56.5t-51.5 -25.5q-17 -4 -33 -5.5t-27 -1.5q-9 0 -34.5 3t-56.5 15l16 37q4 -1 7.5 -2.5t7.5 -3.5q10 -3 20.5 -5.5t23.5 -2.5q4 0 11.5 0.5t16.5 2.5
q11 3 20.5 11.5t9.5 26.5q0 19 -13 27.5t-33 8.5q-8 0 -14 -1t-11 -2l-1 -0.5t-2 -0.5l-11 8v0z" />
    <glyph glyph-name="uni00B9" unicode="&#xb9;" 
 />
    <glyph glyph-name="Agrave" unicode="&#xba;" horiz-adv-x="330" 
d="M165 397q-67 -1 -107 41.5t-40 102.5q0 62 41.5 104t105.5 42q65 0 106 -42t41 -104q0 -60 -40 -102.5t-107 -42.5v1zM165 417q33 -1 41 32.5t8 91.5q0 69 -10 97t-39 28q-28 0 -39 -28t-11 -97q0 -58 8.5 -91.5t41.5 -33.5v1z" />
    <glyph glyph-name="Ydieresis" unicode="&#xbb;" horiz-adv-x="500" 
d="M75 392l206 -166v-4l-203 -164q-9 -9 -16 -14.5t-13 -7.5q-2 0 -3.5 -0.5t-3.5 -0.5q-10 0 -11.5 4t-1.5 10q0 12 15.5 37t35.5 53l6 8l6 8q15 20 29.5 38.5t23.5 29.5q-8 13 -23.5 32t-31.5 41q-2 2 -4 4.5t-4 4.5q-21 28 -38 53.5t-17 37.5q0 10 3 14t9 4
q7 0 15.5 -6.5t17.5 -13.5l1.5 -1.5l1.5 -1.5v1zM271 392l206 -166v-4l-203 -164q-9 -9 -16 -14.5t-13 -7.5q-2 0 -3.5 -0.5t-3.5 -0.5q-10 0 -11.5 4t-1.5 10q0 12 15.5 37t35.5 53l6 8l6 8q15 20 29.5 38.5t23.5 29.5q-8 13 -23.5 32t-31.5 41q-2 2 -4 4.5t-4 4.5
q-21 28 -38 53.5t-17 37.5q0 10 3 14t9 4q7 0 15.5 -6.5t17.5 -13.5l1.5 -1.5l1.5 -1.5v1z" />
    <glyph glyph-name="onequarter" unicode="&#xbc;" 
 />
    <glyph glyph-name="glyph243" unicode="&#xbd;" horiz-adv-x="750" 
d="M573 688h56l-439 -700h-58l441 700v0zM775 127l-30 -127h-270v14q79 77 131.5 138.5t52.5 114.5q0 5 -2 15t-7 21q-7 16 -23 28.5t-45 12.5q-7 0 -19.5 -2.5t-26.5 -13.5q-7 -6 -14.5 -15.5t-13.5 -22.5l-24 1q4 9 10.5 23.5t16.5 29.5q17 26 45 47t71 21q10 0 23 -2
t26 -7q27 -10 49 -33.5t22 -69.5q0 -13 -9 -46t-65 -83l-93 -86v-5h86q43 -1 59 4.5t26 24.5l4 8t4 9l16 1v0zM238 295v-20h-243v20q56 -2 66.5 14.5t10.5 44.5v222v6t-1 8q-1 10 -6 18t-18 8q-7 0 -22 -4.5t-31 -10.5l-1 22l164 65h11v-337q0 -31 11 -44t59 -13v1z" />
    <glyph glyph-name="threequarters" unicode="&#xbe;" 
 />
    <glyph glyph-name="oe" unicode="&#xbf;" horiz-adv-x="500" 
d="M247 257h30q1 -15 1.5 -26t0.5 -19q0 -24 -7 -44t-16 -39q-4 -6 -7.5 -12.5t-6.5 -13.5q-15 -26 -26.5 -58t-11.5 -79q0 -11 1 -25.5t4 -29.5q7 -28 25 -52t56 -24q3 0 11.5 1t17.5 4q11 3 20.5 11.5t9.5 23.5q0 8 -3.5 14t-8.5 12l-3 3t-3 4q-7 7 -13 18t-6 29
q0 26 11 39t25 19q7 3 13.5 4t11.5 1q33 0 49 -19t20 -42q0 -4 0.5 -7.5t0.5 -7.5q0 -12 -4 -28.5t-14 -34.5q-17 -30 -58 -55t-118 -25q-10 0 -37 3t-57 16q-38 15 -69 50t-31 101q0 47 27 83t67 61q23 14 39.5 24.5t27.5 20.5q7 6 12.5 12.5t8.5 13.5q6 12 8 29.5t2 42.5
v1zM346 417q0 -35 -24.5 -60.5t-60.5 -25.5q-34 0 -59 25.5t-25 59.5q0 36 25 60t59 24q36 0 60.5 -24.5t24.5 -59.5v1z" />
    <glyph glyph-name="currency" unicode="&#xc0;" horiz-adv-x="722" 
d="M689 25v-25h-324v25q5 -1 10 -0.5t9 1.5q35 3 48 9t13 28q0 11 -6 29.5t-13 39.5q-2 4 -3.5 8.5t-3.5 8.5q-6 14 -11 26t-9 21l-225 1q-21 -55 -32.5 -86.5t-11.5 -43.5q0 -22 18 -30.5t40 -10.5q6 -1 12 -1.5t12 -0.5v-24h-203v25q29 3 45 18t30 43q5 12 11 25.5
t12 29.5l222 549h28l223 -526q16 -39 28 -65t23 -42q11 -18 24 -25.5t31 -7.5h1.5h1.5v1zM189 236h195l-101 243l-94 -243v0zM434 738h-56l-142 88q-19 10 -29.5 22.5t-10.5 29.5q0 4 1 8.5t4 9.5q4 10 14.5 18t29.5 8q14 0 26.5 -7.5t21.5 -15.5q1 -2 2 -3l2 -2l137 -156v0
z" />
    <glyph glyph-name="breve" unicode="&#xc1;" horiz-adv-x="722" 
d="M689 25v-25h-324v25q5 -1 10 -0.5t9 1.5q35 3 48 9t13 28q0 11 -6 29.5t-13 39.5q-2 4 -3.5 8.5t-3.5 8.5q-6 14 -11 26t-9 21l-225 1q-21 -55 -32.5 -86.5t-11.5 -43.5q0 -22 18 -30.5t40 -10.5q6 -1 12 -1.5t12 -0.5v-24h-203v25q29 3 45 18t30 43q5 12 11 25.5
t12 29.5l222 549h28l223 -526q16 -39 28 -65t23 -42q11 -18 24 -25.5t31 -7.5h1.5h1.5v1zM189 236h195l-101 243l-94 -243v0zM472 826l-142 -88h-56l137 157q17 19 31 23t21 4q4 0 8.5 -0.5t9.5 -2.5q12 -3 21.5 -12.5t9.5 -28.5q0 -16 -7 -26t-19 -18q-3 -2 -6.5 -4.5
t-7.5 -4.5v1z" />
    <glyph glyph-name="tilde" unicode="&#xc2;" horiz-adv-x="722" 
d="M689 25v-25h-324v25q5 -1 10 -0.5t9 1.5q35 3 48 9t13 28q0 11 -6 29.5t-13 39.5q-2 4 -3.5 8.5t-3.5 8.5q-6 14 -11 26t-9 21l-225 1q-21 -55 -32.5 -86.5t-11.5 -43.5q0 -22 18 -30.5t40 -10.5q6 -1 12 -1.5t12 -0.5v-24h-203v25q29 3 45 18t30 43q5 12 11 25.5
t12 29.5l222 549h28l223 -526q16 -39 28 -65t23 -42q11 -18 24 -25.5t31 -7.5h1.5h1.5v1zM189 236h195l-101 243l-94 -243v0zM466 738l-112 98l-112 -98h-56l122 176h92l123 -176h-57v0z" />
    <glyph glyph-name="guilsinglleft" unicode="&#xc3;" horiz-adv-x="722" 
d="M689 25v-25h-324v25q5 -1 10 -0.5t9 1.5q35 3 48 9t13 28q0 11 -6 29.5t-13 39.5q-2 4 -3.5 8.5t-3.5 8.5q-6 14 -11 26t-9 21l-225 1q-21 -55 -32.5 -86.5t-11.5 -43.5q0 -22 18 -30.5t40 -10.5q6 -1 12 -1.5t12 -0.5v-24h-203v25q29 3 45 18t30 43q5 12 11 25.5
t12 29.5l222 549h28l223 -526q16 -39 28 -65t23 -42q11 -18 24 -25.5t31 -7.5h1.5h1.5v1zM189 236h195l-101 243l-94 -243v0zM214 759h-42q2 9 5.5 24t10.5 31q12 26 35.5 47.5t66.5 21.5h5.5t5.5 -1q10 -1 19.5 -3.5t17.5 -5.5t14 -5.5t9 -3.5l40 -17q14 -7 20 -9.5
t10 -3.5h4.5h5.5q19 0 29.5 9.5t15.5 20.5q3 5 5 10t3 9l43 1q-3 -11 -7.5 -26.5t-11.5 -31.5q-13 -26 -37 -48t-65 -22q-6 0 -13 1t-14 3q-9 2 -17.5 4.5t-15.5 5.5l-29 14q-29 12 -39.5 16t-16.5 5h-4h-4q-17 0 -28.5 -9.5t-16.5 -20.5q-2 -5 -3 -9t-1 -8v1z" />
    <glyph glyph-name="Adieresis" unicode="&#xc4;" horiz-adv-x="722" 
d="M689 25v-25h-324v25q5 -1 10 -0.5t9 1.5q35 3 48 9t13 28q0 11 -6 29.5t-13 39.5q-2 4 -3.5 8.5t-3.5 8.5q-6 14 -11 26t-9 21l-225 1q-21 -55 -32.5 -86.5t-11.5 -43.5q0 -22 18 -30.5t40 -10.5q6 -1 12 -1.5t12 -0.5v-24h-203v25q29 3 45 18t30 43q5 12 11 25.5
t12 29.5l222 549h28l223 -526q16 -39 28 -65t23 -42q11 -18 24 -25.5t31 -7.5h1.5h1.5v1zM189 236h195l-101 243l-94 -243v0zM186 812q0 4 1 10t4 12q6 16 20.5 29t37.5 13q26 0 45 -19.5t19 -46.5q0 -26 -18 -45t-46 -19q-23 0 -37.5 13t-20.5 29q-3 6 -4 12t-1 11v1z
M396 812q0 4 1 10t4 12q6 16 20 29t37 13q26 0 45.5 -19.5t19.5 -46.5q0 -26 -18.5 -45t-46.5 -19q-23 0 -37.5 13t-20.5 29q-2 6 -3 12t-1 11v1z" />
    <glyph glyph-name="Aring" unicode="&#xc5;" horiz-adv-x="722" 
d="M689 25v-25h-324v25q5 -1 10 -0.5t9 1.5q35 3 48 9t13 28q0 11 -6 29.5t-13 39.5q-2 4 -3.5 8.5t-3.5 8.5q-6 14 -11 26t-9 21l-225 1q-21 -55 -32.5 -86.5t-11.5 -43.5q0 -22 18 -30.5t40 -10.5q6 -1 12 -1.5t12 -0.5v-24h-203v25q29 3 45 18t30 43q5 12 11 25.5
t12 29.5l222 549h28l223 -526q16 -39 28 -65t23 -42q11 -18 24 -25.5t31 -7.5h1.5h1.5v1zM189 236h195l-101 243l-94 -243v0zM240 828q0 43 32 74.5t75 31.5q44 0 75 -31.5t31 -75.5t-31 -75t-75 -31q-43 0 -75 30.5t-32 75.5v1zM405 828q0 22 -17.5 40t-42.5 18
q-20 0 -33 -11.5t-19 -25.5q-3 -6 -4 -11.5t-1 -10.5t1 -10t3 -11q6 -14 19 -25.5t34 -11.5q26 0 43 17t17 41v1z" />
    <glyph glyph-name="Oslash" unicode="&#xc6;" horiz-adv-x="1000" 
d="M344 0v25q56 1 72 20t16 73v185h-190l-100 -188q-4 -9 -7 -15.5t-5 -11.5l-2 -10t-1 -11q0 -25 20.5 -31.5t45.5 -9.5l17 -1v-25h-206v25q1 -1 2 -0.5t2 0.5q8 1 14 3t11 5q14 9 31 34t50 85l213 390q2 3 4.5 7t4.5 9q1 0 1.5 1l0.5 1q9 17 16.5 32t7.5 22q0 23 -24 30.5
t-63 8.5v23h634v-201h-25q0 1 -0.5 2.5t-0.5 3.5q-14 65 -47 112t-162 47q-61 0 -71.5 -8t-10.5 -22v-247q1 -1 1.5 -1h1.5q73 7 98.5 23t42.5 78q2 10 5 22t6 26l23 1v-338h-23q-1 3 -1.5 7t-1.5 8q-11 66 -35.5 101.5t-116.5 39.5v-242q0 -27 12 -41t57 -14q75 0 114 13.5
t70 41.5q2 2 4 3.5t4 3.5q5 5 10 10.5t10 12.5q6 7 11 14l10 14q14 21 24 39.5t10 24.5l23 1l-41 -211h-566v0zM264 343h168v290h-7l-161 -290v0z" />
    <glyph glyph-name="Ccedilla" unicode="&#xc7;" horiz-adv-x="722" 
d="M324 -96l43 96h42l-28 -64q2 1 4 1.5t4 0.5q5 2 10.5 2.5t12.5 0.5q38 0 64 -16.5t26 -53.5q0 -38 -23.5 -56.5t-51.5 -25.5q-17 -4 -33 -5.5t-27 -1.5q-9 0 -34.5 3t-56.5 15l16 37q4 -1 7.5 -2.5t7.5 -3.5q10 -3 20.5 -5.5t23.5 -2.5q4 0 11.5 0.5t16.5 2.5
q11 3 20.5 11.5t9.5 26.5q0 19 -13 27.5t-33 8.5q-8 0 -14 -1t-11 -2l-1 -0.5t-2 -0.5l-11 8v0zM657 152l30 -25q-55 -63 -119 -104.5t-160 -41.5q-175 0 -267 105t-92 245q0 152 98.5 255.5t255.5 103.5q34 0 64.5 -7.5t56.5 -16.5q25 -10 43.5 -17.5t28.5 -7.5
q19 0 28 12.5t16 29.5q1 1 1.5 2t0.5 2l27 1v-234h-25q-5 12 -12 26.5t-15 28.5q-33 55 -85.5 101.5t-120.5 46.5q-109 0 -147 -97.5t-38 -224.5q0 -24 1.5 -54t7.5 -61q4 -28 12.5 -55t21.5 -50q14 -24 32 -39.5t37 -25.5q24 -13 47 -17.5t36 -4.5q16 0 32 2t31 5
q42 11 85 38t88 78v1z" />
    <glyph glyph-name="ring" unicode="&#xc8;" horiz-adv-x="667" 
d="M16 651v25h577v-201h-25q-17 106 -72.5 136t-156.5 30q-41 0 -57 -7.5t-16 -39.5v-231q72 -2 111.5 26.5t50.5 121.5l26 1v-338h-26q-9 93 -48.5 123.5t-113.5 30.5v-241q0 -34 17.5 -45.5t66.5 -11.5h14t13 1q67 4 130 38.5t106 137.5l28 1l-40 -208h-585v25
q2 -1 4 -0.5t4 0.5q39 4 59.5 15t20.5 55v485q0 48 -26 58t-60 12h-0.5h-1.5v1zM420 738h-56l-142 88q-19 10 -29.5 22.5t-10.5 29.5q0 4 1 8.5t4 9.5q4 10 14.5 18t29.5 8q14 0 26.5 -7.5t21.5 -15.5q1 -2 2 -3l2 -2l137 -156v0z" />
    <glyph glyph-name="Eacute" unicode="&#xc9;" horiz-adv-x="667" 
d="M16 651v25h577v-201h-25q-17 106 -72.5 136t-156.5 30q-41 0 -57 -7.5t-16 -39.5v-231q72 -2 111.5 26.5t50.5 121.5l26 1v-338h-26q-9 93 -48.5 123.5t-113.5 30.5v-241q0 -34 17.5 -45.5t66.5 -11.5h14t13 1q67 4 130 38.5t106 137.5l28 1l-40 -208h-585v25
q2 -1 4 -0.5t4 0.5q39 4 59.5 15t20.5 55v485q0 48 -26 58t-60 12h-0.5h-1.5v1zM458 826l-142 -88h-56l137 157q17 19 31 23t21 4q4 0 8.5 -0.5t9.5 -2.5q12 -3 21.5 -12.5t9.5 -28.5q0 -16 -7 -26t-19 -18q-3 -2 -6.5 -4.5t-7.5 -4.5v1z" />
    <glyph glyph-name="macron" unicode="&#xca;" horiz-adv-x="667" 
d="M16 651v25h577v-201h-25q-17 106 -72.5 136t-156.5 30q-41 0 -57 -7.5t-16 -39.5v-231q72 -2 111.5 26.5t50.5 121.5l26 1v-338h-26q-9 93 -48.5 123.5t-113.5 30.5v-241q0 -34 17.5 -45.5t66.5 -11.5h14t13 1q67 4 130 38.5t106 137.5l28 1l-40 -208h-585v25
q2 -1 4 -0.5t4 0.5q39 4 59.5 15t20.5 55v485q0 48 -26 58t-60 12h-0.5h-1.5v1zM452 738l-112 98l-112 -98h-56l122 176h92l123 -176h-57v0z" />
    <glyph glyph-name="dotaccent" unicode="&#xcb;" horiz-adv-x="667" 
d="M16 651v25h577v-201h-25q-17 106 -72.5 136t-156.5 30q-41 0 -57 -7.5t-16 -39.5v-231q72 -2 111.5 26.5t50.5 121.5l26 1v-338h-26q-9 93 -48.5 123.5t-113.5 30.5v-241q0 -34 17.5 -45.5t66.5 -11.5h14t13 1q67 4 130 38.5t106 137.5l28 1l-40 -208h-585v25
q2 -1 4 -0.5t4 0.5q39 4 59.5 15t20.5 55v485q0 48 -26 58t-60 12h-0.5h-1.5v1zM172 812q0 4 1 10t4 12q6 16 20.5 29t37.5 13q26 0 45 -19.5t19 -46.5q0 -26 -18 -45t-46 -19q-23 0 -37.5 13t-20.5 29q-3 6 -4 12t-1 11v1zM382 812q0 4 1 10t4 12q6 16 20 29t37 13
q26 0 45.5 -19.5t19.5 -46.5q0 -26 -18.5 -45t-46.5 -19q-23 0 -37.5 13t-20.5 29q-2 6 -3 12t-1 11v1z" />
    <glyph glyph-name="caron" unicode="&#xcc;" horiz-adv-x="389" 
d="M370 25v-25h-350v25q1 -1 1.5 -1h1.5q39 4 64.5 14.5t25.5 56.5v485q0 47 -28 57.5t-62 12.5h-1.5h-1.5v26h350v-25q-1 -1 -1.5 -1h-1.5q-34 -2 -63 -11.5t-29 -59.5v-483q0 -48 26 -58.5t66 -13.5h1.5h1.5v1zM274 738h-56l-142 88q-19 10 -29.5 22.5t-10.5 29.5
q0 4 1 8.5t4 9.5q4 10 14.5 18t29.5 8q14 0 26.5 -7.5t21.5 -15.5q1 -2 2 -3l2 -2l137 -156v0z" />
    <glyph glyph-name="cedilla" unicode="&#xcd;" horiz-adv-x="389" 
d="M370 25v-25h-350v25q1 -1 1.5 -1h1.5q39 4 64.5 14.5t25.5 56.5v485q0 47 -28 57.5t-62 12.5h-1.5h-1.5v26h350v-25q-1 -1 -1.5 -1h-1.5q-34 -2 -63 -11.5t-29 -59.5v-483q0 -48 26 -58.5t66 -13.5h1.5h1.5v1zM312 826l-142 -88h-56l137 157q17 19 31 23t21 4
q4 0 8.5 -0.5t9.5 -2.5q12 -3 21.5 -12.5t9.5 -28.5q0 -16 -7 -26t-19 -18q-3 -2 -6.5 -4.5t-7.5 -4.5v1z" />
    <glyph glyph-name="hungarumlaut" unicode="&#xce;" horiz-adv-x="389" 
d="M370 25v-25h-350v25q1 -1 1.5 -1h1.5q39 4 64.5 14.5t25.5 56.5v485q0 47 -28 57.5t-62 12.5h-1.5h-1.5v26h350v-25q-1 -1 -1.5 -1h-1.5q-34 -2 -63 -11.5t-29 -59.5v-483q0 -48 26 -58.5t66 -13.5h1.5h1.5v1zM306 738l-112 98l-112 -98h-56l122 176h92l123 -176h-57v0z
" />
    <glyph glyph-name="ogonek" unicode="&#xcf;" horiz-adv-x="389" 
d="M370 25v-25h-350v25q1 -1 1.5 -1h1.5q39 4 64.5 14.5t25.5 56.5v485q0 47 -28 57.5t-62 12.5h-1.5h-1.5v26h350v-25q-1 -1 -1.5 -1h-1.5q-34 -2 -63 -11.5t-29 -59.5v-483q0 -48 26 -58.5t66 -13.5h1.5h1.5v1zM26 812q0 4 1 10t4 12q6 16 20.5 29t37.5 13q26 0 45 -19.5
t19 -46.5q0 -26 -18 -45t-46 -19q-23 0 -37.5 13t-20.5 29q-3 6 -4 12t-1 11v1zM236 812q0 4 1 10t4 12q6 16 20 29t37 13q26 0 45.5 -19.5t19.5 -46.5q0 -26 -18.5 -45t-46.5 -19q-23 0 -37.5 13t-20.5 29q-2 6 -3 12t-1 11v1z" />
    <glyph glyph-name="glyph232" unicode="&#xd0;" horiz-adv-x="722" 
d="M6 326v47h91v211q0 40 -22 51t-49 14h-4t-4 1h-2h-2v26h305q188 -1 271.5 -88.5t96.5 -192.5q2 -12 2.5 -24t0.5 -24q0 -138 -85.5 -240t-274.5 -107h-316v25q47 -1 65 18t18 47v236h-91v0zM373 373v-47h-114v-233q0 -31 10.5 -45t46.5 -14q84 0 142 62t58 241
q0 25 -3 60t-12 72q-16 64 -57 118t-123 54q-42 0 -52 -12t-10 -27v-2v-2v-2v-2v-221h114v0z" />
    <glyph glyph-name="Ntilde" unicode="&#xd1;" horiz-adv-x="722" 
d="M16 0v25q45 4 66.5 17t21.5 62v475q-42 51 -58.5 61t-26.5 10v26h211l347 -427h2v303q0 44 -16 69t-77 29v26h215v-25q-54 -8 -66 -26.5t-12 -54.5v-588h-28l-445 542h-2v-400q0 -55 20 -74.5t75 -25.5v-24h-227v0zM221 759h-42q2 9 5.5 24t10.5 31q12 26 35.5 47.5
t66.5 21.5h5.5t5.5 -1q10 -1 19.5 -3.5t17.5 -5.5t14 -5.5t9 -3.5l40 -17q14 -7 20 -9.5t10 -3.5h4.5h5.5q19 0 29.5 9.5t15.5 20.5q3 5 5 10t3 9l43 1q-3 -11 -7.5 -26.5t-11.5 -31.5q-13 -26 -37 -48t-65 -22q-6 0 -13 1t-14 3q-9 2 -17.5 4.5t-15.5 5.5l-29 14
q-29 12 -39.5 16t-16.5 5h-4h-4q-17 0 -28.5 -9.5t-16.5 -20.5q-2 -5 -3 -9t-1 -8v1z" />
    <glyph glyph-name="scaron" unicode="&#xd2;" 
 />
    <glyph glyph-name="Lslash" unicode="&#xd3;" horiz-adv-x="778" 
d="M389 691q145 -1 249.5 -96.5t104.5 -259.5q0 -157 -100 -255.5t-254 -98.5t-254 98.5t-100 255.5q0 164 104.5 259.5t249.5 95.5v1zM389 658q-90 -1 -128.5 -81.5t-45.5 -176.5q-2 -16 -2.5 -32.5t-0.5 -32.5q0 -25 2 -64t10 -81q13 -66 49.5 -121.5t115.5 -55.5
t115.5 55.5t49.5 121.5q8 42 10 81t2 64q0 16 -0.5 32.5t-2.5 32.5q-7 96 -45.5 176.5t-128.5 80.5v1zM507 826l-142 -88h-56l137 157q17 19 31 23t21 4q4 0 8.5 -0.5t9.5 -2.5q12 -3 21.5 -12.5t9.5 -28.5q0 -16 -7 -26t-19 -18q-3 -2 -6.5 -4.5t-7.5 -4.5v1z" />
    <glyph glyph-name="lslash" unicode="&#xd4;" horiz-adv-x="778" 
d="M389 691q145 -1 249.5 -96.5t104.5 -259.5q0 -157 -100 -255.5t-254 -98.5t-254 98.5t-100 255.5q0 164 104.5 259.5t249.5 95.5v1zM389 658q-90 -1 -128.5 -81.5t-45.5 -176.5q-2 -16 -2.5 -32.5t-0.5 -32.5q0 -25 2 -64t10 -81q13 -66 49.5 -121.5t115.5 -55.5
t115.5 55.5t49.5 121.5q8 42 10 81t2 64q0 16 -0.5 32.5t-2.5 32.5q-7 96 -45.5 176.5t-128.5 80.5v1zM501 738l-112 98l-112 -98h-56l122 176h92l123 -176h-57v0z" />
    <glyph glyph-name="guilsinglright" unicode="&#xd5;" horiz-adv-x="778" 
d="M389 691q145 -1 249.5 -96.5t104.5 -259.5q0 -157 -100 -255.5t-254 -98.5t-254 98.5t-100 255.5q0 164 104.5 259.5t249.5 95.5v1zM389 658q-90 -1 -128.5 -81.5t-45.5 -176.5q-2 -16 -2.5 -32.5t-0.5 -32.5q0 -25 2 -64t10 -81q13 -66 49.5 -121.5t115.5 -55.5
t115.5 55.5t49.5 121.5q8 42 10 81t2 64q0 16 -0.5 32.5t-2.5 32.5q-7 96 -45.5 176.5t-128.5 80.5v1zM249 759h-42q2 9 5.5 24t10.5 31q12 26 35.5 47.5t66.5 21.5h5.5t5.5 -1q10 -1 19.5 -3.5t17.5 -5.5t14 -5.5t9 -3.5l40 -17q14 -7 20 -9.5t10 -3.5h4.5h5.5
q19 0 29.5 9.5t15.5 20.5q3 5 5 10t3 9l43 1q-3 -11 -7.5 -26.5t-11.5 -31.5q-13 -26 -37 -48t-65 -22q-6 0 -13 1t-14 3q-9 2 -17.5 4.5t-15.5 5.5l-29 14q-29 12 -39.5 16t-16.5 5h-4h-4q-17 0 -28.5 -9.5t-16.5 -20.5q-2 -5 -3 -9t-1 -8v1z" />
    <glyph glyph-name="Odieresis" unicode="&#xd6;" horiz-adv-x="778" 
d="M389 691q145 -1 249.5 -96.5t104.5 -259.5q0 -157 -100 -255.5t-254 -98.5t-254 98.5t-100 255.5q0 164 104.5 259.5t249.5 95.5v1zM389 658q-90 -1 -128.5 -81.5t-45.5 -176.5q-2 -16 -2.5 -32.5t-0.5 -32.5q0 -25 2 -64t10 -81q13 -66 49.5 -121.5t115.5 -55.5
t115.5 55.5t49.5 121.5q8 42 10 81t2 64q0 16 -0.5 32.5t-2.5 32.5q-7 96 -45.5 176.5t-128.5 80.5v1zM221 812q0 4 1 10t4 12q6 16 20.5 29t37.5 13q26 0 45 -19.5t19 -46.5q0 -26 -18 -45t-46 -19q-23 0 -37.5 13t-20.5 29q-3 6 -4 12t-1 11v1zM431 812q0 4 1 10t4 12
q6 16 20 29t37 13q26 0 45.5 -19.5t19.5 -46.5q0 -26 -18.5 -45t-46.5 -19q-23 0 -37.5 13t-20.5 29q-2 6 -3 12t-1 11v1z" />
    <glyph glyph-name="multiply" unicode="&#xd7;" 
 />
    <glyph glyph-name="plusminus" unicode="&#xd8;" horiz-adv-x="778" 
d="M685 737l-78 -115q62 -47 99 -119.5t37 -167.5q0 -157 -100 -255.5t-254 -98.5q-53 0 -100 12t-87 36l-71 -103h-50l86 126q-61 46 -96.5 119t-35.5 164q0 164 104.5 259.5t249.5 95.5q50 0 96.5 -12t86.5 -35l63 94h50v0zM540 524l-287 -420q19 -40 51.5 -65.5
t84.5 -25.5q79 0 115.5 55.5t49.5 121.5q8 42 10 81t2 64q0 15 -0.5 30.5t-1.5 30.5q-3 33 -8.5 65.5t-15.5 61.5v1zM234 151l286 418q-20 40 -52 64t-79 24q-90 0 -128.5 -80.5t-45.5 -176.5q-2 -16 -2.5 -32.5t-0.5 -32.5q0 -26 2 -66t11 -83l4 -18t5 -18v1z" />
    <glyph glyph-name="Thorn" unicode="&#xd9;" horiz-adv-x="722" 
d="M701 676v-25q-41 -7 -59.5 -21.5t-18.5 -64.5v-318q0 -19 -2 -40t-6 -43q-6 -31 -17.5 -61t-30.5 -50q-22 -23 -51 -38t-60 -23q-23 -6 -45 -8.5t-41 -2.5q-21 0 -54.5 3t-69.5 16q-20 6 -40.5 16.5t-38.5 26.5q-1 1 -2.5 2t-2.5 2q-30 28 -47 63.5t-17 113.5v335
q0 59 -18 72.5t-56 17.5q-2 0 -4 0.5t-4 0.5v26h338v-25q-1 -1 -2 -1h-2q-48 -2 -70.5 -14.5t-22.5 -77.5v-333q0 -17 1 -39.5t6 -46.5q10 -42 39.5 -76t97.5 -34q83 0 120 38t49 84q6 27 7.5 52t1.5 43v306q0 45 -16.5 70t-81.5 28v26h220v0zM468 738h-56l-142 88
q-19 10 -29.5 22.5t-10.5 29.5q0 4 1 8.5t4 9.5q4 10 14.5 18t29.5 8q14 0 26.5 -7.5t21.5 -15.5q1 -2 2 -3l2 -2l137 -156v0z" />
    <glyph glyph-name="Eth" unicode="&#xda;" horiz-adv-x="722" 
d="M701 676v-25q-41 -7 -59.5 -21.5t-18.5 -64.5v-318q0 -19 -2 -40t-6 -43q-6 -31 -17.5 -61t-30.5 -50q-22 -23 -51 -38t-60 -23q-23 -6 -45 -8.5t-41 -2.5q-21 0 -54.5 3t-69.5 16q-20 6 -40.5 16.5t-38.5 26.5q-1 1 -2.5 2t-2.5 2q-30 28 -47 63.5t-17 113.5v335
q0 59 -18 72.5t-56 17.5q-2 0 -4 0.5t-4 0.5v26h338v-25q-1 -1 -2 -1h-2q-48 -2 -70.5 -14.5t-22.5 -77.5v-333q0 -17 1 -39.5t6 -46.5q10 -42 39.5 -76t97.5 -34q83 0 120 38t49 84q6 27 7.5 52t1.5 43v306q0 45 -16.5 70t-81.5 28v26h220v0zM506 826l-142 -88h-56l137 157
q17 19 31 23t21 4q4 0 8.5 -0.5t9.5 -2.5q12 -3 21.5 -12.5t9.5 -28.5q0 -16 -7 -26t-19 -18q-3 -2 -6.5 -4.5t-7.5 -4.5v1z" />
    <glyph glyph-name="eth" unicode="&#xdb;" horiz-adv-x="722" 
d="M701 676v-25q-41 -7 -59.5 -21.5t-18.5 -64.5v-318q0 -19 -2 -40t-6 -43q-6 -31 -17.5 -61t-30.5 -50q-22 -23 -51 -38t-60 -23q-23 -6 -45 -8.5t-41 -2.5q-21 0 -54.5 3t-69.5 16q-20 6 -40.5 16.5t-38.5 26.5q-1 1 -2.5 2t-2.5 2q-30 28 -47 63.5t-17 113.5v335
q0 59 -18 72.5t-56 17.5q-2 0 -4 0.5t-4 0.5v26h338v-25q-1 -1 -2 -1h-2q-48 -2 -70.5 -14.5t-22.5 -77.5v-333q0 -17 1 -39.5t6 -46.5q10 -42 39.5 -76t97.5 -34q83 0 120 38t49 84q6 27 7.5 52t1.5 43v306q0 45 -16.5 70t-81.5 28v26h220v0zM500 738l-112 98l-112 -98h-56
l122 176h92l123 -176h-57v0z" />
    <glyph glyph-name="Udieresis" unicode="&#xdc;" horiz-adv-x="722" 
d="M701 676v-25q-41 -7 -59.5 -21.5t-18.5 -64.5v-318q0 -19 -2 -40t-6 -43q-6 -31 -17.5 -61t-30.5 -50q-22 -23 -51 -38t-60 -23q-23 -6 -45 -8.5t-41 -2.5q-21 0 -54.5 3t-69.5 16q-20 6 -40.5 16.5t-38.5 26.5q-1 1 -2.5 2t-2.5 2q-30 28 -47 63.5t-17 113.5v335
q0 59 -18 72.5t-56 17.5q-2 0 -4 0.5t-4 0.5v26h338v-25q-1 -1 -2 -1h-2q-48 -2 -70.5 -14.5t-22.5 -77.5v-333q0 -17 1 -39.5t6 -46.5q10 -42 39.5 -76t97.5 -34q83 0 120 38t49 84q6 27 7.5 52t1.5 43v306q0 45 -16.5 70t-81.5 28v26h220v0zM220 812q0 4 1 10t4 12
q6 16 20.5 29t37.5 13q26 0 45 -19.5t19 -46.5q0 -26 -18 -45t-46 -19q-23 0 -37.5 13t-20.5 29q-3 6 -4 12t-1 11v1zM430 812q0 4 1 10t4 12q6 16 20 29t37 13q26 0 45.5 -19.5t19.5 -46.5q0 -26 -18.5 -45t-46.5 -19q-23 0 -37.5 13t-20.5 29q-2 6 -3 12t-1 11v1z" />
    <glyph glyph-name="Yacute" unicode="&#xdd;" 
 />
    <glyph glyph-name="glyph236" unicode="&#xde;" horiz-adv-x="611" 
d="M16 0v25q23 3 34 5t16 4q2 0 3.5 1t2.5 2q1 0 1 0.5t1 0.5l2 2t3 2q8 7 14.5 22t6.5 52v443q0 60 -21 73.5t-59 17.5h-2h-2v26h334v-25q-5 -2 -9.5 -2.5t-8.5 -1.5q-41 -6 -55.5 -20.5t-14.5 -69.5v-11h66q148 -1 204 -47.5t65 -102.5q2 -9 2.5 -17.5t0.5 -17.5
q0 -15 -4 -38t-18 -47q-11 -18 -27.5 -35t-41.5 -31q-7 -4 -13.5 -7t-12.5 -6q-40 -17 -88 -20.5t-133 -4.5v-55q0 -57 15 -71t57 -20q4 0 8 -0.5t8 -1.5v-24h-334v0zM262 476v-268q91 -2 128.5 27.5t37.5 122.5q0 86 -28 119t-90 33q-25 0 -36 -9t-12 -26v1z" />
    <glyph glyph-name="germandbls" unicode="&#xdf;" horiz-adv-x="556" 
d="M19 0v24q28 4 39.5 14t11.5 48v421q0 78 57.5 130.5t144.5 52.5q82 0 126.5 -29t62.5 -64q8 -16 11.5 -31t3.5 -27q0 -60 -43 -96.5t-110 -49.5v-1q101 -27 147.5 -73.5t46.5 -129.5q0 -81 -45 -130.5t-99 -64.5q-11 -3 -22 -4.5t-22 -1.5q-14 0 -27 3t-25 7q-4 1 -7 2
l-6 2l14 35q10 -8 14.5 -10.5t8.5 -3.5q2 -1 4.5 -1h5.5q32 0 46 33t14 139q0 116 -26 146t-76 32v35q22 -1 35.5 4t20.5 19q8 15 11 41t3 68q0 74 -20 98.5t-51 24.5q-27 0 -39 -14t-16 -31q-2 -9 -3 -17.5t-1 -14.5v-585h-190v0z" />
    <glyph glyph-name="agrave" unicode="&#xe0;" horiz-adv-x="500" 
d="M473 64l15 -21q-21 -26 -48.5 -41.5t-61.5 -15.5q-39 0 -55.5 14.5t-22.5 31.5q-2 6 -3.5 12t-2.5 11q-5 -5 -9.5 -9t-9.5 -8q-45 -37 -84.5 -44.5t-55.5 -7.5q-7 0 -13.5 1t-13.5 2q-31 8 -57 32.5t-26 70.5q0 75 74.5 113t175.5 68q5 2 9.5 3.5t9.5 2.5v74q0 37 -16 62
t-72 25q-22 0 -37.5 -8.5t-19.5 -19.5q-1 -2 -1.5 -4t-0.5 -4q0 -5 2 -9t4 -7t4.5 -5.5t4.5 -5.5q6 -7 10.5 -16.5t4.5 -24.5q0 -5 -1.5 -11t-4.5 -12q-7 -13 -21 -23t-40 -10q-4 0 -13 0.5t-19 5.5q-13 5 -23.5 19t-10.5 43q0 47 47 85.5t140 38.5q83 0 141.5 -33
t58.5 -104v-260v-6t1 -7q2 -5 6.5 -9t14.5 -4q3 0 5.5 1t4.5 3l10 11v0zM293 100v145q-7 -3 -23.5 -8t-35.5 -16q-23 -14 -43 -37.5t-20 -60.5v-6t1 -5q2 -21 14 -38.5t36 -17.5q18 0 32 8.5t25 18.5q4 4 7.5 8.5t6.5 7.5v1zM323 528h-56l-142 88q-19 10 -29.5 22.5
t-10.5 29.5q0 4 1 8.5t4 9.5q4 10 14.5 18t29.5 8q14 0 26.5 -7.5t21.5 -15.5q1 -2 2 -3l2 -2l137 -156v0z" />
    <glyph glyph-name="aacute" unicode="&#xe1;" horiz-adv-x="500" 
d="M473 64l15 -21q-21 -26 -48.5 -41.5t-61.5 -15.5q-39 0 -55.5 14.5t-22.5 31.5q-2 6 -3.5 12t-2.5 11q-5 -5 -9.5 -9t-9.5 -8q-45 -37 -84.5 -44.5t-55.5 -7.5q-7 0 -13.5 1t-13.5 2q-31 8 -57 32.5t-26 70.5q0 75 74.5 113t175.5 68q5 2 9.5 3.5t9.5 2.5v74q0 37 -16 62
t-72 25q-22 0 -37.5 -8.5t-19.5 -19.5q-1 -2 -1.5 -4t-0.5 -4q0 -5 2 -9t4 -7t4.5 -5.5t4.5 -5.5q6 -7 10.5 -16.5t4.5 -24.5q0 -5 -1.5 -11t-4.5 -12q-7 -13 -21 -23t-40 -10q-4 0 -13 0.5t-19 5.5q-13 5 -23.5 19t-10.5 43q0 47 47 85.5t140 38.5q83 0 141.5 -33
t58.5 -104v-260v-6t1 -7q2 -5 6.5 -9t14.5 -4q3 0 5.5 1t4.5 3l10 11v0zM293 100v145q-7 -3 -23.5 -8t-35.5 -16q-23 -14 -43 -37.5t-20 -60.5v-6t1 -5q2 -21 14 -38.5t36 -17.5q18 0 32 8.5t25 18.5q4 4 7.5 8.5t6.5 7.5v1zM361 616l-142 -88h-56l137 157q17 19 31 23t21 4
q4 0 8.5 -0.5t9.5 -2.5q12 -3 21.5 -12.5t9.5 -28.5q0 -16 -7 -26t-19 -18q-3 -2 -6.5 -4.5t-7.5 -4.5v1z" />
    <glyph glyph-name="acircumflex" unicode="&#xe2;" horiz-adv-x="500" 
d="M473 64l15 -21q-21 -26 -48.5 -41.5t-61.5 -15.5q-39 0 -55.5 14.5t-22.5 31.5q-2 6 -3.5 12t-2.5 11q-5 -5 -9.5 -9t-9.5 -8q-45 -37 -84.5 -44.5t-55.5 -7.5q-7 0 -13.5 1t-13.5 2q-31 8 -57 32.5t-26 70.5q0 75 74.5 113t175.5 68q5 2 9.5 3.5t9.5 2.5v74q0 37 -16 62
t-72 25q-22 0 -37.5 -8.5t-19.5 -19.5q-1 -2 -1.5 -4t-0.5 -4q0 -5 2 -9t4 -7t4.5 -5.5t4.5 -5.5q6 -7 10.5 -16.5t4.5 -24.5q0 -5 -1.5 -11t-4.5 -12q-7 -13 -21 -23t-40 -10q-4 0 -13 0.5t-19 5.5q-13 5 -23.5 19t-10.5 43q0 47 47 85.5t140 38.5q83 0 141.5 -33
t58.5 -104v-260v-6t1 -7q2 -5 6.5 -9t14.5 -4q3 0 5.5 1t4.5 3l10 11v0zM293 100v145q-7 -3 -23.5 -8t-35.5 -16q-23 -14 -43 -37.5t-20 -60.5v-6t1 -5q2 -21 14 -38.5t36 -17.5q18 0 32 8.5t25 18.5q4 4 7.5 8.5t6.5 7.5v1zM355 528l-112 98l-112 -98h-56l122 176h92
l123 -176h-57v0z" />
    <glyph glyph-name="atilde" unicode="&#xe3;" horiz-adv-x="500" 
d="M473 64l15 -21q-21 -26 -48.5 -41.5t-61.5 -15.5q-39 0 -55.5 14.5t-22.5 31.5q-2 6 -3.5 12t-2.5 11q-5 -5 -9.5 -9t-9.5 -8q-45 -37 -84.5 -44.5t-55.5 -7.5q-7 0 -13.5 1t-13.5 2q-31 8 -57 32.5t-26 70.5q0 75 74.5 113t175.5 68q5 2 9.5 3.5t9.5 2.5v74q0 37 -16 62
t-72 25q-22 0 -37.5 -8.5t-19.5 -19.5q-1 -2 -1.5 -4t-0.5 -4q0 -5 2 -9t4 -7t4.5 -5.5t4.5 -5.5q6 -7 10.5 -16.5t4.5 -24.5q0 -5 -1.5 -11t-4.5 -12q-7 -13 -21 -23t-40 -10q-4 0 -13 0.5t-19 5.5q-13 5 -23.5 19t-10.5 43q0 47 47 85.5t140 38.5q83 0 141.5 -33
t58.5 -104v-260v-6t1 -7q2 -5 6.5 -9t14.5 -4q3 0 5.5 1t4.5 3l10 11v0zM293 100v145q-7 -3 -23.5 -8t-35.5 -16q-23 -14 -43 -37.5t-20 -60.5v-6t1 -5q2 -21 14 -38.5t36 -17.5q18 0 32 8.5t25 18.5q4 4 7.5 8.5t6.5 7.5v1zM103 549h-42q2 9 5.5 24t10.5 31
q12 26 35.5 47.5t66.5 21.5h5.5t5.5 -1q10 -1 19.5 -3.5t17.5 -5.5t14 -5.5t9 -3.5l40 -17q14 -7 20 -9.5t10 -3.5h4.5h5.5q19 0 29.5 9.5t15.5 20.5q3 5 5 10t3 9l43 1q-3 -11 -7.5 -26.5t-11.5 -31.5q-13 -26 -37 -48t-65 -22q-6 0 -13 1t-14 3q-9 2 -17.5 4.5t-15.5 5.5
l-29 14q-29 12 -39.5 16t-16.5 5h-4h-4q-17 0 -28.5 -9.5t-16.5 -20.5q-2 -5 -3 -9t-1 -8v1z" />
    <glyph glyph-name="adieresis" unicode="&#xe4;" horiz-adv-x="500" 
d="M473 64l15 -21q-21 -26 -48.5 -41.5t-61.5 -15.5q-39 0 -55.5 14.5t-22.5 31.5q-2 6 -3.5 12t-2.5 11q-5 -5 -9.5 -9t-9.5 -8q-45 -37 -84.5 -44.5t-55.5 -7.5q-7 0 -13.5 1t-13.5 2q-31 8 -57 32.5t-26 70.5q0 75 74.5 113t175.5 68q5 2 9.5 3.5t9.5 2.5v74q0 37 -16 62
t-72 25q-22 0 -37.5 -8.5t-19.5 -19.5q-1 -2 -1.5 -4t-0.5 -4q0 -5 2 -9t4 -7t4.5 -5.5t4.5 -5.5q6 -7 10.5 -16.5t4.5 -24.5q0 -5 -1.5 -11t-4.5 -12q-7 -13 -21 -23t-40 -10q-4 0 -13 0.5t-19 5.5q-13 5 -23.5 19t-10.5 43q0 47 47 85.5t140 38.5q83 0 141.5 -33
t58.5 -104v-260v-6t1 -7q2 -5 6.5 -9t14.5 -4q3 0 5.5 1t4.5 3l10 11v0zM293 100v145q-7 -3 -23.5 -8t-35.5 -16q-23 -14 -43 -37.5t-20 -60.5v-6t1 -5q2 -21 14 -38.5t36 -17.5q18 0 32 8.5t25 18.5q4 4 7.5 8.5t6.5 7.5v1zM75 602q0 4 1 10t4 12q6 16 20.5 29t37.5 13
q26 0 45 -19.5t19 -46.5q0 -26 -18 -45t-46 -19q-23 0 -37.5 13t-20.5 29q-3 6 -4 12t-1 11v1zM285 602q0 4 1 10t4 12q6 16 20 29t37 13q26 0 45.5 -19.5t19.5 -46.5q0 -26 -18.5 -45t-46.5 -19q-23 0 -37.5 13t-20.5 29q-2 6 -3 12t-1 11v1z" />
    <glyph glyph-name="aring" unicode="&#xe5;" horiz-adv-x="500" 
d="M473 64l15 -21q-21 -26 -48.5 -41.5t-61.5 -15.5q-39 0 -55.5 14.5t-22.5 31.5q-2 6 -3.5 12t-2.5 11q-5 -5 -9.5 -9t-9.5 -8q-45 -37 -84.5 -44.5t-55.5 -7.5q-7 0 -13.5 1t-13.5 2q-31 8 -57 32.5t-26 70.5q0 75 74.5 113t175.5 68q5 2 9.5 3.5t9.5 2.5v74q0 37 -16 62
t-72 25q-22 0 -37.5 -8.5t-19.5 -19.5q-1 -2 -1.5 -4t-0.5 -4q0 -5 2 -9t4 -7t4.5 -5.5t4.5 -5.5q6 -7 10.5 -16.5t4.5 -24.5q0 -5 -1.5 -11t-4.5 -12q-7 -13 -21 -23t-40 -10q-4 0 -13 0.5t-19 5.5q-13 5 -23.5 19t-10.5 43q0 47 47 85.5t140 38.5q83 0 141.5 -33
t58.5 -104v-260v-6t1 -7q2 -5 6.5 -9t14.5 -4q3 0 5.5 1t4.5 3l10 11v0zM293 100v145q-7 -3 -23.5 -8t-35.5 -16q-23 -14 -43 -37.5t-20 -60.5v-6t1 -5q2 -21 14 -38.5t36 -17.5q18 0 32 8.5t25 18.5q4 4 7.5 8.5t6.5 7.5v1zM137 633q0 43 32 74.5t75 31.5q44 0 75 -31.5
t31 -75.5t-31 -75t-75 -31q-43 0 -75 30.5t-32 75.5v1zM302 633q0 22 -17.5 40t-42.5 18q-20 0 -33 -11.5t-19 -25.5q-3 -6 -4 -11.5t-1 -10.5t1 -10t3 -11q6 -14 19 -25.5t34 -11.5q26 0 43 17t17 41v1z" />
    <glyph glyph-name="Otilde" unicode="&#xe6;" horiz-adv-x="722" 
d="M672 128l21 -15q-40 -68 -91 -95t-113 -27q-17 0 -40 2t-48 15q-17 9 -33.5 25t-30.5 41l-6 -5q-6 -7 -13 -13.5t-15 -13.5q-26 -21 -64 -38.5t-87 -17.5q-57 0 -88 26t-31 78q0 56 34 88t103 58q26 10 57.5 20.5t68.5 22.5v81q0 6 -0.5 14t-1.5 16q-4 19 -20 34.5
t-58 15.5h-5.5t-5.5 -1q-20 -2 -36 -10.5t-16 -22.5q0 -7 2.5 -11.5t6.5 -8.5l3 -3l3 -3q5 -6 9.5 -14.5t4.5 -24.5q0 -30 -17 -44t-51 -14q-3 0 -6.5 0.5t-6.5 0.5q-19 4 -35 19.5t-16 43.5q0 51 50 88t125 37q57 0 86.5 -11t45.5 -25q5 -3 9 -7l8 -8q20 20 50.5 35.5
t78.5 15.5q12 0 25 -1.5t26 -5.5q51 -13 93 -59.5t41 -141.5v-4v-4v-5v-4l-254 1v-23q0 -14 1 -33.5t5 -40.5q7 -34 30 -62.5t75 -28.5q39 0 64.5 13.5t41.5 29.5q6 6 11.5 12.5t9.5 11.5v1zM296 81v167q-5 -3 -10 -4.5t-11 -4.5q-37 -14 -67.5 -40t-30.5 -79q0 -6 0.5 -12
t1.5 -13q4 -17 15 -32t36 -15h2.5h2.5q13 0 27 5.5t34 26.5v1zM434 285h133v33q0 66 -13 95t-52 29t-52 -34t-15 -74q-1 -13 -1 -25.5v-24.5v1z" />
    <glyph glyph-name="ccedilla" unicode="&#xe7;" horiz-adv-x="444" 
d="M185 -96l43 96h42l-28 -64q2 1 4 1.5t4 0.5q5 2 10.5 2.5t12.5 0.5q38 0 64 -16.5t26 -53.5q0 -38 -23.5 -56.5t-51.5 -25.5q-17 -4 -33 -5.5t-27 -1.5q-9 0 -34.5 3t-56.5 15l16 37q4 -1 7.5 -2.5t7.5 -3.5q10 -3 20.5 -5.5t23.5 -2.5q4 0 11.5 0.5t16.5 2.5
q11 3 20.5 11.5t9.5 26.5q0 19 -13 27.5t-33 8.5q-8 0 -14 -1t-11 -2l-1 -0.5t-2 -0.5l-11 8v0zM412 109l18 -18q-34 -50 -83 -77.5t-108 -27.5q-96 0 -155 68t-59 160q0 110 49.5 167.5t109.5 77.5q20 7 39.5 10t37.5 3q7 0 14.5 -0.5t14.5 -1.5q47 -6 86.5 -33t39.5 -74
q0 -26 -11 -39t-23 -19q-12 -4 -21.5 -5t-12.5 -1q-42 0 -49 31.5t-7 71.5q0 16 -8 24.5t-18 11.5q-4 2 -8 2.5t-7 0.5q-36 0 -53.5 -29t-24.5 -63q-4 -22 -5.5 -42.5t-1.5 -33.5q0 -105 40.5 -163t98.5 -58q40 0 62.5 16t39.5 35q2 1 3 2.5t2 2.5v1z" />
    <glyph glyph-name="egrave" unicode="&#xe8;" horiz-adv-x="444" 
d="M402 125l24 -14q-7 -11 -13.5 -20.5t-13.5 -17.5q-39 -49 -79.5 -68t-91.5 -19h-1.5h-1.5q-75 1 -137.5 59t-62.5 185q0 111 60 176.5t146 65.5q77 0 116 -38t55 -84q11 -31 14.5 -60t4.5 -46l-252 1q0 -10 1 -19.5t2 -18.5q6 -56 31 -103t86 -47q30 0 52 12.5t37 27.5
q8 8 13.5 14.5t10.5 12.5v1zM164 282h134v4.5v5.5q-1 10 -1 21.5t-1 22.5q-1 16 -2.5 31t-4.5 27q0 2 -1 3.5t-1 3.5q-5 15 -17 27.5t-35 12.5q-28 0 -49.5 -28t-21.5 -132v1zM308 528h-56l-142 88q-19 10 -29.5 22.5t-10.5 29.5q0 4 1 8.5t4 9.5q4 10 14.5 18t29.5 8
q14 0 26.5 -7.5t21.5 -15.5q1 -2 2 -3l2 -2l137 -156v0z" />
    <glyph glyph-name="eacute" unicode="&#xe9;" horiz-adv-x="444" 
d="M402 125l24 -14q-7 -11 -13.5 -20.5t-13.5 -17.5q-39 -49 -79.5 -68t-91.5 -19h-1.5h-1.5q-75 1 -137.5 59t-62.5 185q0 111 60 176.5t146 65.5q77 0 116 -38t55 -84q11 -31 14.5 -60t4.5 -46l-252 1q0 -10 1 -19.5t2 -18.5q6 -56 31 -103t86 -47q30 0 52 12.5t37 27.5
q8 8 13.5 14.5t10.5 12.5v1zM164 282h134v4.5v5.5q-1 10 -1 21.5t-1 22.5q-1 16 -2.5 31t-4.5 27q0 2 -1 3.5t-1 3.5q-5 15 -17 27.5t-35 12.5q-28 0 -49.5 -28t-21.5 -132v1zM346 616l-142 -88h-56l137 157q17 19 31 23t21 4q4 0 8.5 -0.5t9.5 -2.5q12 -3 21.5 -12.5
t9.5 -28.5q0 -16 -7 -26t-19 -18q-3 -2 -6.5 -4.5t-7.5 -4.5v1z" />
    <glyph glyph-name="ecircumflex" unicode="&#xea;" horiz-adv-x="444" 
d="M402 125l24 -14q-7 -11 -13.5 -20.5t-13.5 -17.5q-39 -49 -79.5 -68t-91.5 -19h-1.5h-1.5q-75 1 -137.5 59t-62.5 185q0 111 60 176.5t146 65.5q77 0 116 -38t55 -84q11 -31 14.5 -60t4.5 -46l-252 1q0 -10 1 -19.5t2 -18.5q6 -56 31 -103t86 -47q30 0 52 12.5t37 27.5
q8 8 13.5 14.5t10.5 12.5v1zM164 282h134v4.5v5.5q-1 10 -1 21.5t-1 22.5q-1 16 -2.5 31t-4.5 27q0 2 -1 3.5t-1 3.5q-5 15 -17 27.5t-35 12.5q-28 0 -49.5 -28t-21.5 -132v1zM340 528l-112 98l-112 -98h-56l122 176h92l123 -176h-57v0z" />
    <glyph glyph-name="edieresis" unicode="&#xeb;" horiz-adv-x="444" 
d="M402 125l24 -14q-7 -11 -13.5 -20.5t-13.5 -17.5q-39 -49 -79.5 -68t-91.5 -19h-1.5h-1.5q-75 1 -137.5 59t-62.5 185q0 111 60 176.5t146 65.5q77 0 116 -38t55 -84q11 -31 14.5 -60t4.5 -46l-252 1q0 -10 1 -19.5t2 -18.5q6 -56 31 -103t86 -47q30 0 52 12.5t37 27.5
q8 8 13.5 14.5t10.5 12.5v1zM164 282h134v4.5v5.5q-1 10 -1 21.5t-1 22.5q-1 16 -2.5 31t-4.5 27q0 2 -1 3.5t-1 3.5q-5 15 -17 27.5t-35 12.5q-28 0 -49.5 -28t-21.5 -132v1zM60 602q0 4 1 10t4 12q6 16 20.5 29t37.5 13q26 0 45 -19.5t19 -46.5q0 -26 -18 -45t-46 -19
q-23 0 -37.5 13t-20.5 29q-3 6 -4 12t-1 11v1zM270 602q0 4 1 10t4 12q6 16 20 29t37 13q26 0 45.5 -19.5t19.5 -46.5q0 -26 -18.5 -45t-46.5 -19q-23 0 -37.5 13t-20.5 29q-2 6 -3 12t-1 11v1z" />
    <glyph glyph-name="igrave" unicode="&#xec;" horiz-adv-x="278" 
d="M255 24v-24h-239v24q3 0 6 0.5t6 1.5q21 5 31 15t10 42v295q0 33 -12 43t-41 15v25h192v-380q0 -24 9 -39.5t38 -18.5v1zM212 528h-56l-142 88q-18 10 -28.5 22.5t-10.5 29.5q0 4 1 8.5t4 9.5q4 10 14 18t29 8q14 0 26.5 -7.5t21.5 -15.5q1 -2 2 -3l2 -2l137 -156v0z" />
    <glyph glyph-name="iacute" unicode="&#xed;" horiz-adv-x="278" 
d="M255 24v-24h-239v24q3 0 6 0.5t6 1.5q21 5 31 15t10 42v295q0 33 -12 43t-41 15v25h192v-380q0 -24 9 -39.5t38 -18.5v1zM250 616l-142 -88h-56l137 157q17 19 31 23t21 4q4 0 8.5 -0.5t9.5 -2.5q12 -3 21.5 -12.5t9.5 -28.5q0 -16 -7 -26t-19 -18q-3 -2 -6.5 -4.5
t-7.5 -4.5v1z" />
    <glyph glyph-name="icircumflex" unicode="&#xee;" horiz-adv-x="278" 
d="M255 24v-24h-239v24q3 0 6 0.5t6 1.5q21 5 31 15t10 42v295q0 33 -12 43t-41 15v25h192v-380q0 -24 9 -39.5t38 -18.5v1zM244 528l-112 98l-112 -98h-56l122 176h92l123 -176h-57v0z" />
    <glyph glyph-name="idieresis" unicode="&#xef;" horiz-adv-x="278" 
d="M255 24v-24h-239v24q3 0 6 0.5t6 1.5q21 5 31 15t10 42v295q0 33 -12 43t-41 15v25h192v-380q0 -24 9 -39.5t38 -18.5v1zM-36 602q1 4 2 10t4 12q6 16 20 29t37 13q26 0 45 -19.5t19 -46.5q0 -26 -18 -45t-46 -19q-23 0 -37 13t-20 29q-3 6 -4 12t-1 11zM174 602
q0 4 1 10t4 12q6 16 20 29t37 13q26 0 45.5 -19.5t19.5 -46.5q0 -26 -18.5 -45t-46.5 -19q-23 0 -37.5 13t-20.5 29q-2 6 -3 12t-1 11v1z" />
    <glyph glyph-name="glyph233" unicode="&#xf0;" horiz-adv-x="500" 
d="M256 574l-110 -56l-48 31l117 59q-25 18 -52 30.5t-54 20.5q-7 2 -13.5 3.5t-13.5 2.5l46 26q26 -3 55 -9t58 -17q12 -4 23.5 -9.5t23.5 -11.5l90 47l49 -30l-92 -47q60 -45 100.5 -122t40.5 -199q0 -153 -61.5 -230t-163.5 -77q-104 0 -165 72.5t-61 169.5t61 170.5
t165 73.5q25 0 48 -8.5t41 -32.5l2 4q-13 40 -35 75t-51 63v1zM329 229q0 115 -16 163.5t-62 48.5q-55 0 -67 -63.5t-12 -149.5q0 -81 10 -146.5t70 -65.5q52 0 64.5 58.5t12.5 153.5v1z" />
    <glyph glyph-name="ntilde" unicode="&#xf1;" horiz-adv-x="556" 
d="M539 24v-24h-235v24q25 1 36 14.5t11 41.5v243q0 6 -0.5 14.5t-1.5 18.5q-3 18 -14.5 33.5t-38.5 15.5h-4t-4 -1q-14 -2 -28 -10.5t-25 -18.5q-10 -9 -16 -17t-6 -11v-266v-8t1 -7q1 -15 10.5 -27.5t37.5 -15.5v-23h-241v24q2 -1 3.5 -0.5t3.5 0.5q23 5 34.5 15t11.5 44
v295q0 33 -11.5 43.5t-41.5 14.5v25h191v-72h2q4 6 11 16t18 20q17 18 45 32.5t68 14.5q10 0 20 -1.5t21 -4.5q35 -9 64 -40.5t29 -94.5v-250v-8v-8q1 -15 10 -28t39 -14v1zM138 549h-42q2 9 5.5 24t10.5 31q12 26 35.5 47.5t66.5 21.5h5.5t5.5 -1q10 -1 19.5 -3.5
t17.5 -5.5t14 -5.5t9 -3.5l40 -17q14 -7 20 -9.5t10 -3.5h4.5h5.5q19 0 29.5 9.5t15.5 20.5q3 5 5 10t3 9l43 1q-3 -11 -7.5 -26.5t-11.5 -31.5q-13 -26 -37 -48t-65 -22q-6 0 -13 1t-14 3q-9 2 -17.5 4.5t-15.5 5.5l-29 14q-29 12 -39.5 16t-16.5 5h-4h-4q-17 0 -28.5 -9.5
t-16.5 -20.5q-2 -5 -3 -9t-1 -8v1z" />
    <glyph glyph-name="ograve" unicode="&#xf2;" horiz-adv-x="500" 
d="M25 229q0 96 61 169.5t165 73.5q98 0 161.5 -70t63.5 -174q0 -100 -61.5 -171t-163.5 -71q-104 0 -165 72.5t-61 169.5v1zM172 229q0 -82 10 -147.5t70 -65.5q52 0 64.5 58.5t12.5 153.5q0 116 -16 164.5t-62 48.5q-55 0 -67 -63.5t-12 -149.5v1zM330 528h-56l-142 88
q-19 10 -29.5 22.5t-10.5 29.5q0 4 1 8.5t4 9.5q4 10 14.5 18t29.5 8q14 0 26.5 -7.5t21.5 -15.5q1 -2 2 -3l2 -2l137 -156v0z" />
    <glyph glyph-name="oacute" unicode="&#xf3;" horiz-adv-x="500" 
d="M25 229q0 96 61 169.5t165 73.5q98 0 161.5 -70t63.5 -174q0 -100 -61.5 -171t-163.5 -71q-104 0 -165 72.5t-61 169.5v1zM172 229q0 -82 10 -147.5t70 -65.5q52 0 64.5 58.5t12.5 153.5q0 116 -16 164.5t-62 48.5q-55 0 -67 -63.5t-12 -149.5v1zM368 616l-142 -88h-56
l137 157q17 19 31 23t21 4q4 0 8.5 -0.5t9.5 -2.5q12 -3 21.5 -12.5t9.5 -28.5q0 -16 -7 -26t-19 -18q-3 -2 -6.5 -4.5t-7.5 -4.5v1z" />
    <glyph glyph-name="ocircumflex" unicode="&#xf4;" horiz-adv-x="500" 
d="M25 229q0 96 61 169.5t165 73.5q98 0 161.5 -70t63.5 -174q0 -100 -61.5 -171t-163.5 -71q-104 0 -165 72.5t-61 169.5v1zM172 229q0 -82 10 -147.5t70 -65.5q52 0 64.5 58.5t12.5 153.5q0 116 -16 164.5t-62 48.5q-55 0 -67 -63.5t-12 -149.5v1zM362 528l-112 98
l-112 -98h-56l122 176h92l123 -176h-57v0z" />
    <glyph glyph-name="otilde" unicode="&#xf5;" horiz-adv-x="500" 
d="M25 229q0 96 61 169.5t165 73.5q98 0 161.5 -70t63.5 -174q0 -100 -61.5 -171t-163.5 -71q-104 0 -165 72.5t-61 169.5v1zM172 229q0 -82 10 -147.5t70 -65.5q52 0 64.5 58.5t12.5 153.5q0 116 -16 164.5t-62 48.5q-55 0 -67 -63.5t-12 -149.5v1zM110 549h-42q2 9 5.5 24
t10.5 31q12 26 35.5 47.5t66.5 21.5h5.5t5.5 -1q10 -1 19.5 -3.5t17.5 -5.5t14 -5.5t9 -3.5l40 -17q14 -7 20 -9.5t10 -3.5h4.5h5.5q19 0 29.5 9.5t15.5 20.5q3 5 5 10t3 9l43 1q-3 -11 -7.5 -26.5t-11.5 -31.5q-13 -26 -37 -48t-65 -22q-6 0 -13 1t-14 3q-9 2 -17.5 4.5
t-15.5 5.5l-29 14q-29 12 -39.5 16t-16.5 5h-4h-4q-17 0 -28.5 -9.5t-16.5 -20.5q-2 -5 -3 -9t-1 -8v1z" />
    <glyph glyph-name="odieresis" unicode="&#xf6;" horiz-adv-x="500" 
d="M25 229q0 96 61 169.5t165 73.5q98 0 161.5 -70t63.5 -174q0 -100 -61.5 -171t-163.5 -71q-104 0 -165 72.5t-61 169.5v1zM172 229q0 -82 10 -147.5t70 -65.5q52 0 64.5 58.5t12.5 153.5q0 116 -16 164.5t-62 48.5q-55 0 -67 -63.5t-12 -149.5v1zM82 602q0 4 1 10t4 12
q6 16 20.5 29t37.5 13q26 0 45 -19.5t19 -46.5q0 -26 -18 -45t-46 -19q-23 0 -37.5 13t-20.5 29q-3 6 -4 12t-1 11v1zM292 602q0 4 1 10t4 12q6 16 20 29t37 13q26 0 45.5 -19.5t19.5 -46.5q0 -26 -18.5 -45t-46.5 -19q-23 0 -37.5 13t-20.5 29q-2 6 -3 12t-1 11v1z" />
    <glyph glyph-name="Aacute" unicode="&#xf7;" 
 />
    <glyph glyph-name="OE" unicode="&#xf8;" horiz-adv-x="500" 
d="M461 549l-73 -123q41 -33 64.5 -84.5t23.5 -113.5q0 -100 -61.5 -171t-163.5 -71q-30 0 -57 7t-50 19l-63 -104h-47l76 128q-40 33 -62.5 83.5t-22.5 108.5q0 97 61 170.5t165 73.5q29 0 55.5 -6.5t48.5 -18.5l60 102h46v0zM325 321l-142 -241q8 -30 24 -47t45 -17
q52 0 64.5 58.5t12.5 153.5q0 27 -0.5 50t-1.5 42l-2 1v0zM175 143l141 239q-8 30 -23.5 44.5t-41.5 14.5q-55 0 -67 -63.5t-12 -149.5v-44t1 -42l2 1v0z" />
    <glyph glyph-name="ugrave" unicode="&#xf9;" horiz-adv-x="556" 
d="M537 43v-23q-37 -5 -62 -7.5t-43 -5.5q-14 -2 -25.5 -4t-22.5 -4q-9 -2 -19 -5t-22 -7v65q-6 -6 -13 -12t-16 -13q-20 -15 -48.5 -28t-64.5 -13q-76 0 -106 43t-30 96v253q0 29 -9 41t-40 17v25h188v-339v-12.5t1 -12.5q2 -17 13 -32t42 -15q23 0 40 10t30 23q3 2 6 5
l6 6v284q0 39 -17 47.5t-41 10.5h-2h-2v25h201v-360q0 -30 11 -44t45 -15v1zM351 528h-56l-142 88q-19 10 -29.5 22.5t-10.5 29.5q0 4 1 8.5t4 9.5q4 10 14.5 18t29.5 8q14 0 26.5 -7.5t21.5 -15.5q1 -2 2 -3l2 -2l137 -156v0z" />
    <glyph glyph-name="uacute" unicode="&#xfa;" horiz-adv-x="556" 
d="M537 43v-23q-37 -5 -62 -7.5t-43 -5.5q-14 -2 -25.5 -4t-22.5 -4q-9 -2 -19 -5t-22 -7v65q-6 -6 -13 -12t-16 -13q-20 -15 -48.5 -28t-64.5 -13q-76 0 -106 43t-30 96v253q0 29 -9 41t-40 17v25h188v-339v-12.5t1 -12.5q2 -17 13 -32t42 -15q23 0 40 10t30 23q3 2 6 5
l6 6v284q0 39 -17 47.5t-41 10.5h-2h-2v25h201v-360q0 -30 11 -44t45 -15v1zM389 616l-142 -88h-56l137 157q17 19 31 23t21 4q4 0 8.5 -0.5t9.5 -2.5q12 -3 21.5 -12.5t9.5 -28.5q0 -16 -7 -26t-19 -18q-3 -2 -6.5 -4.5t-7.5 -4.5v1z" />
    <glyph glyph-name="ucircumflex" unicode="&#xfb;" horiz-adv-x="556" 
d="M537 43v-23q-37 -5 -62 -7.5t-43 -5.5q-14 -2 -25.5 -4t-22.5 -4q-9 -2 -19 -5t-22 -7v65q-6 -6 -13 -12t-16 -13q-20 -15 -48.5 -28t-64.5 -13q-76 0 -106 43t-30 96v253q0 29 -9 41t-40 17v25h188v-339v-12.5t1 -12.5q2 -17 13 -32t42 -15q23 0 40 10t30 23q3 2 6 5
l6 6v284q0 39 -17 47.5t-41 10.5h-2h-2v25h201v-360q0 -30 11 -44t45 -15v1zM383 528l-112 98l-112 -98h-56l122 176h92l123 -176h-57v0z" />
    <glyph glyph-name="udieresis" unicode="&#xfc;" horiz-adv-x="556" 
d="M537 43v-23q-37 -5 -62 -7.5t-43 -5.5q-14 -2 -25.5 -4t-22.5 -4q-9 -2 -19 -5t-22 -7v65q-6 -6 -13 -12t-16 -13q-20 -15 -48.5 -28t-64.5 -13q-76 0 -106 43t-30 96v253q0 29 -9 41t-40 17v25h188v-339v-12.5t1 -12.5q2 -17 13 -32t42 -15q23 0 40 10t30 23q3 2 6 5
l6 6v284q0 39 -17 47.5t-41 10.5h-2h-2v25h201v-360q0 -30 11 -44t45 -15v1zM103 602q0 4 1 10t4 12q6 16 20.5 29t37.5 13q26 0 45 -19.5t19 -46.5q0 -26 -18 -45t-46 -19q-23 0 -37.5 13t-20.5 29q-3 6 -4 12t-1 11v1zM313 602q0 4 1 10t4 12q6 16 20 29t37 13
q26 0 45.5 -19.5t19.5 -46.5q0 -26 -18.5 -45t-46.5 -19q-23 0 -37.5 13t-20.5 29q-2 6 -3 12t-1 11v1z" />
    <glyph glyph-name="yacute" unicode="&#xfd;" 
 />
    <glyph glyph-name="glyph237" unicode="&#xfe;" horiz-adv-x="556" 
d="M292 -184v-21h-273v24q35 5 45.5 16t10.5 42v717q0 32 -12 41.5t-36 14.5q-2 0 -3.5 0.5t-3.5 0.5v25h194v-281h2q2 4 5 9.5t7 11.5q13 21 39.5 38.5t73.5 17.5q8 0 16.5 -1t17.5 -3q56 -12 102.5 -66.5t46.5 -160.5q0 -124 -57.5 -189t-134.5 -65q-35 0 -57.5 12
t-42.5 30q-5 4 -9 8.5t-9 8.5v-140q0 -59 21.5 -74t56.5 -16v0zM214 346v-243q9 -24 25 -38.5t32 -20.5l10 -2t10 -1q40 0 57.5 32.5t22.5 71.5q4 21 4.5 41.5t0.5 35.5v24t-1 25q-2 54 -17 99t-60 45q-19 0 -36 -11.5t-29 -25.5q-9 -10 -14 -19t-5 -14v1z" />
    <glyph glyph-name="Egrave" unicode="&#xff;" horiz-adv-x="500" 
d="M480 461v-24q0 -1 -0.5 -1h-0.5q-12 -2 -21.5 -5.5t-19.5 -17.5q-4 -5 -8 -13t-8 -19l-149 -396q-11 -28 -20 -52t-18 -43q-22 -49 -49.5 -72t-77.5 -23q-37 0 -58.5 17t-28.5 37q-3 6 -4 12t-1 12q0 4 1 12.5t6 18.5q6 13 19.5 23.5t39.5 10.5q23 0 35 -9.5t17 -21.5
q2 -6 3 -11t1 -9q0 -3 -0.5 -6t-0.5 -5q-1 -2 -1.5 -4t-0.5 -3t0.5 -3t1.5 -4q2 -4 5.5 -7t9.5 -3q16 0 28.5 14t21.5 31q6 11 10 21t6 16l18 53l-120 295q-2 5 -4.5 10.5t-4.5 11.5q-2 4 -4 9t-4 9q-14 31 -26 55.5t-15 31.5q-2 4 -4 7.5t-4 6.5q-5 5 -10 7.5t-14 3.5
q-2 1 -4.5 1.5t-5.5 0.5v25h250v-24q-1 -1 -1.5 -1h-1.5q-19 -2 -34.5 -6t-15.5 -21q0 -6 4.5 -18.5t9.5 -25.5q1 -1 1 -2t1 -2q1 -2 2 -4.5t2 -5.5l72 -184l68 192q3 8 5.5 15t3.5 14q1 4 1.5 7.5t0.5 7.5q0 21 -14 26.5t-30 6.5h-4.5h-4.5h-0.5h-1.5v25h151v0zM82 602
q0 4 1 10t4 12q6 16 20.5 29t37.5 13q26 0 45 -19.5t19 -46.5q0 -26 -18 -45t-46 -19q-23 0 -37.5 13t-20.5 29q-3 6 -4 12t-1 11v1zM292 602q0 4 1 10t4 12q6 16 20 29t37 13q26 0 45.5 -19.5t19.5 -46.5q0 -26 -18.5 -45t-46.5 -19q-23 0 -37.5 13t-20.5 29q-2 6 -3 12
t-1 11v1z" />
    <glyph glyph-name="Abreve" unicode="&#x102;" 
 />
    <glyph glyph-name="abreve" unicode="&#x103;" 
 />
    <glyph glyph-name="Aogonek" unicode="&#x104;" 
 />
    <glyph glyph-name="aogonek" unicode="&#x105;" 
 />
    <glyph glyph-name="Cacute" unicode="&#x106;" 
 />
    <glyph glyph-name="cacute" unicode="&#x107;" 
 />
    <glyph glyph-name="Ccaron" unicode="&#x10c;" 
 />
    <glyph glyph-name="ccaron" unicode="&#x10d;" 
 />
    <glyph glyph-name="Dcaron" unicode="&#x10e;" 
 />
    <glyph glyph-name="dcaron" unicode="&#x10f;" 
 />
    <glyph glyph-name="Dcroat" unicode="&#x110;" 
 />
    <glyph glyph-name="dcroat" unicode="&#x111;" 
 />
    <glyph glyph-name="Eogonek" unicode="&#x118;" 
 />
    <glyph glyph-name="eogonek" unicode="&#x119;" 
 />
    <glyph glyph-name="Ecaron" unicode="&#x11a;" 
 />
    <glyph glyph-name="ecaron" unicode="&#x11b;" 
 />
    <glyph glyph-name="Gbreve" unicode="&#x11e;" 
 />
    <glyph glyph-name="gbreve" unicode="&#x11f;" 
 />
    <glyph glyph-name="Idotaccent" unicode="&#x130;" 
 />
    <glyph glyph-name="thorn" unicode="&#x131;" horiz-adv-x="278" 
d="M255 24v-24h-239v24q3 0 6 0.5t6 1.5q21 5 31 15t10 42v295q0 33 -12 43t-41 15v25h192v-380q0 -24 9 -39.5t38 -18.5v1z" />
    <glyph glyph-name="Lacute" unicode="&#x139;" 
 />
    <glyph glyph-name="lacute" unicode="&#x13a;" 
 />
    <glyph glyph-name="Lcaron" unicode="&#x13d;" 
 />
    <glyph glyph-name="lcaron" unicode="&#x13e;" 
 />
    <glyph glyph-name="Ldot" unicode="&#x13f;" 
 />
    <glyph glyph-name="ldot" unicode="&#x140;" 
 />
    <glyph glyph-name="glyph225" unicode="&#x141;" horiz-adv-x="667" 
d="M638 227l-41 -227h-578v25q3 -1 5.5 -0.5t5.5 0.5q36 5 55.5 16t19.5 54v191l-81 -49v61l81 49v233q0 48 -25.5 58t-58.5 12h-0.5h-1.5v26h349v-25q-1 -1 -2.5 -1h-2.5q-50 -2 -73 -14.5t-23 -77.5v-116l123 76v-61l-123 -76v-294q0 -37 19.5 -47t69.5 -10
q113 0 166 55.5t87 140.5l29 1v0z" />
    <glyph glyph-name="glyph226" unicode="&#x142;" horiz-adv-x="278" 
d="M206 400v-316v-3.5v-2.5q1 -21 11.5 -38t37.5 -17v-23h-239v24q23 -1 34 11.5t15 28.5q1 5 1.5 10t0.5 9v228l-89 -72v50l89 72v233q0 3 -0.5 10.5t-4.5 16.5q-4 11 -14.5 20.5t-31.5 9.5v25h190v-226l97 80v-50l-97 -80v0z" />
    <glyph glyph-name="Nacute" unicode="&#x143;" 
 />
    <glyph glyph-name="nacute" unicode="&#x144;" 
 />
    <glyph glyph-name="Ncaron" unicode="&#x147;" 
 />
    <glyph glyph-name="ncaron" unicode="&#x148;" 
 />
    <glyph glyph-name="Ohungarumlaut" unicode="&#x150;" 
 />
    <glyph glyph-name="ohungarumlaut" unicode="&#x151;" 
 />
    <glyph glyph-name="fi" unicode="&#x152;" horiz-adv-x="1000" 
d="M981 211l-42 -211h-430q-31 0 -54 -0.5t-40 -1.5q-12 -1 -22 -1.5t-20 -1.5h-8h-8q-151 0 -243 89.5t-92 261.5q0 27 7 67t26 83q32 70 107 128.5t218 58.5q9 0 31 -1t47 -3q24 -1 45 -2.5t25 -1.5l412 1v-201h-26q-11 69 -47 117t-167 48q-43 0 -58 -4t-15 -22v-248
q78 0 103 24t39 85q3 9 5 18.5t4 19.5l23 1v-338h-23q0 1 -0.5 2.5t-0.5 3.5q-9 63 -32.5 104.5t-117.5 45.5v-249q0 -20 8.5 -34.5t59.5 -14.5q72 0 140 28.5t119 147.5l27 1v0zM472 212v291q0 67 -12.5 107.5t-86.5 40.5q-84 0 -121.5 -63t-50.5 -139q-5 -34 -7 -66.5
t-2 -59.5q0 -202 54.5 -249.5t119.5 -47.5q80 0 93 44.5t13 140.5v1z" />
    <glyph glyph-name="fl" unicode="&#x153;" horiz-adv-x="722" 
d="M676 125l20 -16q-6 -10 -13 -20t-15 -20q-26 -31 -65 -57t-100 -26q-41 0 -64.5 8.5t-37.5 19.5q-6 5 -10 10t-8 9q-5 -4 -11 -9t-13 -10q-18 -11 -46 -19.5t-73 -8.5q-106 0 -162 74.5t-56 165.5q0 102 60.5 174t160.5 72q41 0 66.5 -9t40.5 -20q8 -5 13.5 -10.5
l9.5 -9.5q4 3 8.5 6.5t8.5 6.5q19 14 44.5 25t62.5 11q111 0 153 -68t43 -160l-249 1v-10.5v-11.5q0 -12 0.5 -25.5t2.5 -27.5q6 -42 29 -77.5t79 -35.5q46 0 71.5 20t47.5 44q0 1 0.5 1.5l1.5 1.5v1zM308 149v162q0 71 -15.5 101.5t-55.5 30.5q-36 0 -53 -37t-17 -165
q0 -158 22.5 -192t56.5 -34q36 0 48.5 37.5t13.5 82.5v6.5v6.5v1zM444 282h127v1.5v2.5q-2 74 -11 115.5t-51 41.5q-29 0 -42.5 -19t-17.5 -41q-3 -14 -4 -26.5t-1 -21.5v-53v0z" />
    <glyph glyph-name="Racute" unicode="&#x154;" 
 />
    <glyph glyph-name="racute" unicode="&#x155;" 
 />
    <glyph glyph-name="Rcaron" unicode="&#x158;" 
 />
    <glyph glyph-name="rcaron" unicode="&#x159;" 
 />
    <glyph glyph-name="Sacute" unicode="&#x15a;" 
 />
    <glyph glyph-name="sacute" unicode="&#x15b;" 
 />
    <glyph glyph-name="Scedilla" unicode="&#x15e;" 
 />
    <glyph glyph-name="scedilla" unicode="&#x15f;" 
 />
    <glyph glyph-name="glyph227" unicode="&#x160;" horiz-adv-x="556" 
d="M484 475h-28q-4 14 -10 31t-16 34q-23 45 -64.5 82t-105.5 37h-4h-4q-37 -2 -68 -25.5t-31 -69.5q0 -25 6.5 -42.5t25.5 -32.5q12 -10 29.5 -20.5t41.5 -22.5l147 -72q9 -6 21.5 -14.5t25.5 -20.5q24 -23 43.5 -60t19.5 -90q0 -14 -2.5 -29t-6.5 -31q-18 -56 -74.5 -102
t-164.5 -46q-36 0 -62.5 5.5t-46.5 11.5q-21 5 -35.5 10.5t-26.5 5.5q-14 0 -20 -8.5t-9 -19.5q0 -1 -0.5 -2.5t-0.5 -2.5h-29v247h29q1 -8 3 -15.5t4 -14.5q19 -70 65.5 -127.5t132.5 -57.5q48 0 73.5 17.5t37.5 39.5q10 18 12 34t2 21q0 43 -24 66.5t-62 42.5
q-6 3 -12.5 6.5t-13.5 6.5l-67 33q-12 5 -22.5 10.5t-20.5 10.5q-96 57 -112 109t-16 83q0 16 3.5 38.5t13.5 45.5q19 42 65.5 77.5t138.5 35.5q30 0 54 -5t43 -11q19 -7 33.5 -12t25.5 -5q17 0 23 10t10 24l30 1v-217v0zM447 914l-123 -176h-92l-122 176h56l112 -99l112 99
h57v0z" />
    <glyph glyph-name="glyph228" unicode="&#x161;" horiz-adv-x="389" 
d="M340 326h-25q-16 52 -48.5 82.5t-75.5 30.5q-27 0 -45.5 -17t-18.5 -40q0 -31 24.5 -49t58.5 -33q8 -4 16.5 -8t17.5 -8q44 -21 80.5 -52t36.5 -93q0 -71 -43.5 -112t-113.5 -41q-9 0 -18.5 1t-18.5 3q-11 2 -21.5 5t-20.5 5q-18 5 -31.5 9.5t-16.5 4.5q-5 0 -8.5 -2
t-6.5 -6q-3 -3 -6 -7.5t-6 -11.5h-25v165h28q2 -10 7 -27.5t16 -36.5q14 -26 42 -47.5t76 -21.5q32 0 49 16.5t21 36.5q0 3 0.5 6.5t0.5 6.5q0 26 -22.5 43.5t-54.5 33.5q-10 4 -20.5 9t-21.5 11q-45 22 -82 53.5t-37 89.5q0 66 45 106.5t114 40.5q18 0 34 -3.5t30 -7.5
t25 -7.5t18 -3.5q10 0 15 4t7 10q1 1 1.5 3t1.5 3l22 1v-145v0zM363 704l-123 -176h-92l-122 176h56l112 -99l112 99h57v0z" />
    <glyph glyph-name="uni0162" unicode="&#x162;" 
 />
    <glyph glyph-name="uni0163" unicode="&#x163;" 
 />
    <glyph glyph-name="Tcaron" unicode="&#x164;" 
 />
    <glyph glyph-name="tcaron" unicode="&#x165;" 
 />
    <glyph glyph-name="Uring" unicode="&#x16e;" 
 />
    <glyph glyph-name="uring" unicode="&#x16f;" 
 />
    <glyph glyph-name="Uhungarumlaut" unicode="&#x170;" 
 />
    <glyph glyph-name="uhungarumlaut" unicode="&#x171;" 
 />
    <glyph glyph-name="Iacute" unicode="&#x178;" horiz-adv-x="722" 
d="M699 676v-25q-7 -2 -16.5 -4t-19.5 -7q-8 -4 -16.5 -11t-15.5 -18l-191 -310v-184q0 -60 17.5 -73.5t62.5 -18.5q3 0 6 -0.5t6 -0.5v-24h-347v25q3 -1 6 -0.5t6 0.5q45 5 63 18.5t18 72.5v148l-183 332q-2 2 -6.5 9.5t-13.5 16.5q-9 10 -24 18.5t-36 9.5v26h335v-25
q-52 -1 -66.5 -7.5t-14.5 -27.5q0 -6 3 -13.5t7 -15.5q1 -2 2 -4.5t2 -4.5q3 -5 5.5 -9.5t4.5 -8.5l120 -231l111 185q2 3 7.5 12t11.5 21l4.5 9t4.5 10q5 11 8 21.5t3 18.5q0 28 -23 35t-57 9h-2h-2v26h220v0zM213 812q0 4 1 10t4 12q6 16 20.5 29t37.5 13q26 0 45 -19.5
t19 -46.5q0 -26 -18 -45t-46 -19q-23 0 -37.5 13t-20.5 29q-3 6 -4 12t-1 11v1zM423 812q0 4 1 10t4 12q6 16 20 29t37 13q26 0 45.5 -19.5t19.5 -46.5q0 -26 -18.5 -45t-46.5 -19q-23 0 -37.5 13t-20.5 29q-2 6 -3 12t-1 11v1z" />
    <glyph glyph-name="Zacute" unicode="&#x179;" 
 />
    <glyph glyph-name="zacute" unicode="&#x17a;" 
 />
    <glyph glyph-name="Zdotaccent" unicode="&#x17b;" 
 />
    <glyph glyph-name="zdotaccent" unicode="&#x17c;" 
 />
    <glyph glyph-name="Zcaron" unicode="&#x17d;" 
 />
    <glyph glyph-name="zcaron" unicode="&#x17e;" 
 />
    <glyph glyph-name="quotedblright" unicode="&#x192;" horiz-adv-x="500" 
d="M74 394v46h120q3 20 9.5 52t18.5 66q20 55 60 101t113 46q41 0 62.5 -13t30.5 -28q7 -12 8.5 -22.5t1.5 -15.5q0 -24 -15 -42t-37 -18t-38.5 13t-16.5 34q0 8 3 15.5t6 13.5t6 11t3 7q0 1 -0.5 3t-2.5 4q-2 3 -6.5 5.5t-12.5 2.5q-29 0 -42.5 -24.5t-18.5 -53.5
q-3 -20 -3.5 -38.5t-0.5 -29.5v-89h122v-46h-122q-3 -38 -4.5 -68t-2.5 -57q-1 -14 -1.5 -28t-1.5 -28q-2 -20 -3.5 -39.5t-4.5 -41.5q-13 -109 -61 -198t-150 -89q-43 0 -63.5 17.5t-26.5 38.5q-2 6 -2.5 11t-0.5 10q0 25 11 37.5t24 17.5q5 2 10 2.5t9 0.5q20 0 37 -12
t17 -37q0 -10 -3 -15.5t-6 -9.5q-1 -2 -2.5 -3.5l-2.5 -2.5q-2 -2 -3 -4.5t-1 -5.5v-1.5v-0.5q2 -5 8 -9t14 -4q5 0 11 1.5t12 5.5q15 9 27.5 33.5t14.5 72.5l13 406h-116v0z" />
    <glyph glyph-name="uni02BA" unicode="&#x2ba;" horiz-adv-x="333" 
d="M185 616l-142 -88h-56l137 157q17 19 31 23t21 4q4 0 8.5 -0.5t9.5 -2.5q12 -3 21.5 -12.5t9.5 -28.5q0 -16 -7 -26t-19 -18q-3 -2 -6.5 -4.5t-7.5 -4.5v1zM385 616l-142 -88h-56l137 157q17 19 31 23t21 4q4 0 8.5 -0.5t9.5 -2.5q12 -3 21.5 -12.5t9.5 -28.5
q0 -16 -7 -26t-19 -18q-3 -2 -6.5 -4.5t-7.5 -4.5v1z" />
    <glyph glyph-name="arrowright" unicode="&#x2c6;" horiz-adv-x="333" 
d="M26 549h-42q3 9 6.5 24t9.5 31q12 26 35.5 47.5t66.5 21.5h5.5t5.5 -1q10 -1 19.5 -3.5t17.5 -5.5t14 -5.5t9 -3.5l40 -17q14 -7 20 -9.5t10 -3.5h4.5h5.5q19 0 29.5 9.5t15.5 20.5q3 5 5 10t3 9l43 1q-3 -11 -7.5 -26.5t-11.5 -31.5q-13 -26 -37 -48t-65 -22q-6 0 -13 1
t-14 3q-9 2 -17.5 4.5t-15.5 5.5l-29 14q-29 12 -39.5 16t-16.5 5h-4h-4q-17 0 -28.5 -9.5t-16.5 -20.5q-2 -5 -3 -9t-1 -8v1z" />
    <glyph glyph-name="glyph224" unicode="&#x2c7;" horiz-adv-x="333" 
d="M335 704l-123 -176h-92l-122 176h56l112 -99l112 99h57v0z" />
    <glyph glyph-name="house" unicode="&#x2c9;" horiz-adv-x="333" 
d="M331 637v-72h-330v72h330v0z" />
    <glyph glyph-name="endash" unicode="&#x2d8;" horiz-adv-x="333" 
d="M274 691h44q-5 -76 -42 -120t-110 -44q-70 0 -110 42t-41 121l44 1q1 -8 3.5 -17.5t7.5 -19.5q9 -19 30.5 -35t66.5 -16q44 0 65 16.5t31 37.5q4 8 6.5 17t4.5 16v1z" />
    <glyph glyph-name="sfthyphen" unicode="&#x2d9;" horiz-adv-x="333" 
d="M103 602q0 4 1 10t4 12q6 16 20 29t37 13q26 0 45.5 -19.5t19.5 -46.5q0 -26 -18.5 -45t-46.5 -19q-23 0 -37.5 13t-20.5 29q-2 6 -3 12t-1 11v1z" />
    <glyph glyph-name="filledbox" unicode="&#x2da;" horiz-adv-x="333" 
d="M60 633q0 43 32 74.5t75 31.5q44 0 75 -31.5t31 -75.5t-31 -75t-75 -31q-43 0 -75 30.5t-32 75.5v1zM225 633q0 22 -17.5 40t-42.5 18q-20 0 -33 -11.5t-19 -25.5q-3 -6 -4 -11.5t-1 -10.5t1 -10t3 -11q6 -14 19 -25.5t34 -11.5q26 0 43 17t17 41v1z" />
    <glyph glyph-name="glyph223" unicode="&#x2db;" horiz-adv-x="333" 
d="M158 32l33 12q-1 -7 -3.5 -15t-4.5 -17l-2 -8t-2 -7q-2 -10 -3.5 -19t-1.5 -17q0 -35 17.5 -50t47.5 -15q9 0 16.5 2t14.5 5q6 3 12.5 6t14.5 7l22 -14q-10 -21 -28 -36.5t-39 -25.5q-14 -6 -27 -9.5t-24 -3.5q-9 0 -20 1t-22 4q-26 6 -47.5 24t-21.5 54q0 23 13 46
t29 43q7 8 13.5 16.5t12.5 15.5v1z" />
    <glyph glyph-name="onehalf" unicode="&#x2dc;" horiz-adv-x="333" 
d="M278 528l-112 98l-112 -98h-56l122 176h92l123 -176h-57v0z" />
    <glyph glyph-name="Gamma" unicode="&#x393;" 
 />
    <glyph glyph-name="Theta" unicode="&#x398;" 
 />
    <glyph glyph-name="exclamdown" unicode="&#x3a3;" 
 />
    <glyph glyph-name="Phi" unicode="&#x3a6;" 
 />
    <glyph glyph-name="Atilde" unicode="&#x3a9;" 
 />
    <glyph glyph-name="alpha" unicode="&#x3b1;" 
 />
    <glyph glyph-name="delta" unicode="&#x3b4;" 
 />
    <glyph glyph-name="epsilon" unicode="&#x3b5;" 
 />
    <glyph glyph-name="guillemotleft" unicode="&#x3c0;" 
 />
    <glyph glyph-name="sigma" unicode="&#x3c3;" 
 />
    <glyph glyph-name="tau" unicode="&#x3c4;" 
 />
    <glyph glyph-name="phi" unicode="&#x3c6;" 
 />
    <glyph glyph-name="glyph259" unicode="&#x2013;" horiz-adv-x="500" 
d="M0 271h500v-90h-500v90v0z" />
    <glyph glyph-name="periodcentered" unicode="&#x2014;" horiz-adv-x="1000" 
d="M0 271h1000v-90h-1000v90v0z" />
    <glyph glyph-name="underscoredbl" unicode="&#x2017;" 
 />
    <glyph glyph-name="Acircumflex" unicode="&#x2018;" horiz-adv-x="333" 
d="M236 691l11 -22q-8 -7 -21.5 -16.5t-28.5 -22.5q-21 -19 -39 -42t-20 -48v-2v-2q0 -9 5 -15.5t15 -6.5q2 0 4 0.5t4 0.5q3 0 6.5 0.5t7.5 0.5q6 0 12.5 -1t13.5 -3q18 -7 33 -24t15 -51q0 -39 -23.5 -60.5t-58.5 -21.5q-47 0 -71 28.5t-29 63.5q-1 6 -1.5 11.5t-0.5 10.5
q0 62 30 105t66 71q20 15 38 26t32 19v1z" />
    <glyph glyph-name="Ecircumflex" unicode="&#x2019;" horiz-adv-x="333" 
d="M97 356l-11 22q8 5 21.5 14.5t28.5 22.5q21 19 39 42t20 48v2v2q0 9 -5 15.5t-15 6.5q-2 0 -4 -0.5t-4 -0.5q-3 0 -6 -0.5t-8 -0.5q-6 0 -12.5 1t-13.5 3q-18 7 -33 24t-15 51q0 39 24 60.5t58 21.5q47 0 71 -28.5t29 -63.5q1 -6 1.5 -11.5t0.5 -10.5q0 -62 -30 -105
t-66 -71q-20 -15 -38 -26t-32 -19v1z" />
    <glyph glyph-name="Ugrave" unicode="&#x201a;" 
 />
    <glyph glyph-name="quotedblbase" unicode="&#x201c;" horiz-adv-x="500" 
d="M198 691l11 -22q-8 -7 -21.5 -16.5t-28.5 -22.5q-21 -19 -39 -42t-20 -48v-2v-2q0 -9 5 -15.5t15 -6.5q2 0 4 0.5t4 0.5q3 0 6.5 0.5t7.5 0.5q6 0 12.5 -1t13.5 -3q18 -7 33 -24t15 -51q0 -39 -23.5 -60.5t-58.5 -21.5q-47 0 -71 28.5t-29 63.5q-1 6 -1.5 11.5t-0.5 10.5
q0 62 30 105t66 71q20 15 38 26t32 19v1zM468 691l11 -22q-8 -7 -21.5 -16.5t-28.5 -22.5q-21 -19 -39 -42t-20 -48v-2v-2q0 -9 5 -15.5t15 -6.5q2 0 4 0.5t4 0.5q3 0 6.5 0.5t7.5 0.5q6 0 12.5 -1t13.5 -3q18 -7 33 -24t15 -51q0 -39 -23.5 -60.5t-58.5 -21.5
q-47 0 -71 28.5t-29 63.5q-1 6 -1.5 11.5t-0.5 10.5q0 62 30 105t66 71q20 15 38 26t32 19v1z" />
    <glyph glyph-name="perthousand" unicode="&#x201d;" horiz-adv-x="500" 
d="M32 356l-11 22q8 5 21.5 14.5t28.5 22.5q21 19 39 42t20 48v2v2q0 9 -5 15.5t-15 6.5q-2 0 -4 -0.5t-4 -0.5q-3 0 -6 -0.5t-8 -0.5q-6 0 -12.5 1t-13.5 3q-18 7 -33 24t-15 51q0 39 24 60.5t58 21.5q47 0 71 -28.5t29 -63.5q1 -6 1.5 -11.5t0.5 -10.5q0 -62 -30 -105
t-66 -71q-20 -15 -38 -26t-32 -19v1zM302 356l-11 22q8 5 21.5 14.5t28.5 22.5q21 19 39 42t20 48v2v2q0 9 -5 15.5t-15 6.5q-2 0 -4 -0.5t-4 -0.5q-3 0 -6 -0.5t-8 -0.5q-6 0 -12.5 1t-13.5 3q-18 7 -33 24t-15 51q0 39 24 60.5t58 21.5q47 0 71 -28.5t29 -63.5
q1 -6 1.5 -11.5t0.5 -10.5q0 -62 -30 -105t-66 -71q-20 -15 -38 -26t-32 -19v1z" />
    <glyph glyph-name="dotlessi" unicode="&#x201e;" horiz-adv-x="500" 
d="M32 -180l-11 22q8 6 21.5 15.5t28.5 22.5q21 19 39 42t20 48v2v2q0 9 -5 15.5t-15 6.5q-2 0 -4 -0.5t-4 -0.5q-3 0 -6 -0.5t-8 -0.5q-6 0 -12.5 1t-13.5 3q-18 6 -33 23t-15 51q0 39 24 60.5t58 21.5q47 0 71 -28.5t29 -63.5q1 -6 1.5 -11.5t0.5 -10.5q0 -61 -30 -104
t-66 -71q-20 -15 -38 -26t-32 -19v0zM302 -180l-11 22q8 6 21.5 15.5t28.5 22.5q21 19 39 42t20 48v2v2q0 9 -5 15.5t-15 6.5q-2 0 -4 -0.5t-4 -0.5q-3 0 -6 -0.5t-8 -0.5q-6 0 -12.5 1t-13.5 3q-18 6 -33 23t-15 51q0 39 24 60.5t58 21.5q47 0 71 -28.5t29 -63.5
q1 -6 1.5 -11.5t0.5 -10.5q0 -61 -30 -104t-66 -71q-20 -15 -38 -26t-32 -19v0z" />
    <glyph glyph-name="dagger" unicode="&#x2020;" horiz-adv-x="500" 
d="M261 -134h-21l-5 144q-2 54 -9.5 98.5t-15.5 77.5q-10 36 -18 56.5t-8 23.5q0 4 1 7.5t3 7.5q4 6 10 13.5t13 18.5q10 17 18.5 47t8.5 85q-30 -2 -48 -8t-31 -13q-5 -3 -9.5 -5.5t-8.5 -4.5q-10 -5 -20 -8.5t-25 -3.5q-21 0 -32.5 12.5t-15.5 27.5q0 3 -0.5 6t-0.5 6
q0 2 0.5 10t4.5 17q4 11 14.5 19.5t30.5 8.5q14 0 24.5 -3.5t20.5 -8.5q5 -2 9.5 -5t10.5 -5q13 -7 31 -13.5t45 -8.5q0 46 -7 70.5t-15 39.5q-3 5 -6 9.5t-6 9.5q-4 8 -7 16.5t-3 20.5q0 3 0.5 7t0.5 7q4 17 16.5 31t38.5 14q4 0 11.5 -1t15.5 -4q11 -4 20.5 -15t9.5 -32
q0 -16 -4 -27.5t-9 -22.5q-3 -4 -5.5 -8.5t-4.5 -8.5q-9 -17 -16 -39.5t-7 -60.5v-2.5v-3.5q25 3 42.5 8.5t31.5 12.5q10 4 19 8.5l17 8.5q7 3 14.5 4.5t16.5 1.5q21 0 31.5 -9t14.5 -20q3 -7 4 -14t1 -11q0 -23 -13 -37.5t-37 -14.5q-12 0 -22.5 3.5t-20.5 7.5
q-5 3 -10 5.5l-9 4.5q-16 8 -34.5 14.5t-45.5 6.5v-4v-4q0 -40 9 -70.5t20 -51.5q10 -22 19 -34t9 -14q0 -1 -2.5 -8t-5.5 -16h-0.5t-0.5 -1q-2 -7 -4.5 -13.5t-3.5 -8.5l-2 -6t-1 -6q-11 -37 -20 -82.5t-12 -116.5l-5 -143v0z" />
    <glyph glyph-name="Uacute" unicode="&#x2021;" horiz-adv-x="500" 
d="M406 407q-10 -1 -18.5 1.5t-17.5 5.5q-5 3 -11 6t-12 5q-16 8 -35.5 14t-49.5 6q0 -41 8.5 -71t18.5 -50q10 -21 18.5 -32t8.5 -14t-8.5 -14.5t-18.5 -31.5t-18.5 -50.5t-8.5 -71.5q29 0 48 6t35 13q3 2 6.5 3.5t6.5 3.5q11 5 23 9t28 4q24 0 35.5 -14t11.5 -38
q0 -21 -15 -33t-37 -12q-13 0 -28 6.5t-34 14.5q-17 7 -37 13t-43 7q0 -36 7 -60.5t15 -42.5q4 -10 8.5 -18.5t7.5 -16.5t4.5 -15.5t1.5 -16.5q0 -25 -16.5 -40t-40.5 -15q-4 0 -8 0.5t-9 2.5q-13 4 -24 15.5t-11 34.5q0 12 2.5 21.5t6.5 18.5q3 6 6 12.5t6 12.5
q8 17 14.5 41.5t6.5 64.5l-18 1q-12 -1 -24 -5t-25 -9q-4 -2 -7.5 -3.5t-7.5 -3.5q-16 -7 -31.5 -13.5t-29.5 -6.5q-20 0 -30.5 8.5t-15.5 18.5q-3 6 -4 12t-1 10q0 22 14 36t36 14h2.5h2.5q14 -1 28 -7t30 -14q17 -7 37 -13.5t44 -6.5q-1 40 -9.5 70t-23.5 59
q-5 9 -10.5 19t-11.5 20q3 6 6.5 11.5t6.5 11.5q18 29 29.5 62t12.5 82q-27 0 -46.5 -6t-35.5 -14q-9 -4 -17 -7.5t-15 -6.5q-8 -3 -15 -4.5t-15 -1.5q-22 0 -36 14t-14 36q0 4 1 10t4 12q5 10 15.5 18.5t30.5 8.5q14 0 29.5 -6t31.5 -14q4 -2 7.5 -3.5t7.5 -3.5
q13 -5 25 -9t24 -4h18q0 39 -6.5 64t-14.5 43q-3 8 -6.5 15t-6.5 14q-4 9 -6 17.5t-2 19.5q0 23 11.5 35t25.5 16q4 1 8 1.5t7 0.5q24 0 40.5 -15t16.5 -40q0 -7 -1.5 -14t-3.5 -14q-3 -10 -7.5 -19.5t-9.5 -20.5q-8 -18 -15 -43t-7 -61q23 1 43 7t37 13q19 8 34 14.5
t28 6.5q23 0 37.5 -12.5t14.5 -35.5q0 -24 -13.5 -37t-36.5 -13v1z" />
    <glyph glyph-name="glyph262" unicode="&#x2022;" horiz-adv-x="350" 
d="M35 338q0 57 41.5 98t98.5 41q59 0 99.5 -41t40.5 -99q0 -59 -40.5 -99.5t-99.5 -40.5q-57 0 -98.5 40.5t-41.5 99.5v1z" />
    <glyph glyph-name="fraction" unicode="&#x2026;" horiz-adv-x="1000" 
d="M82 71q0 33 24 58.5t60 25.5q35 0 60 -25t25 -60q0 -36 -25 -59.5t-60 -23.5q-36 0 -60 24t-24 59v1zM415 71q0 33 24 58.5t60 25.5q35 0 60 -25t25 -60q0 -36 -25 -59.5t-60 -23.5q-36 0 -60 24t-24 59v1zM748 71q0 33 24 58.5t60 25.5q35 0 60 -25t25 -60
q0 -36 -25 -59.5t-60 -23.5q-36 0 -60 24t-24 59v1z" />
    <glyph glyph-name="circumflex" unicode="&#x2030;" horiz-adv-x="1000" 
d="M572 706l-438 -735h-48l385 649l-2 2q-6 -6 -13 -10.5t-13 -7.5q-28 -15 -52.5 -18t-29.5 -3q-8 0 -24.5 2.5t-35.5 10.5q1 -7 1.5 -13.5t1.5 -13.5v-8v-9q0 -19 -4 -44.5t-13 -52.5q-17 -50 -55 -92t-104 -42q-9 0 -18.5 2t-19.5 5q-31 12 -57 43t-26 84q0 78 38 128
t83 72q19 9 37 13.5t33 4.5q30 0 45.5 -8t27.5 -18q1 -1 2 -1.5t2 -1.5q14 -11 31.5 -20.5t52.5 -9.5q44 0 76 16t53 35q12 12 21 22.5l15 17.5l48 1v0zM103 423q0 -7 0.5 -15.5t2.5 -17.5q4 -15 14.5 -27t34.5 -12q43 0 77 52t43 115q2 10 2.5 19.5t0.5 18.5v5v4q0 4 -1 8
t-2 12q-2 11 -6.5 15.5t-12.5 8.5q-2 1 -4.5 2t-5.5 2q-5 2 -9 4t-8 5q-6 4 -12 7.5t-11 3.5q-3 0 -6 -0.5t-7 -2.5q-21 -10 -41 -45.5t-33 -76.5q-7 -23 -11.5 -45.5t-4.5 -40.5v1zM334 125v7t1 8q6 72 61.5 132t130.5 60q45 0 67.5 -20t30.5 -44q7 -19 8 -35.5t1 -24.5
q0 -19 -4.5 -44.5t-15.5 -53.5q-18 -48 -55 -88t-97 -40q-10 0 -25 2.5t-31 9.5q-27 11 -49.5 41t-22.5 89v1zM432 83q0 -7 0.5 -14.5t1.5 -15.5q3 -17 13.5 -30.5t35.5 -13.5q39 0 65.5 34.5t41.5 76.5q9 26 14 51t5 41q0 34 -9.5 52t-21.5 26q-9 6 -16.5 7.5t-11.5 1.5
q-31 0 -56 -37t-41 -81q-10 -29 -15.5 -55.5t-5.5 -43.5v1zM696 118q0 85 50 141t110 69q8 2 16 3t16 1q45 0 67.5 -20t30.5 -44q7 -19 8 -35.5t1 -24.5q0 -19 -4.5 -44.5t-14.5 -52.5q-18 -49 -55 -89t-98 -40q-10 0 -22 2t-25 6q-30 10 -55 40t-25 87v1zM794 83
q0 -7 0.5 -15.5t1.5 -17.5q4 -15 14 -28t34 -13q39 0 65.5 34.5t41.5 76.5q9 26 14 51t5 41q0 34 -9.5 52t-21.5 26q-9 6 -16.5 7.5t-11.5 1.5q-31 0 -55.5 -36.5t-39.5 -79.5q-11 -30 -16.5 -57.5t-5.5 -43.5v1z" />
    <glyph glyph-name="Igrave" unicode="&#x2039;" horiz-adv-x="333" 
d="M257 59l-206 166v4l203 164q9 7 16 12.5t13 7.5q2 0 3.5 0.5t3.5 0.5q10 0 11.5 -4t1.5 -10q0 -12 -15.5 -37t-35.5 -53l-6 -8l-6 -8q-15 -20 -29.5 -38.5t-23.5 -29.5q8 -13 23.5 -32t31.5 -41q2 -2 4 -4.5t4 -4.5q21 -28 38 -53.5t17 -37.5q0 -10 -3 -14t-9 -4
q-7 0 -15.5 6.5t-17.5 13.5l-1.5 1.5l-1.5 1.5v1z" />
    <glyph glyph-name="Oacute" unicode="&#x203a;" horiz-adv-x="333" 
d="M76 392l206 -166v-4l-203 -164q-9 -9 -16 -14.5t-13 -7.5q-2 0 -3.5 -0.5t-3.5 -0.5q-10 0 -11.5 4t-1.5 10q0 12 15.5 37t35.5 53l6 8l6 8q15 20 29.5 38.5t23.5 29.5q-8 13 -23.5 32t-31.5 41q-2 2 -4 4.5t-4 4.5q-21 28 -38 53.5t-17 37.5q0 10 3 14t9 4
q7 0 15.5 -6.5t17.5 -13.5l1.5 -1.5l1.5 -1.5v1z" />
    <glyph glyph-name="exclamdbl" unicode="&#x203c;" 
 />
    <glyph glyph-name="uni207F" unicode="&#x207f;" 
 />
    <glyph glyph-name="franc" unicode="&#x20a3;" 
 />
    <glyph glyph-name="peseta" unicode="&#x20a7;" 
 />
    <glyph glyph-name="trademark" unicode="&#x2122;" horiz-adv-x="1000" 
d="M668 271l-140 292h-2v-199q0 -38 8.5 -53t43.5 -17v-22h-133v23q35 1 43.5 16t8.5 52v238q-10 23 -29 37t-41 14v24h139l142 -289l151 289h118v-23q-35 -2 -44.5 -13.5t-9.5 -35.5v-261v-2.5v-0.5q0 -29 6.5 -36t44.5 -10v-22h-194v23q38 2 44 9t6 34v2v2v223h-2
l-147 -294h-13v0zM251 652v-309v-2.5v-0.5q0 -29 6.5 -36t44.5 -10v-22h-194v23q38 2 44 9t6 36v0.5v1.5v310h-46q-30 -1 -44.5 -20t-20.5 -45l-23 1v88h362v-88h-23q-6 25 -21 44t-45 19l-46 1v0z" />
    <glyph glyph-name="arrowleft" unicode="&#x2190;" 
 />
    <glyph glyph-name="arrowup" unicode="&#x2191;" 
 />
    <glyph glyph-name="glyph257" unicode="&#x2192;" horiz-adv-x="500" 
 />
    <glyph glyph-name="arrowdown" unicode="&#x2193;" 
 />
    <glyph glyph-name="arrowboth" unicode="&#x2194;" 
 />
    <glyph glyph-name="arrowupdn" unicode="&#x2195;" 
 />
    <glyph glyph-name="arrowupdnbse" unicode="&#x21a8;" 
 />
    <glyph glyph-name="questiondown" unicode="&#x2202;" 
 />
    <glyph glyph-name="quoteright" unicode="&#x2206;" 
 />
    <glyph glyph-name="florin" unicode="&#x220f;" 
 />
    <glyph glyph-name="minus" unicode="&#x2212;" 
 />
    <glyph glyph-name="Icircumflex" unicode="&#x2215;" horiz-adv-x="167" 
d="M273 688h56l-439 -700h-58l441 700v0z" />
    <glyph glyph-name="Ucircumflex" unicode="&#x2219;" 
d="M41 332q0 33 24 58.5t60 25.5q35 0 60 -25t25 -60q0 -36 -25 -60t-60 -24q-36 0 -60 24.5t-24 59.5v1z" />
    <glyph glyph-name="quotedblleft" unicode="&#x221a;" 
 />
    <glyph glyph-name="yen" unicode="&#x221e;" 
 />
    <glyph glyph-name="orthogonal" unicode="&#x221f;" 
 />
    <glyph glyph-name="intersection" unicode="&#x2229;" 
 />
    <glyph glyph-name="guillemotright" unicode="&#x222b;" 
 />
    <glyph glyph-name="quoteleft" unicode="&#x2248;" 
 />
    <glyph glyph-name="AE" unicode="&#x2260;" 
 />
    <glyph glyph-name="equivalence" unicode="&#x2261;" 
 />
    <glyph glyph-name="ordfeminine" unicode="&#x2264;" 
 />
    <glyph glyph-name="ordmasculine" unicode="&#x2265;" 
 />
    <glyph glyph-name="glyph258" unicode="&#x2302;" 
 />
    <glyph glyph-name="revlogicalnot" unicode="&#x2310;" 
 />
    <glyph glyph-name="integraltp" unicode="&#x2320;" 
 />
    <glyph glyph-name="integralbt" unicode="&#x2321;" 
 />
    <glyph glyph-name="SF100000" unicode="&#x2500;" 
 />
    <glyph glyph-name="SF110000" unicode="&#x2502;" 
 />
    <glyph glyph-name="SF010000" unicode="&#x250c;" 
 />
    <glyph glyph-name="SF030000" unicode="&#x2510;" 
 />
    <glyph glyph-name="SF020000" unicode="&#x2514;" 
 />
    <glyph glyph-name="SF040000" unicode="&#x2518;" 
 />
    <glyph glyph-name="SF080000" unicode="&#x251c;" 
 />
    <glyph glyph-name="SF090000" unicode="&#x2524;" 
 />
    <glyph glyph-name="SF060000" unicode="&#x252c;" 
 />
    <glyph glyph-name="SF070000" unicode="&#x2534;" 
 />
    <glyph glyph-name="SF050000" unicode="&#x253c;" 
 />
    <glyph glyph-name="SF430000" unicode="&#x2550;" 
 />
    <glyph glyph-name="SF240000" unicode="&#x2551;" 
 />
    <glyph glyph-name="SF510000" unicode="&#x2552;" 
 />
    <glyph glyph-name="SF520000" unicode="&#x2553;" 
 />
    <glyph glyph-name="SF390000" unicode="&#x2554;" 
 />
    <glyph glyph-name="SF220000" unicode="&#x2555;" 
 />
    <glyph glyph-name="SF210000" unicode="&#x2556;" 
 />
    <glyph glyph-name="SF250000" unicode="&#x2557;" 
 />
    <glyph glyph-name="SF500000" unicode="&#x2558;" 
 />
    <glyph glyph-name="SF490000" unicode="&#x2559;" 
 />
    <glyph glyph-name="SF380000" unicode="&#x255a;" 
 />
    <glyph glyph-name="SF280000" unicode="&#x255b;" 
 />
    <glyph glyph-name="SF270000" unicode="&#x255c;" 
 />
    <glyph glyph-name="SF260000" unicode="&#x255d;" 
 />
    <glyph glyph-name="SF360000" unicode="&#x255e;" 
 />
    <glyph glyph-name="SF370000" unicode="&#x255f;" 
 />
    <glyph glyph-name="SF420000" unicode="&#x2560;" 
 />
    <glyph glyph-name="SF190000" unicode="&#x2561;" 
 />
    <glyph glyph-name="SF200000" unicode="&#x2562;" 
 />
    <glyph glyph-name="SF230000" unicode="&#x2563;" 
 />
    <glyph glyph-name="SF470000" unicode="&#x2564;" 
 />
    <glyph glyph-name="SF480000" unicode="&#x2565;" 
 />
    <glyph glyph-name="SF410000" unicode="&#x2566;" 
 />
    <glyph glyph-name="SF450000" unicode="&#x2567;" 
 />
    <glyph glyph-name="SF460000" unicode="&#x2568;" 
 />
    <glyph glyph-name="SF400000" unicode="&#x2569;" 
 />
    <glyph glyph-name="SF540000" unicode="&#x256a;" 
 />
    <glyph glyph-name="SF530000" unicode="&#x256b;" 
 />
    <glyph glyph-name="SF440000" unicode="&#x256c;" 
 />
    <glyph glyph-name="upblock" unicode="&#x2580;" 
 />
    <glyph glyph-name="dnblock" unicode="&#x2584;" 
 />
    <glyph glyph-name="block" unicode="&#x2588;" 
 />
    <glyph glyph-name="lfblock" unicode="&#x258c;" 
 />
    <glyph glyph-name="rtblock" unicode="&#x2590;" 
 />
    <glyph glyph-name="ltshade" unicode="&#x2591;" 
 />
    <glyph glyph-name="shade" unicode="&#x2592;" 
 />
    <glyph glyph-name="dkshade" unicode="&#x2593;" 
 />
    <glyph glyph-name="glyph261" unicode="&#x25a0;" horiz-adv-x="500" 
 />
    <glyph glyph-name="filledrect" unicode="&#x25ac;" 
 />
    <glyph glyph-name="triagup" unicode="&#x25b2;" 
 />
    <glyph glyph-name="triagrt" unicode="&#x25ba;" 
 />
    <glyph glyph-name="triagdn" unicode="&#x25bc;" 
 />
    <glyph glyph-name="triaglf" unicode="&#x25c4;" 
 />
    <glyph glyph-name="Edieresis" unicode="&#x25ca;" 
 />
    <glyph glyph-name="circle" unicode="&#x25cb;" 
 />
    <glyph glyph-name="invbullet" unicode="&#x25d8;" 
 />
    <glyph glyph-name="invcircle" unicode="&#x25d9;" 
 />
    <glyph glyph-name="smileface" unicode="&#x263a;" 
 />
    <glyph glyph-name="invsmileface" unicode="&#x263b;" 
 />
    <glyph glyph-name="sun" unicode="&#x263c;" 
 />
    <glyph glyph-name="female" unicode="&#x2640;" 
 />
    <glyph glyph-name="male" unicode="&#x2642;" 
 />
    <glyph glyph-name="spade" unicode="&#x2660;" 
 />
    <glyph glyph-name="club" unicode="&#x2663;" 
 />
    <glyph glyph-name="heart" unicode="&#x2665;" 
 />
    <glyph glyph-name="diamond" unicode="&#x2666;" 
 />
    <glyph glyph-name="musicalnote" unicode="&#x266a;" 
 />
    <glyph glyph-name="musicalnotedbl" unicode="&#x266b;" 
 />
    <glyph glyph-name="Scaron" unicode="&#xf000;" 
 />
    <glyph glyph-name="Ocircumflex" unicode="&#xf001;" horiz-adv-x="556" 
d="M536 24v-24h-235v24q29 2 37.5 15t9.5 29v6v6v303q0 15 -5.5 24t-28.5 9l-104 1v-336v-8v-7q2 -15 10.5 -27.5t36.5 -15.5v-23h-243v24q1 -1 2 -1t2 1q25 3 39 12.5t14 46.5v334h-57v44h57q0 18 2 45t11 55q16 49 61.5 89t146.5 40q5 0 31.5 -1t58.5 -9q33 -8 61.5 -26.5
t28.5 -54.5q0 -23 -10.5 -35.5t-22.5 -18.5q-12 -5 -21.5 -6t-11.5 -1q-4 0 -12.5 1t-17.5 5q-12 5 -22.5 16t-10.5 32q0 9 1.5 16t3.5 12q1 4 2.5 7.5t1.5 4.5q0 2 -1 5t-4 7q-5 6 -16.5 11t-33.5 5q-64 0 -75.5 -51.5t-11.5 -148.5l106 1q20 -1 42.5 0.5t45.5 2.5
q12 1 23.5 2t22.5 2q10 1 19 2l18 2v-391q0 -28 10.5 -42.5t38.5 -15.5v1z" />
    <glyph glyph-name="Ograve" unicode="&#xf002;" horiz-adv-x="556" 
d="M536 24v-24h-235v24l8 1q19 2 27 12t10 22q2 5 2 10.5v10.5v337h-138v-336v-8v-7q2 -15 10.5 -27.5t36.5 -15.5v-23h-243v24q1 -1 2 -1t2 1q25 3 39 12.5t14 46.5v334h-57v44h57q0 15 1 32t4 34q9 61 50 112t152 51q3 0 44 -3.5t90 -23.5q2 -1 4.5 -2t4.5 -2l47 31h19
v-609v-1.5v-0.5q0 -4 0.5 -11t2.5 -15q3 -10 10.5 -19t23.5 -10h12v0zM348 461v98q-1 -1 -2.5 0t-3.5 2q-5 4 -10 13t-5 20q0 3 0.5 6t2.5 7q0 2 1 4.5t3 4.5q2 6 4 10.5t2 7.5q0 12 -10.5 17.5t-36.5 5.5q-50 0 -65.5 -31.5t-16.5 -70.5q-1 -8 -1 -16.5v-16.5v-61h138v0z
" />
    <glyph glyph-name="degree" horiz-adv-x="400" 
d="M200 402q-60 -1 -101.5 40.5t-41.5 101.5t41.5 101.5t101.5 41.5t101.5 -41.5t41.5 -101.5t-41.5 -101.5t-101.5 -41.5v1zM200 438q43 -1 72.5 31t29.5 75t-29.5 75t-72.5 32t-72.5 -32t-29.5 -75t29.5 -75t72.5 -32v1z" />
    <glyph glyph-name="bullet" horiz-adv-x="350" 
d="M35 338q0 57 41.5 98t98.5 41q59 0 99.5 -41t40.5 -99q0 -59 -40.5 -99.5t-99.5 -40.5q-57 0 -98.5 40.5t-41.5 99.5v1z" />
    <glyph glyph-name="daggerdbl" horiz-adv-x="500" 
d="M0 271h500v-90h-500v90v0z" />
    </font>
</defs>
</svg>
