<svg width="240" height="570" viewBox="0 0 240 570" fill="none" xmlns="http://www.w3.org/2000/svg">
<g opacity="0.8">
<path d="M348.292 6.12817L193.881 31.6211L68.7647 113.243L5.81519 284.09L81.5112 480.43L243.413 563.617L387.985 541.926L522.158 456.503L586.561 282.637L511.648 89.3155L348.292 6.12817Z" stroke="#2267AC" stroke-width="0.961574" stroke-miterlimit="10"/>
<path d="M243.413 563.617L188.738 508.159L182.7 329.821L226.194 150.7L193.881 31.6211L67.3112 192.741L5.81519 284.09L64.2923 377.788L188.738 508.159L387.985 541.926L504.156 386.062L511.648 200.903V89.3155" stroke="#2267AC" stroke-width="0.961574" stroke-miterlimit="10"/>
<path d="M68.7647 113.243L67.3111 192.741L64.2922 377.788L81.5111 480.43" stroke="#2267AC" stroke-width="0.961574" stroke-miterlimit="10"/>
<path d="M193.434 31.6211L381.724 70.084L511.648 89.3155" stroke="#2267AC" stroke-width="0.961574" stroke-miterlimit="10"/>
<path d="M67.4229 193.411L225.412 150.476L381.723 70.084L511.2 200.456L586.114 282.413L504.156 386.062" stroke="#2267AC" stroke-width="0.961574" stroke-miterlimit="10"/>
<path d="M66.864 193.412L181.917 329.821L336.328 431.01" stroke="#2267AC" stroke-width="0.961574" stroke-miterlimit="10"/>
<path d="M522.158 457.173L504.156 385.279L376.804 253.342L226.195 150.029" stroke="#2267AC" stroke-width="0.961574" stroke-miterlimit="10"/>
<path d="M511.648 201.686L377.475 254.125L181.917 329.821L63.5095 378.571" stroke="#2267AC" stroke-width="0.961574" stroke-miterlimit="10"/>
<path d="M81.5112 480.43L187.955 507.377L335.546 431.01L504.156 386.062" stroke="#2267AC" stroke-width="0.961574" stroke-miterlimit="10"/>
<path d="M194.552 507.824C194.574 509.005 194.243 510.166 193.6 511.158C192.958 512.149 192.033 512.926 190.946 513.388C189.859 513.851 188.658 513.977 187.498 513.752C186.338 513.527 185.272 512.961 184.437 512.125C183.601 511.29 183.035 510.224 182.81 509.064C182.585 507.904 182.711 506.703 183.174 505.616C183.636 504.529 184.413 503.604 185.404 502.962C186.396 502.319 187.557 501.988 188.738 502.01C190.28 502.01 191.759 502.622 192.849 503.713C193.94 504.803 194.552 506.282 194.552 507.824Z" fill="#2267AC"/>
<path d="M247.774 563.282C247.774 564.055 247.62 564.82 247.321 565.533C247.022 566.246 246.584 566.892 246.032 567.433C245.48 567.975 244.826 568.401 244.107 568.686C243.389 568.972 242.621 569.111 241.848 569.096C240.306 569.096 238.827 568.484 237.737 567.393C236.646 566.303 236.034 564.824 236.034 563.282C236.034 561.74 236.646 560.261 237.737 559.171C238.827 558.08 240.306 557.468 241.848 557.468C242.621 557.453 243.389 557.592 244.107 557.878C244.826 558.163 245.48 558.589 246.032 559.131C246.584 559.672 247.022 560.318 247.321 561.031C247.62 561.744 247.774 562.509 247.774 563.282Z" fill="#2267AC"/>
<path d="M86.2072 481.213C86.2072 482.755 85.5946 484.234 84.5043 485.324C83.4139 486.414 81.935 487.027 80.393 487.027C78.851 487.027 77.3722 486.414 76.2818 485.324C75.1914 484.234 74.5789 482.755 74.5789 481.213C74.5789 479.671 75.1914 478.192 76.2818 477.102C77.3722 476.011 78.851 475.399 80.393 475.399C81.935 475.399 83.4139 476.011 84.5043 477.102C85.5946 478.192 86.2072 479.671 86.2072 481.213Z" fill="#2267AC"/>
<path d="M70.1065 378.235C70.0845 379.38 69.7249 380.493 69.0728 381.434C68.4207 382.376 67.5051 383.103 66.4409 383.526C65.3768 383.949 64.2114 384.049 63.0911 383.812C61.9707 383.575 60.9452 383.013 60.1432 382.195C59.3412 381.378 58.7985 380.342 58.5831 379.217C58.3676 378.092 58.4891 376.929 58.9323 375.873C59.3754 374.817 60.1205 373.916 61.0741 373.282C62.0277 372.648 63.1472 372.309 64.2923 372.309C65.0654 372.309 65.8307 372.463 66.5435 372.762C67.2563 373.061 67.9022 373.5 68.4436 374.051C68.985 374.603 69.4109 375.257 69.6964 375.976C69.982 376.694 70.1214 377.462 70.1065 378.235Z" fill="#2267AC"/>
<path d="M11.7412 284.09C11.7412 285.662 11.1169 287.169 10.0055 288.281C8.8942 289.392 7.38691 290.016 5.81524 290.016C5.04221 290.017 4.27692 289.862 3.56413 289.563C2.85133 289.264 2.20534 288.826 1.66396 288.274C1.12258 287.722 0.696671 287.068 0.411145 286.35C0.125618 285.631 -0.0137907 284.863 0.00107527 284.09C0.00107527 282.548 0.613633 281.07 1.704 279.979C2.79437 278.889 4.27323 278.276 5.81524 278.276C6.58812 278.261 7.35621 278.401 8.07458 278.686C8.79294 278.972 9.44716 279.398 9.99895 279.939C10.5507 280.48 10.989 281.126 11.2882 281.839C11.5873 282.552 11.7414 283.317 11.7412 284.09Z" fill="#2267AC"/>
<path d="M73.5726 193.412C73.5726 194.983 72.9482 196.491 71.8369 197.602C70.7256 198.713 69.2183 199.338 67.6466 199.338C66.2291 199.141 64.9305 198.439 63.9905 197.36C63.0505 196.281 62.5327 194.898 62.5327 193.467C62.5327 192.036 63.0505 190.654 63.9905 189.575C64.9305 188.496 66.2291 187.794 67.6466 187.597C69.1991 187.597 70.6897 188.206 71.7979 189.293C72.9061 190.381 73.5433 191.859 73.5726 193.412Z" fill="#2267AC"/>
<path d="M74.2436 113.243C74.2584 114.016 74.119 114.784 73.8335 115.503C73.548 116.221 73.1221 116.875 72.5807 117.427C72.0393 117.979 71.3933 118.417 70.6805 118.716C69.9677 119.015 69.2024 119.169 68.4294 119.169C66.8577 119.169 65.3504 118.545 64.2391 117.434C63.1278 116.322 62.5034 114.815 62.5034 113.243C62.5033 112.47 62.6573 111.705 62.9564 110.992C63.2556 110.279 63.6939 109.633 64.2457 109.092C64.7975 108.551 65.4517 108.125 66.17 107.839C66.8884 107.554 67.6565 107.414 68.4294 107.429C69.9714 107.429 71.4503 108.042 72.5406 109.132C73.631 110.222 74.2436 111.701 74.2436 113.243Z" fill="#2267AC"/>
<path d="M199.807 31.6211C199.807 32.3941 199.653 33.1594 199.354 33.8722C199.055 34.585 198.617 35.2309 198.065 35.7723C197.513 36.3137 196.859 36.7396 196.14 37.0251C195.422 37.3107 194.654 37.4501 193.881 37.4352C192.339 37.4352 190.86 36.8227 189.77 35.7323C188.68 34.6419 188.067 33.1631 188.067 31.6211C188.052 30.8482 188.192 30.0801 188.477 29.3617C188.763 28.6433 189.188 27.9891 189.73 27.4373C190.271 26.8855 190.917 26.4472 191.63 26.1481C192.343 25.8489 193.108 25.6949 193.881 25.6951C195.453 25.6951 196.96 26.3194 198.071 27.4308C199.183 28.5421 199.807 30.0494 199.807 31.6211Z" fill="#2267AC"/>
<path d="M232.009 150.364C232.024 151.137 231.884 151.905 231.599 152.624C231.313 153.342 230.887 153.996 230.346 154.548C229.804 155.1 229.158 155.538 228.446 155.837C227.733 156.136 226.968 156.29 226.195 156.29C224.623 156.29 223.116 155.666 222.004 154.555C220.893 153.443 220.269 151.936 220.269 150.364C220.268 149.591 220.422 148.826 220.722 148.113C221.021 147.4 221.459 146.754 222.011 146.213C222.563 145.672 223.217 145.246 223.935 144.96C224.654 144.675 225.422 144.535 226.195 144.55C227.737 144.55 229.215 145.163 230.306 146.253C231.396 147.343 232.009 148.822 232.009 150.364Z" fill="#2267AC"/>
<path d="M188.514 329.709C188.529 330.482 188.39 331.25 188.104 331.968C187.819 332.687 187.393 333.341 186.851 333.893C186.31 334.445 185.664 334.883 184.951 335.182C184.238 335.481 183.473 335.635 182.7 335.635C181.128 335.635 179.621 335.011 178.51 333.899C177.399 332.788 176.774 331.281 176.774 329.709C176.774 328.936 176.928 328.171 177.227 327.458C177.526 326.745 177.965 326.099 178.516 325.558C179.068 325.016 179.722 324.59 180.441 324.305C181.159 324.019 181.927 323.88 182.7 323.895C184.242 323.895 185.721 324.507 186.811 325.598C187.902 326.688 188.514 328.167 188.514 329.709Z" fill="#2267AC"/>
</g>
</svg>
