<svg width="707" height="685" viewBox="0 0 707 685" fill="none" xmlns="http://www.w3.org/2000/svg">
<g style="mix-blend-mode:color-dodge" opacity="0.8">
<path d="M418.916 6.99292L233.195 37.6551L82.7084 135.828L6.99438 341.318L98.0395 577.47L292.771 677.526L466.658 651.436L628.038 548.691L705.5 339.57L615.396 107.048L418.916 6.99292Z" stroke="#2267AC" stroke-width="1.15656" stroke-miterlimit="10"/>
<path d="M292.771 677.526L227.009 610.822L219.747 396.322L272.061 180.88L233.195 37.6553L80.9601 231.445L6.99438 341.318L77.3291 454.015L227.009 610.822L466.658 651.436L606.386 463.967L615.396 241.263V107.049" stroke="#2267AC" stroke-width="1.15656" stroke-miterlimit="10"/>
<path d="M82.7085 135.828L80.9602 231.445L77.3291 454.015L98.0395 577.471" stroke="#2267AC" stroke-width="1.15656" stroke-miterlimit="10"/>
<path d="M418.916 6.99292L458.589 83.5138L454.016 305.277L405.468 518.029L466.658 651.436" stroke="#2267AC" stroke-width="1.15656" stroke-miterlimit="10"/>
<path d="M232.657 37.6553L459.127 83.9175L615.396 107.049" stroke="#2267AC" stroke-width="1.15656" stroke-miterlimit="10"/>
<path d="M81.0945 232.252L271.119 180.611L459.127 83.9172L614.858 240.725L704.962 339.301L606.386 463.967" stroke="#2267AC" stroke-width="1.15656" stroke-miterlimit="10"/>
<path d="M80.4221 232.252L218.805 396.322L404.527 518.029" stroke="#2267AC" stroke-width="1.15656" stroke-miterlimit="10"/>
<path d="M628.038 549.498L606.386 463.025L453.21 304.335L272.061 180.073" stroke="#2267AC" stroke-width="1.15656" stroke-miterlimit="10"/>
<path d="M615.396 242.204L454.016 305.277L218.805 396.322L76.3876 454.956" stroke="#2267AC" stroke-width="1.15656" stroke-miterlimit="10"/>
<path d="M98.0396 577.471L226.068 609.881L403.585 518.029L606.386 463.967" stroke="#2267AC" stroke-width="1.15656" stroke-miterlimit="10"/>
<path d="M622.12 107.586C621.884 109.291 621.04 110.853 619.742 111.984C618.444 113.114 616.781 113.737 615.06 113.737C613.339 113.737 611.676 113.114 610.378 111.984C609.08 110.853 608.235 109.291 608 107.586C607.86 106.577 607.938 105.55 608.229 104.574C608.52 103.598 609.017 102.696 609.686 101.928C610.355 101.16 611.181 100.544 612.108 100.122C613.035 99.7002 614.041 99.4819 615.06 99.4819C616.079 99.4819 617.085 99.7002 618.012 100.122C618.939 100.544 619.765 101.16 620.434 101.928C621.103 102.696 621.6 103.598 621.891 104.574C622.182 105.55 622.26 106.577 622.12 107.586Z" fill="#2267AC"/>
<path d="M622.524 241.263C622.524 243.153 621.773 244.966 620.436 246.303C619.1 247.639 617.287 248.39 615.396 248.39C613.691 248.154 612.129 247.31 610.999 246.012C609.868 244.714 609.245 243.051 609.245 241.33C609.245 239.609 609.868 237.946 610.999 236.648C612.129 235.35 613.691 234.505 615.396 234.27C617.263 234.269 619.056 235.002 620.389 236.309C621.722 237.617 622.489 239.396 622.524 241.263Z" fill="#2267AC"/>
<path d="M461.144 305.277C461.144 307.167 460.393 308.98 459.056 310.317C457.72 311.653 455.907 312.404 454.016 312.404C453.087 312.404 452.166 312.219 451.309 311.859C450.451 311.5 449.675 310.972 449.023 310.309C448.372 309.645 447.86 308.858 447.516 307.994C447.173 307.13 447.005 306.206 447.023 305.277C447.023 303.422 447.76 301.643 449.072 300.332C450.383 299.02 452.162 298.284 454.016 298.284C454.946 298.266 455.87 298.433 456.734 298.777C457.598 299.12 458.385 299.632 459.048 300.284C459.712 300.935 460.239 301.712 460.599 302.569C460.959 303.426 461.144 304.347 461.144 305.277Z" fill="#2267AC"/>
<path d="M613.513 463.025C613.513 464.916 612.762 466.729 611.426 468.065C610.089 469.402 608.276 470.153 606.386 470.153C605.456 470.153 604.536 469.968 603.678 469.608C602.821 469.248 602.044 468.721 601.393 468.057C600.742 467.394 600.229 466.607 599.886 465.743C599.542 464.879 599.375 463.955 599.393 463.025C599.393 461.171 600.129 459.392 601.441 458.081C602.752 456.769 604.531 456.032 606.386 456.032C607.315 456.014 608.239 456.182 609.103 456.525C609.967 456.869 610.754 457.381 611.418 458.032C612.082 458.684 612.609 459.461 612.969 460.318C613.328 461.175 613.514 462.096 613.513 463.025Z" fill="#2267AC"/>
<path d="M635.031 548.691C635.031 550.546 634.294 552.325 632.983 553.636C631.671 554.948 629.892 555.684 628.038 555.684C626.183 555.684 624.404 554.948 623.093 553.636C621.781 552.325 621.044 550.546 621.044 548.691C621.044 547.773 621.225 546.864 621.577 546.015C621.928 545.167 622.443 544.396 623.093 543.746C623.742 543.097 624.513 542.582 625.361 542.23C626.21 541.879 627.119 541.698 628.038 541.698C628.956 541.698 629.865 541.879 630.714 542.23C631.562 542.582 632.333 543.097 632.983 543.746C633.632 544.396 634.147 545.167 634.498 546.015C634.85 546.864 635.031 547.773 635.031 548.691Z" fill="#2267AC"/>
<path d="M473.785 651.033C473.786 651.963 473.6 652.883 473.241 653.74C472.881 654.598 472.354 655.375 471.69 656.026C471.026 656.677 470.239 657.189 469.375 657.533C468.511 657.876 467.587 658.044 466.658 658.026C465.739 658.026 464.83 657.845 463.982 657.494C463.133 657.142 462.362 656.627 461.713 655.978C461.064 655.328 460.548 654.557 460.197 653.709C459.846 652.861 459.665 651.951 459.665 651.033C459.647 650.103 459.814 649.179 460.158 648.315C460.501 647.451 461.014 646.665 461.665 646.001C462.316 645.337 463.093 644.81 463.95 644.45C464.808 644.09 465.728 643.905 466.658 643.905C467.594 643.905 468.521 644.09 469.385 644.448C470.25 644.806 471.036 645.331 471.698 645.993C472.36 646.655 472.885 647.44 473.243 648.305C473.601 649.17 473.785 650.097 473.785 651.033Z" fill="#2267AC"/>
<path d="M412.461 517.088C412.601 518.096 412.522 519.124 412.231 520.1C411.941 521.076 411.444 521.978 410.775 522.746C410.106 523.514 409.28 524.13 408.353 524.552C407.426 524.974 406.419 525.192 405.401 525.192C404.382 525.192 403.375 524.974 402.448 524.552C401.521 524.13 400.695 523.514 400.026 522.746C399.357 521.978 398.861 521.076 398.57 520.1C398.279 519.124 398.201 518.096 398.34 517.088C398.576 515.383 399.421 513.821 400.719 512.69C402.016 511.56 403.68 510.937 405.401 510.937C407.122 510.937 408.785 511.56 410.083 512.69C411.38 513.821 412.225 515.383 412.461 517.088Z" fill="#2267AC"/>
<path d="M234.002 610.419C234.028 611.84 233.63 613.236 232.857 614.429C232.084 615.621 230.972 616.556 229.665 617.112C228.357 617.668 226.913 617.82 225.518 617.549C224.123 617.279 222.84 616.597 221.836 615.592C220.831 614.588 220.149 613.305 219.878 611.91C219.608 610.515 219.76 609.071 220.316 607.763C220.872 606.456 221.807 605.344 222.999 604.571C224.192 603.798 225.588 603.399 227.009 603.426C228.863 603.426 230.642 604.163 231.954 605.474C233.265 606.786 234.002 608.564 234.002 610.419Z" fill="#2267AC"/>
<path d="M298.016 677.123C298.016 678.052 297.831 678.973 297.471 679.83C297.111 680.687 296.584 681.464 295.92 682.116C295.257 682.767 294.47 683.279 293.606 683.622C292.742 683.966 291.818 684.134 290.888 684.116C289.034 684.116 287.255 683.379 285.943 682.067C284.632 680.756 283.895 678.977 283.895 677.123C283.895 675.268 284.632 673.489 285.943 672.178C287.255 670.866 289.034 670.129 290.888 670.129C291.818 670.112 292.742 670.279 293.606 670.623C294.47 670.966 295.257 671.478 295.92 672.129C296.584 672.781 297.111 673.558 297.471 674.415C297.831 675.272 298.016 676.193 298.016 677.123Z" fill="#2267AC"/>
<path d="M103.688 578.412C103.688 580.267 102.951 582.045 101.64 583.357C100.328 584.668 98.5493 585.405 96.6946 585.405C94.8399 585.405 93.0612 584.668 91.7497 583.357C90.4383 582.045 89.7015 580.267 89.7015 578.412C89.7015 576.557 90.4383 574.778 91.7497 573.467C93.0612 572.156 94.8399 571.419 96.6946 571.419C98.5493 571.419 100.328 572.156 101.64 573.467C102.951 574.778 103.688 576.557 103.688 578.412Z" fill="#2267AC"/>
<path d="M84.3222 454.553C84.2957 455.93 83.8631 457.269 83.0788 458.401C82.2945 459.533 81.1933 460.408 79.9133 460.917C78.6334 461.426 77.2318 461.545 75.8842 461.26C74.5366 460.976 73.3032 460.299 72.3386 459.316C71.374 458.333 70.7212 457.087 70.4621 455.734C70.203 454.381 70.3491 452.982 70.8821 451.712C71.4151 450.442 72.3113 449.358 73.4582 448.595C74.6051 447.833 75.9517 447.426 77.329 447.425C78.2588 447.425 79.1793 447.61 80.0366 447.97C80.894 448.33 81.6709 448.857 82.3221 449.521C82.9733 450.185 83.4855 450.971 83.829 451.835C84.1724 452.699 84.3401 453.623 84.3222 454.553Z" fill="#2267AC"/>
<path d="M14.122 341.318C14.122 343.208 13.3711 345.021 12.0344 346.358C10.6977 347.695 8.88477 348.446 6.99441 348.446C6.06464 348.446 5.14417 348.261 4.28684 347.901C3.4295 347.541 2.65253 347.014 2.00136 346.35C1.3502 345.687 0.837937 344.9 0.494514 344.036C0.151091 343.172 -0.016587 342.248 0.00129331 341.318C0.00129331 339.463 0.738061 337.685 2.04953 336.373C3.36099 335.062 5.13972 334.325 6.99441 334.325C7.92402 334.307 8.84785 334.475 9.71188 334.818C10.5759 335.162 11.3628 335.674 12.0265 336.325C12.6902 336.976 13.2173 337.753 13.5771 338.611C13.9369 339.468 14.1222 340.388 14.122 341.318Z" fill="#2267AC"/>
<path d="M88.4912 232.252C88.4912 234.143 87.7402 235.956 86.4035 237.292C85.0669 238.629 83.2539 239.38 81.3636 239.38C79.6586 239.144 78.0967 238.299 76.9661 237.002C75.8355 235.704 75.2127 234.041 75.2127 232.32C75.2127 230.598 75.8355 228.935 76.9661 227.638C78.0967 226.34 79.6586 225.495 81.3636 225.259C83.2309 225.259 85.0237 225.991 86.3566 227.299C87.6895 228.607 88.4559 230.385 88.4912 232.252Z" fill="#2267AC"/>
<path d="M89.2982 135.828C89.316 136.758 89.1484 137.681 88.8049 138.545C88.4615 139.409 87.9492 140.196 87.2981 140.86C86.6469 141.524 85.8699 142.051 85.0126 142.411C84.1553 142.77 83.2348 142.956 82.305 142.956C80.4147 142.956 78.6017 142.205 77.2651 140.868C75.9284 139.531 75.1774 137.718 75.1774 135.828C75.1773 134.898 75.3625 133.978 75.7223 133.12C76.0821 132.263 76.6093 131.486 77.273 130.835C77.9367 130.184 78.7235 129.671 79.5876 129.328C80.4516 128.985 81.3754 128.817 82.305 128.835C84.1597 128.835 85.9385 129.572 87.2499 130.883C88.5614 132.194 89.2982 133.973 89.2982 135.828Z" fill="#2267AC"/>
<path d="M240.323 37.6552C240.323 38.585 240.138 39.5054 239.778 40.3628C239.418 41.2201 238.891 41.9971 238.227 42.6482C237.563 43.2994 236.776 43.8117 235.912 44.1551C235.048 44.4985 234.125 44.6662 233.195 44.6483C231.34 44.6483 229.562 43.9116 228.25 42.6001C226.939 41.2886 226.202 39.5099 226.202 37.6552C226.184 36.7256 226.352 35.8017 226.695 34.9377C227.039 34.0737 227.551 33.2868 228.202 32.6231C228.853 31.9595 229.63 31.4323 230.487 31.0725C231.345 30.7127 232.265 30.5274 233.195 30.5276C235.085 30.5276 236.898 31.2785 238.235 32.6152C239.572 33.9519 240.323 35.7648 240.323 37.6552Z" fill="#2267AC"/>
<path d="M279.054 180.476C279.072 181.406 278.904 182.33 278.561 183.194C278.217 184.058 277.705 184.845 277.054 185.508C276.403 186.172 275.626 186.699 274.768 187.059C273.911 187.419 272.991 187.604 272.061 187.604C270.17 187.604 268.357 186.853 267.021 185.516C265.684 184.18 264.933 182.367 264.933 180.476C264.933 179.547 265.118 178.626 265.478 177.769C265.838 176.911 266.365 176.134 267.029 175.483C267.692 174.832 268.479 174.32 269.343 173.976C270.207 173.633 271.131 173.465 272.061 173.483C273.915 173.483 275.694 174.22 277.006 175.531C278.317 176.843 279.054 178.622 279.054 180.476Z" fill="#2267AC"/>
<path d="M226.74 396.187C226.758 397.117 226.59 398.04 226.247 398.905C225.903 399.769 225.391 400.555 224.74 401.219C224.089 401.883 223.312 402.41 222.454 402.77C221.597 403.13 220.677 403.315 219.747 403.315C217.856 403.315 216.043 402.564 214.707 401.227C213.37 399.89 212.619 398.077 212.619 396.187C212.619 395.257 212.804 394.337 213.164 393.479C213.524 392.622 214.051 391.845 214.715 391.194C215.378 390.543 216.165 390.031 217.029 389.687C217.893 389.344 218.817 389.176 219.747 389.194C221.601 389.194 223.38 389.931 224.692 391.242C226.003 392.554 226.74 394.332 226.74 396.187Z" fill="#2267AC"/>
<path d="M466.658 84.5896C466.658 85.5194 466.473 86.4399 466.113 87.2972C465.753 88.1545 465.226 88.9315 464.562 89.5827C463.899 90.2338 463.112 90.7461 462.248 91.0895C461.384 91.433 460.46 91.6006 459.53 91.5827C457.676 91.5827 455.897 90.846 454.585 89.5345C453.274 88.223 452.537 86.4443 452.537 84.5896C452.537 82.7349 453.274 80.9562 454.585 79.6447C455.897 78.3333 457.676 77.5965 459.53 77.5965C460.46 77.5786 461.384 77.7463 462.248 78.0897C463.112 78.4331 463.899 78.9454 464.562 79.5966C465.226 80.2477 465.753 81.0247 466.113 81.8821C466.473 82.7394 466.658 83.6599 466.658 84.5896Z" fill="#2267AC"/>
<path d="M425.909 6.99312C425.909 8.84781 425.173 10.6265 423.861 11.938C422.55 13.2495 420.771 13.9862 418.916 13.9862C417.062 13.9862 415.283 13.2495 413.971 11.938C412.66 10.6265 411.923 8.84781 411.923 6.99312C411.923 5.13843 412.66 3.3597 413.971 2.04823C415.283 0.736768 417.062 0 418.916 0C420.771 0 422.55 0.736768 423.861 2.04823C425.173 3.3597 425.909 5.13843 425.909 6.99312Z" fill="#2267AC"/>
</g>
</svg>
