<svg width="585" height="685" viewBox="0 0 585 685" fill="none" xmlns="http://www.w3.org/2000/svg">
<g style="mix-blend-mode:color-dodge" opacity="0.8">
<path d="M296.916 6.99292L111.195 37.6551L-39.2916 135.828L-115.006 341.318L-23.9605 577.47L170.771 677.526L344.658 651.436L506.038 548.691L583.5 339.57L493.396 107.048L296.916 6.99292Z" stroke="#2267AC" stroke-width="1.15656" stroke-miterlimit="10"/>
<path d="M170.771 677.526L105.009 610.822L97.7467 396.322L150.061 180.88L111.195 37.6552L-41.0399 231.445L-115.006 341.318L-44.6709 454.015L105.009 610.822L344.658 651.436L484.386 463.967L493.396 241.263V107.048" stroke="#2267AC" stroke-width="1.15656" stroke-miterlimit="10"/>
<path d="M296.916 6.99292L336.589 83.5138L332.016 305.277L283.468 518.029L344.658 651.436" stroke="#2267AC" stroke-width="1.15656" stroke-miterlimit="10"/>
<path d="M110.657 37.6552L337.127 83.9174L493.396 107.048" stroke="#2267AC" stroke-width="1.15656" stroke-miterlimit="10"/>
<path d="M-40.9054 232.252L149.119 180.611L337.127 83.9172L492.858 240.725L582.962 339.301L484.386 463.967" stroke="#2267AC" stroke-width="1.15656" stroke-miterlimit="10"/>
<path d="M-41.5779 232.252L96.8053 396.322L282.527 518.029" stroke="#2267AC" stroke-width="1.15656" stroke-miterlimit="10"/>
<path d="M506.038 549.498L484.386 463.025L331.21 304.335L150.061 180.073" stroke="#2267AC" stroke-width="1.15656" stroke-miterlimit="10"/>
<path d="M493.396 242.204L332.016 305.277L96.8054 396.322L-45.6123 454.957" stroke="#2267AC" stroke-width="1.15656" stroke-miterlimit="10"/>
<path d="M-23.9604 577.471L104.068 609.881L281.585 518.029L484.386 463.967" stroke="#2267AC" stroke-width="1.15656" stroke-miterlimit="10"/>
<path d="M500.12 107.586C499.884 109.291 499.04 110.853 497.742 111.984C496.444 113.114 494.781 113.737 493.06 113.737C491.339 113.737 489.676 113.114 488.378 111.984C487.08 110.853 486.235 109.291 486 107.586C485.86 106.577 485.938 105.55 486.229 104.574C486.52 103.598 487.017 102.696 487.686 101.928C488.355 101.16 489.181 100.544 490.108 100.122C491.035 99.7002 492.041 99.4819 493.06 99.4819C494.079 99.4819 495.085 99.7002 496.012 100.122C496.939 100.544 497.765 101.16 498.434 101.928C499.103 102.696 499.6 103.598 499.891 104.574C500.182 105.55 500.26 106.577 500.12 107.586Z" fill="#2267AC"/>
<path d="M500.524 241.263C500.524 243.153 499.773 244.966 498.436 246.303C497.1 247.639 495.287 248.39 493.396 248.39C491.691 248.154 490.129 247.31 488.999 246.012C487.868 244.714 487.245 243.051 487.245 241.33C487.245 239.609 487.868 237.946 488.999 236.648C490.129 235.35 491.691 234.505 493.396 234.27C495.264 234.269 497.056 235.002 498.389 236.309C499.722 237.617 500.489 239.396 500.524 241.263Z" fill="#2267AC"/>
<path d="M339.144 305.277C339.144 307.167 338.393 308.98 337.056 310.317C335.72 311.653 333.907 312.404 332.016 312.404C331.087 312.404 330.166 312.219 329.309 311.859C328.451 311.5 327.675 310.972 327.023 310.309C326.372 309.645 325.86 308.858 325.516 307.994C325.173 307.13 325.005 306.206 325.023 305.277C325.023 303.422 325.76 301.643 327.072 300.332C328.383 299.02 330.162 298.284 332.016 298.284C332.946 298.266 333.87 298.433 334.734 298.777C335.598 299.12 336.385 299.632 337.048 300.284C337.712 300.935 338.239 301.712 338.599 302.569C338.959 303.426 339.144 304.347 339.144 305.277Z" fill="#2267AC"/>
<path d="M491.513 463.026C491.513 464.916 490.762 466.729 489.426 468.065C488.089 469.402 486.276 470.153 484.386 470.153C483.456 470.153 482.536 469.968 481.678 469.608C480.821 469.248 480.044 468.721 479.393 468.058C478.742 467.394 478.229 466.607 477.886 465.743C477.542 464.879 477.375 463.955 477.393 463.026C477.393 461.171 478.129 459.392 479.441 458.081C480.752 456.769 482.531 456.032 484.386 456.032C485.315 456.015 486.239 456.182 487.103 456.526C487.967 456.869 488.754 457.381 489.418 458.032C490.082 458.684 490.609 459.461 490.969 460.318C491.328 461.175 491.514 462.096 491.513 463.026Z" fill="#2267AC"/>
<path d="M513.031 548.691C513.031 550.546 512.294 552.325 510.982 553.636C509.671 554.948 507.892 555.684 506.038 555.684C504.183 555.684 502.404 554.948 501.093 553.636C499.781 552.325 499.044 550.546 499.044 548.691C499.044 547.773 499.225 546.864 499.577 546.015C499.928 545.167 500.443 544.396 501.093 543.746C501.742 543.097 502.513 542.582 503.361 542.23C504.21 541.879 505.119 541.698 506.038 541.698C506.956 541.698 507.865 541.879 508.714 542.23C509.562 542.582 510.333 543.097 510.982 543.746C511.632 544.396 512.147 545.167 512.498 546.015C512.85 546.864 513.031 547.773 513.031 548.691Z" fill="#2267AC"/>
<path d="M351.785 651.033C351.786 651.963 351.6 652.883 351.24 653.74C350.881 654.598 350.353 655.375 349.69 656.026C349.026 656.677 348.239 657.189 347.375 657.533C346.511 657.876 345.587 658.044 344.658 658.026C343.739 658.026 342.83 657.845 341.982 657.494C341.133 657.142 340.362 656.627 339.713 655.978C339.063 655.328 338.548 654.557 338.197 653.709C337.845 652.861 337.665 651.951 337.665 651.033C337.647 650.103 337.814 649.179 338.158 648.315C338.501 647.451 339.014 646.665 339.665 646.001C340.316 645.337 341.093 644.81 341.95 644.45C342.807 644.09 343.728 643.905 344.658 643.905C345.594 643.905 346.521 644.09 347.385 644.448C348.25 644.806 349.036 645.331 349.698 645.993C350.36 646.655 350.885 647.44 351.243 648.305C351.601 649.17 351.785 650.097 351.785 651.033Z" fill="#2267AC"/>
<path d="M290.461 517.088C290.601 518.096 290.522 519.124 290.231 520.1C289.941 521.076 289.444 521.978 288.775 522.746C288.106 523.514 287.28 524.13 286.353 524.552C285.426 524.974 284.419 525.192 283.401 525.192C282.382 525.192 281.375 524.974 280.448 524.552C279.521 524.13 278.695 523.514 278.026 522.746C277.357 521.978 276.861 521.076 276.57 520.1C276.279 519.124 276.201 518.096 276.34 517.088C276.576 515.383 277.421 513.821 278.719 512.69C280.016 511.56 281.68 510.937 283.401 510.937C285.122 510.937 286.785 511.56 288.083 512.69C289.38 513.821 290.225 515.383 290.461 517.088Z" fill="#2267AC"/>
<path d="M112.002 610.419C112.028 611.84 111.63 613.236 110.857 614.429C110.084 615.621 108.972 616.556 107.665 617.112C106.357 617.668 104.913 617.82 103.518 617.549C102.123 617.279 100.84 616.597 99.8356 615.592C98.8307 614.588 98.1492 613.305 97.8785 611.91C97.6077 610.515 97.7602 609.071 98.3163 607.763C98.8723 606.456 99.8066 605.344 100.999 604.571C102.192 603.798 103.588 603.399 105.009 603.426C106.863 603.426 108.642 604.163 109.954 605.474C111.265 606.786 112.002 608.564 112.002 610.419Z" fill="#2267AC"/>
<path d="M176.016 677.123C176.016 678.052 175.831 678.973 175.471 679.83C175.111 680.687 174.584 681.464 173.92 682.116C173.257 682.767 172.47 683.279 171.606 683.622C170.742 683.966 169.818 684.134 168.888 684.116C167.034 684.116 165.255 683.379 163.943 682.067C162.632 680.756 161.895 678.977 161.895 677.123C161.895 675.268 162.632 673.489 163.943 672.178C165.255 670.866 167.034 670.129 168.888 670.129C169.818 670.112 170.742 670.279 171.606 670.623C172.47 670.966 173.257 671.478 173.92 672.129C174.584 672.781 175.111 673.558 175.471 674.415C175.831 675.272 176.016 676.193 176.016 677.123Z" fill="#2267AC"/>
<path d="M118.323 37.6551C118.323 38.5849 118.138 39.5053 117.778 40.3627C117.418 41.22 116.891 41.997 116.227 42.6481C115.563 43.2993 114.776 43.8115 113.912 44.155C113.048 44.4984 112.125 44.6661 111.195 44.6482C109.34 44.6482 107.562 43.9114 106.25 42.6C104.939 41.2885 104.202 39.5098 104.202 37.6551C104.184 36.7255 104.352 35.8016 104.695 34.9376C105.039 34.0736 105.551 33.2867 106.202 32.623C106.853 31.9593 107.63 31.4322 108.487 31.0723C109.345 30.7125 110.265 30.5273 111.195 30.5275C113.085 30.5275 114.898 31.2784 116.235 32.6151C117.572 33.9518 118.323 35.7647 118.323 37.6551Z" fill="#2267AC"/>
<path d="M157.054 180.476C157.072 181.406 156.904 182.33 156.561 183.194C156.217 184.058 155.705 184.845 155.054 185.508C154.403 186.172 153.626 186.699 152.768 187.059C151.911 187.419 150.991 187.604 150.061 187.604C148.17 187.604 146.357 186.853 145.021 185.516C143.684 184.18 142.933 182.367 142.933 180.476C142.933 179.546 143.118 178.626 143.478 177.769C143.838 176.911 144.365 176.134 145.029 175.483C145.692 174.832 146.479 174.32 147.343 173.976C148.207 173.633 149.131 173.465 150.061 173.483C151.915 173.483 153.694 174.22 155.006 175.531C156.317 176.843 157.054 178.622 157.054 180.476Z" fill="#2267AC"/>
<path d="M104.74 396.187C104.758 397.117 104.59 398.04 104.247 398.905C103.903 399.769 103.391 400.555 102.74 401.219C102.089 401.883 101.312 402.41 100.454 402.77C99.597 403.13 98.6765 403.315 97.7467 403.315C95.8564 403.315 94.0435 402.564 92.7068 401.227C91.3701 399.89 90.6191 398.077 90.6191 396.187C90.619 395.257 90.8042 394.337 91.164 393.479C91.5239 392.622 92.051 391.845 92.7147 391.194C93.3784 390.543 94.1653 390.031 95.0293 389.687C95.8933 389.344 96.8171 389.176 97.7467 389.194C99.6014 389.194 101.38 389.931 102.692 391.242C104.003 392.554 104.74 394.332 104.74 396.187Z" fill="#2267AC"/>
<path d="M344.658 84.5897C344.658 85.5195 344.473 86.44 344.113 87.2973C343.753 88.1547 343.226 88.9316 342.562 89.5828C341.899 90.234 341.112 90.7462 340.248 91.0897C339.384 91.4331 338.46 91.6007 337.53 91.5829C335.676 91.5829 333.897 90.8461 332.585 89.5346C331.274 88.2232 330.537 86.4444 330.537 84.5897C330.537 82.7351 331.274 80.9563 332.585 79.6449C333.897 78.3334 335.676 77.5966 337.53 77.5966C338.46 77.5787 339.384 77.7464 340.248 78.0898C341.112 78.4333 341.899 78.9455 342.562 79.5967C343.226 80.2479 343.753 81.0248 344.113 81.8822C344.473 82.7395 344.658 83.66 344.658 84.5897Z" fill="#2267AC"/>
<path d="M303.909 6.993C303.909 8.84769 303.173 10.6264 301.861 11.9379C300.55 13.2493 298.771 13.9861 296.916 13.9861C295.062 13.9861 293.283 13.2493 291.971 11.9379C290.66 10.6264 289.923 8.84769 289.923 6.993C289.923 5.13831 290.66 3.35958 291.971 2.04811C293.283 0.736646 295.062 -0.00012207 296.916 -0.00012207C298.771 -0.00012207 300.55 0.736646 301.861 2.04811C303.173 3.35958 303.909 5.13831 303.909 6.993Z" fill="#2267AC"/>
</g>
</svg>
