<svg width="70" height="64" viewBox="0 0 70 64" fill="none" xmlns="http://www.w3.org/2000/svg">
<path d="M54 36C62.8366 36 70 28.8366 70 20C70 11.1634 62.8366 4 54 4C45.1634 4 38 11.1634 38 20C38 28.8366 45.1634 36 54 36Z" fill="url(#paint0_linear_397_15516)"/>
<path d="M24.0013 24L36.0013 32L48.0013 24M8.0013 36H13.3346M2.66797 28H13.3346" stroke="black" stroke-width="3" stroke-linecap="round" stroke-linejoin="round"/>
<path d="M13.332 20.0007V18.6673C13.332 17.2528 13.8939 15.8963 14.8941 14.8961C15.8943 13.8959 17.2509 13.334 18.6654 13.334H53.332C54.7465 13.334 56.1031 13.8959 57.1033 14.8961C58.1035 15.8963 58.6654 17.2528 58.6654 18.6673V45.334C58.6654 46.7485 58.1035 48.105 57.1033 49.1052C56.1031 50.1054 54.7465 50.6673 53.332 50.6673H18.6654C17.2509 50.6673 15.8943 50.1054 14.8941 49.1052C13.8939 48.105 13.332 46.7485 13.332 45.334V44.0006" stroke="black" stroke-width="3" stroke-linecap="round"/>
<defs>
<linearGradient id="paint0_linear_397_15516" x1="38" y1="20" x2="70" y2="20" gradientUnits="userSpaceOnUse">
<stop stop-color="#F26523"/>
<stop offset="0.534361" stop-color="#F77916"/>
<stop offset="0.868252" stop-color="#FF9900"/>
</linearGradient>
</defs>
</svg>
