<svg width="64" height="66" viewBox="0 0 64 66" fill="none" xmlns="http://www.w3.org/2000/svg">
<path d="M22 65.7893C30.8366 65.7893 38 58.4181 38 49.3253C38 40.2325 30.8366 32.8613 22 32.8613C13.1634 32.8613 6 40.2325 6 49.3253C6 58.4181 13.1634 65.7893 22 65.7893Z" fill="url(#paint0_linear_397_15796)"/>
<path d="M58.6653 13.334H42.6653M42.6653 13.334L50.6653 5.33398M42.6653 13.334L50.6653 21.334M48.3133 39.206L37.332 41.334C29.9133 37.6113 25.332 33.334 22.6653 26.6673L24.7187 15.654L20.8387 5.33398H10.836C7.82801 5.33398 5.46001 7.81932 5.91068 10.7927C7.03068 18.214 10.3373 31.6727 19.9987 41.334C30.1453 51.4807 44.7613 55.8833 52.804 57.6353C55.9107 58.31 58.6653 55.8887 58.6653 52.7073V43.15L48.3133 39.206Z" stroke="white" stroke-width="3" stroke-linecap="round" stroke-linejoin="round"/>
<defs>
<linearGradient id="paint0_linear_397_15796" x1="6" y1="49.3253" x2="38" y2="49.3253" gradientUnits="userSpaceOnUse">
<stop stop-color="#F26523"/>
<stop offset="0.534361" stop-color="#F77916"/>
<stop offset="0.868252" stop-color="#FF9900"/>
</linearGradient>
</defs>
</svg>
