<svg width="64" height="64" viewBox="0 0 64 64" fill="none" xmlns="http://www.w3.org/2000/svg">
<path d="M21 35C29.8366 35 37 27.8366 37 19C37 10.1634 29.8366 3 21 3C12.1634 3 5 10.1634 5 19C5 27.8366 12.1634 35 21 35Z" fill="url(#paint0_linear_397_15531)"/>
<path d="M53.3346 29.3333C53.3346 23.6754 51.087 18.2492 47.0862 14.2484C43.0855 10.2476 37.6593 8 32.0013 8C26.3434 8 20.9171 10.2476 16.9164 14.2484C12.9156 18.2492 10.668 23.6754 10.668 29.3333" stroke="black" stroke-width="3" stroke-linecap="round" stroke-linejoin="round"/>
<path d="M53.332 47.9993V49.3327C53.332 50.7472 52.7701 52.1037 51.7699 53.1039C50.7697 54.1041 49.4132 54.666 47.9987 54.666H38.6654M5.33203 41.1673V36.1647C5.33221 34.9754 5.72991 33.8202 6.46191 32.8829C7.19391 31.9455 8.21822 31.2797 9.37203 30.9913L14.012 29.8287C14.2478 29.77 14.4939 29.7657 14.7315 29.8162C14.9692 29.8668 15.1922 29.9708 15.3837 30.1204C15.5752 30.27 15.7301 30.4612 15.8366 30.6796C15.9432 30.8979 15.9986 31.1377 15.9987 31.3807V45.9487C15.9991 46.1922 15.944 46.4325 15.8374 46.6515C15.7309 46.8704 15.5758 47.0622 15.3839 47.2121C15.1921 47.3621 14.9685 47.4662 14.7303 47.5167C14.4921 47.5672 14.2455 47.5626 14.0094 47.5033L9.36936 46.3433C8.21605 46.0544 7.19234 45.3884 6.46086 44.4511C5.72938 43.5138 5.33206 42.359 5.33203 41.17V41.1673ZM58.6654 41.1673V36.1647C58.6652 34.9754 58.2675 33.8202 57.5355 32.8829C56.8035 31.9455 55.7792 31.2797 54.6254 30.9913L49.9854 29.8287C49.7496 29.77 49.5035 29.7657 49.2659 29.8162C49.0282 29.8668 48.8052 29.9708 48.6137 30.1204C48.4222 30.27 48.2673 30.4612 48.1608 30.6796C48.0542 30.8979 47.9988 31.1377 47.9987 31.3807V45.9487C47.9984 46.1919 48.0535 46.432 48.1599 46.6507C48.2663 46.8694 48.4211 47.0609 48.6126 47.2108C48.8042 47.3607 49.0274 47.4649 49.2652 47.5156C49.5031 47.5663 49.7494 47.5621 49.9854 47.5033L54.6254 46.3433C55.7792 46.0549 56.8035 45.3891 57.5355 44.4518C58.2675 43.5144 58.6652 42.3593 58.6654 41.17V41.1673Z" stroke="black" stroke-width="3"/>
<path d="M36 58.666H28C26.9391 58.666 25.9217 58.2446 25.1716 57.4944C24.4214 56.7443 24 55.7269 24 54.666C24 53.6051 24.4214 52.5877 25.1716 51.8376C25.9217 51.0874 26.9391 50.666 28 50.666H36C37.0609 50.666 38.0783 51.0874 38.8284 51.8376C39.5786 52.5877 40 53.6051 40 54.666C40 55.7269 39.5786 56.7443 38.8284 57.4944C38.0783 58.2446 37.0609 58.666 36 58.666Z" stroke="black" stroke-width="3"/>
<defs>
<linearGradient id="paint0_linear_397_15531" x1="5" y1="19" x2="37" y2="19" gradientUnits="userSpaceOnUse">
<stop stop-color="#F26523"/>
<stop offset="0.534361" stop-color="#F77916"/>
<stop offset="0.868252" stop-color="#FF9900"/>
</linearGradient>
</defs>
</svg>
