<?xml version="1.0" standalone="no"?>
<!DOCTYPE svg PUBLIC "-//W3C//DTD SVG 1.1//EN" "http://www.w3.org/Graphics/SVG/1.1/DTD/svg11.dtd" >
<svg xmlns="http://www.w3.org/2000/svg" xmlns:xlink="http://www.w3.org/1999/xlink" version="1.1">
<metadata>
Created by FontForge 20190801 at Sat May 28 07:57:49 2005
 By www-data
</metadata>
<defs>
<font id="CgBernhardtBdMedium" horiz-adv-x="500" >
  <font-face 
    font-family="CgBernhardtBdMedium"
    font-weight="500"
    font-stretch="normal"
    units-per-em="1000"
    panose-1="2 0 6 3 3 0 0 2 0 4"
    ascent="800"
    descent="-200"
    x-height="518"
    cap-height="709"
    bbox="-104 -315 1292 973"
    underline-thickness="50"
    underline-position="-125"
    unicode-range="U+0020-FB02"
  />
<missing-glyph horiz-adv-x="280" 
 />
    <glyph glyph-name=".notdef" horiz-adv-x="280" 
 />
    <glyph glyph-name=".null" horiz-adv-x="0" 
 />
    <glyph glyph-name="nonmarkingreturn" horiz-adv-x="276" 
 />
    <glyph glyph-name="space" unicode=" " horiz-adv-x="276" 
 />
    <glyph glyph-name="exclam" unicode="!" horiz-adv-x="297" 
d="M40 709l45 -461h131l44 461h-220zM40 96q0 -24 8.5 -44t23.5 -34.5t35 -23t43 -8.5t43 8.5t35 23t23.5 34.5t8.5 44t-8.5 44t-23.5 34.5t-35 23t-43 8.5t-43 -8.5t-35 -23.5t-23.5 -35t-8.5 -43z" />
    <glyph glyph-name="quotedbl" unicode="&#x22;" horiz-adv-x="372" 
d="M316 416l30 293h-144l27 -293h87zM140 416l30 293h-144l27 -293h87z" />
    <glyph glyph-name="numbersign" unicode="#" horiz-adv-x="589" 
d="M418 709l-35 -138h-121l35 138h-95l-35 -138h-92l-19 -78h91l-25 -99h-91l-20 -78h91l-42 -169h95l42 169h121l-42 -169h95l42 169h96l19 78h-95l25 99h95l20 78h-95l35 138h-95zM217 394l25 99h121l-25 -99h-121z" />
    <glyph glyph-name="dollar" unicode="$" horiz-adv-x="538" 
d="M330 687v129h-113v-128q-33 -7 -64 -23t-55 -40.5t-38 -58t-14 -75.5q0 -39 10.5 -68.5t35 -54t65 -45t101.5 -41.5q26 -9 47.5 -18.5t21.5 -28.5t-20 -29t-42 -10q-27 0 -51.5 7t-45.5 17.5t-38.5 24t-30.5 26.5l-84 -131q38 -33 90 -57.5t112 -32.5v-155h113v155
q21 4 52 16t60 34.5t49.5 57.5t20.5 84q0 48 -12.5 80.5t-34.5 55t-51 37.5t-62 27q-23 9 -46 15.5t-41 14t-29.5 16t-11.5 20.5q0 17 14.5 24.5t37.5 7.5q40 0 76 -18t68 -45l76 132q-24 23 -69 47t-97 31z" />
    <glyph glyph-name="percent" unicode="%" horiz-adv-x="943" 
d="M723 403q-45 0 -82 -17t-63.5 -45.5t-41 -66t-14.5 -79.5q0 -45 15 -83t42 -66t63.5 -44t80.5 -16q45 0 82 17t63.5 45.5t41 66.5t14.5 80q0 44 -16 82t-43.5 66t-64 44t-77.5 16zM650 189q0 40 18 63.5t54 23.5q34 0 53.5 -24.5t19.5 -62.5q0 -35 -19.5 -58.5
t-53.5 -23.5q-33 0 -52.5 23t-19.5 59zM657 724l-457 -738h87l459 738h-89zM221 724q-44 0 -81 -17t-63.5 -45.5t-41.5 -66t-15 -79.5q0 -45 15 -83t42 -66t63.5 -44t80.5 -16q45 0 82 17t63.5 45.5t41 66.5t14.5 80q0 44 -16 82t-43.5 66t-64 44t-77.5 16zM148 510
q0 40 18.5 63.5t54.5 23.5q34 0 53.5 -24.5t19.5 -62.5q0 -35 -19.5 -58.5t-53.5 -23.5q-33 0 -53 23t-20 59z" />
    <glyph glyph-name="ampersand" unicode="&#x26;" horiz-adv-x="946" 
d="M793 410q4 -5 6.5 -12.5t2.5 -12.5q0 -18 -17.5 -30t-38.5 -12h-12q-3 32 -10.5 61.5t-23.5 58.5l-168 -20q11 -17 20 -44t9 -62l-101 -4l-12 -117l109 4q-3 -13 -12 -28t-27.5 -28t-47 -21.5t-69.5 -8.5q-78 0 -124 32.5t-46 93.5q0 19 6 40t22.5 39t47 29.5t79.5 11.5
q1 0 6.5 -0.5l11 -1t9.5 -0.5t3 1q-12 9 -25 21t-23.5 27t-17.5 32t-7 35q0 13 4.5 26.5t14 24.5t24 18t35.5 7q35 0 53.5 -16t28.5 -36l128 85q-9 14 -27.5 35t-46.5 40t-67 32.5t-88 13.5q-58 0 -101.5 -17t-72.5 -43.5t-43.5 -58t-14.5 -59.5q0 -23 5.5 -45.5t16.5 -32.5
q-15 -3 -44.5 -13.5t-58.5 -34.5t-50.5 -64.5t-21.5 -102.5t24.5 -111.5t71 -84t115 -53t155.5 -18.5q75 0 129.5 14t93 36.5t63 50t38.5 54t20 48.5t7 35q40 0 79.5 8t70.5 26.5t50 48t19 72.5q0 29 -8.5 48.5t-18.5 29.5z" />
    <glyph glyph-name="quotesingle" unicode="'" horiz-adv-x="182" 
d="M133 416l30 293h-144l27 -293h87z" />
    <glyph glyph-name="parenleft" unicode="(" horiz-adv-x="385" 
d="M277 723q-36 -24 -79 -71t-81 -113.5t-63.5 -150.5t-25.5 -182q0 -100 26.5 -183.5t65.5 -149t83 -113t79 -75.5l91 95q-29 29 -61 69.5t-59 93.5t-45 119.5t-18 147.5q0 79 17 144t42.5 116.5t56 90t58.5 64.5z" />
    <glyph glyph-name="parenright" unicode=")" horiz-adv-x="385" 
d="M186 211q0 -81 -18 -147.5t-45 -119.5t-59.5 -93.5t-60.5 -69.5l91 -95q35 27 79 75t83 114t65.5 149.5t26.5 182.5q0 98 -25.5 182t-63.5 150.5t-81 113.5t-79 71l-86 -98q28 -26 58.5 -64.5t56 -90t42 -116.5t16.5 -144z" />
    <glyph glyph-name="asterisk" unicode="*" horiz-adv-x="513" 
d="M206 709l8 -178l-154 105l-45 -78l165 -86l-165 -86l45 -75l154 99l-12 -183h95l-10 183l151 -99l48 75l-165 86l165 86l-48 78l-151 -105l12 178h-93z" />
    <glyph glyph-name="plus" unicode="+" horiz-adv-x="634" 
d="M379 -14v211h211v124h-211v211h-124v-211h-211v-124h211v-211h124z" />
    <glyph glyph-name="comma" unicode="," horiz-adv-x="297" 
d="M96 202l-80 -355l100 -30l168 385h-188z" />
    <glyph glyph-name="hyphen" unicode="-" horiz-adv-x="360" 
d="M20 362v-170h320v170h-320z" />
    <glyph glyph-name="period" unicode="." horiz-adv-x="297" 
d="M37 96q0 -24 8.5 -44t23.5 -34.5t35 -23t43 -8.5t43 8.5t35 23t23.5 34.5t8.5 44t-8.5 44t-23.5 34.5t-35 23t-43 8.5t-43 -8.5t-35 -23.5t-23.5 -35t-8.5 -43z" />
    <glyph glyph-name="slash" unicode="/" horiz-adv-x="457" 
d="M381 759l-428 -908h85l428 908h-85z" />
    <glyph glyph-name="zero" unicode="0" horiz-adv-x="665" 
d="M334 724q-71 0 -129 -24.5t-99 -72t-64 -115.5t-23 -155q0 -95 22.5 -164.5t64 -115.5t99.5 -68.5t129 -22.5q67 0 124 23t98.5 69.5t65 116t23.5 162.5q0 89 -24 157.5t-65.5 115t-98.5 70.5t-123 24zM219 359q0 96 31 144t84 48q52 0 82 -48t30 -144q0 -100 -30 -148.5
t-82 -48.5q-54 0 -84.5 47t-30.5 150z" />
    <glyph glyph-name="one" unicode="1" horiz-adv-x="309" 
d="M51 709v-709h206v709h-206z" />
    <glyph glyph-name="two" unicode="2" horiz-adv-x="580" 
d="M335 177q8 9 27.5 26t43 40.5t48.5 51.5t46 60t34.5 66.5t13.5 69.5q0 48 -19 90t-53.5 74t-84 50.5t-109.5 18.5q-77 0 -129 -24t-84.5 -55.5t-47.5 -62.5t-19 -45l160 -79q2 7 7 21.5t15.5 28.5t28.5 25t47 11q30 0 51.5 -22t21.5 -63q0 -26 -16.5 -59.5t-51.5 -77.5
l-262 -322h539l15 177h-222z" />
    <glyph glyph-name="three" unicode="3" horiz-adv-x="594" 
d="M198 507q2 5 7.5 14t14.5 18t23 16t33 7q27 0 47 -15.5t20 -41.5q0 -23 -15 -43.5t-36.5 -38t-45.5 -31.5t-42 -24q15 -2 41.5 -9t52.5 -22t45.5 -38t19.5 -56q0 -12 -4 -26t-14 -26t-27.5 -20t-45.5 -8q-26 0 -44 7.5t-30 18t-18 21t-9 16.5l-150 -92q4 -6 20.5 -30
t49.5 -50.5t84 -47t123 -20.5q63 0 113 19t85 51.5t54 75t19 89.5q0 44 -14 75.5t-32.5 52t-38 31.5t-31.5 14q7 3 21.5 13t28.5 26.5t24.5 39t10.5 51.5q0 40 -14.5 76t-43.5 63.5t-73.5 44t-105.5 16.5q-53 0 -93.5 -11t-70.5 -29t-52 -41t-38 -48z" />
    <glyph glyph-name="four" unicode="4" horiz-adv-x="638" 
d="M349 568v-259h-143q24 40 48.5 94t44.5 112.5t35 116.5t20 106h-211q0 -1 0.5 -2t0.5 -2q0 -61 -8 -122.5t-21 -120.5t-29 -112.5t-32 -98.5t-30.5 -80t-24.5 -55h336v-145h191v145h70l15 164h-85v259h-177z" />
    <glyph glyph-name="five" unicode="5" horiz-adv-x="581" 
d="M93 709l-40 -426q12 7 32 17t45 19t52.5 15t54.5 6q66 0 98.5 -28t32.5 -64q0 -26 -12.5 -44t-31 -29t-39.5 -16t-38 -5q-46 0 -77 17t-48 34l-117 -129q12 -11 29.5 -26.5t46 -29.5t70.5 -24t102 -10q72 0 129.5 20t98 54.5t62 80t21.5 97.5q0 60 -21.5 105t-56 75
t-76.5 45t-82 15q-38 0 -56.5 -7t-24.5 -9l8 74h249l15 173h-426z" />
    <glyph glyph-name="six" unicode="6" horiz-adv-x="653" 
d="M324 753q-19 -11 -49 -33.5t-64 -54.5t-68 -74t-61.5 -91.5t-45 -107t-17.5 -120.5q0 -59 22.5 -111t63.5 -91t98.5 -61.5t127.5 -22.5q66 0 121.5 22t96 60.5t63 90.5t22.5 112q0 79 -28.5 129.5t-70.5 79t-89 39t-84 10.5q-7 0 -13.5 -1.5t-12.5 -3.5q30 42 79 80
t107 63zM214 270q0 54 31.5 85t76.5 31q51 0 83 -32t32 -83q0 -23 -9 -42.5t-24 -34t-34 -23t-38 -8.5q-28 0 -50 9t-37 23.5t-23 34t-8 40.5z" />
    <glyph glyph-name="seven" unicode="7" horiz-adv-x="578" 
d="M30 709l-30 -177h316l-211 -546h222l251 723h-548z" />
    <glyph glyph-name="eight" unicode="8" horiz-adv-x="642" 
d="M583 540q0 40 -19 74t-54 58.5t-84.5 38t-110.5 13.5q-65 0 -114.5 -16t-83.5 -43t-51 -63t-17 -76q0 -39 9.5 -66t23.5 -45.5t31.5 -30.5t32.5 -22q-18 -7 -40 -18t-41 -30t-31.5 -48t-12.5 -71q0 -94 75.5 -151.5t219.5 -57.5q67 0 123 16t96.5 44.5t63 68.5t22.5 89
q0 48 -20.5 82.5t-46.5 57t-50.5 35t-32.5 15.5q10 4 28.5 12.5t37 25.5t32.5 43t14 65zM322 588q14 0 29 -4.5t27 -12.5t20 -20.5t8 -28.5q0 -29 -16.5 -47.5t-39.5 -30.5q-15 4 -35.5 10.5t-39 16.5t-31 24t-12.5 33q0 18 9 29.5t22.5 18.5t29 9.5t29.5 2.5zM319 133
q-23 0 -44 4.5t-37.5 14.5t-26 24t-9.5 34q0 24 15.5 46.5t45.5 36.5q13 -3 29 -9t33 -12q51 -17 72 -32t21 -41q0 -16 -9.5 -28t-24 -20.5t-32 -13t-33.5 -4.5z" />
    <glyph glyph-name="nine" unicode="9" horiz-adv-x="653" 
d="M329 -43q19 11 49 33.5t63.5 54.5t68 74t62 91.5t45 107t17.5 120.5q0 58 -22.5 110t-63 91t-98.5 62t-128 23q-65 0 -120.5 -22t-96 -60t-63.5 -90.5t-23 -112.5q0 -80 28.5 -130t70.5 -78.5t89.5 -39t84.5 -10.5q7 0 12.5 1.5t12.5 3.5q-30 -42 -79.5 -80t-106.5 -63z
M439 440q0 -54 -31.5 -85t-76.5 -31q-51 0 -82.5 31.5t-31.5 83.5q0 23 9 42.5t23.5 34t33 23t38.5 8.5q28 0 50 -9t37 -24t23 -34t8 -40z" />
    <glyph glyph-name="colon" unicode=":" horiz-adv-x="297" 
d="M35 96q0 -24 8.5 -44t23.5 -34.5t35 -23t43 -8.5t43 8.5t35 23t23.5 34.5t8.5 44t-8.5 44t-23.5 34.5t-35 23t-43 8.5t-43 -8.5t-35 -23.5t-23.5 -35t-8.5 -43zM35 422q0 -23 8.5 -43t23.5 -35t35 -23.5t43 -8.5t43 8.5t35 23t23.5 34.5t8.5 44t-9 44t-24 35t-35 23
t-42 8q-23 0 -43 -8.5t-35 -23t-23.5 -34.5t-8.5 -44z" />
    <glyph glyph-name="semicolon" unicode=";" horiz-adv-x="297" 
d="M267 422q0 24 -9 44t-24 34.5t-35 23t-42 8.5q-23 0 -43 -8.5t-35 -23t-23.5 -34.5t-8.5 -43q0 -25 8.5 -45.5t23.5 -35t35 -22.5t43 -8q47 0 78.5 31.5t31.5 78.5zM77 202l-80 -355l100 -30l168 385h-188z" />
    <glyph glyph-name="less" unicode="&#x3c;" horiz-adv-x="850" 
d="M813 -1v590l-792 -292z" />
    <glyph glyph-name="equal" unicode="=" horiz-adv-x="634" 
d="M590 72v124h-546v-124h546zM590 322v124h-546v-124h546z" />
    <glyph glyph-name="greater" unicode="&#x3e;" horiz-adv-x="850" 
d="M43 -2v590l792 -292z" />
    <glyph glyph-name="question" unicode="?" horiz-adv-x="495" 
d="M311 258q0 26 12.5 44t31.5 33t40.5 29.5t40.5 34.5t31.5 48t12.5 69q0 48 -19.5 86.5t-52.5 65.5t-75.5 41.5t-88.5 14.5q-62 0 -104.5 -18t-70.5 -42.5t-43.5 -49.5t-21.5 -39l147 -76q2 6 7.5 17.5t15 22t23 18.5t32.5 8q25 0 41.5 -15.5t16.5 -41.5
q0 -31 -20.5 -53.5t-45.5 -45t-45.5 -49.5t-20.5 -67q0 -17 4 -33t6 -22h150q-4 11 -4 20zM132 96q0 -24 8.5 -44t23.5 -34.5t35 -23t43 -8.5q22 0 42 8t35 23t24 35t9 44t-9 44t-24 35t-35 23t-42 8q-47 0 -78.5 -31.5t-31.5 -78.5z" />
    <glyph glyph-name="at" unicode="@" horiz-adv-x="1000" 
d="M117 341q0 -79 30 -149t82 -122t122 -82t149 -30t149 30t122 82t82 122t30 149t-30 149t-82 122t-122 82t-149 30t-149 -30t-122 -82t-82 -122t-30 -149zM500 686q71 0 134 -27t110 -73.5t74.5 -109.5t27.5 -134t-27.5 -134t-74.5 -109.5t-110 -73.5t-134 -27t-133 27
t-108.5 74t-73.5 109.5t-27 133.5t27 133.5t73.5 109.5t108.5 74t133 27zM504 145q25 0 48.5 8t43.5 19.5t35 25t23 25.5l-32 23q-22 -25 -51 -42t-67 -17q-32 0 -60.5 12t-49.5 32.5t-33.5 48.5t-12.5 60t12 60t33.5 49t50.5 33t62 12q22 0 41 -6.5t34.5 -16.5t26.5 -21
t17 -20l34 20q-26 41 -67 63t-86 22q-41 0 -77.5 -15t-64 -41.5t-43.5 -62t-16 -76.5t16 -76.5t43 -61.5t63 -41.5t77 -15.5z" />
    <glyph glyph-name="A" unicode="A" horiz-adv-x="706" 
d="M231 709l-225 -709h213l36 133h195l37 -133h212l-228 709h-240zM412 282h-119l58 241z" />
    <glyph glyph-name="B" unicode="B" horiz-adv-x="640" 
d="M50 8q6 -1 26.5 -4.5t52 -7.5t71 -7t82.5 -3q64 0 125.5 10.5t109.5 35t77.5 64.5t29.5 98q0 45 -13.5 74t-32.5 46.5t-39 25t-32 9.5q9 3 26 11.5t33.5 26t28.5 45.5t12 69q0 53 -22.5 94.5t-62 70t-93.5 43.5t-117 15q-103 0 -173.5 -8t-88.5 -13v-695zM298 560
q19 0 38 -3.5t34 -12t24.5 -23t9.5 -35.5q0 -22 -8.5 -36.5t-23.5 -23.5t-34.5 -12.5t-40.5 -3.5q-23 0 -30.5 1.5t-10.5 1.5v143l12.5 2t29.5 2zM313 273q20 0 40 -3t36 -9.5t26 -18t10 -29.5q0 -19 -9.5 -31t-24.5 -19t-35 -9.5t-41 -2.5t-40 3l-19 3v110l18.5 3t38.5 3z
" />
    <glyph glyph-name="C" unicode="C" horiz-adv-x="687" 
d="M379 724q-78 0 -144 -30.5t-114 -81t-75 -116.5t-27 -136q0 -86 32 -155t84.5 -117.5t120.5 -75t140 -26.5q63 0 112.5 15t85.5 34t57.5 36.5t27.5 22.5l-112 155q-9 -8 -22.5 -18.5t-32.5 -20t-43.5 -16.5t-55.5 -7q-37 0 -68.5 13t-55 36t-37 54.5t-13.5 69.5
q0 34 12.5 64.5t34 53.5t50.5 36t62 13q36 0 62.5 -7.5t45.5 -17t30 -19.5t16 -14l109 159q-2 1 -20 16.5t-53 33t-87 32t-122 14.5z" />
    <glyph glyph-name="D" unicode="D" horiz-adv-x="689" 
d="M266 -14q99 0 174 24.5t126 72t77 116t26 156.5q0 87 -26 156t-77 116t-126 72t-173 25q-48 0 -86 -5t-65.5 -11t-44.5 -12t-21 -8v-669q4 -2 21 -7.5t44.5 -11t65.5 -10t85 -4.5zM456 355q0 -45 -12.5 -78.5t-33.5 -56t-49 -33.5t-59 -11q-24 0 -36 1.5l-12 1.5v359
q4 1 13 2t35 1q30 0 58 -11t49.5 -33.5t34 -58t12.5 -83.5z" />
    <glyph glyph-name="E" unicode="E" horiz-adv-x="554" 
d="M50 709v-709h458l29 177h-281v73h198l17 167h-215v115h254l-20 177h-440z" />
    <glyph glyph-name="F" unicode="F" horiz-adv-x="519" 
d="M50 709v-709h206v212h194l20 170h-214v150h253l-19 177h-440z" />
    <glyph glyph-name="G" unicode="G" horiz-adv-x="777" 
d="M407 724q-87 0 -158.5 -27.5t-122.5 -76.5t-78.5 -116.5t-27.5 -146.5q0 -71 25 -137.5t73 -118.5t118.5 -83.5t162.5 -31.5q67 0 120 17.5t93 47t68 68t46 80t26 84t8 79.5q0 5 -0.5 20.5t-0.5 24.5h-422l-30 -145h235q0 -11 -6 -28t-21.5 -33t-42 -27.5t-68.5 -11.5
q-49 0 -84 16.5t-57 43.5t-32 61.5t-10 70.5q0 41 14 75.5t38.5 59.5t58.5 39t75 14q36 0 63 -9t45.5 -20.5t28.5 -22t12 -13.5l128 129l-20 20t-54.5 40.5t-86.5 39.5t-116 18z" />
    <glyph glyph-name="H" unicode="H" horiz-adv-x="685" 
d="M429 709v-331h-173v331h-206v-709h206v208h173v-208h206v709h-206z" />
    <glyph glyph-name="I" unicode="I" horiz-adv-x="308" 
d="M50 709v-709h206v709h-206z" />
    <glyph glyph-name="J" unicode="J" horiz-adv-x="454" 
d="M199 709v-493q0 -22 -3.5 -35.5t-10.5 -21t-18 -10t-25 -2.5q-15 0 -28 4t-22.5 8.5t-15 8.5l-5.5 4l-70 -143l13 -6.5t35.5 -15t53 -15t65.5 -6.5q65 0 110 17t73 45.5t40.5 65t12.5 74.5v521h-205z" />
    <glyph glyph-name="K" unicode="K" horiz-adv-x="682" 
d="M486 724l-230 -315v300h-206v-709h206v317l236 -335l189 92l-230 289l213 268z" />
    <glyph glyph-name="L" unicode="L" horiz-adv-x="513" 
d="M50 709v-709h427l18 177h-239v532h-206z" />
    <glyph glyph-name="M" unicode="M" horiz-adv-x="844" 
d="M556 709l-129 -341l-130 341h-203l-67 -709h201l25 417l174 -424l177 424l21 -417h201l-67 709h-203z" />
    <glyph glyph-name="N" unicode="N" horiz-adv-x="715" 
d="M467 709l8 -403l-226 403h-199v-709h199l-7 411l225 -411h199v709h-199z" />
    <glyph glyph-name="O" unicode="O" horiz-adv-x="795" 
d="M398 724q-80 0 -149 -29.5t-120 -79.5t-80.5 -117.5t-29.5 -142.5q0 -79 29 -146.5t79.5 -117t119.5 -77.5t149 -28q81 0 150.5 28.5t120.5 78t80 117t29 145.5t-29.5 145.5t-81 117t-120.5 78t-147 28.5zM240 358q0 42 12.5 74t34 54.5t50.5 34t61 11.5q31 0 59 -12.5
t48.5 -35t32.5 -54.5t12 -72q0 -41 -12 -73t-33 -55t-49 -35t-59 -12q-29 0 -57 11t-50 33t-36 54.5t-14 76.5z" />
    <glyph glyph-name="P" unicode="P" horiz-adv-x="628" 
d="M50 0h206v207q2 -1 15 -2.5t45 -1.5q54 0 107 13.5t94.5 44t67.5 79t26 117.5q0 76 -31 127.5t-81 82.5t-113.5 44t-127.5 13q-86 0 -135.5 -9.5t-72.5 -15.5v-699zM293 548q19 0 40 -4t37.5 -14t27.5 -26.5t11 -40.5q0 -44 -31.5 -66.5t-82.5 -22.5q-16 0 -27 2t-13 2
v167l14 2t24 1z" />
    <glyph glyph-name="Q" unicode="Q" horiz-adv-x="782" 
d="M653 -45q-15 0 -43.5 6t-59 14t-58.5 14.5t-42 8.5q23 2 55.5 11.5t67 27.5t68.5 45.5t61 66.5t43.5 90.5t16.5 116.5q0 80 -29 147.5t-79.5 116.5t-117 76.5t-141.5 27.5q-81 0 -150 -28.5t-119.5 -78t-78.5 -116.5t-28 -144q0 -66 16.5 -117t43 -89.5t59.5 -65.5
t67.5 -44.5t66 -27t54.5 -12.5v-2q-2 0 -15.5 1t-19.5 1q-54 0 -91.5 -10t-60.5 -22l54 -140q2 1 12 5.5t25 9.5t35 9t43 4q50 0 89 -9t76 -20t74.5 -20t84.5 -9q2 0 4.5 1t5.5 1l77 162q-35 -8 -66 -8zM235 357q0 42 12.5 75t33.5 55t49.5 33.5t60.5 11.5q31 0 59 -12
t49.5 -34.5t34 -55t12.5 -73.5q0 -38 -12 -70t-33 -56t-49.5 -37.5t-60.5 -13.5t-60 12.5t-49.5 35.5t-34 55.5t-12.5 73.5z" />
    <glyph glyph-name="R" unicode="R" horiz-adv-x="645" 
d="M495 293q13 6 32.5 17.5t37.5 32.5t31 53.5t13 79.5q0 62 -26.5 108.5t-73.5 77.5t-111.5 46.5t-140.5 15.5q-38 0 -73 -3.5t-63 -8t-47 -9t-24 -5.5v-698h206v331l213 -349l188 93zM296 550q20 0 39.5 -5.5t34.5 -16.5t24.5 -28t9.5 -40q0 -24 -10 -41.5t-26.5 -29
t-37 -16.5t-41.5 -5q-8 0 -16.5 0.5t-16.5 1.5v177q2 1 9.5 2t30.5 1z" />
    <glyph glyph-name="S" unicode="S" horiz-adv-x="599" 
d="M315 724q-67 0 -119 -21t-87 -54.5t-53.5 -75.5t-18.5 -84q0 -53 16.5 -91t48 -65.5t77.5 -46t105 -31.5q17 -4 33 -8t28 -9t19.5 -13t7.5 -20q0 -22 -20 -34.5t-42 -12.5q-41 0 -72 8t-53.5 18.5t-38 22t-25.5 19.5l-99 -156q8 -6 30.5 -20t57.5 -28.5t82.5 -25
t105.5 -10.5q66 0 117.5 17.5t87.5 49t55 75t19 94.5q0 48 -14.5 85.5t-47 67t-85 51t-128.5 37.5q-38 8 -52.5 17t-14.5 26q0 12 7 19.5t17.5 12t24 6.5t26.5 2q32 0 59 -8t48 -19t35.5 -22t21.5 -16l88 163q-8 6 -26.5 19.5t-48.5 27t-73 23.5t-99 10z" />
    <glyph glyph-name="T" unicode="T" horiz-adv-x="585" 
d="M27 709l-24 -177h187v-532h206v532h154l24 177h-547z" />
    <glyph glyph-name="U" unicode="U" horiz-adv-x="700" 
d="M444 709v-439q0 -21 -4.5 -40.5t-15.5 -35.5t-28.5 -25.5t-43.5 -9.5q-25 0 -43 9t-30 24.5t-17.5 35.5t-5.5 42l1 439h-207v-450q0 -43 13 -91t46.5 -88.5t92 -67t149.5 -26.5q82 0 139 26t92.5 65.5t51.5 88t16 93.5v450h-206z" />
    <glyph glyph-name="V" unicode="V" horiz-adv-x="696" 
d="M473 724l-129 -481l-121 481l-219 -54l226 -670h222l240 670z" />
    <glyph glyph-name="W" unicode="W" horiz-adv-x="950" 
d="M739 724l-75 -532l-94 517h-178l-100 -517l-80 532l-206 -29l166 -695h221l85 397l74 -397h221l169 695z" />
    <glyph glyph-name="X" unicode="X" horiz-adv-x="674" 
d="M461 724l-114 -227l-112 227l-190 -75l173 -294l-210 -319l216 -50l116 216l115 -216l209 50l-200 319l182 294z" />
    <glyph glyph-name="Y" unicode="Y" horiz-adv-x="668" 
d="M474 724l-144 -251l-138 251l-184 -75l219 -355v-294h206v294l223 355z" />
    <glyph glyph-name="Z" unicode="Z" horiz-adv-x="590" 
d="M66 709l-22 -177h220l-259 -532h537l33 177h-267l262 532h-504z" />
    <glyph glyph-name="bracketleft" unicode="[" horiz-adv-x="297" 
d="M51 709v-937h237v71h-85v795h78v71h-230z" />
    <glyph glyph-name="bracketright" unicode="]" horiz-adv-x="297" 
d="M19 638h78v-795h-86v-71h238v937h-230v-71z" />
    <glyph glyph-name="underscore" unicode="_" horiz-adv-x="570" 
d="M0 -136h570v46h-570v-46z" />
    <glyph glyph-name="grave" unicode="`" horiz-adv-x="291" 
d="M8 674l240 -120l36 62l-218 151z" />
    <glyph glyph-name="a" unicode="a" horiz-adv-x="590" 
d="M129 364q5 3 17 9.5t29.5 12.5t40 10.5t49.5 4.5q51 0 72 -20t21 -49v-21q-2 1 -15 6t-41.5 11t-64.5 6q-38 0 -76.5 -10.5t-69.5 -32t-51 -54.5t-20 -79q0 -37 13.5 -68.5t39 -54.5t63 -36t84.5 -13q42 0 72.5 9t50 21t30 22.5t12.5 13.5q2 -15 6.5 -31.5t11.5 -30.5
l166 31q-7 10 -11.5 18t-6.5 21t-3 33t-1 54v192q0 42 -15 77t-45.5 61t-76.5 40.5t-108 14.5q-58 0 -98.5 -5.5t-68 -13.5t-44 -16t-26.5 -13zM286 112q-32 0 -49 15.5t-17 38.5q0 20 17.5 37t52.5 17q31 0 46.5 -4t19.5 -6v-32q0 -29 -19 -47.5t-51 -18.5z" />
    <glyph glyph-name="b" unicode="b" horiz-adv-x="630" 
d="M42 709v-594q0 -30 -1 -43.5t-10 -28.5q11 -7 31.5 -17t50 -19t69.5 -15t90 -6q62 0 122 14.5t107.5 48t77 88.5t29.5 136q0 54 -18 101t-52.5 82.5t-84 55.5t-113.5 20q-24 0 -43.5 -3.5t-33.5 -7.5t-21.5 -8t-8.5 -4v200h-191zM415 263q0 -53 -28 -87t-79 -34
q-44 0 -59.5 18.5t-15.5 52.5v144q11 5 24 8.5t40 3.5q56 0 87 -30.5t31 -75.5z" />
    <glyph glyph-name="c" unicode="c" horiz-adv-x="519" 
d="M296 532q-59 0 -109.5 -21t-87.5 -57.5t-58 -86.5t-21 -108q0 -59 22 -109t59.5 -86.5t87.5 -57t107 -20.5q52 0 91.5 12t66.5 26.5t41 26.5l14 12l-101 131q-2 -3 -8.5 -9.5t-17.5 -12.5t-25.5 -11t-33.5 -5q-21 0 -40 7t-34 20t-24 32t-9 43q0 18 7.5 36t21 32.5
t32.5 23t42 8.5q20 0 35.5 -4t27 -9.5t18 -10.5t8.5 -6l94 133l-13.5 11t-40 24.5t-65 24.5t-87.5 11z" />
    <glyph glyph-name="d" unicode="d" horiz-adv-x="628" 
d="M394 709v-200q-1 0 -8.5 4t-21 8t-33 7.5t-43.5 3.5q-64 0 -114 -20t-84.5 -55.5t-52.5 -82.5t-18 -101q0 -81 29.5 -136t77 -88.5t107.5 -48t122 -14.5q50 0 90 6.5t70 15.5t50.5 18.5t31.5 16.5q-5 8 -8 22.5t-3 49.5v594h-192zM319 144q-29 0 -50 9.5t-34 26t-19 37.5
t-6 44q0 17 6 36t19.5 35.5t36 27t56.5 10.5t49.5 -5t18.5 -7v-145q0 -37 -17 -53t-60 -16z" />
    <glyph glyph-name="e" unicode="e" horiz-adv-x="586" 
d="M566 265q0 54 -18.5 102.5t-53.5 85t-86 58t-115 21.5q-54 0 -103.5 -19t-87 -54.5t-60 -86t-22.5 -113.5q0 -57 21.5 -107t60 -86.5t91.5 -58t116 -21.5q62 0 107 13.5t74.5 30t43.5 30l14 13.5l-82 107q-6 -6 -17 -15t-26.5 -17.5t-37.5 -14t-51 -5.5q-35 0 -60 13
t-41 29.5t-23 32.5t-7 22h362q0 10 0.5 20t0.5 20zM389 342q0 -9 -8 -13t-18 -4h-158q0 11 5.5 25t16.5 26t29 20.5t44 8.5q47 0 68 -21t21 -42z" />
    <glyph glyph-name="f" unicode="f" horiz-adv-x="395" 
d="M263 518v6q0 29 11.5 48t48.5 19q18 0 31.5 -4.5t23.5 -12.5l62 132q-7 4 -20.5 11t-33.5 13.5t-46 11t-57 4.5q-64 0 -104.5 -21t-63 -51t-30.5 -62.5t-8 -54.5v-39h-74v-157h74v-361h192v361h132v157h-138z" />
    <glyph glyph-name="g" unicode="g" horiz-adv-x="620" 
d="M324 -236q75 0 124 20.5t78 53.5t40.5 75.5t11.5 87.5v410q0 23 0.5 34.5t2.5 18t5 10t9 11.5q-7 3 -28 10.5t-53 16t-75 14.5t-94 6q-86 0 -147 -25t-101 -65t-58.5 -90t-18.5 -101q0 -66 20 -115.5t54.5 -83t81 -50t98.5 -16.5q33 0 55.5 5.5t37 12t22 12.5t9.5 8v-26
q0 -41 -22.5 -62.5t-76.5 -21.5q-33 0 -58.5 6t-43.5 13.5t-28 14.5t-13 9l-70 -141q7 -4 24.5 -12.5t46 -17.5t70 -15.5t97.5 -6.5zM314 155q-15 0 -32.5 3.5t-32 14.5t-24.5 31t-10 52q0 27 9.5 45.5t25 30.5t34.5 17t38 5q26 0 45 -5t23 -7v-110q0 -42 -21.5 -59.5
t-54.5 -17.5z" />
    <glyph glyph-name="h" unicode="h" horiz-adv-x="589" 
d="M42 709v-709h192v345q3 3 8.5 8t14 10t20.5 9t27 4q26 0 39 -15.5t13 -50.5v-310h191v368q0 25 -6 53.5t-24.5 53t-52.5 41t-89 16.5q-32 0 -56.5 -6.5t-42 -15t-28 -17.5t-14.5 -13v229h-192z" />
    <glyph glyph-name="i" unicode="i" horiz-adv-x="276" 
d="M42 518v-518h192v518h-192zM31 660q0 -23 8.5 -42t23 -33.5t34 -22.5t41.5 -8t41 8t33.5 22t23 33.5t8.5 42.5t-8.5 42.5t-23 34t-33.5 22.5t-41 8t-41.5 -8.5t-34 -22.5t-23 -34t-8.5 -42z" />
    <glyph glyph-name="j" unicode="j" horiz-adv-x="301" 
d="M67 518v-499q0 -11 -1.5 -23t-7 -21.5t-15 -15.5t-25.5 -6q-17 0 -31 5.5t-18 10.5l-73 -156l15 -7.5t29 -11t44 -10t61 -4.5q53 0 89.5 13t60 33.5t37 46.5t19.5 52t7 49t1 38v506h-192zM56 660q0 -23 8.5 -42t23 -33.5t34 -22.5t41.5 -8t41 8t33.5 22t23 33.5t8.5 42.5
t-8.5 42.5t-23 33.5t-33.5 22t-41 8t-41.5 -8t-34 -22.5t-23 -34t-8.5 -41.5z" />
    <glyph glyph-name="k" unicode="k" horiz-adv-x="555" 
d="M370 539l-136 -224v394h-192v-709h192v226l133 -247l192 53l-146 242l141 208z" />
    <glyph glyph-name="l" unicode="l" horiz-adv-x="275" 
d="M42 709v-709h191v709h-191z" />
    <glyph glyph-name="m" unicode="m" horiz-adv-x="892" 
d="M850 0v314q0 38 -6.5 76.5t-28.5 70t-65.5 51.5t-116.5 20q-39 0 -68 -5.5t-49 -13.5t-32.5 -16t-18.5 -13q-10 6 -25 14t-38 15.5t-55 13t-75 5.5q-51 0 -93.5 -5.5t-74 -13t-52.5 -15t-28 -10.5q6 -9 9.5 -13t5.5 -10.5t2.5 -18.5t0.5 -36v-410h191v359q5 2 14 4.5
t29 2.5q44 0 59.5 -19t15.5 -63v-284h191v359q5 2 14.5 4.5t26.5 2.5q38 0 56.5 -18t18.5 -64v-284h192z" />
    <glyph glyph-name="n" unicode="n" horiz-adv-x="590" 
d="M548 312q0 69 -22 112t-58.5 67t-83 32.5t-95.5 8.5q-55 0 -99.5 -5t-78 -12t-56 -14.5t-32.5 -11.5q7 -8 10.5 -11.5t5.5 -10t2.5 -19t0.5 -37.5v-411h192v360q3 1 14 3.5t27 2.5q47 0 64 -17t17 -57v-292h192v312z" />
    <glyph glyph-name="o" unicode="o" horiz-adv-x="627" 
d="M314 532q-63 0 -117 -21t-93 -58t-61.5 -87t-22.5 -107q0 -61 22 -111t61 -86t93 -56t118 -20q66 0 120 20.5t92.5 57t59.5 86t21 108.5q0 58 -21.5 108t-60.5 87t-93 58t-118 21zM217 260q0 47 28 74t69 27q42 0 69 -26.5t27 -75.5q0 -24 -8 -43.5t-21 -32.5t-30.5 -20
t-36.5 -7q-40 0 -68.5 26.5t-28.5 77.5z" />
    <glyph glyph-name="p" unicode="p" horiz-adv-x="628" 
d="M234 -186v195q1 -1 29 -12t77 -11q64 0 113.5 20t84 55t52.5 82t18 101q0 63 -22.5 115.5t-63 91t-97 60t-124.5 21.5q-64 0 -109 -6t-76.5 -15t-51.5 -19t-34 -19q4 -8 6.5 -11.5t4 -9.5t1.5 -17v-32v-589h192zM411 267q0 -31 -8.5 -52.5t-22.5 -34.5t-31 -19t-34 -6
q-39 0 -60 17.5t-21 49.5v140q5 2 18 6t48 4q18 0 38 -6.5t36 -19.5t26.5 -33t10.5 -46z" />
    <glyph glyph-name="q" unicode="q" horiz-adv-x="629" 
d="M587 -186v589v32q0 11 1 17t3 9.5t7 11.5q-11 7 -30 17t-50 19.5t-74.5 16t-103.5 6.5q-69 0 -128 -18.5t-101.5 -55t-66.5 -90.5t-24 -124q0 -54 18 -101.5t52.5 -82t84.5 -54.5t114 -20q24 0 43.5 3.5t33 7.5t21 8t8.5 4v-195h192zM323 152q-46 0 -77 27.5t-31 87.5
q0 25 10.5 44t27 32.5t36.5 20.5t38 7q35 0 48 -4t19 -6v-140q0 -32 -19.5 -50.5t-51.5 -18.5z" />
    <glyph glyph-name="r" unicode="r" horiz-adv-x="409" 
d="M42 518v-518h192v241q0 23 5 43.5t20 36t42.5 24.5t73.5 9l26 -1l4 179h-8q-35 0 -67 -5.5t-56 -19.5t-38 -38.5t-14 -62.5h-2v112h-178z" />
    <glyph glyph-name="s" unicode="s" horiz-adv-x="501" 
d="M264 532q-59 0 -101.5 -15t-71 -40.5t-42 -58t-13.5 -66.5q0 -44 19 -73t48 -47.5t63 -29t64 -16.5q38 -8 55.5 -14.5t17.5 -23.5q0 -8 -5.5 -13.5t-14 -9t-18.5 -5t-20 -1.5q-36 0 -63.5 6t-48.5 15t-36 18.5t-24 15.5l-65 -127q7 -4 26.5 -14t51 -20.5t74.5 -18.5
t99 -8q57 0 100 14.5t72 39.5t44 58t15 71q0 52 -34.5 94t-100.5 63q-5 1 -15 4t-21 6t-21 5.5t-16 3.5q-65 13 -65 35q0 5 2.5 10t9 8.5t18 6t30.5 2.5q46 0 77.5 -12.5t49.5 -25.5l61 112q-6 4 -22.5 12.5t-42 17t-60 15t-76.5 6.5z" />
    <glyph glyph-name="t" unicode="t" horiz-adv-x="418" 
d="M68 659v-141h-83v-157h83v-198q0 -29 9 -60.5t30 -57.5t55 -42.5t85 -16.5q42 0 75 8.5t56.5 19t37 20.5t16.5 13l-79 131q-7 -6 -20 -14t-33 -8q-22 0 -31 14t-9 38v153h133v157h-133v141h-192z" />
    <glyph glyph-name="u" unicode="u" horiz-adv-x="599" 
d="M366 518v-301q0 -32 -20.5 -50.5t-43.5 -18.5q-32 0 -50.5 17.5t-18.5 51.5v301h-191v-337q0 -39 10 -74t31 -62t53.5 -43t78.5 -16q44 0 73.5 10t48 24.5t28 29t14.5 23.5q2 -21 6 -41.5t13 -41.5l186 27l-7.5 15t-9 25.5t-7.5 43.5t-3 68v349h-191z" />
    <glyph glyph-name="v" unicode="v" horiz-adv-x="588" 
d="M397 539l-100 -347l-100 347l-190 -42l179 -497h212l180 497z" />
    <glyph glyph-name="w" unicode="w" horiz-adv-x="796" 
d="M605 539l-63 -363l-65 342h-163l-58 -342l-63 363l-187 -42l130 -497h205l58 306l60 -306h203l124 497z" />
    <glyph glyph-name="x" unicode="x" horiz-adv-x="610" 
d="M385 539l-86 -171l-92 171l-192 -64l145 -210l-154 -222l191 -64l102 180l104 -180l196 64l-167 222l142 210z" />
    <glyph glyph-name="y" unicode="y" horiz-adv-x="600" 
d="M391 539l-76 -322l-118 322l-189 -53l223 -458q-23 -51 -59 -90t-90 -74l152 -103q28 24 58 58t57.5 74.5t51 86.5t40.5 93l149 413z" />
    <glyph glyph-name="z" unicode="z" horiz-adv-x="514" 
d="M63 518l-36 -163h189l-207 -355h465l33 170h-197l198 348h-445z" />
    <glyph glyph-name="braceleft" unicode="{" 
d="M23 375l223 -377l231 377l-231 364zM424 375l-178 -290l-171 290l171 281z" />
    <glyph glyph-name="bar" unicode="|" horiz-adv-x="634" 
d="M554 110l-149 149l149 149l-88 88l-149 -149l-149 149l-88 -88l149 -149l-149 -149l88 -88l149 149l149 -149z" />
    <glyph glyph-name="braceright" unicode="}" 
d="M23 375l223 -377l231 377l-231 364z" />
    <glyph glyph-name="asciitilde" unicode="~" 
d="M264 606q39 0 62.5 -17.5t23.5 -56.5q0 -31 -18.5 -51.5t-63.5 -20.5h-60v-102h-37v248h93zM207 493h54q32 0 42.5 9t10.5 32q0 37 -49 37h-58v-78zM12 483q0 -49 19 -91.5t52 -74t77 -49.5t93 -18t91.5 19t74 52t49.5 77t18 93t-19 91.5t-51.5 74t-75.5 49.5t-92 18
t-92 -19t-75 -52t-50.5 -77t-18.5 -93zM250 690q42 0 79 -16t64.5 -43.5t43.5 -64.5t16 -79t-16 -79t-43.5 -64.5t-64.5 -43.5t-79 -16t-79 16t-64.5 43.5t-43.5 64.5t-16 79t16 79t43.5 64.5t64.5 43.5t79 16z" />
    <glyph glyph-name="nonbreakingspace" unicode="&#xa0;" 
 />
    <glyph glyph-name="exclamdown" unicode="&#xa1;" horiz-adv-x="297" 
d="M260 -191l-45 461h-131l-44 -461h220zM260 422q0 24 -8.5 44t-23.5 34.5t-35 23t-43 8.5t-43 -8.5t-35 -23t-23.5 -34.5t-8.5 -44t8.5 -44t23.5 -34.5t35 -23t43 -8.5t43 8.5t35 23.5t23.5 35t8.5 43z" />
    <glyph glyph-name="cent" unicode="&#xa2;" horiz-adv-x="441" 
d="M24 393q0 -53 19 -90t45.5 -61.5t55 -37.5t48.5 -17v-137h78v133q48 7 82.5 24.5t60.5 46.5l-86 91q-3 -4 -9 -10t-14.5 -12t-20 -10t-27.5 -4q-15 0 -29 5.5t-25.5 16.5t-18.5 26.5t-7 36.5q0 17 6.5 32t17.5 26t24.5 17.5t27.5 6.5q18 0 30.5 -3t21 -8t13.5 -10.5
t10 -9.5l82 95q-32 30 -66.5 44t-72.5 19v106h-78v-110q-20 -4 -48.5 -17t-55 -38t-45.5 -62t-19 -89z" />
    <glyph glyph-name="sterling" unicode="&#xa3;" horiz-adv-x="674" 
d="M299 724q-48 0 -90.5 -14.5t-73.5 -41t-49 -62.5t-18 -79q0 -31 10 -54.5t24 -51.5h-96v-92h125q2 -5 4.5 -14.5t2.5 -21.5q0 -30 -10.5 -53t-26 -39t-34.5 -24.5t-36 -8.5v-180q3 1 12.5 6.5t25.5 11.5t36.5 11t45.5 5q31 0 61.5 -5.5t61 -12.5t61 -12.5t61.5 -5.5
q66 0 114 14t81 33t52.5 38.5t28.5 30.5l-112 115q-2 -5 -10 -15t-22 -19.5t-35 -17t-49 -7.5q-35 0 -65.5 8t-56.5 8q-11 0 -20.5 -3t-19.5 -6v2q10 6 21.5 15.5t21 23t15.5 31.5t6 41q0 13 -3 26t-8 25h112v92h-136q-2 4 -7.5 13t-11.5 20.5t-10.5 23t-4.5 20.5
q0 23 11.5 36t34.5 13q18 0 32 -7t23.5 -15.5t15 -16t7.5 -9.5l130 109q-7 8 -25.5 27.5t-48 39t-69.5 34.5t-89 15z" />
    <glyph glyph-name="currency" unicode="&#xa4;" horiz-adv-x="600" 
d="M295 417h39v265h13l56 -265h51l53 267h12v-267h37v292h-80l-44 -249h-5l-49 249h-83v-292zM253 500q0 32 -15.5 48t-40.5 24q-21 7 -37 12t-33 10q-26 8 -35.5 15.5t-9.5 22.5q0 16 13.5 31t45.5 15q16 0 27.5 -5.5t19 -13.5t11 -17t3.5 -17h41q0 10 -3.5 25.5t-14.5 29
t-30.5 23.5t-52.5 10q-53 0 -77.5 -25.5t-24.5 -58.5q0 -26 15.5 -41.5t38.5 -22.5q17 -5 29.5 -9.5t29.5 -9.5q32 -10 45.5 -19t13.5 -29q0 -23 -18 -36t-47 -13q-25 0 -40 6.5t-22.5 16.5t-9.5 21.5t-2 21.5h-42q0 -16 4.5 -34t17 -33.5t35 -25.5t58.5 -10q50 0 78.5 23.5
t28.5 64.5z" />
    <glyph glyph-name="yen" unicode="&#xa5;" horiz-adv-x="800" 
d="M38 0h720v730h-720v-730z" />
    <glyph glyph-name="dieresis" unicode="&#xa8;" horiz-adv-x="388" 
d="M209 656q0 -36 25 -59.5t59 -23.5q33 0 58 23.5t25 59.5t-24 59.5t-59 23.5q-17 0 -32.5 -6.5t-27 -17.5t-18 -26t-6.5 -33zM9 656q0 -36 25 -59.5t59 -23.5q16 0 31.5 6t27.5 17.5t19.5 26.5t7.5 33q0 36 -26 59.5t-60 23.5q-35 0 -59.5 -24t-24.5 -59z" />
    <glyph glyph-name="copyright" unicode="&#xa9;" horiz-adv-x="495" 
d="M121 489q0 -27 9.5 -51.5t26 -43t40 -30t50.5 -11.5q67 0 105 40l-23 22q-29 -32 -81 -32q-20 0 -37 9t-30 24t-20 34t-7 39q0 42 26 70.5t67 28.5q51 0 79 -28l23 23q-19 18 -44.5 28t-58.5 10q-26 0 -48.5 -10t-39.5 -28t-27 -42t-10 -52zM10 487q0 -49 18.5 -92
t51 -75.5t75.5 -51t92 -18.5t92 18.5t75.5 51t51 75.5t18.5 92t-18.5 92t-51 75.5t-75.5 51t-92 18.5t-92 -18.5t-75.5 -51t-51 -75.5t-18.5 -92zM247 690q42 0 79.5 -16t65.5 -44t44 -65.5t16 -79.5t-16 -79.5t-44 -65t-65.5 -43.5t-79.5 -16t-79.5 16t-65.5 43.5t-44 65
t-16 79.5t16 79.5t44 65.5t65.5 44t79.5 16z" />
    <glyph glyph-name="guillemotleft" unicode="&#xab;" horiz-adv-x="536" 
d="M397 281l125 161h-151l-133 -157l134 -169h149zM181 281l125 161h-151l-133 -157l134 -169h149z" />
    <glyph glyph-name="logicalnot" unicode="&#xac;" horiz-adv-x="750" 
d="M12 0l720 -1l-358 730zM676 36h-605l302 615z" />
    <glyph glyph-name="registered" unicode="&#xae;" 
d="M262 614q39 0 62.5 -16t23.5 -58q0 -31 -12.5 -46t-33.5 -23l46 -105h-42l-40 102h-60v-102h-37v248h93zM205 501h54q32 0 42.5 9t10.5 32q0 37 -49 37h-58v-78zM12 483q0 -49 19 -91.5t52 -74t77 -49.5t93 -18t91.5 19t74 52t49.5 77t18 93t-19 91.5t-51.5 74
t-75.5 49.5t-92 18t-92 -19t-75 -52t-50.5 -77t-18.5 -93zM250 690q42 0 79 -16t64.5 -43.5t43.5 -64.5t16 -79t-16 -79t-43.5 -64.5t-64.5 -43.5t-79 -16t-79 16t-64.5 43.5t-43.5 64.5t-16 79t16 79t43.5 64.5t64.5 43.5t79 16z" />
    <glyph glyph-name="macron" unicode="&#xaf;" horiz-adv-x="402" 
d="M6 606h389v96h-389v-96z" />
    <glyph glyph-name="macron" unicode="&#x2c9;" horiz-adv-x="402" 
d="M6 606h389v96h-389v-96z" />
    <glyph glyph-name="degree" unicode="&#xb0;" horiz-adv-x="391" 
d="M10 539q0 -38 14.5 -72t39.5 -59t59 -39.5t72 -14.5t72 14.5t59 39.5t39.5 59t14.5 72t-14.5 72t-39.5 59t-59 39.5t-72 14.5t-72 -14.5t-59 -39.5t-39.5 -59t-14.5 -72zM195 638q20 0 38 -8t31.5 -21.5t21.5 -31.5t8 -38t-8 -38t-21.5 -31.5t-31.5 -21.5t-38 -8t-38 8
t-31.5 21.5t-21.5 31.5t-8 38q0 21 8 39t22 31.5t31.5 21t37.5 7.5z" />
    <glyph glyph-name="plusminus" unicode="&#xb1;" horiz-adv-x="634" 
d="M590 -191v124h-546v-124h546zM379 -14v211h211v124h-211v211h-124v-211h-211v-124h211v-211h124z" />
    <glyph glyph-name="acute" unicode="&#xb4;" horiz-adv-x="295" 
d="M10 615l36 -58l238 115l-55 92z" />
    <glyph glyph-name="mu" unicode="&#xb5;" horiz-adv-x="800" 
d="M39 0h720v730h-720v-730zM725 696v-660h-650v660h650z" />
    <glyph glyph-name="mu" unicode="&#x3bc;" horiz-adv-x="800" 
d="M39 0h720v730h-720v-730zM725 696v-660h-650v660h650z" />
    <glyph glyph-name="paragraph" unicode="&#xb6;" 
d="M346 709q-68 0 -124.5 -14.5t-98 -44.5t-64.5 -76t-23 -108q0 -47 17.5 -87.5t47.5 -70t70.5 -47t87.5 -17.5v-444h32v879h56v-879h32v879h69v30h-102z" />
    <glyph glyph-name="periodcentered" unicode="&#xb7;" horiz-adv-x="354" 
d="M88 358q0 -24 8.5 -44t23.5 -34.5t35 -23t43 -8.5t43 8.5t35 23t23.5 34.5t8.5 44t-8.5 44t-23.5 34.5t-35 23t-43 8.5t-43 -8.5t-35 -23.5t-23.5 -35t-8.5 -43z" />
    <glyph glyph-name="cedilla" unicode="&#xb8;" horiz-adv-x="205" 
d="M74 -12q-1 -2 -8.5 -15.5t-19 -33.5t-20.5 -33l30 -26q2 3 10 12t22 9q27 0 35.5 -11t8.5 -33q0 -10 -12.5 -19.5t-34.5 -9.5q-16 0 -27 9.5t-13 11.5l-33 -37q1 -1 10 -8t28 -15.5t42 -8.5q17 0 35 5.5t33 15.5t24.5 24.5t9.5 32.5q0 45 -21.5 63.5t-64.5 18.5
q-1 0 -5 -2q4 7 10 19.5t9.5 21t4.5 9.5h-53z" />
    <glyph glyph-name="guillemotright" unicode="&#xbb;" horiz-adv-x="536" 
d="M143 277l-125 -161h151l133 157l-134 169h-149zM359 277l-125 -161h151l133 157l-134 169h-149z" />
    <glyph glyph-name="questiondown" unicode="&#xbf;" horiz-adv-x="495" 
d="M179 260q0 -26 -12.5 -44t-31.5 -33t-40.5 -29.5t-40.5 -34.5t-31.5 -48t-12.5 -69q0 -48 19.5 -86.5t52.5 -65.5t75.5 -41.5t88.5 -14.5q61 0 104 18t71 42.5t43.5 49.5t21.5 39l-147 76q-2 -6 -7.5 -17.5t-15 -22t-23 -18.5t-32.5 -8q-25 0 -41.5 15.5t-16.5 41.5
q0 31 20.5 53.5t45.5 45t45.5 49t20.5 67.5q0 17 -4 33t-6 22h-150q4 -11 4 -20zM358 422q0 24 -9 44t-24 34.5t-35 23t-42 8.5q-23 0 -43 -8t-35 -23t-23.5 -35t-8.5 -44t8.5 -44t23.5 -35t35 -23t43 -8q47 0 78.5 31.5t31.5 78.5z" />
    <glyph glyph-name="Agrave" unicode="&#xc0;" horiz-adv-x="706" 
d="M231 709l-225 -709h213l36 133h195l37 -133h212l-228 709h-240zM412 282h-119l58 241zM174 880l240 -120l36 62l-218 151z" />
    <glyph glyph-name="Aacute" unicode="&#xc1;" horiz-adv-x="706" 
d="M231 709l-225 -709h213l36 133h195l37 -133h212l-228 709h-240zM412 282h-119l58 241zM232 817l36 -58l238 115l-55 92z" />
    <glyph glyph-name="Acircumflex" unicode="&#xc2;" horiz-adv-x="706" 
d="M231 709l-225 -709h213l36 133h195l37 -133h212l-228 709h-240zM412 282h-119l58 241zM134 759h129l79 68l77 -68h131l-208 160z" />
    <glyph glyph-name="Atilde" unicode="&#xc3;" horiz-adv-x="706" 
d="M231 709l-225 -709h213l36 133h195l37 -133h212l-228 709h-240zM412 282h-119l58 241zM493 888q-9 -11 -25.5 -25.5t-47.5 -14.5q-21 0 -37.5 7.5t-32.5 16.5t-34 16.5t-41 7.5q-24 0 -44 -6t-36 -15t-28 -19.5t-20 -19.5l62 -63q13 11 29 21.5t50 10.5q14 0 28 -7
t30 -16t33.5 -16t37.5 -7q29 0 52.5 9.5t40.5 22t28.5 25.5t16.5 21z" />
    <glyph glyph-name="Adieresis" unicode="&#xc4;" horiz-adv-x="706" 
d="M231 709l-225 -709h213l36 133h195l37 -133h212l-228 709h-240zM412 282h-119l58 241zM361 842q0 -36 25 -59.5t59 -23.5q33 0 58 23.5t25 59.5t-24 59.5t-59 23.5q-17 0 -32.5 -6.5t-27 -17.5t-18 -26t-6.5 -33zM161 842q0 -36 25 -59.5t59 -23.5q16 0 31.5 6t27.5 17.5
t19.5 26.5t7.5 33q0 36 -26 59.5t-60 23.5q-35 0 -59.5 -24t-24.5 -59z" />
    <glyph glyph-name="Aring" unicode="&#xc5;" horiz-adv-x="706" 
d="M231 709l-225 -709h213l36 133h195l37 -133h212l-228 709h-240zM412 282h-119l58 241zM235 848q0 -23 9 -43.5t24.5 -36t36.5 -24.5t44 -9t44 9t36.5 24.5t24.5 36t9 43.5t-9 44t-24.5 36.5t-36.5 24.5t-44 9t-44 -9t-36.5 -24.5t-24.5 -36.5t-9 -44zM349 918
q29 0 49.5 -20.5t20.5 -49.5t-20.5 -49t-49.5 -20t-49.5 20t-20.5 49t20.5 49.5t49.5 20.5z" />
    <glyph glyph-name="AE" unicode="&#xc6;" horiz-adv-x="950" 
d="M452 282h-110l110 213v-213zM452 0h458l29 177h-281v73h198l17 167h-215v115h254l-20 177h-522l-364 -709h190l69 133h187v-133z" />
    <glyph glyph-name="Ccedilla" unicode="&#xc7;" horiz-adv-x="687" 
d="M426 -13q56 4 100 19.5t76 33.5t51.5 33.5t25.5 20.5l-112 155q-9 -8 -22.5 -18.5t-32.5 -20t-43.5 -16.5t-55.5 -7q-37 0 -68.5 13t-55 36t-37 54.5t-13.5 69.5q0 34 12.5 64.5t34 53.5t50.5 36t62 13q36 0 62.5 -7.5t45.5 -17t30 -19.5t16 -14l109 159q-2 1 -20 16.5
t-53 33t-87 32t-122 14.5q-78 0 -144 -30.5t-114 -81t-75 -116.5t-27 -136q0 -80 28 -145.5t75 -113.5t108.5 -77t127.5 -36q-18 -43 -51 -89q10 -8 19.5 -17.5l18.5 -18.5q2 4 11 14t26 10q21 0 32 -12t11 -25q0 -17 -11.5 -29t-30.5 -12q-26 0 -38 10.5t-17 16.5l-44 -45
q3 -4 11 -11.5t21 -15t29.5 -13t37.5 -5.5q51 0 84.5 26.5t33.5 78.5q0 19 -7.5 33.5t-19.5 25t-27 16t-31 5.5q-5 0 -15 -4q3 6 7 15l8 18t7 16.5t3 10.5z" />
    <glyph glyph-name="Egrave" unicode="&#xc8;" horiz-adv-x="554" 
d="M50 709v-709h458l29 177h-281v73h198l17 167h-215v115h254l-20 177h-440zM104 880l240 -120l36 62l-218 151z" />
    <glyph glyph-name="Eacute" unicode="&#xc9;" horiz-adv-x="554" 
d="M50 709v-709h458l29 177h-281v73h198l17 167h-215v115h254l-20 177h-440zM174 817l36 -58l238 115l-55 92z" />
    <glyph glyph-name="Ecircumflex" unicode="&#xca;" horiz-adv-x="554" 
d="M50 709v-709h458l29 177h-281v73h198l17 167h-215v115h254l-20 177h-440zM72 759h129l79 68l77 -68h131l-208 160z" />
    <glyph glyph-name="Edieresis" unicode="&#xcb;" horiz-adv-x="554" 
d="M50 709v-709h458l29 177h-281v73h198l17 167h-215v115h254l-20 177h-440zM279 842q0 -36 25 -59.5t59 -23.5q33 0 58 23.5t25 59.5t-24 59.5t-59 23.5q-17 0 -32.5 -6.5t-27 -17.5t-18 -26t-6.5 -33zM79 842q0 -36 25 -59.5t59 -23.5q16 0 31.5 6t27.5 17.5t19.5 26.5
t7.5 33q0 36 -26 59.5t-60 23.5q-35 0 -59.5 -24t-24.5 -59z" />
    <glyph glyph-name="Igrave" unicode="&#xcc;" horiz-adv-x="308" 
d="M50 709v-709h206v709h-206zM50 880l240 -120l36 62l-218 151z" />
    <glyph glyph-name="Iacute" unicode="&#xcd;" horiz-adv-x="308" 
d="M50 709v-709h206v709h-206zM50 817l36 -58l238 115l-55 92z" />
    <glyph glyph-name="Icircumflex" unicode="&#xce;" horiz-adv-x="308" 
d="M50 709v-709h206v709h-206zM50 759h129l79 68l77 -68h131l-208 160z" />
    <glyph glyph-name="Idieresis" unicode="&#xcf;" horiz-adv-x="308" 
d="M50 709v-709h206v709h-206zM250 842q0 -36 25 -59.5t59 -23.5q33 0 58 23.5t25 59.5t-24 59.5t-59 23.5q-17 0 -32.5 -6.5t-27 -17.5t-18 -26t-6.5 -33zM50 842q0 -36 25 -59.5t59 -23.5q16 0 31.5 6t27.5 17.5t19.5 26.5t7.5 33q0 36 -26 59.5t-60 23.5q-35 0 -59.5 -24
t-24.5 -59z" />
    <glyph glyph-name="Ntilde" unicode="&#xd1;" horiz-adv-x="715" 
d="M467 709l8 -403l-226 403h-199v-709h199l-7 411l225 -411h199v709h-199zM495 888q-9 -11 -25.5 -25.5t-47.5 -14.5q-21 0 -37.5 7.5t-32.5 16.5t-34 16.5t-41 7.5q-24 0 -44 -6t-36 -15t-28 -19.5t-20 -19.5l62 -63q13 11 29 21.5t50 10.5q14 0 28 -7t30 -16t33.5 -16
t37.5 -7q29 0 52.5 9.5t40.5 22t28.5 25.5t16.5 21z" />
    <glyph glyph-name="Ograve" unicode="&#xd2;" horiz-adv-x="795" 
d="M398 724q-80 0 -149 -29.5t-120 -79.5t-80.5 -117.5t-29.5 -142.5q0 -79 29 -146.5t79.5 -117t119.5 -77.5t149 -28q81 0 150.5 28.5t120.5 78t80 117t29 145.5t-29.5 145.5t-81 117t-120.5 78t-147 28.5zM240 358q0 42 12.5 74t34 54.5t50.5 34t61 11.5q31 0 59 -12.5
t48.5 -35t32.5 -54.5t12 -72q0 -41 -12 -73t-33 -55t-49 -35t-59 -12q-29 0 -57 11t-50 33t-36 54.5t-14 76.5zM246 880l240 -120l36 62l-218 151z" />
    <glyph glyph-name="Oacute" unicode="&#xd3;" horiz-adv-x="795" 
d="M398 724q-80 0 -149 -29.5t-120 -79.5t-80.5 -117.5t-29.5 -142.5q0 -79 29 -146.5t79.5 -117t119.5 -77.5t149 -28q81 0 150.5 28.5t120.5 78t80 117t29 145.5t-29.5 145.5t-81 117t-120.5 78t-147 28.5zM240 358q0 42 12.5 74t34 54.5t50.5 34t61 11.5q31 0 59 -12.5
t48.5 -35t32.5 -54.5t12 -72q0 -41 -12 -73t-33 -55t-49 -35t-59 -12q-29 0 -57 11t-50 33t-36 54.5t-14 76.5zM260 817l36 -58l238 115l-55 92z" />
    <glyph glyph-name="Ocircumflex" unicode="&#xd4;" horiz-adv-x="795" 
d="M398 724q-80 0 -149 -29.5t-120 -79.5t-80.5 -117.5t-29.5 -142.5q0 -79 29 -146.5t79.5 -117t119.5 -77.5t149 -28q81 0 150.5 28.5t120.5 78t80 117t29 145.5t-29.5 145.5t-81 117t-120.5 78t-147 28.5zM240 358q0 42 12.5 74t34 54.5t50.5 34t61 11.5q31 0 59 -12.5
t48.5 -35t32.5 -54.5t12 -72q0 -41 -12 -73t-33 -55t-49 -35t-59 -12q-29 0 -57 11t-50 33t-36 54.5t-14 76.5zM178 759h129l79 68l77 -68h131l-208 160z" />
    <glyph glyph-name="Otilde" unicode="&#xd5;" horiz-adv-x="795" 
d="M398 724q-80 0 -149 -29.5t-120 -79.5t-80.5 -117.5t-29.5 -142.5q0 -79 29 -146.5t79.5 -117t119.5 -77.5t149 -28q81 0 150.5 28.5t120.5 78t80 117t29 145.5t-29.5 145.5t-81 117t-120.5 78t-147 28.5zM240 358q0 42 12.5 74t34 54.5t50.5 34t61 11.5q31 0 59 -12.5
t48.5 -35t32.5 -54.5t12 -72q0 -41 -12 -73t-33 -55t-49 -35t-59 -12q-29 0 -57 11t-50 33t-36 54.5t-14 76.5zM525 888q-9 -11 -25.5 -25.5t-47.5 -14.5q-21 0 -37.5 7.5t-32.5 16.5t-34 16.5t-41 7.5q-24 0 -44 -6t-36 -15t-28 -19.5t-20 -19.5l62 -63q13 11 29 21.5
t50 10.5q14 0 28 -7t30 -16t33.5 -16t37.5 -7q29 0 52.5 9.5t40.5 22t28.5 25.5t16.5 21z" />
    <glyph glyph-name="Odieresis" unicode="&#xd6;" horiz-adv-x="795" 
d="M398 724q-80 0 -149 -29.5t-120 -79.5t-80.5 -117.5t-29.5 -142.5q0 -79 29 -146.5t79.5 -117t119.5 -77.5t149 -28q81 0 150.5 28.5t120.5 78t80 117t29 145.5t-29.5 145.5t-81 117t-120.5 78t-147 28.5zM240 358q0 42 12.5 74t34 54.5t50.5 34t61 11.5q31 0 59 -12.5
t48.5 -35t32.5 -54.5t12 -72q0 -41 -12 -73t-33 -55t-49 -35t-59 -12q-29 0 -57 11t-50 33t-36 54.5t-14 76.5zM403 842q0 -36 25 -59.5t59 -23.5q33 0 58 23.5t25 59.5t-24 59.5t-59 23.5q-17 0 -32.5 -6.5t-27 -17.5t-18 -26t-6.5 -33zM203 842q0 -36 25 -59.5t59 -23.5
q16 0 31.5 6t27.5 17.5t19.5 26.5t7.5 33q0 36 -26 59.5t-60 23.5q-35 0 -59.5 -24t-24.5 -59z" />
    <glyph glyph-name="Oslash" unicode="&#xd8;" horiz-adv-x="795" 
d="M19 -14h85l65 71q47 -34 104.5 -52.5t122.5 -18.5q81 0 150.5 28.5t120.5 78t80 117t29 145.5q0 76 -28 141t-76 115l102 113h-85l-65 -72q-48 35 -105 53.5t-121 18.5q-80 0 -149 -29.5t-120 -79.5t-80.5 -117.5t-29.5 -142.5q0 -77 27 -142t75 -115zM240 358
q0 42 12.5 74t34 54.5t50.5 34t61 11.5q33 0 60.5 -13t48 -36t32 -55t11.5 -70q0 -41 -12 -73t-33 -55t-49 -35t-59 -12q-34 0 -62.5 13.5t-49.5 36.5t-33 55t-12 70z" />
    <glyph glyph-name="Ugrave" unicode="&#xd9;" horiz-adv-x="700" 
d="M444 709v-439q0 -21 -4.5 -40.5t-15.5 -35.5t-28.5 -25.5t-43.5 -9.5q-25 0 -43 9t-30 24.5t-17.5 35.5t-5.5 42l1 439h-207v-450q0 -43 13 -91t46.5 -88.5t92 -67t149.5 -26.5q82 0 139 26t92.5 65.5t51.5 88t16 93.5v450h-206zM200 880l240 -120l36 62l-218 151z" />
    <glyph glyph-name="Uacute" unicode="&#xda;" horiz-adv-x="700" 
d="M444 709v-439q0 -21 -4.5 -40.5t-15.5 -35.5t-28.5 -25.5t-43.5 -9.5q-25 0 -43 9t-30 24.5t-17.5 35.5t-5.5 42l1 439h-207v-450q0 -43 13 -91t46.5 -88.5t92 -67t149.5 -26.5q82 0 139 26t92.5 65.5t51.5 88t16 93.5v450h-206zM208 817l36 -58l238 115l-55 92z" />
    <glyph glyph-name="Ucircumflex" unicode="&#xdb;" horiz-adv-x="700" 
d="M444 709v-439q0 -21 -4.5 -40.5t-15.5 -35.5t-28.5 -25.5t-43.5 -9.5q-25 0 -43 9t-30 24.5t-17.5 35.5t-5.5 42l1 439h-207v-450q0 -43 13 -91t46.5 -88.5t92 -67t149.5 -26.5q82 0 139 26t92.5 65.5t51.5 88t16 93.5v450h-206zM142 759h129l79 68l77 -68h131l-208 160z
" />
    <glyph glyph-name="Udieresis" unicode="&#xdc;" horiz-adv-x="700" 
d="M444 709v-439q0 -21 -4.5 -40.5t-15.5 -35.5t-28.5 -25.5t-43.5 -9.5q-25 0 -43 9t-30 24.5t-17.5 35.5t-5.5 42l1 439h-207v-450q0 -43 13 -91t46.5 -88.5t92 -67t149.5 -26.5q82 0 139 26t92.5 65.5t51.5 88t16 93.5v450h-206zM367 842q0 -36 25 -59.5t59 -23.5
q33 0 58 23.5t25 59.5t-24 59.5t-59 23.5q-17 0 -32.5 -6.5t-27 -17.5t-18 -26t-6.5 -33zM167 842q0 -36 25 -59.5t59 -23.5q16 0 31.5 6t27.5 17.5t19.5 26.5t7.5 33q0 36 -26 59.5t-60 23.5q-35 0 -59.5 -24t-24.5 -59z" />
    <glyph glyph-name="germandbls" unicode="&#xdf;" 
d="M67 361q0 -38 14.5 -71.5t39 -58t58 -39t71.5 -14.5t71.5 14.5t58 39t39 58t14.5 71.5t-14.5 71.5t-39 58t-58 39t-71.5 14.5t-71.5 -14.5t-58 -39t-39 -58t-14.5 -71.5zM250 513q31 0 59 -12t49 -33t33 -49t12 -59q0 -32 -12 -59.5t-33 -48t-49 -32.5t-59 -12
q-32 0 -59.5 12t-48.5 32.5t-33 48t-12 59.5q0 31 12 59t33 49t48.5 33t59.5 12z" />
    <glyph glyph-name="agrave" unicode="&#xe0;" horiz-adv-x="590" 
d="M129 364q5 3 17 9.5t29.5 12.5t40 10.5t49.5 4.5q51 0 72 -20t21 -49v-21q-2 1 -15 6t-41.5 11t-64.5 6q-38 0 -76.5 -10.5t-69.5 -32t-51 -54.5t-20 -79q0 -37 13.5 -68.5t39 -54.5t63 -36t84.5 -13q42 0 72.5 9t50 21t30 22.5t12.5 13.5q2 -15 6.5 -31.5t11.5 -30.5
l166 31q-7 10 -11.5 18t-6.5 21t-3 33t-1 54v192q0 42 -15 77t-45.5 61t-76.5 40.5t-108 14.5q-58 0 -98.5 -5.5t-68 -13.5t-44 -16t-26.5 -13zM286 112q-32 0 -49 15.5t-17 38.5q0 20 17.5 37t52.5 17q31 0 46.5 -4t19.5 -6v-32q0 -29 -19 -47.5t-51 -18.5zM126 674
l240 -120l36 62l-218 151z" />
    <glyph glyph-name="aacute" unicode="&#xe1;" horiz-adv-x="590" 
d="M129 364q5 3 17 9.5t29.5 12.5t40 10.5t49.5 4.5q51 0 72 -20t21 -49v-21q-2 1 -15 6t-41.5 11t-64.5 6q-38 0 -76.5 -10.5t-69.5 -32t-51 -54.5t-20 -79q0 -37 13.5 -68.5t39 -54.5t63 -36t84.5 -13q42 0 72.5 9t50 21t30 22.5t12.5 13.5q2 -15 6.5 -31.5t11.5 -30.5
l166 31q-7 10 -11.5 18t-6.5 21t-3 33t-1 54v192q0 42 -15 77t-45.5 61t-76.5 40.5t-108 14.5q-58 0 -98.5 -5.5t-68 -13.5t-44 -16t-26.5 -13zM286 112q-32 0 -49 15.5t-17 38.5q0 20 17.5 37t52.5 17q31 0 46.5 -4t19.5 -6v-32q0 -29 -19 -47.5t-51 -18.5zM174 615l36 -58
l238 115l-55 92z" />
    <glyph glyph-name="acircumflex" unicode="&#xe2;" horiz-adv-x="590" 
d="M129 364q5 3 17 9.5t29.5 12.5t40 10.5t49.5 4.5q51 0 72 -20t21 -49v-21q-2 1 -15 6t-41.5 11t-64.5 6q-38 0 -76.5 -10.5t-69.5 -32t-51 -54.5t-20 -79q0 -37 13.5 -68.5t39 -54.5t63 -36t84.5 -13q42 0 72.5 9t50 21t30 22.5t12.5 13.5q2 -15 6.5 -31.5t11.5 -30.5
l166 31q-7 10 -11.5 18t-6.5 21t-3 33t-1 54v192q0 42 -15 77t-45.5 61t-76.5 40.5t-108 14.5q-58 0 -98.5 -5.5t-68 -13.5t-44 -16t-26.5 -13zM286 112q-32 0 -49 15.5t-17 38.5q0 20 17.5 37t52.5 17q31 0 46.5 -4t19.5 -6v-32q0 -29 -19 -47.5t-51 -18.5zM94 581h129
l79 68l77 -68h131l-208 160z" />
    <glyph glyph-name="atilde" unicode="&#xe3;" horiz-adv-x="590" 
d="M129 364q5 3 17 9.5t29.5 12.5t40 10.5t49.5 4.5q51 0 72 -20t21 -49v-21q-2 1 -15 6t-41.5 11t-64.5 6q-38 0 -76.5 -10.5t-69.5 -32t-51 -54.5t-20 -79q0 -37 13.5 -68.5t39 -54.5t63 -36t84.5 -13q42 0 72.5 9t50 21t30 22.5t12.5 13.5q2 -15 6.5 -31.5t11.5 -30.5
l166 31q-7 10 -11.5 18t-6.5 21t-3 33t-1 54v192q0 42 -15 77t-45.5 61t-76.5 40.5t-108 14.5q-58 0 -98.5 -5.5t-68 -13.5t-44 -16t-26.5 -13zM286 112q-32 0 -49 15.5t-17 38.5q0 20 17.5 37t52.5 17q31 0 46.5 -4t19.5 -6v-32q0 -29 -19 -47.5t-51 -18.5zM433 716
q-9 -11 -25.5 -25.5t-47.5 -14.5q-21 0 -37.5 7.5t-32.5 16.5t-34 16.5t-41 7.5q-24 0 -44 -6t-36 -15t-28 -19.5t-20 -19.5l62 -63q13 11 29 21.5t50 10.5q14 0 28 -7t30 -16t33.5 -16t37.5 -7q29 0 52.5 9.5t40.5 22t28.5 25.5t16.5 21z" />
    <glyph glyph-name="adieresis" unicode="&#xe4;" horiz-adv-x="590" 
d="M129 364q5 3 17 9.5t29.5 12.5t40 10.5t49.5 4.5q51 0 72 -20t21 -49v-21q-2 1 -15 6t-41.5 11t-64.5 6q-38 0 -76.5 -10.5t-69.5 -32t-51 -54.5t-20 -79q0 -37 13.5 -68.5t39 -54.5t63 -36t84.5 -13q42 0 72.5 9t50 21t30 22.5t12.5 13.5q2 -15 6.5 -31.5t11.5 -30.5
l166 31q-7 10 -11.5 18t-6.5 21t-3 33t-1 54v192q0 42 -15 77t-45.5 61t-76.5 40.5t-108 14.5q-58 0 -98.5 -5.5t-68 -13.5t-44 -16t-26.5 -13zM286 112q-32 0 -49 15.5t-17 38.5q0 20 17.5 37t52.5 17q31 0 46.5 -4t19.5 -6v-32q0 -29 -19 -47.5t-51 -18.5zM297 656
q0 -36 25 -59.5t59 -23.5q33 0 58 23.5t25 59.5t-24 59.5t-59 23.5q-17 0 -32.5 -6.5t-27 -17.5t-18 -26t-6.5 -33zM97 656q0 -36 25 -59.5t59 -23.5q16 0 31.5 6t27.5 17.5t19.5 26.5t7.5 33q0 36 -26 59.5t-60 23.5q-35 0 -59.5 -24t-24.5 -59z" />
    <glyph glyph-name="aring" unicode="&#xe5;" horiz-adv-x="590" 
d="M129 364q5 3 17 9.5t29.5 12.5t40 10.5t49.5 4.5q51 0 72 -20t21 -49v-21q-2 1 -15 6t-41.5 11t-64.5 6q-38 0 -76.5 -10.5t-69.5 -32t-51 -54.5t-20 -79q0 -37 13.5 -68.5t39 -54.5t63 -36t84.5 -13q42 0 72.5 9t50 21t30 22.5t12.5 13.5q2 -15 6.5 -31.5t11.5 -30.5
l166 31q-7 10 -11.5 18t-6.5 21t-3 33t-1 54v192q0 42 -15 77t-45.5 61t-76.5 40.5t-108 14.5q-58 0 -98.5 -5.5t-68 -13.5t-44 -16t-26.5 -13zM286 112q-32 0 -49 15.5t-17 38.5q0 20 17.5 37t52.5 17q31 0 46.5 -4t19.5 -6v-32q0 -29 -19 -47.5t-51 -18.5zM167 666
q0 -23 9 -43.5t24.5 -36t36.5 -24.5t44 -9t44 9t36.5 24.5t24.5 36t9 43.5t-9 44t-24.5 36.5t-36.5 24.5t-44 9t-44 -9t-36.5 -24.5t-24.5 -36.5t-9 -44zM281 736q29 0 49.5 -20.5t20.5 -49.5t-20.5 -49t-49.5 -20t-49.5 20t-20.5 49t20.5 49.5t49.5 20.5z" />
    <glyph glyph-name="ae" unicode="&#xe6;" horiz-adv-x="920" 
d="M720 342q0 -9 -8 -13t-18 -4h-158q0 11 5.5 25t16.5 26t29 20.5t44 8.5q47 0 68 -21t21 -42zM285 112q-32 0 -49 15.5t-17 38.5q0 20 17.5 37t52.5 17q31 0 46.5 -4t19.5 -6v-32q0 -29 -19 -47.5t-51 -18.5zM640 -14q62 0 107 13.5t74.5 30t43.5 30l14 13.5l-82 107
q-6 -6 -17 -15t-26.5 -17.5t-37.5 -14t-51 -5.5q-35 0 -60 13t-41 29.5t-23 32.5t-7 22h362q0 10 0.5 20t0.5 20q0 54 -18.5 102.5t-53.5 85t-86 58t-115 21.5q-22 0 -45 -4t-43.5 -10t-37.5 -14t-27 -17q-19 15 -60 30t-110 15q-58 0 -98.5 -5.5t-68 -13.5t-44 -16
t-26.5 -13l64 -120q5 3 17 9.5t29.5 12.5t40 10.5t49.5 4.5q51 0 72 -20t21 -49v-21q-2 1 -15 6t-41.5 11t-64.5 6q-38 0 -76.5 -10.5t-69.5 -32t-51 -54.5t-20 -79q0 -37 13.5 -68.5t39 -54.5t63 -36t84.5 -13q42 0 77 10.5t61 24.5t43 29t23 24q35 -35 89 -61.5t128 -26.5
z" />
    <glyph glyph-name="ccedilla" unicode="&#xe7;" horiz-adv-x="519" 
d="M295 532q-59 0 -109.5 -21t-87.5 -57.5t-58 -86.5t-21 -108q0 -55 14 -96t36.5 -70.5t50.5 -49t54.5 -31.5t49.5 -17t36 -7q-8 -17 -13 -27.5t-9.5 -18t-8.5 -13.5l-10 -15l16 -16l16 -16q2 4 10.5 12.5t23.5 8.5q18 0 27.5 -10.5t9.5 -22.5q0 -16 -10.5 -26t-26.5 -10
q-23 0 -33.5 9.5t-14.5 14.5l-39 -40q3 -4 10 -10.5t18 -13t26 -11.5t33 -5q45 0 74.5 24t29.5 70q0 33 -23 51.5t-52 18.5q-7 0 -13 -3q5 11 10.5 22t10.5 26q57 5 101 23.5t85 52.5l-101 130l-9 -9t-16.5 -12.5t-26 -11t-38.5 -4.5q-20 0 -38.5 7.5t-33 21.5t-23 32.5
t-8.5 41.5q0 18 7.5 36t21.5 32t33 22.5t42 8.5q20 0 35.5 -4t26.5 -9.5t17.5 -10.5t8.5 -6l94 133l-13.5 11.5t-39.5 24.5t-64.5 24t-87.5 11z" />
    <glyph glyph-name="egrave" unicode="&#xe8;" horiz-adv-x="586" 
d="M566 265q0 54 -18.5 102.5t-53.5 85t-86 58t-115 21.5q-54 0 -103.5 -19t-87 -54.5t-60 -86t-22.5 -113.5q0 -57 21.5 -107t60 -86.5t91.5 -58t116 -21.5q62 0 107 13.5t74.5 30t43.5 30l14 13.5l-82 107q-6 -6 -17 -15t-26.5 -17.5t-37.5 -14t-51 -5.5q-35 0 -60 13
t-41 29.5t-23 32.5t-7 22h362q0 10 0.5 20t0.5 20zM389 342q0 -9 -8 -13t-18 -4h-158q0 11 5.5 25t16.5 26t29 20.5t44 8.5q47 0 68 -21t21 -42zM140 674l240 -120l36 62l-218 151z" />
    <glyph glyph-name="eacute" unicode="&#xe9;" horiz-adv-x="586" 
d="M566 265q0 54 -18.5 102.5t-53.5 85t-86 58t-115 21.5q-54 0 -103.5 -19t-87 -54.5t-60 -86t-22.5 -113.5q0 -57 21.5 -107t60 -86.5t91.5 -58t116 -21.5q62 0 107 13.5t74.5 30t43.5 30l14 13.5l-82 107q-6 -6 -17 -15t-26.5 -17.5t-37.5 -14t-51 -5.5q-35 0 -60 13
t-41 29.5t-23 32.5t-7 22h362q0 10 0.5 20t0.5 20zM389 342q0 -9 -8 -13t-18 -4h-158q0 11 5.5 25t16.5 26t29 20.5t44 8.5q47 0 68 -21t21 -42zM188 615l36 -58l238 115l-55 92z" />
    <glyph glyph-name="ecircumflex" unicode="&#xea;" horiz-adv-x="586" 
d="M566 265q0 54 -18.5 102.5t-53.5 85t-86 58t-115 21.5q-54 0 -103.5 -19t-87 -54.5t-60 -86t-22.5 -113.5q0 -57 21.5 -107t60 -86.5t91.5 -58t116 -21.5q62 0 107 13.5t74.5 30t43.5 30l14 13.5l-82 107q-6 -6 -17 -15t-26.5 -17.5t-37.5 -14t-51 -5.5q-35 0 -60 13
t-41 29.5t-23 32.5t-7 22h362q0 10 0.5 20t0.5 20zM389 342q0 -9 -8 -13t-18 -4h-158q0 11 5.5 25t16.5 26t29 20.5t44 8.5q47 0 68 -21t21 -42zM100 581h129l79 68l77 -68h131l-208 160z" />
    <glyph glyph-name="edieresis" unicode="&#xeb;" horiz-adv-x="586" 
d="M566 265q0 54 -18.5 102.5t-53.5 85t-86 58t-115 21.5q-54 0 -103.5 -19t-87 -54.5t-60 -86t-22.5 -113.5q0 -57 21.5 -107t60 -86.5t91.5 -58t116 -21.5q62 0 107 13.5t74.5 30t43.5 30l14 13.5l-82 107q-6 -6 -17 -15t-26.5 -17.5t-37.5 -14t-51 -5.5q-35 0 -60 13
t-41 29.5t-23 32.5t-7 22h362q0 10 0.5 20t0.5 20zM389 342q0 -9 -8 -13t-18 -4h-158q0 11 5.5 25t16.5 26t29 20.5t44 8.5q47 0 68 -21t21 -42zM315 656q0 -36 25 -59.5t59 -23.5q33 0 58 23.5t25 59.5t-24 59.5t-59 23.5q-17 0 -32.5 -6.5t-27 -17.5t-18 -26t-6.5 -33z
M115 656q0 -36 25 -59.5t59 -23.5q16 0 31.5 6t27.5 17.5t19.5 26.5t7.5 33q0 36 -26 59.5t-60 23.5q-35 0 -59.5 -24t-24.5 -59z" />
    <glyph glyph-name="igrave" unicode="&#xec;" horiz-adv-x="276" 
d="M42 518v-518h192v518h-192zM42 674l240 -120l36 62l-218 151z" />
    <glyph glyph-name="iacute" unicode="&#xed;" horiz-adv-x="276" 
d="M42 518v-518h192v518h-192zM42 615l36 -58l238 115l-55 92z" />
    <glyph glyph-name="icircumflex" unicode="&#xee;" horiz-adv-x="276" 
d="M42 518v-518h192v518h-192zM42 578h129l79 68l77 -68h131l-208 160z" />
    <glyph glyph-name="idieresis" unicode="&#xef;" horiz-adv-x="276" 
d="M42 518v-518h192v518h-192zM242 656q0 -36 25 -59.5t59 -23.5q33 0 58 23.5t25 59.5t-24 59.5t-59 23.5q-17 0 -32.5 -6.5t-27 -17.5t-18 -26t-6.5 -33zM42 656q0 -36 25 -59.5t59 -23.5q16 0 31.5 6t27.5 17.5t19.5 26.5t7.5 33q0 36 -26 59.5t-60 23.5q-35 0 -59.5 -24
t-24.5 -59z" />
    <glyph glyph-name="ntilde" unicode="&#xf1;" horiz-adv-x="590" 
d="M548 312q0 69 -22 112t-58.5 67t-83 32.5t-95.5 8.5q-55 0 -99.5 -5t-78 -12t-56 -14.5t-32.5 -11.5q7 -8 10.5 -11.5t5.5 -10t2.5 -19t0.5 -37.5v-411h192v360q3 1 14 3.5t27 2.5q47 0 64 -17t17 -57v-292h192v312zM457 716q-9 -11 -25.5 -25.5t-47.5 -14.5
q-21 0 -37.5 7.5t-32.5 16.5t-34 16.5t-41 7.5q-24 0 -44 -6t-36 -15t-28 -19.5t-20 -19.5l62 -63q13 11 29 21.5t50 10.5q14 0 28 -7t30 -16t33.5 -16t37.5 -7q29 0 52.5 9.5t40.5 22t28.5 25.5t16.5 21z" />
    <glyph glyph-name="ograve" unicode="&#xf2;" horiz-adv-x="627" 
d="M314 532q-63 0 -117 -21t-93 -58t-61.5 -87t-22.5 -107q0 -61 22 -111t61 -86t93 -56t118 -20q66 0 120 20.5t92.5 57t59.5 86t21 108.5q0 58 -21.5 108t-60.5 87t-93 58t-118 21zM217 260q0 47 28 74t69 27q42 0 69 -26.5t27 -75.5q0 -24 -8 -43.5t-21 -32.5t-30.5 -20
t-36.5 -7q-40 0 -68.5 26.5t-28.5 77.5zM152 674l240 -120l36 62l-218 151z" />
    <glyph glyph-name="oacute" unicode="&#xf3;" horiz-adv-x="627" 
d="M314 532q-63 0 -117 -21t-93 -58t-61.5 -87t-22.5 -107q0 -61 22 -111t61 -86t93 -56t118 -20q66 0 120 20.5t92.5 57t59.5 86t21 108.5q0 58 -21.5 108t-60.5 87t-93 58t-118 21zM217 260q0 47 28 74t69 27q42 0 69 -26.5t27 -75.5q0 -24 -8 -43.5t-21 -32.5t-30.5 -20
t-36.5 -7q-40 0 -68.5 26.5t-28.5 77.5zM184 615l36 -58l238 115l-55 92z" />
    <glyph glyph-name="ocircumflex" unicode="&#xf4;" horiz-adv-x="627" 
d="M314 532q-63 0 -117 -21t-93 -58t-61.5 -87t-22.5 -107q0 -61 22 -111t61 -86t93 -56t118 -20q66 0 120 20.5t92.5 57t59.5 86t21 108.5q0 58 -21.5 108t-60.5 87t-93 58t-118 21zM217 260q0 47 28 74t69 27q42 0 69 -26.5t27 -75.5q0 -24 -8 -43.5t-21 -32.5t-30.5 -20
t-36.5 -7q-40 0 -68.5 26.5t-28.5 77.5zM98 581h129l79 68l77 -68h131l-208 160z" />
    <glyph glyph-name="otilde" unicode="&#xf5;" horiz-adv-x="627" 
d="M314 532q-63 0 -117 -21t-93 -58t-61.5 -87t-22.5 -107q0 -61 22 -111t61 -86t93 -56t118 -20q66 0 120 20.5t92.5 57t59.5 86t21 108.5q0 58 -21.5 108t-60.5 87t-93 58t-118 21zM217 260q0 47 28 74t69 27q42 0 69 -26.5t27 -75.5q0 -24 -8 -43.5t-21 -32.5t-30.5 -20
t-36.5 -7q-40 0 -68.5 26.5t-28.5 77.5zM455 716q-9 -11 -25.5 -25.5t-47.5 -14.5q-21 0 -37.5 7.5t-32.5 16.5t-34 16.5t-41 7.5q-24 0 -44 -6t-36 -15t-28 -19.5t-20 -19.5l62 -63q13 11 29 21.5t50 10.5q14 0 28 -7t30 -16t33.5 -16t37.5 -7q29 0 52.5 9.5t40.5 22
t28.5 25.5t16.5 21z" />
    <glyph glyph-name="odieresis" unicode="&#xf6;" horiz-adv-x="627" 
d="M314 532q-63 0 -117 -21t-93 -58t-61.5 -87t-22.5 -107q0 -61 22 -111t61 -86t93 -56t118 -20q66 0 120 20.5t92.5 57t59.5 86t21 108.5q0 58 -21.5 108t-60.5 87t-93 58t-118 21zM217 260q0 47 28 74t69 27q42 0 69 -26.5t27 -75.5q0 -24 -8 -43.5t-21 -32.5t-30.5 -20
t-36.5 -7q-40 0 -68.5 26.5t-28.5 77.5zM323 656q0 -36 25 -59.5t59 -23.5q33 0 58 23.5t25 59.5t-24 59.5t-59 23.5q-17 0 -32.5 -6.5t-27 -17.5t-18 -26t-6.5 -33zM123 656q0 -36 25 -59.5t59 -23.5q16 0 31.5 6t27.5 17.5t19.5 26.5t7.5 33q0 36 -26 59.5t-60 23.5
q-35 0 -59.5 -24t-24.5 -59z" />
    <glyph glyph-name="divide" unicode="&#xf7;" horiz-adv-x="634" 
d="M590 197v124h-546v-124h546zM243 81q0 -32 21.5 -53.5t53.5 -21.5t53.5 21.5t21.5 53.5t-21.5 54.5t-53.5 22.5t-53.5 -22.5t-21.5 -54.5zM245 433q0 -31 21.5 -53.5t53.5 -22.5t53.5 22.5t21.5 53.5q0 32 -21.5 54t-53.5 22t-53.5 -22t-21.5 -54z" />
    <glyph glyph-name="oslash" unicode="&#xf8;" horiz-adv-x="625" 
d="M20 -1h95l29 31q35 -21 77.5 -32.5t91.5 -11.5q66 0 120 20.5t92.5 57t59.5 86t21 108.5q0 57 -20.5 106t-57.5 85l76 83h-94l-37 -41q-34 20 -74 30.5t-86 10.5q-63 0 -117 -21t-93 -58t-61.5 -87t-22.5 -107q0 -56 18.5 -103t51.5 -82zM216 260q0 47 28 74t69 27
q45 0 70.5 -28t25.5 -74q0 -24 -8 -43.5t-21 -32.5t-30.5 -20t-36.5 -7t-36.5 7t-31 20t-21.5 32.5t-8 44.5z" />
    <glyph glyph-name="ugrave" unicode="&#xf9;" horiz-adv-x="599" 
d="M366 518v-301q0 -32 -20.5 -50.5t-43.5 -18.5q-32 0 -50.5 17.5t-18.5 51.5v301h-191v-337q0 -39 10 -74t31 -62t53.5 -43t78.5 -16q44 0 73.5 10t48 24.5t28 29t14.5 23.5q2 -21 6 -41.5t13 -41.5l186 27l-7.5 15t-9 25.5t-7.5 43.5t-3 68v349h-191zM138 674l240 -120
l36 62l-218 151z" />
    <glyph glyph-name="uacute" unicode="&#xfa;" horiz-adv-x="599" 
d="M366 518v-301q0 -32 -20.5 -50.5t-43.5 -18.5q-32 0 -50.5 17.5t-18.5 51.5v301h-191v-337q0 -39 10 -74t31 -62t53.5 -43t78.5 -16q44 0 73.5 10t48 24.5t28 29t14.5 23.5q2 -21 6 -41.5t13 -41.5l186 27l-7.5 15t-9 25.5t-7.5 43.5t-3 68v349h-191zM184 615l36 -58
l238 115l-55 92z" />
    <glyph glyph-name="ucircumflex" unicode="&#xfb;" horiz-adv-x="599" 
d="M366 518v-301q0 -32 -20.5 -50.5t-43.5 -18.5q-32 0 -50.5 17.5t-18.5 51.5v301h-191v-337q0 -39 10 -74t31 -62t53.5 -43t78.5 -16q44 0 73.5 10t48 24.5t28 29t14.5 23.5q2 -21 6 -41.5t13 -41.5l186 27l-7.5 15t-9 25.5t-7.5 43.5t-3 68v349h-191zM96 581h129l79 68
l77 -68h131l-208 160z" />
    <glyph glyph-name="udieresis" unicode="&#xfc;" horiz-adv-x="599" 
d="M366 518v-301q0 -32 -20.5 -50.5t-43.5 -18.5q-32 0 -50.5 17.5t-18.5 51.5v301h-191v-337q0 -39 10 -74t31 -62t53.5 -43t78.5 -16q44 0 73.5 10t48 24.5t28 29t14.5 23.5q2 -21 6 -41.5t13 -41.5l186 27l-7.5 15t-9 25.5t-7.5 43.5t-3 68v349h-191zM323 656
q0 -36 25 -59.5t59 -23.5q33 0 58 23.5t25 59.5t-24 59.5t-59 23.5q-17 0 -32.5 -6.5t-27 -17.5t-18 -26t-6.5 -33zM123 656q0 -36 25 -59.5t59 -23.5q16 0 31.5 6t27.5 17.5t19.5 26.5t7.5 33q0 36 -26 59.5t-60 23.5q-35 0 -59.5 -24t-24.5 -59z" />
    <glyph glyph-name="ydieresis" unicode="&#xff;" horiz-adv-x="600" 
d="M391 539l-76 -322l-118 322l-189 -53l223 -458q-23 -51 -59 -90t-90 -74l152 -103q28 24 58 58t57.5 74.5t51 86.5t40.5 93l149 413zM321 656q0 -36 25 -59.5t59 -23.5q33 0 58 23.5t25 59.5t-24 59.5t-59 23.5q-17 0 -32.5 -6.5t-27 -17.5t-18 -26t-6.5 -33zM121 656
q0 -36 25 -59.5t59 -23.5q16 0 31.5 6t27.5 17.5t19.5 26.5t7.5 33q0 36 -26 59.5t-60 23.5q-35 0 -59.5 -24t-24.5 -59z" />
    <glyph glyph-name="dotlessi" unicode="&#x131;" horiz-adv-x="276" 
d="M42 518v-518h192v518h-192z" />
    <glyph glyph-name="OE" unicode="&#x152;" horiz-adv-x="1004" 
d="M508 482v-248q-20 -23 -47.5 -37t-63.5 -14q-29 0 -57 11t-50 33t-36 54.5t-14 76.5q0 42 12.5 74t34 54.5t50.5 34t61 11.5q64 0 110 -50zM398 724q-80 0 -149 -29.5t-120 -79.5t-80.5 -117.5t-29.5 -142.5q0 -79 29 -146.5t79.5 -117t119.5 -77.5t149 -28q20 0 39 2
t34 5t24 5l9 2h464l29 177h-281v73h198l17 167h-215v115h254l-20 177h-440q-31 8 -58.5 11.5t-51.5 3.5z" />
    <glyph glyph-name="oe" unicode="&#x153;" horiz-adv-x="974" 
d="M778 342q0 -9 -8 -13t-18 -4h-158q0 11 5.5 25t16.5 26t29 20.5t44 8.5q47 0 68 -21t21 -42zM216 260q0 47 28 74t69 27q42 0 69 -26t27 -75q0 -24 -8 -43.5t-21 -33t-30.5 -20.5t-36.5 -7q-40 0 -68.5 26.5t-28.5 77.5zM508 49q45 -33 91 -48t99 -15q62 0 107 13.5
t74.5 30t43.5 30l14 13.5l-82 107q-6 -6 -17 -15t-26.5 -17.5t-37.5 -14t-51 -5.5q-35 0 -60 13t-41 29.5t-23 32.5t-7 22h362q0 10 0.5 20t0.5 20q0 54 -18.5 102.5t-53.5 85t-86 58t-115 21.5q-51 0 -95.5 -16t-82.5 -46q-41 32 -89 47t-102 15q-63 0 -117 -21t-93 -58
t-61.5 -87t-22.5 -107q0 -61 22 -111t61 -86t93 -56t118 -20q54 0 104.5 15.5t90.5 47.5z" />
    <glyph glyph-name="Ydieresis" unicode="&#x178;" horiz-adv-x="667" 
d="M474 724l-144 -251l-138 251l-184 -75l219 -355v-294h206v294l223 355zM349 842q0 -36 25 -59.5t59 -23.5q33 0 58 23.5t25 59.5t-24 59.5t-59 23.5q-17 0 -32.5 -6.5t-27 -17.5t-18 -26t-6.5 -33zM149 842q0 -36 25 -59.5t59 -23.5q16 0 31.5 6t27.5 17.5t19.5 26.5
t7.5 33q0 36 -26 59.5t-60 23.5q-35 0 -59.5 -24t-24.5 -59z" />
    <glyph glyph-name="florin" unicode="&#x192;" horiz-adv-x="800" 
d="M44 0h720v730h-720v-730zM730 696v-660h-650v660h650zM366 365l-215 -218l39 -38l214 218l212 -216l40 37l-214 216l215 219l-38 39l-216 -220l-212 218l-41 -36z" />
    <glyph glyph-name="circumflex" unicode="&#x2c6;" horiz-adv-x="445" 
d="M14 581h129l79 68l77 -68h131l-208 160z" />
    <glyph glyph-name="caron" unicode="&#x2c7;" horiz-adv-x="439" 
d="M428 731h-129l-79 -68l-77 68h-131l208 -160z" />
    <glyph glyph-name="breve" unicode="&#x2d8;" horiz-adv-x="426" 
d="M405 727h-84q-11 -37 -38 -58.5t-71 -21.5q-38 0 -64.5 22t-35.5 58h-88q3 -24 15.5 -51t35 -50.5t56.5 -38.5t82 -15q45 0 80 15.5t59.5 38.5t37.5 50t15 51z" />
    <glyph glyph-name="dotaccent" unicode="&#x2d9;" horiz-adv-x="187" 
d="M10 657q0 -36 25 -59.5t59 -23.5q33 0 58 23.5t25 59.5t-24 59.5t-59 23.5q-17 0 -32.5 -6.5t-27 -17.5t-18 -26t-6.5 -33z" />
    <glyph glyph-name="ring" unicode="&#x2da;" horiz-adv-x="260" 
d="M17 660q0 -23 9 -43.5t24.5 -36t36.5 -24.5t44 -9t44 9t36.5 24.5t24.5 36t9 43.5t-9 44t-24.5 36.5t-36.5 24.5t-44 9t-44 -9t-36.5 -24.5t-24.5 -36.5t-9 -44zM131 730q29 0 49.5 -20.5t20.5 -49.5t-20.5 -49t-49.5 -20t-49.5 20t-20.5 49t20.5 49.5t49.5 20.5z" />
    <glyph glyph-name="ogonek" unicode="&#x2db;" horiz-adv-x="232" 
d="M201 -172q-19 0 -37 4.5t-32.5 14t-23 23.5t-8.5 34q0 8 7 22t17 29t21 27.5t18 17.5h-67q-10 -7 -24 -17t-27 -23.5t-22 -30.5t-9 -38q0 -26 12 -44.5t30.5 -31.5t41.5 -21t44.5 -12t39 -5.5t26.5 -1.5z" />
    <glyph glyph-name="tilde" unicode="&#x2dc;" horiz-adv-x="425" 
d="M355 716q-9 -11 -25.5 -25.5t-47.5 -14.5q-21 0 -37.5 7.5t-32.5 16.5t-34 16.5t-41 7.5q-24 0 -44 -6t-36 -15t-28 -19.5t-20 -19.5l62 -63q13 11 29 21.5t50 10.5q14 0 28 -7t30 -16t33.5 -16t37.5 -7q29 0 52.5 9.5t40.5 22t28.5 25.5t16.5 21z" />
    <glyph glyph-name="hungarumlaut" unicode="&#x2dd;" horiz-adv-x="490" 
d="M200 589l36 -58l238 115l-55 92zM10 615l36 -58l238 115l-55 92z" />
    <glyph glyph-name="Delta" unicode="&#x394;" horiz-adv-x="800" 
d="M168 346h597v50h-597q19 20 34.5 44t26.5 45t17 35.5l6 14.5h-39l-14.5 -16.5t-39.5 -40.5t-59.5 -50t-73.5 -44v-28q39 -17 73 -42.5t59.5 -49.5t40 -41l14.5 -17h39l-6.5 14.5t-17.5 35.5t-26.5 45.5t-33.5 44.5z" />
    <glyph glyph-name="Omega" unicode="&#x3a9;" horiz-adv-x="750" 
d="M225 583l-63 -3l-3 -60l-57 -19l18 -57l-49 -30l30 -51l-35 -44l42 -40l-19 -53l52 -22l-4 -56l52 -7l15 -57l62 12l24 -53l48 30l42 -39l43 39l50 -25l30 48l58 -5l9 56l59 6l-6 58l54 26l-27 49l43 45l-39 41l35 49l-51 32l18 54l-60 16v59l-62 -2l-24 54l-52 -18
l-36 45l-45 -33l-45 32l-36 -42l-53 16z" />
    <glyph glyph-name="pi" unicode="&#x3c0;" horiz-adv-x="750" 
d="M240 242l-82 -256l219 157l219 -159l-85 257l224 165h-271l-86 266l-82 -266h-278z" />
    <glyph glyph-name="endash" unicode="&#x2013;" horiz-adv-x="610" 
d="M19 362v-185h571v185h-571z" />
    <glyph glyph-name="emdash" unicode="&#x2014;" horiz-adv-x="900" 
d="M19 362v-185h861v185h-861z" />
    <glyph glyph-name="quoteleft" unicode="&#x2018;" horiz-adv-x="247" 
d="M252 663q-5 -4 -14 -14t-18 -24t-15.5 -31t-6.5 -35q0 -28 4.5 -48.5t11 -35.5t13 -24.5t10.5 -15.5l-91 -73q-10 9 -29 29t-37.5 49t-32 65.5t-13.5 78.5q0 30 7 54t16 42t18 29t12 15z" />
    <glyph glyph-name="quoteright" unicode="&#x2019;" horiz-adv-x="247" 
d="M20 663q5 -4 14 -14t18 -24t15.5 -31t6.5 -35q0 -28 -4.5 -48.5t-11 -35.5t-13 -24.5t-10.5 -15.5l91 -73q10 9 29 29t37.5 49t32 65.5t13.5 78.5q0 30 -7 54t-16 42t-18 29t-12 15z" />
    <glyph glyph-name="quotesinglbase" unicode="&#x201a;" horiz-adv-x="247" 
d="M20 141q5 -4 14 -14t18 -24t15.5 -31t6.5 -35q0 -28 -4.5 -48.5t-11 -35.5t-13 -24.5t-10.5 -15.5l91 -73q10 9 29 29t37.5 49t32 65.5t13.5 78.5q0 30 -7 54t-16 42t-18 29t-12 15z" />
    <glyph glyph-name="quotedblleft" unicode="&#x201c;" horiz-adv-x="537" 
d="M28 583q0 -43 13 -79t31 -63.5t37 -47.5t30 -32l92 73q-5 6 -11.5 15.5t-12.5 24t-10.5 35t-4.5 49.5q0 17 6.5 33.5t15.5 31t18 24.5t14 15l-165 61q-3 -4 -12 -15.5t-18 -29.5t-16 -42t-7 -53zM279 572q0 -40 12.5 -73t29.5 -58.5t35 -44t29 -28.5l88 66q-5 6 -11 15
t-12 22.5t-10 32.5t-4 46q0 15 6 30.5t14.5 28.5t17 23t13.5 14l-157 56q-3 -4 -11.5 -14.5t-17.5 -27t-15.5 -39t-6.5 -49.5z" />
    <glyph glyph-name="quotedblright" unicode="&#x201d;" horiz-adv-x="537" 
d="M469 723l-165 -61q5 -5 14 -15t18 -24.5t15.5 -31t6.5 -33.5q0 -29 -4.5 -49.5t-10.5 -35t-13 -24t-11 -15.5l92 -73q11 12 30 32t37 47.5t31 63.5t13 79q0 29 -7 53t-16 42t-18 29.5t-12 15.5zM220 702l-157 -56q5 -4 13.5 -14t17 -23t14.5 -28.5t6 -30.5q0 -27 -4 -46
t-10 -32.5t-12.5 -22.5t-10.5 -15l88 -66q11 10 29 28.5t35 44t29.5 58.5t12.5 73q0 27 -6.5 49.5t-15.5 39t-17.5 27t-11.5 14.5z" />
    <glyph glyph-name="quotedblbase" unicode="&#x201e;" horiz-adv-x="537" 
d="M469 203l-165 -61q5 -5 14 -15t18 -24.5t15.5 -31t6.5 -33.5q0 -29 -4.5 -49.5t-10.5 -35t-13 -24t-11 -15.5l92 -73q11 12 30 32t37 47.5t31 63.5t13 79q0 29 -7 53t-16 42t-18 29.5t-12 15.5zM220 182l-157 -56q5 -4 13.5 -14t17 -23t14.5 -28.5t6 -30.5q0 -27 -4 -46
t-10 -32.5t-12.5 -22.5t-10.5 -15l88 -66q11 10 29 28.5t35 44t29.5 58.5t12.5 73q0 27 -6.5 49.5t-15.5 39t-17.5 27t-11.5 14.5z" />
    <glyph glyph-name="dagger" unicode="&#x2020;" horiz-adv-x="335" 
d="M222 0v476h97v108h-97v125h-108v-125h-98v-108h98v-476h108z" />
    <glyph glyph-name="daggerdbl" unicode="&#x2021;" horiz-adv-x="335" 
d="M114 709v-125h-98v-108h98v-243h-98v-106h98v-127h108v127h97v106h-97v243h97v108h-97v125h-108z" />
    <glyph glyph-name="bullet" unicode="&#x2022;" 
d="M69 360q0 -38 14.5 -71t39 -58t58 -39t71.5 -14t71.5 14t58 39t39 58t14.5 71t-14.5 71.5t-39 58t-58 39t-71.5 14.5t-71.5 -14.5t-58 -39t-39 -58t-14.5 -71.5z" />
    <glyph glyph-name="ellipsis" unicode="&#x2026;" horiz-adv-x="900" 
d="M640 96q0 -24 8.5 -44t23.5 -34.5t35 -23t43 -8.5t43 8.5t35 23t23.5 34.5t8.5 44t-8.5 44t-23.5 34.5t-35 23t-43 8.5t-43 -8.5t-35 -23.5t-23.5 -35t-8.5 -43zM340 96q0 -24 8.5 -44t23.5 -34.5t35 -23t43 -8.5t43 8.5t35 23t23.5 34.5t8.5 44t-8.5 44t-23.5 34.5
t-35 23t-43 8.5t-43 -8.5t-35 -23.5t-23.5 -35t-8.5 -43zM40 96q0 -24 8.5 -44t23.5 -34.5t35 -23t43 -8.5t43 8.5t35 23t23.5 34.5t8.5 44t-8.5 44t-23.5 34.5t-35 23t-43 8.5t-43 -8.5t-35 -23.5t-23.5 -35t-8.5 -43z" />
    <glyph glyph-name="perthousand" unicode="&#x2030;" horiz-adv-x="1316" 
d="M1091 403q-45 0 -82 -17t-63.5 -45.5t-41 -66t-14.5 -79.5q0 -45 15 -83t42 -66t63.5 -44t80.5 -16q45 0 82 17t63.5 45.5t41 66.5t14.5 80q0 44 -16 82t-43.5 66t-64 44t-77.5 16zM1018 189q0 40 18 63.5t54 23.5q34 0 53.5 -24.5t19.5 -62.5q0 -35 -19.5 -58.5
t-53.5 -23.5q-33 0 -52.5 23t-19.5 59zM625 724l-457 -738h87l459 738h-89zM221 724q-44 0 -81 -17t-63.5 -45.5t-41.5 -66t-15 -79.5q0 -45 15 -83t42 -66t63.5 -44t80.5 -16q45 0 82 17t63.5 45.5t41 66.5t14.5 80q0 44 -16 82t-43.5 66t-64 44t-77.5 16zM148 510
q0 40 18.5 63.5t54.5 23.5q34 0 53.5 -24.5t19.5 -62.5q0 -35 -19.5 -58.5t-53.5 -23.5q-33 0 -53 23t-20 59zM661 403q-45 0 -82 -17t-63.5 -45.5t-41 -66t-14.5 -79.5q0 -45 15 -83t42 -66t63.5 -44t80.5 -16q45 0 82 17t63.5 45.5t41 66.5t14.5 80q0 44 -16 82t-43.5 66
t-64 44t-77.5 16zM588 189q0 40 18 63.5t54 23.5q34 0 53.5 -24.5t19.5 -62.5q0 -35 -19.5 -58.5t-53.5 -23.5q-33 0 -52.5 23t-19.5 59z" />
    <glyph glyph-name="guilsinglleft" unicode="&#x2039;" horiz-adv-x="322" 
d="M181 281l125 161h-151l-133 -157l134 -169h149z" />
    <glyph glyph-name="guilsinglright" unicode="&#x203a;" horiz-adv-x="322" 
d="M143 277l-125 -161h151l133 157l-134 169h-149z" />
    <glyph glyph-name="trademark" unicode="&#x2122;" 
d="M-1 671h75v-254h41v254h74v38h-190v-38zM220 417h39v265h14l55 -265h51l53 267h12v-267h37v292h-80l-42 -249h-7l-49 249h-83v-292z" />
    <glyph glyph-name="partialdiff" unicode="&#x2202;" horiz-adv-x="800" 
d="M110 294q0 -61 23 -114.5t63 -93.5t93.5 -63t114.5 -23t114.5 23t93.5 63t63 93.5t23 114.5t-23 114.5t-63 93.5t-93.5 63t-114.5 23t-114.5 -23t-93.5 -63t-63 -93.5t-23 -114.5z" />
    <glyph glyph-name="product" unicode="&#x220f;" horiz-adv-x="800" 
d="M76 196q-3 -26 -7 -47t-9 -41t-11.5 -41t-14.5 -45l20 -16q53 41 98.5 72t91 58t94.5 52.5t108 55.5q36 18 67 31.5t61.5 24.5t62.5 21t71 21q3 28 8 49t14 47q11 32 22.5 54t29.5 50q-50 -19 -91.5 -36t-79.5 -36t-76.5 -42t-82.5 -54q-50 -35 -93 -66.5t-84 -65
t-81 -71t-84 -85.5q9 22 16.5 41t14 37t12.5 37.5t13 42.5q6 19 10.5 35.5t8.5 32t7.5 32t7.5 36.5l-116 -38v-39t-1 -34.5t-2.5 -34t-4.5 -38.5z" />
    <glyph glyph-name="summation" unicode="&#x2211;" horiz-adv-x="800" 
d="M397 0q63 0 118.5 24t97 65t65.5 96t24 118t-23 118.5t-63.5 97t-94.5 66t-117 24.5t-118.5 -23t-97 -63.5t-65.5 -95t-24 -117.5t23 -119.5t63 -98.5t94.5 -67t117.5 -25zM663 300q0 -56 -21 -104t-57 -83t-84.5 -55t-102.5 -20q-55 0 -102.5 22t-82.5 59.5t-55 87
t-20 104.5t21.5 102.5t58 82.5t85 55.5t103.5 20.5t102 -21.5t81.5 -58.5t54 -86.5t19.5 -105.5z" />
    <glyph glyph-name="fraction" unicode="&#x2215;" horiz-adv-x="492" 
d="M429 724l-457 -738h87l459 738h-89z" />
    <glyph glyph-name="radical" unicode="&#x221a;" horiz-adv-x="750" 
d="M13 0l720 -1l-358 730z" />
    <glyph glyph-name="infinity" unicode="&#x221e;" 
d="M77 178h346v341h-346v-341z" />
    <glyph glyph-name="integral" unicode="&#x222b;" horiz-adv-x="750" 
d="M236 245l-83 -257l218 159l220 -161l-86 259l223 163h-269l-86 266l-82 -266h-278zM437 382h215l-177 -129l67 -201l-171 125l-167 -122l64 197l-178 130h221l63 201z" />
    <glyph glyph-name="approxequal" unicode="&#x2248;" horiz-adv-x="800" 
d="M628 396h-597v-50h597q-19 -20 -34.5 -44t-26.5 -45t-17 -35.5l-6 -14.5h39l14.5 16.5t39.5 40.5t59.5 50t73.5 44v28q-39 17 -73 42.5t-59.5 49.5t-40 41l-14.5 17h-39l6.5 -14.5t17.5 -35.5t26.5 -45.5t33.5 -44.5z" />
    <glyph glyph-name="notequal" unicode="&#x2260;" horiz-adv-x="600" 
d="M545 465h-326v106l-188 -272l188 -272v103h326v335zM194 161v-51l-129 190l129 187v-53h320v-273h-320z" />
    <glyph glyph-name="lozenge" unicode="&#x25ca;" horiz-adv-x="600" 
d="M548 465h-326v106l-188 -272l188 -272v103h326v335z" />
    <glyph glyph-name="apple" unicode="&#xf8ff;" 
d="M77 178h346v341h-346v-341zM102 200v298h298v-298h-298z" />
    <glyph glyph-name="fi" unicode="&#xfb01;" horiz-adv-x="600" 
d="M51 130h326v-106l188 272l-188 272v-103h-326v-335zM402 434v51l129 -190l-129 -187v53h-320v273h320z" />
    <glyph glyph-name="fl" unicode="&#xfb02;" horiz-adv-x="600" 
d="M53 130h326v-106l188 272l-188 272v-103h-326v-335z" />
  </font>
</defs>
</svg>
