<?xml version="1.0" standalone="no"?>
<!DOCTYPE svg PUBLIC "-//W3C//DTD SVG 1.1//EN" "http://www.w3.org/Graphics/SVG/1.1/DTD/svg11.dtd" >
<svg xmlns="http://www.w3.org/2000/svg" xmlns:xlink="http://www.w3.org/1999/xlink" version="1.1">
<metadata>
Created by FontForge 20190801 at Sat Apr 10 12:02:40 2021
 By www-data
Copyright 2017-2021 Indian Type Foundry. All rights reserved.
</metadata>
<defs>
<font id="PallyBold" horiz-adv-x="500" >
  <font-face 
    font-family="PallyBold"
    font-weight="700"
    font-stretch="normal"
    units-per-em="1000"
    panose-1="0 0 0 0 0 0 0 0 0 0"
    ascent="800"
    descent="-200"
    x-height="500"
    cap-height="690"
    bbox="-123.63 -275 1629 976"
    underline-thickness="45"
    underline-position="-221"
    unicode-range="U+000D-FB02"
  />
<missing-glyph horiz-adv-x="664" 
d="M192 0q-9 0 -13 1q-4 -1 -14 -1h-65q-40 0 -40 40v590q0 40 40 40h65q10 0 14 -1q4 1 14 1h279q10 0 14 -1q4 1 13 1h65q40 0 40 -40v-590q0 -40 -40 -40h-65q-9 0 -13 1q-4 -1 -13 -1h-281zM459 145v380h-254v-380h254z" />
    <glyph glyph-name="fi" unicode="fi" horiz-adv-x="638" 
d="M223 0h-80q-20 0 -27 13q-3 8 -3 17v308l-71 -4q-16 -1 -22 7t-6 24v80q0 7 3 13q6 19 31 21l65 4v33q0 14 2 38q11 87 69.5 135t145.5 42l15 -1l14 -1q7 0 15 -2q20 -6 21 -26q1 -4 -1 -17l-13 -67q-4 -24 -32 -23l-29 2q-37 3 -51 -17.5t-16 -65.5v-21l114 7
q16 1 22 -7t6 -24v-80q0 -14 -9.5 -23.5t-24.5 -10.5l-108 -7v-317q0 -30 -30 -30zM525 549q-35 0 -60 25.5t-25 60.5t25 60t60 25t60 -25t25 -60t-25 -60.5t-60 -25.5zM595 40q0 -40 -40 -40h-60q-40 0 -40 40v400q0 40 40 40h60q40 0 40 -40v-400z" />
    <glyph glyph-name="fl" unicode="fl" horiz-adv-x="644" 
d="M223 0h-80q-20 0 -27 13q-3 8 -3 17v308l-71 -4q-16 -1 -22 7t-6 24v80q0 7 3 13q6 19 31 21l65 4v33q0 14 2 38q11 87 69.5 135t145.5 42l15 -1l14 -1q7 0 15 -2q20 -6 21 -26q1 -4 -1 -17l-13 -67q-4 -24 -32 -23l-29 2q-37 3 -51 -17.5t-16 -65.5v-21l114 7
q16 1 22 -7t6 -24v-80q0 -14 -9.5 -23.5t-24.5 -10.5l-108 -7v-317q0 -30 -30 -30zM599 40q0 -40 -40 -40h-65q-40 0 -40 40v640q0 40 40 40h65q40 0 40 -40v-640z" />
    <glyph glyph-name=".notdef" horiz-adv-x="664" 
d="M192 0q-9 0 -13 1q-4 -1 -14 -1h-65q-40 0 -40 40v590q0 40 40 40h65q10 0 14 -1q4 1 14 1h279q10 0 14 -1q4 1 13 1h65q40 0 40 -40v-590q0 -40 -40 -40h-65q-9 0 -13 1q-4 -1 -13 -1h-281zM459 145v380h-254v-380h254z" />
    <glyph glyph-name=".null" horiz-adv-x="0" 
 />
    <glyph glyph-name=".null" horiz-adv-x="0" 
 />
    <glyph glyph-name="nonmarkingreturn" horiz-adv-x="333" 
 />
    <glyph glyph-name="CR" unicode="&#xd;" horiz-adv-x="0" 
 />
    <glyph glyph-name="space" unicode=" " horiz-adv-x="200" 
 />
    <glyph glyph-name="exclam" unicode="!" horiz-adv-x="240" 
d="M45 630q0 40 40 40h70q40 0 40 -40v-354q0 -40 -40 -40h-70q-40 0 -40 40v354zM120 -12q-38 0 -66 28t-28 67q0 38 28 66t66 28t66 -28t28 -66q0 -39 -28 -67t-66 -28z" />
    <glyph glyph-name="quotedbl" unicode="&#x22;" horiz-adv-x="373" 
d="M213 453l20 217q2 25 27 22l96 -14q24 -3 19 -27l-49 -215q-5 -24 -31 -20l-59 8q-11 1 -17.5 9.5t-5.5 19.5zM18 443l20 217q2 25 27 22l96 -14q24 -3 19 -27l-49 -215q-5 -24 -31 -20l-59 8q-11 1 -17.5 9.5t-5.5 19.5z" />
    <glyph glyph-name="numbersign" unicode="#" horiz-adv-x="799" 
d="M485 -52q-11 -38 -49 -29l-54 14q-39 11 -29 50l41 151h-95l-50 -186q-11 -41 -50 -29l-53 16q-38 12 -28 48l41 151h-66q-40 0 -40 40v60q0 40 40 40h103l33 121h-79q-40 0 -40 40v60q0 40 40 40h117l50 186q11 40 50 29l52 -13q40 -10 29 -50l-41 -152h96l50 186
q10 39 49 29l53 -15q39 -11 29 -48l-41 -152h63q40 0 40 -40v-60q0 -40 -40 -40h-101l-32 -121h76q40 0 40 -40v-60q0 -40 -40 -40h-114zM432 274l33 121h-96l-32 -121h95z" />
    <glyph glyph-name="dollar" unicode="$" horiz-adv-x="506" 
d="M292 -100h-60q-40 0 -40 40v54q-91 17 -152 61q-17 13 -20.5 21.5t4.5 27.5l29 60q8 16 17 19.5t27 -5.5q100 -55 176 -55q68 0 68 52q0 25 -28.5 50.5t-107.5 60.5q-161 71 -161 204q0 71 38.5 120t109.5 65v55q0 40 40 40h60q40 0 40 -40v-57q60 -15 97 -39
q17 -11 20 -21.5t-4 -27.5l-26 -57q-13 -27 -44 -14q-74 33 -120 33q-31 0 -48.5 -13t-17.5 -34q0 -23 28.5 -47.5t105.5 -58.5q163 -73 163 -204q0 -77 -40 -127.5t-114 -67.5v-55q0 -40 -40 -40z" />
    <glyph glyph-name="percent" unicode="%" horiz-adv-x="1000" 
d="M342 -63q-20 -33 -55 -15l-44 23q-36 19 -15 55l408 695q20 33 55 15l44 -23q36 -19 15 -55zM236 290q-90 0 -143 55.5t-53 141.5t53 141t143 55t143 -55t53 -141t-53 -141.5t-143 -55.5zM236 404q37 0 59.5 20t22.5 63q0 42 -23 62t-59 20t-58.5 -20t-22.5 -62
t22.5 -62.5t58.5 -20.5zM764 -12q-90 0 -143 55.5t-53 141.5t53 141t143 55t143 -55t53 -141t-53 -141.5t-143 -55.5zM764 102q37 0 59.5 20t22.5 63q0 42 -23 62t-59 20t-58.5 -20t-22.5 -62t22.5 -62.5t58.5 -20.5z" />
    <glyph glyph-name="ampersand" unicode="&#x26;" horiz-adv-x="620" 
d="M535 0q0 -40 -40 -40h-60q-40 0 -40 40v61q-31 -35 -76.5 -54t-90.5 -19q-100 0 -154 51.5t-54 131.5q0 110 118 164q-91 50 -91 156q0 83 64 137t167 54q105 0 175 -54q19 -14 4 -42l-28 -52q-12 -24 -40 -11q-51 24 -111 24q-44 0 -69 -20.5t-25 -53.5q0 -71 100 -71
h111v30q0 40 40 40h60q40 0 40 -40v-30h40q40 0 40 -40v-55q0 -40 -40 -40h-40v-267zM256 133q63 0 101 36t38 97v1h-151q-40 0 -63.5 -21t-23.5 -52q0 -29 25.5 -45t73.5 -16z" />
    <glyph glyph-name="quotesingle" unicode="'" horiz-adv-x="178" 
d="M18 443l20 217q2 25 27 22l96 -14q24 -3 19 -27l-49 -215q-5 -24 -31 -20l-59 8q-11 1 -17.5 9.5t-5.5 19.5z" />
    <glyph glyph-name="parenleft" unicode="(" horiz-adv-x="258" 
d="M169 312q0 -92 23.5 -178.5t78.5 -193.5q9 -18 -2 -29t-33 -11h-60q-37 0 -55 40q-87 190 -87 372t87 372q18 40 55 40h60q22 0 33 -11t2 -29q-55 -107 -78.5 -193.5t-23.5 -178.5z" />
    <glyph glyph-name="parenright" unicode=")" horiz-adv-x="258" 
d="M89 312q0 92 -23.5 178.5t-78.5 193.5q-9 18 2 29t33 11h60q37 0 55 -40q87 -190 87 -372t-87 -372q-18 -40 -55 -40h-60q-22 0 -33 11t-2 29q55 107 78.5 193.5t23.5 178.5z" />
    <glyph glyph-name="asterisk" unicode="*" horiz-adv-x="466" 
d="M287 296l-41 58q-6 9 -14 9t-14 -9l-40 -57q-13 -20 -34 -6l-57 40q-20 15 -6 34l43 57q14 19 -9 27l-66 20q-24 7 -17 31l21 67q3 11 12 15.5t19 0.5l66 -24q23 -8 23 17l-1 69q0 25 25 25h70q24 0 24 -25l-1 -69q0 -25 24 -17l64 23q23 8 32 -16l23 -65q4 -10 -0.5 -19
t-15.5 -12l-68 -21q-23 -8 -9 -27l42 -55q15 -20 -5 -35l-56 -42q-19 -14 -34 6z" />
    <glyph glyph-name="plus" unicode="+" 
d="M315 160q0 -40 -40 -40h-50q-40 0 -40 40v112h-102q-40 0 -40 40v50q0 40 40 40h102v113q0 40 40 40h50q40 0 40 -40v-113h102q40 0 40 -40v-50q0 -40 -40 -40h-102v-112z" />
    <glyph glyph-name="comma" unicode="," horiz-adv-x="212" 
d="M192 37q0 -85 -40.5 -131.5t-112.5 -46.5q-25 0 -25 24v23q0 26 25 29q32 4 45 15t16 32l1 6q-38 0 -59.5 23t-21.5 58q0 34 24.5 58.5t58.5 24.5q39 0 64 -29.5t25 -85.5z" />
    <glyph glyph-name="hyphen" unicode="-" horiz-adv-x="330" 
d="M275 336q40 0 40 -40v-50q0 -40 -40 -40h-220q-40 0 -40 40v50q0 40 40 40h220z" />
    <glyph glyph-name="period" unicode="." horiz-adv-x="211" 
d="M105 -12q-35 0 -60 25.5t-25 60.5q0 34 25 59.5t60 25.5t60.5 -25t25.5 -60t-25.5 -60.5t-60.5 -25.5z" />
    <glyph glyph-name="slash" unicode="/" 
d="M113 -78q-20 -36 -55 -15l-56 33q-35 21 -15 55l400 715q21 36 55 15l56 -33q34 -21 15 -55z" />
    <glyph glyph-name="zero" unicode="0" horiz-adv-x="632" 
d="M315 -10q-131 0 -208 91.5t-77 253.5q0 163 77.5 255t209.5 92q130 0 207.5 -93t77.5 -254t-78 -253t-209 -92zM317 140q69 0 105 50.5t35 144.5q-2 95 -37.5 146t-103.5 51q-69 0 -105 -51t-36 -146t36 -145t106 -50z" />
    <glyph glyph-name="one" unicode="1" horiz-adv-x="470" 
d="M415 0h-350q-29 0 -37 20q-3 6 -3 15v80q0 35 40 35h85q12 0 16 4.5t4 17.5v307l-91 -42q-10 -5 -16 -5q-22 -3 -22 29v108q0 24 13 33q6 4 15 9l115 53q1 1 3 1q7 5 23 5h60q32 0 38 -25q2 -10 2 -15v-458q0 -13 4 -17.5t16 -4.5h85q8 0 18 -2q22 -7 22 -33v-80
q0 -9 -3 -15q-8 -20 -37 -20z" />
    <glyph glyph-name="two" unicode="2" horiz-adv-x="533" 
d="M459 0h-399q-40 0 -40 40v72q1 43 33 81.5t77.5 68t90 58t76 62t31.5 68.5q0 82 -85 82q-57 0 -116 -27q-41 -19 -54 9l-30 65q-14 30 4 42q41 28 97 44.5t108 16.5q106 0 163.5 -57.5t57.5 -153.5q0 -66 -32.5 -118.5t-71.5 -80t-93 -63t-78 -59.5h261q40 0 40 -40v-70
q0 -40 -40 -40z" />
    <glyph glyph-name="three" unicode="3" horiz-adv-x="505" 
d="M245 -12q-56 0 -115 17t-101 49q-17 14 -4 42l28 62q14 32 37 18q68 -38 146 -38q42 0 68.5 18t26.5 48q0 63 -86 63h-97q-40 0 -40 40v60q0 40 40 40h40q128 0 128 71q0 54 -90 54q-58 0 -130 -39q-23 -14 -37 18l-28 62q-13 28 4 42q88 67 207 67q102 0 160.5 -47
t58.5 -124q0 -103 -102 -159q57 -20 87 -65t30 -102q0 -88 -61 -142.5t-170 -54.5z" />
    <glyph glyph-name="four" unicode="4" horiz-adv-x="569" 
d="M450 40q0 -40 -40 -40h-60q-40 0 -40 40v89h-255q-39 0 -39 39v52q0 24 20 57l229 377q10 16 35 16h110q40 0 40 -40v-351h63q40 0 40 -40v-71q0 -39 -39 -39h-64v-89zM184 279h126v209z" />
    <glyph glyph-name="five" unicode="5" horiz-adv-x="511" 
d="M236 -12q-123 0 -207 64q-17 14 -4 42l32 70q15 34 37 18q54 -42 134 -42q51 0 83 17.5t32 53.5q0 77 -154 77h-82q-40 0 -40 40v302q0 40 40 40h295q40 0 40 -40v-60q0 -40 -40 -40h-205v-102h63q101 0 164.5 -57t63.5 -159q0 -106 -69.5 -165t-182.5 -59z" />
    <glyph glyph-name="six" unicode="6" horiz-adv-x="552" 
d="M279 -12q-119 0 -187 77t-68 188q0 108 68 211.5t221 213.5q19 14 30 14.5t26 -14.5l37 -43q25 -29 0 -48q-96 -71 -152 -136q23 3 43 3q102 0 168 -62.5t66 -157.5q0 -107 -71 -176.5t-181 -69.5zM284 138q44 0 73 25.5t29 69.5q0 40 -30 65.5t-75 25.5q-59 0 -107 -24
q-5 -27 -5 -47q0 -55 32.5 -85t82.5 -30z" />
    <glyph glyph-name="seven" unicode="7" horiz-adv-x="524" 
d="M160 0h-75q-26 0 -36 18.5t5 44.5l270 457h-266q-40 0 -40 40v70q0 40 40 40h410q40 0 40 -40v-70q0 -16 -6 -25q-2 -5 -5 -10l-289 -485q-19 -32 -27 -36t-21 -4z" />
    <glyph glyph-name="eight" unicode="8" horiz-adv-x="576" 
d="M288 -12q-119 0 -190 56t-71 141q0 103 100 156q-80 51 -80 156q0 85 65.5 140t175.5 55t175.5 -55t65.5 -140q0 -104 -80 -156q100 -56 100 -156q0 -85 -71 -141t-190 -56zM288 547q-45 0 -73 -18.5t-28 -56.5q0 -74 101 -74t101 74q0 38 -28 56.5t-73 18.5zM288 133
q54 0 87.5 18.5t33.5 56.5q0 70 -121 70t-121 -70q0 -38 33.5 -56.5t87.5 -18.5z" />
    <glyph glyph-name="nine" unicode="9" horiz-adv-x="552" 
d="M273 682q119 0 187 -77t68 -188q0 -108 -68 -211.5t-221 -213.5q-19 -14 -30 -14.5t-26 14.5l-37 43q-25 29 0 48q96 71 152 136q-22 -3 -43 -3q-102 0 -168 62.5t-66 157.5q0 107 71 176.5t181 69.5zM268 532q-44 0 -73 -25.5t-29 -69.5q0 -40 30 -65.5t75 -25.5
q59 0 107 24q5 27 5 47q0 55 -32.5 85t-82.5 30z" />
    <glyph glyph-name="colon" unicode=":" horiz-adv-x="211" 
d="M105 291q-35 0 -60 25.5t-25 60.5t25 60t60 25t60.5 -25t25.5 -60t-25.5 -60.5t-60.5 -25.5zM105 -12q-35 0 -60 25.5t-25 60.5q0 34 25 59.5t60 25.5t60.5 -25t25.5 -60t-25.5 -60.5t-60.5 -25.5z" />
    <glyph glyph-name="semicolon" unicode=";" horiz-adv-x="212" 
d="M105 341q-35 0 -60 25.5t-25 60.5t25 60t60 25t60.5 -25t25.5 -60t-25.5 -60.5t-60.5 -25.5zM192 37q0 -85 -40.5 -131.5t-112.5 -46.5q-25 0 -25 24v23q0 26 25 29q32 4 45 15t16 32l1 6q-38 0 -59.5 23t-21.5 58q0 34 24.5 58.5t58.5 24.5q39 0 64 -29.5t25 -85.5z" />
    <glyph glyph-name="less" unicode="&#x3c;" 
d="M447 140q0 -21 -11 -30t-29 0l-304 150q-27 14 -35 27v1v1q-1 1 -1 2q-1 0 -1 2q-1 1 -1 2t-1 3v3l-1 3v66q0 10 6.5 18t12 11t21.5 11l304 150q18 9 29 0t11 -30v-60q0 -27 -24 -41q-4 -3 -16 -9l-185 -85l185 -85q15 -7 21.5 -10.5t12.5 -11.5t6 -18v-70z" />
    <glyph glyph-name="equal" unicode="=" 
d="M407 500q40 0 40 -40v-50q0 -40 -40 -40h-314q-40 0 -40 40v50q0 40 40 40h314zM407 300q40 0 40 -40v-50q0 -40 -40 -40h-314q-40 0 -40 40v50q0 40 40 40h314z" />
    <glyph glyph-name="greater" unicode="&#x3e;" 
d="M63 140v70q0 10 6 18t12.5 11.5t21.5 10.5l185 85l-185 85q-12 6 -16 9q-24 14 -24 41v60q0 21 11 30t29 0l304 -150q16 -8 21.5 -11t12 -11t6.5 -18v-66v1l-1 -4v-3v-1q-1 -1 -1 -2t-1 -2q0 -2 -1 -2q0 -1 -1 -2v-1v-1q-8 -13 -35 -27l-304 -150q-18 -9 -29 0t-11 30z
" />
    <glyph glyph-name="question" unicode="?" horiz-adv-x="515" 
d="M314 485q0 73 -87 73q-50 0 -125 -42q-22 -13 -37 18l-28 63q-13 28 4 42q36 28 86.5 44t100.5 16q103 0 164.5 -58.5t61.5 -155.5q0 -47 -18 -85t-57 -69.5t-63.5 -47t-72.5 -40.5q-9 -5 -13 -7q-16 -7 -28.5 -3.5t-19.5 14.5l-36 56q-18 28 8 41q38 18 60.5 30
t48.5 30.5t38.5 38t12.5 42.5zM205 -12q-38 0 -66 28t-28 67q0 38 28 66t66 28t66 -28t28 -66q0 -39 -28 -67t-66 -28z" />
    <glyph glyph-name="at" unicode="@" horiz-adv-x="1015" 
d="M553 -130q-243 0 -375.5 121.5t-132.5 341.5q0 209 125.5 335.5t333.5 126.5q210 0 338 -127t128 -335q0 -125 -50.5 -188.5t-139.5 -63.5q-116 0 -164 86q-18 -41 -62 -63.5t-92 -22.5q-72 0 -118 44t-46 111t43 110t131 43q57 0 119 -26v13q0 40 -27.5 61.5t-76.5 21.5
q-35 0 -98 -38q-19 -11 -37 18l-29 48q-17 27 4 42q75 60 176 60q102 0 160 -56t58 -163v-84q0 -41 17 -63t47 -22q73 0 73 132q0 152 -93.5 248t-261.5 96q-165 0 -255.5 -96t-90.5 -248q0 -164 96.5 -254.5t299.5 -90.5q21 0 30.5 -7.5t9.5 -27.5v-48q0 -20 -9.5 -27.5
t-30.5 -7.5zM487 196q39 0 71.5 17.5t32.5 46.5v4q-52 20 -104 20q-59 0 -59 -44q0 -20 17 -32t42 -12z" />
    <glyph glyph-name="A" unicode="A" horiz-adv-x="676" 
d="M168 11q-9 -30 -22.5 -37.5t-40.5 -2.5l-59 12q-27 6 -32.5 18.5t4.5 39.5l193 589q9 25 18.5 32.5t29.5 7.5h86q8 0 12 -0.5t7.5 -4t5 -6t5.5 -12.5t8 -17l274 -571q13 -27 6.5 -40t-34.5 -18l-54 -10q-29 -5 -41 1.5t-27 38.5l-44 96h-259zM406 252l-98 214l-66 -214
h164z" />
    <glyph glyph-name="B" unicode="B" horiz-adv-x="584" 
d="M286 -20h-187q-39 0 -39 40v610q0 37 40 40l175 10q112 7 175.5 -41.5t63.5 -131.5q0 -51 -27.5 -92t-68.5 -61q72 -18 109 -61.5t37 -105.5q0 -207 -278 -207zM245 540l-40 -3v-123h55q109 0 109 66q0 35 -28.5 50t-95.5 10zM205 120h105q58 0 83.5 18.5t25.5 57.5
q0 78 -129 78h-85v-154z" />
    <glyph glyph-name="C" unicode="C" horiz-adv-x="605" 
d="M360 138q67 0 146 36q32 14 43 -15l30 -74q11 -26 -6 -37q-100 -60 -215 -60q-150 0 -240 94.5t-90 252.5q0 157 90.5 252t241.5 95q115 0 213 -60q17 -11 6 -37l-30 -74q-11 -29 -43 -15q-79 36 -146 36q-89 0 -138 -55t-49 -142q0 -88 48.5 -142.5t138.5 -54.5z" />
    <glyph glyph-name="D" unicode="D" horiz-adv-x="650" 
d="M100 0q-20 -2 -30 8.5t-10 31.5v590q0 40 40 40h158q169 0 267.5 -77t98.5 -243q0 -80 -29 -142t-81 -101t-116.5 -61.5t-141.5 -29.5l-88 -9h-3zM262 520h-57v-359l55 5q94 10 156.5 56.5t62.5 127.5q0 91 -60.5 130.5t-156.5 39.5z" />
    <glyph glyph-name="E" unicode="E" horiz-adv-x="526" 
d="M90 0q-41 0 -40 40l20 590q1 40 40 40h345q40 0 40 -40v-61q0 -39 -39 -39h-249l-5 -128l213 14q40 3 40 -40v-61q0 -36 -39 -39l-218 -15l-5 -121h262q40 0 40 -40v-61q0 -39 -39 -39h-366z" />
    <glyph glyph-name="F" unicode="F" horiz-adv-x="512" 
d="M200 20q0 -40 -40 -40h-60q-40 0 -40 40v610q0 40 40 40h355q40 0 40 -40v-61q0 -39 -39 -39h-256v-154h214q40 0 40 -40v-61q0 -39 -39 -39h-215v-216z" />
    <glyph glyph-name="G" unicode="G" horiz-adv-x="665" 
d="M611 -20q0 -38 -41 -38h-65q-39 0 -39 41v43q-52 -26 -115 -26q-148 0 -235.5 93.5t-87.5 251.5q0 152 92 244.5t245 92.5q121 0 218 -60q17 -11 6 -37l-30 -74q-11 -29 -43 -15q-82 36 -151 36q-92 0 -142 -52t-50 -135q0 -93 52 -149t152 -56q51 0 89 14v87l-105 -5
q-12 0 -17 2q-22 7 -22 37v66q0 39 40 40l209 10q13 0 18 -2q22 -7 22 -38v-371z" />
    <glyph glyph-name="H" unicode="H" horiz-adv-x="664" 
d="M564 -20h-65q-40 0 -40 40v253l-254 -18v-215q0 -40 -40 -40h-65q-40 0 -40 40v610q0 40 40 40h65q40 0 40 -40v-250l254 18v212q0 40 40 40h65q40 0 40 -40v-610q0 -40 -40 -40z" />
    <glyph glyph-name="I" unicode="I" horiz-adv-x="265" 
d="M205 20q0 -40 -40 -40h-65q-40 0 -40 40v630q0 40 40 40h65q40 0 40 -40v-630z" />
    <glyph glyph-name="J" unicode="J" horiz-adv-x="573" 
d="M208 -12q-89 0 -185 55q-17 10 -6 37l30 74q12 30 43 15q63 -31 116 -31q45 0 68.5 32.5t23.5 111.5v257l-192 -9q-19 -1 -29 9t-10 30v61q0 39 40 40l414 20q20 1 30 -9.5t10 -30.5v-61q0 -37 -39 -39l-79 -4v-344q0 -107 -64.5 -160.5t-170.5 -53.5z" />
    <glyph glyph-name="K" unicode="K" horiz-adv-x="617" 
d="M514 -9q-5 -1 -9.5 -1.5t-8 -1t-7 1t-5.5 1.5t-5 3l-4.5 4.5t-5 6t-5 7t-6.5 9.5t-7 10l-168 251l-78 -77v-165q0 -40 -40 -40h-65q-40 0 -40 40v570q0 40 40 40h65q40 0 40 -40v-208l266 263q29 29 57 4l44 -40q33 -30 6 -56l-195 -193q6 -10 14 -22l194 -299
q30 -45 -28 -58z" />
    <glyph glyph-name="L" unicode="L" horiz-adv-x="489" 
d="M436 1l-336 19q-40 0 -40 39v571q0 40 40 40h65q40 0 40 -40v-476l230 -13q40 -3 40 -40v-61q0 -20 -10 -30t-29 -9z" />
    <glyph glyph-name="M" unicode="M" horiz-adv-x="764" 
d="M205 40q0 -40 -40 -40h-65q-40 0 -40 40v610q0 40 40 40h65q26 0 35 -14l189 -282l172 252q15 24 38 24h65q40 0 40 -40v-610q0 -40 -40 -40h-65q-40 0 -40 40v386l-123 -181q-10 -15 -26 -15h-51q-16 0 -26 16l-128 192v-378z" />
    <glyph glyph-name="N" unicode="N" horiz-adv-x="679" 
d="M205 20q0 -40 -40 -40h-65q-40 0 -40 40v590q0 40 40 40h65q15 0 22 -4l1 -1l1 -1h2l1 -1l4 -4l3 -3l1 -2l267 -399l27 395q3 40 40 40h65q43 0 40 -40l-40 -590q-3 -40 -40 -40h-65q-21 0 -32 11q-1 1 -2.5 3t-2.5 3l-252 376v-373z" />
    <glyph glyph-name="O" unicode="O" horiz-adv-x="738" 
d="M368 -22q-154 0 -247 97.5t-93 259.5q0 161 93.5 259t248.5 98q153 0 245.5 -98t94.5 -259q-1 -163 -94.5 -260t-247.5 -97zM370 128q92 0 142.5 57t52.5 150q-2 92 -53 149.5t-143 57.5q-94 0 -145 -57.5t-51 -149.5q0 -93 51 -150t146 -57z" />
    <glyph glyph-name="P" unicode="P" horiz-adv-x="576" 
d="M165 -20h-65q-40 0 -40 40v610q0 40 40 40h158q137 0 216.5 -61.5t79.5 -194.5q0 -119 -83 -182t-215 -76l-51 -5v-131q0 -40 -40 -40zM262 520h-57v-219l55 5q64 6 106.5 33.5t42.5 74.5q0 106 -147 106z" />
    <glyph glyph-name="Q" unicode="Q" horiz-adv-x="732" 
d="M513 -89q-25 -6 -34.5 0.5t-28.5 39.5l-45 79q-26 -2 -38 -2q-153 0 -247.5 92.5t-94.5 234.5t94.5 234.5t247.5 92.5q151 0 245.5 -92.5t94.5 -234.5q0 -96 -44.5 -171.5t-124.5 -116.5l47 -88q13 -25 6.5 -38.5t-34.5 -19.5zM170 355q0 -74 52 -125.5t144 -51.5
q91 0 143.5 52t52.5 125t-52.5 125t-143.5 52q-92 0 -144 -51.5t-52 -125.5z" />
    <glyph glyph-name="R" unicode="R" horiz-adv-x="594" 
d="M493 -29q-25 -6 -34.5 0.5t-28.5 39.5l-105 181q-28 -4 -67 -4h-53v-148q0 -40 -40 -40h-65q-40 0 -40 40v590q0 40 40 40h158q144 0 220 -60t76 -181q0 -134 -96 -195l107 -195q25 -47 -28 -58zM262 520h-57v-182h57q147 0 147 91t-147 91z" />
    <glyph glyph-name="S" unicode="S" horiz-adv-x="506" 
d="M341 175q0 23 -22 44.5t-55 38t-71.5 39t-71.5 46.5t-55 62.5t-22 84.5q0 87 56.5 139.5t155.5 52.5q43 0 91.5 -13.5t81.5 -34.5q17 -11 20 -21.5t-4 -27.5l-28 -61q-13 -27 -44 -14q-72 32 -117 32q-67 0 -67 -42q0 -22 22 -42.5t55 -37.5t71.5 -39.5t71.5 -46.5
t55 -62t22 -82q0 -95 -59.5 -148.5t-164.5 -53.5q-57 0 -118 18t-104 49q-17 13 -20.5 21.5t4.5 27.5l29 60q8 16 17 19.5t27 -5.5q91 -50 171 -50q73 0 73 47z" />
    <glyph glyph-name="T" unicode="T" horiz-adv-x="604" 
d="M375 40q0 -40 -40 -40h-65q-40 0 -40 40v480h-177q-39 0 -39 39v71q0 40 40 40h496q40 0 40 -40v-71q0 -39 -39 -39h-176v-480z" />
    <glyph glyph-name="U" unicode="U" horiz-adv-x="658" 
d="M453 60v32q-66 -104 -200 -104q-89 0 -144 57.5t-55 166.5v418q0 40 40 40h65q40 0 40 -40v-358q0 -75 25.5 -107.5t76.5 -32.5q62 0 107 41t45 109v328q0 40 40 40h65q40 0 40 -40v-550q0 -40 -40 -40h-65q-40 0 -40 40z" />
    <glyph glyph-name="V" unicode="V" horiz-adv-x="635" 
d="M396 0h-76q-20 0 -28 7t-20 33l-254 571q-12 27 -6 39.5t34 18.5l46 10q29 6 41.5 -1t26.5 -39l185 -424l122 449q8 31 22.5 39.5t40.5 0.5l59 -17q26 -7 31.5 -19t-3.5 -39l-173 -589q-7 -25 -17 -32.5t-31 -7.5z" />
    <glyph glyph-name="W" unicode="W" horiz-adv-x="945" 
d="M399 40q-6 -25 -16.5 -32.5t-31.5 -7.5h-61q-20 0 -29 7t-19 33l-224 571q-11 27 -5 40t33 18l54 10q27 5 39.5 -2.5t23.5 -37.5l144 -398l79 323q6 25 16.5 32.5t31.5 7.5h61q21 0 30.5 -7.5t17.5 -32.5l110 -336l129 431q9 31 22.5 38.5t40.5 1.5l54 -12
q27 -6 32 -18.5t-4 -39.5l-183 -589q-8 -25 -17.5 -32.5t-30.5 -7.5h-71q-21 0 -30.5 7.5t-17.5 32.5l-99 312z" />
    <glyph glyph-name="X" unicode="X" horiz-adv-x="639" 
d="M528 -1q-33 -24 -56 8l-152 206l-143 -225q-23 -35 -56 -13l-61 40q-33 22 -12 56l174 274l-172 234q-23 33 9 56l52 38q32 24 56 -8l153 -207l142 224q22 34 57 10l60 -40q33 -23 13 -55l-173 -272l170 -231q24 -33 -9 -57z" />
    <glyph glyph-name="Y" unicode="Y" horiz-adv-x="568" 
d="M369 40q0 -40 -40 -40h-65q-27 0 -36 18q-4 8 -4 22v192l-206 379q-14 27 -7 39.5t35 18.5l49 10q31 7 44 -9q6 -9 19 -31l119 -211l13 -23l116 254q10 22 17 29q13 18 46 11l54 -12q28 -6 34 -18.5t-6 -39.5l-182 -410v-179z" />
    <glyph glyph-name="Z" unicode="Z" horiz-adv-x="540" 
d="M473 0h-406q-40 0 -40 40v70q0 18 8 28l3 4l267 378h-228q-40 0 -40 40v70q0 40 40 40h376q40 0 40 -40v-70q0 -12 -5 -22q-1 -6 -7 -13l-267 -375h259q40 0 40 -40v-70q0 -40 -40 -40z" />
    <glyph glyph-name="bracketleft" unicode="[" horiz-adv-x="282" 
d="M173 577v-530q0 -13 4 -17.5t16 -4.5h35q40 0 40 -35v-55q0 -35 -40 -35h-84q-54 0 -77.5 25.5t-23.5 82.5v608q0 57 23.5 82.5t77.5 25.5h84q40 0 40 -35v-55q0 -35 -40 -35h-35q-12 0 -16 -4.5t-4 -17.5z" />
    <glyph glyph-name="backslash" unicode="\" 
d="M387 -78l-400 715q-19 34 15 55l56 33q34 21 55 -15l400 -715q20 -34 -15 -55l-56 -33q-35 -21 -55 15z" />
    <glyph glyph-name="bracketright" unicode="]" horiz-adv-x="282" 
d="M109 577q0 13 -4 17.5t-16 4.5h-35q-40 0 -40 35v55q0 35 40 35h84q54 0 77.5 -25.5t23.5 -82.5v-608q0 -57 -23.5 -82.5t-77.5 -25.5h-84q-40 0 -40 35v55q0 35 40 35h35q12 0 16 4.5t4 17.5v530z" />
    <glyph glyph-name="asciicircum" unicode="^" 
d="M187 375q-18 -40 -50 -40h-60q-21 0 -29.5 11t-0.5 29l118 255q18 40 50 40h70q32 0 50 -40l118 -255q8 -18 -0.5 -29t-29.5 -11h-60q-32 0 -50 40l-63 136z" />
    <glyph glyph-name="underscore" unicode="_" horiz-adv-x="538" 
d="M-13 -161v79q0 24 25 26l517 22q11 1 18 -6t7 -18v-80q0 -24 -25 -26l-517 -21q-11 -1 -18 6t-7 18z" />
    <glyph glyph-name="grave" unicode="`" 
d="M292 568q-29 0 -60 40l-78 99q-13 17 -11 28.5t22 11.5h101q40 0 55 -33l48 -106q17 -40 -20 -40h-57z" />
    <glyph glyph-name="a" unicode="a" horiz-adv-x="508" 
d="M441 -30h-80q-30 0 -30 30v43q-49 -47 -122 -54q-6 -1 -17 -1q-77 0 -125.5 47t-48.5 118t48 117t146 46q57 0 119 -26q-1 7 -3 19q-17 73 -101 73q-56 0 -118 -38q-21 -13 -37 18l-14 29l-15 29q-3 6 -7 16q-3 16 11 26q76 60 196 60q105 0 166.5 -61.5t61.5 -167.5
v-293q0 -10 -3 -17q-7 -13 -27 -13zM227 113q33 0 62 12.5t38 33.5q4 8 4 18v4q-52 20 -104 20q-69 0 -69 -44q0 -20 20 -32t49 -12z" />
    <glyph glyph-name="b" unicode="b" horiz-adv-x="557" 
d="M145 -20h-60q-14 0 -22 4q-18 9 -18 36v660q0 14 4 22q9 18 36 18h60q27 0 36 -18q4 -8 4 -22v-225q54 57 140 57q89 0 150 -71t61 -185q0 -19 -1 -29q-9 -103 -76 -165t-164 -62q-55 0 -110 19q0 -39 -40 -39zM285 144q50 0 80.5 29t30.5 83q0 49 -27.5 80t-72.5 31
q-88 0 -107 -90q-4 -17 -4 -43v-70q46 -20 100 -20z" />
    <glyph glyph-name="c" unicode="c" horiz-adv-x="484" 
d="M161 243q0 -110 109 -110q59 0 125 38q22 13 37 -18l28 -63q13 -28 -4 -42q-36 -28 -86.5 -44t-100.5 -16q-113 0 -180.5 69.5t-67.5 185.5t68 186.5t180 70.5q50 0 100.5 -16t86.5 -44q17 -14 4 -42l-28 -63q-15 -31 -37 -18q-66 38 -125 38q-52 0 -80.5 -28.5
t-28.5 -83.5z" />
    <glyph glyph-name="d" unicode="d" horiz-adv-x="557" 
d="M472 -20h-60q-40 0 -40 40v37q-54 -57 -140 -57q-89 0 -150 71t-61 185q0 115 71.5 185.5t179.5 70.5q50 0 100 -12v180q0 40 40 40h60q40 0 40 -40v-660q0 -40 -40 -40zM261 145q53 0 82 34.5t29 98.5v75q-45 15 -100 15q-50 0 -80.5 -29t-30.5 -83q0 -49 27.5 -80
t72.5 -31z" />
    <glyph glyph-name="e" unicode="e" horiz-adv-x="504" 
d="M283 -12q-119 0 -190.5 72.5t-71.5 189.5q0 113 65.5 187.5t185.5 74.5q97 0 156.5 -61t59.5 -165q0 -32 -7 -45t-32 -16l-279 -32q34 -75 132 -75q40 0 115 42q11 7 21.5 1.5t15.5 -19.5l20 -52q7 -18 7 -23.5t-11 -18.5q-36 -28 -86.5 -44t-100.5 -16zM262 382
q-81 0 -98 -81l180 21q-7 27 -28.5 43.5t-53.5 16.5z" />
    <glyph glyph-name="f" unicode="f" horiz-adv-x="408" 
d="M223 0h-80q-20 0 -27 13q-3 8 -3 17v308l-71 -4q-16 -1 -22 7t-6 24v80q0 7 3 13q6 19 31 21l65 4v33q0 14 2 38q11 87 69.5 135t145.5 42l15 -1l14 -1q7 0 15 -2q20 -6 21 -26q1 -4 -1 -17l-13 -67q-4 -24 -32 -23l-29 2q-37 3 -51 -17.5t-16 -65.5v-21l114 7
q16 1 22 -7t6 -24v-80q0 -14 -9.5 -23.5t-24.5 -10.5l-108 -7v-317q0 -30 -30 -30z" />
    <glyph glyph-name="g" unicode="g" horiz-adv-x="556" 
d="M277 -210q-129 0 -200 57q-11 13 -11 19.5t7 22.5l24 60q14 32 37 18q59 -32 141 -32q96 0 96 88v54q-54 -57 -140 -57q-89 0 -150 65.5t-61 170.5q0 115 71.5 185.5t179.5 70.5q51 0 100 -12v10q0 40 40 40h60q40 0 40 -40v-501q0 -112 -64.5 -165.5t-169.5 -53.5z
M260 165q53 0 82 34.5t29 98.5v55q-45 15 -100 15q-50 0 -80.5 -29t-30.5 -83q0 -40 27.5 -65.5t72.5 -25.5z" />
    <glyph glyph-name="h" unicode="h" horiz-adv-x="549" 
d="M185 40q0 -40 -40 -40h-60q-40 0 -40 40v620q0 40 40 40h60q40 0 40 -40v-235q27 42 70 64.5t87 22.5q77 0 123 -52t46 -156v-284q0 -40 -40 -40h-60q-40 0 -40 40v239q0 108 -77 108q-51 0 -80 -33t-29 -100v-194z" />
    <glyph glyph-name="i" unicode="i" horiz-adv-x="230" 
d="M115 549q-35 0 -60 25.5t-25 60.5t25 60t60 25t60 -25t25 -60t-25 -60.5t-60 -25.5zM185 40q0 -40 -40 -40h-60q-40 0 -40 40v400q0 40 40 40h60q40 0 40 -40v-400z" />
    <glyph glyph-name="j" unicode="j" horiz-adv-x="228" 
d="M113 529q-35 0 -60 25.5t-25 60.5t25 60t60 25t60 -25t25 -60t-25 -60.5t-60 -25.5zM-18 -222q-35 0 -75 11q-21 5 -27.5 15t0.5 28l28 74q9 27 32 23q32 -6 43 -6q31 0 45.5 21t14.5 77v409q0 30 30 30h80q30 0 30 -30v-433q0 -104 -49.5 -161.5t-151.5 -57.5z" />
    <glyph glyph-name="k" unicode="k" horiz-adv-x="504" 
d="M413 -10q-24 -5 -33 1.5t-27 36.5l-112 186l-56 -51v-123q0 -40 -40 -40h-60q-40 0 -40 40v620q0 40 40 40h60q40 0 40 -40v-305l177 163q30 27 54 3l46 -45q31 -31 6 -53l-128 -118l144 -250q27 -45 -27 -56z" />
    <glyph glyph-name="l" unicode="l" horiz-adv-x="235" 
d="M190 40q0 -40 -40 -40h-65q-40 0 -40 40v640q0 40 40 40h65q40 0 40 -40v-640z" />
    <glyph glyph-name="m" unicode="m" horiz-adv-x="845" 
d="M496 20q0 -40 -40 -40h-60q-40 0 -40 40v239q0 109 -77 109q-49 0 -71.5 -32t-22.5 -102v-194q0 -40 -40 -40h-60q-40 0 -40 40v460q0 40 40 40h60q40 0 40 -40v-70q51 82 142 82q114 0 153 -104q51 92 158 92q77 0 123 -52t46 -156v-252q0 -40 -40 -40h-60q-40 0 -40 40
v207q0 109 -77 109q-49 0 -71.5 -32t-22.5 -102v-202z" />
    <glyph glyph-name="n" unicode="n" horiz-adv-x="549" 
d="M185 20q0 -40 -40 -40h-60q-40 0 -40 40v480q0 40 40 40h60q40 0 40 -40v-75q27 42 70 64.5t87 22.5q77 0 123 -52t46 -156v-264q0 -40 -40 -40h-60q-40 0 -40 40v219q0 108 -77 108q-51 0 -80 -33t-29 -100v-214z" />
    <glyph glyph-name="o" unicode="o" horiz-adv-x="544" 
d="M272 -12q-115 0 -183 73.5t-68 188.5t68 188.5t183 73.5t183 -73.5t68 -188.5t-68 -188.5t-183 -73.5zM272 133q50 0 80.5 28.5t30.5 88.5t-30.5 88.5t-80.5 28.5t-80.5 -28.5t-30.5 -88.5t30.5 -88.5t80.5 -28.5z" />
    <glyph glyph-name="p" unicode="p" horiz-adv-x="557" 
d="M185 -170q0 -40 -40 -40h-60q-40 0 -40 40v650q0 40 40 40h60q40 0 40 -40v-37q54 57 140 57q89 0 150 -71t61 -185q0 -115 -71.5 -185.5t-179.5 -70.5q-51 0 -100 12v-170zM285 132q50 0 80.5 29t30.5 83q0 49 -27.5 80t-72.5 31q-53 0 -82 -34.5t-29 -98.5v-75
q45 -15 100 -15z" />
    <glyph glyph-name="q" unicode="q" horiz-adv-x="557" 
d="M472 -210h-60q-27 0 -36 18q-4 8 -4 22v227q-54 -57 -140 -57q-89 0 -150 71t-61 185q0 115 68.5 185.5t172.5 70.5q55 0 110 -19q0 11 5 21q9 16 35 16h60q14 0 22 -4q18 -9 18 -36v-660q0 -14 -4 -22q-9 -18 -36 -18zM261 145q88 0 107 90q4 17 4 43v70q-46 20 -100 20
q-50 0 -80.5 -29t-30.5 -83q0 -49 27.5 -80t72.5 -31z" />
    <glyph glyph-name="r" unicode="r" horiz-adv-x="393" 
d="M185 40q0 -40 -40 -40h-60q-40 0 -40 40v470q0 40 40 40h60q40 0 40 -40v-83q24 40 59.5 62.5t71.5 22.5q37 0 58 -13q11 -7 9 -19l-10 -115q-1 -22 -27 -16q-37 8 -64 8q-43 0 -70 -32t-27 -91v-194z" />
    <glyph glyph-name="s" unicode="s" horiz-adv-x="428" 
d="M31 351q0 71 50.5 116t137.5 45q103 0 165 -46q17 -13 4 -42l-21 -52q-12 -28 -37 -18q-78 31 -125 31q-39 0 -39 -27q0 -16 18 -26.5t45 -15.5t59 -14.5t59 -22.5t45 -42.5t18 -72.5q0 -90 -58 -133t-138 -43q-114 0 -181 54q-7 6 -9 14t-0.5 12.5t5.5 15.5l20 56
q5 13 15.5 18.5t21.5 -0.5q70 -38 136 -38q53 0 53 27q0 16 -18 27t-45 16t-59 16t-59 25t-45 45t-18 75z" />
    <glyph glyph-name="t" unicode="t" horiz-adv-x="462" 
d="M441 32q-71 -54 -172 -54q-83 0 -127.5 51.5t-44.5 151.5v130l-58 3q-28 1 -28 31v80q0 15 9.5 25t24.5 9l52 -3v114q0 30 30 30h80q30 0 30 -30v-122l144 -9q28 -1 28 -31v-80q0 -15 -9.5 -25t-24.5 -9l-138 8v-96q0 -85 68 -85q31 0 77 29q23 14 37 -18l26 -58
q14 -29 -4 -42z" />
    <glyph glyph-name="u" unicode="u" horiz-adv-x="549" 
d="M364 40v35q-27 -42 -70 -64.5t-87 -22.5q-77 0 -123 52t-46 156v264q0 40 40 40h60q40 0 40 -40v-219q0 -108 77 -108q51 0 80 33t29 100v234q0 40 40 40h60q40 0 40 -40v-460q0 -40 -40 -40h-60q-40 0 -40 40z" />
    <glyph glyph-name="v" unicode="v" horiz-adv-x="514" 
d="M317 0h-76q-19 0 -26.5 6.5t-19.5 31.5l-184 381q-10 26 -5.5 34.5t32.5 20.5l47 20q26 8 35.5 0.5t24.5 -39.5l119 -259l93 294q10 30 22 38t37 1l57 -17q26 -7 31 -18.5t-4 -36.5l-137 -419q-8 -24 -17 -31t-29 -7z" />
    <glyph glyph-name="w" unicode="w" horiz-adv-x="751" 
d="M343 38q-6 -23 -16 -30.5t-30 -7.5h-76q-19 0 -27.5 7t-18.5 31l-164 381q-10 27 -5.5 35t32.5 20l47 20q25 9 36 1t24 -40l108 -271l48 226q6 25 16.5 32.5t31.5 7.5h46q20 0 29.5 -7.5t18.5 -32.5l75 -223l75 303q7 30 20.5 38.5t38.5 0.5l57 -17q25 -7 30 -18.5
t-3 -36.5l-117 -419q-6 -24 -16 -31t-30 -7h-76q-19 0 -28 7t-18 31l-64 183z" />
    <glyph glyph-name="x" unicode="x" horiz-adv-x="533" 
d="M443 -21q-29 -20 -53 13l-118 156l-144 -144q-30 -30 -54 -6l-50 48q-30 30 -6 55l164 165l-134 177q-21 29 14 53l51 36q29 20 53 -13l116 -153l118 118q28 30 54 4l50 -48q31 -29 6 -54l-138 -138l136 -180q21 -29 -14 -53z" />
    <glyph glyph-name="y" unicode="y" horiz-adv-x="549" 
d="M270 -210q-129 0 -200 57q-11 13 -11 19.5t7 22.5l24 60q9 23 16 29t21 -1q76 -42 141 -42q96 0 96 88v72q-27 -42 -70 -64.5t-87 -22.5q-77 0 -123 52t-46 156v264q0 40 40 40h60q40 0 40 -40v-219q0 -108 77 -108q51 0 80 33t29 100v174q0 40 40 40h60q40 0 40 -40
v-451q0 -112 -64.5 -165.5t-169.5 -53.5z" />
    <glyph glyph-name="z" unicode="z" horiz-adv-x="467" 
d="M405 0h-340q-30 0 -37 22q-3 8 -3 18v66q-5 20 11 36l206 218h-172q-7 0 -17 2q-23 8 -23 38v60q0 10 3 18q7 22 37 22h325q30 0 37 -22q3 -8 3 -18v-60q0 -9 -1 -12l-2 -6v-1q0 -1 -1 -1q-1 -4 -4 -8q-1 -1 -3 -3.5t-3 -3.5l-216 -225h200q7 0 17 -2q23 -8 23 -38v-60
q0 -10 -3 -18q-7 -22 -37 -22z" />
    <glyph glyph-name="braceleft" unicode="{" horiz-adv-x="343" 
d="M329 -70q0 -35 -40 -35h-84q-54 0 -77.5 25.5t-23.5 82.5v222q0 13 -4 17.5t-16 4.5h-35q-40 0 -40 35v55q0 35 40 35h35q12 0 16 4.5t4 17.5v222q0 57 23.5 82.5t77.5 25.5h84q40 0 40 -35v-55q0 -35 -40 -35h-35q-12 0 -16 -4.5t-4 -17.5v-172q0 -38 -12.5 -57
t-50.5 -38q38 -20 50.5 -39t12.5 -57v-172q0 -13 4 -17.5t16 -4.5h35q40 0 40 -35v-55z" />
    <glyph glyph-name="bar" unicode="|" horiz-adv-x="222" 
d="M181 -60q0 -40 -40 -40h-60q-40 0 -40 40v767q0 40 40 40h60q40 0 40 -40v-767z" />
    <glyph glyph-name="braceright" unicode="}" horiz-adv-x="343" 
d="M9 -70v55q0 35 40 35h35q12 0 16 4.5t4 17.5v172q0 30 12 53t51 43q-39 19 -51 42t-12 53v172q0 13 -4 17.5t-16 4.5h-35q-40 0 -40 35v55q0 35 40 35h84q54 0 77.5 -25.5t23.5 -82.5v-222q0 -13 4 -17.5t16 -4.5h35q40 0 40 -35v-55q0 -35 -40 -35h-35q-12 0 -16 -4.5
t-4 -17.5v-222q0 -57 -23.5 -82.5t-77.5 -25.5h-84q-40 0 -40 35z" />
    <glyph glyph-name="asciitilde" unicode="~" 
d="M328 254q-26 0 -75 9t-74 9q-37 0 -87 -14q-39 -11 -39 24v64q0 34 30 43q43 13 89 13q30 0 77.5 -9t71.5 -9q37 0 87 14q39 11 39 -24v-64q0 -34 -30 -43q-43 -13 -89 -13z" />
    <glyph glyph-name="nbspace" unicode="&#xa0;" horiz-adv-x="200" 
 />
    <glyph glyph-name="exclamdown" unicode="&#xa1;" horiz-adv-x="240" 
d="M120 472q38 0 66 -28t28 -67q0 -38 -28 -66t-66 -28t-66 28t-28 66q0 39 28 67t66 28zM195 -170q0 -40 -40 -40h-70q-40 0 -40 40v354q0 40 40 40h70q40 0 40 -40v-354z" />
    <glyph glyph-name="cent" unicode="&#xa2;" horiz-adv-x="489" 
d="M334 -80q0 -40 -40 -40h-60q-40 0 -40 40v78q-80 22 -125.5 86t-45.5 159t45.5 160t125.5 87v96q0 40 40 40h60q40 0 40 -40v-92q76 -15 124 -54q17 -14 4 -42l-28 -63q-15 -31 -37 -18q-66 38 -125 38q-52 0 -80.5 -28.5t-28.5 -83.5q0 -110 109 -110q59 0 125 38
q22 13 37 -18l28 -63q13 -28 -4 -42q-48 -39 -124 -54v-74z" />
    <glyph glyph-name="sterling" unicode="&#xa3;" horiz-adv-x="593" 
d="M502 0l-434 -12q-30 -2 -38 22q-2 10 -2 18v61q0 7 2 17q7 20 37 22l79 2v131h-78q-8 0 -18 2q-22 4 -22 33v70q0 20 9.5 27.5t30.5 7.5h78v67q0 107 64.5 160.5t170.5 53.5h14q83 -5 171 -55q17 -10 6 -37l-30 -74q-12 -30 -43 -15q-63 31 -116 31q-70 0 -86 -79
q-4 -14 -6 -52h139q13 0 18 -2q22 -4 22 -33v-70q0 -29 -22 -33q-10 -2 -18 -2h-139v-127l212 6q19 1 29 -9t10 -30v-61q0 -9 -2 -17q-7 -21 -38 -23z" />
    <glyph glyph-name="currency" unicode="&#xa4;" horiz-adv-x="523" 
d="M115 99q-28 -28 -53 -3l-26 26q-24 22 6 52l43 43q-29 50 -29 118q0 66 28 117l-42 42q-30 30 -6 52l26 26q25 25 53 -3l43 -43q45 25 104 25t104 -25l43 43q28 28 53 3l26 -26q24 -22 -6 -52l-42 -42q28 -51 28 -117q0 -68 -29 -118l43 -43q30 -30 6 -52l-26 -26
q-25 -25 -53 3l-44 44q-45 -25 -103 -25t-103 25zM262 237q43 0 70 24t27 74t-27 73.5t-70 23.5q-42 0 -68.5 -23.5t-26.5 -73.5t26.5 -74t68.5 -24z" />
    <glyph glyph-name="yen" unicode="&#xa5;" horiz-adv-x="568" 
d="M369 40q0 -40 -40 -40h-65q-40 0 -40 40v107h-120q-21 0 -30.5 7.5t-9.5 27.5v30q0 29 22 33q5 2 18 2h112l-27 50h-85q-8 0 -18 2q-22 4 -22 33v30q0 29 22 33q5 2 18 2h30l-116 214q-1 2 -8 19q-6 24 17 33q2 1 19 6l49 10q11 1 18 3q14 0 23 -9q5 -5 22 -34l132 -234
l116 254q10 23 20 33q14 14 43 7q7 -2 20.5 -5t20.5 -4l13 -3q17 -5 19 -6q27 -11 9 -52l-103 -232h41q13 0 18 -2q22 -4 22 -33v-30q0 -7 -2 -17q-7 -18 -38 -18h-85l-11 -25l-12 -25h108q21 0 30.5 -7.5t9.5 -27.5v-30q0 -7 -2 -17q-7 -18 -38 -18h-120v-107z" />
    <glyph glyph-name="brokenbar" unicode="&#xa6;" horiz-adv-x="222" 
d="M181 447q0 -40 -40 -40h-60q-40 0 -40 40v260q0 40 40 40h60q40 0 40 -40v-260zM181 -60q0 -40 -40 -40h-60q-40 0 -40 40v260q0 40 40 40h60q40 0 40 -40v-260z" />
    <glyph glyph-name="section" unicode="&#xa7;" horiz-adv-x="467" 
d="M236 57q-103 0 -177 60q-17 13 -4 42l23 57q5 14 15.5 19t21.5 -1q84 -47 132 -47q41 0 41 27q0 26 -43 41l-47 17q-86 31 -119.5 63t-33.5 85t44 95q-34 34 -34 105q0 60 45.5 101.5t130.5 41.5q103 0 177 -60q17 -13 4 -42l-23 -57q-5 -14 -15.5 -19t-21.5 1
q-84 47 -132 47q-41 0 -41 -27q0 -26 43 -41l47 -17q86 -31 119.5 -63t33.5 -85t-44 -95q34 -34 34 -105q0 -60 -45.5 -101.5t-130.5 -41.5zM169 422q0 -23 33 -39.5t66 -16.5q30 0 30 32q0 23 -33 39.5t-66 16.5q-30 0 -30 -32z" />
    <glyph glyph-name="dieresis" unicode="&#xa8;" 
d="M355 578q-32 0 -54.5 22.5t-22.5 54.5q0 31 23 54t54 23t54 -23t23 -54q0 -32 -22.5 -54.5t-54.5 -22.5zM145 578q-32 0 -54.5 22.5t-22.5 54.5q0 31 23 54t54 23t54 -23t23 -54q0 -32 -22.5 -54.5t-54.5 -22.5z" />
    <glyph glyph-name="copyright" unicode="&#xa9;" horiz-adv-x="1025" 
d="M512 -127q-211 0 -339 125.5t-128 334.5t128.5 335.5t340.5 126.5q210 0 338.5 -127t127.5 -335q-1 -209 -129 -334.5t-339 -125.5zM514 -9q168 0 260 94t94 248q3 151 -91.5 247.5t-263.5 96.5q-170 0 -263 -96t-93 -248q0 -154 93 -248t264 -94zM422 333
q0 -105 104 -105q56 0 118 36q22 13 35 -17l27 -59q13 -27 -4 -40q-71 -57 -177 -57q-107 0 -171.5 65.5t-64.5 176.5q0 110 64.5 177t171.5 67q106 0 177 -57q17 -14 4 -40l-27 -60q-13 -29 -35 -17q-62 36 -118 36q-50 0 -77 -27t-27 -79z" />
    <glyph glyph-name="ordfeminine" unicode="&#xaa;" horiz-adv-x="508" 
d="M313 301v17q-44 -41 -108 -41q-60 0 -98 35t-38 89q0 53 37.5 87.5t113.5 34.5q54 0 93 -17v4q0 60 -81 60q-48 0 -92 -27q-16 -9 -29 13l-22 44q-12 21 3 31q58 45 153 45q84 0 130.5 -43t46.5 -127v-205q0 -22 -23 -22h-62q-24 0 -24 22zM232 371q31 0 56 13t25 35v3
q-40 14 -81 14q-54 0 -54 -32q0 -15 15.5 -24t38.5 -9z" />
    <glyph glyph-name="guillemotleft" unicode="&#xab;" horiz-adv-x="599" 
d="M38 317l208 172q26 22 47 -3l38 -44q18 -22 -6 -42l-178 -149l142 -119q23 -21 6 -42l-38 -44q-12 -14 -22 -14.5t-25 11.5l-172 141q-11 10 -14 16.5t-3 21.5v57q0 15 3 22t14 16zM298 179q-11 9 -14 16t-3 22v57q0 15 3 21.5t14 16.5l172 141q15 12 25 11.5t22 -14.5
l38 -44q17 -21 -6 -42l-142 -119l172 -144q24 -20 6 -42l-38 -44q-21 -25 -47 -3z" />
    <glyph glyph-name="logicalnot" unicode="&#xac;" 
d="M407 192h-50q-40 0 -40 40v83h-224q-40 0 -40 40v50q0 40 40 40h314q40 0 40 -40v-173q0 -40 -40 -40z" />
    <glyph glyph-name="softhyphen" unicode="&#xad;" horiz-adv-x="0" 
 />
    <glyph glyph-name="registered" unicode="&#xae;" horiz-adv-x="590" 
d="M298 198q-115 0 -185 69t-70 183q0 115 70.5 184.5t186.5 69.5q114 0 185 -70t70 -184q0 -114 -70.5 -183t-186.5 -69zM300 257q94 0 146.5 53.5t52.5 139.5q3 85 -51 139.5t-149 54.5q-96 0 -148 -54t-52 -140q0 -87 52 -140t149 -53zM264 340q0 -16 -17 -16h-26
q-17 0 -17 16v232q0 15 17 15h72q55 0 85 -18.5t30 -65.5q0 -56 -49 -74l44 -81q13 -24 -19 -24h-31l-6 5l-48 91h-35v-80zM297 538h-33v-69h33q48 0 48 34q0 35 -48 35z" />
    <glyph glyph-name="macron" unicode="&#xaf;" 
d="M365 683q40 0 40 -40v-35q0 -40 -40 -40h-230q-40 0 -40 40v35q0 40 40 40h230z" />
    <glyph glyph-name="degree" unicode="&#xb0;" 
d="M250 359q-74 0 -118 45t-44 116t44 116.5t118 45.5t118 -45.5t44 -116.5t-44 -116t-118 -45zM250 454q29 0 47.5 16t18.5 50t-18.5 50t-47.5 16t-46.5 -16t-17.5 -50t17.5 -50t46.5 -16z" />
    <glyph glyph-name="plusminus" unicode="&#xb1;" 
d="M417 92h-334q-40 0 -40 40v50q0 40 40 40h102v100h-102q-40 0 -40 40v50q0 40 40 40h102v113q0 40 40 40h50q40 0 40 -40v-113h102q40 0 40 -40v-50q0 -40 -40 -40h-102v-100h102q40 0 40 -40v-50q0 -40 -40 -40z" />
    <glyph glyph-name="twosuperior" unicode="&#xb2;" horiz-adv-x="323" 
d="M271 311h-219q-22 0 -22 22v56q0 24 24.5 48.5t54 41t54 38.5t24.5 42q0 24 -34 24q-30 0 -62 -16q-18 -9 -25 7l-21 50q-7 15 3 23q47 36 110 36q58 0 89.5 -30.5t31.5 -82.5q0 -32 -14.5 -58t-30 -39.5t-45 -33.5t-39.5 -28h121q22 0 22 -22v-56q0 -22 -22 -22z" />
    <glyph glyph-name="threesuperior" unicode="&#xb3;" horiz-adv-x="329" 
d="M161 301q-70 0 -119 37q-9 7 -2 23l15 41q7 18 21 10q36 -21 80 -21q18 0 29 8t11 21q0 29 -55 29h-24q-22 0 -22 22v46q0 22 22 22h12q59 0 59 29q0 24 -38 24q-31 0 -71 -22q-14 -9 -21 10l-15 42q-6 17 2 23q50 37 114 37q56 0 88.5 -26.5t32.5 -69.5q0 -54 -57 -84
q31 -12 48 -36.5t17 -55.5q0 -48 -33.5 -78.5t-93.5 -30.5z" />
    <glyph glyph-name="acute" unicode="&#xb4;" 
d="M277 608q-31 -40 -60 -40h-57q-37 0 -20 40l48 106q15 33 55 33h101q20 0 22 -11.5t-11 -28.5z" />
    <glyph glyph-name="paragraph" unicode="&#xb6;" horiz-adv-x="557" 
d="M277 156q-113 0 -181.5 70t-68.5 187t68.5 187t181.5 70q18 0 24.5 -6t6.5 -22v-458q0 -16 -6.5 -22t-24.5 -6zM276 -1q45 0 68.5 32.5t23.5 111.5v487q0 40 40 40h60q40 0 40 -40v-567q0 -107 -63 -160.5t-167 -53.5q-86 0 -179 47q-24 12 -12 40l30 74q11 28 43 15
q65 -26 116 -26z" />
    <glyph glyph-name="periodcentered" unicode="&#xb7;" 
d="M247 339q-38 0 -66 28t-28 67q0 38 28 66t66 28t66 -28t28 -66q0 -39 -28 -67t-66 -28z" />
    <glyph glyph-name="cedilla" unicode="&#xb8;" 
d="M257 -269q-59 0 -102 28q-10 7 -2 25l21 49q9 19 22 11q36 -18 62 -18q51 0 51 25q0 12 -14.5 19.5t-36.5 7.5q-10 0 -25 -2t-21 -2q-24 0 -19 17l33 128h51l-13 -65q18 2 26 2q53 0 86 -29.5t33 -78.5q0 -117 -152 -117z" />
    <glyph glyph-name="onesuperior" unicode="&#xb9;" horiz-adv-x="296" 
d="M244 311h-192q-22 0 -22 19v61q0 20 22 20h39q11 0 11 12v140l-52 -18q-20 -8 -20 14v63q0 18 15 23l67 23q2 1 6 1q2 1 6 1h48q22 0 22 -22v-225q0 -7 2 -9.5t9 -2.5h39q22 0 22 -20v-61q0 -19 -22 -19z" />
    <glyph glyph-name="ordmasculine" unicode="&#xba;" horiz-adv-x="434" 
d="M217 284q-90 0 -143 55.5t-53 141.5t53 141t143 55t143 -55t53 -141t-53 -141.5t-143 -55.5zM217 393q39 0 63 21.5t24 66.5t-24 66t-63 21q-38 0 -62 -21t-24 -66t24 -66.5t62 -21.5z" />
    <glyph glyph-name="guillemotright" unicode="&#xbb;" horiz-adv-x="599" 
d="M353 489l208 -172q11 -9 14 -16t3 -22v-57q0 -15 -3 -21.5t-14 -16.5l-172 -141q-15 -12 -25 -11.5t-22 14.5l-38 44q-17 21 6 42l142 119l-178 149q-24 20 -6 42l38 44q21 25 47 3zM318 217q0 -15 -3 -22t-14 -16l-202 -167q-26 -22 -47 3l-38 44q-18 22 6 42l172 144
l-142 119q-23 21 -6 42l38 44q12 14 22 14.5t25 -11.5l172 -141q11 -10 14 -16.5t3 -21.5v-57z" />
    <glyph glyph-name="onequarter" unicode="&#xbc;" horiz-adv-x="751" 
d="M244 9q-22 -37 -55 -15l-15 10q-34 23 -15 55l353 595q21 36 55 15l15 -9q36 -21 15 -55zM244 311h-192q-22 0 -22 19v61q0 20 22 20h39q11 0 11 12v140l-52 -18q-20 -8 -20 14v63q0 18 15 23l67 23q2 1 6 1q2 1 6 1h48q22 0 22 -22v-225q0 -7 2 -9.5t9 -2.5h39
q22 0 22 -20v-61q0 -19 -22 -19zM665 22q0 -22 -22 -22h-43q-22 0 -22 22v39h-151q-21 0 -21 21v29q0 14 11 31l141 208q5 9 19 9h66q22 0 22 -22v-181h34q22 0 22 -22v-52q0 -21 -21 -21h-35v-39zM518 156h60v92z" />
    <glyph glyph-name="onehalf" unicode="&#xbd;" horiz-adv-x="765" 
d="M244 9q-22 -37 -55 -15l-15 10q-34 23 -15 55l353 595q21 36 55 15l15 -9q36 -21 15 -55zM244 311h-192q-22 0 -22 19v61q0 20 22 20h39q11 0 11 12v140l-52 -18q-20 -8 -20 14v63q0 18 15 23l67 23q2 1 6 1q2 1 6 1h48q22 0 22 -22v-225q0 -7 2 -9.5t9 -2.5h39
q22 0 22 -20v-61q0 -19 -22 -19zM713 0h-219q-22 0 -22 22v56q0 24 24.5 48.5t54 41t54 38.5t24.5 42q0 24 -34 24q-30 0 -62 -16q-18 -9 -25 7l-21 50q-7 15 3 23q47 36 110 36q58 0 89.5 -30.5t31.5 -82.5q0 -32 -14.5 -58t-30 -39.5t-45 -33.5t-39.5 -28h121q22 0 22 -22
v-56q0 -22 -22 -22z" />
    <glyph glyph-name="threequarters" unicode="&#xbe;" horiz-adv-x="740" 
d="M161 301q-70 0 -119 37q-9 7 -2 23l15 41q7 18 21 10q36 -21 80 -21q18 0 29 8t11 21q0 29 -55 29h-24q-22 0 -22 22v46q0 22 22 22h12q59 0 59 29q0 24 -38 24q-31 0 -71 -22q-14 -9 -21 10l-15 42q-6 17 2 23q50 37 114 37q56 0 88.5 -26.5t32.5 -69.5q0 -54 -57 -84
q31 -12 48 -36.5t17 -55.5q0 -48 -33.5 -78.5t-93.5 -30.5zM233 9q-22 -37 -55 -15l-15 10q-34 23 -15 55l353 595q21 36 55 15l15 -9q36 -21 15 -55zM654 22q0 -22 -22 -22h-43q-22 0 -22 22v39h-151q-21 0 -21 21v29q0 14 11 31l141 208q5 9 19 9h66q22 0 22 -22v-181h34
q22 0 22 -22v-52q0 -21 -21 -21h-35v-39zM507 156h60v92z" />
    <glyph glyph-name="questiondown" unicode="&#xbf;" horiz-adv-x="475" 
d="M290 489q38 0 66 -28t28 -67q0 -38 -28 -66t-66 -28t-66 28t-28 66q0 39 28 67t66 28zM181 -8q0 -73 87 -73q50 0 125 42q22 13 37 -18l28 -63q13 -28 -4 -42q-36 -28 -86.5 -44t-100.5 -16q-103 0 -164.5 58.5t-61.5 155.5q0 47 18 85t57 69.5t63.5 47t72.5 40.5
q9 5 13 7q16 7 28.5 3.5t19.5 -14.5l36 -56q19 -28 -8 -41q-38 -18 -60.5 -30t-48.5 -30.5t-38.5 -38t-12.5 -42.5z" />
    <glyph glyph-name="Agrave" unicode="&#xc0;" horiz-adv-x="676" 
d="M270 748q-29 0 -60 40l-78 99q-13 17 -11 28.5t22 11.5h101q40 0 55 -33l48 -106q17 -40 -20 -40h-57zM168 11q-9 -30 -22.5 -37.5t-40.5 -2.5l-59 12q-27 6 -32.5 18.5t4.5 39.5l193 589q9 25 18.5 32.5t29.5 7.5h86q8 0 12 -0.5t7.5 -4t5 -6t5.5 -12.5t8 -17l274 -571
q13 -27 6.5 -40t-34.5 -18l-54 -10q-29 -5 -41 1.5t-27 38.5l-44 96h-259zM406 252l-98 214l-66 -214h164z" />
    <glyph glyph-name="Aacute" unicode="&#xc1;" horiz-adv-x="676" 
d="M385 788q-31 -40 -60 -40h-57q-37 0 -20 40l48 106q15 33 55 33h101q20 0 22 -11.5t-11 -28.5zM168 11q-9 -30 -22.5 -37.5t-40.5 -2.5l-59 12q-27 6 -32.5 18.5t4.5 39.5l193 589q9 25 18.5 32.5t29.5 7.5h86q8 0 12 -0.5t7.5 -4t5 -6t5.5 -12.5t8 -17l274 -571
q13 -27 6.5 -40t-34.5 -18l-54 -10q-29 -5 -41 1.5t-27 38.5l-44 96h-259zM406 252l-98 214l-66 -214h164z" />
    <glyph glyph-name="Acircumflex" unicode="&#xc2;" horiz-adv-x="676" 
d="M334 927q34 0 55 -33l68 -106q11 -16 5.5 -28t-25.5 -12h-47q-30 0 -49 23l-52 67l-53 -67q-19 -23 -49 -23h-48q-20 0 -25.5 12t5.5 28l68 106q21 33 55 33h92zM168 11q-9 -30 -22.5 -37.5t-40.5 -2.5l-59 12q-27 6 -32.5 18.5t4.5 39.5l193 589q9 25 18.5 32.5
t29.5 7.5h86q8 0 12 -0.5t7.5 -4t5 -6t5.5 -12.5t8 -17l274 -571q13 -27 6.5 -40t-34.5 -18l-54 -10q-29 -5 -41 1.5t-27 38.5l-44 96h-259zM406 252l-98 214l-66 -214h164z" />
    <glyph glyph-name="Atilde" unicode="&#xc3;" horiz-adv-x="676" 
d="M356 748q-19 0 -54.5 9t-54.5 9q-28 0 -66 -14q-39 -15 -39 24v49q0 32 30 43q35 13 68 13q22 0 57 -9t52 -9q28 0 66 14q39 15 39 -24v-49q0 -32 -30 -43q-35 -13 -68 -13zM168 11q-9 -30 -22.5 -37.5t-40.5 -2.5l-59 12q-27 6 -32.5 18.5t4.5 39.5l193 589
q9 25 18.5 32.5t29.5 7.5h86q8 0 12 -0.5t7.5 -4t5 -6t5.5 -12.5t8 -17l274 -571q13 -27 6.5 -40t-34.5 -18l-54 -10q-29 -5 -41 1.5t-27 38.5l-44 96h-259zM406 252l-98 214l-66 -214h164z" />
    <glyph glyph-name="Adieresis" unicode="&#xc4;" horiz-adv-x="676" 
d="M393 758q-32 0 -54.5 22.5t-22.5 54.5q0 31 23 54t54 23t54 -23t23 -54q0 -32 -22.5 -54.5t-54.5 -22.5zM183 758q-32 0 -54.5 22.5t-22.5 54.5q0 31 23 54t54 23t54 -23t23 -54q0 -32 -22.5 -54.5t-54.5 -22.5zM168 11q-9 -30 -22.5 -37.5t-40.5 -2.5l-59 12
q-27 6 -32.5 18.5t4.5 39.5l193 589q9 25 18.5 32.5t29.5 7.5h86q8 0 12 -0.5t7.5 -4t5 -6t5.5 -12.5t8 -17l274 -571q13 -27 6.5 -40t-34.5 -18l-54 -10q-29 -5 -41 1.5t-27 38.5l-44 96h-259zM406 252l-98 214l-66 -214h164z" />
    <glyph glyph-name="Aring" unicode="&#xc5;" horiz-adv-x="676" 
d="M168 11q-9 -30 -22.5 -37.5t-40.5 -2.5l-59 12q-27 6 -32.5 18.5t4.5 39.5l186 567q-54 35 -54 103q0 58 41 93t105 35t105 -35t41 -93q0 -65 -50 -100l265 -552q13 -27 6.5 -40t-34.5 -18l-54 -10q-29 -5 -41 1.5t-27 38.5l-44 96h-259zM296 672q20 0 33.5 10t13.5 29
q0 18 -13.5 28t-34.5 10q-19 0 -32.5 -10.5t-13.5 -27.5q0 -19 13.5 -29t33.5 -10zM406 252l-98 214l-66 -214h164z" />
    <glyph glyph-name="AE" unicode="&#xc6;" horiz-adv-x="892" 
d="M165 8q-15 -31 -26.5 -39t-36.5 -1l-56 15q-28 8 -34.5 20t6.5 38l293 589q14 27 21.5 33.5t26.5 6.5h462q40 0 40 -40v-61q0 -39 -39 -39h-256v-129l214 15q40 3 40 -40v-61q0 -36 -39 -39l-215 -15v-121h245q40 0 40 -40v-61q0 -39 -39 -39h-346q-40 0 -40 40v87h-203z
M426 252v296l-143 -296h143z" />
    <glyph glyph-name="Ccedilla" unicode="&#xc7;" horiz-adv-x="605" 
d="M356 -269q-59 0 -102 28q-10 7 -2 25l21 49q9 19 22 11q36 -18 62 -18q51 0 51 25q0 12 -14.5 19.5t-36.5 7.5q-10 0 -25 -2t-21 -2q-24 0 -19 17l26 99q-133 13 -211.5 105.5t-78.5 239.5q0 157 90.5 252t241.5 95q115 0 213 -60q17 -11 6 -37l-30 -74q-11 -29 -43 -15
q-79 36 -146 36q-89 0 -138 -55t-49 -142q0 -88 48.5 -142.5t138.5 -54.5q67 0 146 36q32 14 43 -15l30 -74q11 -26 -6 -37q-94 -57 -203 -60l-7 -34q18 2 26 2q53 0 86 -29.5t33 -78.5q0 -117 -152 -117z" />
    <glyph glyph-name="Egrave" unicode="&#xc8;" horiz-adv-x="526" 
d="M285 748q-29 0 -60 40l-78 99q-13 17 -11 28.5t22 11.5h101q40 0 55 -33l48 -106q17 -40 -20 -40h-57zM90 0q-41 0 -40 40l20 590q1 40 40 40h345q40 0 40 -40v-61q0 -39 -39 -39h-249l-5 -128l213 14q40 3 40 -40v-61q0 -36 -39 -39l-218 -15l-5 -121h262q40 0 40 -40
v-61q0 -39 -39 -39h-366z" />
    <glyph glyph-name="Eacute" unicode="&#xc9;" horiz-adv-x="526" 
d="M350 788q-31 -40 -60 -40h-57q-37 0 -20 40l48 106q15 33 55 33h101q20 0 22 -11.5t-11 -28.5zM90 0q-41 0 -40 40l20 590q1 40 40 40h345q40 0 40 -40v-61q0 -39 -39 -39h-249l-5 -128l213 14q40 3 40 -40v-61q0 -36 -39 -39l-218 -15l-5 -121h262q40 0 40 -40v-61
q0 -39 -39 -39h-366z" />
    <glyph glyph-name="Ecircumflex" unicode="&#xca;" horiz-adv-x="526" 
d="M329 927q34 0 55 -33l68 -106q11 -16 5.5 -28t-25.5 -12h-47q-30 0 -49 23l-52 67l-53 -67q-19 -23 -49 -23h-48q-20 0 -25.5 12t5.5 28l68 106q21 33 55 33h92zM90 0q-41 0 -40 40l20 590q1 40 40 40h345q40 0 40 -40v-61q0 -39 -39 -39h-249l-5 -128l213 14
q40 3 40 -40v-61q0 -36 -39 -39l-218 -15l-5 -121h262q40 0 40 -40v-61q0 -39 -39 -39h-366z" />
    <glyph glyph-name="Edieresis" unicode="&#xcb;" horiz-adv-x="526" 
d="M388 758q-32 0 -54.5 22.5t-22.5 54.5q0 31 22.5 54t54.5 23t54.5 -23t22.5 -54q0 -32 -22.5 -54.5t-54.5 -22.5zM178 758q-32 0 -54.5 22.5t-22.5 54.5q0 31 22.5 54t54.5 23t54.5 -23t22.5 -54q0 -32 -22.5 -54.5t-54.5 -22.5zM90 0q-41 0 -40 40l20 590q1 40 40 40
h345q40 0 40 -40v-61q0 -39 -39 -39h-249l-5 -128l213 14q40 3 40 -40v-61q0 -36 -39 -39l-218 -15l-5 -121h262q40 0 40 -40v-61q0 -39 -39 -39h-366z" />
    <glyph glyph-name="Igrave" unicode="&#xcc;" horiz-adv-x="265" 
d="M114 748q-29 0 -60 40l-78 99q-13 17 -11 28.5t22 11.5h101q40 0 55 -33l48 -106q17 -40 -20 -40h-57zM205 20q0 -40 -40 -40h-65q-40 0 -40 40v630q0 40 40 40h65q40 0 40 -40v-630z" />
    <glyph glyph-name="Iacute" unicode="&#xcd;" horiz-adv-x="265" 
d="M219 788q-31 -40 -60 -40h-57q-37 0 -20 40l48 106q15 33 55 33h101q20 0 22 -11.5t-11 -28.5zM205 20q0 -40 -40 -40h-65q-40 0 -40 40v630q0 40 40 40h65q40 0 40 -40v-630z" />
    <glyph glyph-name="Icircumflex" unicode="&#xce;" horiz-adv-x="265" 
d="M178 927q34 0 55 -33l68 -106q11 -16 5.5 -28t-25.5 -12h-47q-30 0 -49 23l-52 67l-53 -67q-19 -23 -49 -23h-48q-20 0 -25.5 12t5.5 28l68 106q21 33 55 33h92zM205 20q0 -40 -40 -40h-65q-40 0 -40 40v630q0 40 40 40h65q40 0 40 -40v-630z" />
    <glyph glyph-name="Idieresis" unicode="&#xcf;" horiz-adv-x="265" 
d="M237 758q-32 0 -54.5 22.5t-22.5 54.5q0 31 23 54t54 23t54 -23t23 -54q0 -32 -22.5 -54.5t-54.5 -22.5zM27 758q-32 0 -54.5 22.5t-22.5 54.5q0 31 23 54t54 23t54 -23t23 -54q0 -32 -22.5 -54.5t-54.5 -22.5zM205 20q0 -40 -40 -40h-65q-40 0 -40 40v630q0 40 40 40h65
q40 0 40 -40v-630z" />
    <glyph glyph-name="Eth" unicode="&#xd0;" horiz-adv-x="702" 
d="M152 0q-20 -2 -30 8.5t-10 31.5v231h-58q-39 0 -39 39v61q0 40 40 40h57v219q0 40 40 40h158q169 0 267.5 -77t98.5 -243q0 -80 -29 -142t-81 -101t-116.5 -61.5t-141.5 -29.5l-88 -9h-3zM361 271h-104v-110l55 5q94 10 156.5 56.5t62.5 127.5q0 91 -60.5 130.5
t-156.5 39.5h-57v-109h103q40 0 40 -40v-61q0 -39 -39 -39z" />
    <glyph glyph-name="Ntilde" unicode="&#xd1;" horiz-adv-x="679" 
d="M398 748q-19 0 -54.5 9t-54.5 9q-28 0 -66 -14q-39 -15 -39 24v49q0 32 30 43q35 13 68 13q22 0 57 -9t52 -9q28 0 66 14q39 15 39 -24v-49q0 -32 -30 -43q-35 -13 -68 -13zM205 20q0 -40 -40 -40h-65q-40 0 -40 40v590q0 40 40 40h65q15 0 22 -4l1 -1l1 -1h2l1 -1l4 -4
l3 -3l1 -2l267 -399l27 395q3 40 40 40h65q43 0 40 -40l-40 -590q-3 -40 -40 -40h-65q-21 0 -32 11q-1 1 -2.5 3t-2.5 3l-252 376v-373z" />
    <glyph glyph-name="Ograve" unicode="&#xd2;" horiz-adv-x="738" 
d="M351 748q-29 0 -60 40l-78 99q-13 17 -11 28.5t22 11.5h101q40 0 55 -33l48 -106q17 -40 -20 -40h-57zM368 -22q-154 0 -247 97.5t-93 259.5q0 161 93.5 259t248.5 98q153 0 245.5 -98t94.5 -259q-1 -163 -94.5 -260t-247.5 -97zM370 128q92 0 142.5 57t52.5 150
q-2 92 -53 149.5t-143 57.5q-94 0 -145 -57.5t-51 -149.5q0 -93 51 -150t146 -57z" />
    <glyph glyph-name="Oacute" unicode="&#xd3;" horiz-adv-x="738" 
d="M446 788q-31 -40 -60 -40h-57q-37 0 -20 40l48 106q15 33 55 33h101q20 0 22 -11.5t-11 -28.5zM368 -22q-154 0 -247 97.5t-93 259.5q0 161 93.5 259t248.5 98q153 0 245.5 -98t94.5 -259q-1 -163 -94.5 -260t-247.5 -97zM370 128q92 0 142.5 57t52.5 150
q-2 92 -53 149.5t-143 57.5q-94 0 -145 -57.5t-51 -149.5q0 -93 51 -150t146 -57z" />
    <glyph glyph-name="Ocircumflex" unicode="&#xd4;" horiz-adv-x="738" 
d="M415 927q34 0 55 -33l68 -106q11 -16 5.5 -28t-25.5 -12h-47q-30 0 -49 23l-52 67l-53 -67q-19 -23 -49 -23h-48q-20 0 -25.5 12t5.5 28l68 106q21 33 55 33h92zM368 -22q-154 0 -247 97.5t-93 259.5q0 161 93.5 259t248.5 98q153 0 245.5 -98t94.5 -259
q-1 -163 -94.5 -260t-247.5 -97zM370 128q92 0 142.5 57t52.5 150q-2 92 -53 149.5t-143 57.5q-94 0 -145 -57.5t-51 -149.5q0 -93 51 -150t146 -57z" />
    <glyph glyph-name="Otilde" unicode="&#xd5;" horiz-adv-x="738" 
d="M427 748q-19 0 -54.5 9t-54.5 9q-28 0 -66 -14q-39 -15 -39 24v49q0 32 30 43q35 13 68 13q22 0 57 -9t52 -9q28 0 66 14q39 15 39 -24v-49q0 -32 -30 -43q-35 -13 -68 -13zM368 -22q-154 0 -247 97.5t-93 259.5q0 161 93.5 259t248.5 98q153 0 245.5 -98t94.5 -259
q-1 -163 -94.5 -260t-247.5 -97zM370 128q92 0 142.5 57t52.5 150q-2 92 -53 149.5t-143 57.5q-94 0 -145 -57.5t-51 -149.5q0 -93 51 -150t146 -57z" />
    <glyph glyph-name="Odieresis" unicode="&#xd6;" horiz-adv-x="738" 
d="M474 758q-32 0 -54.5 22.5t-22.5 54.5q0 31 22.5 54t54.5 23t54.5 -23t22.5 -54q0 -32 -22.5 -54.5t-54.5 -22.5zM264 758q-32 0 -54.5 22.5t-22.5 54.5q0 31 22.5 54t54.5 23t54.5 -23t22.5 -54q0 -32 -22.5 -54.5t-54.5 -22.5zM368 -22q-154 0 -247 97.5t-93 259.5
q0 161 93.5 259t248.5 98q153 0 245.5 -98t94.5 -259q-1 -163 -94.5 -260t-247.5 -97zM370 128q92 0 142.5 57t52.5 150q-2 92 -53 149.5t-143 57.5q-94 0 -145 -57.5t-51 -149.5q0 -93 51 -150t146 -57z" />
    <glyph glyph-name="multiply" unicode="&#xd7;" 
d="M400 149q-28 -27 -56 1l-95 94l-93 -94q-30 -30 -58 -1l-35 37q-27 28 1 56l93 94l-93 93q-27 29 0 57l36 35q27 27 56 0l93 -93l93 93q30 28 58 0l35 -35q27 -28 -1 -56l-93 -94l95 -94q28 -28 0 -56z" />
    <glyph glyph-name="Oslash" unicode="&#xd8;" horiz-adv-x="738" 
d="M203 -41q-23 -34 -55 -15l-56 35q-37 22 -15 55l35 51q-84 96 -84 250q0 161 93.5 259t248.5 98q76 0 136 -24l29 42q23 34 55 15l56 -35q37 -23 15 -55l-35 -52q83 -97 84 -248q-1 -163 -94.5 -260t-247.5 -97q-74 0 -136 24zM168 335q0 -72 30 -123l223 330
q-27 5 -52 5q-96 0 -148.5 -59t-52.5 -153zM370 123q95 0 146.5 58.5t53.5 153.5q-2 70 -30 121l-222 -328q27 -5 52 -5z" />
    <glyph glyph-name="Ugrave" unicode="&#xd9;" horiz-adv-x="658" 
d="M311 748q-29 0 -60 40l-78 99q-13 17 -11 28.5t22 11.5h101q40 0 55 -33l48 -106q17 -40 -20 -40h-57zM453 60v32q-66 -104 -200 -104q-89 0 -144 57.5t-55 166.5v418q0 40 40 40h65q40 0 40 -40v-358q0 -75 25.5 -107.5t76.5 -32.5q62 0 107 41t45 109v328q0 40 40 40
h65q40 0 40 -40v-550q0 -40 -40 -40h-65q-40 0 -40 40z" />
    <glyph glyph-name="Uacute" unicode="&#xda;" horiz-adv-x="658" 
d="M416 788q-31 -40 -60 -40h-57q-37 0 -20 40l48 106q15 33 55 33h101q20 0 22 -11.5t-11 -28.5zM453 60v32q-66 -104 -200 -104q-89 0 -144 57.5t-55 166.5v418q0 40 40 40h65q40 0 40 -40v-358q0 -75 25.5 -107.5t76.5 -32.5q62 0 107 41t45 109v328q0 40 40 40h65
q40 0 40 -40v-550q0 -40 -40 -40h-65q-40 0 -40 40z" />
    <glyph glyph-name="Ucircumflex" unicode="&#xdb;" horiz-adv-x="658" 
d="M375 927q34 0 55 -33l68 -106q11 -16 5.5 -28t-25.5 -12h-47q-30 0 -49 23l-52 67l-53 -67q-19 -23 -49 -23h-48q-20 0 -25.5 12t5.5 28l68 106q21 33 55 33h92zM453 60v32q-66 -104 -200 -104q-89 0 -144 57.5t-55 166.5v418q0 40 40 40h65q40 0 40 -40v-358
q0 -75 25.5 -107.5t76.5 -32.5q62 0 107 41t45 109v328q0 40 40 40h65q40 0 40 -40v-550q0 -40 -40 -40h-65q-40 0 -40 40z" />
    <glyph glyph-name="Udieresis" unicode="&#xdc;" horiz-adv-x="658" 
d="M434 758q-32 0 -54.5 22.5t-22.5 54.5q0 31 22.5 54t54.5 23t54.5 -23t22.5 -54q0 -32 -22.5 -54.5t-54.5 -22.5zM224 758q-32 0 -54.5 22.5t-22.5 54.5q0 31 22.5 54t54.5 23t54.5 -23t22.5 -54q0 -32 -22.5 -54.5t-54.5 -22.5zM453 60v32q-66 -104 -200 -104
q-89 0 -144 57.5t-55 166.5v418q0 40 40 40h65q40 0 40 -40v-358q0 -75 25.5 -107.5t76.5 -32.5q62 0 107 41t45 109v328q0 40 40 40h65q40 0 40 -40v-550q0 -40 -40 -40h-65q-40 0 -40 40z" />
    <glyph glyph-name="Yacute" unicode="&#xdd;" horiz-adv-x="568" 
d="M351 788q-31 -40 -60 -40h-57q-37 0 -20 40l48 106q15 33 55 33h101q20 0 22 -11.5t-11 -28.5zM369 40q0 -40 -40 -40h-65q-27 0 -36 18q-4 8 -4 22v192l-206 379q-14 27 -7 39.5t35 18.5l49 10q31 7 44 -9q6 -9 19 -31l119 -211l13 -23l116 254q10 22 17 29q13 18 46 11
l54 -12q28 -6 34 -18.5t-6 -39.5l-182 -410v-179z" />
    <glyph glyph-name="Thorn" unicode="&#xde;" horiz-adv-x="576" 
d="M165 -20h-65q-40 0 -40 40v630q0 40 40 40h65q40 0 40 -40v-60h53q137 0 216.5 -61.5t79.5 -194.5q0 -119 -83 -182t-215 -76l-51 -5v-51q0 -40 -40 -40zM262 440h-57v-219l55 5q64 6 106.5 33.5t42.5 74.5q0 106 -147 106z" />
    <glyph glyph-name="germandbls" unicode="&#xdf;" horiz-adv-x="694" 
d="M317 360q0 35 19 72.5t38 67t19 45.5q0 42 -63 42q-44 0 -60.5 -21t-16.5 -74v-462q0 -30 -30 -30h-80q-30 0 -30 30v308l-71 -4q-16 -1 -22 7t-6 24v80q0 14 9.5 23.5t24.5 10.5l65 4v33q0 104 56.5 160t160.5 56q106 0 159.5 -42t53.5 -112q0 -41 -21.5 -83.5
t-43 -75.5t-21.5 -49t22.5 -29.5t54.5 -26t64.5 -30.5t55 -53.5t22.5 -85.5q0 -72 -52 -114.5t-144 -42.5q-94 0 -167 59q-18 14 -4 42l23 47q15 31 37 18q3 -2 16.5 -9.5t20 -10.5t19.5 -9.5t22 -9t21 -5t23 -2.5q45 0 45 27q0 16 -22.5 29.5t-55 26t-64.5 30.5t-54.5 53.5
t-22.5 85.5z" />
    <glyph glyph-name="agrave" unicode="&#xe0;" horiz-adv-x="508" 
d="M256 568q-29 0 -60 40l-78 99q-13 17 -11 28.5t22 11.5h101q40 0 55 -33l48 -106q17 -40 -20 -40h-57zM441 -30h-80q-30 0 -30 30v43q-49 -47 -122 -54q-6 -1 -17 -1q-77 0 -125.5 47t-48.5 118t48 117t146 46q57 0 119 -26q-1 7 -3 19q-17 73 -101 73q-56 0 -118 -38
q-21 -13 -37 18l-14 29l-15 29q-3 6 -7 16q-3 16 11 26q76 60 196 60q105 0 166.5 -61.5t61.5 -167.5v-293q0 -10 -3 -17q-7 -13 -27 -13zM227 113q33 0 62 12.5t38 33.5q4 8 4 18v4q-52 20 -104 20q-69 0 -69 -44q0 -20 20 -32t49 -12z" />
    <glyph glyph-name="aacute" unicode="&#xe1;" horiz-adv-x="508" 
d="M321 608q-31 -40 -60 -40h-57q-37 0 -20 40l48 106q15 33 55 33h101q20 0 22 -11.5t-11 -28.5zM441 -30h-80q-30 0 -30 30v43q-49 -47 -122 -54q-6 -1 -17 -1q-77 0 -125.5 47t-48.5 118t48 117t146 46q57 0 119 -26q-1 7 -3 19q-17 73 -101 73q-56 0 -118 -38
q-21 -13 -37 18l-14 29l-15 29q-3 6 -7 16q-3 16 11 26q76 60 196 60q105 0 166.5 -61.5t61.5 -167.5v-293q0 -10 -3 -17q-7 -13 -27 -13zM227 113q33 0 62 12.5t38 33.5q4 8 4 18v4q-52 20 -104 20q-69 0 -69 -44q0 -20 20 -32t49 -12z" />
    <glyph glyph-name="acircumflex" unicode="&#xe2;" horiz-adv-x="508" 
d="M300 747q34 0 55 -33l68 -106q11 -16 5.5 -28t-25.5 -12h-47q-30 0 -49 23l-52 67l-53 -67q-19 -23 -49 -23h-48q-20 0 -25.5 12t5.5 28l68 106q21 33 55 33h92zM441 -30h-80q-30 0 -30 30v43q-49 -47 -122 -54q-6 -1 -17 -1q-77 0 -125.5 47t-48.5 118t48 117t146 46
q57 0 119 -26q-1 7 -3 19q-17 73 -101 73q-56 0 -118 -38q-21 -13 -37 18l-14 29l-15 29q-3 6 -7 16q-3 16 11 26q76 60 196 60q105 0 166.5 -61.5t61.5 -167.5v-293q0 -10 -3 -17q-7 -13 -27 -13zM227 113q33 0 62 12.5t38 33.5q4 8 4 18v4q-52 20 -104 20q-69 0 -69 -44
q0 -20 20 -32t49 -12z" />
    <glyph glyph-name="atilde" unicode="&#xe3;" horiz-adv-x="508" 
d="M312 568q-19 0 -54.5 9t-54.5 9q-28 0 -66 -14q-39 -15 -39 24v49q0 32 30 43q35 13 68 13q22 0 57 -9t52 -9q28 0 66 14q39 15 39 -24v-49q0 -32 -30 -43q-35 -13 -68 -13zM441 -30h-80q-30 0 -30 30v43q-49 -47 -122 -54q-6 -1 -17 -1q-77 0 -125.5 47t-48.5 118
t48 117t146 46q57 0 119 -26q-1 7 -3 19q-17 73 -101 73q-56 0 -118 -38q-21 -13 -37 18l-14 29l-15 29q-3 6 -7 16q-3 16 11 26q76 60 196 60q105 0 166.5 -61.5t61.5 -167.5v-293q0 -10 -3 -17q-7 -13 -27 -13zM227 113q33 0 62 12.5t38 33.5q4 8 4 18v4q-52 20 -104 20
q-69 0 -69 -44q0 -20 20 -32t49 -12z" />
    <glyph glyph-name="adieresis" unicode="&#xe4;" horiz-adv-x="508" 
d="M359 578q-32 0 -54.5 22.5t-22.5 54.5q0 31 23 54t54 23t54 -23t23 -54q0 -32 -22.5 -54.5t-54.5 -22.5zM149 578q-32 0 -54.5 22.5t-22.5 54.5q0 31 23 54t54 23t54 -23t23 -54q0 -32 -22.5 -54.5t-54.5 -22.5zM441 -30h-80q-30 0 -30 30v43q-49 -47 -122 -54
q-6 -1 -17 -1q-77 0 -125.5 47t-48.5 118t48 117t146 46q57 0 119 -26q-1 7 -3 19q-17 73 -101 73q-56 0 -118 -38q-21 -13 -37 18l-14 29l-15 29q-3 6 -7 16q-3 16 11 26q76 60 196 60q105 0 166.5 -61.5t61.5 -167.5v-293q0 -10 -3 -17q-7 -13 -27 -13zM227 113
q33 0 62 12.5t38 33.5q4 8 4 18v4q-52 20 -104 20q-69 0 -69 -44q0 -20 20 -32t49 -12z" />
    <glyph glyph-name="aring" unicode="&#xe5;" horiz-adv-x="508" 
d="M254 552q-61 0 -100 33t-39 89q0 55 39 88.5t100 33.5t100 -33.5t39 -88.5q0 -56 -39 -89t-100 -33zM254 635q20 0 33.5 10t13.5 29q0 18 -13.5 28t-34.5 10q-19 0 -32.5 -10.5t-13.5 -27.5q0 -19 13 -29t34 -10zM441 -30h-80q-30 0 -30 30v43q-49 -47 -122 -54
q-6 -1 -17 -1q-77 0 -125.5 47t-48.5 118t48 117t146 46q57 0 119 -26q-1 7 -3 19q-17 73 -101 73q-56 0 -118 -38q-21 -13 -37 18l-14 29l-15 29q-3 6 -7 16q-3 16 11 26q76 60 196 60q105 0 166.5 -61.5t61.5 -167.5v-293q0 -10 -3 -17q-7 -13 -27 -13zM227 113
q33 0 62 12.5t38 33.5q4 8 4 18v4q-52 20 -104 20q-69 0 -69 -44q0 -20 20 -32t49 -12z" />
    <glyph glyph-name="ae" unicode="&#xe6;" horiz-adv-x="814" 
d="M593 -12q-128 0 -201 84q-72 -84 -200 -84q-77 0 -125.5 47t-48.5 118t48 117t146 46q57 0 119 -26v9q0 40 -27.5 61.5t-76.5 21.5q-56 0 -118 -38q-21 -13 -37 18l-14 29l-15 29q-3 6 -7 16q-3 16 11 26q69 54 175 59q7 1 21 1q115 0 173 -66q66 56 166 56
q97 0 156.5 -61t59.5 -165q0 -15 -1 -21q-1 -28 -21 -36q-4 -2 -17 -4l-279 -32q34 -75 132 -75q40 0 115 42q11 7 21.5 1.5t15.5 -19.5l7 -17l13 -35q4 -12 6 -16q3 -15 -10 -26q-36 -28 -86.5 -44t-100.5 -16zM572 382q-81 0 -98 -81l180 21q-7 27 -28.5 43.5t-53.5 16.5z
M227 113q39 0 71.5 17.5t32.5 46.5v4q-52 20 -104 20q-69 0 -69 -44q0 -20 20 -32t49 -12z" />
    <glyph glyph-name="ccedilla" unicode="&#xe7;" horiz-adv-x="484" 
d="M257 -269q-59 0 -102 28q-10 7 -2 25l21 49q9 19 22 11q36 -18 62 -18q51 0 51 25q0 12 -14.5 19.5t-36.5 7.5q-10 0 -25 -2t-21 -2q-24 0 -19 17l26 101q-91 15 -144.5 82t-53.5 169q0 116 68 186.5t180 70.5q50 0 100.5 -16t86.5 -44q17 -14 4 -42l-28 -63
q-15 -31 -37 -18q-66 38 -125 38q-52 0 -80.5 -28.5t-28.5 -83.5q0 -110 109 -110q59 0 125 38q22 13 37 -18l28 -63q13 -28 -4 -42q-36 -28 -86.5 -44t-98.5 -16l-7 -34q18 2 26 2q53 0 86 -29.5t33 -78.5q0 -117 -152 -117z" />
    <glyph glyph-name="egrave" unicode="&#xe8;" horiz-adv-x="504" 
d="M247 568q-29 0 -60 40l-78 99q-13 17 -11 28.5t22 11.5h101q40 0 55 -33l48 -106q17 -40 -20 -40h-57zM283 -12q-119 0 -190.5 72.5t-71.5 189.5q0 113 65.5 187.5t185.5 74.5q97 0 156.5 -61t59.5 -165q0 -32 -7 -45t-32 -16l-279 -32q34 -75 132 -75q40 0 115 42
q11 7 21.5 1.5t15.5 -19.5l20 -52q7 -18 7 -23.5t-11 -18.5q-36 -28 -86.5 -44t-100.5 -16zM262 382q-81 0 -98 -81l180 21q-7 27 -28.5 43.5t-53.5 16.5z" />
    <glyph glyph-name="eacute" unicode="&#xe9;" horiz-adv-x="504" 
d="M342 608q-31 -40 -60 -40h-57q-37 0 -20 40l48 106q15 33 55 33h101q20 0 22 -11.5t-11 -28.5zM283 -12q-119 0 -190.5 72.5t-71.5 189.5q0 113 65.5 187.5t185.5 74.5q97 0 156.5 -61t59.5 -165q0 -32 -7 -45t-32 -16l-279 -32q34 -75 132 -75q40 0 115 42
q11 7 21.5 1.5t15.5 -19.5l20 -52q7 -18 7 -23.5t-11 -18.5q-36 -28 -86.5 -44t-100.5 -16zM262 382q-81 0 -98 -81l180 21q-7 27 -28.5 43.5t-53.5 16.5z" />
    <glyph glyph-name="ecircumflex" unicode="&#xea;" horiz-adv-x="504" 
d="M321 747q34 0 55 -33l68 -106q11 -16 5.5 -28t-25.5 -12h-47q-30 0 -49 23l-52 67l-53 -67q-19 -23 -49 -23h-48q-20 0 -25.5 12t5.5 28l68 106q21 33 55 33h92zM283 -12q-119 0 -190.5 72.5t-71.5 189.5q0 113 65.5 187.5t185.5 74.5q97 0 156.5 -61t59.5 -165
q0 -32 -7 -45t-32 -16l-279 -32q34 -75 132 -75q40 0 115 42q11 7 21.5 1.5t15.5 -19.5l20 -52q7 -18 7 -23.5t-11 -18.5q-36 -28 -86.5 -44t-100.5 -16zM262 382q-81 0 -98 -81l180 21q-7 27 -28.5 43.5t-53.5 16.5z" />
    <glyph glyph-name="edieresis" unicode="&#xeb;" horiz-adv-x="504" 
d="M390 578q-32 0 -54.5 22.5t-22.5 54.5q0 31 22.5 54t54.5 23t54.5 -23t22.5 -54q0 -32 -22.5 -54.5t-54.5 -22.5zM180 578q-32 0 -54.5 22.5t-22.5 54.5q0 31 22.5 54t54.5 23t54.5 -23t22.5 -54q0 -32 -22.5 -54.5t-54.5 -22.5zM283 -12q-119 0 -190.5 72.5t-71.5 189.5
q0 113 65.5 187.5t185.5 74.5q97 0 156.5 -61t59.5 -165q0 -32 -7 -45t-32 -16l-279 -32q34 -75 132 -75q40 0 115 42q11 7 21.5 1.5t15.5 -19.5l20 -52q7 -18 7 -23.5t-11 -18.5q-36 -28 -86.5 -44t-100.5 -16zM262 382q-81 0 -98 -81l180 21q-7 27 -28.5 43.5t-53.5 16.5z
" />
    <glyph glyph-name="igrave" unicode="&#xec;" horiz-adv-x="230" 
d="M87 568q-29 0 -60 40l-78 99q-13 17 -11 28.5t22 11.5h101q40 0 55 -33l48 -106q17 -40 -20 -40h-57zM185 40q0 -40 -40 -40h-60q-40 0 -40 40v400q0 40 40 40h60q40 0 40 -40v-400z" />
    <glyph glyph-name="iacute" unicode="&#xed;" horiz-adv-x="230" 
d="M202 608q-31 -40 -60 -40h-57q-37 0 -20 40l48 106q15 33 55 33h101q20 0 22 -11.5t-11 -28.5zM185 40q0 -40 -40 -40h-60q-40 0 -40 40v400q0 40 40 40h60q40 0 40 -40v-400z" />
    <glyph glyph-name="icircumflex" unicode="&#xee;" horiz-adv-x="230" 
d="M161 747q34 0 55 -33l68 -106q11 -16 5.5 -28t-25.5 -12h-47q-30 0 -49 23l-52 67l-53 -67q-19 -23 -49 -23h-48q-20 0 -25.5 12t5.5 28l68 106q21 33 55 33h92zM185 40q0 -40 -40 -40h-60q-40 0 -40 40v400q0 40 40 40h60q40 0 40 -40v-400z" />
    <glyph glyph-name="idieresis" unicode="&#xef;" horiz-adv-x="230" 
d="M220 578q-32 0 -54.5 22.5t-22.5 54.5q0 31 22.5 54t54.5 23t54.5 -23t22.5 -54q0 -32 -22.5 -54.5t-54.5 -22.5zM10 578q-32 0 -54.5 22.5t-22.5 54.5q0 31 22.5 54t54.5 23t54.5 -23t22.5 -54q0 -32 -22.5 -54.5t-54.5 -22.5zM185 40q0 -40 -40 -40h-60q-40 0 -40 40
v400q0 40 40 40h60q40 0 40 -40v-400z" />
    <glyph glyph-name="eth" unicode="&#xf0;" horiz-adv-x="552" 
d="M273 -11q-110 0 -181 68t-71 172t63 169.5t171 65.5q42 0 87 -12q-19 39 -42 74l-51 -35q-15 -9 -23 -6t-19 18l-37 54q-12 17 16 35l39 26q-16 16 -24 23q-30 27 0 48l42 29q18 12 28 12.5t28 -12.5q22 -18 33 -28l54 37q15 9 23 6t19 -18l37 -54q12 -17 -16 -35
l-35 -24q114 -147 114 -329q0 -131 -66.5 -207.5t-188.5 -76.5zM268 139q115 0 115 154v5q-49 26 -112 26q-51 0 -78 -26t-27 -70q0 -41 29 -65t73 -24z" />
    <glyph glyph-name="ntilde" unicode="&#xf1;" horiz-adv-x="549" 
d="M353 568q-19 0 -54.5 9t-54.5 9q-28 0 -66 -14q-39 -15 -39 24v49q0 32 30 43q35 13 68 13q22 0 57 -9t52 -9q28 0 66 14q39 15 39 -24v-49q0 -32 -30 -43q-35 -13 -68 -13zM185 20q0 -40 -40 -40h-60q-40 0 -40 40v480q0 40 40 40h60q40 0 40 -40v-75q27 42 70 64.5
t87 22.5q77 0 123 -52t46 -156v-264q0 -40 -40 -40h-60q-40 0 -40 40v219q0 108 -77 108q-51 0 -80 -33t-29 -100v-214z" />
    <glyph glyph-name="ograve" unicode="&#xf2;" horiz-adv-x="544" 
d="M244 568q-29 0 -60 40l-78 99q-13 17 -11 28.5t22 11.5h101q40 0 55 -33l48 -106q17 -40 -20 -40h-57zM272 -12q-115 0 -183 73.5t-68 188.5t68 188.5t183 73.5t183 -73.5t68 -188.5t-68 -188.5t-183 -73.5zM272 133q50 0 80.5 28.5t30.5 88.5t-30.5 88.5t-80.5 28.5
t-80.5 -28.5t-30.5 -88.5t30.5 -88.5t80.5 -28.5z" />
    <glyph glyph-name="oacute" unicode="&#xf3;" horiz-adv-x="544" 
d="M349 608q-31 -40 -60 -40h-57q-37 0 -20 40l48 106q15 33 55 33h101q20 0 22 -11.5t-11 -28.5zM272 -12q-115 0 -183 73.5t-68 188.5t68 188.5t183 73.5t183 -73.5t68 -188.5t-68 -188.5t-183 -73.5zM272 133q50 0 80.5 28.5t30.5 88.5t-30.5 88.5t-80.5 28.5
t-80.5 -28.5t-30.5 -88.5t30.5 -88.5t80.5 -28.5z" />
    <glyph glyph-name="ocircumflex" unicode="&#xf4;" horiz-adv-x="544" 
d="M318 747q34 0 55 -33l68 -106q11 -16 5.5 -28t-25.5 -12h-47q-30 0 -49 23l-52 67l-53 -67q-19 -23 -49 -23h-48q-20 0 -25.5 12t5.5 28l68 106q21 33 55 33h92zM272 -12q-115 0 -183 73.5t-68 188.5t68 188.5t183 73.5t183 -73.5t68 -188.5t-68 -188.5t-183 -73.5z
M272 133q50 0 80.5 28.5t30.5 88.5t-30.5 88.5t-80.5 28.5t-80.5 -28.5t-30.5 -88.5t30.5 -88.5t80.5 -28.5z" />
    <glyph glyph-name="otilde" unicode="&#xf5;" horiz-adv-x="544" 
d="M330 568q-19 0 -54.5 9t-54.5 9q-28 0 -66 -14q-39 -15 -39 24v49q0 32 30 43q35 13 68 13q22 0 57 -9t52 -9q28 0 66 14q39 15 39 -24v-49q0 -32 -30 -43q-35 -13 -68 -13zM272 -12q-115 0 -183 73.5t-68 188.5t68 188.5t183 73.5t183 -73.5t68 -188.5t-68 -188.5
t-183 -73.5zM272 133q50 0 80.5 28.5t30.5 88.5t-30.5 88.5t-80.5 28.5t-80.5 -28.5t-30.5 -88.5t30.5 -88.5t80.5 -28.5z" />
    <glyph glyph-name="odieresis" unicode="&#xf6;" horiz-adv-x="544" 
d="M377 578q-32 0 -54.5 22.5t-22.5 54.5q0 31 23 54t54 23t54 -23t23 -54q0 -32 -22.5 -54.5t-54.5 -22.5zM167 578q-32 0 -54.5 22.5t-22.5 54.5q0 31 23 54t54 23t54 -23t23 -54q0 -32 -22.5 -54.5t-54.5 -22.5zM272 -12q-115 0 -183 73.5t-68 188.5t68 188.5t183 73.5
t183 -73.5t68 -188.5t-68 -188.5t-183 -73.5zM272 133q50 0 80.5 28.5t30.5 88.5t-30.5 88.5t-80.5 28.5t-80.5 -28.5t-30.5 -88.5t30.5 -88.5t80.5 -28.5z" />
    <glyph glyph-name="divide" unicode="&#xf7;" 
d="M248 439q-38 0 -66 28t-28 67q0 38 28 66t66 28t66 -28t28 -66q0 -39 -28 -67t-66 -28zM407 402q40 0 40 -40v-50q0 -40 -40 -40h-314q-40 0 -40 40v50q0 40 40 40h314zM248 39q-38 0 -66 28t-28 67q0 38 28 66t66 28t66 -28t28 -66q0 -39 -28 -67t-66 -28z" />
    <glyph glyph-name="oslash" unicode="&#xf8;" horiz-adv-x="544" 
d="M158 -41q-23 -35 -55 -15l-30 18q-36 22 -15 55l29 47q-66 71 -66 186t68 188.5t183 73.5q45 0 87 -13l27 42q22 34 55 15l30 -17q37 -21 15 -55l-30 -47q67 -73 67 -187q0 -115 -68 -188.5t-183 -73.5q-44 0 -88 13zM151 250q0 -40 12 -65l120 192h-11q-54 0 -87.5 -31
t-33.5 -96zM272 123q54 0 87.5 31t33.5 96q0 40 -12 65l-120 -192h11z" />
    <glyph glyph-name="ugrave" unicode="&#xf9;" horiz-adv-x="549" 
d="M236 568q-29 0 -60 40l-78 99q-13 17 -11 28.5t22 11.5h101q40 0 55 -33l48 -106q17 -40 -20 -40h-57zM364 40v35q-27 -42 -70 -64.5t-87 -22.5q-77 0 -123 52t-46 156v264q0 40 40 40h60q40 0 40 -40v-219q0 -108 77 -108q51 0 80 33t29 100v234q0 40 40 40h60
q40 0 40 -40v-460q0 -40 -40 -40h-60q-40 0 -40 40z" />
    <glyph glyph-name="uacute" unicode="&#xfa;" horiz-adv-x="549" 
d="M341 608q-31 -40 -60 -40h-57q-37 0 -20 40l48 106q15 33 55 33h101q20 0 22 -11.5t-11 -28.5zM364 40v35q-27 -42 -70 -64.5t-87 -22.5q-77 0 -123 52t-46 156v264q0 40 40 40h60q40 0 40 -40v-219q0 -108 77 -108q51 0 80 33t29 100v234q0 40 40 40h60q40 0 40 -40
v-460q0 -40 -40 -40h-60q-40 0 -40 40z" />
    <glyph glyph-name="ucircumflex" unicode="&#xfb;" horiz-adv-x="549" 
d="M320 747q34 0 55 -33l68 -106q11 -16 5.5 -28t-25.5 -12h-47q-30 0 -49 23l-52 67l-53 -67q-19 -23 -49 -23h-48q-20 0 -25.5 12t5.5 28l68 106q21 33 55 33h92zM364 40v35q-27 -42 -70 -64.5t-87 -22.5q-77 0 -123 52t-46 156v264q0 40 40 40h60q40 0 40 -40v-219
q0 -108 77 -108q51 0 80 33t29 100v234q0 40 40 40h60q40 0 40 -40v-460q0 -40 -40 -40h-60q-40 0 -40 40z" />
    <glyph glyph-name="udieresis" unicode="&#xfc;" horiz-adv-x="549" 
d="M379 578q-32 0 -54.5 22.5t-22.5 54.5q0 31 23 54t54 23t54 -23t23 -54q0 -32 -22.5 -54.5t-54.5 -22.5zM169 578q-32 0 -54.5 22.5t-22.5 54.5q0 31 23 54t54 23t54 -23t23 -54q0 -32 -22.5 -54.5t-54.5 -22.5zM364 40v35q-27 -42 -70 -64.5t-87 -22.5q-77 0 -123 52
t-46 156v264q0 40 40 40h60q40 0 40 -40v-219q0 -108 77 -108q51 0 80 33t29 100v234q0 40 40 40h60q40 0 40 -40v-460q0 -40 -40 -40h-60q-40 0 -40 40z" />
    <glyph glyph-name="yacute" unicode="&#xfd;" horiz-adv-x="549" 
d="M371 608q-31 -40 -60 -40h-57q-37 0 -20 40l48 106q15 33 55 33h101q20 0 22 -11.5t-11 -28.5zM270 -210q-129 0 -200 57q-11 13 -11 19.5t7 22.5l24 60q9 23 16 29t21 -1q76 -42 141 -42q96 0 96 88v72q-27 -42 -70 -64.5t-87 -22.5q-77 0 -123 52t-46 156v264
q0 40 40 40h60q40 0 40 -40v-219q0 -108 77 -108q51 0 80 33t29 100v174q0 40 40 40h60q40 0 40 -40v-451q0 -112 -64.5 -165.5t-169.5 -53.5z" />
    <glyph glyph-name="thorn" unicode="&#xfe;" horiz-adv-x="557" 
d="M185 -170q0 -40 -40 -40h-60q-40 0 -40 40v850q0 40 40 40h60q40 0 40 -40v-237q54 57 140 57q89 0 150 -71t61 -185q0 -115 -71.5 -185.5t-179.5 -70.5q-51 0 -100 12v-170zM285 132q50 0 80.5 29t30.5 83q0 49 -27.5 80t-72.5 31q-53 0 -82 -34.5t-29 -98.5v-75
q45 -15 100 -15z" />
    <glyph glyph-name="ydieresis" unicode="&#xff;" horiz-adv-x="549" 
d="M399 578q-32 0 -54.5 22.5t-22.5 54.5q0 31 23 54t54 23t54 -23t23 -54q0 -32 -22.5 -54.5t-54.5 -22.5zM189 578q-32 0 -54.5 22.5t-22.5 54.5q0 31 23 54t54 23t54 -23t23 -54q0 -32 -22.5 -54.5t-54.5 -22.5zM270 -210q-129 0 -200 57q-11 13 -11 19.5t7 22.5l24 60
q9 23 16 29t21 -1q76 -42 141 -42q96 0 96 88v72q-27 -42 -70 -64.5t-87 -22.5q-77 0 -123 52t-46 156v264q0 40 40 40h60q40 0 40 -40v-219q0 -108 77 -108q51 0 80 33t29 100v174q0 40 40 40h60q40 0 40 -40v-451q0 -112 -64.5 -165.5t-169.5 -53.5z" />
    <glyph glyph-name="Amacron" unicode="&#x100;" horiz-adv-x="676" 
d="M410 863q40 0 40 -40v-35q0 -40 -40 -40h-230q-40 0 -40 40v35q0 40 40 40h230zM168 11q-9 -30 -22.5 -37.5t-40.5 -2.5l-59 12q-27 6 -32.5 18.5t4.5 39.5l193 589q9 25 18.5 32.5t29.5 7.5h86q8 0 12 -0.5t7.5 -4t5 -6t5.5 -12.5t8 -17l274 -571q13 -27 6.5 -40
t-34.5 -18l-54 -10q-29 -5 -41 1.5t-27 38.5l-44 96h-259zM406 252l-98 214l-66 -214h164z" />
    <glyph glyph-name="amacron" unicode="&#x101;" horiz-adv-x="508" 
d="M364 683q40 0 40 -40v-35q0 -40 -40 -40h-230q-40 0 -40 40v35q0 40 40 40h230zM441 -30h-80q-30 0 -30 30v43q-49 -47 -122 -54q-6 -1 -17 -1q-77 0 -125.5 47t-48.5 118t48 117t146 46q57 0 119 -26q-1 7 -3 19q-17 73 -101 73q-56 0 -118 -38q-21 -13 -37 18l-14 29
l-15 29q-3 6 -7 16q-3 16 11 26q76 60 196 60q105 0 166.5 -61.5t61.5 -167.5v-293q0 -10 -3 -17q-7 -13 -27 -13zM227 113q33 0 62 12.5t38 33.5q4 8 4 18v4q-52 20 -104 20q-69 0 -69 -44q0 -20 20 -32t49 -12z" />
    <glyph glyph-name="Abreve" unicode="&#x102;" horiz-adv-x="676" 
d="M298 843q53 0 60 50q5 34 44 34h12q49 0 49 -50q0 -59 -43.5 -94t-121.5 -35t-121.5 35t-43.5 94q0 50 49 50h12q39 0 44 -34q7 -50 60 -50zM168 11q-9 -30 -22.5 -37.5t-40.5 -2.5l-59 12q-27 6 -32.5 18.5t4.5 39.5l193 589q9 25 18.5 32.5t29.5 7.5h86q8 0 12 -0.5
t7.5 -4t5 -6t5.5 -12.5t8 -17l274 -571q13 -27 6.5 -40t-34.5 -18l-54 -10q-29 -5 -41 1.5t-27 38.5l-44 96h-259zM406 252l-98 214l-66 -214h164z" />
    <glyph glyph-name="abreve" unicode="&#x103;" horiz-adv-x="508" 
d="M254 663q53 0 60 50q5 34 44 34h12q49 0 49 -50q0 -59 -43.5 -94t-121.5 -35t-121.5 35t-43.5 94q0 50 49 50h12q39 0 44 -34q7 -50 60 -50zM441 -30h-80q-30 0 -30 30v43q-49 -47 -122 -54q-6 -1 -17 -1q-77 0 -125.5 47t-48.5 118t48 117t146 46q57 0 119 -26
q-1 7 -3 19q-17 73 -101 73q-56 0 -118 -38q-21 -13 -37 18l-14 29l-15 29q-3 6 -7 16q-3 16 11 26q76 60 196 60q105 0 166.5 -61.5t61.5 -167.5v-293q0 -10 -3 -17q-7 -13 -27 -13zM227 113q33 0 62 12.5t38 33.5q4 8 4 18v4q-52 20 -104 20q-69 0 -69 -44q0 -20 20 -32
t49 -12z" />
    <glyph glyph-name="Aogonek" unicode="&#x104;" horiz-adv-x="676" 
d="M575 -210q-51 0 -87.5 27t-36.5 77q0 72 76 116l-57 117h-266l-36 -116q-9 -30 -22.5 -37.5t-40.5 -2.5l-59 12q-27 6 -32.5 18.5t4.5 39.5l193 589q9 25 18.5 32.5t29.5 7.5h76q19 0 27 -6.5t21 -33.5l274 -571q12 -27 6 -39.5t-34 -18.5l-18 -4q-27 -6 -42 -22.5
t-15 -37.5q0 -19 14.5 -27.5t30.5 -8.5q24 0 49 14q6 4 13 0.5t9 -11.5l14 -61q5 -23 -11 -30q-48 -23 -98 -23zM408 252l-100 215l-68 -215h168z" />
    <glyph glyph-name="aogonek" unicode="&#x105;" horiz-adv-x="508" 
d="M483 -227q-42 -30 -113 -30q-46 0 -82 26t-36 80q0 39 22.5 70t59.5 49q-3 6 -3 15v60q-57 -55 -139 -55q-77 0 -125.5 47t-48.5 118t48 117t146 46q57 0 119 -26v3q0 40 -29.5 64.5t-74.5 24.5q-56 0 -118 -38q-21 -13 -37 18l-29 58q-15 28 4 42q76 60 196 60
q105 0 166.5 -61.5t61.5 -167.5v-310q0 -30 -30 -30q-41 0 -63.5 -18t-22.5 -45q0 -17 13 -26.5t29 -9.5q25 0 51 14q6 3 13 0t9 -11l15 -59q6 -19 -2 -25zM227 113q39 0 71.5 17.5t32.5 46.5v4q-52 20 -104 20q-69 0 -69 -44q0 -20 20 -32t49 -12z" />
    <glyph glyph-name="Cacute" unicode="&#x106;" horiz-adv-x="605" 
d="M430 788q-31 -40 -60 -40h-57q-37 0 -20 40l48 106q15 33 55 33h101q20 0 22 -11.5t-11 -28.5zM360 138q67 0 146 36q32 14 43 -15l30 -74q11 -26 -6 -37q-100 -60 -215 -60q-150 0 -240 94.5t-90 252.5q0 157 90.5 252t241.5 95q115 0 213 -60q17 -11 6 -37l-30 -74
q-11 -29 -43 -15q-79 36 -146 36q-89 0 -138 -55t-49 -142q0 -88 48.5 -142.5t138.5 -54.5z" />
    <glyph glyph-name="cacute" unicode="&#x107;" horiz-adv-x="484" 
d="M349 608q-31 -40 -60 -40h-57q-37 0 -20 40l48 106q15 33 55 33h101q20 0 22 -11.5t-11 -28.5zM161 243q0 -110 109 -110q59 0 125 38q22 13 37 -18l28 -63q13 -28 -4 -42q-36 -28 -86.5 -44t-100.5 -16q-113 0 -180.5 69.5t-67.5 185.5t68 186.5t180 70.5
q50 0 100.5 -16t86.5 -44q17 -14 4 -42l-28 -63q-15 -31 -37 -18q-66 38 -125 38q-52 0 -80.5 -28.5t-28.5 -83.5z" />
    <glyph glyph-name="Ccircumflex" unicode="&#x108;" horiz-adv-x="605" 
d="M399 927q34 0 55 -33l68 -106q11 -16 5.5 -28t-25.5 -12h-47q-30 0 -49 23l-52 67l-53 -67q-19 -23 -49 -23h-48q-20 0 -25.5 12t5.5 28l68 106q21 33 55 33h92zM360 138q67 0 146 36q32 14 43 -15l30 -74q11 -26 -6 -37q-100 -60 -215 -60q-150 0 -240 94.5t-90 252.5
q0 157 90.5 252t241.5 95q115 0 213 -60q17 -11 6 -37l-30 -74q-11 -29 -43 -15q-79 36 -146 36q-89 0 -138 -55t-49 -142q0 -88 48.5 -142.5t138.5 -54.5z" />
    <glyph glyph-name="ccircumflex" unicode="&#x109;" horiz-adv-x="484" 
d="M318 747q34 0 55 -33l68 -106q11 -16 5.5 -28t-25.5 -12h-47q-30 0 -49 23l-52 67l-53 -67q-19 -23 -49 -23h-48q-20 0 -25.5 12t5.5 28l68 106q21 33 55 33h92zM161 243q0 -110 109 -110q59 0 125 38q22 13 37 -18l28 -63q13 -28 -4 -42q-36 -28 -86.5 -44t-100.5 -16
q-113 0 -180.5 69.5t-67.5 185.5t68 186.5t180 70.5q50 0 100.5 -16t86.5 -44q17 -14 4 -42l-28 -63q-15 -31 -37 -18q-66 38 -125 38q-52 0 -80.5 -28.5t-28.5 -83.5z" />
    <glyph glyph-name="Cdotaccent" unicode="&#x10a;" horiz-adv-x="605" 
d="M353 743q-38 0 -66 28t-28 67q0 38 28 66t66 28t66 -28t28 -66q0 -39 -28 -67t-66 -28zM360 138q67 0 146 36q32 14 43 -15l30 -74q11 -26 -6 -37q-100 -60 -215 -60q-150 0 -240 94.5t-90 252.5q0 157 90.5 252t241.5 95q115 0 213 -60q17 -11 6 -37l-30 -74
q-11 -29 -43 -15q-79 36 -146 36q-89 0 -138 -55t-49 -142q0 -88 48.5 -142.5t138.5 -54.5z" />
    <glyph glyph-name="cdotaccent" unicode="&#x10b;" horiz-adv-x="484" 
d="M272 563q-38 0 -66 28t-28 67q0 38 28 66t66 28t66 -28t28 -66q0 -39 -28 -67t-66 -28zM161 243q0 -110 109 -110q59 0 125 38q22 13 37 -18l28 -63q13 -28 -4 -42q-36 -28 -86.5 -44t-100.5 -16q-113 0 -180.5 69.5t-67.5 185.5t68 186.5t180 70.5q50 0 100.5 -16
t86.5 -44q17 -14 4 -42l-28 -63q-15 -31 -37 -18q-66 38 -125 38q-52 0 -80.5 -28.5t-28.5 -83.5z" />
    <glyph glyph-name="Ccaron" unicode="&#x10c;" horiz-adv-x="605" 
d="M307 748q-34 0 -55 33l-68 106q-11 17 -5.5 28.5t25.5 11.5h47q30 0 49 -23l52 -67l53 67q19 23 49 23h48q20 0 25.5 -11.5t-5.5 -28.5l-68 -106q-21 -33 -55 -33h-92zM360 138q67 0 146 36q32 14 43 -15l30 -74q11 -26 -6 -37q-100 -60 -215 -60q-150 0 -240 94.5
t-90 252.5q0 157 90.5 252t241.5 95q115 0 213 -60q17 -11 6 -37l-30 -74q-11 -29 -43 -15q-79 36 -146 36q-89 0 -138 -55t-49 -142q0 -88 48.5 -142.5t138.5 -54.5z" />
    <glyph glyph-name="ccaron" unicode="&#x10d;" horiz-adv-x="484" 
d="M216 568q-34 0 -55 33l-68 106q-11 17 -5.5 28.5t25.5 11.5h47q30 0 49 -23l52 -67l53 67q19 23 49 23h48q20 0 25.5 -11.5t-5.5 -28.5l-68 -106q-21 -33 -55 -33h-92zM161 243q0 -110 109 -110q59 0 125 38q22 13 37 -18l28 -63q13 -28 -4 -42q-36 -28 -86.5 -44
t-100.5 -16q-113 0 -180.5 69.5t-67.5 185.5t68 186.5t180 70.5q50 0 100.5 -16t86.5 -44q17 -14 4 -42l-28 -63q-15 -31 -37 -18q-66 38 -125 38q-52 0 -80.5 -28.5t-28.5 -83.5z" />
    <glyph glyph-name="Dcaron" unicode="&#x10e;" horiz-adv-x="650" 
d="M259 748q-34 0 -55 33l-68 106q-11 17 -5.5 28.5t25.5 11.5h47q30 0 49 -23l52 -67l53 67q19 23 49 23h48q20 0 25.5 -11.5t-5.5 -28.5l-68 -106q-21 -33 -55 -33h-92zM100 0q-20 -2 -30 8.5t-10 31.5v590q0 40 40 40h158q169 0 267.5 -77t98.5 -243q0 -80 -29 -142
t-81 -101t-116.5 -61.5t-141.5 -29.5l-88 -9h-3zM262 520h-57v-359l55 5q94 10 156.5 56.5t62.5 127.5q0 91 -60.5 130.5t-156.5 39.5z" />
    <glyph glyph-name="dcaron" unicode="&#x10f;" horiz-adv-x="557" 
d="M472 -20h-60q-40 0 -40 40v37q-54 -57 -140 -57q-89 0 -150 71t-61 185q0 115 71.5 185.5t179.5 70.5q50 0 100 -12v180q0 40 40 40h60q40 0 40 -40v-660q0 -40 -40 -40zM684 581q-6 -24 -17 -32t-33 -8h-42q-18 0 -24 8.5t-6 31.5v106q0 20 7 26.5t28 6.5h91q19 0 23 -8
t-2 -32zM261 145q53 0 82 34.5t29 98.5v75q-45 15 -100 15q-50 0 -80.5 -29t-30.5 -83q0 -49 27.5 -80t72.5 -31z" />
    <glyph glyph-name="Dcroat" unicode="&#x110;" horiz-adv-x="702" 
d="M152 0q-20 -2 -30 8.5t-10 31.5v231h-58q-39 0 -39 39v61q0 40 40 40h57v219q0 40 40 40h158q169 0 267.5 -77t98.5 -243q0 -80 -29 -142t-81 -101t-116.5 -61.5t-141.5 -29.5l-88 -9h-3zM361 271h-104v-110l55 5q94 10 156.5 56.5t62.5 127.5q0 91 -60.5 130.5
t-156.5 39.5h-57v-109h103q40 0 40 -40v-61q0 -39 -39 -39z" />
    <glyph glyph-name="dcroat" unicode="&#x111;" horiz-adv-x="557" 
d="M472 -40h-60q-40 0 -40 40v57q-54 -57 -140 -57q-89 0 -150 71t-61 185q0 115 71.5 185.5t179.5 70.5q50 0 100 -12v55h-110q-40 0 -40 40v35q0 40 40 40h110v37q0 40 40 40h60q40 0 40 -40v-37h20q40 0 40 -40v-35q0 -40 -40 -40h-20v-555q0 -40 -40 -40zM261 145
q53 0 82 34.5t29 98.5v75q-45 15 -100 15q-50 0 -80.5 -29t-30.5 -83q0 -49 27.5 -80t72.5 -31z" />
    <glyph glyph-name="Emacron" unicode="&#x112;" horiz-adv-x="526" 
d="M393 863q40 0 40 -40v-35q0 -40 -40 -40h-230q-40 0 -40 40v35q0 40 40 40h230zM90 0q-41 0 -40 40l20 590q1 40 40 40h345q40 0 40 -40v-61q0 -39 -39 -39h-249l-5 -128l213 14q40 3 40 -40v-61q0 -36 -39 -39l-218 -15l-5 -121h262q40 0 40 -40v-61q0 -39 -39 -39h-366
z" />
    <glyph glyph-name="emacron" unicode="&#x113;" horiz-adv-x="504" 
d="M380 683q40 0 40 -40v-35q0 -40 -40 -40h-230q-40 0 -40 40v35q0 40 40 40h230zM283 -12q-119 0 -190.5 72.5t-71.5 189.5q0 113 65.5 187.5t185.5 74.5q97 0 156.5 -61t59.5 -165q0 -32 -7 -45t-32 -16l-279 -32q34 -75 132 -75q40 0 115 42q11 7 21.5 1.5t15.5 -19.5
l20 -52q7 -18 7 -23.5t-11 -18.5q-36 -28 -86.5 -44t-100.5 -16zM262 382q-81 0 -98 -81l180 21q-7 27 -28.5 43.5t-53.5 16.5z" />
    <glyph glyph-name="Ebreve" unicode="&#x114;" horiz-adv-x="526" 
d="M283 843q53 0 60 50q5 34 44 34h12q49 0 49 -50q0 -59 -43.5 -94t-121.5 -35t-121.5 35t-43.5 94q0 50 49 50h12q39 0 44 -34q7 -50 60 -50zM90 0q-41 0 -40 40l20 590q1 40 40 40h345q40 0 40 -40v-61q0 -39 -39 -39h-249l-5 -128l213 14q40 3 40 -40v-61q0 -36 -39 -39
l-218 -15l-5 -121h262q40 0 40 -40v-61q0 -39 -39 -39h-366z" />
    <glyph glyph-name="ebreve" unicode="&#x115;" horiz-adv-x="504" 
d="M265 663q53 0 60 50q5 34 44 34h12q49 0 49 -50q0 -59 -43.5 -94t-121.5 -35t-121.5 35t-43.5 94q0 50 49 50h12q39 0 44 -34q7 -50 60 -50zM283 -12q-119 0 -190.5 72.5t-71.5 189.5q0 113 65.5 187.5t185.5 74.5q97 0 156.5 -61t59.5 -165q0 -32 -7 -45t-32 -16
l-279 -32q34 -75 132 -75q40 0 115 42q11 7 21.5 1.5t15.5 -19.5l20 -52q7 -18 7 -23.5t-11 -18.5q-36 -28 -86.5 -44t-100.5 -16zM262 382q-81 0 -98 -81l180 21q-7 27 -28.5 43.5t-53.5 16.5z" />
    <glyph glyph-name="Edotaccent" unicode="&#x116;" horiz-adv-x="526" 
d="M283 743q-38 0 -66 28t-28 67q0 38 28 66t66 28t66 -28t28 -66q0 -39 -28 -67t-66 -28zM90 0q-41 0 -40 40l20 590q1 40 40 40h345q40 0 40 -40v-61q0 -39 -39 -39h-249l-5 -128l213 14q40 3 40 -40v-61q0 -36 -39 -39l-218 -15l-5 -121h262q40 0 40 -40v-61
q0 -39 -39 -39h-366z" />
    <glyph glyph-name="edotaccent" unicode="&#x117;" horiz-adv-x="504" 
d="M255 563q-38 0 -66 28t-28 67q0 38 28 66t66 28t66 -28t28 -66q0 -39 -28 -67t-66 -28zM283 -12q-119 0 -190.5 72.5t-71.5 189.5q0 113 65.5 187.5t185.5 74.5q97 0 156.5 -61t59.5 -165q0 -32 -7 -45t-32 -16l-279 -32q34 -75 132 -75q40 0 115 42q11 7 21.5 1.5
t15.5 -19.5l20 -52q7 -18 7 -23.5t-11 -18.5q-36 -28 -86.5 -44t-100.5 -16zM262 382q-81 0 -98 -81l180 21q-7 27 -28.5 43.5t-53.5 16.5z" />
    <glyph glyph-name="Eogonek" unicode="&#x118;" horiz-adv-x="526" 
d="M498 -180q-42 -30 -113 -30q-46 0 -82 26t-36 80q0 65 62 104h-239q-31 0 -38 22q-2 5 -2 18l20 590q1 40 40 40h345q8 0 18 -2q22 -7 22 -38v-61q0 -39 -39 -39h-249l-5 -128l213 14q40 3 40 -40v-61q0 -36 -39 -39l-218 -15l-5 -121h262q8 0 18 -2q22 -7 22 -38v-61
q0 -30 -22 -37q-10 -2 -17 -2q-41 0 -63.5 -18t-22.5 -45q0 -17 13 -26.5t29 -9.5q25 0 51 14q6 3 13 0t9 -11l15 -59q6 -19 -2 -25z" />
    <glyph glyph-name="eogonek" unicode="&#x119;" horiz-adv-x="504" 
d="M315 -210q-50 0 -85.5 27.5t-35.5 78.5q0 56 47 95q-101 13 -160.5 83t-59.5 176q0 113 65.5 187.5t185.5 74.5q97 0 156.5 -61t59.5 -165q0 -32 -7 -45t-32 -16l-279 -32q34 -75 132 -75q40 0 115 42q11 7 21.5 1.5t15.5 -19.5l20 -52q7 -18 7 -23.5t-11 -18.5
q-48 -40 -122 -53q-50 -16 -50 -56q0 -19 13 -28.5t30 -9.5q24 0 49 14q7 4 14 0.5t9 -11.5l15 -59q5 -20 -5 -27q-44 -28 -108 -28zM262 382q-81 0 -98 -81l180 21q-7 27 -28.5 43.5t-53.5 16.5z" />
    <glyph glyph-name="Ecaron" unicode="&#x11a;" horiz-adv-x="526" 
d="M237 748q-34 0 -55 33l-68 106q-11 17 -5.5 28.5t25.5 11.5h47q30 0 49 -23l52 -67l53 67q19 23 49 23h48q20 0 25.5 -11.5t-5.5 -28.5l-68 -106q-21 -33 -55 -33h-92zM90 0q-41 0 -40 40l20 590q1 40 40 40h345q40 0 40 -40v-61q0 -39 -39 -39h-249l-5 -128l213 14
q40 3 40 -40v-61q0 -36 -39 -39l-218 -15l-5 -121h262q40 0 40 -40v-61q0 -39 -39 -39h-366z" />
    <glyph glyph-name="ecaron" unicode="&#x11b;" horiz-adv-x="504" 
d="M219 568q-34 0 -55 33l-68 106q-11 17 -5.5 28.5t25.5 11.5h47q30 0 49 -23l52 -67l53 67q19 23 49 23h48q20 0 25.5 -11.5t-5.5 -28.5l-68 -106q-21 -33 -55 -33h-92zM283 -12q-119 0 -190.5 72.5t-71.5 189.5q0 113 65.5 187.5t185.5 74.5q97 0 156.5 -61t59.5 -165
q0 -32 -7 -45t-32 -16l-279 -32q34 -75 132 -75q40 0 115 42q11 7 21.5 1.5t15.5 -19.5l20 -52q7 -18 7 -23.5t-11 -18.5q-36 -28 -86.5 -44t-100.5 -16zM262 382q-81 0 -98 -81l180 21q-7 27 -28.5 43.5t-53.5 16.5z" />
    <glyph glyph-name="Gcircumflex" unicode="&#x11c;" horiz-adv-x="665" 
d="M409 927q34 0 55 -33l68 -106q11 -16 5.5 -28t-25.5 -12h-47q-30 0 -49 23l-52 67l-53 -67q-19 -23 -49 -23h-48q-20 0 -25.5 12t5.5 28l68 106q21 33 55 33h92zM611 -20q0 -38 -41 -38h-65q-39 0 -39 41v43q-52 -26 -115 -26q-148 0 -235.5 93.5t-87.5 251.5
q0 152 92 244.5t245 92.5q121 0 218 -60q17 -11 6 -37l-30 -74q-11 -29 -43 -15q-82 36 -151 36q-92 0 -142 -52t-50 -135q0 -93 52 -149t152 -56q51 0 89 14v87l-105 -5q-12 0 -17 2q-22 7 -22 37v66q0 39 40 40l209 10q13 0 18 -2q22 -7 22 -38v-371z" />
    <glyph glyph-name="gcircumflex" unicode="&#x11d;" horiz-adv-x="556" 
d="M304 747q34 0 55 -33l68 -106q11 -16 5.5 -28t-25.5 -12h-47q-30 0 -49 23l-52 67l-53 -67q-19 -23 -49 -23h-48q-20 0 -25.5 12t5.5 28l68 106q21 33 55 33h92zM277 -210q-129 0 -200 57q-11 13 -11 19.5t7 22.5l24 60q14 32 37 18q59 -32 141 -32q96 0 96 88v54
q-54 -57 -140 -57q-89 0 -150 65.5t-61 170.5q0 115 71.5 185.5t179.5 70.5q51 0 100 -12v10q0 40 40 40h60q40 0 40 -40v-501q0 -112 -64.5 -165.5t-169.5 -53.5zM260 165q53 0 82 34.5t29 98.5v55q-45 15 -100 15q-50 0 -80.5 -29t-30.5 -83q0 -40 27.5 -65.5t72.5 -25.5z
" />
    <glyph glyph-name="Gbreve" unicode="&#x11e;" horiz-adv-x="665" 
d="M353 843q53 0 60 50q5 34 44 34h12q49 0 49 -50q0 -59 -43.5 -94t-121.5 -35t-121.5 35t-43.5 94q0 50 49 50h12q39 0 44 -34q7 -50 60 -50zM611 -20q0 -38 -41 -38h-65q-39 0 -39 41v43q-52 -26 -115 -26q-148 0 -235.5 93.5t-87.5 251.5q0 152 92 244.5t245 92.5
q121 0 218 -60q17 -11 6 -37l-30 -74q-11 -29 -43 -15q-82 36 -151 36q-92 0 -142 -52t-50 -135q0 -93 52 -149t152 -56q51 0 89 14v87l-105 -5q-12 0 -17 2q-22 7 -22 37v66q0 39 40 40l209 10q13 0 18 -2q22 -7 22 -38v-371z" />
    <glyph glyph-name="gbreve" unicode="&#x11f;" horiz-adv-x="556" 
d="M274 663q53 0 60 50q5 34 44 34h12q49 0 49 -50q0 -59 -43.5 -94t-121.5 -35t-121.5 35t-43.5 94q0 50 49 50h12q39 0 44 -34q7 -50 60 -50zM277 -210q-129 0 -200 57q-11 13 -11 19.5t7 22.5l24 60q14 32 37 18q59 -32 141 -32q96 0 96 88v54q-54 -57 -140 -57
q-89 0 -150 65.5t-61 170.5q0 115 71.5 185.5t179.5 70.5q51 0 100 -12v10q0 40 40 40h60q40 0 40 -40v-501q0 -112 -64.5 -165.5t-169.5 -53.5zM260 165q53 0 82 34.5t29 98.5v55q-45 15 -100 15q-50 0 -80.5 -29t-30.5 -83q0 -40 27.5 -65.5t72.5 -25.5z" />
    <glyph glyph-name="Gdotaccent" unicode="&#x120;" horiz-adv-x="665" 
d="M373 743q-38 0 -66 28t-28 67q0 38 28 66t66 28t66 -28t28 -66q0 -39 -28 -67t-66 -28zM611 -20q0 -38 -41 -38h-65q-39 0 -39 41v43q-52 -26 -115 -26q-148 0 -235.5 93.5t-87.5 251.5q0 152 92 244.5t245 92.5q121 0 218 -60q17 -11 6 -37l-30 -74q-11 -29 -43 -15
q-82 36 -151 36q-92 0 -142 -52t-50 -135q0 -93 52 -149t152 -56q51 0 89 14v87l-105 -5q-12 0 -17 2q-22 7 -22 37v66q0 39 40 40l209 10q13 0 18 -2q22 -7 22 -38v-371z" />
    <glyph glyph-name="gdotaccent" unicode="&#x121;" horiz-adv-x="556" 
d="M258 563q-38 0 -66 28t-28 67q0 38 28 66t66 28t66 -28t28 -66q0 -39 -28 -67t-66 -28zM277 -210q-129 0 -200 57q-11 13 -11 19.5t7 22.5l24 60q14 32 37 18q59 -32 141 -32q96 0 96 88v54q-54 -57 -140 -57q-89 0 -150 65.5t-61 170.5q0 115 71.5 185.5t179.5 70.5
q51 0 100 -12v10q0 40 40 40h60q40 0 40 -40v-501q0 -112 -64.5 -165.5t-169.5 -53.5zM260 165q53 0 82 34.5t29 98.5v55q-45 15 -100 15q-50 0 -80.5 -29t-30.5 -83q0 -40 27.5 -65.5t72.5 -25.5z" />
    <glyph glyph-name="Gcommaaccent" unicode="&#x122;" horiz-adv-x="665" 
d="M611 -20q0 -38 -41 -38h-65q-39 0 -39 41v43q-52 -26 -115 -26q-148 0 -235.5 93.5t-87.5 251.5q0 152 92 244.5t245 92.5q121 0 218 -60q17 -11 6 -37l-30 -74q-11 -29 -43 -15q-82 36 -151 36q-92 0 -142 -52t-50 -135q0 -93 52 -149t152 -56q51 0 89 14v87l-105 -5
q-12 0 -17 2q-22 7 -22 37v66q0 39 40 40l209 10q13 0 18 -2q22 -7 22 -38v-371zM327 -218q-13 -23 -24 -31.5t-31 -8.5h-52q-22 0 -29 9t-1 31l29 106q6 20 17 26.5t38 6.5h86q43 0 21 -40z" />
    <glyph glyph-name="gcommaaccent" unicode="&#x123;" horiz-adv-x="556" 
d="M234 707q13 23 25.5 31.5t34.5 8.5h57q23 0 30 -9t0 -31l-34 -106q-7 -20 -17 -26.5t-33 -6.5h-96q-43 0 -21 40zM277 -210q-129 0 -200 57q-11 13 -11 19.5t7 22.5l24 60q14 32 37 18q59 -32 141 -32q96 0 96 88v54q-54 -57 -140 -57q-89 0 -150 65.5t-61 170.5
q0 115 71.5 185.5t179.5 70.5q51 0 100 -12v10q0 40 40 40h60q40 0 40 -40v-501q0 -112 -64.5 -165.5t-169.5 -53.5zM260 165q53 0 82 34.5t29 98.5v55q-45 15 -100 15q-50 0 -80.5 -29t-30.5 -83q0 -40 27.5 -65.5t72.5 -25.5z" />
    <glyph glyph-name="Hcircumflex" unicode="&#x124;" horiz-adv-x="664" 
d="M378 927q34 0 55 -33l68 -106q11 -16 5.5 -28t-25.5 -12h-47q-30 0 -49 23l-52 67l-53 -67q-19 -23 -49 -23h-48q-20 0 -25.5 12t5.5 28l68 106q21 33 55 33h92zM564 -20h-65q-40 0 -40 40v253l-254 -18v-215q0 -40 -40 -40h-65q-40 0 -40 40v610q0 40 40 40h65
q40 0 40 -40v-250l254 18v212q0 40 40 40h65q40 0 40 -40v-610q0 -40 -40 -40z" />
    <glyph glyph-name="hcircumflex" unicode="&#x125;" horiz-adv-x="549" 
d="M161 926q34 0 55 -33l68 -106q11 -17 5.5 -28.5t-25.5 -11.5h-47q-30 0 -49 23l-52 67l-53 -67q-19 -23 -49 -23h-48q-20 0 -25.5 11.5t5.5 28.5l68 106q21 33 55 33h92zM185 40q0 -40 -40 -40h-60q-40 0 -40 40v620q0 40 40 40h60q40 0 40 -40v-235q27 42 70 64.5
t87 22.5q77 0 123 -52t46 -156v-284q0 -40 -40 -40h-60q-40 0 -40 40v239q0 108 -77 108q-51 0 -80 -33t-29 -100v-194z" />
    <glyph glyph-name="Hbar" unicode="&#x126;" horiz-adv-x="664" 
d="M564 -20h-65q-40 0 -40 40v253l-254 -18v-215q0 -40 -40 -40h-65q-40 0 -40 40v414l-20 -1q-40 -3 -40 40v35q0 37 40 40l20 1v81q0 40 40 40h65q40 0 40 -40v-71l254 18v33q0 40 40 40h65q40 0 40 -40v-23l20 1q40 3 40 -40v-35q0 -37 -40 -40l-20 -1v-472
q0 -40 -40 -40zM205 400l254 18v64l-254 -18v-64z" />
    <glyph glyph-name="hbar" unicode="&#x127;" horiz-adv-x="549" 
d="M185 40q0 -40 -40 -40h-60q-40 0 -40 40v515h-20q-40 0 -40 40v35q0 40 40 40h20v37q0 40 40 40h60q40 0 40 -40v-37h110q40 0 40 -40v-35q0 -40 -40 -40h-110v-130q27 42 70 64.5t87 22.5q77 0 123 -52t46 -156v-284q0 -40 -40 -40h-60q-40 0 -40 40v239q0 108 -77 108
q-51 0 -80 -33t-29 -100v-194z" />
    <glyph glyph-name="Itilde" unicode="&#x128;" horiz-adv-x="265" 
d="M190 748q-19 0 -54.5 9t-54.5 9q-28 0 -66 -14q-39 -15 -39 24v49q0 32 30 43q35 13 68 13q22 0 57 -9t52 -9q28 0 66 14q39 15 39 -24v-49q0 -32 -30 -43q-35 -13 -68 -13zM205 20q0 -40 -40 -40h-65q-40 0 -40 40v630q0 40 40 40h65q40 0 40 -40v-630z" />
    <glyph glyph-name="itilde" unicode="&#x129;" horiz-adv-x="230" 
d="M173 568q-19 0 -54.5 9t-54.5 9q-28 0 -66 -14q-39 -15 -39 24v49q0 32 30 43q35 13 68 13q22 0 57 -9t52 -9q28 0 66 14q39 15 39 -24v-49q0 -32 -30 -43q-35 -13 -68 -13zM185 40q0 -40 -40 -40h-60q-40 0 -40 40v400q0 40 40 40h60q40 0 40 -40v-400z" />
    <glyph glyph-name="Imacron" unicode="&#x12a;" horiz-adv-x="265" 
d="M246 863q40 0 40 -40v-35q0 -40 -40 -40h-230q-40 0 -40 40v35q0 40 40 40h230zM205 20q0 -40 -40 -40h-65q-40 0 -40 40v630q0 40 40 40h65q40 0 40 -40v-630z" />
    <glyph glyph-name="imacron" unicode="&#x12b;" horiz-adv-x="230" 
d="M230 683q40 0 40 -40v-35q0 -40 -40 -40h-230q-40 0 -40 40v35q0 40 40 40h230zM185 40q0 -40 -40 -40h-60q-40 0 -40 40v400q0 40 40 40h60q40 0 40 -40v-400z" />
    <glyph glyph-name="Ibreve" unicode="&#x12c;" horiz-adv-x="265" 
d="M132 843q53 0 60 50q5 34 44 34h12q49 0 49 -50q0 -59 -43.5 -94t-121.5 -35t-121.5 35t-43.5 94q0 50 49 50h12q39 0 44 -34q7 -50 60 -50zM205 20q0 -40 -40 -40h-65q-40 0 -40 40v630q0 40 40 40h65q40 0 40 -40v-630z" />
    <glyph glyph-name="ibreve" unicode="&#x12d;" horiz-adv-x="230" 
d="M115 663q53 0 60 50q5 34 44 34h12q49 0 49 -50q0 -59 -43.5 -94t-121.5 -35t-121.5 35t-43.5 94q0 50 49 50h12q39 0 44 -34q7 -50 60 -50zM185 40q0 -40 -40 -40h-60q-40 0 -40 40v400q0 40 40 40h60q40 0 40 -40v-400z" />
    <glyph glyph-name="Iogonek" unicode="&#x12e;" horiz-adv-x="265" 
d="M212 -200q-42 -30 -113 -30q-46 0 -82 26t-36 80q0 40 23 71.5t61 49.5q-5 10 -5 23v630q0 8 2 18q7 22 38 22h65q31 0 38 -22q2 -10 2 -18v-630q0 -8 -2 -18q-7 -22 -38 -22q-39 0 -60 -18t-21 -45q0 -17 13 -26.5t29 -9.5q25 0 51 14q6 3 13 0t9 -11l15 -59
q6 -19 -2 -25z" />
    <glyph glyph-name="iogonek" unicode="&#x12f;" horiz-adv-x="230" 
d="M115 549q-35 0 -60 25.5t-25 60.5t25 60t60 25t60 -25t25 -60t-25 -60.5t-60 -25.5zM187 -180q-44 -30 -113 -30q-46 0 -82 26t-36 80q0 42 25.5 74.5t66.5 49.5q-3 8 -3 20v400q0 40 40 40h60q40 0 40 -40v-400q0 -40 -40 -40q-41 0 -63.5 -18t-22.5 -45q0 -17 13 -26.5
t29 -9.5q25 0 51 14q6 3 13 0t9 -11l4 -15l11 -44q6 -19 -2 -25z" />
    <glyph glyph-name="Idotaccent" unicode="&#x130;" horiz-adv-x="265" 
d="M132 743q-38 0 -66 28t-28 67q0 38 28 66t66 28t66 -28t28 -66q0 -39 -28 -67t-66 -28zM205 20q0 -40 -40 -40h-65q-40 0 -40 40v630q0 40 40 40h65q40 0 40 -40v-630z" />
    <glyph glyph-name="dotlessi" unicode="&#x131;" horiz-adv-x="228" 
d="M184 40q0 -40 -40 -40h-60q-40 0 -40 40v400q0 40 40 40h60q40 0 40 -40v-400z" />
    <glyph glyph-name="IJ" unicode="&#x132;" horiz-adv-x="838" 
d="M473 -12q-89 0 -185 55q-17 10 -6 37l30 74q12 30 43 15q63 -31 116 -31q45 0 68.5 32.5t23.5 111.5v257l-192 -9q-19 -1 -29 9t-10 30v61q0 39 40 40l414 20q20 1 30 -9.5t10 -30.5v-61q0 -37 -39 -39l-79 -4v-344q0 -107 -64.5 -160.5t-170.5 -53.5zM205 20
q0 -40 -40 -40h-65q-40 0 -40 40v630q0 40 40 40h65q40 0 40 -40v-630z" />
    <glyph glyph-name="ij" unicode="&#x133;" horiz-adv-x="456" 
d="M115 549q-35 0 -60 25.5t-25 60.5t25 60t60 25t60 -25t25 -60t-25 -60.5t-60 -25.5zM341 529q-35 0 -60 25.5t-25 60.5t25 60t60 25t60 -25t25 -60t-25 -60.5t-60 -25.5zM185 40q0 -40 -40 -40h-60q-40 0 -40 40v400q0 40 40 40h60q40 0 40 -40v-400zM210 -222
q-35 0 -75 11q-21 5 -27.5 15t0.5 28l28 74q9 27 32 23q32 -6 43 -6q31 0 45.5 21t14.5 77v409q0 30 30 30h80q30 0 30 -30v-433q0 -104 -49.5 -161.5t-151.5 -57.5z" />
    <glyph glyph-name="Jcircumflex" unicode="&#x134;" horiz-adv-x="573" 
d="M416 927q34 0 55 -33l68 -106q11 -16 5.5 -28t-25.5 -12h-47q-30 0 -49 23l-52 67l-53 -67q-19 -23 -49 -23h-48q-20 0 -25.5 12t5.5 28l68 106q21 33 55 33h92zM208 -12q-89 0 -185 55q-17 10 -6 37l30 74q12 30 43 15q63 -31 116 -31q45 0 68.5 32.5t23.5 111.5v257
l-192 -9q-19 -1 -29 9t-10 30v61q0 39 40 40l414 20q20 1 30 -9.5t10 -30.5v-61q0 -37 -39 -39l-79 -4v-344q0 -107 -64.5 -160.5t-170.5 -53.5z" />
    <glyph glyph-name="jcircumflex" unicode="&#x135;" horiz-adv-x="228" 
d="M158 747q34 0 55 -33l68 -106q11 -16 5.5 -28t-25.5 -12h-47q-30 0 -49 23l-52 67l-53 -67q-19 -23 -49 -23h-48q-20 0 -25.5 12t5.5 28l68 106q21 33 55 33h92zM-18 -222q-35 0 -75 11q-21 5 -27.5 15t0.5 28l28 74q9 27 32 23q32 -6 43 -6q31 0 45.5 21t14.5 77v449
q0 30 30 30h80q30 0 30 -30v-473q0 -104 -49.5 -161.5t-151.5 -57.5z" />
    <glyph glyph-name="Kcommaaccent" unicode="&#x136;" horiz-adv-x="617" 
d="M514 -9q-5 -1 -9.5 -1.5t-8 -1t-7 1t-5.5 1.5t-5 3l-4.5 4.5t-5 6t-5 7t-6.5 9.5t-7 10l-168 251l-78 -77v-165q0 -40 -40 -40h-65q-40 0 -40 40v570q0 40 40 40h65q40 0 40 -40v-208l266 263q29 29 57 4l44 -40q33 -30 6 -56l-195 -193q6 -10 14 -22l194 -299
q30 -45 -28 -58zM342 -218q-13 -23 -24 -31.5t-31 -8.5h-52q-22 0 -29 9t-1 31l29 106q6 20 17 26.5t38 6.5h86q43 0 21 -40z" />
    <glyph glyph-name="kcommaaccent" unicode="&#x137;" horiz-adv-x="504" 
d="M413 -10q-24 -5 -33 1.5t-27 36.5l-112 186l-56 -51v-123q0 -40 -40 -40h-60q-40 0 -40 40v620q0 40 40 40h60q40 0 40 -40v-305l177 163q30 27 54 3l46 -45q31 -31 6 -53l-128 -118l144 -250q27 -45 -27 -56zM296 -218q-13 -23 -24 -31.5t-31 -8.5h-52q-22 0 -29 9
t-1 31l29 106q6 20 17 26.5t38 6.5h86q43 0 21 -40z" />
    <glyph glyph-name="Lacute" unicode="&#x139;" horiz-adv-x="489" 
d="M221 788q-31 -40 -60 -40h-57q-37 0 -20 40l48 106q15 33 55 33h101q20 0 22 -11.5t-11 -28.5zM436 1l-336 19q-40 0 -40 39v571q0 40 40 40h65q40 0 40 -40v-476l230 -13q40 -3 40 -40v-61q0 -20 -10 -30t-29 -9z" />
    <glyph glyph-name="lacute" unicode="&#x13a;" horiz-adv-x="235" 
d="M204 807q-31 -40 -60 -40h-57q-37 0 -20 40l48 106q15 33 55 33h101q20 0 22 -12t-11 -28zM190 40q0 -40 -40 -40h-65q-40 0 -40 40v640q0 40 40 40h65q40 0 40 -40v-640z" />
    <glyph glyph-name="Lcommaaccent" unicode="&#x13b;" horiz-adv-x="489" 
d="M436 1l-336 19q-40 0 -40 39v571q0 40 40 40h65q40 0 40 -40v-476l230 -13q40 -3 40 -40v-61q0 -20 -10 -30t-29 -9zM288 -218q-13 -23 -24 -31.5t-31 -8.5h-52q-22 0 -29 9t-1 31l29 106q6 20 17 26.5t38 6.5h86q43 0 21 -40z" />
    <glyph glyph-name="lcommaaccent" unicode="&#x13c;" horiz-adv-x="235" 
d="M190 40q0 -40 -40 -40h-65q-40 0 -40 40v640q0 40 40 40h65q40 0 40 -40v-640zM131 -218q-13 -23 -24 -31.5t-31 -8.5h-52q-22 0 -29 9t-1 31l29 106q6 20 17 26.5t38 6.5h86q43 0 21 -40z" />
    <glyph glyph-name="Lcaron" unicode="&#x13d;" horiz-adv-x="489" 
d="M436 1l-336 19q-40 0 -40 39v571q0 40 40 40h65q40 0 40 -40v-476l230 -13q40 -3 40 -40v-61q0 -20 -10 -30t-29 -9zM366 531q-6 -24 -17 -32t-33 -8h-42q-18 0 -24 8.5t-6 31.5v106q0 20 7 26.5t28 6.5h91q19 0 23 -8t-2 -32z" />
    <glyph glyph-name="lcaron" unicode="&#x13e;" horiz-adv-x="235" 
d="M190 40q0 -40 -40 -40h-65q-40 0 -40 40v640q0 40 40 40h65q40 0 40 -40v-640zM352 581q-6 -24 -17 -32t-33 -8h-42q-18 0 -24 8.5t-6 31.5v106q0 20 7 26.5t28 6.5h91q19 0 23 -8t-2 -32z" />
    <glyph glyph-name="Ldot" unicode="&#x13f;" horiz-adv-x="489" 
d="M436 1l-336 19q-40 0 -40 39v571q0 40 40 40h65q40 0 40 -40v-476l230 -13q40 -3 40 -40v-61q0 -20 -10 -30t-29 -9zM376 259q-38 0 -66 28t-28 67q0 38 28 66t66 28t66 -28t28 -66q0 -39 -28 -67t-66 -28z" />
    <glyph glyph-name="ldot" unicode="&#x140;" horiz-adv-x="413" 
d="M190 40q0 -40 -40 -40h-65q-40 0 -40 40v640q0 40 40 40h65q40 0 40 -40v-640zM324 259q-38 0 -66 28t-28 67q0 38 28 66t66 28t66 -28t28 -66q0 -39 -28 -67t-66 -28z" />
    <glyph glyph-name="Lslash" unicode="&#x141;" horiz-adv-x="551" 
d="M498 1l-336 19q-31 0 -38 22q-2 4 -2 17q0 12 1 18l7 200l-76 -11q-19 -3 -29 8t-10 31v61q0 19 9.5 28t30.5 12l80 12l7 212q0 10 3 18q7 22 37 22h65q31 0 38 -22q2 -5 2 -18l-7 -190l110 16q20 3 30 -8t10 -32v-61q0 -19 -9.5 -27.5t-29.5 -11.5l-116 -17l-5 -148
l227 -10q11 0 18 -3q22 -7 22 -37v-61q0 -7 -2 -17q-8 -23 -37 -22z" />
    <glyph glyph-name="lslash" unicode="&#x142;" horiz-adv-x="385" 
d="M225 0h-65q-40 0 -40 40v238l-67 -12q-19 -4 -29 7.5t-10 31.5v61q0 19 9 27.5t31 12.5l66 12v262q0 40 40 40h65q40 0 40 -40v-236l66 12q20 4 30 -7.5t10 -32.5v-61q0 -19 -9 -27t-30 -12l-67 -12v-264q0 -40 -40 -40z" />
    <glyph glyph-name="Nacute" unicode="&#x143;" horiz-adv-x="679" 
d="M417 788q-31 -40 -60 -40h-57q-37 0 -20 40l48 106q15 33 55 33h101q20 0 22 -11.5t-11 -28.5zM205 20q0 -40 -40 -40h-65q-40 0 -40 40v590q0 40 40 40h65q15 0 22 -4l1 -1l1 -1h2l1 -1l4 -4l3 -3l1 -2l267 -399l27 395q3 40 40 40h65q43 0 40 -40l-40 -590
q-3 -40 -40 -40h-65q-21 0 -32 11q-1 1 -2.5 3t-2.5 3l-252 376v-373z" />
    <glyph glyph-name="nacute" unicode="&#x144;" horiz-adv-x="549" 
d="M392 608q-31 -40 -60 -40h-57q-37 0 -20 40l48 106q15 33 55 33h101q20 0 22 -11.5t-11 -28.5zM185 20q0 -40 -40 -40h-60q-40 0 -40 40v480q0 40 40 40h60q40 0 40 -40v-75q27 42 70 64.5t87 22.5q77 0 123 -52t46 -156v-264q0 -40 -40 -40h-60q-40 0 -40 40v219
q0 108 -77 108q-51 0 -80 -33t-29 -100v-214z" />
    <glyph glyph-name="Ncommaaccent" unicode="&#x145;" horiz-adv-x="679" 
d="M205 20q0 -40 -40 -40h-65q-40 0 -40 40v590q0 40 40 40h65q15 0 22 -4l1 -1l1 -1h2l1 -1l4 -4l3 -3l1 -2l267 -399l27 395q3 40 40 40h65q43 0 40 -40l-40 -590q-3 -40 -40 -40h-65q-21 0 -32 11q-1 1 -2.5 3t-2.5 3l-252 376v-373zM364 -218q-13 -23 -24 -31.5
t-31 -8.5h-52q-22 0 -29 9t-1 31l29 106q6 20 17 26.5t38 6.5h86q43 0 21 -40z" />
    <glyph glyph-name="ncommaaccent" unicode="&#x146;" horiz-adv-x="549" 
d="M185 20q0 -40 -40 -40h-60q-40 0 -40 40v480q0 40 40 40h60q40 0 40 -40v-75q27 42 70 64.5t87 22.5q77 0 123 -52t46 -156v-264q0 -40 -40 -40h-60q-40 0 -40 40v219q0 108 -77 108q-51 0 -80 -33t-29 -100v-214zM309 -218q-13 -23 -24 -31.5t-31 -8.5h-52q-22 0 -29 9
t-1 31l29 106q6 20 17 26.5t38 6.5h86q43 0 21 -40z" />
    <glyph glyph-name="Ncaron" unicode="&#x147;" horiz-adv-x="679" 
d="M294 748q-34 0 -55 33l-68 106q-11 17 -5.5 28.5t25.5 11.5h47q30 0 49 -23l52 -67l53 67q19 23 49 23h48q20 0 25.5 -11.5t-5.5 -28.5l-68 -106q-21 -33 -55 -33h-92zM205 20q0 -40 -40 -40h-65q-40 0 -40 40v590q0 40 40 40h65q15 0 22 -4l1 -1l1 -1h2l1 -1l4 -4l3 -3
l1 -2l267 -399l27 395q3 40 40 40h65q43 0 40 -40l-40 -590q-3 -40 -40 -40h-65q-21 0 -32 11q-1 1 -2.5 3t-2.5 3l-252 376v-373z" />
    <glyph glyph-name="ncaron" unicode="&#x148;" horiz-adv-x="549" 
d="M279 568q-34 0 -55 33l-68 106q-11 17 -5.5 28.5t25.5 11.5h47q30 0 49 -23l52 -67l53 67q19 23 49 23h48q20 0 25.5 -11.5t-5.5 -28.5l-68 -106q-21 -33 -55 -33h-92zM185 20q0 -40 -40 -40h-60q-40 0 -40 40v480q0 40 40 40h60q40 0 40 -40v-75q27 42 70 64.5t87 22.5
q77 0 123 -52t46 -156v-264q0 -40 -40 -40h-60q-40 0 -40 40v219q0 108 -77 108q-51 0 -80 -33t-29 -100v-214z" />
    <glyph glyph-name="Omacron" unicode="&#x14c;" horiz-adv-x="738" 
d="M479 863q40 0 40 -40v-35q0 -40 -40 -40h-230q-40 0 -40 40v35q0 40 40 40h230zM368 -22q-154 0 -247 97.5t-93 259.5q0 161 93.5 259t248.5 98q153 0 245.5 -98t94.5 -259q-1 -163 -94.5 -260t-247.5 -97zM370 128q92 0 142.5 57t52.5 150q-2 92 -53 149.5t-143 57.5
q-94 0 -145 -57.5t-51 -149.5q0 -93 51 -150t146 -57z" />
    <glyph glyph-name="omacron" unicode="&#x14d;" horiz-adv-x="544" 
d="M387 683q40 0 40 -40v-35q0 -40 -40 -40h-230q-40 0 -40 40v35q0 40 40 40h230zM272 -12q-115 0 -183 73.5t-68 188.5t68 188.5t183 73.5t183 -73.5t68 -188.5t-68 -188.5t-183 -73.5zM272 133q50 0 80.5 28.5t30.5 88.5t-30.5 88.5t-80.5 28.5t-80.5 -28.5t-30.5 -88.5
t30.5 -88.5t80.5 -28.5z" />
    <glyph glyph-name="Obreve" unicode="&#x14e;" horiz-adv-x="738" 
d="M369 843q53 0 60 50q5 34 44 34h12q49 0 49 -50q0 -59 -43.5 -94t-121.5 -35t-121.5 35t-43.5 94q0 50 49 50h12q39 0 44 -34q7 -50 60 -50zM368 -22q-154 0 -247 97.5t-93 259.5q0 161 93.5 259t248.5 98q153 0 245.5 -98t94.5 -259q-1 -163 -94.5 -260t-247.5 -97z
M370 128q92 0 142.5 57t52.5 150q-2 92 -53 149.5t-143 57.5q-94 0 -145 -57.5t-51 -149.5q0 -93 51 -150t146 -57z" />
    <glyph glyph-name="obreve" unicode="&#x14f;" horiz-adv-x="544" 
d="M272 663q53 0 60 50q5 34 44 34h12q49 0 49 -50q0 -59 -43.5 -94t-121.5 -35t-121.5 35t-43.5 94q0 50 49 50h12q39 0 44 -34q7 -50 60 -50zM272 -12q-115 0 -183 73.5t-68 188.5t68 188.5t183 73.5t183 -73.5t68 -188.5t-68 -188.5t-183 -73.5zM272 133q50 0 80.5 28.5
t30.5 88.5t-30.5 88.5t-80.5 28.5t-80.5 -28.5t-30.5 -88.5t30.5 -88.5t80.5 -28.5z" />
    <glyph glyph-name="Ohungarumlaut" unicode="&#x150;" horiz-adv-x="738" 
d="M355 788q-19 -40 -60 -40h-37q-22 0 -29 9t-1 31l28 106q5 20 15.5 26.5t34.5 6.5h76q22 0 27 -8.5t-6 -31.5zM543 788q-19 -40 -60 -40h-37q-22 0 -29 9t-1 31l28 106q5 20 15.5 26.5t33.5 6.5h77q22 0 27 -8.5t-6 -31.5zM368 -22q-154 0 -247 97.5t-93 259.5
q0 161 93.5 259t248.5 98q153 0 245.5 -98t94.5 -259q-1 -163 -94.5 -260t-247.5 -97zM370 128q92 0 142.5 57t52.5 150q-2 92 -53 149.5t-143 57.5q-94 0 -145 -57.5t-51 -149.5q0 -93 51 -150t146 -57z" />
    <glyph glyph-name="ohungarumlaut" unicode="&#x151;" horiz-adv-x="544" 
d="M248 608q-19 -40 -60 -40h-37q-22 0 -29 9t-1 31l28 106q5 20 15.5 26.5t34.5 6.5h76q22 0 27 -8.5t-6 -31.5zM436 608q-19 -40 -60 -40h-37q-22 0 -29 9t-1 31l28 106q5 20 15.5 26.5t33.5 6.5h77q22 0 27 -8.5t-6 -31.5zM272 -12q-115 0 -183 73.5t-68 188.5t68 188.5
t183 73.5t183 -73.5t68 -188.5t-68 -188.5t-183 -73.5zM272 133q50 0 80.5 28.5t30.5 88.5t-30.5 88.5t-80.5 28.5t-80.5 -28.5t-30.5 -88.5t30.5 -88.5t80.5 -28.5z" />
    <glyph glyph-name="OE" unicode="&#x152;" horiz-adv-x="917" 
d="M846 0h-478q-154 0 -247 91t-93 244q0 152 93.5 243.5t248.5 91.5h475q40 0 40 -40v-61q0 -39 -39 -39l-259 -3l-5 -126l222 15q40 3 40 -40v-61q0 -36 -39 -39l-228 -15l-4 -118l274 -3q39 0 39 -39v-61q0 -40 -40 -40zM370 145l64 -1l12 382l-77 -1
q-99 -1 -152.5 -53.5t-53.5 -136.5q0 -85 53.5 -137t153.5 -53z" />
    <glyph glyph-name="oe" unicode="&#x153;" horiz-adv-x="866" 
d="M645 -12q-120 0 -191 74q-69 -74 -182 -74q-115 0 -183 73.5t-68 188.5t68 188.5t183 73.5q111 0 180 -72q67 72 182 72q97 0 156.5 -61t59.5 -165q0 -32 -7 -45t-32 -16l-279 -32q34 -75 132 -75q40 0 115 42q11 7 21.5 1.5t15.5 -19.5l20 -52q7 -18 7 -23.5t-11 -18.5
q-36 -28 -86.5 -44t-100.5 -16zM624 382q-81 0 -98 -81l180 21q-7 27 -28.5 43.5t-53.5 16.5zM272 133q50 0 80.5 28.5t30.5 88.5t-30.5 88.5t-80.5 28.5t-80.5 -28.5t-30.5 -88.5t30.5 -88.5t80.5 -28.5z" />
    <glyph glyph-name="Racute" unicode="&#x154;" horiz-adv-x="594" 
d="M374 788q-31 -40 -60 -40h-57q-37 0 -20 40l48 106q15 33 55 33h101q20 0 22 -11.5t-11 -28.5zM493 -29q-25 -6 -34.5 0.5t-28.5 39.5l-105 181q-28 -4 -67 -4h-53v-148q0 -40 -40 -40h-65q-40 0 -40 40v590q0 40 40 40h158q144 0 220 -60t76 -181q0 -134 -96 -195
l107 -195q25 -47 -28 -58zM262 520h-57v-182h57q147 0 147 91t-147 91z" />
    <glyph glyph-name="racute" unicode="&#x155;" horiz-adv-x="393" 
d="M203 638q-31 -40 -60 -40h-57q-37 0 -20 40l48 106q15 33 55 33h101q20 0 22 -11.5t-11 -28.5zM185 40q0 -40 -40 -40h-60q-40 0 -40 40v470q0 40 40 40h60q40 0 40 -40v-83q24 40 59.5 62.5t71.5 22.5q37 0 58 -13q11 -7 9 -19l-10 -115q-1 -22 -27 -16q-37 8 -64 8
q-43 0 -70 -32t-27 -91v-194z" />
    <glyph glyph-name="Rcommaaccent" unicode="&#x156;" horiz-adv-x="594" 
d="M493 -29q-25 -6 -34.5 0.5t-28.5 39.5l-105 181q-28 -4 -67 -4h-53v-148q0 -40 -40 -40h-65q-40 0 -40 40v590q0 40 40 40h158q144 0 220 -60t76 -181q0 -134 -96 -195l107 -195q25 -47 -28 -58zM262 520h-57v-182h57q147 0 147 91t-147 91zM341 -218q-13 -23 -24 -31.5
t-31 -8.5h-52q-22 0 -29 9t-1 31l29 106q6 20 17 26.5t38 6.5h86q43 0 21 -40z" />
    <glyph glyph-name="rcommaaccent" unicode="&#x157;" horiz-adv-x="393" 
d="M185 40q0 -40 -40 -40h-60q-40 0 -40 40v470q0 40 40 40h60q40 0 40 -40v-83q24 40 59.5 62.5t71.5 22.5q37 0 58 -13q11 -7 9 -19l-10 -115q-1 -22 -27 -16q-37 8 -64 8q-43 0 -70 -32t-27 -91v-194zM140 -218q-13 -23 -24 -31.5t-31 -8.5h-52q-22 0 -29 9t-1 31l29 106
q6 20 17 26.5t38 6.5h86q43 0 21 -40z" />
    <glyph glyph-name="Rcaron" unicode="&#x158;" horiz-adv-x="594" 
d="M251 748q-34 0 -55 33l-68 106q-11 17 -5.5 28.5t25.5 11.5h47q30 0 49 -23l52 -67l53 67q19 23 49 23h48q20 0 25.5 -11.5t-5.5 -28.5l-68 -106q-21 -33 -55 -33h-92zM493 -29q-25 -6 -34.5 0.5t-28.5 39.5l-105 181q-28 -4 -67 -4h-53v-148q0 -40 -40 -40h-65
q-40 0 -40 40v590q0 40 40 40h158q144 0 220 -60t76 -181q0 -134 -96 -195l107 -195q25 -47 -28 -58zM262 520h-57v-182h57q147 0 147 91t-147 91z" />
    <glyph glyph-name="rcaron" unicode="&#x159;" horiz-adv-x="393" 
d="M200 568q-34 0 -55 33l-68 106q-11 17 -5.5 28.5t25.5 11.5h47q30 0 49 -23l52 -67l53 67q19 23 49 23h48q20 0 25.5 -11.5t-5.5 -28.5l-68 -106q-21 -33 -55 -33h-92zM185 40q0 -40 -40 -40h-60q-40 0 -40 40v470q0 40 40 40h60q40 0 40 -40v-83q24 40 59.5 62.5
t71.5 22.5q37 0 58 -13q11 -7 9 -19l-10 -115q-1 -22 -27 -16q-37 8 -64 8q-43 0 -70 -32t-27 -91v-194z" />
    <glyph glyph-name="Sacute" unicode="&#x15a;" horiz-adv-x="506" 
d="M330 788q-31 -40 -60 -40h-57q-37 0 -20 40l48 106q15 33 55 33h101q20 0 22 -11.5t-11 -28.5zM341 175q0 23 -22 44.5t-55 38t-71.5 39t-71.5 46.5t-55 62.5t-22 84.5q0 87 56.5 139.5t155.5 52.5q43 0 91.5 -13.5t81.5 -34.5q17 -11 20 -21.5t-4 -27.5l-28 -61
q-13 -27 -44 -14q-72 32 -117 32q-67 0 -67 -42q0 -22 22 -42.5t55 -37.5t71.5 -39.5t71.5 -46.5t55 -62t22 -82q0 -95 -59.5 -148.5t-164.5 -53.5q-57 0 -118 18t-104 49q-17 13 -20.5 21.5t4.5 27.5l29 60q8 16 17 19.5t27 -5.5q91 -50 171 -50q73 0 73 47z" />
    <glyph glyph-name="sacute" unicode="&#x15b;" horiz-adv-x="428" 
d="M301 608q-31 -40 -60 -40h-57q-37 0 -20 40l48 106q15 33 55 33h101q20 0 22 -11.5t-11 -28.5zM31 351q0 71 50.5 116t137.5 45q103 0 165 -46q17 -13 4 -42l-21 -52q-12 -28 -37 -18q-78 31 -125 31q-39 0 -39 -27q0 -16 18 -26.5t45 -15.5t59 -14.5t59 -22.5t45 -42.5
t18 -72.5q0 -90 -58 -133t-138 -43q-114 0 -181 54q-7 6 -9 14t-0.5 12.5t5.5 15.5l20 56q5 13 15.5 18.5t21.5 -0.5q70 -38 136 -38q53 0 53 27q0 16 -18 27t-45 16t-59 16t-59 25t-45 45t-18 75z" />
    <glyph glyph-name="Scircumflex" unicode="&#x15c;" horiz-adv-x="506" 
d="M299 927q34 0 55 -33l68 -106q11 -16 5.5 -28t-25.5 -12h-47q-30 0 -49 23l-52 67l-53 -67q-19 -23 -49 -23h-48q-20 0 -25.5 12t5.5 28l68 106q21 33 55 33h92zM341 175q0 23 -22 44.5t-55 38t-71.5 39t-71.5 46.5t-55 62.5t-22 84.5q0 87 56.5 139.5t155.5 52.5
q43 0 91.5 -13.5t81.5 -34.5q17 -11 20 -21.5t-4 -27.5l-28 -61q-13 -27 -44 -14q-72 32 -117 32q-67 0 -67 -42q0 -22 22 -42.5t55 -37.5t71.5 -39.5t71.5 -46.5t55 -62t22 -82q0 -95 -59.5 -148.5t-164.5 -53.5q-57 0 -118 18t-104 49q-17 13 -20.5 21.5t4.5 27.5l29 60
q8 16 17 19.5t27 -5.5q91 -50 171 -50q73 0 73 47z" />
    <glyph glyph-name="scircumflex" unicode="&#x15d;" horiz-adv-x="428" 
d="M260 747q34 0 55 -33l68 -106q11 -16 5.5 -28t-25.5 -12h-47q-30 0 -49 23l-52 67l-53 -67q-19 -23 -49 -23h-48q-20 0 -25.5 12t5.5 28l68 106q21 33 55 33h92zM31 351q0 71 50.5 116t137.5 45q103 0 165 -46q17 -13 4 -42l-21 -52q-12 -28 -37 -18q-78 31 -125 31
q-39 0 -39 -27q0 -16 18 -26.5t45 -15.5t59 -14.5t59 -22.5t45 -42.5t18 -72.5q0 -90 -58 -133t-138 -43q-114 0 -181 54q-7 6 -9 14t-0.5 12.5t5.5 15.5l20 56q5 13 15.5 18.5t21.5 -0.5q70 -38 136 -38q53 0 53 27q0 16 -18 27t-45 16t-59 16t-59 25t-45 45t-18 75z" />
    <glyph glyph-name="Scedilla" unicode="&#x15e;" horiz-adv-x="506" 
d="M392 -156q0 -61 -41.5 -90t-112.5 -29q-59 0 -102 28q-10 7 -2 25q3 5 11 23t10 22q9 19 22 11q36 -18 62 -18q51 0 51 25q0 12 -14.5 19.5t-36.5 7.5q-10 0 -25 -2t-21 -2q-24 0 -19 17l28 112q-98 15 -162 62q-17 13 -20.5 21.5t4.5 27.5l29 60q8 16 17 19.5t27 -5.5
q91 -50 171 -50q73 0 73 47q0 23 -22 44.5t-55 38t-71.5 39t-71.5 46.5t-55 62.5t-22 84.5q0 87 56.5 139.5t155.5 52.5q43 0 91.5 -13.5t81.5 -34.5q17 -11 20 -21.5t-4 -27.5l-28 -61q-13 -27 -44 -14q-72 32 -117 32q-67 0 -67 -42q0 -22 22 -42.5t55 -37.5t71.5 -39.5
t71.5 -46.5t55 -62t22 -82q0 -95 -59.5 -148.5t-164.5 -53.5h-8q0 -3 -3 -15t-3 -14q16 2 25 2q53 0 86 -31.5t33 -85.5z" />
    <glyph glyph-name="scedilla" unicode="&#x15f;" horiz-adv-x="428" 
d="M202 -269q-59 0 -102 28q-10 7 -2 25l21 49q9 19 22 11q36 -18 62 -18q51 0 51 25q0 12 -14.5 19.5t-36.5 7.5q-10 0 -25 -2t-21 -2q-24 0 -19 17l26 100q-82 12 -131 51q-7 6 -9 14t-0.5 12.5t5.5 15.5l20 56q5 13 15.5 18.5t21.5 -0.5q70 -38 136 -38q53 0 53 27
q0 16 -18 27t-45 16t-59 16t-59 25t-45 45t-18 75q0 71 50.5 116t137.5 45q103 0 165 -46q17 -13 4 -42l-21 -52q-12 -28 -37 -18q-78 31 -125 31q-39 0 -39 -27q0 -16 18 -26.5t45 -15.5t59 -14.5t59 -22.5t45 -42.5t18 -72.5q0 -47 -17 -82t-46 -55t-62 -29.5t-69 -9.5
l-7 -34q18 2 26 2q53 0 86 -29.5t33 -78.5q0 -117 -152 -117z" />
    <glyph glyph-name="Scaron" unicode="&#x160;" horiz-adv-x="506" 
d="M207 748q-34 0 -55 33l-68 106q-11 17 -5.5 28.5t25.5 11.5h47q30 0 49 -23l52 -67l53 67q19 23 49 23h48q20 0 25.5 -11.5t-5.5 -28.5l-68 -106q-21 -33 -55 -33h-92zM341 175q0 23 -22 44.5t-55 38t-71.5 39t-71.5 46.5t-55 62.5t-22 84.5q0 87 56.5 139.5t155.5 52.5
q43 0 91.5 -13.5t81.5 -34.5q17 -11 20 -21.5t-4 -27.5l-28 -61q-13 -27 -44 -14q-72 32 -117 32q-67 0 -67 -42q0 -22 22 -42.5t55 -37.5t71.5 -39.5t71.5 -46.5t55 -62t22 -82q0 -95 -59.5 -148.5t-164.5 -53.5q-57 0 -118 18t-104 49q-17 13 -20.5 21.5t4.5 27.5l29 60
q8 16 17 19.5t27 -5.5q91 -50 171 -50q73 0 73 47z" />
    <glyph glyph-name="scaron" unicode="&#x161;" horiz-adv-x="428" 
d="M168 568q-34 0 -55 33l-68 106q-11 17 -5.5 28.5t25.5 11.5h47q30 0 49 -23l52 -67l53 67q19 23 49 23h48q20 0 25.5 -11.5t-5.5 -28.5l-68 -106q-21 -33 -55 -33h-92zM31 351q0 71 50.5 116t137.5 45q103 0 165 -46q17 -13 4 -42l-21 -52q-12 -28 -37 -18
q-78 31 -125 31q-39 0 -39 -27q0 -16 18 -26.5t45 -15.5t59 -14.5t59 -22.5t45 -42.5t18 -72.5q0 -90 -58 -133t-138 -43q-114 0 -181 54q-7 6 -9 14t-0.5 12.5t5.5 15.5l20 56q5 13 15.5 18.5t21.5 -0.5q70 -38 136 -38q53 0 53 27q0 16 -18 27t-45 16t-59 16t-59 25
t-45 45t-18 75z" />
    <glyph glyph-name="Tcedilla" unicode="&#x162;" horiz-adv-x="604" 
d="M375 40q0 -40 -40 -40h-65q-40 0 -40 40v480h-177q-39 0 -39 39v71q0 40 40 40h496q40 0 40 -40v-71q0 -39 -39 -39h-176v-480zM326 -218q-13 -23 -24 -31.5t-31 -8.5h-52q-22 0 -29 9t-1 31l29 106q6 20 17 26.5t38 6.5h86q43 0 21 -40z" />
    <glyph glyph-name="tcedilla" unicode="&#x163;" horiz-adv-x="462" 
d="M441 32q-71 -54 -172 -54q-83 0 -127.5 51.5t-44.5 151.5v130l-58 3q-28 1 -28 31v80q0 15 9.5 25t24.5 9l52 -3v114q0 30 30 30h80q30 0 30 -30v-122l144 -9q28 -1 28 -31v-80q0 -15 -9.5 -25t-24.5 -9l-138 8v-96q0 -85 68 -85q31 0 77 29q23 14 37 -18l26 -58
q14 -29 -4 -42zM284 -218q-13 -23 -24 -31.5t-31 -8.5h-52q-22 0 -29 9t-1 31l29 106q6 20 17 26.5t38 6.5h86q43 0 21 -40z" />
    <glyph glyph-name="Tcaron" unicode="&#x164;" horiz-adv-x="604" 
d="M256 748q-34 0 -55 33l-68 106q-11 17 -5.5 28.5t25.5 11.5h47q30 0 49 -23l52 -67l53 67q19 23 49 23h48q20 0 25.5 -11.5t-5.5 -28.5l-68 -106q-21 -33 -55 -33h-92zM375 40q0 -40 -40 -40h-65q-40 0 -40 40v480h-177q-39 0 -39 39v71q0 40 40 40h496q40 0 40 -40v-71
q0 -39 -39 -39h-176v-480z" />
    <glyph glyph-name="tcaron" unicode="&#x165;" horiz-adv-x="470" 
d="M431 521q-6 -24 -17 -32t-33 -8h-42q-18 0 -24 8.5t-6 31.5v106q0 20 7 26.5t28 6.5h91q19 0 23 -8t-2 -32zM441 32q-71 -54 -172 -54q-83 0 -127.5 51.5t-44.5 151.5v130l-58 3q-28 1 -28 31v80q0 15 9.5 25t24.5 9l52 -3v114q0 30 30 30h80q30 0 30 -30v-122l144 -9
q28 -1 28 -31v-80q0 -15 -9.5 -25t-24.5 -9l-138 8v-96q0 -85 68 -85q31 0 77 29q23 14 37 -18l26 -58q14 -29 -4 -42z" />
    <glyph glyph-name="Tbar" unicode="&#x166;" horiz-adv-x="604" 
d="M375 40q0 -40 -40 -40h-65q-40 0 -40 40v233h-83q-40 0 -40 40v35q0 40 40 40h83v132h-177q-39 0 -39 39v71q0 40 40 40h496q40 0 40 -40v-71q0 -39 -39 -39h-176v-132h82q40 0 40 -40v-35q0 -40 -40 -40h-82v-233z" />
    <glyph glyph-name="tbar" unicode="&#x167;" horiz-adv-x="479" 
d="M458 36q-56 -42 -135 -52q-26 -2 -37 -2q-76 0 -120 43t-51 128q-1 10 -1 32v11l-59 3q-40 3 -40 40v35q0 43 40 40l12 -1l47 -2v52l-71 4q-8 0 -14 3q-14 5 -14 28v80q0 25 23 33q3 1 11 1l65 -4v62q0 5 2 13q6 17 28 17h80q22 0 28 -17q2 -8 2 -13v-70l134 -8
q8 0 14 -3q14 -5 14 -28v-80q0 -18 -13 -28q-9 -6 -21 -6l-128 8v-53l59 -3q4 -1 12 -1q40 -3 40 -40v-35q0 -43 -40 -40l-70 4q1 -6 3 -16q12 -46 64 -46q31 0 77 29q5 2 11 4q17 0 26 -22l26 -58q4 -8 5 -12q7 -19 -9 -30z" />
    <glyph glyph-name="Utilde" unicode="&#x168;" horiz-adv-x="658" 
d="M387 748q-19 0 -54.5 9t-54.5 9q-28 0 -66 -14q-39 -15 -39 24v49q0 32 30 43q35 13 68 13q22 0 57 -9t52 -9q28 0 66 14q39 15 39 -24v-49q0 -32 -30 -43q-35 -13 -68 -13zM453 60v32q-66 -104 -200 -104q-89 0 -144 57.5t-55 166.5v418q0 40 40 40h65q40 0 40 -40v-358
q0 -75 25.5 -107.5t76.5 -32.5q62 0 107 41t45 109v328q0 40 40 40h65q40 0 40 -40v-550q0 -40 -40 -40h-65q-40 0 -40 40z" />
    <glyph glyph-name="utilde" unicode="&#x169;" horiz-adv-x="549" 
d="M332 568q-19 0 -54.5 9t-54.5 9q-28 0 -66 -14q-39 -15 -39 24v49q0 32 30 43q35 13 68 13q22 0 57 -9t52 -9q28 0 66 14q39 15 39 -24v-49q0 -32 -30 -43q-35 -13 -68 -13zM364 40v35q-27 -42 -70 -64.5t-87 -22.5q-77 0 -123 52t-46 156v264q0 40 40 40h60q40 0 40 -40
v-219q0 -108 77 -108q51 0 80 33t29 100v234q0 40 40 40h60q40 0 40 -40v-460q0 -40 -40 -40h-60q-40 0 -40 40z" />
    <glyph glyph-name="Umacron" unicode="&#x16a;" horiz-adv-x="658" 
d="M439 863q40 0 40 -40v-35q0 -40 -40 -40h-230q-40 0 -40 40v35q0 40 40 40h230zM453 60v32q-66 -104 -200 -104q-89 0 -144 57.5t-55 166.5v418q0 40 40 40h65q40 0 40 -40v-358q0 -75 25.5 -107.5t76.5 -32.5q62 0 107 41t45 109v328q0 40 40 40h65q40 0 40 -40v-550
q0 -40 -40 -40h-65q-40 0 -40 40z" />
    <glyph glyph-name="umacron" unicode="&#x16b;" horiz-adv-x="549" 
d="M384 683q40 0 40 -40v-35q0 -40 -40 -40h-230q-40 0 -40 40v35q0 40 40 40h230zM364 40v35q-27 -42 -70 -64.5t-87 -22.5q-77 0 -123 52t-46 156v264q0 40 40 40h60q40 0 40 -40v-219q0 -108 77 -108q51 0 80 33t29 100v234q0 40 40 40h60q40 0 40 -40v-460
q0 -40 -40 -40h-60q-40 0 -40 40z" />
    <glyph glyph-name="Ubreve" unicode="&#x16c;" horiz-adv-x="658" 
d="M329 843q53 0 60 50q5 34 44 34h12q49 0 49 -50q0 -59 -43.5 -94t-121.5 -35t-121.5 35t-43.5 94q0 50 49 50h12q39 0 44 -34q7 -50 60 -50zM453 60v32q-66 -104 -200 -104q-89 0 -144 57.5t-55 166.5v418q0 40 40 40h65q40 0 40 -40v-358q0 -75 25.5 -107.5t76.5 -32.5
q62 0 107 41t45 109v328q0 40 40 40h65q40 0 40 -40v-550q0 -40 -40 -40h-65q-40 0 -40 40z" />
    <glyph glyph-name="ubreve" unicode="&#x16d;" horiz-adv-x="549" 
d="M274 663q53 0 60 50q5 34 44 34h12q49 0 49 -50q0 -59 -43.5 -94t-121.5 -35t-121.5 35t-43.5 94q0 50 49 50h12q39 0 44 -34q7 -50 60 -50zM364 40v35q-27 -42 -70 -64.5t-87 -22.5q-77 0 -123 52t-46 156v264q0 40 40 40h60q40 0 40 -40v-219q0 -108 77 -108
q51 0 80 33t29 100v234q0 40 40 40h60q40 0 40 -40v-460q0 -40 -40 -40h-60q-40 0 -40 40z" />
    <glyph glyph-name="Uring" unicode="&#x16e;" horiz-adv-x="658" 
d="M329 732q-61 0 -100 33t-39 89q0 55 39 88.5t100 33.5t100 -33.5t39 -88.5q0 -56 -39 -89t-100 -33zM329 815q21 0 34 10t13 29q0 18 -13.5 28t-34.5 10q-19 0 -32.5 -10.5t-13.5 -27.5q0 -19 13 -29t34 -10zM453 60v32q-66 -104 -200 -104q-89 0 -144 57.5t-55 166.5
v418q0 40 40 40h65q40 0 40 -40v-358q0 -75 25.5 -107.5t76.5 -32.5q62 0 107 41t45 109v328q0 40 40 40h65q40 0 40 -40v-550q0 -40 -40 -40h-65q-40 0 -40 40z" />
    <glyph glyph-name="uring" unicode="&#x16f;" horiz-adv-x="549" 
d="M254 552q-61 0 -100 33t-39 89q0 55 39 88.5t100 33.5t100 -33.5t39 -88.5q0 -56 -39 -89t-100 -33zM254 635q20 0 33.5 10t13.5 29q0 18 -13.5 28t-34.5 10q-19 0 -32.5 -10.5t-13.5 -27.5q0 -19 13 -29t34 -10zM364 40v35q-27 -42 -70 -64.5t-87 -22.5q-77 0 -123 52
t-46 156v264q0 40 40 40h60q40 0 40 -40v-219q0 -108 77 -108q51 0 80 33t29 100v234q0 40 40 40h60q40 0 40 -40v-460q0 -40 -40 -40h-60q-40 0 -40 40z" />
    <glyph glyph-name="Uhungarumlaut" unicode="&#x170;" horiz-adv-x="658" 
d="M315 788q-19 -40 -60 -40h-37q-22 0 -29 9t-1 31l28 106q5 20 15.5 26.5t34.5 6.5h76q22 0 27 -8.5t-6 -31.5zM503 788q-19 -40 -60 -40h-37q-22 0 -29 9t-1 31l28 106q5 20 15.5 26.5t33.5 6.5h77q22 0 27 -8.5t-6 -31.5zM453 60v32q-66 -104 -200 -104q-89 0 -144 57.5
t-55 166.5v418q0 40 40 40h65q40 0 40 -40v-358q0 -75 25.5 -107.5t76.5 -32.5q62 0 107 41t45 109v328q0 40 40 40h65q40 0 40 -40v-550q0 -40 -40 -40h-65q-40 0 -40 40z" />
    <glyph glyph-name="uhungarumlaut" unicode="&#x171;" horiz-adv-x="549" 
d="M220 608q-19 -40 -60 -40h-37q-22 0 -29 9t-1 31l28 106q5 20 15.5 26.5t34.5 6.5h76q22 0 27 -8.5t-6 -31.5zM408 608q-19 -40 -60 -40h-37q-22 0 -29 9t-1 31l28 106q5 20 15.5 26.5t33.5 6.5h77q22 0 27 -8.5t-6 -31.5zM364 40v35q-27 -42 -70 -64.5t-87 -22.5
q-77 0 -123 52t-46 156v264q0 40 40 40h60q40 0 40 -40v-219q0 -108 77 -108q51 0 80 33t29 100v234q0 40 40 40h60q40 0 40 -40v-460q0 -40 -40 -40h-60q-40 0 -40 40z" />
    <glyph glyph-name="Uogonek" unicode="&#x172;" horiz-adv-x="658" 
d="M600 -215q-42 -30 -113 -30q-46 0 -82 26t-36 80q0 43 23 75t64 49q-3 7 -3 20v87q-59 -93 -177 -103q-8 -1 -23 -1q-89 0 -144 57.5t-55 166.5v418q0 40 40 40h65q40 0 40 -40v-358q0 -75 25.5 -107.5t76.5 -32.5q62 0 107 41t45 109v328q0 40 40 40h65q40 0 40 -40
v-605q0 -40 -40 -40q-41 0 -63.5 -18t-22.5 -45q0 -17 13 -26.5t29 -9.5q25 0 51 14q6 3 13 0t9 -11l5 -20l10 -39q6 -19 -2 -25z" />
    <glyph glyph-name="uogonek" unicode="&#x173;" horiz-adv-x="549" 
d="M506 -227q-34 -24 -94 -29q-6 -1 -19 -1q-46 0 -82 26t-36 80q0 13 1 19q11 70 91 105q-3 7 -3 20v82q-49 -77 -140 -86q-6 -1 -17 -1q-72 0 -117 45t-51 137q-1 8 -1 26v264q0 8 2 18q7 22 38 22h60q31 0 38 -22q2 -10 2 -18v-219q0 -108 77 -108q51 0 80 33t29 100v234
q0 8 2 18q7 22 38 22h60q40 0 40 -40v-507q0 -8 -2 -18q-7 -22 -38 -22q-41 0 -63.5 -18t-22.5 -45q0 -17 13 -26.5t29 -9.5q25 0 51 14q6 3 13 0t9 -11l15 -59q6 -19 -2 -25z" />
    <glyph glyph-name="Wcircumflex" unicode="&#x174;" horiz-adv-x="945" 
d="M509 927q34 0 55 -33l68 -106q11 -16 5.5 -28t-25.5 -12h-47q-30 0 -49 23l-52 67l-53 -67q-19 -23 -49 -23h-48q-20 0 -25.5 12t5.5 28l68 106q21 33 55 33h92zM399 40q-6 -25 -16.5 -32.5t-31.5 -7.5h-61q-20 0 -29 7t-19 33l-224 571q-11 27 -5 40t33 18l54 10
q27 5 39.5 -2.5t23.5 -37.5l144 -398l79 323q6 25 16.5 32.5t31.5 7.5h61q21 0 30.5 -7.5t17.5 -32.5l110 -336l129 431q9 31 22.5 38.5t40.5 1.5l54 -12q27 -6 32 -18.5t-4 -39.5l-183 -589q-8 -25 -17.5 -32.5t-30.5 -7.5h-71q-21 0 -30.5 7.5t-17.5 32.5l-99 312z" />
    <glyph glyph-name="wcircumflex" unicode="&#x175;" horiz-adv-x="751" 
d="M424 747q34 0 55 -33l68 -106q11 -16 5.5 -28t-25.5 -12h-47q-30 0 -49 23l-52 67l-53 -67q-19 -23 -49 -23h-48q-20 0 -25.5 12t5.5 28l68 106q21 33 55 33h92zM343 38q-6 -23 -16 -30.5t-30 -7.5h-76q-19 0 -27.5 7t-18.5 31l-164 381q-10 27 -5.5 35t32.5 20l47 20
q25 9 36 1t24 -40l108 -271l48 226q6 25 16.5 32.5t31.5 7.5h46q20 0 29.5 -7.5t18.5 -32.5l75 -223l75 303q7 30 20.5 38.5t38.5 0.5l57 -17q25 -7 30 -18.5t-3 -36.5l-117 -419q-6 -24 -16 -31t-30 -7h-76q-19 0 -28 7t-18 31l-64 183z" />
    <glyph glyph-name="Ycircumflex" unicode="&#x176;" horiz-adv-x="568" 
d="M320 927q34 0 55 -33l68 -106q11 -16 5.5 -28t-25.5 -12h-47q-30 0 -49 23l-52 67l-53 -67q-19 -23 -49 -23h-48q-20 0 -25.5 12t5.5 28l68 106q21 33 55 33h92zM369 40q0 -40 -40 -40h-65q-27 0 -36 18q-4 8 -4 22v192l-206 379q-14 27 -7 39.5t35 18.5l49 10
q31 7 44 -9q6 -9 19 -31l119 -211l13 -23l116 254q10 22 17 29q13 18 46 11l54 -12q28 -6 34 -18.5t-6 -39.5l-182 -410v-179z" />
    <glyph glyph-name="ycircumflex" unicode="&#x177;" horiz-adv-x="549" 
d="M330 747q34 0 55 -33l68 -106q11 -16 5.5 -28t-25.5 -12h-47q-30 0 -49 23l-52 67l-53 -67q-19 -23 -49 -23h-48q-20 0 -25.5 12t5.5 28l68 106q21 33 55 33h92zM270 -210q-129 0 -200 57q-11 13 -11 19.5t7 22.5l24 60q9 23 16 29t21 -1q76 -42 141 -42q96 0 96 88v72
q-27 -42 -70 -64.5t-87 -22.5q-77 0 -123 52t-46 156v264q0 40 40 40h60q40 0 40 -40v-219q0 -108 77 -108q51 0 80 33t29 100v174q0 40 40 40h60q40 0 40 -40v-451q0 -112 -64.5 -165.5t-169.5 -53.5z" />
    <glyph glyph-name="Ydieresis" unicode="&#x178;" horiz-adv-x="568" 
d="M379 758q-32 0 -54.5 22.5t-22.5 54.5q0 31 23 54t54 23t54 -23t23 -54q0 -32 -22.5 -54.5t-54.5 -22.5zM169 758q-32 0 -54.5 22.5t-22.5 54.5q0 31 23 54t54 23t54 -23t23 -54q0 -32 -22.5 -54.5t-54.5 -22.5zM369 40q0 -40 -40 -40h-65q-27 0 -36 18q-4 8 -4 22v192
l-206 379q-14 27 -7 39.5t35 18.5l49 10q31 7 44 -9q6 -9 19 -31l119 -211l13 -23l116 254q10 22 17 29q13 18 46 11l54 -12q28 -6 34 -18.5t-6 -39.5l-182 -410v-179z" />
    <glyph glyph-name="Zacute" unicode="&#x179;" horiz-adv-x="540" 
d="M316 788q-31 -40 -60 -40h-57q-37 0 -20 40l48 106q15 33 55 33h101q20 0 22 -11.5t-11 -28.5zM473 0h-406q-40 0 -40 40v70q0 18 8 28l3 4l267 378h-228q-40 0 -40 40v70q0 40 40 40h376q40 0 40 -40v-70q0 -12 -5 -22q-1 -6 -7 -13l-267 -375h259q40 0 40 -40v-70
q0 -40 -40 -40z" />
    <glyph glyph-name="zacute" unicode="&#x17a;" horiz-adv-x="467" 
d="M300 608q-31 -40 -60 -40h-57q-37 0 -20 40l48 106q15 33 55 33h101q20 0 22 -11.5t-11 -28.5zM405 0h-340q-30 0 -37 22q-3 8 -3 18v66q-5 20 11 36l206 218h-172q-7 0 -17 2q-23 8 -23 38v60q0 10 3 18q7 22 37 22h325q30 0 37 -22q3 -8 3 -18v-60q0 -9 -1 -12l-2 -6
v-1q0 -1 -1 -1q-1 -4 -4 -8q-1 -1 -3 -3.5t-3 -3.5l-216 -225h200q7 0 17 -2q23 -8 23 -38v-60q0 -10 -3 -18q-7 -22 -37 -22z" />
    <glyph glyph-name="Zdotaccent" unicode="&#x17b;" horiz-adv-x="540" 
d="M269 743q-38 0 -66 28t-28 67q0 38 28 66t66 28t66 -28t28 -66q0 -39 -28 -67t-66 -28zM473 0h-406q-40 0 -40 40v70q0 18 8 28l3 4l267 378h-228q-40 0 -40 40v70q0 40 40 40h376q40 0 40 -40v-70q0 -12 -5 -22q-1 -6 -7 -13l-267 -375h259q40 0 40 -40v-70
q0 -40 -40 -40z" />
    <glyph glyph-name="zdotaccent" unicode="&#x17c;" horiz-adv-x="467" 
d="M234 563q-38 0 -66 28t-28 67q0 38 28 66t66 28t66 -28t28 -66q0 -39 -28 -67t-66 -28zM405 0h-340q-30 0 -37 22q-3 8 -3 18v66q-5 20 11 36l206 218h-172q-7 0 -17 2q-23 8 -23 38v60q0 10 3 18q7 22 37 22h325q30 0 37 -22q3 -8 3 -18v-60q0 -9 -1 -12l-2 -6v-1
q0 -1 -1 -1q-1 -4 -4 -8q-1 -1 -3 -3.5t-3 -3.5l-216 -225h200q7 0 17 -2q23 -8 23 -38v-60q0 -10 -3 -18q-7 -22 -37 -22z" />
    <glyph glyph-name="Zcaron" unicode="&#x17d;" horiz-adv-x="540" 
d="M223 748q-34 0 -55 33l-68 106q-11 17 -5.5 28.5t25.5 11.5h47q30 0 49 -23l52 -67l53 67q19 23 49 23h48q20 0 25.5 -11.5t-5.5 -28.5l-68 -106q-21 -33 -55 -33h-92zM473 0h-406q-40 0 -40 40v70q0 18 8 28l3 4l267 378h-228q-40 0 -40 40v70q0 40 40 40h376
q40 0 40 -40v-70q0 -12 -5 -22q-1 -6 -7 -13l-267 -375h259q40 0 40 -40v-70q0 -40 -40 -40z" />
    <glyph glyph-name="zcaron" unicode="&#x17e;" horiz-adv-x="467" 
d="M188 568q-34 0 -55 33l-68 106q-11 17 -5.5 28.5t25.5 11.5h47q30 0 49 -23l52 -67l53 67q19 23 49 23h48q20 0 25.5 -11.5t-5.5 -28.5l-68 -106q-21 -33 -55 -33h-92zM405 0h-340q-30 0 -37 22q-3 8 -3 18v66q-5 20 11 36l206 218h-172q-7 0 -17 2q-23 8 -23 38v60
q0 10 3 18q7 22 37 22h325q30 0 37 -22q3 -8 3 -18v-60q0 -9 -1 -12l-2 -6v-1q0 -1 -1 -1q-1 -4 -4 -8q-1 -1 -3 -3.5t-3 -3.5l-216 -225h200q7 0 17 -2q23 -8 23 -38v-60q0 -10 -3 -18q-7 -22 -37 -22z" />
    <glyph glyph-name="florin" unicode="&#x192;" horiz-adv-x="459" 
d="M279 -6q-5 -105 -63 -163.5t-154 -51.5l-29 2q-22 2 -30.5 11.5t-4.5 33.5l13 67q4 24 32 23l29 -2q41 -3 52.5 21t14.5 83l11 243h-95q-21 0 -30.5 7.5t-9.5 27.5v70q0 20 9.5 27.5t30.5 7.5h101l3 65q5 105 63 163.5t154 51.5l29 -2q22 -2 30.5 -11.5t4.5 -33.5
l-13 -67q-4 -24 -32 -23l-29 2q-41 3 -52.5 -21t-14.5 -83l-2 -41h80q21 0 30.5 -7.5t9.5 -27.5v-70q0 -20 -9.5 -27.5t-30.5 -7.5h-86z" />
    <glyph glyph-name="Scommaaccent" unicode="&#x218;" horiz-adv-x="506" 
d="M341 175q0 23 -22 44.5t-55 38t-71.5 39t-71.5 46.5t-55 62.5t-22 84.5q0 87 56.5 139.5t155.5 52.5q43 0 91.5 -13.5t81.5 -34.5q17 -11 20 -21.5t-4 -27.5l-28 -61q-13 -27 -44 -14q-72 32 -117 32q-67 0 -67 -42q0 -22 22 -42.5t55 -37.5t71.5 -39.5t71.5 -46.5
t55 -62t22 -82q0 -95 -59.5 -148.5t-164.5 -53.5q-57 0 -118 18t-104 49q-17 13 -20.5 21.5t4.5 27.5l29 60q8 16 17 19.5t27 -5.5q91 -50 171 -50q73 0 73 47zM297 -218q-13 -23 -24 -31.5t-31 -8.5h-52q-22 0 -29 9t-1 31l29 106q6 20 17 26.5t38 6.5h86q43 0 21 -40z" />
    <glyph glyph-name="scommaaccent" unicode="&#x219;" horiz-adv-x="428" 
d="M31 351q0 71 50.5 116t137.5 45q103 0 165 -46q17 -13 4 -42l-21 -52q-12 -28 -37 -18q-78 31 -125 31q-39 0 -39 -27q0 -16 18 -26.5t45 -15.5t59 -14.5t59 -22.5t45 -42.5t18 -72.5q0 -90 -58 -133t-138 -43q-114 0 -181 54q-7 6 -9 14t-0.5 12.5t5.5 15.5l20 56
q5 13 15.5 18.5t21.5 -0.5q70 -38 136 -38q53 0 53 27q0 16 -18 27t-45 16t-59 16t-59 25t-45 45t-18 75zM238 -218q-13 -23 -24 -31.5t-31 -8.5h-52q-22 0 -29 9t-1 31l29 106q6 20 17 26.5t38 6.5h86q43 0 21 -40z" />
    <glyph glyph-name="Tcommaaccent" unicode="&#x21a;" horiz-adv-x="604" 
d="M375 40q0 -40 -40 -40h-65q-40 0 -40 40v480h-177q-39 0 -39 39v71q0 40 40 40h496q40 0 40 -40v-71q0 -39 -39 -39h-176v-480zM326 -218q-13 -23 -24 -31.5t-31 -8.5h-52q-22 0 -29 9t-1 31l29 106q6 20 17 26.5t38 6.5h86q43 0 21 -40z" />
    <glyph glyph-name="tcommaaccent" unicode="&#x21b;" horiz-adv-x="462" 
d="M441 32q-71 -54 -172 -54q-83 0 -127.5 51.5t-44.5 151.5v130l-58 3q-28 1 -28 31v80q0 15 9.5 25t24.5 9l52 -3v114q0 30 30 30h80q30 0 30 -30v-122l144 -9q28 -1 28 -31v-80q0 -15 -9.5 -25t-24.5 -9l-138 8v-96q0 -85 68 -85q31 0 77 29q23 14 37 -18l26 -58
q14 -29 -4 -42zM284 -218q-13 -23 -24 -31.5t-31 -8.5h-52q-22 0 -29 9t-1 31l29 106q6 20 17 26.5t38 6.5h86q43 0 21 -40z" />
    <glyph glyph-name="dotlessj" unicode="&#x237;" horiz-adv-x="225" 
d="M-18 -222q-35 0 -75 11q-21 5 -27.5 15t0.5 28l28 74q9 27 32 23q32 -6 43 -6q31 0 45.5 21t14.5 77v449q0 30 30 30h80q30 0 30 -30v-473q0 -104 -49.5 -161.5t-151.5 -57.5z" />
    <glyph glyph-name="circumflex" unicode="&#x2c6;" 
d="M296 747q34 0 55 -33l68 -106q11 -16 5.5 -28t-25.5 -12h-47q-30 0 -49 23l-52 67l-53 -67q-19 -23 -49 -23h-48q-20 0 -25.5 12t5.5 28l68 106q21 33 55 33h92z" />
    <glyph glyph-name="caron" unicode="&#x2c7;" 
d="M204 568q-34 0 -55 33l-68 106q-11 17 -5.5 28.5t25.5 11.5h47q30 0 49 -23l52 -67l53 67q19 23 49 23h48q20 0 25.5 -11.5t-5.5 -28.5l-68 -106q-21 -33 -55 -33h-92z" />
    <glyph glyph-name="breve" unicode="&#x2d8;" 
d="M250 663q53 0 60 50q5 34 44 34h12q49 0 49 -50q0 -59 -43.5 -94t-121.5 -35t-121.5 35t-43.5 94q0 50 49 50h12q39 0 44 -34q7 -50 60 -50z" />
    <glyph glyph-name="dotaccent" unicode="&#x2d9;" 
d="M250 563q-38 0 -66 28t-28 67q0 38 28 66t66 28t66 -28t28 -66q0 -39 -28 -67t-66 -28z" />
    <glyph glyph-name="ring" unicode="&#x2da;" 
d="M250 552q-61 0 -100 33t-39 89q0 55 39 88.5t100 33.5t100 -33.5t39 -88.5q0 -56 -39 -89t-100 -33zM250 635q20 0 33.5 10t13.5 29q0 18 -13.5 28t-34.5 10q-19 0 -32.5 -10.5t-13.5 -27.5q0 -19 13.5 -29t33.5 -10z" />
    <glyph glyph-name="ogonek" unicode="&#x2db;" 
d="M267 -63q0 -17 13 -26.5t29 -9.5q25 0 51 14q6 3 13 0t9 -11l15 -59q6 -19 -2 -25q-42 -30 -113 -30q-46 0 -82 26t-36 80q0 62 52.5 101t121.5 39l15 -36q-41 0 -63.5 -18t-22.5 -45z" />
    <glyph glyph-name="tilde" unicode="&#x2dc;" 
d="M308 568q-19 0 -54.5 9t-54.5 9q-28 0 -66 -14q-39 -15 -39 24v49q0 32 30 43q35 13 68 13q22 0 57 -9t52 -9q28 0 66 14q39 15 39 -24v-49q0 -32 -30 -43q-35 -13 -68 -13z" />
    <glyph glyph-name="hungarumlaut" unicode="&#x2dd;" 
d="M196 608q-19 -40 -60 -40h-37q-22 0 -29 9t-1 31l28 106q5 20 15.5 26.5t34.5 6.5h76q22 0 27 -8.5t-6 -31.5zM384 608q-19 -40 -60 -40h-37q-22 0 -29 9t-1 31l28 106q5 20 15.5 26.5t33.5 6.5h77q22 0 27 -8.5t-6 -31.5z" />
    <glyph glyph-name="commaaccentcomb" unicode="&#x326;" 
d="M294 -218q-13 -23 -24 -31.5t-31 -8.5h-52q-22 0 -29 9t-1 31l29 106q6 20 17 26.5t38 6.5h86q43 0 21 -40z" />
    <glyph glyph-name="Delta" unicode="&#x394;" horiz-adv-x="672" 
d="M625 0h-578q-27 0 -33 15.5t5 42.5l188 572q8 25 17.5 32.5t30.5 7.5h76q19 0 27 -6.5t21 -33.5l274 -572q27 -58 -28 -58zM466 125l-161 328l-112 -328h273z" />
    <glyph glyph-name="Omega" unicode="&#x3a9;" horiz-adv-x="720" 
d="M360 692q148 0 240 -89t92 -225q0 -72 -30 -131t-81 -90q-9 -6 -7.5 -11.5t11.5 -5.5h77q30 0 30 -30v-80q0 -30 -30 -30h-200q-56 0 -56 54v67q0 20 28 39q51 34 82 89t31 109q0 82 -51.5 133t-135.5 51t-135.5 -51t-51.5 -133q0 -54 31 -109t82 -89q28 -19 28 -39v-67
q0 -54 -56 -54h-200q-30 0 -30 30v80q0 30 30 30h77q10 0 11.5 5.5t-7.5 11.5q-51 31 -81 90t-30 131q0 136 92 225t240 89z" />
    <glyph glyph-name="mu" unicode="&#x3bc;" horiz-adv-x="549" 
d="M178 -170q0 -40 -40 -40h-60q-40 0 -40 40v630q0 40 40 40h60q40 0 40 -40v-219q0 -108 77 -108q51 0 80 33t29 100v234q0 40 40 40h60q40 0 40 -40v-460q0 -40 -40 -40h-60q-40 0 -40 40v35q-27 -42 -70 -64.5t-87 -22.5q-11 0 -29 2v-160z" />
    <glyph glyph-name="pi" unicode="&#x3c0;" horiz-adv-x="706" 
d="M258 20q0 -40 -40 -40h-60q-40 0 -40 40v335h-54q-39 0 -39 39v66q0 40 40 40h542q40 0 40 -40v-66q0 -39 -39 -39h-54v-164q0 -33 7 -45.5t23 -12.5q15 0 33 3q23 4 32 -23l28 -74q7 -18 0.5 -28t-27.5 -15q-30 -8 -65 -8q-86 0 -128.5 46.5t-42.5 132.5v188h-156v-335z
" />
    <glyph glyph-name="Wgrave" unicode="&#x1e80;" horiz-adv-x="945" 
d="M445 748q-29 0 -60 40l-78 99q-13 17 -11 28.5t22 11.5h101q40 0 55 -33l48 -106q17 -40 -20 -40h-57zM399 40q-6 -25 -16.5 -32.5t-31.5 -7.5h-61q-20 0 -29 7t-19 33l-224 571q-11 27 -5 40t33 18l54 10q27 5 39.5 -2.5t23.5 -37.5l144 -398l79 323q6 25 16.5 32.5
t31.5 7.5h61q21 0 30.5 -7.5t17.5 -32.5l110 -336l129 431q9 31 22.5 38.5t40.5 1.5l54 -12q27 -6 32 -18.5t-4 -39.5l-183 -589q-8 -25 -17.5 -32.5t-30.5 -7.5h-71q-21 0 -30.5 7.5t-17.5 32.5l-99 312z" />
    <glyph glyph-name="wgrave" unicode="&#x1e81;" horiz-adv-x="751" 
d="M350 568q-29 0 -60 40l-78 99q-13 17 -11 28.5t22 11.5h101q40 0 55 -33l48 -106q17 -40 -20 -40h-57zM343 38q-6 -23 -16 -30.5t-30 -7.5h-76q-19 0 -27.5 7t-18.5 31l-164 381q-10 27 -5.5 35t32.5 20l47 20q25 9 36 1t24 -40l108 -271l48 226q6 25 16.5 32.5t31.5 7.5
h46q20 0 29.5 -7.5t18.5 -32.5l75 -223l75 303q7 30 20.5 38.5t38.5 0.5l57 -17q25 -7 30 -18.5t-3 -36.5l-117 -419q-6 -24 -16 -31t-30 -7h-76q-19 0 -28 7t-18 31l-64 183z" />
    <glyph glyph-name="Wacute" unicode="&#x1e82;" horiz-adv-x="945" 
d="M540 788q-31 -40 -60 -40h-57q-37 0 -20 40l48 106q15 33 55 33h101q20 0 22 -11.5t-11 -28.5zM399 40q-6 -25 -16.5 -32.5t-31.5 -7.5h-61q-20 0 -29 7t-19 33l-224 571q-11 27 -5 40t33 18l54 10q27 5 39.5 -2.5t23.5 -37.5l144 -398l79 323q6 25 16.5 32.5t31.5 7.5
h61q21 0 30.5 -7.5t17.5 -32.5l110 -336l129 431q9 31 22.5 38.5t40.5 1.5l54 -12q27 -6 32 -18.5t-4 -39.5l-183 -589q-8 -25 -17.5 -32.5t-30.5 -7.5h-71q-21 0 -30.5 7.5t-17.5 32.5l-99 312z" />
    <glyph glyph-name="wacute" unicode="&#x1e83;" horiz-adv-x="751" 
d="M455 608q-31 -40 -60 -40h-57q-37 0 -20 40l48 106q15 33 55 33h101q20 0 22 -11.5t-11 -28.5zM343 38q-6 -23 -16 -30.5t-30 -7.5h-76q-19 0 -27.5 7t-18.5 31l-164 381q-10 27 -5.5 35t32.5 20l47 20q25 9 36 1t24 -40l108 -271l48 226q6 25 16.5 32.5t31.5 7.5h46
q20 0 29.5 -7.5t18.5 -32.5l75 -223l75 303q7 30 20.5 38.5t38.5 0.5l57 -17q25 -7 30 -18.5t-3 -36.5l-117 -419q-6 -24 -16 -31t-30 -7h-76q-19 0 -28 7t-18 31l-64 183z" />
    <glyph glyph-name="Wdieresis" unicode="&#x1e84;" horiz-adv-x="945" 
d="M568 758q-32 0 -54.5 22.5t-22.5 54.5q0 31 22.5 54t54.5 23t54.5 -23t22.5 -54q0 -32 -22.5 -54.5t-54.5 -22.5zM358 758q-32 0 -54.5 22.5t-22.5 54.5q0 31 22.5 54t54.5 23t54.5 -23t22.5 -54q0 -32 -22.5 -54.5t-54.5 -22.5zM399 40q-6 -25 -16.5 -32.5t-31.5 -7.5
h-61q-20 0 -29 7t-19 33l-224 571q-11 27 -5 40t33 18l54 10q27 5 39.5 -2.5t23.5 -37.5l144 -398l79 323q6 25 16.5 32.5t31.5 7.5h61q21 0 30.5 -7.5t17.5 -32.5l110 -336l129 431q9 31 22.5 38.5t40.5 1.5l54 -12q27 -6 32 -18.5t-4 -39.5l-183 -589q-8 -25 -17.5 -32.5
t-30.5 -7.5h-71q-21 0 -30.5 7.5t-17.5 32.5l-99 312z" />
    <glyph glyph-name="wdieresis" unicode="&#x1e85;" horiz-adv-x="751" 
d="M483 578q-32 0 -54.5 22.5t-22.5 54.5q0 31 23 54t54 23t54 -23t23 -54q0 -32 -22.5 -54.5t-54.5 -22.5zM273 578q-32 0 -54.5 22.5t-22.5 54.5q0 31 23 54t54 23t54 -23t23 -54q0 -32 -22.5 -54.5t-54.5 -22.5zM343 38q-6 -23 -16 -30.5t-30 -7.5h-76q-19 0 -27.5 7
t-18.5 31l-164 381q-10 27 -5.5 35t32.5 20l47 20q25 9 36 1t24 -40l108 -271l48 226q6 25 16.5 32.5t31.5 7.5h46q20 0 29.5 -7.5t18.5 -32.5l75 -223l75 303q7 30 20.5 38.5t38.5 0.5l57 -17q25 -7 30 -18.5t-3 -36.5l-117 -419q-6 -24 -16 -31t-30 -7h-76q-19 0 -28 7
t-18 31l-64 183z" />
    <glyph glyph-name="Ygrave" unicode="&#x1ef2;" horiz-adv-x="568" 
d="M256 748q-29 0 -60 40l-78 99q-13 17 -11 28.5t22 11.5h101q40 0 55 -33l48 -106q17 -40 -20 -40h-57zM369 40q0 -40 -40 -40h-65q-27 0 -36 18q-4 8 -4 22v192l-206 379q-14 27 -7 39.5t35 18.5l49 10q31 7 44 -9q6 -9 19 -31l119 -211l13 -23l116 254q10 22 17 29
q13 18 46 11l54 -12q28 -6 34 -18.5t-6 -39.5l-182 -410v-179z" />
    <glyph glyph-name="ygrave" unicode="&#x1ef3;" horiz-adv-x="549" 
d="M256 568q-29 0 -60 40l-78 99q-13 17 -11 28.5t22 11.5h101q40 0 55 -33l48 -106q17 -40 -20 -40h-57zM270 -210q-129 0 -200 57q-11 13 -11 19.5t7 22.5l24 60q9 23 16 29t21 -1q76 -42 141 -42q96 0 96 88v72q-27 -42 -70 -64.5t-87 -22.5q-77 0 -123 52t-46 156v264
q0 40 40 40h60q40 0 40 -40v-219q0 -108 77 -108q51 0 80 33t29 100v174q0 40 40 40h60q40 0 40 -40v-451q0 -112 -64.5 -165.5t-169.5 -53.5z" />
    <glyph glyph-name="endash" unicode="&#x2013;" horiz-adv-x="530" 
d="M475 336q40 0 40 -40v-50q0 -40 -40 -40h-420q-40 0 -40 40v50q0 40 40 40h420z" />
    <glyph glyph-name="emdash" unicode="&#x2014;" horiz-adv-x="1030" 
d="M975 336q40 0 40 -40v-50q0 -40 -40 -40h-920q-40 0 -40 40v50q0 40 40 40h920z" />
    <glyph glyph-name="quoteleft" unicode="&#x2018;" horiz-adv-x="212" 
d="M20 504q0 85 40.5 131.5t112.5 46.5q25 0 25 -24v-23q0 -26 -25 -29q-32 -4 -45 -15t-16 -32l-1 -6q38 0 59.5 -23t21.5 -58q0 -34 -24.5 -58.5t-58.5 -24.5q-39 0 -64 29.5t-25 85.5z" />
    <glyph glyph-name="quoteright" unicode="&#x2019;" horiz-adv-x="212" 
d="M192 567q0 -85 -40.5 -131.5t-112.5 -46.5q-25 0 -25 24v23q0 26 25 29q32 4 45 15t16 32l1 6q-38 0 -59.5 23t-21.5 58q0 34 24.5 58.5t58.5 24.5q39 0 64 -29.5t25 -85.5z" />
    <glyph glyph-name="quotesinglbase" unicode="&#x201a;" horiz-adv-x="212" 
d="M39 -141q-25 0 -25 24v23q0 26 25 29q32 4 45 15t16 32l1 6q-38 0 -59.5 23t-21.5 58q0 34 24.5 58.5t58.5 24.5q39 0 64 -29.5t25 -85.5q0 -85 -40.5 -131.5t-112.5 -46.5z" />
    <glyph glyph-name="quotedblleft" unicode="&#x201c;" horiz-adv-x="422" 
d="M230 504q0 85 40.5 131.5t112.5 46.5q25 0 25 -24v-23q0 -26 -25 -29q-32 -4 -45 -15t-16 -32l-1 -6q38 0 59.5 -23t21.5 -58q0 -34 -24.5 -58.5t-58.5 -24.5q-39 0 -64 29.5t-25 85.5zM20 494q0 85 40.5 131.5t112.5 46.5q25 0 25 -24v-23q0 -26 -25 -29q-32 -4 -45 -15
t-16 -32l-1 -6q38 0 59.5 -23t21.5 -58q0 -34 -24.5 -58.5t-58.5 -24.5q-39 0 -64 29.5t-25 85.5z" />
    <glyph glyph-name="quotedblright" unicode="&#x201d;" horiz-adv-x="422" 
d="M402 577q0 -85 -40.5 -131.5t-112.5 -46.5q-25 0 -25 24v23q0 26 25 29q32 4 45 15t16 32l1 6q-38 0 -59.5 23t-21.5 58q0 34 24.5 58.5t58.5 24.5q39 0 64 -29.5t25 -85.5zM192 567q0 -85 -40.5 -131.5t-112.5 -46.5q-25 0 -25 24v23q0 26 25 29q32 4 45 15t16 32l1 6
q-38 0 -59.5 23t-21.5 58q0 34 24.5 58.5t58.5 24.5q39 0 64 -29.5t25 -85.5z" />
    <glyph glyph-name="quotedblbase" unicode="&#x201e;" horiz-adv-x="426" 
d="M406 47q0 -85 -40.5 -131.5t-112.5 -46.5q-25 0 -25 24v23q0 26 25 29q32 4 45 15t16 32l1 6q-38 0 -59.5 23t-21.5 58q0 34 24.5 58.5t58.5 24.5q39 0 64 -29.5t25 -85.5zM192 37q0 -85 -40.5 -131.5t-112.5 -46.5q-25 0 -25 24v23q0 26 25 29q32 4 45 15t16 32l1 6
q-38 0 -59.5 23t-21.5 58q0 34 24.5 58.5t58.5 24.5q39 0 64 -29.5t25 -85.5z" />
    <glyph glyph-name="dagger" unicode="&#x2020;" horiz-adv-x="556" 
d="M308 -100h-60q-40 0 -40 40v417l-143 -7q-21 -1 -30.5 7t-9.5 28v80q0 19 9.5 26.5t30.5 8.5l143 7v200q0 40 40 40h60q40 0 40 -40v-194l143 7q21 1 30.5 -7t9.5 -28v-80q0 -19 -9.5 -26.5t-30.5 -8.5l-143 -7v-423q0 -40 -40 -40z" />
    <glyph glyph-name="daggerdbl" unicode="&#x2021;" horiz-adv-x="556" 
d="M308 -100h-60q-40 0 -40 40v167h-143q-21 0 -30.5 7.5t-9.5 27.5v80q0 20 9.5 27.5t30.5 7.5h143v120l-143 -7q-21 -1 -30.5 7t-9.5 28v80q0 19 9.5 26.5t30.5 8.5l143 7v180q0 40 40 40h60q40 0 40 -40v-174l143 7q21 1 30.5 -7t9.5 -28v-80q0 -19 -9.5 -26.5
t-30.5 -8.5l-143 -7v-126h143q21 0 30.5 -7.5t9.5 -27.5v-80q0 -20 -9.5 -27.5t-30.5 -7.5h-143v-167q0 -40 -40 -40z" />
    <glyph glyph-name="bullet" unicode="&#x2022;" horiz-adv-x="396" 
d="M198 289q-45 0 -76.5 32t-31.5 76q0 45 31.5 76.5t76.5 31.5q44 0 76 -31.5t32 -76.5q0 -44 -32 -76t-76 -32z" />
    <glyph glyph-name="ellipsis" unicode="&#x2026;" horiz-adv-x="708" 
d="M354 0q-35 0 -60 25.5t-25 60.5q0 34 25.5 59.5t59.5 25.5q35 0 60.5 -25t25.5 -60t-25.5 -60.5t-60.5 -25.5zM104 -12q-35 0 -60 25.5t-25 60.5q0 34 25.5 59.5t59.5 25.5q35 0 60.5 -25t25.5 -60t-25.5 -60.5t-60.5 -25.5zM604 -22q-35 0 -60 25.5t-25 60.5
q0 34 25.5 59.5t59.5 25.5q35 0 60.5 -25t25.5 -60t-25.5 -60.5t-60.5 -25.5z" />
    <glyph glyph-name="perthousand" unicode="&#x2030;" horiz-adv-x="1283" 
d="M342 -63q-20 -33 -55 -15l-44 23q-36 19 -15 55l408 695q20 33 55 15l44 -23q36 -19 15 -55zM236 290q-90 0 -143 55.5t-53 141.5t53 141t143 55t143 -55t53 -141t-53 -141.5t-143 -55.5zM236 404q37 0 59.5 20t22.5 63q0 42 -23 62t-59 20t-58.5 -20t-22.5 -62
t22.5 -62.5t58.5 -20.5zM1047 -12q-88 0 -142 54q-52 -54 -141 -54q-90 0 -143 55.5t-53 141.5t53 141t143 55q88 0 142 -54q52 54 141 54q90 0 143 -55t53 -141t-53 -141.5t-143 -55.5zM764 102q37 0 59.5 20t22.5 63q0 42 -23 62t-59 20t-58.5 -20t-22.5 -62t22.5 -62.5
t58.5 -20.5zM1047 102q37 0 59.5 20t22.5 63q0 42 -23 62t-59 20t-58.5 -20t-22.5 -62t22.5 -62.5t58.5 -20.5z" />
    <glyph glyph-name="guilsinglleft" unicode="&#x2039;" horiz-adv-x="345" 
d="M38 317l208 172q26 22 47 -3l38 -44q18 -22 -6 -42l-178 -149l142 -119q23 -21 6 -42l-38 -44q-12 -14 -22 -14.5t-25 11.5l-172 141q-11 10 -14 16.5t-3 21.5v57q0 15 3 22t14 16z" />
    <glyph glyph-name="guilsinglright" unicode="&#x203a;" horiz-adv-x="345" 
d="M307 317q11 -9 14 -16t3 -22v-57q0 -15 -3 -21.5t-14 -16.5l-172 -141q-15 -12 -25 -11.5t-22 14.5l-38 44q-17 21 6 42l142 119l-178 149q-24 20 -6 42l38 44q21 25 47 3z" />
    <glyph glyph-name="fraction" unicode="&#x2044;" horiz-adv-x="209" 
d="M-30 9q-22 -37 -55 -15l-15 10q-34 23 -15 55l353 595q21 36 55 15l15 -9q36 -21 15 -55z" />
    <glyph glyph-name="zero.superior" unicode="&#x2070;" horiz-adv-x="422" 
d="M211 301q-77 0 -123.5 52t-46.5 138q0 87 47 139t124 52q76 0 122.5 -52.5t46.5 -138.5q0 -85 -46.5 -137.5t-123.5 -52.5zM212 401q38 0 58 24.5t20 65.5t-20.5 66t-58.5 25q-37 0 -57.5 -24.5t-20.5 -66.5q0 -41 20.5 -65.5t58.5 -24.5z" />
    <glyph glyph-name="four.superior" unicode="&#x2074;" horiz-adv-x="367" 
d="M281 333q0 -22 -22 -22h-43q-22 0 -22 22v39h-151q-21 0 -21 21v29q0 14 11 31l141 208q5 9 19 9h66q22 0 22 -22v-181h34q22 0 22 -22v-52q0 -21 -21 -21h-35v-39zM134 467h60v92z" />
    <glyph glyph-name="Euro" unicode="&#x20ac;" horiz-adv-x="660" 
d="M628 43q-93 -55 -200 -55q-110 0 -188.5 58t-108.5 161h-69q-21 0 -30.5 7.5t-9.5 27.5v30q0 20 9.5 27.5t30.5 7.5h52q-1 9 -1 28v22h-51q-21 0 -30.5 7.5t-9.5 27.5v30q0 20 9.5 27.5t30.5 7.5h67q30 105 109 165t192 60q106 0 198 -55q17 -11 6 -37l-30 -74
q-11 -29 -43 -15q-64 31 -131 31q-95 0 -141 -75h118q21 0 30.5 -7.5t9.5 -27.5v-30q0 -20 -9.5 -27.5t-30.5 -7.5h-148q-1 -7 -1 -22q0 -19 1 -28h148q21 0 30.5 -7.5t9.5 -27.5v-30q0 -20 -9.5 -27.5t-30.5 -7.5h-115q45 -69 138 -69q67 0 131 31q32 14 43 -15l30 -74
q11 -26 -6 -37z" />
    <glyph glyph-name="indianrupee" unicode="&#x20b9;" horiz-adv-x="534" 
d="M371 -9q-24 -6 -36 1q-8 6 -27 39l-105 181q-28 -4 -67 -4h-45q-25 0 -25 25v90q0 25 25 25h49q102 0 133 44h-167q-10 0 -15 1q-25 4 -25 34v30q0 6 2 14q5 21 38 21h167q-33 48 -133 48h-49q-25 0 -25 25v80q0 25 25 25h400q10 0 15 -1q19 -3 23 -20q2 -8 2 -14v-30
q0 -6 -2 -14q-4 -17 -23 -20q-5 -1 -15 -1h-95q24 -35 31 -78h64q10 0 15 -1q25 -4 25 -34v-30q0 -6 -2 -14q-5 -21 -38 -21h-63q-15 -92 -91 -139l106 -194q9 -17 9 -27q-1 -18 -21 -26q-7 -4 -16 -5z" />
    <glyph glyph-name="litre" unicode="&#x2113;" horiz-adv-x="387" 
d="M197 -15q-71 0 -112.5 42t-41.5 115v365q0 89 47.5 133t125.5 44q156 0 156 -163q0 -164 -189 -250v-81q0 -55 34 -55q27 0 46 19l16 16q26 26 53 -1l45 -43q23 -22 -10 -62q-34 -42 -82 -60.5t-88 -18.5zM183 525v-124q61 48 61 115q0 46 -32 46q-29 0 -29 -37z" />
    <glyph glyph-name="trademark" unicode="&#x2122;" horiz-adv-x="734" 
d="M442 355q0 -20 -20 -20h-70q-20 0 -20 20v305q0 20 20 20h70q14 0 17 -7l75 -131l66 116q7 12 19 12h70q20 0 20 -20v-305q0 -20 -20 -20h-70q-20 0 -20 20v156l-32 -73q-4 -8 -13 -8h-45q-9 0 -13 8l-34 76v-149zM213 355q0 -20 -20 -20h-70q-20 0 -20 20v200h-70
q-19 0 -19 20v75q0 20 20 20h248q20 0 20 -20v-75q0 -20 -20 -20h-69v-200z" />
    <glyph glyph-name="Ohm" unicode="&#x2126;" horiz-adv-x="720" 
d="M360 692q148 0 240 -89t92 -225q0 -72 -30 -131t-81 -90q-9 -6 -7.5 -11.5t11.5 -5.5h77q30 0 30 -30v-80q0 -30 -30 -30h-200q-56 0 -56 54v67q0 20 28 39q51 34 82 89t31 109q0 82 -51.5 133t-135.5 51t-135.5 -51t-51.5 -133q0 -54 31 -109t82 -89q28 -19 28 -39v-67
q0 -54 -56 -54h-200q-30 0 -30 30v80q0 30 30 30h77q10 0 11.5 5.5t-7.5 11.5q-51 31 -81 90t-30 131q0 136 92 225t240 89z" />
    <glyph glyph-name="estimated" unicode="&#x212e;" horiz-adv-x="712" 
d="M662 257h-496q-4 0 -4 -3v-150q0 -9 7 -18q77 -80 188 -80q118 0 197 90h44q-42 -49 -105.5 -78t-136.5 -29q-127 0 -216.5 80.5t-89.5 194.5q0 115 89.5 196t216.5 81t216.5 -81t89.5 -196v-7zM550 276v151q0 11 -8 19q-76 78 -185 78q-111 0 -187 -81q-8 -6 -8 -19
v-148q0 -4 4 -4h381q3 0 3 4z" />
    <glyph glyph-name="partialdiff" unicode="&#x2202;" horiz-adv-x="544" 
d="M273 -11q-110 0 -181 68t-71 172t63 169.5t171 65.5q42 0 87 -12q-51 108 -141 189q-30 27 0 48l42 29q18 12 28 12.5t28 -12.5q229 -183 229 -445q0 -131 -66.5 -207.5t-188.5 -76.5zM268 139q115 0 115 154v5q-49 26 -112 26q-51 0 -78 -26t-27 -70q0 -41 29 -65
t73 -24z" />
    <glyph glyph-name="increment" unicode="&#x2206;" horiz-adv-x="672" 
d="M625 0h-578q-27 0 -33 15.5t5 42.5l188 572q8 25 17.5 32.5t30.5 7.5h76q19 0 27 -6.5t21 -33.5l274 -572q27 -58 -28 -58zM466 125l-161 328l-112 -328h273z" />
    <glyph glyph-name="product" unicode="&#x220f;" horiz-adv-x="664" 
d="M584 20q0 -40 -40 -40h-65q-40 0 -40 40v505h-214v-485q0 -40 -40 -40h-65q-40 0 -40 40v485h-41q-39 0 -39 39v66q0 40 40 40h584q40 0 40 -40v-66q0 -39 -39 -39h-41v-505z" />
    <glyph glyph-name="summation" unicode="&#x2211;" horiz-adv-x="577" 
d="M546 -61q0 -39 -39 -39h-418q-39 0 -39 39v46q0 22 15 37l219 263l-220 262q-14 15 -14 37v46q0 40 40 40h416q40 0 40 -40v-46q0 -39 -39 -39h-253l190 -228q14 -17 14 -34t-13 -31l-191 -227h252q40 0 40 -40v-46z" />
    <glyph glyph-name="minus" unicode="&#x2212;" 
d="M407 402q40 0 40 -40v-50q0 -40 -40 -40h-314q-40 0 -40 40v50q0 40 40 40h314z" />
    <glyph glyph-name="divisionslash" unicode="&#x2215;" horiz-adv-x="209" 
d="M-30 9q-22 -37 -55 -15l-15 10q-34 23 -15 55l353 595q21 36 55 15l15 -9q36 -21 15 -55z" />
    <glyph glyph-name="radical" unicode="&#x221a;" horiz-adv-x="635" 
d="M396 0h-76q-24 0 -35 14q-6 9 -13 26l-138 315h-70q-14 0 -22 4q-17 9 -17 35v66q0 40 40 40h122q19 0 29 -9l2 -2q9 -8 20 -34l108 -237l136 441q10 30 23 39q14 9 40 1l44 -12q19 -5 26.5 -11.5t7.5 -17.5t-6 -29l-173 -589q-4 -15 -11 -26q-11 -14 -37 -14z" />
    <glyph glyph-name="infinity" unicode="&#x221e;" horiz-adv-x="683" 
d="M483 152q-92 0 -141 65q-50 -65 -142 -65q-76 0 -120.5 51.5t-44.5 131.5t44.5 131.5t120.5 51.5q93 0 140 -65q52 65 143 65q76 0 120.5 -51.5t44.5 -131.5t-44.5 -131.5t-120.5 -51.5zM215 268q76 0 76 67t-76 67q-73 0 -73 -67t73 -67zM468 268q73 0 73 67t-73 67
q-76 0 -76 -67t76 -67z" />
    <glyph glyph-name="integral" unicode="&#x222b;" horiz-adv-x="455" 
d="M279 -6q-5 -105 -63 -163.5t-154 -51.5l-29 2q-22 2 -30.5 11.5t-4.5 33.5l13 67q4 24 32 23l29 -2q41 -3 52.5 21t14.5 83l20 498q5 105 63 163.5t154 51.5l29 -2q22 -2 30.5 -11.5t4.5 -33.5l-13 -67q-4 -24 -32 -23l-29 2q-41 3 -52.5 -21t-14.5 -83z" />
    <glyph glyph-name="approxequal" unicode="&#x2248;" 
d="M328 361q-26 0 -75 9t-74 9q-37 0 -87 -14q-39 -11 -39 24v64q0 34 30 43q43 13 89 13q30 0 77.5 -9t71.5 -9q37 0 87 14q39 11 39 -24v-64q0 -34 -30 -43q-43 -13 -89 -13zM328 161q-26 0 -75 9t-74 9q-37 0 -87 -14q-39 -11 -39 24v64q0 34 30 43q43 13 89 13
q30 0 77.5 -9t71.5 -9q37 0 87 14q39 11 39 -24v-64q0 -34 -30 -43q-43 -13 -89 -13z" />
    <glyph glyph-name="notequal" unicode="&#x2260;" 
d="M169 71q-18 -35 -55 -15l-22 12q-35 19 -15 55l25 47h-19q-40 0 -40 40v50q0 40 40 40h88l38 70h-126q-40 0 -40 40v50q0 40 40 40h195l53 100q18 33 54 14l22 -12q36 -19 16 -55l-25 -47h19q40 0 40 -40v-50q0 -40 -40 -40h-88l-38 -70h126q40 0 40 -40v-50
q0 -40 -40 -40h-195z" />
    <glyph glyph-name="lessequal" unicode="&#x2264;" 
d="M407 92h-304q-14 0 -22 4q-18 9 -18 36v50q0 40 40 40h180l-180 89q-27 14 -35 27v1v1q-1 1 -1 2q-1 0 -1 2q-1 1 -1 2l-1 1v2v3l-1 3v66q0 10 6.5 18t12 11t21.5 11l19 9l285 141q18 9 29 0t11 -30v-60q0 -32 -40 -50l-185 -85l185 -85l11 -5.5t10 -4.5q19 -11 19 -30
v-129q0 -14 -4 -22q-9 -18 -36 -18z" />
    <glyph glyph-name="greaterequal" unicode="&#x2265;" 
d="M93 92q-27 0 -36 18q-4 8 -4 22v129q0 19 19 30q3 1 10 4.5l11 5.5l185 85l-185 85q-40 18 -40 50v60q0 21 11 30t29 0l285 -141l19 -9q16 -8 21.5 -11t12 -11t6.5 -18v-66v1l-1 -4v-3v-1l-1 -2q0 -1 -1 -2q0 -2 -1 -2q0 -1 -1 -2v-1v-1q-8 -13 -35 -27l-180 -89h180
q40 0 40 -40v-50q0 -27 -18 -36q-8 -4 -22 -4h-304z" />
    <glyph glyph-name="lozenge" unicode="&#x25ca;" 
d="M218 0q-29 0 -43 30l-146 297q-5 10 0 20l146 293q14 30 43 30h70q29 0 43 -30l146 -293q5 -10 0 -20l-146 -297q-14 -30 -43 -30h-70zM166 337l87 -188l88 188l-88 184z" />
    <glyph glyph-name="i.dot" horiz-adv-x="230" 
d="M115 549q-35 0 -60 25.5t-25 60.5t25 60t60 25t60 -25t25 -60t-25 -60.5t-60 -25.5zM185 40q0 -40 -40 -40h-60q-40 0 -40 40v400q0 40 40 40h60q40 0 40 -40v-400z" />
    <glyph glyph-name="caron.alt" 
d="M262 608q-6 -24 -17 -32t-33 -8h-42q-18 0 -24 8.5t-6 31.5v106q0 20 7 26.5t28 6.5h91q19 0 23 -8t-2 -32z" />
    <glyph glyph-name="revcommaaccent" 
d="M206 707q13 23 25.5 31.5t34.5 8.5h57q23 0 30 -9t0 -31l-34 -106q-7 -20 -17 -26.5t-33 -6.5h-96q-43 0 -21 40z" />
    <glyph glyph-name="ITF" horiz-adv-x="1739" 
d="M110 0v700h216v-700h-216zM371 496v204h216v-204h-216zM631 0v700h217v-700h-217zM892 496v204h216v-204h-216zM1152 0v700h217v-700h-217zM1413 496v204h216v-204h-216zM1413 247v205h216v-205h-216z" />
    </font>
</defs>
</svg>
