<svg width="38" height="38" viewBox="0 0 38 38" fill="none" xmlns="http://www.w3.org/2000/svg">
<path fill-rule="evenodd" clip-rule="evenodd" d="M36.8467 3.51334C37.0016 3.35838 37.1245 3.17441 37.2084 2.97195C37.2923 2.76948 37.3354 2.55248 37.3354 2.33334C37.3354 2.11419 37.2923 1.89719 37.2084 1.69473C37.1245 1.49226 37.0016 1.3083 36.8467 1.15334C36.6917 0.998378 36.5077 0.875458 36.3053 0.791594C36.1028 0.70773 35.8858 0.664566 35.6667 0.664566C35.4475 0.664566 35.2305 0.70773 35.028 0.791594C34.8256 0.875458 34.6416 0.998378 34.4867 1.15334L19 16.6433L3.51332 1.15334C3.35836 0.998378 3.1744 0.875458 2.97193 0.791594C2.76947 0.70773 2.55247 0.664566 2.33332 0.664566C2.11418 0.664566 1.89718 0.70773 1.69471 0.791594C1.49225 0.875458 1.30828 0.998378 1.15332 1.15334C0.998363 1.3083 0.875442 1.49226 0.791579 1.69473C0.707715 1.89719 0.664551 2.11419 0.664551 2.33334C0.664551 2.55248 0.707715 2.76948 0.791579 2.97195C0.875442 3.17441 0.998363 3.35838 1.15332 3.51334L16.6433 19L1.15332 34.4867C0.840367 34.7996 0.664551 35.2241 0.664551 35.6667C0.664551 36.1093 0.840367 36.5337 1.15332 36.8467C1.46628 37.1596 1.89074 37.3354 2.33332 37.3354C2.77591 37.3354 3.20037 37.1596 3.51332 36.8467L19 21.3567L34.4867 36.8467C34.7996 37.1596 35.2241 37.3354 35.6667 37.3354C36.1092 37.3354 36.5337 37.1596 36.8467 36.8467C37.1596 36.5337 37.3354 36.1093 37.3354 35.6667C37.3354 35.2241 37.1596 34.7996 36.8467 34.4867L21.3567 19L36.8467 3.51334Z" fill="#020038"/>
</svg>
