<svg width="26" height="26" viewBox="0 0 26 26" fill="none" xmlns="http://www.w3.org/2000/svg">
<g clip-path="url(#clip0_36_355)">
<path d="M13 9.75016C11.2667 9.75016 9.58752 10.021 8.01669 10.5302V13.8885C8.01669 14.311 7.76752 14.6902 7.41002 14.8635C6.34835 15.3943 5.38419 16.0768 4.52835 16.8677C4.33335 17.0627 4.06252 17.171 3.77002 17.171C3.46669 17.171 3.19585 17.0518 3.00085 16.8568L0.314187 14.1702C0.212907 14.0718 0.132794 13.9539 0.0787683 13.8234C0.0247427 13.693 -0.00205513 13.553 2.04237e-05 13.4118C2.04237e-05 13.1085 0.119187 12.8377 0.314187 12.6427C3.61835 9.51183 8.08169 7.5835 13 7.5835C17.9184 7.5835 22.3817 9.51183 25.6859 12.6427C25.8808 12.8377 26 13.1085 26 13.4118C26 13.7152 25.8808 13.986 25.6859 14.181L22.9992 16.8677C22.8042 17.0627 22.5334 17.1818 22.23 17.1818C21.9375 17.1818 21.6667 17.0627 21.4717 16.8785C20.6094 16.0743 19.6351 15.3992 18.5792 14.8743C18.3965 14.7854 18.2427 14.6467 18.1354 14.4742C18.0281 14.3018 17.9716 14.1025 17.9725 13.8993V10.541C16.4125 10.021 14.7334 9.75016 13 9.75016Z" fill="#FFC528"/>
</g>
<defs>
<clipPath id="clip0_36_355">
<rect width="26" height="26" fill="white"/>
</clipPath>
</defs>
</svg>
