<svg width="30" height="49" viewBox="0 0 30 49" fill="none" xmlns="http://www.w3.org/2000/svg">
<path d="M1.64374 41.475L18.6187 24.5L1.64374 7.52495C1.23869 7.11991 0.917397 6.63905 0.698188 6.10983C0.478978 5.58061 0.36615 5.0134 0.36615 4.44058C0.36615 3.86776 0.478978 3.30055 0.698188 2.77133C0.917397 2.24211 1.23869 1.76125 1.64374 1.3562C2.04879 0.951158 2.52965 0.629858 3.05886 0.410649C3.58808 0.19144 4.15529 0.0786133 4.72812 0.0786133C5.30094 0.0786133 5.86815 0.19144 6.39737 0.410649C6.92658 0.629858 7.40744 0.951158 7.81249 1.3562L27.8937 21.4375C29.6 23.1437 29.6 25.9 27.8937 27.6062L7.81249 47.6875C7.40774 48.093 6.92698 48.4148 6.39772 48.6343C5.86846 48.8539 5.3011 48.9669 4.72812 48.9669C4.15513 48.9669 3.58777 48.8539 3.05851 48.6343C2.52925 48.4148 2.04849 48.093 1.64374 47.6875C-0.0187591 45.9812 -0.062509 43.1812 1.64374 41.475Z" fill="white" fill-opacity="0.15"/>
</svg>
