<svg width="26" height="26" viewBox="0 0 26 26" fill="none" xmlns="http://www.w3.org/2000/svg">
<path d="M13 12.9998C13.5958 12.9998 14.1061 12.7875 14.5308 12.3628C14.9547 11.9389 15.1667 11.429 15.1667 10.8332C15.1667 10.2373 14.9547 9.72709 14.5308 9.30242C14.1061 8.87848 13.5958 8.6665 13 8.6665C12.4042 8.6665 11.8943 8.87848 11.4703 9.30242C11.0457 9.72709 10.8333 10.2373 10.8333 10.8332C10.8333 11.429 11.0457 11.9389 11.4703 12.3628C11.8943 12.7875 12.4042 12.9998 13 12.9998ZM13 23.4269C12.8556 23.4269 12.7111 23.3998 12.5667 23.3457C12.4222 23.2915 12.2958 23.2193 12.1875 23.129C9.5514 20.7998 7.58334 18.6379 6.28334 16.6431C4.98334 14.6476 4.33334 12.7832 4.33334 11.0498C4.33334 8.3415 5.2047 6.18387 6.94743 4.57692C8.68943 2.96998 10.707 2.1665 13 2.1665C15.2931 2.1665 17.3106 2.96998 19.0526 4.57692C20.7953 6.18387 21.6667 8.3415 21.6667 11.0498C21.6667 12.7832 21.0167 14.6476 19.7167 16.6431C18.4167 18.6379 16.4486 20.7998 13.8125 23.129C13.7042 23.2193 13.5778 23.2915 13.4333 23.3457C13.2889 23.3998 13.1445 23.4269 13 23.4269Z" fill="#FFC528"/>
</svg>
