<svg width="24" height="24" viewBox="0 0 24 24" fill="none" xmlns="http://www.w3.org/2000/svg">
<path d="M20.2864 3.71384C18.6475 2.07494 16.5594 0.958841 14.2862 0.50667C12.013 0.0544998 9.65672 0.28657 7.5154 1.17353C5.37408 2.0605 3.54386 3.56252 2.25619 5.48966C0.968517 7.4168 0.281225 9.6825 0.281225 12.0002C0.281224 14.318 0.968517 16.5837 2.25619 18.5108C3.54386 20.438 5.37408 21.94 7.5154 22.827C9.65672 23.7139 12.013 23.946 14.2862 23.4938C16.5594 23.0417 18.6475 21.9256 20.2864 20.2867C22.4783 18.0859 23.709 15.1064 23.709 12.0002C23.709 8.89414 22.4783 5.91457 20.2864 3.71384ZM4.37648 19.6237C2.86869 18.116 1.84188 16.1949 1.42588 14.1036C1.00989 12.0122 1.22339 9.84446 2.0394 7.87444C2.8554 5.90443 4.23727 4.22062 6.01023 3.03597C7.7832 1.85131 9.86764 1.219 12 1.219C14.1323 1.219 16.2167 1.85131 17.9897 3.03597C19.7627 4.22062 21.1445 5.90443 21.9605 7.87444C22.7766 9.84446 22.9901 12.0122 22.5741 14.1036C22.1581 16.1949 21.1313 18.116 19.6235 19.6237C17.6001 21.6428 14.8584 22.7766 12 22.7766C9.14156 22.7766 6.39988 21.6428 4.37648 19.6237ZM16.9718 12.3317L12.9943 16.3092C12.9064 16.3971 12.7872 16.4465 12.6629 16.4465C12.5386 16.4465 12.4193 16.3971 12.3314 16.3092C12.2435 16.2213 12.1941 16.102 12.1941 15.9777C12.1941 15.8534 12.2435 15.7342 12.3314 15.6463L15.5051 12.4726L7.35959 12.4643C7.29839 12.4652 7.23762 12.4539 7.18089 12.4309C7.12417 12.4079 7.07263 12.3738 7.02935 12.3305C6.98607 12.2872 6.95193 12.2357 6.92894 12.1789C6.90596 12.1222 6.8946 12.0614 6.89555 12.0002C6.8946 11.939 6.90596 11.8783 6.92894 11.8216C6.95193 11.7648 6.98607 11.7133 7.02935 11.67C7.07263 11.6267 7.12417 11.5926 7.18089 11.5696C7.23762 11.5466 7.29839 11.5353 7.35959 11.5362L15.5051 11.5279L12.3314 8.35423C12.2435 8.26632 12.1941 8.14709 12.1941 8.02277C12.1941 7.89845 12.2435 7.77922 12.3314 7.69132C12.4193 7.60341 12.5386 7.55402 12.6629 7.55402C12.7872 7.55402 12.9064 7.60341 12.9943 7.69132L16.9718 11.6688C17.0597 11.7567 17.1091 11.8759 17.1091 12.0002C17.1091 12.1246 17.0597 12.2438 16.9718 12.3317Z" fill="white"/>
</svg>
