<svg width="1194" height="1194" viewBox="0 0 1194 1194" fill="none" xmlns="http://www.w3.org/2000/svg">
<g opacity="0.65">
<g filter="url(#filter0_f_2_366)">
<path fill-rule="evenodd" clip-rule="evenodd" d="M597 784.791L565.045 1166L575.973 783.609L501.538 1158.84L555.213 780.082L439.233 1144.62L534.977 774.252L378.91 1123.52L515.521 766.194L321.33 1095.79L497.089 756.006L267.218 1061.79L479.914 743.821L217.251 1021.94L464.212 729.788L172.061 976.749L450.179 714.086L132.215 926.782L437.994 696.911L98.2128 872.67L427.806 678.479L70.4833 815.09L419.748 659.023L49.3768 754.767L413.917 638.787L35.1558 692.462L410.391 618.026L28 628.955L409.209 597L28 565.045L410.391 575.973L35.1558 501.538L413.917 555.213L49.3768 439.233L419.748 534.977L70.4833 378.91L427.806 515.521L98.2128 321.33L437.994 497.089L132.215 267.218L450.179 479.914L172.061 217.251L464.212 464.212L217.251 172.061L479.914 450.179L267.218 132.215L497.089 437.994L321.33 98.2128L515.521 427.806L378.91 70.4834L534.977 419.748L439.233 49.3768L555.213 413.917L501.538 35.1558L575.973 410.391L565.045 28L597 409.209L628.955 28L618.026 410.391L692.462 35.1558L638.787 413.917L754.767 49.3768L659.023 419.748L815.09 70.4834L678.479 427.806L872.67 98.2128L696.911 437.994L926.782 132.215L714.086 450.179L976.749 172.061L729.788 464.212L1021.94 217.251L743.821 479.914L1061.79 267.218L756.006 497.089L1095.79 321.33L766.194 515.521L1123.52 378.91L774.252 534.977L1144.62 439.233L780.083 555.213L1158.84 501.538L783.609 575.973L1166 565.045L784.791 597L1166 628.955L783.609 618.026L1158.84 692.462L780.083 638.787L1144.62 754.767L774.252 659.023L1123.52 815.09L766.194 678.479L1095.79 872.67L756.006 696.911L1061.79 926.782L743.821 714.086L1021.94 976.749L729.788 729.788L976.749 1021.94L714.086 743.821L926.782 1061.79L696.911 756.006L872.67 1095.79L678.479 766.194L815.09 1123.52L659.023 774.252L754.767 1144.62L638.787 780.082L692.462 1158.84L618.026 783.609L628.955 1166L597 784.791Z" fill="white"/>
</g>
</g>
<defs>
<filter id="filter0_f_2_366" x="0.80521" y="0.80521" width="1192.39" height="1192.39" filterUnits="userSpaceOnUse" color-interpolation-filters="sRGB">
<feFlood flood-opacity="0" result="BackgroundImageFix"/>
<feBlend mode="normal" in="SourceGraphic" in2="BackgroundImageFix" result="shape"/>
<feGaussianBlur stdDeviation="13.5974" result="effect1_foregroundBlur_2_366"/>
</filter>
</defs>
</svg>
