<svg width="28" height="29" viewBox="0 0 28 29" fill="none" xmlns="http://www.w3.org/2000/svg">
<g clip-path="url(#clip0_1_5192)">
<path d="M14 19.1592C16.4162 19.1592 18.375 17.2004 18.375 14.7842C18.375 12.3679 16.4162 10.4092 14 10.4092C11.5838 10.4092 9.625 12.3679 9.625 14.7842C9.625 17.2004 11.5838 19.1592 14 19.1592Z" stroke="white" stroke-width="2" stroke-miterlimit="10"/>
<path d="M19.25 4.28418H8.75C5.85051 4.28418 3.5 6.63468 3.5 9.53418V20.0342C3.5 22.9337 5.85051 25.2842 8.75 25.2842H19.25C22.1495 25.2842 24.5 22.9337 24.5 20.0342V9.53418C24.5 6.63468 22.1495 4.28418 19.25 4.28418Z" stroke="white" stroke-width="2" stroke-linecap="round" stroke-linejoin="round"/>
<path d="M19.6875 10.4092C20.4124 10.4092 21 9.82155 21 9.09668C21 8.37181 20.4124 7.78418 19.6875 7.78418C18.9626 7.78418 18.375 8.37181 18.375 9.09668C18.375 9.82155 18.9626 10.4092 19.6875 10.4092Z" fill="white"/>
</g>
<defs>
<clipPath id="clip0_1_5192">
<rect width="28" height="28" fill="white" transform="translate(0 0.78418)"/>
</clipPath>
</defs>
</svg>
