<svg width="96" height="97" viewBox="0 0 96 97" fill="none" xmlns="http://www.w3.org/2000/svg">
<rect y="0.783936" width="96" height="96" rx="48" fill="white" fill-opacity="0.7"/>
<path d="M59.5034 45.1539L42.3334 35.2339C41.8426 34.9436 41.2836 34.7883 40.7134 34.7839C39.8169 34.7839 38.9572 35.14 38.3234 35.7739C37.6895 36.4078 37.3334 37.2675 37.3334 38.1639V59.4539C37.3335 60.0488 37.493 60.6328 37.7952 61.1452C38.0974 61.6576 38.5314 62.0796 39.052 62.3675C39.5726 62.6553 40.1608 62.7985 40.7555 62.782C41.3501 62.7656 41.9295 62.5901 42.4334 62.2739L59.6234 51.4139C60.1579 51.0794 60.5966 50.6122 60.8968 50.0577C61.197 49.5032 61.3484 48.8804 61.3363 48.25C61.3243 47.6195 61.1491 47.003 60.8278 46.4604C60.5066 45.9178 60.0503 45.4677 59.5034 45.1539Z" fill="url(#paint0_linear_1_5073)"/>
<defs>
<linearGradient id="paint0_linear_1_5073" x1="49.3352" y1="34.7839" x2="49.3352" y2="62.7833" gradientUnits="userSpaceOnUse">
<stop stop-color="#FE6700"/>
<stop offset="1" stop-color="#FE9415"/>
</linearGradient>
</defs>
</svg>
