<svg width="35" height="35" viewBox="0 0 35 35" fill="none" xmlns="http://www.w3.org/2000/svg">
<g clip-path="url(#clip0_158_119)">
<path d="M17.5 0.700195C8.22151 0.700195 0.700012 8.2217 0.700012 17.5002C0.700012 26.7787 8.22151 34.3002 17.5 34.3002C26.7785 34.3002 34.3 26.7787 34.3 17.5002C34.3 8.2217 26.7785 0.700195 17.5 0.700195ZM13.3875 24.4634H9.98551V13.5154H13.3875V24.4634ZM11.6655 12.1714C10.591 12.1714 9.89626 11.4102 9.89626 10.4687C9.89626 9.50795 10.612 8.76945 11.7093 8.76945C12.8065 8.76945 13.4785 9.50795 13.4995 10.4687C13.4995 11.4102 12.8065 12.1714 11.6655 12.1714ZM25.8125 24.4634H22.4105V18.3962C22.4105 16.9839 21.917 16.0249 20.6868 16.0249C19.747 16.0249 19.1888 16.6742 18.942 17.2989C18.851 17.5212 18.8283 17.8362 18.8283 18.1494V24.4617H15.4245V17.0067C15.4245 15.6399 15.3808 14.4972 15.3353 13.5137H18.291L18.4468 15.0344H18.515C18.963 14.3204 20.0603 13.2669 21.896 13.2669C24.1343 13.2669 25.8125 14.7667 25.8125 17.9902V24.4634Z" fill="white"/>
</g>
<defs>
<clipPath id="clip0_158_119">
<rect width="35" height="35" fill="white"/>
</clipPath>
</defs>
</svg>
