<svg width="25" height="25" viewBox="0 0 25 25" fill="none" xmlns="http://www.w3.org/2000/svg">
<path d="M23.6979 12.5C23.6979 14.7147 23.0412 16.8797 21.8107 18.7212C20.5803 20.5627 18.8314 21.998 16.7852 22.8455C14.7391 23.6931 12.4876 23.9148 10.3154 23.4828C8.1432 23.0507 6.14792 21.9842 4.58186 20.4181C3.0158 18.8521 1.94931 16.8568 1.51723 14.6846C1.08516 12.5124 1.30691 10.2609 2.15446 8.21475C3.002 6.16859 4.43727 4.41972 6.27876 3.18928C8.12024 1.95883 10.2852 1.30209 12.5 1.30209M20.5802 4.41979L11.8172 16.3479M6.16248 11.6141L11.8172 16.3479" stroke="white" stroke-linecap="round" stroke-linejoin="round"/>
</svg>
