<svg width="26" height="26" viewBox="0 0 26 26" fill="none" xmlns="http://www.w3.org/2000/svg">
<path d="M13 23.8332C11.5194 23.8332 10.1201 23.5486 8.80207 22.9795C7.48402 22.4111 6.33316 21.6347 5.34949 20.6503C4.3651 19.6667 3.58871 18.5158 3.02032 17.1978C2.45121 15.8797 2.16666 14.4804 2.16666 12.9998C2.16666 11.5012 2.45121 10.0976 3.02032 8.78892C3.58871 7.47953 4.3651 6.333 5.34949 5.34934C6.33316 4.36495 7.48402 3.5882 8.80207 3.01909C10.1201 2.4507 11.5194 2.1665 13 2.1665C14.4986 2.1665 15.9022 2.4507 17.2109 3.01909C18.5203 3.5882 19.6668 4.36495 20.6505 5.34934C21.6349 6.333 22.4113 7.47953 22.9797 8.78892C23.5488 10.0976 23.8333 11.5012 23.8333 12.9998V14.5707C23.8333 15.6359 23.4679 16.5431 22.737 17.292C22.0054 18.0417 21.1069 18.4165 20.0417 18.4165C19.3917 18.4165 18.7868 18.2721 18.2271 17.9832C17.6674 17.6943 17.2069 17.3151 16.8458 16.8457C16.3583 17.3332 15.7852 17.717 15.1266 17.9973C14.4672 18.2768 13.7583 18.4165 13 18.4165C11.5014 18.4165 10.2241 17.8882 9.16824 16.8316C8.11163 15.7757 7.58332 14.4984 7.58332 12.9998C7.58332 11.5012 8.11163 10.2236 9.16824 9.167C10.2241 8.11111 11.5014 7.58317 13 7.58317C14.4986 7.58317 15.7762 8.11111 16.8328 9.167C17.8887 10.2236 18.4167 11.5012 18.4167 12.9998V14.5707C18.4167 15.0943 18.5792 15.5049 18.9042 15.8024C19.2292 16.1007 19.6083 16.2498 20.0417 16.2498C20.475 16.2498 20.8542 16.1007 21.1792 15.8024C21.5042 15.5049 21.6667 15.0943 21.6667 14.5707V12.9998C21.6667 10.6346 20.8134 8.59862 19.1067 6.892C17.4009 5.18612 15.3653 4.33317 13 4.33317C10.6347 4.33317 8.59877 5.18612 6.89216 6.892C5.18627 8.59862 4.33332 10.6346 4.33332 12.9998C4.33332 15.3651 5.18627 17.4007 6.89216 19.1066C8.59877 20.8132 10.6347 21.6665 13 21.6665H18.4167V23.8332H13ZM13 16.2498C13.9028 16.2498 14.6701 15.9339 15.3021 15.3019C15.934 14.67 16.25 13.9026 16.25 12.9998C16.25 12.0971 15.934 11.3297 15.3021 10.6978C14.6701 10.0658 13.9028 9.74984 13 9.74984C12.0972 9.74984 11.3299 10.0658 10.6979 10.6978C10.066 11.3297 9.74999 12.0971 9.74999 12.9998C9.74999 13.9026 10.066 14.67 10.6979 15.3019C11.3299 15.9339 12.0972 16.2498 13 16.2498Z" fill="#FFC528"/>
</svg>
