<svg width="162" height="53" viewBox="0 0 162 53" fill="none" xmlns="http://www.w3.org/2000/svg">
<path d="M7.47184 16.2975H12.1665V19.0137H3.76898V16.3637L8.26531 10.865H3.76898V8.14874H12.1004V10.7987L7.47184 16.2975Z" fill="#004AAD"/>
<path d="M14.3486 13.5812C14.3486 12.455 14.5469 11.4612 15.0098 10.6662C15.4065 9.80499 16.0016 9.14249 16.729 8.74499C17.4563 8.28124 18.2498 8.08249 19.1755 8.08249C19.969 8.08249 20.6302 8.21499 21.2253 8.54624C21.8204 8.87749 22.2171 9.27499 22.5478 9.80499V8.28124H25.8539V19.1462H22.5478V17.6225C22.2171 18.1525 21.7543 18.55 21.1592 18.8812C20.5641 19.2125 19.9029 19.345 19.1755 19.345C18.3159 19.345 17.4563 19.1462 16.7951 18.6825C16.0678 18.2187 15.4727 17.5562 15.0759 16.695C14.5469 15.7012 14.3486 14.7075 14.3486 13.5812ZM22.4816 13.5812C22.4816 12.72 22.2171 12.1237 21.7543 11.5937C21.2914 11.13 20.7624 10.865 20.1012 10.865C19.44 10.865 18.911 11.13 18.4482 11.5937C17.9853 12.0575 17.7869 12.72 17.7869 13.5812C17.7869 14.4425 17.9853 15.105 18.4482 15.5687C18.911 16.0325 19.44 16.2975 20.1012 16.2975C20.7624 16.2975 21.2914 16.0325 21.7543 15.5687C22.2171 15.105 22.4816 14.4425 22.4816 13.5812Z" fill="#004AAD"/>
<path d="M34.0531 12.2563L32.7967 12.6538V19.0138H29.4906V13.6475L28.1682 14.045V11.1963L29.4906 10.7988V4.57126H32.7967V9.80501L34.0531 9.40751V12.2563Z" fill="#004AAD"/>
<path d="M41.3926 19.2125C40.3347 19.2125 39.3428 19.0138 38.4832 18.55C37.6236 18.0863 36.9624 17.4238 36.4996 16.6288C36.0367 15.7675 35.7722 14.7738 35.7722 13.6475C35.7722 12.5213 36.0367 11.5275 36.4996 10.7325C37.0285 9.87125 37.6898 9.20875 38.5494 8.745C39.409 8.28125 40.4008 8.0825 41.4587 8.0825C42.5167 8.0825 43.5085 8.28125 44.3681 8.745C45.2277 9.20875 45.889 9.87125 46.4179 10.7325C46.9469 11.5938 47.1453 12.5875 47.1453 13.6475C47.1453 14.7738 46.8808 15.7675 46.4179 16.6288C45.889 17.49 45.2277 18.1525 44.3681 18.6163C43.4424 18.9475 42.4506 19.2125 41.3926 19.2125ZM41.3926 16.2975C42.0538 16.2975 42.5828 16.0325 43.0457 15.5688C43.5085 15.105 43.7069 14.4425 43.7069 13.5813C43.7069 12.72 43.5085 12.0575 43.0457 11.5938C42.5828 11.13 42.0539 10.865 41.4587 10.865C40.7975 10.865 40.2685 11.0638 39.8057 11.5275C39.409 11.9913 39.1445 12.6538 39.1445 13.515C39.1445 14.3763 39.3428 15.0388 39.8057 15.5025C40.2685 16.0988 40.7975 16.2975 41.3926 16.2975ZM43.9714 5.36625L39.2767 7.35375V5.035L43.9714 2.7825V5.36625Z" fill="#004AAD"/>
<path d="M52.9641 16.2975H57.6588V19.0137H49.2612V16.3637L53.7576 10.865H49.2612V8.14874H57.5265V10.7987L52.9641 16.2975ZM53.5592 6.95624C53.1625 6.95624 52.8318 6.82374 52.5674 6.55874C52.3029 6.29374 52.1706 5.96249 52.1706 5.56499C52.1706 5.16749 52.3029 4.83624 52.5674 4.57124C52.8318 4.30624 53.1625 4.17374 53.5592 4.17374C53.9559 4.17374 54.3527 4.30624 54.6171 4.57124C54.8816 4.83624 55.0139 5.16749 55.0139 5.63124C55.0139 6.02874 54.8816 6.35999 54.6171 6.62499C54.2865 6.82374 53.9559 6.95624 53.5592 6.95624Z" fill="#004AAD"/>
<path d="M70.0237 19.2125C69.0979 19.2125 68.2384 19.08 67.4449 18.7488C66.7175 18.4175 66.1224 17.9538 65.7257 17.4238C65.329 16.8275 65.0645 16.2313 64.9984 15.5025H68.3045C68.3706 15.9 68.5028 16.165 68.8335 16.43C69.1641 16.6288 69.5608 16.7613 70.0237 16.7613C70.4204 16.7613 70.751 16.695 71.0155 16.4963C71.2139 16.2975 71.3461 16.0988 71.3461 15.8338C71.3461 15.5025 71.1477 15.3038 70.8171 15.1713C70.4865 15.0388 69.9575 14.84 69.2302 14.6413C68.4367 14.4425 67.7755 14.2438 67.2465 14.045C66.7175 13.8463 66.2547 13.515 65.9241 13.1175C65.5273 12.6538 65.329 12.0575 65.329 11.3288C65.329 10.7325 65.5273 10.1363 65.8579 9.60626C66.1886 9.07626 66.7175 8.67876 67.3788 8.41376C68.04 8.08251 68.8335 7.95001 69.7592 7.95001C71.1477 7.95001 72.2057 8.28126 72.9992 8.94376C73.7926 9.60626 74.2555 10.5338 74.3877 11.5938H71.3461C71.28 11.1963 71.1477 10.9313 70.8171 10.6663C70.5526 10.4675 70.1559 10.335 69.7592 10.335C69.3624 10.335 69.0318 10.4013 68.8335 10.6C68.6351 10.7325 68.5028 10.9313 68.5028 11.1963C68.5028 11.5275 68.7012 11.7263 69.0318 11.925C69.3624 12.0575 69.8914 12.2563 70.5526 12.3888C71.3461 12.5875 72.0073 12.7863 72.5363 12.985C73.0653 13.1838 73.462 13.515 73.8588 13.9788C74.2555 14.4425 74.4539 15.0388 74.4539 15.7675C74.4539 16.43 74.2555 16.96 73.9249 17.49C73.5943 18.02 73.0653 18.3513 72.4041 18.6825C71.6767 19.08 70.9494 19.2125 70.0237 19.2125Z" fill="#004AAD"/>
<path d="M80.8016 9.67251C81.1322 9.14251 81.5951 8.74501 82.1241 8.41376C82.7192 8.08251 83.3804 7.95001 84.1077 7.95001C84.9673 7.95001 85.8269 8.14876 86.5543 8.61251C87.2816 9.07626 87.8767 9.73876 88.2735 10.5338C88.6702 11.395 88.9347 12.3225 88.9347 13.4488C88.9347 14.575 88.7363 15.5688 88.2735 16.43C87.8767 17.2913 87.2816 17.9538 86.5543 18.4175C85.8269 18.8813 85.0335 19.08 84.1077 19.08C83.3804 19.08 82.7192 18.9475 82.1241 18.6163C81.529 18.285 81.0661 17.8875 80.7355 17.4238V24.115H77.4294V8.14876H80.7355V9.67251H80.8016ZM85.5624 13.5813C85.5624 12.72 85.3641 12.1238 84.9012 11.5938C84.4384 11.13 83.8433 10.865 83.182 10.865C82.5208 10.865 81.9257 11.13 81.4629 11.5938C81 12.0575 80.8016 12.72 80.8016 13.5813C80.8016 14.4425 81 15.105 81.4629 15.5688C81.9257 16.0325 82.4547 16.2975 83.182 16.2975C83.8433 16.2975 84.3722 16.0325 84.8351 15.5688C85.298 15.105 85.5624 14.4425 85.5624 13.5813Z" fill="#004AAD"/>
<path d="M96.671 19.2125C95.613 19.2125 94.6212 19.0138 93.7616 18.55C92.902 18.0863 92.2408 17.4238 91.7779 16.6288C91.3151 15.7675 91.0506 14.7738 91.0506 13.6475C91.0506 12.5213 91.3151 11.5275 91.7779 10.7325C92.3069 9.87125 92.9681 9.20875 93.8277 8.745C94.6873 8.28125 95.6792 8.0825 96.7371 8.0825C97.7951 8.0825 98.7869 8.28125 99.6465 8.745C100.506 9.20875 101.167 9.87125 101.696 10.7325C102.225 11.5938 102.424 12.5875 102.424 13.6475C102.424 14.7738 102.159 15.7675 101.696 16.6288C101.167 17.49 100.506 18.1525 99.6465 18.6163C98.6547 18.9475 97.729 19.2125 96.671 19.2125ZM96.671 16.2975C97.3322 16.2975 97.8612 16.0325 98.3241 15.5688C98.7869 15.105 98.9853 14.4425 98.9853 13.5813C98.9853 12.72 98.7869 12.0575 98.3241 11.5938C97.8612 11.13 97.3322 10.865 96.7371 10.865C96.0759 10.865 95.5469 11.0638 95.0841 11.5275C94.6873 11.9913 94.4228 12.6538 94.4228 13.515C94.4228 14.3763 94.6212 15.0388 95.0841 15.5025C95.4808 16.0988 96.0098 16.2975 96.671 16.2975ZM99.2498 5.36625L94.5551 7.35375V5.035L99.2498 2.7825V5.36625Z" fill="#004AAD"/>
<path d="M109.962 12.2563L108.705 12.6538V19.0138H105.333V13.6475L104.077 14.045V11.1963L105.333 10.7988V4.57126H108.705V9.80501L109.962 9.40751V12.2563Z" fill="#004AAD"/>
<path d="M118.954 19.0138L115.648 14.4425V19.0138H112.342V4.57126H115.648V12.5875L118.954 8.14876H123.054L118.558 13.6475L123.12 19.0138H118.954Z" fill="#004AAD"/>
<path d="M135.617 13.4488C135.617 13.78 135.617 14.1113 135.551 14.4425H128.013C128.079 15.105 128.278 15.635 128.674 16.0325C129.071 16.3638 129.534 16.5625 130.063 16.5625C130.922 16.5625 131.451 16.2313 131.782 15.5025H135.353C135.154 16.3638 134.758 17.0925 134.096 17.755C133.501 18.3513 132.708 18.815 131.848 19.08L131.253 19.345C130.79 19.61 130.393 19.8088 130.261 20.0075C130.063 20.2063 129.997 20.405 129.997 20.6038C129.997 20.8025 130.063 20.935 130.195 21.0675C130.327 21.2 130.526 21.2663 130.856 21.2663C131.319 21.2663 131.782 21.1338 132.377 20.935V22.79C131.782 22.9888 131.121 23.055 130.46 23.055C129.6 23.055 128.939 22.8563 128.41 22.4588C127.881 22.0613 127.616 21.5313 127.616 20.8025C127.616 20.0738 127.947 19.4775 128.542 18.8813C127.418 18.55 126.492 17.9538 125.831 16.96C125.17 16.0325 124.839 14.84 124.839 13.515C124.839 12.3888 125.038 11.395 125.5 10.5338C125.963 9.67251 126.624 9.01001 127.418 8.61251C128.278 8.14876 129.203 7.95001 130.261 7.95001C131.319 7.95001 132.245 8.14876 133.104 8.61251C133.898 9.07626 134.559 9.67251 135.022 10.5338C135.353 11.395 135.617 12.3225 135.617 13.4488ZM132.179 12.5213C132.179 11.925 131.98 11.5275 131.584 11.13C131.187 10.7988 130.724 10.6 130.129 10.6C129.6 10.6 129.071 10.7988 128.74 11.13C128.344 11.4613 128.145 11.925 128.013 12.5213H132.179Z" fill="#004AAD"/>
<path d="M87.4138 42.5325C86.8187 42.5325 86.3559 42.3338 85.9592 42.0025C85.5624 41.6713 85.4302 41.2075 85.4302 40.7438C85.4302 40.2138 85.6285 39.8163 85.9592 39.4188C86.3559 39.0875 86.8187 38.8888 87.4138 38.8888C88.009 38.8888 88.4718 39.0875 88.8024 39.4188C89.1992 39.75 89.3314 40.2138 89.3314 40.7438C89.3314 41.2738 89.133 41.6713 88.8024 42.0025C88.4718 42.3338 87.9428 42.5325 87.4138 42.5325ZM97.2661 42.5325C96.2081 42.5325 95.2163 42.3338 94.4228 41.87C93.5632 41.4063 92.902 40.7438 92.4392 39.9488C91.9763 39.0875 91.7118 38.0938 91.7118 36.9675C91.7118 35.8413 91.9763 34.8475 92.4392 33.9863C92.9681 33.125 93.6294 32.4625 94.4889 31.9988C95.3485 31.535 96.3404 31.3363 97.3983 31.3363C98.4563 31.3363 99.4481 31.535 100.308 31.9988C101.167 32.4625 101.829 33.125 102.358 33.9863C102.887 34.8475 103.085 35.8413 103.085 36.9675C103.085 38.0938 102.82 39.0875 102.358 39.9488C101.829 40.81 101.167 41.4725 100.308 41.9363C99.3159 42.2675 98.3241 42.5325 97.2661 42.5325ZM97.2661 39.6175C97.9273 39.6175 98.4563 39.3525 98.9192 38.8888C99.382 38.425 99.5804 37.7625 99.5804 36.9013C99.5804 36.04 99.382 35.3775 98.9192 34.9138C98.4563 34.45 97.9273 34.185 97.3322 34.185C96.671 34.185 96.142 34.3838 95.7453 34.9138C95.2824 35.3775 95.0841 36.04 95.0841 36.9013C95.0841 37.7625 95.2824 38.425 95.7453 38.8888C96.0759 39.4188 96.6049 39.6175 97.2661 39.6175ZM112.342 31.3363C113.598 31.3363 114.656 31.7338 115.384 32.595C116.177 33.39 116.508 34.5825 116.508 35.9738V42.3338H113.202V36.4375C113.202 35.7088 113.003 35.1125 112.607 34.715C112.21 34.3175 111.747 34.1188 111.086 34.1188C110.424 34.1188 109.962 34.3175 109.565 34.715C109.168 35.1125 108.97 35.7088 108.97 36.4375V42.3338H105.664V31.4688H108.97V32.9263C109.3 32.4625 109.763 32.065 110.358 31.8C110.953 31.4688 111.615 31.3363 112.342 31.3363ZM123.186 42.3338H119.88V27.9575H123.186V42.3338ZM128.278 30.3425C127.682 30.3425 127.22 30.1438 126.823 29.8125C126.426 29.4813 126.294 29.0175 126.294 28.5538C126.294 28.0238 126.492 27.6263 126.823 27.2288C127.22 26.8975 127.682 26.6988 128.278 26.6988C128.873 26.6988 129.335 26.8975 129.666 27.2288C130.063 27.56 130.195 28.0238 130.195 28.5538C130.195 29.0838 129.997 29.4813 129.666 29.8125C129.269 30.1438 128.807 30.3425 128.278 30.3425ZM129.931 42.3338H126.624V31.4688H129.931V42.3338ZM139.915 31.3363C141.171 31.3363 142.229 31.7338 142.957 32.595C143.75 33.39 144.081 34.5825 144.081 35.9738V42.3338H140.775V36.4375C140.775 35.7088 140.576 35.1125 140.18 34.715C139.783 34.3175 139.32 34.1188 138.659 34.1188C137.998 34.1188 137.535 34.3175 137.138 34.715C136.741 35.1125 136.543 35.7088 136.543 36.4375V42.3338H133.237V31.4688H136.543V32.9263C136.873 32.4625 137.336 32.065 137.931 31.8C138.593 31.4688 139.188 31.3363 139.915 31.3363ZM157.636 36.7688C157.636 37.1 157.636 37.4313 157.57 37.4313H150.098C150.164 38.425 150.362 38.8888 150.759 39.2863C151.156 39.6175 151.619 39.8163 152.148 39.8163C153.007 39.8163 153.073 39.75 153.602 39.2863L157.239 39.22C157.041 39.9488 156.909 40.1475 156.38 40.7438C155.917 41.34 155.322 41.7375 154.594 42.0688C153.867 42.4 153.073 42.5325 152.214 42.5325C151.156 42.5325 150.23 42.3338 149.371 41.87C148.511 41.4063 147.916 40.7438 147.453 39.9488C146.99 39.0875 146.726 38.0938 146.726 36.9675C146.726 35.8413 146.924 34.8475 147.387 33.9863C147.85 33.125 148.511 32.4625 149.304 32.065C150.164 31.6013 151.09 31.4025 152.148 31.4025C153.206 31.4025 154.131 31.6013 154.925 32.065C155.718 32.5288 156.38 33.125 156.842 33.9863C157.438 34.715 157.636 35.6425 157.636 36.7688ZM154.264 35.4438C154.264 34.8475 154.065 34.3838 153.669 34.0525C153.272 33.7213 152.809 33.5225 152.214 33.5225C151.685 33.5225 151.156 33.7213 150.825 33.9863C150.429 34.3175 150.23 34.7813 150.098 35.3775H154.264V35.4438Z" stroke="white" stroke-width="1.105" stroke-miterlimit="3.044"/>
<path d="M6.41388 36.4375C6.41388 36.305 6.48 36.2387 6.48 36.1062L6.54612 35.8412C6.61224 35.6425 6.67837 35.4437 6.74449 35.3112C6.87673 34.98 7.0751 34.6487 7.27347 34.3175C7.47184 34.0525 7.6702 33.7212 7.93469 33.4562C8.46367 32.9262 9.05877 32.5287 9.72 32.1975L9.85224 32.1312L9.98449 32.065C10.0506 31.9987 10.1829 31.9987 10.249 31.9325C10.4473 31.8662 10.6457 31.8 10.8441 31.7337C11.0424 31.6675 11.2408 31.6675 11.5053 31.6012C11.7698 31.535 11.8359 31.2037 11.6376 31.0712C11.4392 30.9387 11.1747 30.8725 10.9102 30.8062C10.6457 30.74 10.3812 30.6737 10.1829 30.6737C10.0506 30.6737 9.91837 30.6737 9.78612 30.6737H9.58775C9.52163 30.6737 9.45551 30.6737 9.38939 30.6737C8.33143 30.74 7.27347 31.27 6.54612 32.065C6.14939 32.4625 5.8849 32.9262 5.62041 33.39C5.48816 33.92 5.35592 34.45 5.28979 34.98C5.28979 35.1125 5.28979 35.245 5.28979 35.3775C5.28979 35.4437 5.28979 35.51 5.28979 35.5762C5.28979 35.6425 5.28979 35.7087 5.28979 35.775C5.28979 35.9075 5.2898 36.04 5.35592 36.1725C5.35592 36.305 5.42204 36.4375 5.48816 36.57C5.55428 36.7687 5.62041 36.9675 5.75265 37.1C5.8849 37.365 6.34775 37.2987 6.34775 36.9675C6.34775 36.7687 6.34775 36.57 6.41388 36.4375ZM74.7184 36.9675C74.7845 37.2987 75.1812 37.365 75.3135 37.1C75.3796 36.9012 75.5118 36.7025 75.578 36.57C75.6441 36.4375 75.6441 36.305 75.7102 36.1725C75.7102 36.04 75.7763 35.9075 75.7763 35.775C75.7763 35.7087 75.7763 35.6425 75.7763 35.5762C75.7763 35.51 75.7763 35.4437 75.7763 35.3775C75.7763 35.245 75.7763 35.1125 75.7763 34.98C75.7102 34.45 75.578 33.92 75.3796 33.4562C75.1812 32.9925 74.8506 32.5287 74.4539 32.1312C73.7265 31.3362 72.6686 30.8725 71.6106 30.74C71.5445 30.74 71.4784 30.74 71.4122 30.74H71.2139C71.0816 30.74 70.9494 30.74 70.8171 30.74C70.5527 30.8062 70.2882 30.8062 70.0898 30.8725C69.8253 30.9387 69.6269 31.0712 69.3625 31.1375C69.098 31.27 69.1641 31.6012 69.4947 31.6675C69.6931 31.7337 69.9576 31.7337 70.1559 31.8C70.3543 31.8662 70.5527 31.9325 70.751 31.9987C70.8171 32.065 70.9494 32.065 71.0155 32.1312L71.1478 32.1975L71.28 32.2637C72.0074 32.595 72.6025 32.9925 73.0653 33.5225C73.3298 33.7875 73.5282 34.0525 73.7265 34.3837C73.9249 34.715 74.1233 35.0462 74.2555 35.3775C74.3216 35.5762 74.3878 35.7087 74.4539 35.9075L74.52 36.1725C74.52 36.305 74.5861 36.3712 74.5861 36.5037C74.6523 36.57 74.6523 36.7687 74.7184 36.9675ZM40.2686 48.8925C34.6482 48.8925 29.16 47.7662 23.8041 45.5137C18.6465 43.3275 13.6212 40.1475 8.86041 36.04C8.52979 35.7087 8.46367 35.1787 8.79429 34.8475C9.1249 34.5162 9.65388 34.45 9.98449 34.7812C19.2416 42.93 29.689 47.2362 40.2686 47.2362C50.9143 47.2362 61.4278 42.8637 70.751 34.5825C71.0816 34.2512 71.6767 34.3175 71.9412 34.6487C72.2718 34.98 72.2057 35.51 71.8751 35.8412C67.1143 40.015 62.089 43.2612 56.8653 45.5137C51.5094 47.7 45.889 48.8925 40.2686 48.8925Z" fill="#008037"/>
<path d="M75.1812 41.5388C74.9829 41.4725 74.7845 41.4062 74.5861 41.2737C74.3878 41.1412 74.2555 41.0087 74.1233 40.81C73.991 40.6112 73.9249 40.4125 73.8588 40.2137C73.7927 40.015 73.7927 39.8162 73.8588 39.5513L75.1812 32.1975L67.8416 30.8062C67.6433 30.74 67.4449 30.6737 67.2465 30.5412C67.0482 30.4087 66.9159 30.2762 66.7837 30.0775C66.6514 29.8787 66.5853 29.68 66.5192 29.4812C66.4531 29.2825 66.4531 29.0837 66.5192 28.8187C66.5853 28.62 66.6514 28.4212 66.7176 28.2225C66.8498 28.0237 66.9821 27.8912 67.1804 27.7587C67.3788 27.6262 67.5772 27.56 67.7755 27.4937C67.9739 27.4275 68.1723 27.4275 68.3706 27.4937L77.2972 29.2162C77.4955 29.2825 77.6939 29.3487 77.8923 29.4812C78.0906 29.6137 78.2229 29.7462 78.3551 29.945C78.4874 30.1437 78.5535 30.3425 78.6196 30.5412C78.6857 30.74 78.6857 30.9387 78.6196 31.2037L77.0327 40.1475C76.9665 40.3462 76.9004 40.545 76.8343 40.7437C76.7021 40.9425 76.5698 41.075 76.3714 41.2075C76.1731 41.34 75.9747 41.4062 75.7763 41.4725C75.578 41.5387 75.3796 41.5388 75.1812 41.5388Z" fill="#008037"/>
</svg>
