<svg width="227" height="74" viewBox="0 0 227 74" fill="none" xmlns="http://www.w3.org/2000/svg">
<path d="M10.4698 22.7549H17.0482V26.5474H5.28125V22.8474L11.5817 15.1699H5.28125V11.3774H16.9555V15.0774L10.4698 22.7549Z" fill="#004AAD"/>
<path d="M20.1057 18.9622C20.1057 17.3897 20.3837 16.0022 21.0322 14.8922C21.5882 13.6897 22.422 12.7647 23.4412 12.2097C24.4604 11.5622 25.5722 11.2847 26.8694 11.2847C27.9812 11.2847 28.9078 11.4697 29.7416 11.9322C30.5755 12.3947 31.1314 12.9497 31.5947 13.6897V11.5622H36.2273V26.7322H31.5947V24.6047C31.1314 25.3447 30.4829 25.8997 29.649 26.3622C28.8151 26.8247 27.8886 27.0097 26.8694 27.0097C25.6649 27.0097 24.4604 26.7322 23.5339 26.0847C22.5147 25.4372 21.6808 24.5122 21.1249 23.3097C20.3837 21.9222 20.1057 20.5347 20.1057 18.9622ZM31.502 18.9622C31.502 17.7597 31.1314 16.9272 30.4829 16.1872C29.8343 15.5397 29.0931 15.1697 28.1665 15.1697C27.24 15.1697 26.4988 15.5397 25.8502 16.1872C25.2016 16.8347 24.9237 17.7597 24.9237 18.9622C24.9237 20.1647 25.2016 21.0897 25.8502 21.7372C26.4988 22.3847 27.24 22.7547 28.1665 22.7547C29.0931 22.7547 29.8343 22.3847 30.4829 21.7372C31.1314 21.0897 31.502 20.1647 31.502 18.9622Z" fill="#004AAD"/>
<path d="M47.7163 17.1123L45.9559 17.6673V26.5473H41.3233V19.0548L39.4702 19.6098V15.6323L41.3233 15.0773V6.38232H45.9559V13.6898L47.7163 13.1348V17.1123Z" fill="#004AAD"/>
<path d="M58.0008 26.8248C56.5184 26.8248 55.1286 26.5473 53.9241 25.8998C52.7196 25.2523 51.7931 24.3273 51.1445 23.2173C50.4959 22.0148 50.1253 20.6273 50.1253 19.0548C50.1253 17.4823 50.4959 16.0948 51.1445 14.9848C51.8857 13.7823 52.8122 12.8573 54.0167 12.2098C55.2212 11.5623 56.611 11.2848 58.0935 11.2848C59.5759 11.2848 60.9657 11.5623 62.1702 12.2098C63.3747 12.8573 64.3012 13.7823 65.0424 14.9848C65.7837 16.1873 66.0616 17.5748 66.0616 19.0548C66.0616 20.6273 65.691 22.0148 65.0424 23.2173C64.3012 24.4198 63.3747 25.3448 62.1702 25.9923C60.8731 26.4548 59.4833 26.8248 58.0008 26.8248ZM58.0008 22.7548C58.9273 22.7548 59.6686 22.3848 60.3171 21.7373C60.9657 21.0898 61.2437 20.1648 61.2437 18.9623C61.2437 17.7598 60.9657 16.8348 60.3171 16.1873C59.6686 15.5398 58.9273 15.1698 58.0935 15.1698C57.1669 15.1698 56.4257 15.4473 55.7771 16.0948C55.2212 16.7423 54.8506 17.6673 54.8506 18.8698C54.8506 20.0723 55.1286 20.9973 55.7771 21.6448C56.4257 22.4773 57.1669 22.7548 58.0008 22.7548ZM61.6143 7.49227L55.0359 10.2673V7.02977L61.6143 3.88477V7.49227Z" fill="#004AAD"/>
<path d="M74.2151 22.7546H80.7935V26.5471H69.0266V22.8472L75.327 15.1696H69.0266V11.3771H80.6082V15.0771L74.2151 22.7546ZM75.049 9.71215C74.4931 9.71215 74.0298 9.52715 73.6592 9.15715C73.2886 8.78715 73.1033 8.32465 73.1033 7.76965C73.1033 7.21465 73.2886 6.75215 73.6592 6.38215C74.0298 6.01215 74.4931 5.82715 75.049 5.82715C75.6049 5.82715 76.1608 6.01215 76.5314 6.38215C76.9021 6.75215 77.0874 7.21465 77.0874 7.86215C77.0874 8.41715 76.9021 8.87965 76.5314 9.24965C76.0682 9.52715 75.6049 9.71215 75.049 9.71215Z" fill="#004AAD"/>
<path d="M98.1196 26.8246C96.8224 26.8246 95.6179 26.6396 94.5061 26.1771C93.4869 25.7146 92.653 25.0671 92.0971 24.3271C91.5412 23.4946 91.1706 22.6621 91.0779 21.6446H95.7106C95.8032 22.1996 95.9886 22.5696 96.4518 22.9396C96.9151 23.2171 97.471 23.4021 98.1196 23.4021C98.6755 23.4021 99.1388 23.3096 99.5094 23.0321C99.7873 22.7546 99.9726 22.4771 99.9726 22.1071C99.9726 21.6446 99.6947 21.3671 99.2314 21.1821C98.7681 20.9971 98.0269 20.7196 97.0077 20.4421C95.8959 20.1646 94.9694 19.8871 94.2281 19.6096C93.4869 19.3321 92.8383 18.8696 92.3751 18.3146C91.8192 17.6671 91.5412 16.8346 91.5412 15.8171C91.5412 14.9846 91.8192 14.1521 92.2824 13.4121C92.7457 12.6721 93.4869 12.1171 94.4135 11.7471C95.34 11.2846 96.4518 11.0996 97.749 11.0996C99.6947 11.0996 101.177 11.5621 102.289 12.4871C103.401 13.4121 104.049 14.7071 104.235 16.1871H99.9726C99.88 15.6321 99.6947 15.2621 99.2314 14.8921C98.8608 14.6146 98.3049 14.4296 97.749 14.4296C97.193 14.4296 96.7298 14.5221 96.4518 14.7996C96.1739 14.9846 95.9886 15.2621 95.9886 15.6321C95.9886 16.0946 96.2665 16.3721 96.7298 16.6496C97.193 16.8346 97.9343 17.1121 98.8608 17.2971C99.9726 17.5746 100.899 17.8521 101.64 18.1296C102.382 18.4071 102.938 18.8696 103.493 19.5171C104.049 20.1646 104.327 20.9971 104.327 22.0146C104.327 22.9396 104.049 23.6796 103.586 24.4196C103.123 25.1596 102.382 25.6221 101.455 26.0846C100.436 26.6396 99.4167 26.8246 98.1196 26.8246Z" fill="#004AAD"/>
<path d="M113.222 13.5046C113.685 12.7646 114.334 12.2096 115.075 11.7471C115.909 11.2846 116.835 11.0996 117.855 11.0996C119.059 11.0996 120.264 11.3771 121.283 12.0246C122.302 12.6721 123.136 13.5971 123.692 14.7071C124.248 15.9096 124.618 17.2046 124.618 18.7771C124.618 20.3496 124.34 21.7371 123.692 22.9396C123.136 24.1421 122.302 25.0671 121.283 25.7146C120.264 26.3621 119.152 26.6396 117.855 26.6396C116.835 26.6396 115.909 26.4546 115.075 25.9921C114.241 25.5296 113.593 24.9746 113.129 24.3271V33.6696H108.497V11.3771H113.129V13.5046H113.222ZM119.893 18.9621C119.893 17.7596 119.615 16.9271 118.966 16.1871C118.318 15.5396 117.484 15.1696 116.558 15.1696C115.631 15.1696 114.797 15.5396 114.149 16.1871C113.5 16.8346 113.222 17.7596 113.222 18.9621C113.222 20.1646 113.5 21.0896 114.149 21.7371C114.797 22.3846 115.538 22.7546 116.558 22.7546C117.484 22.7546 118.225 22.3846 118.874 21.7371C119.522 21.0896 119.893 20.1646 119.893 18.9621Z" fill="#004AAD"/>
<path d="M135.459 26.8248C133.976 26.8248 132.587 26.5473 131.382 25.8998C130.178 25.2523 129.251 24.3273 128.602 23.2173C127.954 22.0148 127.583 20.6273 127.583 19.0548C127.583 17.4823 127.954 16.0948 128.602 14.9848C129.344 13.7823 130.27 12.8573 131.475 12.2098C132.679 11.5623 134.069 11.2848 135.551 11.2848C137.034 11.2848 138.424 11.5623 139.628 12.2098C140.833 12.8573 141.759 13.7823 142.5 14.9848C143.242 16.1873 143.52 17.5748 143.52 19.0548C143.52 20.6273 143.149 22.0148 142.5 23.2173C141.759 24.4198 140.833 25.3448 139.628 25.9923C138.238 26.4548 136.941 26.8248 135.459 26.8248ZM135.459 22.7548C136.385 22.7548 137.127 22.3848 137.775 21.7373C138.424 21.0898 138.702 20.1648 138.702 18.9623C138.702 17.7598 138.424 16.8348 137.775 16.1873C137.127 15.5398 136.385 15.1698 135.551 15.1698C134.625 15.1698 133.884 15.4473 133.235 16.0948C132.679 16.7423 132.309 17.6673 132.309 18.8698C132.309 20.0723 132.587 20.9973 133.235 21.6448C133.791 22.4773 134.532 22.7548 135.459 22.7548ZM139.072 7.49227L132.494 10.2673V7.02977L139.072 3.88477V7.49227Z" fill="#004AAD"/>
<path d="M154.082 17.1123L152.322 17.6673V26.5473H147.596V19.0548L145.836 19.6098V15.6323L147.596 15.0773V6.38232H152.322V13.6898L154.082 13.1348V17.1123Z" fill="#004AAD"/>
<path d="M166.683 26.5473L162.05 20.1648V26.5473H157.418V6.38232H162.05V17.5748L166.683 11.3773H172.427L166.127 19.0548L172.52 26.5473H166.683Z" fill="#004AAD"/>
<path d="M190.031 18.7771C190.031 19.2396 190.031 19.7021 189.939 20.1646H179.376C179.469 21.0896 179.747 21.8296 180.303 22.3846C180.859 22.8471 181.507 23.1246 182.249 23.1246C183.453 23.1246 184.194 22.6621 184.658 21.6446H189.661C189.383 22.8471 188.827 23.8646 187.9 24.7896C187.067 25.6221 185.955 26.2696 184.75 26.6396L183.916 27.0096C183.268 27.3796 182.712 27.6571 182.527 27.9346C182.249 28.2121 182.156 28.4896 182.156 28.7671C182.156 29.0446 182.249 29.2296 182.434 29.4146C182.619 29.5996 182.897 29.6921 183.36 29.6921C184.009 29.6921 184.658 29.5071 185.491 29.2296V31.8196C184.658 32.0971 183.731 32.1896 182.804 32.1896C181.6 32.1896 180.673 31.9121 179.932 31.3571C179.191 30.8021 178.82 30.0621 178.82 29.0446C178.82 28.0271 179.284 27.1946 180.118 26.3621C178.542 25.8996 177.245 25.0671 176.319 23.6796C175.392 22.3846 174.929 20.7196 174.929 18.8696C174.929 17.2971 175.207 15.9096 175.856 14.7071C176.504 13.5046 177.431 12.5796 178.542 12.0246C179.747 11.3771 181.044 11.0996 182.527 11.0996C184.009 11.0996 185.306 11.3771 186.511 12.0246C187.622 12.6721 188.549 13.5046 189.198 14.7071C189.661 15.9096 190.031 17.2046 190.031 18.7771ZM185.213 17.4821C185.213 16.6496 184.936 16.0946 184.38 15.5396C183.824 15.0771 183.175 14.7996 182.341 14.7996C181.6 14.7996 180.859 15.0771 180.396 15.5396C179.84 16.0021 179.562 16.6496 179.376 17.4821H185.213Z" fill="#004AAD"/>
<path d="M122.487 59.3848C121.653 59.3848 121.005 59.1073 120.449 58.6448C119.893 58.1823 119.708 57.5348 119.708 56.8873C119.708 56.1473 119.986 55.5923 120.449 55.0373C121.005 54.5748 121.653 54.2973 122.487 54.2973C123.321 54.2973 123.97 54.5748 124.433 55.0373C124.989 55.4998 125.174 56.1473 125.174 56.8873C125.174 57.6273 124.896 58.1823 124.433 58.6448C123.97 59.1073 123.229 59.3848 122.487 59.3848ZM136.293 59.3848C134.81 59.3848 133.42 59.1073 132.309 58.4598C131.104 57.8123 130.178 56.8873 129.529 55.7773C128.88 54.5748 128.51 53.1873 128.51 51.6148C128.51 50.0423 128.88 48.6548 129.529 47.4523C130.27 46.2498 131.197 45.3248 132.401 44.6773C133.606 44.0298 134.996 43.7523 136.478 43.7523C137.96 43.7523 139.35 44.0298 140.555 44.6773C141.759 45.3248 142.686 46.2498 143.427 47.4523C144.168 48.6548 144.446 50.0423 144.446 51.6148C144.446 53.1873 144.076 54.5748 143.427 55.7773C142.686 56.9798 141.759 57.9048 140.555 58.5523C139.165 59.0148 137.775 59.3848 136.293 59.3848ZM136.293 55.3148C137.219 55.3148 137.96 54.9448 138.609 54.2973C139.258 53.6498 139.536 52.7248 139.536 51.5223C139.536 50.3198 139.258 49.3948 138.609 48.7473C137.96 48.0998 137.219 47.7298 136.385 47.7298C135.459 47.7298 134.718 48.0073 134.162 48.7473C133.513 49.3948 133.235 50.3198 133.235 51.5223C133.235 52.7248 133.513 53.6498 134.162 54.2973C134.625 55.0373 135.366 55.3148 136.293 55.3148ZM157.418 43.7523C159.178 43.7523 160.66 44.3073 161.68 45.5098C162.791 46.6198 163.255 48.2848 163.255 50.2273V59.1073H158.622V50.8748C158.622 49.8573 158.344 49.0248 157.788 48.4698C157.232 47.9148 156.584 47.6373 155.657 47.6373C154.731 47.6373 154.082 47.9148 153.526 48.4698C152.97 49.0248 152.692 49.8573 152.692 50.8748V59.1073H148.06V43.9373H152.692V45.9723C153.156 45.3248 153.804 44.7698 154.638 44.3998C155.472 43.9373 156.398 43.7523 157.418 43.7523ZM172.613 59.1073H167.98V39.0348H172.613V59.1073ZM179.747 42.3648C178.913 42.3648 178.265 42.0873 177.709 41.6248C177.153 41.1623 176.967 40.5148 176.967 39.8673C176.967 39.1273 177.245 38.5723 177.709 38.0173C178.265 37.5548 178.913 37.2773 179.747 37.2773C180.581 37.2773 181.229 37.5548 181.693 38.0173C182.249 38.4798 182.434 39.1273 182.434 39.8673C182.434 40.6073 182.156 41.1623 181.693 41.6248C181.137 42.0873 180.488 42.3648 179.747 42.3648ZM182.063 59.1073H177.431V43.9373H182.063V59.1073ZM196.054 43.7523C197.814 43.7523 199.297 44.3073 200.316 45.5098C201.428 46.6198 201.891 48.2848 201.891 50.2273V59.1073H197.258V50.8748C197.258 49.8573 196.98 49.0248 196.425 48.4698C195.869 47.9148 195.22 47.6373 194.293 47.6373C193.367 47.6373 192.718 47.9148 192.162 48.4698C191.607 49.0248 191.329 49.8573 191.329 50.8748V59.1073H186.696V43.9373H191.329V45.9723C191.792 45.3248 192.44 44.7698 193.274 44.3998C194.201 43.9373 195.035 43.7523 196.054 43.7523ZM220.885 51.3373C220.885 51.7998 220.885 52.2623 220.792 52.2623H210.322C210.415 53.6498 210.693 54.2973 211.249 54.8523C211.805 55.3148 212.453 55.5923 213.195 55.5923C214.399 55.5923 214.492 55.4998 215.233 54.8523L220.329 54.7598C220.051 55.7773 219.866 56.0548 219.124 56.8873C218.476 57.7198 217.642 58.2748 216.623 58.7373C215.604 59.1998 214.492 59.3848 213.287 59.3848C211.805 59.3848 210.508 59.1073 209.303 58.4598C208.099 57.8123 207.265 56.8873 206.616 55.7773C205.968 54.5748 205.597 53.1873 205.597 51.6148C205.597 50.0423 205.875 48.6548 206.524 47.4523C207.172 46.2498 208.099 45.3248 209.211 44.7698C210.415 44.1223 211.712 43.8448 213.195 43.8448C214.677 43.8448 215.974 44.1223 217.086 44.7698C218.198 45.4173 219.124 46.2498 219.773 47.4523C220.607 48.4698 220.885 49.7648 220.885 51.3373ZM216.16 49.4873C216.16 48.6548 215.882 48.0073 215.326 47.5448C214.77 47.0823 214.121 46.8048 213.287 46.8048C212.546 46.8048 211.805 47.0823 211.342 47.4523C210.786 47.9148 210.508 48.5623 210.322 49.3948H216.16V49.4873Z" stroke="white" stroke-width="1.105" stroke-miterlimit="3.044"/>
<path d="M8.98739 50.8746C8.98739 50.6896 9.08005 50.5971 9.08005 50.4121L9.1727 50.0421C9.26535 49.7646 9.35801 49.4871 9.45066 49.3021C9.63597 48.8396 9.91393 48.3771 10.1919 47.9146C10.4698 47.5446 10.7478 47.0821 11.1184 46.7121C11.8596 45.9721 12.6935 45.4171 13.62 44.9546L13.8054 44.8621L13.9907 44.7697C14.0833 44.6772 14.2686 44.6771 14.3613 44.5846C14.6392 44.4921 14.9172 44.3997 15.1951 44.3072C15.4731 44.2147 15.7511 44.2146 16.1217 44.1221C16.4923 44.0296 16.5849 43.5672 16.307 43.3822C16.029 43.1972 15.6584 43.1046 15.2878 43.0121C14.9172 42.9196 14.5466 42.8271 14.2686 42.8271C14.0833 42.8271 13.898 42.8271 13.7127 42.8271H13.4347C13.3421 42.8271 13.2494 42.8271 13.1568 42.8271C11.6743 42.9196 10.1919 43.6597 9.1727 44.7697C8.61678 45.3247 8.24617 45.9722 7.87556 46.6197C7.69025 47.3597 7.50495 48.0996 7.41229 48.8396C7.41229 49.0246 7.41229 49.2097 7.41229 49.3947C7.41229 49.4872 7.41229 49.5796 7.41229 49.6722C7.41229 49.7646 7.41229 49.8571 7.41229 49.9496C7.41229 50.1346 7.41229 50.3196 7.50495 50.5046C7.50495 50.6896 7.5976 50.8747 7.69025 51.0597C7.7829 51.3371 7.87556 51.6146 8.06086 51.7996C8.24617 52.1696 8.89474 52.0771 8.89474 51.6146C8.89474 51.3371 8.89474 51.0596 8.98739 50.8746ZM104.698 51.6146C104.791 52.0771 105.347 52.1696 105.532 51.7996C105.625 51.5221 105.81 51.2446 105.903 51.0597C105.995 50.8747 105.995 50.6896 106.088 50.5046C106.088 50.3196 106.18 50.1346 106.18 49.9496C106.18 49.8571 106.18 49.7646 106.18 49.6722C106.18 49.5796 106.18 49.4872 106.18 49.3947C106.18 49.2097 106.18 49.0246 106.18 48.8396C106.088 48.0996 105.903 47.3596 105.625 46.7121C105.347 46.0646 104.883 45.4171 104.327 44.8621C103.308 43.7521 101.826 43.1047 100.343 42.9197C100.251 42.9197 100.158 42.9197 100.065 42.9197H99.7874C99.6021 42.9197 99.4168 42.9197 99.2315 42.9197C98.8609 43.0122 98.4903 43.0121 98.2123 43.1046C97.8417 43.1971 97.5637 43.3821 97.1931 43.4746C96.8225 43.6596 96.9152 44.1221 97.3784 44.2146C97.6564 44.3071 98.027 44.3071 98.3049 44.3996C98.5829 44.4921 98.8609 44.5846 99.1388 44.6771C99.2315 44.7696 99.4168 44.7696 99.5094 44.8621L99.6947 44.9546L99.8801 45.0471C100.899 45.5096 101.733 46.0646 102.382 46.8046C102.752 47.1746 103.03 47.5447 103.308 48.0072C103.586 48.4697 103.864 48.9322 104.049 49.3947C104.142 49.6722 104.235 49.8572 104.327 50.1346L104.42 50.5046C104.42 50.6896 104.513 50.7821 104.513 50.9671C104.605 51.0596 104.605 51.3371 104.698 51.6146ZM56.4258 68.2647C48.5503 68.2647 40.8601 66.6921 33.3552 63.5471C26.1282 60.4946 19.0866 56.0547 12.4156 50.3197C11.9523 49.8572 11.8596 49.1171 12.3229 48.6546C12.7862 48.1921 13.5274 48.0996 13.9907 48.5621C26.9621 59.9396 41.6013 65.9522 56.4258 65.9522C71.3429 65.9522 86.0747 59.8472 99.1388 48.2846C99.6021 47.8221 100.436 47.9146 100.807 48.3771C101.27 48.8396 101.177 49.5796 100.714 50.0421C94.0429 55.8696 87.0013 60.4021 79.6817 63.5471C72.1768 66.5996 64.3013 68.2647 56.4258 68.2647Z" fill="#008037"/>
<path d="M105.347 57.9972C105.069 57.9047 104.791 57.8122 104.513 57.6272C104.235 57.4422 104.049 57.2572 103.864 56.9797C103.679 56.7022 103.586 56.4247 103.494 56.1472C103.401 55.8697 103.401 55.5922 103.494 55.2222L105.347 44.9547L95.0621 43.0122C94.7841 42.9197 94.5062 42.8272 94.2282 42.6422C93.9502 42.4572 93.7649 42.2722 93.5796 41.9947C93.3943 41.7172 93.3017 41.4397 93.209 41.1622C93.1164 40.8847 93.1164 40.6072 93.209 40.2372C93.3017 39.9597 93.3943 39.6822 93.487 39.4047C93.6723 39.1272 93.8576 38.9422 94.1355 38.7572C94.4135 38.5722 94.6915 38.4797 94.9694 38.3872C95.2474 38.2947 95.5253 38.2947 95.8033 38.3872L108.311 40.7922C108.589 40.8847 108.867 40.9772 109.145 41.1622C109.423 41.3472 109.609 41.5322 109.794 41.8097C109.979 42.0872 110.072 42.3647 110.165 42.6422C110.257 42.9197 110.257 43.1972 110.165 43.5672L107.941 56.0547C107.848 56.3322 107.756 56.6097 107.663 56.8872C107.478 57.1647 107.292 57.3497 107.014 57.5347C106.736 57.7197 106.458 57.8122 106.18 57.9047C105.902 57.9972 105.625 57.9972 105.347 57.9972Z" fill="#008037"/>
</svg>
