<svg width="287" height="133" viewBox="0 0 287 133" fill="none" xmlns="http://www.w3.org/2000/svg">
<path d="M0.567719 7.88752L0.56778 7.88801C2.91867 27.3106 5.27151 46.7333 7.62439 66.1559L7.71402 66.8956C10.037 86.0714 12.3599 105.247 14.6809 124.423C15.1205 128.006 16.2254 130.004 17.6295 131.054C19.0343 132.105 20.8521 132.293 22.9166 131.993L22.9186 131.993C102.888 120.73 183.319 117.307 263.283 120.242L263.284 120.242C267.293 120.393 270.999 117.432 271.574 113.663C273.924 98.0934 276.277 82.5242 278.629 66.9551L278.631 66.945L278.632 66.9384C280.984 51.3681 283.337 35.7978 285.687 20.2275L285.687 20.2268C285.97 18.3762 285.338 16.7542 284.086 15.6048C282.827 14.4487 280.914 13.7494 278.62 13.8371L278.62 13.8372C188.453 17.1485 97.7546 13.2854 7.582 0.582986L7.58011 0.582712C5.31787 0.255235 3.43558 0.919513 2.18839 2.21218C0.938141 3.50799 0.275055 5.48898 0.567719 7.88752Z" stroke="#CAC2B7"/>
</svg>
