<svg width="25" height="25" viewBox="0 0 25 25" fill="none" xmlns="http://www.w3.org/2000/svg">
<path d="M21.7464 14.1879C21.6874 14.125 21.5713 14.0679 21.4926 14.0778C21.3471 14.0974 21.1976 14.1506 21.0717 14.2273C20.5858 14.5223 20.1038 14.8253 19.6337 15.142C19.4488 15.2659 19.3445 15.1518 19.2344 15.0554C19.1321 14.9649 19.0553 14.845 18.959 14.7466C18.66 14.4358 18.3216 14.1742 18.1701 13.7257C17.999 13.2181 17.6803 13.1414 17.2338 13.405C17.1984 13.4267 17.159 13.4385 17.1236 13.4601C16.8128 13.6411 16.4961 13.8102 16.1932 14.005C15.8214 14.245 15.367 14.2922 15.1624 14.0483C14.9303 13.7709 14.7316 13.464 14.5408 13.1552C14.411 12.9427 14.3264 12.7008 14.2064 12.4805C14.1769 12.4274 14.0903 12.3624 14.0411 12.3703C13.7795 12.4136 13.5041 12.4411 13.2641 12.5454C12.9592 12.6752 12.6897 12.8877 12.3907 13.0352C12.0602 13.1985 11.838 13.4424 11.6845 13.7709C11.5409 14.0797 11.3816 14.3787 11.2262 14.6797C11.2045 14.723 11.1672 14.7623 11.1298 14.7918C10.6242 15.1853 10.1305 15.5944 9.6092 15.9623C9.06234 16.3478 8.45843 16.6823 7.77781 16.6764C7.10702 16.6705 6.44016 16.6134 5.90314 16.0488C5.62577 15.7557 5.12415 15.7203 4.87826 15.2974C4.53205 14.6974 4.07174 14.1604 3.93798 13.4562C3.91437 13.3322 3.98125 13.169 3.92421 13.0765C3.69602 12.7224 3.76093 12.331 3.77667 11.9611C3.80421 11.3277 3.99896 11.131 4.6009 10.9717C4.69925 10.9461 4.81138 10.9363 4.89007 10.8812C5.06907 10.7553 5.23038 10.5999 5.13399 10.3461C5.04547 10.112 4.61467 9.87206 4.36484 9.8937C3.57602 9.96451 2.91507 10.3461 2.39968 10.8891C1.80168 11.5185 1.27448 12.2247 0.790572 12.9467C0.495502 13.3853 0.310592 13.9066 0.131584 14.4102C-0.124143 15.1282 0.0647015 15.8659 0.104044 16.5977C0.117814 16.8613 0.111913 17.1268 0.139452 17.3904C0.174861 17.7406 0.233874 18.0868 0.281086 18.431C0.475831 18.7005 0.739426 18.9543 0.865322 19.2651C1.15842 19.9752 1.58136 20.5929 2.0515 21.187C2.98392 22.3673 4.28616 23.04 5.59823 23.6616C7.01456 24.3324 8.54105 24.5527 10.1108 24.4898C11.4721 24.4347 12.7802 24.1849 14.049 23.6754C15.5873 23.0577 17.0154 22.2984 18.2646 21.1752C19.2914 20.2506 20.1117 19.1726 20.8867 18.0592C21.3293 17.4219 21.6264 16.6862 21.9923 15.9938C22.0847 15.8207 22.1634 15.6357 22.2814 15.4803C22.4034 15.323 22.4447 15.0043 22.3227 14.8607C22.1319 14.6364 21.949 14.4063 21.7483 14.1919L21.7464 14.1879ZM7.03423 18.3622C7.01456 18.016 6.81982 18.1006 6.55819 18.2481C6.6172 17.9707 6.66441 17.7583 6.71556 17.5163H7.47881C7.56733 17.833 7.38832 18.1832 7.03423 18.3622ZM8.51155 17.8252C8.34828 17.7248 8.24008 17.658 8.13583 17.593C8.28533 17.5498 8.43286 17.5084 8.66302 17.4435C8.60203 17.597 8.56269 17.6993 8.51155 17.8252ZM8.95415 17.656C8.93841 17.6914 8.85973 17.6993 8.81055 17.7189C8.79678 17.6678 8.7535 17.6009 8.77121 17.5675C8.84596 17.4317 8.93841 17.3078 9.023 17.1799C9.05054 17.1937 9.08005 17.2055 9.10759 17.2193C9.05841 17.3648 9.01513 17.5143 8.95218 17.656H8.95415ZM9.82362 17.4416C9.78428 17.2449 9.68592 17.1426 9.45774 17.2488C9.40659 17.2724 9.33381 17.2488 9.27283 17.2449C9.29643 17.174 9.30037 17.0599 9.34561 17.0383C9.54626 16.9478 9.75674 16.8829 10.0518 16.7786C9.95345 17.0678 9.88657 17.2606 9.82559 17.4416H9.82362Z" fill="#E2211C"/>
<path d="M24.223 1.48811C24.101 1.21468 23.9279 0.956981 23.6742 0.817315C23.0958 0.500608 22.4703 0.366845 21.8447 0.67175C21.4356 0.872397 21.0658 1.14779 20.6704 1.37598C19.4527 2.07824 18.6049 3.16016 17.8082 4.26569C17.0056 5.38105 16.5551 6.66952 16.3033 8.01897C16.2286 8.42813 16.2325 8.43994 15.8037 8.46551C15.6837 8.47338 15.5637 8.49305 15.4476 8.51862C15.4083 8.52649 15.3414 8.59337 15.3434 8.59534C15.4653 8.78025 15.2588 8.77041 15.2155 8.75664C14.9814 8.68189 14.7513 8.81762 14.5998 8.88844C13.6359 9.34088 12.7723 9.91528 12.375 10.9933C12.255 11.3159 12.1665 11.5854 12.3789 11.8431C12.432 11.8096 12.4851 11.7624 12.5461 11.7427C12.7291 11.6837 12.9218 11.6542 13.0969 11.5795C13.3782 11.4614 13.6438 11.306 13.9251 11.19C14.0116 11.1546 14.167 11.1526 14.2241 11.2057C14.407 11.3808 14.5801 11.5755 14.7178 11.788C14.9519 12.1539 15.1644 12.5355 15.3709 12.9191C15.5578 13.2633 15.6483 13.285 15.9906 13.0784C16.4214 12.8207 16.864 12.5847 17.3026 12.3388C17.4443 12.2601 17.6036 12.2011 17.7315 12.1027C18.1111 11.8077 18.1741 11.8332 18.3826 12.268C18.5498 12.6161 18.7623 12.9447 18.9649 13.2732C19.0062 13.3381 19.1065 13.4266 19.1596 13.4148C19.4016 13.3617 19.4389 13.5505 19.5216 13.6863C19.6553 13.9026 19.9425 14.0049 20.151 13.8987C20.3812 13.7827 20.6015 13.6489 20.8317 13.5348C21.3156 13.2928 21.7818 12.9919 22.2932 12.8443C22.6729 12.7342 22.6375 12.5178 22.5647 12.3053C22.309 11.5539 22.0611 10.7907 21.4493 10.23C21.2684 10.0628 21.0776 9.90741 20.8966 9.74218C20.2081 9.11663 19.3622 8.88647 18.4692 8.80189C18.0777 8.76451 17.9125 8.56977 18.0659 8.19208C18.3255 7.54686 18.5577 6.88197 18.894 6.27609C19.6042 4.99549 20.5799 4.02767 22.1319 3.84472C22.4545 3.80735 22.549 3.888 22.5785 4.21455C22.5962 4.40732 22.6709 4.5942 22.7181 4.78501C22.7496 4.77518 22.7811 4.76731 22.8145 4.75747C22.8067 4.59223 22.7968 4.42896 22.7929 4.34241C22.9601 4.3129 23.0742 4.28143 23.1903 4.27553C23.2434 4.27159 23.3004 4.3129 23.3732 4.34241C23.4735 4.09455 23.5837 3.83686 23.684 3.57326C23.7942 3.28213 23.9181 2.99296 23.9968 2.69199C24.0912 2.332 24.1423 1.96218 24.2132 1.5963C24.221 1.55892 24.2368 1.51368 24.223 1.48417V1.48811Z" fill="#E2211C"/>
</svg>
