<svg width="18" height="25" viewBox="0 0 18 25" fill="none" xmlns="http://www.w3.org/2000/svg">
<path d="M15.2314 17.0526C15.258 17.1625 15.2814 17.2742 15.3097 17.3841C15.3547 17.5541 15.383 17.7323 15.4596 17.8873C15.5229 18.0156 15.5079 18.1289 15.4896 18.2538C15.4896 18.2655 15.4946 18.2805 15.4996 18.2922C15.5029 18.2988 15.5113 18.3038 15.5246 18.3155C15.5279 18.2922 15.5296 18.2772 15.5346 18.2472C15.5479 18.2722 15.5613 18.2855 15.5579 18.2938C15.5046 18.4354 15.6346 18.5437 15.6262 18.6787C15.6262 18.6987 15.6679 18.717 15.6812 18.742C15.7395 18.862 15.8028 18.9802 15.8512 19.1035C15.9445 19.3451 16.0944 19.5451 16.2593 19.7417C16.3626 19.8666 16.416 20.0316 16.5043 20.1715C16.5909 20.3081 16.7225 20.4014 16.8575 20.4847C16.8958 20.5081 16.9591 20.4997 17.0091 20.4947C17.0807 20.4864 17.1257 20.5031 17.1324 20.5564C17.2274 20.5747 17.3123 20.5914 17.394 20.608C17.384 20.6963 17.399 20.8063 17.249 20.7096C17.2473 20.7196 17.244 20.728 17.2423 20.738C17.2657 20.7646 17.2857 20.798 17.314 20.8179C17.3456 20.8413 17.384 20.8529 17.4139 20.8896C17.394 20.8863 17.3723 20.8829 17.3606 20.8813C17.3523 20.9062 17.3423 20.9312 17.334 20.9546C17.324 20.9512 17.314 20.9479 17.3023 20.9429V21.1545C17.3023 21.1545 17.3156 21.1545 17.3206 21.1545V21.0112C17.3323 21.0079 17.344 21.0029 17.3573 20.9995C17.369 21.0229 17.384 21.0462 17.3906 21.0712C17.4023 21.1228 17.4089 21.1745 17.4173 21.2261C17.4206 21.2428 17.4223 21.2595 17.4223 21.2761C17.4173 21.4077 17.4156 21.541 17.4023 21.6726C17.3973 21.721 17.3106 21.7693 17.4156 21.8009C17.3923 21.9592 17.369 22.1158 17.344 22.2724C17.339 22.3008 17.3256 22.3391 17.3023 22.3507C17.1707 22.4241 17.0391 22.499 16.9008 22.559C16.8325 22.5873 16.7525 22.5673 16.6759 22.599C16.5776 22.6406 16.5109 22.7173 16.426 22.7689C16.291 22.8489 16.1377 22.9006 15.9944 22.9655C15.8928 23.0122 15.7945 23.0655 15.6929 23.1121C15.5913 23.1588 15.4863 23.2005 15.3847 23.2488C15.3463 23.2671 15.308 23.2904 15.2764 23.3171C15.1647 23.4104 15.0398 23.4604 14.8948 23.4804C14.7515 23.5003 14.6116 23.5437 14.47 23.577C14.36 23.6036 14.25 23.6286 14.1401 23.6553C14.0951 23.6653 14.0501 23.677 14.0068 23.6886C13.8852 23.7236 13.7652 23.7686 13.6403 23.7902C13.427 23.8286 13.2104 23.8519 12.9955 23.8819C12.8705 23.9002 12.7472 23.9219 12.6223 23.9385C12.524 23.9519 12.424 23.9602 12.3274 23.9768C12.1824 24.0035 12.0375 24.0635 11.8925 24.0602C11.7726 24.0568 11.6543 24.0518 11.541 24.0868C11.3727 24.1385 11.2011 24.1468 11.0278 24.1585C10.9062 24.1668 10.7879 24.2101 10.6663 24.2284C10.5847 24.2418 10.498 24.2351 10.4147 24.2434C10.2314 24.2617 10.0498 24.2901 9.86657 24.3017C9.69496 24.3134 9.52169 24.3067 9.35009 24.3151C9.28344 24.3184 9.22013 24.3451 9.15349 24.3534C9.11184 24.3584 9.06852 24.3451 9.02686 24.3451C8.96688 24.3451 8.9069 24.3534 8.84692 24.36C8.65699 24.38 8.46706 24.405 8.27546 24.4217C8.1405 24.4334 8.00222 24.4234 7.86893 24.4417C7.669 24.4683 7.46907 24.455 7.26914 24.4467C7.1975 24.4434 7.12585 24.4633 7.05421 24.4633C6.8976 24.4633 6.74099 24.455 6.58604 24.4517C6.49774 24.45 6.41111 24.4467 6.32281 24.4484C6.31614 24.4484 6.31114 24.475 6.30115 24.5C6.25116 24.4117 6.19618 24.4517 6.1362 24.495C6.02124 24.39 5.88296 24.43 5.748 24.4367C5.5564 24.4467 5.36313 24.455 5.17153 24.4583C4.76501 24.465 4.35848 24.47 3.95196 24.4717C3.80201 24.4717 3.65373 24.4583 3.50378 24.4567C3.32051 24.4534 3.13724 24.465 2.95564 24.4517C2.67574 24.43 2.3975 24.4484 2.11926 24.4517C2.01596 24.4534 1.911 24.4484 1.8077 24.435C1.7144 24.4234 1.62277 24.3884 1.52947 24.3784C1.44616 24.3684 1.36119 24.38 1.27622 24.3784C1.09462 24.3767 0.913019 24.3734 0.731415 24.3684C0.653109 24.3667 0.578133 24.3034 0.521486 24.3017C0.386533 24.2984 0.298229 24.2184 0.196597 24.1618C0.124955 24.1218 0.0333246 24.0918 0.0966359 23.9519C0.144952 23.8452 0.111626 23.7036 0.123289 23.5787C0.138284 23.4287 0.166605 23.2788 0.183266 23.1288C0.199926 22.9689 0.209923 22.8073 0.224918 22.6373C0.264904 22.6257 0.306554 22.6123 0.348207 22.6007C0.353205 22.6123 0.358208 22.6257 0.363206 22.6373C0.406524 22.594 0.454844 22.554 0.491498 22.504C0.748076 22.1575 1.00798 21.8143 1.25456 21.4611C1.41617 21.2278 1.56112 20.9829 1.70607 20.7363C1.74273 20.6747 1.77105 20.608 1.76106 20.5164C1.75273 20.4314 1.83936 20.3364 1.89101 20.2498C1.91266 20.2148 1.92266 20.1698 1.93599 20.1448C1.98764 20.0465 1.95099 19.9482 1.96765 19.8533C2.00764 19.615 2.04762 19.3768 2.08594 19.1385C2.11926 18.9386 2.15092 18.7387 2.18424 18.5404C2.18924 18.5054 2.19923 18.4704 2.20256 18.4338C2.22755 18.1872 2.25421 17.9406 2.2742 17.694C2.29586 17.4208 2.31086 17.1476 2.33086 16.8743C2.34752 16.6511 2.37251 16.4278 2.38751 16.2029C2.40583 15.938 2.41916 15.6714 2.43248 15.4065C2.44581 15.1649 2.45748 14.9217 2.46748 14.6801C2.48414 14.2736 2.49414 13.867 2.51246 13.4605C2.52246 13.2572 2.55578 13.0556 2.56078 12.854C2.56911 12.5608 2.56411 12.2676 2.56078 11.9727C2.55578 11.6994 2.55245 11.4279 2.53246 11.1563C2.51413 10.9097 2.46747 10.6648 2.45081 10.4166C2.42748 10.0833 2.41083 9.74846 2.40583 9.41524C2.39917 8.98372 2.3242 8.57053 2.17925 8.16401C2.08428 7.8991 1.97431 7.64252 1.84269 7.39594C1.72607 7.18101 1.58445 6.97775 1.47949 6.75783C1.30955 6.40295 1.03297 6.13638 0.766396 5.86147C0.696421 5.78983 0.631447 5.71486 0.561471 5.64321C0.551474 5.63322 0.533147 5.63322 0.498159 5.61989C0.521484 5.64821 0.529816 5.65821 0.551475 5.68487C0.479833 5.66821 0.439844 5.52659 0.361538 5.65488C0.353208 5.65488 0.343216 5.65321 0.334885 5.65154C0.31156 5.4916 0.296565 5.32999 0.261577 5.17171C0.244916 5.09341 0.189931 5.02343 0.153277 4.95012C0.163274 4.95012 0.188263 4.94512 0.213254 4.94179C0.213254 4.93346 0.216591 4.9268 0.218257 4.91847C0.193266 4.91347 0.164939 4.9018 0.141613 4.9068C0.114956 4.9118 0.0916304 4.93346 0.0683051 4.94679C0.0533103 4.87015 0.0166597 4.79684 0.0299884 4.73353C0.0733066 4.53193 -0.00333665 4.332 0.0266529 4.13207C0.0449799 4.00878 0.0699769 3.88549 0.0949682 3.7522C0.124958 3.78386 0.146617 3.80718 0.178273 3.84051C0.203264 3.62225 0.214921 3.42065 0.0683051 3.26071C0.0949625 3.24571 0.116624 3.23405 0.143281 3.21739C0.0899663 3.19573 0.0533124 3.17407 0.0599767 3.11076C0.0616428 3.08577 0.0316557 3.05911 0 3.03412C0.00833044 2.94082 0.101629 2.94582 0.194929 2.91416C0.156609 2.86918 0.128285 2.83419 0.0899651 2.78921C0.0932973 2.78754 0.103299 2.77921 0.116628 2.77088C0.0983012 2.75922 0.0749736 2.74422 0.0516483 2.73089C0.0533144 2.7209 0.0566429 2.7109 0.058309 2.7009C0.161606 2.71423 0.266569 2.72256 0.369867 2.74255C0.671429 2.79754 0.972991 2.86251 1.27622 2.9125C1.37119 2.92749 1.47115 2.90583 1.56945 2.90083C1.60777 2.89917 1.64609 2.8925 1.70274 2.8875C1.70774 2.89917 1.72106 2.93082 1.73439 2.96081C1.78438 2.96414 1.83769 2.96914 1.89101 2.96914C2.07594 2.97081 2.25921 2.97414 2.44415 2.96914C2.67573 2.96414 2.90732 2.95415 3.1389 2.94415C3.29552 2.93749 3.45047 2.92916 3.60542 2.91749C3.6454 2.91416 3.68538 2.8975 3.7237 2.88417C4.00527 2.77921 4.30017 2.82919 4.59007 2.8142C4.97327 2.7942 5.35481 2.77921 5.73801 2.76755C5.81298 2.76588 5.88795 2.78921 5.96292 2.78921C6.05289 2.78921 6.14286 2.77088 6.2345 2.76755C6.31114 2.76421 6.38778 2.78254 6.46275 2.77421C6.58771 2.76088 6.71266 2.74089 6.83595 2.71423C7.02755 2.67258 7.21582 2.61926 7.40742 2.57595C7.45074 2.56595 7.49906 2.57595 7.55238 2.57595C7.55071 2.59094 7.54737 2.6176 7.54404 2.64759C7.77063 2.62426 7.99556 2.6026 8.21881 2.57595C8.35044 2.56095 8.48205 2.54096 8.61201 2.52096C9.09184 2.44266 9.58167 2.43266 10.0598 2.34436C10.2564 2.30771 10.448 2.25606 10.6446 2.21774C10.7413 2.19941 10.8446 2.20774 10.9429 2.18941C11.0312 2.17442 11.1228 2.15276 11.2011 2.11277C11.2744 2.07445 11.3527 2.07445 11.421 2.05279C11.5143 2.0228 11.611 2.08112 11.6959 2.02447L11.6476 2.06946C11.6476 2.06946 11.6543 2.08278 11.6576 2.08945C11.7359 2.05279 11.8126 2.01114 11.8942 1.97949C11.9359 1.96283 11.9842 1.95949 12.0275 1.95949C12.0625 1.94117 12.1025 1.90285 12.1325 1.90951C12.2707 1.94117 12.3774 1.87619 12.4923 1.81621C12.5673 1.77622 12.6539 1.75623 12.7356 1.72791C12.8955 1.67293 13.0555 1.61461 13.2171 1.56963C13.3237 1.53964 13.437 1.52631 13.547 1.50965C13.5636 1.50798 13.5853 1.53297 13.6053 1.54464C13.6219 1.55463 13.6436 1.57129 13.6586 1.5663C13.6986 1.55463 13.7352 1.53297 13.7985 1.50465H13.6453C13.7669 1.45134 13.8618 1.40135 13.9618 1.36803C14.0984 1.32138 14.2401 1.28806 14.38 1.24807C14.3933 1.24474 14.41 1.24474 14.4183 1.23641C14.52 1.13478 14.6632 1.14977 14.7849 1.09979C14.9698 1.02315 15.1731 0.983166 15.3547 0.899861C15.4763 0.843214 15.6012 0.858209 15.7212 0.828219C15.8428 0.79823 15.9295 0.726588 16.0144 0.64495C16.0328 0.628289 16.0578 0.61496 16.0827 0.608296C16.206 0.574974 16.321 0.526657 16.4593 0.563311C16.5509 0.586637 16.6559 0.563311 16.7542 0.556647C16.7692 0.556647 16.7808 0.524991 16.8008 0.5C16.8075 0.533322 16.8125 0.563311 16.8192 0.596633C16.9075 0.569976 16.9275 0.613294 16.9341 0.6916C16.9474 0.886532 16.9741 1.0798 16.9858 1.27473C16.9908 1.36637 16.9858 1.46133 16.9658 1.5513C16.8908 1.88452 16.8225 2.21607 16.8292 2.56095C16.8308 2.7009 16.7558 2.78421 16.6042 2.82253C16.5209 2.84252 16.4593 2.86751 16.4626 2.97247C16.4626 3.00413 16.4076 3.03412 16.396 3.06911C16.3793 3.12409 16.3343 3.16408 16.3327 3.22905C16.3327 3.26904 16.3043 3.33568 16.2843 3.35734C16.2144 3.43398 16.191 3.51395 16.1744 3.61392C16.1577 3.71222 16.0927 3.80052 16.0561 3.89549C15.9695 4.12374 15.8911 4.35366 15.8028 4.58025C15.6879 4.87182 15.5696 5.16338 15.4446 5.45161C15.3347 5.70319 15.2047 5.94311 15.1297 6.20968C15.0664 6.43627 14.9648 6.6512 14.9032 6.87945C14.8432 7.10271 14.8082 7.33096 14.7699 7.55922C14.7432 7.72249 14.7299 7.8891 14.7116 8.05404C14.7099 8.07237 14.7082 8.10736 14.7166 8.10902C14.7849 8.13568 14.7465 8.184 14.7366 8.21899C14.7116 8.30062 14.6749 8.37893 14.6432 8.4589C14.5633 8.66383 14.5733 8.87376 14.5766 9.09035C14.5816 9.4419 14.5566 9.79344 14.5516 10.145C14.5466 10.5049 14.5516 10.8647 14.5516 11.2246C14.5516 11.3196 14.5483 11.4162 14.5466 11.5112C14.5466 11.5245 14.5416 11.5395 14.5466 11.5512C14.6016 11.6645 14.5383 11.7811 14.5566 11.8944C14.5633 11.9344 14.5799 11.9743 14.5916 12.0177C14.5783 12.0177 14.5733 12.0177 14.5733 12.0177C14.5683 12.0077 14.5633 11.9977 14.5466 11.9943C14.5466 12.1659 14.5433 12.3376 14.5466 12.5092C14.5499 12.6541 14.5533 12.7991 14.5666 12.944C14.5866 13.1589 14.6166 13.3739 14.6432 13.5888C14.6716 13.8254 14.6916 14.062 14.7315 14.2969C14.7699 14.5218 14.8332 14.7434 14.8732 14.97C14.9065 15.1532 14.9231 15.3415 14.9498 15.5264C14.9698 15.6681 15.0164 15.8097 15.0098 15.9496C14.9998 16.1379 15.0914 16.2995 15.1064 16.4778C15.1064 16.4844 15.1114 16.4928 15.1081 16.4978C15.0714 16.5544 15.1031 16.6127 15.1098 16.6661C15.1231 16.7677 15.1497 16.8676 15.1764 16.9676C15.1847 17.0009 15.2097 17.0309 15.228 17.0626L15.2347 17.0559L15.2314 17.0526ZM9.1918 23.0822C9.04685 23.0855 8.90191 23.0888 8.75863 23.0955C8.73697 23.0955 8.71531 23.1205 8.69531 23.1338C8.7203 23.1421 8.74363 23.1571 8.76862 23.1588C8.90524 23.1721 9.03353 23.1005 9.17181 23.1221C9.19347 23.1255 9.21846 23.1038 9.24012 23.0938C9.37174 23.0855 9.50337 23.0822 9.63332 23.0705C9.7866 23.0572 9.93822 23.0372 10.0915 23.0222C10.2314 23.0089 10.3681 22.9772 10.5097 22.9639C10.7296 22.9422 10.9445 22.8856 11.1694 22.8856C11.3844 22.8856 11.5993 22.8439 11.8142 22.8123C12.1391 22.7623 12.4673 22.7273 12.7856 22.6456C13.3054 22.5124 13.8169 22.3491 14.3317 22.1925C14.5966 22.1125 14.8615 22.0275 15.1197 21.9309C15.3463 21.8459 15.5646 21.736 15.7895 21.641C15.9128 21.5893 16.0428 21.5544 16.166 21.5027C16.221 21.4794 16.2627 21.4161 16.3177 21.3977C16.4376 21.3578 16.4793 21.2628 16.5109 21.1578C16.5176 21.1345 16.5109 21.1045 16.5059 21.0779C16.4793 20.9662 16.401 20.9662 16.316 20.9962C16.2594 20.8796 16.2327 20.8713 16.1294 20.9246C16.1111 20.9329 16.0961 20.9479 16.0777 20.9546C15.8178 21.0479 15.5546 21.1345 15.298 21.2328C15.0314 21.3344 14.7699 21.4477 14.505 21.5577C14.4916 21.5194 14.4766 21.4744 14.4616 21.4294C14.4533 21.4311 14.4466 21.4327 14.4383 21.4344C14.4466 21.4844 14.4566 21.5344 14.465 21.586C14.4133 21.611 14.3533 21.6543 14.285 21.6726C14.2101 21.6926 14.1418 21.7993 14.0501 21.701C14.0468 21.6976 14.0268 21.7076 14.0151 21.711C13.8185 21.7676 13.6203 21.8226 13.4237 21.8809C13.2954 21.9192 13.1704 21.9609 13.0421 21.9992C12.9172 22.0359 12.7906 22.0692 12.6639 22.1058C12.5556 22.1358 12.449 22.1675 12.3424 22.1975C12.2058 22.2358 12.0725 22.2891 11.9325 22.3074C11.6026 22.3507 11.2694 22.3707 10.9395 22.4124C10.4914 22.4707 10.0448 22.5523 9.59499 22.604C9.13349 22.6573 8.66865 22.689 8.20382 22.7256C7.87893 22.7523 7.55405 22.7723 7.22916 22.7956C7.00923 22.8123 6.78931 22.8372 6.56938 22.8456C6.36612 22.8522 6.16119 22.8372 5.95626 22.8339C5.81465 22.8322 5.67303 22.8372 5.53141 22.8306C5.3898 22.8239 5.24984 22.8023 5.10989 22.7973C4.85498 22.7889 4.60006 22.7956 4.34682 22.7806C4.13522 22.7689 3.9253 22.7339 3.71537 22.7106C3.62207 22.699 3.52877 22.6923 3.43547 22.674C3.22055 22.634 3.00562 22.589 2.79237 22.544C2.62576 22.509 2.45915 22.4724 2.29254 22.4324C2.07928 22.3807 1.86602 22.3224 1.65276 22.2708C1.58278 22.2541 1.50448 22.2258 1.43783 22.2408C1.33454 22.2624 1.22957 22.2974 1.1296 22.3258C0.923007 22.3824 0.796392 22.5207 0.668103 22.6606C0.679766 22.6873 0.70142 22.7156 0.694756 22.7256C0.649771 22.8006 0.664771 22.8439 0.751407 22.8639C0.864701 22.8872 0.976324 22.9106 1.08962 22.9322C1.50281 23.0105 1.91767 23.0905 2.33252 23.1671C2.37084 23.1738 2.42582 23.2005 2.44415 23.1271C2.44748 23.1155 2.4858 23.1055 2.50746 23.1055C2.84068 23.1271 3.1739 23.1538 3.50878 23.1705C3.80035 23.1855 4.09024 23.1871 4.38181 23.1955C4.61173 23.2021 4.84332 23.2088 5.07324 23.2121C5.21319 23.2154 5.35314 23.2154 5.49475 23.2121C5.6647 23.2104 5.83463 23.2005 6.00291 23.2021C6.17785 23.2038 6.35279 23.2188 6.52773 23.2238C6.59104 23.2254 6.65602 23.2121 6.72099 23.2138C6.85928 23.2171 6.99757 23.2321 7.13419 23.2288C7.3008 23.2254 7.47241 23.1821 7.63568 23.2021C7.80063 23.2221 7.9539 23.1455 8.11551 23.1821C8.16882 23.1938 8.23047 23.1671 8.28879 23.1655C8.39875 23.1621 8.51038 23.1671 8.62034 23.1655C8.637 23.1655 8.652 23.1438 8.67532 23.1271C8.62534 23.1121 8.58869 23.1022 8.55203 23.0905C8.55203 23.0855 8.55369 23.0805 8.55536 23.0755C8.78361 23.0555 9.0102 23.0338 9.25178 23.0122C9.22346 23.0422 9.2068 23.0605 9.19014 23.0772L9.1918 23.0822ZM16.376 2.77921C16.361 2.69424 16.3693 2.61593 16.3343 2.56928C16.2877 2.50597 16.211 2.45932 16.1394 2.41933C16.1094 2.40267 16.0561 2.40934 16.0211 2.42267C15.9545 2.44766 15.8928 2.48931 15.8262 2.5143C15.7679 2.53596 15.7029 2.54262 15.6412 2.55762C15.5113 2.58761 15.4163 2.69257 15.288 2.72589C15.263 2.73256 15.2414 2.75755 15.233 2.76421C15.1764 2.77254 15.1281 2.77254 15.0848 2.78921C14.7166 2.93749 14.355 3.09743 13.9835 3.23572C13.5803 3.38566 13.1688 3.51395 12.7622 3.6539C12.5906 3.71388 12.4207 3.78219 12.2491 3.84051C11.9308 3.94547 11.6076 4.03711 11.2944 4.15373C11.1778 4.19705 11.0012 4.17872 10.9762 4.38532C10.9395 4.35033 10.9179 4.327 10.8879 4.29868C10.6746 4.37032 10.448 4.46696 10.2114 4.52527C9.88323 4.60691 9.54668 4.66522 9.21346 4.72687C9.05185 4.75686 8.88691 4.77352 8.72363 4.79851C8.58368 4.82017 8.4454 4.84516 8.30544 4.86682C7.90558 4.93013 7.50406 4.99344 7.10253 5.05508C7.06255 5.06175 7.02089 5.06508 6.9809 5.06008C6.85928 5.04842 6.73765 5.0201 6.61603 5.0201C6.42943 5.0201 6.24116 5.03176 6.05456 5.04509C5.80631 5.06342 5.55807 5.08507 5.30982 5.11173C5.08657 5.13506 4.86497 5.16838 4.64172 5.18671C4.49844 5.20003 4.35349 5.19337 4.20854 5.20004C4.16356 5.2017 4.11691 5.23169 4.07359 5.22836C3.99861 5.22336 3.9253 5.19504 3.85033 5.18837C3.53544 5.15838 3.21888 5.13506 2.90399 5.10673C2.78403 5.09674 2.66407 5.08507 2.54411 5.06841C2.43581 5.05342 2.32419 5.07674 2.21923 5.02843C2.2109 5.0251 2.19924 5.02843 2.18924 5.02843C2.04929 5.00677 1.89768 5.0101 1.77105 4.95679C1.41951 4.81017 1.05963 4.69521 0.696424 4.58691C0.649773 4.57359 0.589791 4.55692 0.568132 4.52194C0.518149 4.44196 0.459841 4.4353 0.386534 4.45863C0.394864 4.58691 0.403188 4.7152 0.411519 4.83849C0.368201 4.81683 0.326553 4.77851 0.301562 4.78684C0.188268 4.8285 0.326556 4.8285 0.314893 4.86182C0.2949 4.86515 0.273235 4.86848 0.246578 4.87182C0.301559 4.95012 0.433183 4.95845 0.416522 5.08674C0.416522 5.09674 0.449845 5.11673 0.469838 5.12506C0.783063 5.26001 1.09129 5.4083 1.42951 5.48327C1.56113 5.51326 1.68608 5.57824 1.81937 5.60323C2.02929 5.64321 2.24422 5.65988 2.45581 5.6932C2.85234 5.75484 3.2472 5.82482 3.64373 5.8848C3.71038 5.89479 3.78202 5.8698 3.84866 5.8748C3.96029 5.8848 4.06858 5.91479 4.18021 5.91979C4.4118 5.92978 4.64339 5.92978 4.87498 5.93145C4.92496 5.93145 4.9816 5.93978 5.02492 5.92145C5.11822 5.88146 5.14654 5.92645 5.15154 5.99309C5.19653 5.96977 5.23652 5.93478 5.27983 5.92978C5.40479 5.91479 5.53141 5.91812 5.65637 5.90479C5.85297 5.8848 6.04956 5.86147 6.24616 5.83481C6.44443 5.80816 6.64269 5.7665 6.84262 5.74818C7.09754 5.72652 7.35578 5.73152 7.61069 5.70986C7.88059 5.68653 8.1505 5.65154 8.41707 5.60489C8.7153 5.55325 9.01353 5.49327 9.30676 5.41829C9.47004 5.37664 9.64832 5.36664 9.78993 5.24835C9.81493 5.22669 9.87656 5.25835 9.91655 5.24669C10.0682 5.20503 10.2148 5.14006 10.3681 5.11173C10.7962 5.03343 11.2161 4.92846 11.6276 4.79018C12.0475 4.64856 12.474 4.52027 12.8855 4.35699C13.5603 4.09042 14.2251 3.80385 14.8932 3.51895C15.1414 3.41399 15.383 3.29236 15.6296 3.1824C15.8262 3.09577 16.0278 3.01579 16.2344 2.92916C16.1577 2.82586 16.251 2.79587 16.2993 2.74755C16.3043 2.74255 16.3277 2.75755 16.3743 2.77754L16.376 2.77921ZM3.26553 14.3519C3.35883 14.3868 3.45213 14.4135 3.51377 14.5035C3.53043 14.5285 3.60208 14.5368 3.6404 14.5251C3.68705 14.5101 3.7287 14.4701 3.76369 14.4335C3.90864 14.2802 4.05192 14.1269 4.19187 13.9703C4.22353 13.9353 4.24519 13.9203 4.28851 13.9503C4.46178 14.0686 4.63506 14.1852 4.81 14.2985C5.01992 14.4352 5.22985 14.5684 5.47977 14.6268C5.63138 14.6617 5.78799 14.6867 5.91628 14.7917C5.96793 14.8334 6.04624 14.8517 6.11454 14.8633C6.3428 14.9033 6.57105 14.9367 6.7993 14.97C6.93259 14.99 7.06754 15.0216 7.20083 15.0183C7.50739 15.01 7.81395 14.985 8.12051 14.9616C8.19715 14.9566 8.27212 14.9367 8.34876 14.925C8.48538 14.9033 8.62034 14.8767 8.75863 14.865C8.99688 14.8434 9.23346 14.8134 9.46338 14.7451C9.54835 14.7184 9.64831 14.7367 9.73328 14.7101C9.85324 14.6734 9.96487 14.6118 10.0798 14.5618C10.0848 14.5601 10.0898 14.5551 10.0982 14.5485C10.0848 14.5318 10.0732 14.5201 10.0632 14.5068C10.1765 14.4485 10.2898 14.3968 10.3947 14.3335C10.528 14.2519 10.6546 14.1619 10.7829 14.0736C10.9978 13.9253 11.2111 13.7737 11.426 13.6271C11.471 13.5955 11.526 13.5771 11.576 13.5521C11.581 13.5605 11.5843 13.5671 11.5893 13.5755C11.6693 13.4788 11.7559 13.3872 11.8292 13.2872C12.1158 12.894 12.4523 12.5408 12.7023 12.1193C12.7906 11.971 12.9255 11.8461 12.9922 11.6911C13.0755 11.4945 13.2404 11.3362 13.2671 11.113C13.2704 11.0813 13.522 11.008 13.5553 11.0147C13.6136 11.0263 13.6736 11.033 13.7319 11.0297C13.7702 11.0263 13.8069 11.003 13.8419 10.9847C13.8652 10.973 13.8835 10.9514 13.9035 10.9347C13.8802 10.918 13.8552 10.9014 13.8402 10.8897C13.8635 10.8797 13.8968 10.8664 13.9318 10.8531C13.9068 10.8247 13.8735 10.8048 13.8752 10.7881C13.8835 10.6781 13.8102 10.6898 13.7352 10.6765C13.557 10.6448 13.3787 10.6098 13.2054 10.5565C13.0771 10.5165 12.9622 10.4299 12.8339 10.3932C12.7339 10.3649 12.6939 10.3016 12.6489 10.2266C12.6223 10.185 12.5923 10.145 12.549 10.0817C12.504 10.165 12.4357 10.2366 12.449 10.2783C12.5057 10.4432 12.5556 10.6182 12.7256 10.7165C12.7506 10.7314 12.7772 10.7664 12.7789 10.7931C12.7789 10.8614 12.7806 10.9347 12.7572 10.9964C12.7056 11.1246 12.6256 11.2413 12.579 11.3712C12.4757 11.6511 12.2874 11.876 12.1175 12.1126C12.0808 12.1643 12.0242 12.1993 11.9775 12.2426C11.9692 12.2393 11.9592 12.2376 11.9508 12.2343C11.9658 12.1193 11.9925 12.0043 11.9958 11.8894C12.0008 11.7394 11.9958 11.5878 11.9808 11.4395C11.9725 11.3629 11.9375 11.2863 11.9092 11.2129C11.8759 11.1263 11.8359 11.043 11.8009 10.9564C11.7376 10.8048 11.6609 10.6631 11.5027 10.5882C11.4227 10.5498 11.3444 10.5032 11.2611 10.4732C11.1211 10.4216 10.9878 10.3399 10.8262 10.3882C10.6846 10.4316 10.5347 10.4565 10.3947 10.5032C10.3031 10.5332 10.2048 10.5732 10.1365 10.6381C9.97153 10.7931 9.8016 10.9447 9.69497 11.153C9.62499 11.2913 9.53169 11.4179 9.46338 11.5562C9.39507 11.6961 9.34175 11.8427 9.2851 11.9877C9.23679 12.1126 9.1868 12.2376 9.14682 12.3642C9.08684 12.5525 9.03852 12.7424 8.98021 12.9307C8.89024 13.2156 8.79361 13.4988 8.70531 13.7837C8.647 13.9737 8.59701 14.1669 8.54536 14.3552C8.25046 14.3752 7.96556 14.3968 7.68233 14.4152C7.57237 14.4218 7.45074 14.4502 7.35577 14.4152C7.19749 14.3552 7.03089 14.3935 6.87094 14.3152C6.72933 14.2469 6.54939 14.2586 6.38445 14.2386C6.2445 14.2219 6.10954 14.2219 5.97459 14.1486C5.76466 14.0353 5.53141 13.9653 5.31481 13.8637C5.16986 13.797 5.03325 13.7104 4.89664 13.6254C4.83666 13.5871 4.78667 13.5321 4.71503 13.4705C4.77167 13.4588 4.79667 13.4538 4.83166 13.4472C4.80666 13.4172 4.78833 13.3955 4.76667 13.3689C4.78833 13.3689 4.79833 13.3705 4.81666 13.3722C4.79166 13.3455 4.77167 13.3239 4.75334 13.3022C4.91995 12.989 5.03158 12.6608 5.09656 12.3276C5.0599 12.3192 5.04158 12.3059 5.02492 12.2926C4.99659 12.2709 4.9716 12.2376 4.93994 12.2293C4.85497 12.2059 4.80999 12.2526 4.78667 12.3309C4.77834 12.3592 4.76001 12.3825 4.74502 12.4075C4.69003 12.3426 4.6767 12.4209 4.67004 12.4392C4.60506 12.6091 4.56675 12.7891 4.45512 12.9423C4.33183 13.1106 4.23352 13.3006 4.1069 13.4672C3.93696 13.6921 3.75369 13.9103 3.56709 14.1219C3.48712 14.2136 3.42548 14.3385 3.2722 14.3485L3.26553 14.3519ZM3.78035 9.61184C3.75869 9.88174 3.79702 10.135 3.85533 10.3866V9.37192C3.847 9.37192 3.837 9.37192 3.82867 9.37192C3.82367 9.39691 3.82033 9.42024 3.81534 9.44523C3.80867 9.44523 3.80201 9.44523 3.79368 9.44523C3.79034 9.38025 3.78535 9.31361 3.78202 9.24863C3.77702 9.24863 3.77202 9.24863 3.76702 9.24863C3.76536 9.28862 3.76203 9.33027 3.76036 9.37025H3.75037C3.74703 9.33193 3.74536 9.29361 3.74203 9.25529H3.74536V9.79677C3.74536 9.79677 3.7537 9.79677 3.75869 9.79677C3.76536 9.73513 3.77202 9.67181 3.77869 9.61017L3.78035 9.61184ZM7.24915 21.2745V22.5274C7.25915 22.5274 7.26914 22.5307 7.27914 22.5324C7.2858 22.504 7.2958 22.4774 7.2958 22.449C7.2958 22.1042 7.29247 21.7576 7.28747 21.4127C7.28747 21.3744 7.26581 21.3344 7.24748 21.2728L7.24915 21.2745ZM2.02929 21.1562C2.02929 21.1562 2.0193 21.1545 2.01264 21.1528C1.93266 21.3178 1.85269 21.4844 1.77105 21.6543C1.81604 21.6477 1.85768 21.641 1.901 21.6343C1.90267 21.616 1.906 21.596 1.90933 21.561C1.91933 21.591 1.92433 21.606 1.93766 21.646C1.97098 21.4661 1.9993 21.3111 2.02763 21.1562H2.02929ZM7.28413 20.1315C7.26081 20.4098 7.20583 20.688 7.24415 20.9662C7.25748 20.9662 7.2708 20.9662 7.28413 20.9662V20.1315ZM8.88358 21.7093V22.3408C8.95856 22.1308 8.92523 21.9192 8.88358 21.7093ZM8.75529 19.7183C8.75529 19.7183 8.74529 19.72 8.74029 19.7217V21.2278C8.74029 21.2278 8.75029 21.2278 8.75529 21.2278V19.7183ZM8.78528 18.2772C8.80027 18.2772 8.8136 18.2788 8.8286 18.2805C8.84193 18.0522 8.85525 17.824 8.86858 17.5957C8.85525 17.5957 8.84026 17.5941 8.82693 17.5924C8.8136 17.8207 8.80027 18.0489 8.78695 18.2772H8.78528ZM6.01624 13.8704C6.00458 13.6788 5.99291 13.4972 5.98125 13.3139C5.9196 13.4655 5.94293 13.827 6.01624 13.8704ZM10.4564 6.49125V5.96644C10.3964 6.09639 10.4031 6.45793 10.4564 6.49125ZM8.60035 5.75318C8.47372 5.74651 8.44706 5.85148 8.5337 6.06807C8.55869 5.94644 8.57869 5.85148 8.60035 5.75318ZM10.9545 21.9659C10.9312 21.8226 10.9079 21.686 10.8862 21.5494C10.8729 21.6627 10.8712 21.7743 10.8729 21.8859C10.8729 21.9309 10.8696 21.9875 10.9545 21.9659ZM12.9672 20.8379C12.9672 20.8379 12.9588 20.8379 12.9555 20.8379V21.6527C12.9555 21.6527 12.9638 21.6527 12.9672 21.6527V20.8413V20.8379ZM11.2894 6.83113C11.3411 6.81781 11.376 6.80948 11.4127 6.79948V6.6362C11.381 6.63787 11.3527 6.6412 11.3244 6.64287C11.3127 6.70285 11.3027 6.75949 11.2894 6.83113ZM6.70434 13.4622V12.8507C6.66435 13.0723 6.66268 13.4155 6.70434 13.4622ZM13.7019 17.0259C13.7119 17.0259 13.7202 17.0259 13.7302 17.0243C13.7052 16.8543 13.6819 16.6844 13.6569 16.5144C13.6469 16.5144 13.6353 16.5178 13.6253 16.5194C13.6503 16.6877 13.6769 16.8577 13.7019 17.0259ZM3.76869 15.3132C3.75869 15.3132 3.7487 15.3132 3.7387 15.3149C3.7487 15.4865 3.7587 15.6581 3.77036 15.828C3.78202 15.828 3.79534 15.828 3.80701 15.8263C3.79368 15.6547 3.78202 15.4848 3.76869 15.3132ZM10.2748 17.7357C10.3531 17.6257 10.3481 17.3808 10.2748 17.3491V17.7357ZM2.78569 17.4275C2.78569 17.4275 2.80236 17.4291 2.81069 17.4308V17.0259C2.81069 17.0259 2.79402 17.0259 2.78569 17.0259V17.4275ZM10.3781 22.0625C10.3864 22.0625 10.3947 22.0625 10.4031 22.0625C10.4031 22.0325 10.4031 22.0025 10.4031 21.9742C10.4031 21.9426 10.3931 21.8992 10.408 21.8792C10.4697 21.8009 10.403 21.7843 10.3447 21.7393C10.3564 21.8592 10.3664 21.9609 10.3781 22.0625ZM14.3317 10.9297C14.3317 10.9297 14.3434 10.9297 14.35 10.928V10.3133C14.35 10.3133 14.3383 10.3133 14.3317 10.3133V10.9297ZM12.6073 17.864C12.5973 17.8007 12.5823 17.7373 12.5806 17.674C12.579 17.6107 12.589 17.5457 12.5956 17.4824C12.5856 17.4824 12.574 17.4824 12.564 17.4824C12.5223 17.6107 12.5806 17.739 12.6073 17.864ZM9.10017 19.1802C9.10017 19.1802 9.1135 19.1802 9.12016 19.1802V18.777C9.12016 18.777 9.10684 18.777 9.10017 18.777V19.1802ZM11.0012 17.2742V16.921C10.9195 17.0476 10.9679 17.1609 11.0012 17.2742ZM14.8165 18.9303C14.8265 18.9269 14.8382 18.9219 14.8482 18.9186C14.8132 18.812 14.7782 18.7053 14.7415 18.5987L14.7132 18.607C14.7482 18.7137 14.7815 18.822 14.8165 18.9286V18.9303ZM10.3547 21.5727C10.3347 21.6427 10.3114 21.7176 10.4297 21.741C10.4214 21.676 10.4147 21.6177 10.408 21.5577C10.3997 21.5577 10.3914 21.5594 10.3831 21.561C10.3797 21.5943 10.3764 21.626 10.3731 21.6593C10.3697 21.6593 10.3681 21.6593 10.3647 21.6593C10.3614 21.631 10.3564 21.6027 10.3531 21.5743L10.3547 21.5727ZM13.9701 8.9504C13.9701 8.9504 13.9768 8.9504 13.9801 8.94873V8.48556C13.9801 8.48556 13.9735 8.48556 13.9701 8.48556V8.9504ZM9.21513 2.70923C9.21513 2.69757 9.21346 2.68591 9.2118 2.67425C9.12349 2.68258 9.03353 2.69091 8.94523 2.69757C8.94689 2.7109 8.94855 2.72423 8.95022 2.73756C8.99187 2.72756 9.03352 2.71423 9.07518 2.7109C9.12016 2.7059 9.16681 2.7109 9.21346 2.7109L9.21513 2.70923Z" fill="#E2211C"/>
<path d="M0.903031 4.9884C0.759748 5.0717 0.629795 5.00839 0.593141 4.82679C0.579813 4.83512 0.568149 4.84178 0.539825 4.85844V4.73682C0.566483 4.74348 0.589804 4.74515 0.608131 4.75348C0.624791 4.76014 0.651452 4.77347 0.653118 4.78513C0.664781 4.8701 0.698103 4.90676 0.778075 4.92175C0.794736 4.92508 0.808068 4.93675 0.823062 4.94508C0.84972 4.96007 0.878038 4.97507 0.901364 4.9884H0.903031Z" fill="#E2211C"/>
<path d="M11.8159 4.08708C11.576 4.17039 11.3344 4.25536 11.0945 4.33866C11.0912 4.327 11.0862 4.31367 11.0828 4.30201C11.3244 4.22204 11.566 4.1404 11.8076 4.06042C11.8109 4.06876 11.8142 4.07875 11.8159 4.08708Z" fill="#E2211C"/>
<path d="M9.03687 14.2485C9.12683 13.947 9.21181 13.6737 9.29011 13.3988C9.35842 13.1622 9.41174 12.919 9.48838 12.6841C9.60334 12.3292 9.72163 11.9743 9.86325 11.6311C9.9149 11.5045 10.0282 11.3995 10.1265 11.2962C10.2314 11.1863 10.3464 11.0863 10.4647 10.993C10.5463 10.928 10.6363 10.8714 10.7563 10.913C10.7996 10.928 10.8562 10.8964 10.9079 10.8964C11.0712 10.8997 11.1895 10.983 11.2794 11.1146C11.3061 11.1529 11.3361 11.1996 11.3744 11.2129C11.441 11.2379 11.441 11.2862 11.4444 11.3362C11.456 11.5695 11.486 11.801 11.4427 12.0376C11.416 12.1759 11.431 12.3225 11.411 12.4625C11.3927 12.5974 11.3577 12.7307 11.3227 12.8623C11.2744 13.039 11.1511 13.1556 11.0028 13.2555C10.8379 13.3672 10.683 13.4955 10.518 13.6071C10.4097 13.6804 10.2898 13.737 10.1731 13.802C9.85158 13.9803 9.5167 14.1236 9.15849 14.2102C9.1285 14.2169 9.09851 14.2285 9.03687 14.2469V14.2485Z" fill="#E2211C"/>
</svg>
