<svg width="36" height="36" viewBox="0 0 36 36" fill="none" xmlns="http://www.w3.org/2000/svg">
<rect width="36" height="36" rx="18" fill="white"/>
<path fill-rule="evenodd" clip-rule="evenodd" d="M24.9079 22.805C24.5957 20.4245 23.8763 14.9376 23.5968 12.805C23.4989 12.0584 22.8626 11.5 22.1095 11.5C20.2402 11.5 15.8839 11.5 14.0146 11.5C13.2616 11.5 12.6253 12.0584 12.5274 12.805C12.2477 14.9376 11.5283 20.4245 11.2162 22.805C11.16 23.2331 11.2912 23.6648 11.576 23.9893C11.8608 24.3139 12.2717 24.5 12.7035 24.5H23.4207C23.8525 24.5 24.2634 24.3139 24.5482 23.9893C24.833 23.6648 24.964 23.2331 24.9079 22.805ZM15.0603 14.0006C15.0603 15.6563 16.4045 17.0006 18.0603 17.0006C19.716 17.0006 21.0603 15.6563 21.0603 14.0006C21.0603 13.7246 20.8362 13.5006 20.5603 13.5006C20.2843 13.5006 20.0603 13.7246 20.0603 14.0006C20.0603 15.1045 19.1642 16.0006 18.0603 16.0006C16.9565 16.0006 16.0603 15.1045 16.0603 14.0006C16.0603 13.7246 15.8362 13.5006 15.5603 13.5006C15.2843 13.5006 15.0603 13.7246 15.0603 14.0006Z" fill="#E2211C"/>
</svg>
