<svg width="1408" height="874" viewBox="0 0 1408 874" fill="none" xmlns="http://www.w3.org/2000/svg">
<path d="M934.897 1501.49C875.338 1501.49 815.304 1496.49 756.47 1486.63C663.851 1472.04 576.648 1440.73 532.334 1423.11C349.859 1379.4 181.149 1277.53 57.2138 1136.2C-23.5249 1045.96 -84.5362 939.961 -124.005 821.276C-186.077 637.013 -183.229 414.775 -116.396 226.715C-103.594 172.168 -86.1976 120.12 -63.2172 67.6113C11.6438 -103.346 126.434 -239.916 277.971 -338.344C297.531 -357.108 320.023 -377.087 339.918 -393.38C461.606 -514.565 625.443 -605.3 789.517 -642.34C855.736 -657.376 924.007 -664.999 992.39 -664.999C1094.73 -664.999 1200.47 -646.863 1298.23 -612.532C1412.21 -585.95 1522.45 -536.135 1617.05 -468.423L1619.44 -466.705C1707.53 -403.739 1789.59 -317.5 1850.6 -223.777C1857.24 -216.517 1863.83 -209.118 1869.67 -202.304C1975.61 -81.1613 2099.57 125.802 2088 423.278C2085.3 492.568 2075.32 558.69 2057.46 625.383C2028.73 787.447 1953.55 944.122 1845.75 1066.63C1793.4 1126.15 1726.35 1183.74 1656.91 1228.88C1631.36 1251.17 1603.97 1273 1577.67 1292.03C1463.08 1376.63 1332.34 1436.96 1189.16 1471.22C1188.77 1471.32 1185.04 1472.21 1181.33 1473.08L1177.95 1473.86C1099.89 1492.22 1018.09 1501.53 934.897 1501.53V1501.49Z" stroke="#93251B" stroke-miterlimit="10"/>
<path d="M934.897 1487.53C876.105 1487.53 816.839 1482.59 758.774 1472.85C666.908 1458.39 580.487 1427.27 536.55 1409.75C356.462 1366.82 189.987 1266.43 67.6988 1126.99C-11.8253 1038.1 -71.9012 933.721 -110.77 816.864C-171.99 635.128 -169.087 416.032 -103.007 230.639C-90.3861 176.65 -73.1996 125.146 -50.4565 73.1958C23.483 -95.6394 136.891 -230.395 286.655 -327.371C306.411 -346.372 329.14 -366.574 349.258 -383.021C469.187 -502.642 630.72 -592.191 792.56 -628.741C857.802 -643.541 925.04 -651.052 992.376 -651.052C1093.43 -651.052 1197.82 -633.097 1294.31 -599.129C1406.79 -573.008 1515.57 -523.905 1608.9 -457.1L1611.3 -455.383C1698.35 -393.157 1779.35 -307.908 1839.51 -215.233C1846.34 -207.805 1853.08 -200.224 1859.06 -193.257C1963.38 -73.9852 2085.43 129.795 2074.04 422.692C2071.38 491.13 2061.5 556.428 2043.81 622.298C2015.59 782.086 1941.54 936.569 1835.25 1057.36C1783.48 1116.21 1717.17 1173.12 1648.45 1217.65C1623 1239.91 1595.69 1261.69 1569.46 1280.66C1456.31 1364.21 1327.23 1423.77 1185.89 1457.59C1185.49 1457.69 1181.82 1458.57 1178.15 1459.42L1174.81 1460.19C1097.76 1478.31 1017 1487.51 934.883 1487.51L934.897 1487.53Z" stroke="#93251B" stroke-miterlimit="10"/>
<path d="M934.897 1473.57C876.873 1473.57 818.389 1468.69 761.078 1459.09C669.966 1444.74 584.326 1413.83 540.781 1396.4C363.08 1354.27 198.838 1255.35 78.1978 1117.77C-0.111708 1030.25 -59.2662 927.48 -97.5204 812.438C-157.876 633.271 -154.902 417.289 -89.5763 234.576C-77.1367 181.146 -60.1457 130.172 -37.6539 78.7945C35.3502 -87.9046 147.404 -220.859 295.381 -316.383C315.304 -335.608 338.271 -356.033 358.64 -372.647C476.824 -490.733 636.053 -579.081 795.646 -615.115C859.896 -629.691 926.087 -637.076 992.39 -637.076C1092.14 -637.076 1195.18 -619.303 1290.41 -585.684C1401.4 -560.023 1508.71 -511.633 1600.79 -445.721L1603.2 -444.004C1689.2 -382.532 1769.16 -298.275 1828.45 -206.618C1835.45 -199.023 1842.36 -191.275 1848.48 -184.14C1951.16 -66.7251 2071.31 133.872 2060.1 422.175C2057.48 489.762 2047.69 554.25 2030.18 619.296C2002.48 776.837 1929.55 929.113 1824.8 1048.16C1773.6 1106.35 1708.02 1162.55 1640.05 1206.5C1614.69 1228.71 1587.48 1250.44 1561.3 1269.37C1449.6 1351.85 1322.17 1410.64 1182.67 1444.02C1182.24 1444.14 1178.62 1445 1175.01 1445.84L1171.7 1446.59C1095.63 1464.48 1015.94 1473.55 934.897 1473.55V1473.57Z" stroke="#93251B" stroke-miterlimit="10"/>
<path d="M934.897 1459.6C877.613 1459.6 819.883 1454.79 763.297 1445.31C673.079 1431.11 588.18 1400.39 545.011 1383.07C369.712 1341.73 207.69 1244.28 88.6968 1108.59C11.6019 1022.42 -46.6171 921.267 -84.271 808.054C-143.76 631.428 -140.731 418.573 -76.1594 238.555C-63.9013 185.683 -47.1197 135.254 -24.8652 84.4209C47.2175 -80.17 157.889 -211.295 304.093 -305.367C324.212 -324.83 347.401 -345.478 368.008 -362.26C484.433 -478.782 641.373 -565.957 798.718 -601.489C861.949 -615.827 927.121 -623.101 992.376 -623.101C1090.85 -623.101 1192.53 -605.523 1286.49 -572.239C1395.97 -547.025 1501.83 -499.361 1592.65 -434.357L1595.06 -432.625C1680.02 -371.907 1758.91 -288.628 1817.35 -198.018C1824.52 -190.27 1831.58 -182.34 1837.85 -175.038C1938.9 -59.4792 2057.16 137.935 2046.13 421.644C2043.53 488.38 2033.85 552.058 2016.51 616.28C1989.32 771.545 1917.51 921.63 1814.28 1038.96C1763.69 1096.48 1698.84 1151.99 1631.58 1195.36C1606.31 1217.53 1579.19 1239.21 1553.09 1258.09C1442.83 1339.51 1317.06 1397.53 1179.39 1430.48C1178.93 1430.59 1175.37 1431.44 1171.82 1432.27L1168.57 1433.02C1093.5 1450.67 1014.85 1459.63 934.883 1459.63L934.897 1459.6Z" stroke="#93251B" stroke-miterlimit="10"/>
<path d="M934.897 1445.64C878.381 1445.64 821.433 1440.9 765.601 1431.54C676.15 1417.46 592.019 1386.95 549.227 1369.72C376.33 1329.18 216.541 1233.19 99.1818 1099.39C23.3156 1014.59 -33.982 915.054 -71.0356 803.656C-129.673 629.571 -126.574 419.857 -62.7565 242.506C-50.6798 190.192 -34.1077 140.308 -12.0905 90.0194C59.0567 -72.4494 168.361 -201.76 312.805 -294.366C333.091 -314.051 356.518 -334.924 377.377 -351.873C492.042 -466.831 646.692 -552.833 801.803 -587.848C864.043 -601.963 928.168 -609.125 992.39 -609.125C1089.56 -609.125 1189.9 -591.73 1282.59 -558.809C1390.58 -534.055 1494.97 -487.103 1584.53 -422.992L1586.96 -421.261C1670.87 -361.297 1748.72 -278.994 1806.3 -189.418C1813.63 -181.516 1820.86 -173.418 1827.28 -165.935C1926.71 -52.2472 2043.06 141.998 2032.21 421.114C2029.65 486.998 2020.06 549.852 2002.9 613.265C1976.24 766.268 1905.55 914.161 1803.84 1029.75C1753.83 1086.6 1689.71 1141.41 1623.18 1184.19C1598.01 1206.32 1570.98 1227.94 1544.94 1246.78C1436.13 1327.12 1312.01 1384.39 1176.18 1416.91C1175.69 1417.04 1172.18 1417.87 1168.68 1418.68L1165.47 1419.42C1091.4 1436.85 1013.81 1445.69 934.911 1445.69L934.897 1445.64Z" stroke="#93251B" stroke-miterlimit="10"/>
<path d="M934.897 1431.68C879.149 1431.68 822.968 1427 767.919 1417.76C679.222 1403.8 595.872 1373.48 553.458 1356.36C382.961 1316.61 225.393 1222.11 109.681 1090.16C35.0291 1006.71 -21.347 908.799 -57.7863 799.23C-115.559 627.701 -112.403 421.1 -49.3396 246.443C-37.4445 194.702 -21.0818 145.348 0.698016 95.6038C70.9238 -64.7429 178.859 -192.238 321.517 -283.378C341.984 -303.301 365.649 -324.397 386.745 -341.514C499.65 -454.922 652.011 -539.738 804.874 -574.25C866.109 -588.142 929.201 -595.178 992.39 -595.178C1088.28 -595.178 1187.25 -577.964 1278.68 -545.392C1385.17 -521.085 1488.1 -474.859 1576.41 -411.656L1578.84 -409.924C1661.7 -350.7 1738.5 -269.389 1795.23 -180.86C1802.72 -172.79 1810.12 -164.525 1816.68 -156.874C1914.48 -45.0433 2028.93 146.004 2018.25 420.541C2015.72 485.574 2006.24 547.618 1989.25 610.207C1963.1 760.934 1893.54 906.635 1793.34 1020.5C1743.92 1076.69 1680.52 1130.8 1614.73 1172.99C1589.67 1195.08 1562.73 1216.66 1536.74 1235.45C1429.37 1314.74 1306.91 1371.24 1172.91 1403.31C1172.38 1403.44 1168.93 1404.26 1165.5 1405.07L1162.33 1405.8C1089.25 1422.98 1012.7 1431.7 934.883 1431.7L934.897 1431.68Z" stroke="#93251B" stroke-miterlimit="10"/>
<path d="M934.897 1417.72C879.931 1417.72 824.532 1413.1 770.222 1404C682.293 1390.15 599.712 1360.03 557.674 1343.01C389.565 1304.06 234.23 1211.02 120.166 1080.96C46.7428 998.879 -8.71191 902.573 -44.5508 794.819C-101.471 625.844 -98.2464 422.37 -35.9366 250.38C-24.223 199.198 -8.05572 150.388 13.4728 101.188C82.7632 -57.0361 189.331 -182.717 330.229 -272.405C350.864 -292.565 374.766 -313.884 396.113 -331.154C507.246 -442.999 657.317 -526.642 807.932 -560.652C868.162 -574.32 930.22 -581.245 992.376 -581.245C1086.96 -581.245 1184.6 -564.212 1274.76 -531.989C1379.75 -508.143 1481.22 -462.629 1568.27 -400.333L1570.7 -398.588C1652.51 -340.117 1728.27 -259.783 1784.13 -172.287C1791.81 -164.05 1799.37 -155.603 1806.07 -147.799C1902.24 -37.8251 2014.78 150.039 2004.28 419.983C2001.79 484.164 1992.4 545.384 1975.59 607.164C1949.96 755.643 1881.52 899.124 1782.86 1011.26C1734.02 1066.77 1671.36 1120.2 1606.3 1161.78C1581.34 1183.82 1554.48 1205.37 1528.56 1224.1C1422.58 1302.36 1301.83 1358.08 1169.66 1389.7C1169.1 1389.84 1165.72 1390.65 1162.33 1391.43L1159.2 1392.14C1087.12 1409.09 1011.63 1417.69 934.883 1417.69L934.897 1417.72Z" stroke="#93251B" stroke-miterlimit="10"/>
<path d="M934.897 1403.76C880.699 1403.76 826.068 1399.21 772.54 1390.23C685.365 1376.51 603.551 1346.57 561.904 1329.65C396.197 1291.5 243.096 1199.94 130.679 1071.76C58.4703 991.046 3.95109 896.346 -31.2875 790.421C-87.3425 623.987 -84.0616 423.641 -22.5058 254.345C-10.9736 203.721 4.98423 155.442 26.2754 106.801C94.6443 -49.3014 199.843 -173.167 338.955 -261.389C359.757 -281.787 383.897 -303.329 405.481 -320.767C514.854 -431.062 662.622 -513.518 811.004 -547.025C870.228 -560.456 931.253 -567.269 992.362 -567.269C1085.67 -567.269 1181.94 -550.418 1270.84 -518.544C1374.32 -495.159 1474.34 -450.357 1560.13 -388.954L1562.57 -387.209C1643.34 -329.479 1718.03 -250.136 1773.04 -163.673C1780.9 -155.268 1788.65 -146.64 1795.48 -138.682C1890.02 -30.5792 2000.65 154.116 1990.34 419.466C1987.88 482.781 1978.6 543.206 1961.95 604.162C1936.84 750.366 1869.53 891.655 1772.37 1002.06C1724.12 1056.9 1662.19 1109.63 1597.87 1150.62C1572.99 1172.64 1546.2 1194.14 1520.34 1212.85C1415.9 1289.99 1296.79 1344.95 1166.42 1376.16C1165.83 1376.3 1162.51 1377.09 1159.17 1377.87L1156.09 1378.59C1085.01 1395.3 1010.55 1403.79 934.897 1403.79V1403.76Z" stroke="#93251B" stroke-miterlimit="10"/>
<path d="M934.897 1389.8C881.467 1389.8 827.618 1385.32 774.844 1376.46C688.437 1362.85 607.391 1333.13 566.121 1316.3C402.828 1278.94 251.947 1188.85 141.178 1062.56C70.184 983.2 16.5862 890.133 -18.0381 786.023C-73.2414 622.144 -69.8907 424.911 -9.07484 258.296C2.26182 208.231 18.0242 160.497 39.078 112.4C106.512 -41.5808 210.342 -163.631 347.695 -250.387C368.665 -271.022 393.041 -292.802 414.877 -310.394C522.491 -419.139 667.955 -500.408 814.117 -533.399C872.35 -546.606 932.328 -553.308 992.404 -553.308C1084.42 -553.308 1179.35 -536.638 1266.97 -505.113C1368.96 -482.189 1467.51 -438.112 1552.05 -377.604L1554.49 -375.858C1634.21 -318.882 1707.86 -240.517 1761.98 -155.101C1770.01 -146.543 1777.93 -137.747 1784.91 -129.607C1877.82 -23.3611 1986.55 158.151 1976.42 418.908C1973.99 481.371 1964.8 540.972 1948.33 601.118C1923.73 745.06 1857.54 884.144 1761.91 992.833C1714.25 1047.02 1653.04 1099.04 1589.46 1139.44C1564.7 1161.42 1537.99 1182.88 1512.19 1201.54C1409.18 1277.62 1291.72 1331.82 1163.19 1362.57C1162.59 1362.71 1159.31 1363.51 1156.03 1364.26L1153 1364.96C1082.92 1381.43 1009.51 1389.8 934.925 1389.8H934.897Z" stroke="#93251B" stroke-miterlimit="10"/>
<path d="M934.897 1375.84C882.235 1375.84 829.167 1371.41 777.147 1362.68C691.494 1349.2 611.216 1319.66 570.323 1302.94C409.432 1266.39 260.785 1177.78 151.649 1053.34C81.8836 975.353 29.2073 883.892 -4.81667 781.611C-59.1544 620.273 -55.7478 426.168 4.31408 262.247C15.4692 212.726 31.0222 165.537 51.8387 117.998C118.351 -33.8601 220.813 -154.096 356.393 -239.372C377.53 -260.244 402.13 -282.247 424.217 -299.992C530.072 -407.188 673.247 -487.27 817.161 -519.773C874.388 -532.757 933.333 -539.333 992.376 -539.333C1083.1 -539.333 1176.67 -522.858 1263.03 -491.668C1363.51 -469.204 1460.63 -425.84 1543.89 -366.239L1546.35 -364.494C1625.02 -308.257 1697.61 -230.883 1750.87 -146.501C1759.07 -137.789 1767.14 -128.826 1774.28 -120.505C1865.56 -16.1152 1972.4 162.214 1962.44 418.377C1960.05 479.989 1950.97 538.781 1934.66 598.103C1910.58 739.783 1845.52 876.66 1751.42 983.619C1704.34 1037.13 1643.87 1088.45 1581.02 1128.26C1556.35 1150.19 1529.74 1171.61 1503.98 1190.23C1402.41 1265.23 1286.63 1318.68 1159.91 1349C1159.3 1349.16 1156.07 1349.92 1152.83 1350.68L1149.85 1351.36C1080.75 1367.61 1008.39 1375.85 934.883 1375.85L934.897 1375.84Z" stroke="#93251B" stroke-miterlimit="10"/>
<path d="M934.897 1361.87C883.003 1361.87 830.717 1357.52 779.465 1348.92C694.552 1335.54 615.056 1306.2 574.554 1289.58C416.064 1253.83 269.651 1166.69 162.162 1044.14C93.6112 967.507 41.8703 877.666 8.44671 777.199C-45.0394 618.402 -41.5491 427.424 17.759 266.198C28.7326 217.25 44.0762 170.591 64.6413 123.597C130.218 -26.1394 231.299 -144.546 365.133 -228.37C386.438 -249.494 411.275 -271.706 433.599 -289.619C537.681 -395.251 678.566 -474.161 820.246 -506.146C876.469 -518.893 934.381 -525.371 992.39 -525.371C1081.83 -525.371 1174.03 -509.078 1259.14 -478.237C1358.12 -456.234 1453.77 -413.582 1535.78 -354.888L1538.24 -353.129C1615.86 -297.647 1687.4 -221.25 1739.79 -137.9C1748.15 -129.049 1756.4 -119.904 1763.69 -111.416C1853.35 -8.88315 1958.27 166.249 1948.49 417.833C1946.14 478.593 1937.14 536.575 1921.02 595.073C1897.47 734.477 1833.52 869.163 1740.93 974.39C1694.45 1027.23 1634.7 1077.86 1572.58 1117.06C1548.03 1138.95 1521.5 1160.31 1495.8 1178.91C1395.68 1252.85 1281.54 1305.54 1156.67 1335.42C1156.05 1335.57 1152.86 1336.34 1149.68 1337.08L1146.75 1337.75C1078.64 1353.76 1007.34 1361.89 934.897 1361.89V1361.87Z" stroke="#93251B" stroke-miterlimit="10"/>
<path d="M934.897 1347.91C883.784 1347.91 832.267 1343.61 781.768 1335.15C697.623 1321.9 618.895 1292.75 578.77 1276.22C422.681 1241.28 278.502 1155.61 172.661 1034.93C105.325 959.661 54.5053 871.425 21.696 772.788C-30.9384 616.532 -27.3783 428.695 31.1758 270.149C41.968 221.759 57.1021 175.645 77.4299 129.195C142.071 -18.4187 241.797 -135.01 373.858 -217.369C395.317 -238.73 420.392 -261.179 442.981 -279.246C545.304 -383.328 683.885 -461.065 823.318 -492.548C878.535 -505.071 935.428 -511.424 992.376 -511.424C1080.51 -511.424 1171.38 -495.312 1255.21 -464.82C1352.71 -443.278 1446.89 -401.352 1527.64 -343.552L1530.11 -341.779C1606.69 -287.05 1677.17 -211.63 1728.69 -129.328C1737.23 -120.309 1745.65 -111.011 1753.08 -102.341C1841.1 -1.67895 1944.12 170.284 1934.52 417.275C1932.19 477.169 1923.29 534.341 1907.35 592.029C1884.31 729.172 1821.5 861.652 1730.43 965.148C1684.54 1017.32 1625.51 1067.25 1564.14 1105.85C1539.68 1127.7 1513.23 1149.03 1487.59 1167.57C1388.91 1240.45 1276.42 1292.38 1153.39 1321.81C1152.75 1321.96 1149.61 1322.71 1146.48 1323.44L1143.61 1324.1C1076.49 1339.87 1006.24 1347.89 934.883 1347.89L934.897 1347.91Z" stroke="#93251B" stroke-miterlimit="10"/>
<path d="M934.897 1333.95C884.552 1333.95 833.803 1329.72 784.072 1321.39C700.681 1308.25 622.72 1279.29 582.972 1262.86C429.299 1228.71 287.34 1144.54 183.146 1025.73C117.038 951.815 67.1404 865.198 34.9314 768.39C-16.8375 614.689 -13.2215 429.966 44.5927 274.114C55.1894 226.283 70.1281 180.699 90.2185 134.794C153.938 -10.6981 252.296 -125.461 382.584 -206.353C404.196 -227.965 429.508 -250.639 452.349 -268.858C552.913 -371.391 689.19 -447.941 826.389 -478.921C880.601 -491.221 936.461 -497.448 992.376 -497.448C1079.23 -497.448 1168.74 -481.518 1251.3 -451.362C1347.29 -430.28 1440.02 -389.08 1519.53 -332.173L1522.02 -330.4C1597.55 -276.411 1666.96 -201.997 1717.61 -120.714C1726.34 -111.555 1734.93 -102.075 1742.51 -93.2379C1828.92 5.56693 1930.02 174.346 1920.6 416.758C1918.31 475.801 1909.51 532.163 1893.72 589.028C1871.2 723.895 1809.52 854.183 1719.97 955.947C1674.67 1007.45 1616.38 1056.68 1555.73 1094.68C1531.38 1116.49 1505.02 1137.78 1479.43 1156.29C1382.19 1228.11 1271.37 1279.27 1150.17 1308.26C1149.51 1308.42 1146.43 1309.17 1143.34 1309.88L1140.51 1310.52C1074.39 1326.06 1005.18 1333.97 934.897 1333.97V1333.95Z" stroke="#93251B" stroke-miterlimit="10"/>
<path d="M934.897 1319.99C885.32 1319.99 835.352 1315.83 786.39 1307.61C703.752 1294.59 626.56 1265.82 587.188 1249.49C435.917 1216.15 296.191 1133.44 193.645 1016.51C128.752 943.968 79.7893 858.971 48.1807 763.978C-2.73647 612.818 0.949332 431.236 58.0096 278.065C68.4248 230.792 83.1401 185.739 102.993 140.392C165.778 -2.97761 262.767 -115.925 391.31 -195.338C413.09 -217.201 438.625 -240.112 461.703 -258.485C560.508 -359.468 694.482 -434.832 829.447 -465.309C882.654 -477.372 937.48 -483.501 992.362 -483.501C1077.92 -483.501 1166.08 -467.753 1247.38 -437.945C1341.87 -417.324 1433.14 -376.836 1511.39 -320.837L1513.89 -319.05C1588.37 -265.815 1656.72 -192.378 1706.5 -112.128C1715.39 -102.816 1724.15 -93.1682 1731.9 -84.1492C1816.67 12.7988 1915.88 178.395 1906.64 416.213C1904.38 474.404 1895.68 529.943 1880.07 585.998C1858.08 718.603 1797.52 846.685 1709.49 946.733C1664.77 997.566 1607.22 1046.1 1547.31 1083.48C1523.06 1105.26 1496.79 1126.51 1471.25 1144.98C1375.45 1215.73 1266.28 1266.13 1146.93 1294.69C1146.26 1294.86 1143.22 1295.59 1140.19 1296.3L1137.39 1296.94C1072.26 1312.26 1004.12 1320.02 934.911 1320.02L934.897 1319.99Z" stroke="#93251B" stroke-miterlimit="10"/>
<path d="M934.897 1306.03C886.088 1306.03 836.902 1301.92 788.693 1293.84C706.796 1280.94 630.385 1252.36 591.391 1236.11C442.52 1203.58 305.029 1122.35 204.13 1007.31C140.452 936.136 92.4105 852.744 61.4301 759.566C11.3785 610.947 15.1202 432.492 71.4405 282.016C81.6742 235.288 96.1801 190.779 115.796 145.977C177.659 4.72917 273.28 -106.39 400.05 -184.336C421.969 -206.451 447.742 -229.585 471.085 -248.112C568.117 -347.545 699.801 -421.736 832.532 -451.711C884.748 -463.55 938.527 -469.553 992.376 -469.553C1076.65 -469.553 1163.45 -453.987 1243.49 -424.528C1336.47 -404.368 1426.28 -364.606 1503.28 -309.514L1505.79 -307.713C1579.22 -255.232 1646.51 -182.772 1695.42 -103.569C1704.49 -94.1175 1713.41 -84.2887 1721.3 -75.1022C1804.44 19.975 1901.75 182.388 1892.69 415.627C1890.46 472.967 1881.87 527.695 1866.42 582.927C1844.94 713.27 1785.51 839.146 1699 937.462C1654.89 987.626 1598.05 1035.44 1538.88 1072.23C1514.73 1093.98 1488.54 1115.19 1463.07 1133.62C1368.71 1203.3 1261.2 1252.93 1143.68 1281.07C1142.99 1281.23 1140 1281.95 1137.02 1282.64L1134.27 1283.27C1070.14 1298.35 1003.04 1306 934.897 1306V1306.03Z" stroke="#93251B" stroke-miterlimit="10"/>
<path d="M934.897 1292.07C886.87 1292.07 838.452 1288.03 791.011 1280.07C709.867 1267.29 634.224 1238.89 595.607 1222.75C449.138 1191.03 313.894 1111.28 214.643 998.11C152.193 928.29 105.073 846.518 74.6935 755.168C25.4935 609.09 29.305 433.763 84.8853 285.982C94.9235 239.811 109.234 195.833 128.598 151.589C189.526 12.4638 283.807 -96.84 408.804 -173.307C430.877 -195.673 456.873 -219.044 480.467 -237.711C575.726 -335.594 705.12 -408.612 835.618 -438.071C886.814 -449.686 939.574 -455.578 992.376 -455.578C1075.35 -455.578 1160.81 -440.193 1239.58 -411.069C1331.07 -391.37 1419.41 -352.334 1495.15 -298.135L1497.69 -296.32C1570.07 -244.593 1636.3 -173.111 1684.32 -94.9413C1693.57 -85.3358 1702.68 -75.3534 1710.72 -65.9714C1792.24 27.2489 1887.64 186.479 1878.76 415.124C1876.57 471.598 1868.06 525.531 1852.79 579.953C1831.85 708.021 1773.53 831.705 1688.55 928.289C1645.02 977.783 1588.92 1024.9 1530.49 1061.08C1506.43 1082.8 1480.33 1103.97 1454.92 1122.35C1361.96 1191 1256.16 1239.84 1140.45 1267.52C1139.74 1267.69 1136.81 1268.4 1133.87 1269.09L1131.17 1269.72C1068.03 1284.56 1002 1292.08 934.925 1292.08L934.897 1292.07Z" stroke="#93251B" stroke-miterlimit="10"/>
<path d="M934.897 1278.11C887.638 1278.11 840.002 1274.14 793.315 1266.31C712.911 1253.65 638.036 1225.43 599.81 1209.37C455.756 1178.45 322.732 1100.2 225.128 988.91C163.893 920.457 117.709 840.291 87.929 750.77C39.5806 607.247 43.4619 435.047 98.2883 289.96C108.145 244.335 122.232 200.901 141.373 157.202C201.379 20.1983 294.278 -87.2765 417.53 -162.277C439.742 -184.909 465.976 -208.503 489.836 -227.309C583.335 -323.657 710.426 -395.474 838.689 -424.444C888.894 -435.823 940.607 -441.603 992.376 -441.603C1074.06 -441.603 1158.17 -426.399 1235.67 -397.61C1325.66 -378.386 1412.54 -340.062 1487.01 -286.757L1489.57 -284.942C1560.9 -233.955 1626.06 -163.478 1673.19 -86.3271C1682.61 -76.596 1691.9 -66.4321 1700.09 -56.8685C1779.98 34.4948 1873.49 190.541 1864.77 414.594C1862.6 470.216 1854.2 523.325 1839.09 576.937C1818.67 702.729 1761.48 824.207 1678.02 919.075C1635.08 967.898 1579.7 1014.31 1522.02 1049.88C1498.06 1071.58 1472.01 1092.73 1446.62 1111.09C1355.2 1178.6 1251.05 1226.7 1137.16 1253.95C1136.4 1254.13 1133.54 1254.82 1130.66 1255.49L1128 1256.1C1065.87 1270.71 1000.88 1278.12 934.883 1278.12L934.897 1278.11Z" stroke="#93251B" stroke-miterlimit="10"/>
<path d="M934.897 1264.15C888.42 1264.15 841.551 1260.24 795.618 1252.54C715.968 1239.99 641.861 1211.96 604.012 1196C462.36 1165.88 331.583 1089.11 235.626 979.71C175.62 912.611 130.344 834.078 101.178 746.373C53.6955 605.391 57.6466 436.318 111.719 293.926C121.38 248.858 135.272 205.955 154.162 162.8C213.232 27.9192 304.777 -77.7266 426.283 -151.247C448.636 -174.144 475.092 -197.962 499.204 -216.922C590.944 -311.72 715.745 -382.364 841.761 -410.818C890.961 -421.973 941.64 -427.627 992.376 -427.627C1072.78 -427.627 1155.53 -412.605 1231.76 -384.165C1320.25 -365.401 1405.69 -327.803 1478.89 -275.406L1481.46 -273.577C1551.74 -223.344 1615.84 -153.844 1662.09 -77.7266C1671.7 -67.8419 1681.16 -57.5105 1689.51 -47.7794C1767.76 41.7131 1859.38 194.59 1850.83 414.05C1848.7 468.82 1840.41 521.12 1825.45 573.922C1805.56 697.452 1749.5 816.724 1667.55 909.861C1625.19 958.014 1570.56 1003.72 1513.61 1038.68C1489.76 1060.35 1463.8 1081.46 1438.46 1099.79C1348.48 1166.25 1245.98 1213.58 1133.92 1240.4C1133.13 1240.58 1130.33 1241.26 1127.51 1241.92L1124.88 1242.52C1063.76 1256.89 999.804 1264.19 934.897 1264.19V1264.15Z" stroke="#93251B" stroke-miterlimit="10"/>
<path d="M934.897 1250.18C889.187 1250.18 843.101 1246.34 797.936 1238.76C719.012 1226.32 645.687 1198.48 608.214 1182.61C468.977 1153.32 340.435 1078.03 246.126 970.495C187.334 904.765 142.993 827.837 114.428 741.947C67.7966 603.506 71.8175 437.574 125.15 297.877C134.63 253.368 148.298 210.995 166.95 168.385C225.086 35.6257 315.276 -68.2052 435.023 -140.232C457.515 -163.38 484.181 -187.435 508.572 -206.535C598.539 -299.783 721.036 -369.255 844.832 -397.205C893.027 -408.137 942.674 -413.68 992.362 -413.68C1071.48 -413.68 1152.86 -398.839 1227.84 -370.735C1314.83 -352.431 1398.81 -315.559 1470.75 -264.07L1473.33 -262.227C1542.57 -212.748 1605.59 -144.225 1650.95 -69.1405C1660.75 -59.1023 1670.38 -48.6033 1678.89 -38.7047C1755.52 48.931 1845.21 198.611 1836.86 413.491C1834.77 467.41 1826.56 518.9 1811.77 570.878C1792.39 692.133 1737.47 809.213 1657.05 900.604C1615.28 948.087 1561.39 993.084 1505.18 1027.43C1481.44 1049.07 1455.56 1070.15 1430.26 1088.44C1341.72 1153.84 1240.89 1200.4 1130.66 1226.77C1129.87 1226.97 1127.1 1227.62 1124.34 1228.28L1121.76 1228.86C1061.62 1242.99 998.729 1250.17 934.883 1250.17L934.897 1250.18Z" stroke="#93251B" stroke-miterlimit="10"/>
<path d="M934.897 1236.22C889.955 1236.22 844.651 1232.44 800.239 1225C722.069 1212.68 649.498 1185.01 612.417 1169.22C475.595 1140.74 349.286 1066.94 256.624 961.28C199.048 896.918 155.642 821.597 127.677 737.535C81.9115 601.635 85.9883 438.845 138.581 301.842C147.865 257.877 161.324 216.035 179.739 173.983C236.953 43.3465 325.789 -58.6555 443.777 -129.202C466.394 -152.616 493.284 -176.895 517.954 -196.147C606.148 -287.846 726.356 -356.145 847.918 -383.593C895.107 -394.301 943.721 -399.719 992.376 -399.719C1070.2 -399.719 1150.24 -385.045 1223.94 -357.29C1309.43 -339.461 1391.95 -303.315 1462.64 -252.719L1465.23 -250.862C1533.42 -202.123 1595.38 -134.592 1639.85 -60.5403C1649.85 -50.3484 1659.66 -39.6819 1668.3 -29.6158C1743.3 56.1631 1831.09 202.66 1822.93 412.947C1820.86 466 1812.75 516.68 1798.13 567.862C1779.28 686.855 1725.49 801.716 1646.58 891.39C1605.39 938.202 1552.24 982.488 1496.77 1016.22C1473.14 1037.83 1447.34 1058.88 1422.09 1077.13C1334.99 1141.45 1235.82 1187.26 1127.42 1213.2C1127.26 1213.24 1124.23 1213.97 1121.18 1214.68L1118.64 1215.27C1059.5 1229.17 997.667 1236.22 934.897 1236.22Z" stroke="#93251B" stroke-miterlimit="10"/>
<path d="M934.897 1222.26C890.723 1222.26 846.2 1218.55 802.557 1211.23C725.113 1199.03 653.324 1171.54 616.619 1155.83C482.213 1128.18 358.138 1055.84 267.123 952.08C210.775 889.072 168.277 815.37 140.926 733.137C96.0126 599.778 100.159 440.116 152.026 305.821C161.115 262.415 174.378 221.103 192.542 179.596C248.82 51.0812 336.302 -49.0919 452.545 -118.159C475.288 -141.851 502.401 -166.354 527.336 -185.746C613.757 -275.909 731.661 -343.021 851.003 -369.981C897.201 -380.452 944.768 -385.771 992.39 -385.771C1068.93 -385.771 1147.61 -371.279 1220.04 -343.845C1304.02 -326.491 1385.1 -291.057 1454.54 -241.368L1457.15 -239.511C1524.29 -191.526 1585.18 -124.972 1628.76 -51.9539C1638.96 -41.6225 1648.95 -30.7885 1657.75 -20.5408C1731.12 63.3672 1817.01 206.695 1809.01 412.388C1806.97 464.59 1798.95 514.46 1784.5 564.819C1766.19 681.536 1713.51 794.205 1636.12 882.147C1595.54 928.29 1543.11 971.863 1488.37 1004.98C1464.83 1026.58 1439.11 1047.59 1413.91 1065.81C1328.25 1129.07 1230.73 1174.12 1124.17 1199.62C1123.89 1199.69 1120.96 1200.4 1118.01 1201.08L1115.52 1201.65C1057.38 1215.32 996.593 1222.26 934.897 1222.26Z" stroke="#93251B" stroke-miterlimit="10"/>
<path d="M934.897 1208.3C891.491 1208.3 847.75 1204.66 804.861 1197.47C728.157 1185.37 657.135 1158.07 620.808 1142.44C488.803 1115.6 366.975 1044.77 277.622 942.879C222.489 881.24 180.926 809.157 154.176 728.739C110.114 597.921 114.344 441.386 165.457 309.8C174.35 266.924 187.404 226.157 205.33 185.194C260.687 58.7878 346.801 -39.5423 461.313 -107.115C484.181 -131.073 511.518 -155.813 536.718 -175.345C621.38 -263.958 736.98 -329.911 854.075 -356.354C899.268 -366.602 945.801 -371.796 992.39 -371.796C1067.64 -371.796 1144.97 -357.485 1216.14 -330.386C1298.62 -313.493 1378.23 -278.799 1446.4 -230.004L1449.03 -228.133C1515.12 -180.887 1574.94 -115.311 1617.62 -43.3259C1628.02 -32.8408 1638.2 -21.8532 1647.14 -11.4241C1718.89 70.6271 1802.86 210.758 1795.04 411.872C1793.05 463.222 1785.12 512.282 1770.84 561.831C1753.05 676.272 1701.5 786.735 1625.64 872.961C1585.64 918.433 1533.95 961.294 1479.96 993.783C1456.54 1015.35 1430.9 1036.34 1405.75 1054.53C1321.53 1116.73 1225.67 1161.01 1120.93 1186.07C1120.56 1186.17 1117.71 1186.85 1114.86 1187.51L1112.4 1188.08C1055.27 1201.51 995.532 1208.33 934.911 1208.33L934.897 1208.3Z" stroke="#93251B" stroke-miterlimit="10"/>
<path d="M934.897 1194.34C892.273 1194.34 849.3 1190.75 807.164 1183.69C731.2 1171.72 660.947 1144.58 624.996 1129.04C495.42 1103.02 375.827 1033.67 288.107 933.665C234.189 873.379 193.561 802.916 167.411 724.314C124.201 596.036 128.501 442.642 178.873 313.751C187.571 271.434 200.416 231.197 218.105 190.779C272.541 66.4944 357.3 -30.0068 470.066 -96.1001C493.047 -120.337 520.607 -145.314 546.072 -164.972C628.947 -252.035 742.272 -316.816 857.132 -342.756C901.32 -352.78 946.82 -357.862 992.362 -357.862C1066.33 -357.862 1142.31 -343.719 1212.2 -316.969C1293.19 -300.551 1371.33 -266.583 1438.26 -218.681L1440.89 -216.81C1505.95 -170.305 1564.7 -105.705 1606.48 -34.7537C1617.08 -24.129 1627.44 -12.9739 1636.53 -2.37723C1706.64 77.8031 1788.72 214.764 1781.08 411.285C1779.11 461.77 1771.3 510.034 1757.17 558.759C1739.91 670.939 1689.5 779.182 1615.15 863.676C1575.74 908.478 1524.79 950.628 1471.55 982.488C1448.23 1004.03 1422.68 1024.99 1397.56 1043.15C1314.79 1104.29 1220.59 1147.8 1117.69 1172.42C1117.23 1172.53 1114.47 1173.2 1111.7 1173.84L1109.28 1174.4C1053.14 1187.59 994.443 1194.3 934.897 1194.3V1194.34Z" stroke="#93251B" stroke-miterlimit="10"/>
<path d="M934.897 1180.38C893.041 1180.38 850.85 1176.86 809.482 1169.92C734.244 1158.07 664.758 1131.09 629.184 1115.64C502.01 1090.44 384.664 1022.58 298.606 924.45C245.916 865.533 206.196 796.675 180.661 719.902C138.316 594.165 142.672 443.913 192.318 317.73C200.821 275.957 213.442 236.251 230.908 196.377C284.408 74.215 367.827 -20.4572 478.848 -85.0427C501.926 -109.559 529.709 -134.759 555.468 -154.556C636.57 -240.084 747.591 -303.692 860.232 -329.13C903.414 -338.917 947.881 -343.887 992.39 -343.887C1065.06 -343.887 1139.7 -329.926 1208.32 -303.497C1287.8 -287.553 1364.48 -254.311 1430.15 -207.317L1432.77 -205.432C1496.79 -159.68 1554.48 -96.0442 1595.35 -26.1255C1606.15 -15.3753 1616.69 -4.03862 1625.93 6.72562C1694.43 85.0491 1774.59 218.827 1767.14 410.755C1765.2 460.387 1757.47 507.842 1743.51 555.758C1726.77 665.662 1677.49 771.712 1604.67 854.476C1565.85 898.594 1515.62 940.031 1463.13 971.263C1439.94 992.777 1414.46 1013.72 1389.37 1031.86C1308.03 1091.93 1215.49 1134.68 1114.43 1158.86C1113.9 1158.99 1111.22 1159.64 1108.52 1160.26L1106.15 1160.8C1051 1173.76 993.367 1180.35 934.897 1180.35V1180.38Z" stroke="#93251B" stroke-miterlimit="10"/>
<path d="M934.897 1166.42C992.292 1166.42 1048.89 1159.95 1103.02 1147.23L1105.37 1146.7C1107.96 1146.1 1110.57 1145.47 1111.19 1145.32C1210.41 1121.59 1301.3 1079.58 1381.2 1020.57C1406.16 1002.52 1431.52 981.65 1454.55 960.219L1454.89 959.954C1506.59 929.365 1556.03 888.667 1594.2 845.275C1665.5 764.243 1713.65 660.384 1729.86 552.77C1743.65 505.65 1751.29 459.019 1753.2 410.238C1760.49 222.89 1682.21 92.309 1615.35 15.8424C1605.95 4.88274 1595.22 -6.6075 1584.23 -17.4974C1544.26 -86.3969 1487.64 -149.056 1424.66 -194.067L1422.04 -195.952C1357.62 -242.053 1282.4 -274.569 1204.41 -290.038C1137.07 -316.132 1063.79 -329.926 992.39 -329.926C948.914 -329.926 905.48 -325.081 863.303 -315.503C752.896 -290.568 644.179 -228.147 564.85 -144.155C538.798 -124.232 510.806 -98.7946 487.63 -73.9992C378.34 -10.9076 296.275 81.9357 243.71 201.976C226.496 241.305 214.084 280.481 205.777 321.709C156.87 445.183 152.431 592.309 193.924 715.504C218.859 790.463 257.644 857.701 309.119 915.25C393.53 1011.49 508.628 1077.86 633.373 1102.23C668.569 1117.61 737.274 1144.4 811.785 1156.15C852.399 1162.97 893.809 1166.42 934.897 1166.42Z" stroke="#93251B" stroke-miterlimit="10"/>
<path d="M934.897 1152.45C894.59 1152.45 853.949 1149.06 814.089 1142.39C740.303 1130.76 672.353 1104.12 637.547 1088.83C515.217 1065.28 402.354 1000.41 319.604 906.049C269.343 849.855 231.494 784.236 207.159 711.106C166.518 590.452 171.027 446.468 219.194 325.702C227.292 285.018 239.494 246.359 256.471 207.588C308.114 89.6705 388.839 -1.34389 496.384 -62.9276C519.643 -88.0162 547.845 -113.677 574.19 -133.726C651.746 -216.182 758.16 -277.444 866.347 -301.863C907.519 -311.203 949.92 -315.936 992.362 -315.936C1062.48 -315.936 1134.41 -302.324 1200.47 -276.551C1276.95 -261.57 1350.72 -229.78 1413.88 -184.573L1416.51 -182.688C1478.46 -138.417 1533.99 -76.7354 1573.04 -8.8551C1584.24 2.16044 1595.17 13.8182 1604.72 24.9594C1669.95 99.5551 1746.32 226.967 1739.21 409.722C1737.34 457.651 1729.8 503.472 1716.16 549.782C1700.5 655.135 1653.46 756.774 1583.68 836.089C1546.25 878.629 1497.75 918.489 1447.02 948.408C1446.5 948.799 1445.98 949.204 1445.48 949.595C1422.74 970.802 1397.68 991.437 1372.99 1009.29C1294.53 1067.23 1205.32 1108.48 1107.92 1131.78C1107.24 1131.94 1104.71 1132.56 1102.18 1133.15L1099.89 1133.68C1046.76 1146.17 991.217 1152.51 934.883 1152.51L934.897 1152.45Z" stroke="#93251B" stroke-miterlimit="10"/>
<path d="M934.897 1138.49C895.358 1138.49 855.499 1135.17 816.407 1128.61C743.333 1117.09 676.165 1090.62 641.736 1075.4C521.821 1052.67 411.205 989.301 330.103 896.835C281.071 842.008 244.129 777.995 220.409 706.68C180.619 588.567 185.212 447.71 232.653 329.667C240.555 289.528 252.548 251.399 269.274 213.159C319.995 97.3492 399.366 8.17776 505.193 -51.8981C528.537 -77.28 556.948 -103.178 583.586 -123.353C659.369 -204.273 763.479 -264.363 869.446 -288.279C909.613 -297.395 950.981 -302.017 992.376 -302.017C1061.21 -302.017 1131.78 -288.572 1196.58 -263.134C1271.55 -248.628 1343.87 -217.578 1405.77 -173.265L1408.4 -171.38C1469.31 -127.848 1523.77 -67.1301 1561.92 -0.282888C1573.34 10.8723 1584.45 22.6836 1594.14 33.9924C1657.75 106.731 1732.22 230.96 1725.28 409.121C1723.44 456.199 1716 501.211 1702.51 546.711C1687.37 649.788 1641.48 749.221 1573.21 826.804C1536.54 868.507 1488.96 907.529 1439.18 936.75C1438.28 937.448 1437.37 938.16 1436.46 938.845C1414 959.828 1389.24 980.24 1364.82 997.901C1287.79 1054.79 1200.21 1095.27 1104.61 1118.12C1104.12 1118.25 1101.58 1118.86 1099.03 1119.45L1096.78 1119.97C1044.63 1132.22 990.142 1138.45 934.897 1138.45V1138.49Z" stroke="#93251B" stroke-miterlimit="10"/>
<path d="M934.897 1124.53C896.14 1124.53 857.048 1121.28 818.71 1114.84C746.348 1103.44 679.962 1077.13 645.896 1061.98C528.411 1040.09 420.043 978.216 340.588 887.634C292.77 834.176 256.764 771.768 233.644 702.283C194.72 586.696 199.369 448.995 246.084 333.66C253.79 294.051 265.56 256.453 282.048 218.771C331.834 105.084 409.865 17.7552 513.975 -40.8268C537.402 -66.5158 566.009 -92.6376 592.941 -112.923C666.936 -192.308 768.756 -251.225 872.49 -274.652C911.651 -283.532 951.986 -288.041 992.348 -288.041C1059.89 -288.041 1129.11 -274.778 1192.64 -249.647C1266.12 -235.63 1336.97 -205.306 1397.62 -161.886L1400.24 -160.001C1460.12 -117.196 1513.51 -57.4688 1550.72 8.35919C1562.34 19.626 1573.64 31.6049 1583.5 43.1091C1645.48 113.991 1718.05 235.036 1711.29 408.618C1709.49 454.831 1702.13 499.047 1688.8 543.737C1674.2 644.538 1629.43 741.765 1562.7 817.618C1526.76 858.469 1480.13 896.653 1431.31 925.204C1430.01 926.209 1428.7 927.229 1427.39 928.22C1405.2 948.98 1380.74 969.169 1356.59 986.634C1280.99 1042.45 1195.07 1082.17 1101.32 1104.59C1100.72 1104.75 1098.27 1105.33 1095.82 1105.91L1093.61 1106.41C1042.46 1118.43 989.011 1124.53 934.841 1124.53H934.897Z" stroke="#93251B" stroke-miterlimit="10"/>
<path d="M934.897 1110.57C896.908 1110.57 858.584 1107.37 821.028 1101.08C749.378 1089.78 683.759 1063.63 650.071 1048.57C535.001 1027.51 428.88 967.13 351.087 878.433C304.484 826.33 269.413 765.556 246.907 697.885C208.835 584.839 213.568 450.265 259.542 337.667C267.04 298.589 278.6 261.521 294.851 224.384C343.716 112.804 420.406 27.3188 522.799 -29.7415C546.282 -55.7236 575.098 -82.0967 602.337 -102.494C674.545 -180.343 774.076 -238.101 875.589 -261.012C913.76 -269.668 953.047 -274.066 992.376 -274.066C1058.64 -274.066 1126.52 -260.97 1188.76 -236.175C1260.73 -222.646 1330.12 -193.048 1389.52 -150.536L1392.15 -148.651C1451.01 -106.585 1503.29 -47.8215 1539.58 16.9873C1551.42 28.3798 1562.92 40.5123 1572.93 52.198C1633.27 121.209 1703.95 239.085 1697.37 408.074C1695.6 453.435 1688.32 496.841 1675.16 540.721C1661.09 639.247 1617.47 734.268 1552.24 808.389C1517.05 848.402 1471.35 885.735 1423.49 913.616C1421.8 914.942 1420.08 916.269 1418.38 917.553C1396.49 938.091 1372.31 958.055 1348.43 975.326C1274.28 1030.08 1190.01 1069.03 1098.09 1091.02C1097.41 1091.19 1095.05 1091.76 1092.67 1092.31L1090.51 1092.8C1040.35 1104.58 987.964 1110.57 934.855 1110.57H934.897Z" stroke="#93251B" stroke-miterlimit="10"/>
<path d="M934.897 1096.61C897.676 1096.61 860.134 1093.48 823.332 1087.31C752.394 1076.13 687.543 1050.14 654.231 1035.14C541.591 1014.92 437.718 956.045 361.586 869.233C316.212 818.497 282.048 759.329 260.157 693.487C222.936 582.968 227.738 451.564 273.001 341.674C280.289 303.14 291.626 266.589 307.653 229.996C355.597 120.539 430.947 36.8963 531.622 -18.6561C555.161 -44.9594 584.173 -71.5559 611.733 -92.0651C682.154 -168.392 779.381 -224.964 878.675 -247.386C915.84 -255.818 954.094 -260.091 992.39 -260.091C1057.38 -260.091 1123.89 -247.162 1184.85 -222.688C1255.31 -209.648 1323.25 -180.776 1381.4 -139.171L1384.02 -137.286C1441.85 -95.9604 1493.06 -38.1602 1528.41 25.6295C1540.47 37.1336 1552.17 49.4336 1562.35 61.3008C1621.07 128.455 1689.83 243.148 1683.44 407.543C1681.69 452.052 1674.52 494.649 1661.5 537.733C1647.98 633.983 1605.48 726.799 1541.79 799.189C1507.33 838.35 1462.58 874.845 1415.67 902.042C1413.59 903.662 1411.46 905.309 1409.38 906.901C1387.76 927.215 1363.89 946.956 1340.28 964.031C1267.56 1017.74 1184.93 1055.94 1094.81 1077.48C1094.29 1077.61 1091.92 1078.18 1089.55 1078.74L1087.43 1079.23C1038.27 1090.79 986.917 1096.65 934.897 1096.65V1096.61Z" stroke="#93251B" stroke-miterlimit="10"/>
<path d="M934.897 1082.65C898.444 1082.65 861.684 1079.58 825.635 1073.54C755.395 1062.47 691.327 1036.63 658.392 1021.69C548.18 1002.31 446.555 944.946 372.085 860.018C327.925 810.637 294.697 753.088 273.406 689.061C237.037 581.083 241.923 452.806 286.446 345.652C293.524 307.664 304.652 271.629 320.428 235.567C367.436 128.218 441.459 46.4178 540.446 -7.59884C564.013 -34.2232 593.234 -61.057 621.101 -81.664C689.735 -156.455 784.658 -211.868 881.746 -233.801C917.906 -242.011 955.127 -246.157 992.376 -246.157C1056.08 -246.157 1121.25 -233.396 1180.92 -209.229C1249.89 -196.678 1316.36 -168.546 1373.26 -127.834L1375.88 -125.95C1432.68 -85.3498 1482.8 -28.527 1517.21 34.2435C1529.5 45.8733 1541.41 58.3268 1551.73 70.3755C1608.81 135.673 1675.67 247.169 1669.46 406.985C1667.76 450.642 1660.67 492.429 1647.79 534.704C1634.8 628.678 1593.44 719.287 1531.27 789.946C1497.57 828.256 1453.74 863.913 1407.8 890.426C1405.34 892.353 1402.79 894.335 1400.31 896.206C1379 916.297 1355.41 935.815 1332.07 952.694C1260.78 1005.33 1179.82 1042.77 1091.54 1063.87C1090.93 1064.02 1088.65 1064.57 1086.36 1065.1L1084.28 1065.57C1036.12 1076.89 985.828 1082.63 934.869 1082.63L934.897 1082.65Z" stroke="#93251B" stroke-miterlimit="10"/>
<path d="M934.897 1068.69C899.212 1068.69 863.233 1065.68 827.953 1059.76C758.411 1048.8 695.11 1023.12 662.552 1008.23C554.77 989.692 455.407 933.832 382.584 850.804C339.653 802.791 307.346 746.847 286.655 684.649C251.138 579.199 256.108 454.077 299.919 349.645C306.788 312.173 317.692 276.669 333.231 241.165C379.317 135.924 452 55.9814 549.297 3.48657C572.906 -23.4589 602.309 -50.5301 630.497 -71.2348C697.344 -144.504 789.964 -198.758 884.832 -220.175C919.986 -228.147 956.188 -232.196 992.39 -232.196C1054.83 -232.196 1118.63 -219.603 1177.03 -195.757C1244.51 -183.694 1309.52 -156.302 1365.15 -116.484L1367.77 -114.599C1423.55 -74.7391 1472.58 -18.8796 1506.03 42.8717C1518.55 54.6132 1530.66 67.2203 1541.14 79.4505C1596.61 142.891 1661.56 251.204 1655.53 406.426C1653.85 449.232 1646.86 490.209 1634.14 531.674C1621.69 623.373 1581.46 711.776 1520.82 780.704C1487.85 818.176 1444.98 852.982 1399.99 878.81C1397.13 881.072 1394.16 883.362 1391.32 885.512C1370.28 905.379 1347 924.688 1323.93 941.371C1254.07 992.959 1174.75 1029.64 1088.28 1050.3C1087.9 1050.4 1085.57 1050.95 1083.22 1051.5L1081.2 1051.96C1034.02 1063.05 984.781 1068.67 934.897 1068.67V1068.69Z" stroke="#93251B" stroke-miterlimit="10"/>
<path d="M934.897 1054.72C899.994 1054.72 864.783 1051.79 830.256 1046C761.399 1035.14 698.866 1009.59 666.699 994.788C561.416 977.113 464.202 922.705 393.069 841.617C351.353 794.972 319.967 740.649 299.891 680.266C265.225 577.356 270.279 455.375 313.364 353.667C320.009 316.725 330.704 281.751 346.005 246.778C391.17 143.659 462.527 65.5591 558.121 14.6C581.73 -12.6805 611.328 -39.989 639.851 -60.7915C704.897 -132.539 795.213 -185.634 887.875 -206.549C922.025 -214.297 957.193 -218.22 992.362 -218.22C1053.51 -218.22 1115.98 -205.781 1173.09 -182.256C1239.07 -170.682 1302.63 -144.029 1356.99 -105.119L1359.62 -103.234C1414.37 -64.1004 1462.3 -9.20417 1494.8 51.5279C1507.55 63.3672 1519.87 76.1279 1530.52 88.5536C1584.35 150.123 1647.4 255.267 1641.55 405.91C1639.91 447.85 1632.99 488.031 1620.43 528.701C1608.52 618.109 1569.44 704.307 1510.3 771.517C1478.08 808.138 1436.14 842.106 1392.12 867.251C1388.89 869.806 1385.52 872.416 1382.26 874.873C1361.52 894.517 1338.51 913.602 1315.71 930.091C1247.3 980.603 1169.63 1016.53 1085 1036.76C1084.52 1036.87 1082.27 1037.41 1080.03 1037.94L1078.04 1038.39C1031.87 1049.24 983.664 1054.75 934.869 1054.75L934.897 1054.72Z" stroke="#93251B" stroke-miterlimit="10"/>
<path d="M934.897 1040.76C900.761 1040.76 866.333 1037.89 832.56 1032.23C764.428 1021.48 702.677 996.086 670.901 981.343C670.315 981.245 669.77 981.147 669.254 981.05C567.014 963.905 472.607 911.117 403.582 832.389C363.08 787.098 332.63 734.394 313.154 675.84C279.34 575.457 284.477 456.632 326.85 357.659C333.287 321.248 343.744 286.791 358.822 252.362C403.066 151.352 473.096 75.1086 567.014 25.6852C590.623 -1.93043 620.403 -29.4763 649.261 -50.3625C712.52 -120.588 800.533 -172.525 890.975 -192.936C924.133 -200.461 958.254 -204.273 992.39 -204.273C1052.27 -204.273 1113.38 -192.001 1169.21 -168.769C1233.69 -157.698 1295.79 -131.785 1348.89 -93.7685L1351.52 -91.8837C1405.24 -53.4759 1452.08 0.442985 1483.62 60.1698C1496.62 72.1068 1509.14 85.0212 1519.95 97.6283C1572.17 157.341 1633.32 259.301 1627.63 405.352C1626.03 446.44 1619.2 485.811 1606.78 525.685C1595.41 612.818 1557.46 696.796 1499.86 762.275C1468.38 798.058 1427.39 831.174 1384.31 855.621C1380.71 858.497 1376.93 861.415 1373.27 864.165C1352.79 883.599 1330.09 902.461 1307.57 918.754C1240.6 968.205 1164.59 1003.36 1081.8 1023.14C1081.27 1023.27 1079.09 1023.8 1076.91 1024.3L1074.99 1024.73C1029.81 1035.36 982.645 1040.75 934.911 1040.75L934.897 1040.76Z" stroke="#93251B" stroke-miterlimit="10"/>
<path d="M934.897 1026.8C901.529 1026.8 867.882 1024 834.878 1018.47C767.458 1007.83 706.489 982.585 675.089 967.898C673.749 967.675 672.674 967.493 671.669 967.312C572.515 950.698 480.984 899.501 414.067 823.202C374.794 779.28 345.265 728.181 326.39 671.442C293.441 573.6 298.648 457.93 340.309 361.694C346.522 325.799 356.756 291.859 371.597 257.975C414.905 159.072 483.637 84.6861 575.88 36.8124C599.461 8.84776 629.422 -18.9354 658.643 -39.9054C720.101 -108.623 805.81 -159.387 894.06 -179.31C926.213 -186.598 959.302 -190.298 992.39 -190.298C1051 -190.298 1110.74 -178.193 1165.3 -155.268C1228.28 -144.7 1288.92 -119.527 1340.78 -82.4179L1343.41 -80.5331C1396.11 -42.8652 1441.85 10.1043 1472.4 68.8119C1485.63 80.8467 1498.38 93.9146 1509.35 106.717C1559.94 164.573 1619.19 263.35 1613.69 404.807C1612.11 445.044 1605.37 483.605 1593.08 522.683C1582.26 607.54 1545.46 689.312 1489.36 753.06C1458.63 787.992 1418.56 820.27 1376.45 844.033C1372.46 847.23 1368.26 850.469 1364.22 853.484C1344.04 872.695 1321.63 891.348 1299.36 907.445C1233.81 955.849 1159.45 990.236 1078.46 1009.59C1078.18 1009.66 1075.95 1010.2 1073.72 1010.72L1071.86 1011.14C1027.67 1021.52 981.556 1026.8 934.897 1026.8Z" stroke="#93251B" stroke-miterlimit="10"/>
<path d="M934.897 1012.84C902.297 1012.84 869.418 1010.1 837.181 1004.69C770.46 994.16 710.286 969.057 679.264 954.425C677.016 954.062 675.494 953.797 674.112 953.56C578.044 937.462 489.361 887.885 424.566 813.988C386.507 771.419 357.9 721.954 339.639 667.03C307.542 571.716 312.833 459.187 353.782 365.701C359.771 330.337 369.782 296.899 384.385 263.56C426.772 166.765 494.178 94.2358 584.773 47.9259C608.312 19.5982 638.441 -8.42238 668.025 -29.4622C727.682 -96.6584 811.087 -146.277 897.131 -165.711C928.279 -172.776 960.335 -176.364 992.39 -176.364C1049.72 -176.364 1108.12 -164.413 1161.39 -141.796C1222.86 -131.729 1282.05 -107.311 1332.66 -71.0951L1335.28 -69.2103C1386.97 -32.2684 1431.59 19.7378 1461.16 77.4403C1474.66 89.5588 1487.61 102.766 1498.76 115.764C1547.7 171.763 1605.06 267.357 1599.74 404.221C1598.19 443.592 1591.54 481.357 1579.4 519.64C1569.12 602.207 1533.46 681.773 1478.9 743.79C1448.91 777.883 1409.79 809.297 1368.64 832.375C1364.28 835.879 1359.67 839.439 1355.23 842.748C1335.34 861.736 1313.22 880.165 1291.21 896.081C1227.1 943.41 1154.4 977.043 1075.25 995.961C1074.87 996.058 1072.72 996.575 1070.57 997.077L1068.77 997.482C1025.56 1007.63 980.509 1012.8 934.925 1012.8L934.897 1012.84Z" stroke="#93251B" stroke-miterlimit="10"/>
<path d="M934.897 998.879C903.065 998.879 870.968 996.198 839.499 990.92C773.461 980.505 714.084 955.542 683.438 940.953C680.157 940.436 678.245 940.101 676.555 939.808C583.559 924.227 497.752 876.256 435.065 804.773C398.221 763.573 370.549 715.713 352.888 662.618C321.629 569.831 327.018 460.471 367.269 369.736C373.021 334.888 382.822 301.967 397.174 269.158C438.639 174.472 504.746 103.799 593.695 59.053C617.164 30.3624 647.46 2.10453 677.407 -19.0051C735.249 -84.6935 816.351 -133.153 900.189 -152.085C930.332 -158.926 961.354 -162.389 992.376 -162.389C1048.43 -162.389 1105.48 -150.591 1157.46 -128.267C1217.43 -118.717 1275.15 -95.0389 1324.5 -59.7165L1327.13 -57.8317C1377.79 -21.6159 1421.31 29.427 1449.88 86.1382C1463.63 98.3265 1476.81 111.674 1488.13 124.881C1535.52 179.079 1590.9 271.448 1585.76 403.718C1584.26 442.224 1577.68 479.193 1565.67 516.68C1555.96 596.972 1521.44 674.318 1468.39 734.603C1439.14 767.845 1400.96 798.421 1360.76 820.801C1356.03 824.64 1351.02 828.508 1346.17 832.096C1326.57 850.874 1304.73 869.079 1282.98 884.814C1220.31 931.082 1149.29 963.947 1071.97 982.418C1071.51 982.53 1069.44 983.032 1067.38 983.507L1065.63 983.912C1023.41 993.838 979.406 998.879 934.897 998.879Z" stroke="#93251B" stroke-miterlimit="10"/>
<path d="M934.897 984.917C903.833 984.917 872.518 982.306 841.802 977.154C776.463 966.851 717.853 942.014 687.599 927.48C683.257 926.824 681.037 926.433 678.999 926.07C589.087 911.005 506.143 864.654 445.564 795.587C409.949 755.755 383.199 709.501 366.138 658.234C335.73 567.974 341.217 461.77 380.755 373.785C386.284 339.44 395.848 307.035 409.963 274.771C450.506 182.193 515.315 113.391 602.63 70.2081C626.001 41.1266 656.451 12.6453 686.803 -8.52015C742.844 -72.7007 821.628 -120.016 903.275 -138.459C932.412 -145.063 962.401 -148.413 992.39 -148.413C1047.17 -148.413 1102.87 -136.77 1153.56 -114.738C1212.03 -105.705 1268.3 -82.7808 1316.39 -48.352L1319.02 -46.4812C1368.68 -10.9913 1411.06 39.1022 1438.62 94.8221C1452.67 107.094 1466.1 120.609 1477.6 134.04C1523.29 186.269 1576.8 275.469 1571.83 403.187C1570.35 440.827 1563.86 476.987 1551.98 513.692C1542.82 591.708 1509.44 666.835 1457.92 725.389C1429.41 757.793 1392.16 787.517 1352.93 809.199C1347.82 813.359 1342.42 817.548 1337.17 821.415C1317.86 839.97 1296.32 857.966 1274.82 873.519C1213.59 918.726 1144.22 950.823 1068.73 968.861C1068.19 969.001 1066.2 969.476 1064.21 969.937L1062.5 970.327C1021.29 980.017 978.317 984.931 934.883 984.931L934.897 984.917Z" stroke="#93251B" stroke-miterlimit="10"/>
<path d="M934.897 970.956C904.615 970.956 874.067 968.415 844.106 963.389C779.451 953.197 721.637 928.485 691.773 913.993C686.161 913.156 683.676 912.723 681.428 912.332C594.602 897.784 514.519 853.038 456.063 786.386C421.662 747.908 395.834 703.274 379.387 653.823C349.831 566.075 355.401 463.054 394.256 377.834C399.547 344.005 408.873 312.103 422.765 280.383C462.388 189.913 525.912 122.968 611.607 81.3773C634.853 51.9048 665.456 23.1723 696.199 1.96491C750.411 -60.7218 826.906 -106.892 906.36 -124.833C934.492 -131.213 963.448 -134.452 992.39 -134.452C1045.9 -134.452 1100.24 -122.962 1149.65 -101.21C1206.61 -92.7073 1261.43 -70.5227 1308.27 -37.0014L1310.89 -35.1305C1359.55 -0.352693 1400.8 48.7915 1427.33 103.506C1441.65 115.834 1455.32 129.488 1467.01 143.115C1511.06 193.487 1562.67 279.504 1557.88 402.629C1556.44 439.403 1550.02 474.768 1538.28 510.69C1529.67 586.417 1497.44 659.323 1447.45 716.16C1419.68 747.713 1383.38 776.585 1345.1 797.569C1339.62 802.051 1333.82 806.56 1328.18 810.693C1309.15 829.038 1287.9 846.825 1266.66 862.183C1206.88 906.314 1139.17 937.658 1065.52 955.263C1064.89 955.417 1062.99 955.878 1061.08 956.324L1059.43 956.701C1019.2 966.153 977.284 970.956 934.925 970.956H934.897Z" stroke="#93251B" stroke-miterlimit="10"/>
<path d="M934.897 956.994C905.383 956.994 875.617 954.509 846.424 949.609C782.439 939.515 725.434 914.929 695.934 900.479C695.403 900.409 694.873 900.325 694.328 900.255C688.562 899.389 686.091 898.971 683.871 898.58C600.131 884.549 522.896 841.422 466.562 777.171C433.376 740.062 408.483 697.047 392.636 649.411C363.932 564.19 369.6 464.324 407.757 381.868C412.797 348.529 421.9 317.143 435.554 285.954C474.255 197.578 536.509 132.518 620.598 92.5184C643.69 62.641 674.419 33.6711 705.595 12.4218C757.992 -48.771 832.169 -93.7965 909.432 -111.234C936.572 -117.391 964.481 -120.505 992.39 -120.505C1044.65 -120.505 1097.62 -109.168 1145.74 -87.6814C1201.21 -79.7094 1254.56 -58.2927 1300.16 -25.6649L1302.77 -23.794C1350.4 10.2578 1390.54 58.4525 1416.02 112.19C1430.62 124.574 1444.54 138.354 1456.41 152.189C1498.84 200.705 1548.54 283.538 1543.94 402.084C1542.53 437.993 1536.19 472.562 1524.57 507.702C1516.53 581.139 1485.45 651.84 1436.96 706.932C1409.95 737.647 1374.57 765.667 1337.24 785.939C1331.39 790.77 1325.17 795.587 1319.14 799.984C1300.41 818.106 1279.44 835.684 1258.45 850.86C1200.11 893.931 1134.07 924.506 1062.25 941.665C1061.55 941.832 1059.73 942.279 1057.9 942.712L1056.31 943.075C1017.06 952.289 976.195 956.98 934.911 956.98L934.897 956.994Z" stroke="#93251B" stroke-miterlimit="10"/>
<path d="M934.897 943.033C906.164 943.033 877.167 940.618 848.727 935.843C785.412 925.86 729.19 901.386 700.08 886.964C698.852 886.796 697.595 886.615 696.325 886.433C690.796 885.61 688.436 885.205 686.3 884.828C605.631 871.313 531.273 829.792 477.047 767.971C445.089 732.23 421.118 690.82 405.872 645.013C378.019 562.319 383.785 465.623 421.257 385.945C426.046 353.108 434.912 322.211 448.328 291.566C486.122 205.285 547.091 142.109 629.617 103.715C652.514 73.4192 683.368 44.198 714.991 22.9348C765.559 -36.7642 837.433 -80.6448 912.503 -97.6079C938.639 -103.528 965.514 -106.543 992.39 -106.543C1043.38 -106.543 1094.99 -95.3462 1141.82 -74.1388C1195.79 -66.7114 1247.67 -46.0485 1292.02 -14.3142L1294.63 -12.4434C1341.26 20.8964 1380.25 68.1557 1404.67 120.902C1419.58 133.328 1433.75 147.233 1445.79 161.278C1486.58 207.937 1534.4 287.587 1529.96 401.54C1528.59 436.583 1522.32 470.342 1510.82 504.715C1503.34 575.862 1473.42 644.343 1426.45 697.703C1400.16 727.581 1365.73 754.736 1329.36 774.309C1323.16 779.461 1316.56 784.599 1310.12 789.262C1291.68 807.174 1270.99 824.542 1250.26 839.537C1193.35 881.561 1128.93 911.382 1058.92 928.094C1058.32 928.248 1056.5 928.681 1054.7 929.099L1053.15 929.448C1014.9 938.44 975.078 943.005 934.869 943.005L934.897 943.033Z" stroke="#93251B" stroke-miterlimit="10"/>
<path d="M934.897 929.071C906.932 929.071 878.716 926.712 851.045 922.077C788.386 912.192 732.959 887.829 704.241 873.435C702.314 873.184 700.36 872.919 698.335 872.625C693.044 871.844 690.782 871.453 688.744 871.09C611.16 858.092 539.664 818.19 487.56 758.77C456.817 724.383 433.767 684.593 419.135 640.615C392.134 560.435 397.998 466.921 434.786 390.022C439.323 357.673 447.951 327.279 461.117 297.178C497.989 212.991 557.716 151.701 638.678 114.926C661.324 84.1834 692.304 54.7388 724.387 33.4477C773.112 -24.7714 842.682 -67.5211 915.575 -83.9816C940.705 -89.6779 966.548 -92.5679 992.376 -92.5679C1042.11 -92.5679 1092.37 -81.5105 1137.9 -60.5544C1190.36 -53.6714 1240.79 -33.7625 1283.88 -2.93573L1286.49 -1.0649C1332.13 31.5489 1369.95 77.8728 1393.31 129.642C1408.52 142.081 1422.96 156.112 1435.19 170.381C1474.37 215.169 1520.27 291.65 1516.01 401.009C1514.67 435.187 1508.49 468.164 1497.09 501.755C1490.18 570.612 1461.41 636.873 1415.98 688.503C1390.43 717.542 1356.94 743.845 1321.52 762.693C1314.97 768.194 1307.96 773.653 1301.12 778.567C1282.95 796.27 1262.57 813.443 1242.08 828.256C1186.61 869.205 1123.85 898.272 1055.68 914.551C1054.98 914.719 1053.26 915.138 1051.53 915.543L1050.04 915.878C1012.79 924.632 974.003 929.085 934.869 929.085L934.897 929.071Z" stroke="#93251B" stroke-miterlimit="10"/>
<path d="M934.897 915.11C907.7 915.11 880.266 912.82 853.349 908.311C791.332 898.524 736.715 874.259 708.373 859.879C705.763 859.558 703.11 859.195 700.332 858.79C695.306 858.036 693.142 857.673 691.173 857.324C616.675 844.828 548.041 806.546 498.045 749.542C468.531 716.523 446.402 678.353 432.371 636.175C406.221 558.522 412.182 468.178 448.314 394.071C452.587 362.211 460.964 332.306 473.906 302.735C509.856 220.642 568.341 161.237 647.781 126.11C670.147 94.9059 701.211 65.21 733.797 43.9468C780.68 -12.8063 847.932 -54.4112 918.646 -70.3831C942.771 -75.856 967.581 -78.6343 992.376 -78.6343C1040.85 -78.6343 1089.76 -67.7025 1133.99 -47.0117C1184.95 -40.6872 1233.92 -21.5461 1275.76 8.38714L1278.36 10.258C1323.01 42.1598 1359.67 87.5622 1381.91 138.368C1397.47 150.807 1412.17 164.95 1424.59 179.456C1462.14 222.387 1506.14 295.685 1502.08 400.465C1500.77 433.791 1494.65 465.944 1483.37 498.767C1477.03 565.335 1449.42 629.376 1405.51 679.274C1380.7 707.476 1348.14 732.914 1313.67 751.05C1306.77 756.886 1299.37 762.652 1292.14 767.831C1274.27 785.325 1254.15 802.288 1233.92 816.933C1179.88 856.835 1118.77 885.135 1052.41 900.967C1051.81 901.121 1050.11 901.526 1048.4 901.93L1046.97 902.252C1010.71 910.768 972.97 915.11 934.911 915.11H934.897Z" stroke="#93251B" stroke-miterlimit="10"/>
<path d="M934.897 901.149C908.468 901.149 881.802 898.929 855.652 894.545C794.278 884.87 740.471 860.689 712.492 846.322C709.169 845.931 705.819 845.499 702.328 844.982C697.567 844.27 695.487 843.921 693.602 843.586C622.176 831.607 556.404 794.944 508.53 740.341C480.23 708.691 459.037 672.126 445.606 631.778C420.294 556.637 426.381 469.49 461.843 398.175C465.836 366.776 473.976 337.374 486.68 308.348C521.724 228.335 578.993 170.828 656.912 137.363C678.915 105.684 710.077 75.7509 743.179 54.4877C788.219 -0.799405 853.139 -41.2875 921.69 -56.7707C944.81 -62.0202 968.586 -64.6729 992.348 -64.6729C1039.57 -64.6729 1087.12 -53.8667 1130.04 -33.4272C1179.5 -27.6612 1227.01 -9.31588 1267.6 19.7378L1270.19 21.5946C1313.85 52.7984 1349.34 97.2654 1370.45 147.122C1386.35 159.547 1401.33 173.802 1413.95 188.531C1449.88 229.605 1491.97 299.72 1488.09 399.907C1486.83 432.032 1480.9 463.054 1469.94 494.76C1469.83 495.095 1469.7 495.444 1469.59 495.78C1463.82 560.058 1437.37 621.865 1394.99 670.032C1370.93 697.396 1339.29 721.968 1305.78 739.392C1298.55 745.577 1290.77 751.664 1283.11 757.081C1265.53 774.379 1245.69 791.133 1225.7 805.611C1173.11 844.451 1113.66 871.983 1049.13 887.383C1048.45 887.55 1046.83 887.941 1045.19 888.318L1043.81 888.639C1008.54 896.932 971.853 901.135 934.869 901.135L934.897 901.149Z" stroke="#93251B" stroke-miterlimit="10"/>
<path d="M934.897 887.187C909.236 887.187 883.352 885.023 857.97 880.765C797.238 871.188 744.212 847.09 716.639 832.724C712.604 832.291 708.555 831.774 704.353 831.16C699.815 830.476 697.833 830.141 696.059 829.834C627.718 818.371 564.822 783.314 519.057 731.141C491.944 700.817 471.7 665.913 458.883 627.38C434.423 554.752 440.622 470.802 475.428 402.308C479.141 371.369 487.029 342.455 499.497 313.96C533.633 236.028 589.688 180.419 666.154 148.643C687.739 116.462 718.956 86.2777 752.631 65.0703C795.8 11.2491 858.417 -28.122 924.803 -43.1165C946.918 -48.1287 969.661 -50.6836 992.39 -50.6836C1038.35 -50.6836 1084.55 -40.0031 1126.17 -19.787C1174.14 -14.6073 1220.18 2.97005 1259.53 31.1162L1262.12 32.9731C1304.79 63.4648 1339.09 107.024 1359.04 155.931C1375.31 168.315 1390.58 182.667 1403.41 197.634C1437.76 236.921 1477.91 303.796 1474.2 399.376C1473 430.105 1467.3 459.815 1456.8 490.223C1456.51 491.088 1456.2 491.954 1455.88 492.848C1450.7 554.822 1425.4 614.409 1384.55 660.831C1361.22 687.358 1330.52 711.064 1297.96 727.762C1290.41 734.31 1282.23 740.69 1274.17 746.359C1256.88 763.461 1237.33 780.02 1217.56 794.316C1166.39 832.096 1108.58 858.873 1045.86 873.84C1045.26 873.994 1043.67 874.371 1042.08 874.748L1040.75 875.055C1006.48 883.11 970.834 887.201 934.911 887.201L934.897 887.187Z" stroke="#93251B" stroke-miterlimit="10"/>
<path d="M934.897 873.226C910.004 873.226 884.901 871.132 860.273 866.999C800.156 857.519 747.94 833.492 720.743 819.125C716.024 818.651 711.277 818.064 706.335 817.352C702.049 816.71 700.164 816.389 698.461 816.096C633.177 805.15 573.129 771.699 529.486 721.898C503.63 692.998 484.335 659.714 472.119 622.982C448.496 552.854 454.821 472.115 488.998 406.44C492.419 375.963 500.055 347.509 512.286 319.573C545.514 243.706 600.382 190.025 675.439 159.938C696.52 127.227 727.78 96.7906 762.055 75.6391C803.353 23.2699 863.638 -14.9983 927.875 -29.5041C948.998 -34.2929 970.694 -36.7222 992.376 -36.7222C1037.09 -36.7222 1081.92 -26.1674 1122.23 -6.16069C1168.69 -1.56739 1213.3 15.2142 1251.37 42.4669L1253.96 44.3237C1295.65 74.1173 1328.75 116.769 1347.5 164.741C1364.17 177.069 1379.78 191.533 1392.83 206.779C1425.53 244.167 1463.76 307.817 1460.21 398.845C1459.06 428.192 1453.62 456.59 1443.57 485.671C1443.09 487.054 1442.59 488.464 1442.07 489.888C1437.48 549.559 1413.35 606.926 1374.04 651.617C1351.44 677.306 1321.67 700.146 1290.06 716.104C1282.19 723.001 1273.64 729.703 1265.15 735.608C1248.15 752.516 1228.87 768.878 1209.35 783.007C1159.62 819.726 1103.48 845.736 1042.6 860.256C1041.9 860.423 1040.39 860.786 1038.88 861.135L1037.61 861.428C1004.33 869.247 969.731 873.226 934.883 873.226H934.897Z" stroke="#93251B" stroke-miterlimit="10"/>
<path d="M934.897 859.265C910.786 859.265 886.451 857.24 862.591 853.233C803.074 843.837 751.682 819.893 724.862 805.499C719.445 804.997 714.014 804.354 708.359 803.531C704.297 802.93 702.524 802.623 700.904 802.33C638.692 791.901 581.506 760.041 539.957 712.628C515.357 685.138 496.998 653.487 485.368 618.556C462.653 551.109 469.089 473.344 502.582 410.573C505.696 380.528 513.067 352.564 525.06 325.157C557.381 251.357 611.104 199.588 684.793 171.247C705.246 138.019 736.645 107.234 771.493 86.222C810.892 35.2768 868.86 -1.87443 930.946 -15.9056C951.064 -20.471 971.741 -22.7747 992.376 -22.7747C1035.85 -22.7747 1079.33 -12.3176 1118.32 7.47971C1163.29 11.4587 1206.43 27.4445 1243.26 53.8036L1245.85 55.6465C1286.57 84.756 1318.44 126.515 1335.95 173.564C1353.05 185.809 1369.01 200.37 1382.29 215.895C1413.35 251.385 1449.63 311.81 1446.28 398.273C1445.17 426.224 1439.98 453.309 1430.39 481.078C1429.73 482.991 1429.03 484.946 1428.31 486.9C1424.3 544.267 1401.36 599.401 1363.57 642.36C1341.7 667.212 1312.86 689.187 1282.2 704.391C1274.03 711.651 1265.1 718.673 1256.19 724.802C1239.48 741.514 1220.48 757.695 1201.17 771.657C1152.88 807.3 1098.4 832.556 1039.36 846.643C1038.57 846.839 1037.15 847.174 1035.71 847.509L1034.51 847.788C1002.21 855.383 968.642 859.237 934.869 859.237L934.897 859.265Z" stroke="#93251B" stroke-miterlimit="10"/>
<path d="M934.897 845.303C911.554 845.303 888.001 843.334 864.895 839.467C805.964 830.169 755.381 806.267 728.939 791.845C722.837 791.342 716.722 790.644 710.342 789.723C706.475 789.15 704.813 788.857 703.319 788.592C644.179 778.679 589.827 748.411 550.4 703.385C527.057 677.32 509.633 647.303 498.617 614.158C477.089 550.229 483.176 476.555 514.938 417.107C515.357 416.325 515.776 415.543 516.209 414.762C519.001 385.135 526.093 357.631 537.863 330.77C569.276 259.036 621.896 209.194 694.272 182.611C694.747 181.788 695.236 180.978 695.724 180.182C715.522 147.345 746.474 117.119 780.959 96.8605C818.459 47.3255 874.095 11.2772 934.031 -2.26539C953.145 -6.59343 972.774 -8.79932 992.39 -8.79932C1034.62 -8.79932 1076.74 1.56001 1114.41 21.1897C1157.89 24.5405 1199.58 39.7305 1235.15 65.1821L1237.72 67.025C1277.5 95.4504 1308.11 136.329 1324.34 182.5C1341.91 194.618 1358.23 209.264 1371.75 225.068C1401.17 258.645 1435.52 315.859 1432.34 397.77C1431.29 424.325 1426.35 450.098 1417.21 476.569C1416.37 479.012 1415.48 481.497 1414.53 484.01C1411.13 539.074 1389.37 591.974 1353.11 633.188C1331.97 657.215 1304.06 678.311 1274.34 692.761C1265.88 700.398 1256.58 707.727 1247.26 714.08C1230.84 730.596 1212.11 746.596 1193.03 760.404C1146.16 795 1093.33 819.502 1036.09 833.129C1035.38 833.31 1034 833.645 1032.61 833.952L1031.45 834.218C1000.14 841.575 967.623 845.317 934.925 845.317L934.897 845.303Z" stroke="#93251B" stroke-miterlimit="10"/>
<path d="M934.897 831.342C912.321 831.342 889.55 829.443 867.198 825.687C808.616 816.445 758.634 792.361 733.015 778.135C726.216 777.66 719.431 776.92 712.338 775.887C708.792 775.356 707.229 775.091 705.735 774.826C649.652 765.416 598.148 736.753 560.829 694.101C538.742 669.445 522.268 641.062 511.839 609.732C491.497 549.349 497.249 479.78 527.224 423.655C528.062 422.077 528.928 420.5 529.821 418.922C532.278 389.715 539.091 362.658 550.624 336.326C580.473 268.167 630.469 220.824 699.215 195.623C700.723 195.065 702.244 194.52 703.794 193.99C705.051 191.742 706.335 189.522 707.647 187.358C726.816 155.568 756.861 126.598 790.397 107.471C825.984 59.3461 879.261 24.3729 937.075 11.319C955.183 7.21431 973.794 5.13403 992.348 5.13403C1033.35 5.13403 1074.12 15.4096 1110.45 34.8718C1152.43 37.5803 1192.65 51.9326 1226.97 76.5047L1229.54 78.3476C1268.38 106.103 1297.71 146.102 1312.58 191.407C1330.66 203.344 1347.37 218.045 1361.15 234.171C1388.92 265.849 1421.35 319.838 1418.35 397.198C1417.36 422.37 1412.66 446.831 1403.97 471.975C1402.95 474.935 1401.85 477.979 1400.68 481.036C1397.9 533.796 1377.32 584.462 1342.6 623.931C1322.19 647.135 1295.2 667.351 1266.41 681.033C1257.67 689.061 1248 696.698 1238.25 703.246C1222.12 719.581 1203.67 735.399 1184.79 749.053C1139.38 782.574 1088.21 806.309 1032.79 819.516C1032 819.712 1030.7 820.033 1029.4 820.326L1028.3 820.577C997.961 827.712 966.492 831.328 934.869 831.328L934.897 831.342Z" stroke="#93251B" stroke-miterlimit="10"/>
<path d="M934.897 817.38C913.103 817.38 891.1 815.551 869.516 811.921C811.841 802.818 762.809 778.875 738.097 764.983C737.553 764.788 736.994 764.578 736.45 764.369C729.19 763.922 721.93 763.168 714.349 762.065C711.054 761.577 709.588 761.325 708.178 761.074C655.153 752.18 606.497 725.109 571.3 684.845C550.47 661.613 534.931 634.863 525.116 605.335C505.975 548.512 511.364 483.033 539.566 430.245C540.837 427.885 542.149 425.512 543.517 423.166C545.625 394.336 552.145 367.739 563.44 341.953C591.712 277.409 639.013 232.607 704.045 208.761C707.117 207.63 710.272 206.555 713.455 205.536C715.41 201.822 717.476 198.164 719.612 194.618C738.153 163.875 767.291 136.162 799.904 118.193C833.537 71.4506 884.482 37.5524 940.175 24.9592C957.277 21.0779 974.855 19.1094 992.376 19.1094C1032.15 19.1094 1071.55 29.3152 1106.55 48.6517C1147.04 50.6761 1185.8 64.2047 1218.89 87.8693L1221.44 89.6982C1259.35 116.797 1287.38 155.959 1300.81 200.412C1319.44 212.112 1336.57 226.855 1350.61 243.302C1376.73 273.081 1407.25 323.845 1404.42 396.653C1403.48 420.43 1399.03 443.578 1390.79 467.41C1389.58 470.928 1388.27 474.516 1386.86 478.104C1384.71 528.547 1365.31 576.965 1332.13 614.689C1312.44 637.069 1286.38 656.391 1258.52 669.292C1249.53 677.724 1239.51 685.668 1229.33 692.398C1213.5 708.551 1195.31 724.202 1176.64 737.703C1132.66 770.163 1083.15 793.129 1029.6 805.904C1028.73 806.127 1027.5 806.407 1026.29 806.7L1025.24 806.937C995.88 813.834 965.459 817.338 934.911 817.338L934.897 817.38Z" stroke="#93251B" stroke-miterlimit="10"/>
<path d="M934.897 803.419C913.871 803.419 892.65 801.646 871.82 798.155C815.653 789.29 767.989 765.863 743.947 752.264C742.425 751.72 740.904 751.147 739.396 750.575C731.815 750.17 724.248 749.416 716.359 748.271C713.316 747.81 711.934 747.587 710.621 747.35C660.653 738.973 614.86 713.493 581.771 675.616C562.198 653.794 547.594 628.678 538.379 600.951C520.439 547.674 525.479 486.3 551.894 436.848C553.583 433.693 555.37 430.552 557.241 427.438C558.959 398.971 565.185 372.807 576.243 347.565C602.923 286.652 647.544 244.363 708.862 221.885C713.539 220.167 718.356 218.59 723.228 217.166C725.783 211.93 728.59 206.806 731.577 201.85C749.504 172.126 777.734 145.725 809.426 128.944C841.09 83.5412 889.676 50.704 943.274 38.5994C959.371 34.9555 975.916 33.0986 992.404 33.0986C1030.97 33.0986 1069 43.2486 1102.66 62.4874C1141.65 63.7998 1178.96 76.4767 1210.79 99.2617L1213.34 101.091C1250.34 127.534 1277.01 165.872 1288.93 209.543C1308.16 220.921 1325.75 235.678 1340.08 252.488C1364.56 280.369 1393.15 327.908 1390.5 396.165C1389.62 418.559 1385.42 440.381 1377.63 462.914C1376.23 466.963 1374.68 471.11 1373.02 475.256C1371.5 523.395 1353.32 569.551 1321.67 605.53C1302.7 627.086 1277.55 645.515 1250.63 657.634C1241.42 666.471 1231.05 674.723 1220.42 681.647C1204.9 697.633 1186.97 713.102 1168.49 726.477C1125.94 757.877 1078.07 780.089 1026.32 792.417C1025.51 792.627 1024.33 792.906 1023.16 793.171L1022.14 793.408C993.758 800.082 964.384 803.461 934.925 803.461L934.897 803.419Z" stroke="#93251B" stroke-miterlimit="10"/>
<path d="M934.897 789.457C914.639 789.457 894.2 787.754 874.137 784.389C819.45 775.761 773.168 752.865 749.783 739.517C747.298 738.652 744.813 737.716 742.355 736.739C734.453 736.404 726.579 735.65 718.356 734.463C715.564 734.045 714.279 733.821 713.037 733.612C666.14 725.752 623.195 701.864 592.215 666.374C573.897 645.976 560.229 622.479 551.615 596.553C534.861 546.822 539.566 489.567 564.194 443.438C566.302 439.487 568.578 435.578 570.979 431.752C572.292 403.62 578.211 377.875 589.017 353.178C614.106 295.88 656.046 256.118 713.651 234.994C719.975 232.677 726.509 230.639 733.127 228.907C736.185 222.094 739.661 215.448 743.514 209.068C760.826 180.363 788.163 155.275 818.948 139.722C848.616 95.6458 894.828 63.8417 946.331 52.2119C961.424 48.7913 976.921 47.0601 992.39 47.0601C1029.75 47.0601 1066.41 57.1821 1098.71 76.3511C1136.21 76.9235 1172.07 88.7349 1202.63 110.598L1205.19 112.427C1241.29 138.242 1266.56 175.784 1276.85 218.715C1296.76 229.689 1314.87 244.418 1329.52 261.605C1352.36 287.587 1379.01 331.9 1376.54 395.606C1375.71 416.604 1371.75 437.114 1364.42 458.335C1362.83 462.942 1361.05 467.647 1359.13 472.352C1358.26 518.16 1341.3 562.082 1311.18 596.301C1292.92 617.048 1268.69 634.57 1242.69 645.864C1233.27 655.149 1222.56 663.693 1211.5 670.772C1196.27 686.59 1178.61 701.905 1160.3 715.155C1119.2 745.493 1073 766.938 1023.09 778.833C1022.21 779.056 1021.12 779.307 1020.05 779.559L1019.03 779.796C991.65 786.232 963.322 789.499 934.925 789.499L934.897 789.457Z" stroke="#93251B" stroke-miterlimit="10"/>
<path d="M934.897 775.496C915.421 775.496 895.749 773.849 876.441 770.61C823.234 762.205 778.334 739.839 755.577 726.743C752.128 725.556 748.694 724.258 745.329 722.862C737.12 722.596 728.911 721.856 720.352 720.628C717.811 720.251 716.611 720.041 715.452 719.846C671.613 712.488 631.53 690.206 602.658 657.103C585.597 638.13 572.878 616.266 564.85 592.127C549.297 545.943 553.639 492.792 576.508 449.986C579.035 445.253 581.813 440.59 584.773 436.081C585.653 408.242 591.237 382.902 601.806 358.748C625.317 305.081 664.563 267.846 718.454 248.076C726.467 245.145 734.774 242.687 743.235 240.775C746.628 232.3 750.732 224.077 755.451 216.258C772.149 188.559 798.606 164.811 828.497 150.556C856.127 107.75 899.966 76.9655 949.403 65.8104C963.504 62.6132 977.954 60.9937 992.376 60.9937C1028.54 60.9937 1063.83 71.1017 1094.77 90.2707C1095.13 90.2707 1095.48 90.2707 1095.84 90.2707C1131.45 90.2707 1165.55 101.216 1194.51 121.935L1197.05 123.764C1232.23 148.909 1256.09 185.795 1264.6 228.028C1285.27 238.457 1303.94 253.116 1318.93 270.736C1340.13 294.819 1364.85 335.922 1362.56 395.048C1361.79 414.65 1358.08 433.847 1351.2 453.756C1349.41 458.921 1347.39 464.199 1345.17 469.462C1344.97 512.924 1329.18 554.655 1300.67 587.059C1283.12 607.01 1259.79 623.61 1234.7 634.053C1225.13 643.798 1214.1 652.65 1202.56 659.854C1187.64 675.519 1170.22 690.695 1152.08 703.804C1112.4 733.095 1067.85 753.786 1019.74 765.221C1018.92 765.43 1017.88 765.667 1016.85 765.905L1015.86 766.128C989.486 772.327 962.206 775.482 934.869 775.482L934.897 775.496Z" stroke="#93251B" stroke-miterlimit="10"/>
<path d="M934.897 761.535C916.189 761.535 897.299 759.957 878.744 756.844C827.003 748.676 783.472 726.813 761.371 713.968C756.973 712.502 752.603 710.827 748.345 708.984C739.801 708.816 731.27 708.104 722.363 706.82C720.073 706.471 718.942 706.289 717.881 706.094C677.114 699.253 639.879 678.562 613.129 647.833C597.324 630.27 585.541 610.054 578.114 587.715C563.747 545.077 567.754 496.031 588.836 456.562C591.782 451.033 595.077 445.644 598.651 440.492C599.042 412.891 604.277 387.942 614.609 364.347C636.528 314.295 673.093 279.587 723.284 261.186C733.057 257.612 743.221 254.834 753.636 252.893C757.183 242.659 761.804 232.803 767.43 223.476C783.528 196.782 809.119 174.402 838.131 161.502C863.68 119.925 905.117 90.1311 952.502 79.4227C965.598 76.4629 979.015 74.9551 992.404 74.9551C1027.38 74.9551 1061.32 85.0911 1090.86 104.316C1092.54 104.26 1094.21 104.232 1095.87 104.232C1128.54 104.232 1159.84 114.284 1186.4 133.286L1188.94 135.101C1222.43 159.045 1244.74 194.576 1251.75 235.162C1251.89 235.944 1252.02 236.726 1252.14 237.536C1273.71 247.267 1293.03 261.773 1308.41 279.867C1327.95 302.051 1350.75 339.928 1348.64 394.504C1347.93 412.709 1344.45 430.594 1338.03 449.19C1336.06 454.914 1333.77 460.764 1331.22 466.614C1331.22 467.284 1331.22 467.954 1331.22 468.625C1331.22 508.987 1316.66 547.758 1290.2 577.831C1273.35 596.986 1250.91 612.664 1226.72 622.228C1217.02 632.462 1205.68 641.62 1193.69 648.936C1179.07 664.461 1161.9 679.484 1143.9 692.496C1105.66 720.726 1062.74 740.662 1016.45 751.664C1015.68 751.859 1014.7 752.097 1013.72 752.32L1012.76 752.544C987.364 758.505 961.131 761.549 934.883 761.549L934.897 761.535Z" stroke="#93251B" stroke-miterlimit="10"/>
<path d="M934.897 747.573C916.957 747.573 898.849 746.065 881.062 743.078C830.759 735.134 788.596 713.773 767.137 701.166C761.79 699.448 756.512 697.396 751.388 695.064C742.509 695.022 733.658 694.352 724.373 693.012C722.321 692.705 721.288 692.537 720.296 692.356C682.601 686.031 648.214 666.932 623.572 638.604C609.024 622.465 598.19 603.869 591.349 583.331C578.183 544.239 581.841 499.298 601.136 463.166C604.515 456.855 608.34 450.768 612.584 445.016C612.459 417.596 617.303 392.996 627.383 369.973C647.711 323.552 681.596 291.371 728.073 274.324C739.675 270.066 751.849 267.064 764.359 265.333C767.779 253.2 772.805 241.598 779.367 230.736C794.878 205.019 819.604 184.049 847.764 172.601C871.177 132.183 910.185 103.325 955.56 93.0769C967.651 90.3404 980.034 88.9443 992.39 88.9443C1026.19 88.9443 1058.76 99.1501 1086.91 118.501C1089.9 118.305 1092.88 118.207 1095.86 118.207C1125.6 118.207 1154.09 127.352 1178.26 144.664L1180.8 146.479C1211.29 168.273 1231.6 200.621 1237.97 237.563C1238.53 240.733 1238.99 244.014 1239.38 247.336C1261.98 256.132 1282.05 270.415 1297.84 289.025C1315.74 309.311 1336.61 343.963 1334.67 393.987C1334.01 410.796 1330.79 427.383 1324.81 444.667C1322.63 450.963 1320.08 457.4 1317.17 463.85C1317.23 465.469 1317.26 467.075 1317.26 468.666C1317.26 505.622 1303.92 541.14 1279.73 568.644C1263.56 587.017 1242.01 601.732 1218.7 610.389C1208.93 621.153 1197.33 630.619 1184.83 638.004C1170.52 653.39 1153.59 668.3 1135.73 681.215C1098.93 708.384 1057.67 727.553 1013.22 738.121C1013.21 738.121 1013.19 738.121 1013.16 738.121C1012.45 738.303 1011.53 738.526 1010.61 738.736L1009.67 738.945C985.27 744.683 960.069 747.601 934.897 747.601V747.573Z" stroke="#93251B" stroke-miterlimit="10"/>
<path d="M934.897 733.612C917.725 733.612 900.385 732.16 883.366 729.312C834.473 721.591 793.691 700.719 772.847 688.335C766.551 686.395 760.394 683.965 754.46 681.089C753.692 681.089 752.924 681.103 752.142 681.103C743.682 681.103 735.249 680.475 726.356 679.19C724.541 678.911 723.591 678.758 722.684 678.604C688.06 672.796 656.535 655.302 634.015 629.348C620.724 614.619 610.825 597.656 604.584 578.92C592.619 543.374 595.914 502.537 613.436 469.728C617.219 462.635 621.645 455.892 626.601 449.623C625.875 422.287 630.329 398.008 640.158 375.558C658.908 332.752 690.098 303.098 732.862 287.42C746.334 282.477 760.91 279.322 775.598 278.121C778.502 263.895 783.751 250.422 791.304 237.94C806.201 213.229 830.159 193.683 857.481 183.798C878.633 144.511 915.407 116.434 958.631 106.675C969.717 104.162 981.067 102.892 992.376 102.892C1024.88 102.892 1056.14 113.195 1082.8 132.699C1082.87 132.741 1082.96 132.769 1083.03 132.811C1087.3 132.378 1091.59 132.169 1095.83 132.169C1122.64 132.169 1148.31 140.42 1170.1 156.015L1172.66 157.844C1200.15 177.502 1218.45 206.653 1224.21 239.951C1224.95 244.223 1225.8 250.268 1226.27 257.542C1250.09 265.081 1271.02 279.001 1287.25 298.184C1303.52 316.571 1322.47 347.998 1320.71 393.47C1320.11 408.884 1317.13 424.158 1311.6 440.129C1309.23 447.026 1306.37 454.063 1303.06 461.099C1303.2 463.626 1303.27 466.167 1303.27 468.666C1303.27 502.23 1291.18 534.467 1269.22 559.416C1253.73 577.021 1233.04 590.773 1210.59 598.438C1200.83 609.788 1188.98 619.561 1175.97 626.975C1161.98 642.249 1145.27 657.048 1127.51 669.892C1092.12 696.014 1052.56 714.401 1009.94 724.523H1009.91C1009.26 724.691 1008.33 724.914 1007.43 725.123L1006.55 725.319C983.12 730.82 958.967 733.626 934.855 733.626L934.897 733.612Z" stroke="#93251B" stroke-miterlimit="10"/>
<path d="M934.897 719.651C918.478 719.651 901.892 718.268 885.613 715.532C838.214 708.063 798.787 687.665 778.543 675.463C771.311 673.341 764.303 670.52 757.629 667.044C755.842 667.1 754.027 667.142 752.156 667.142C744.366 667.142 736.589 666.555 728.366 665.369C726.775 665.131 725.923 664.992 725.099 664.838C693.56 659.547 664.884 643.645 644.472 620.078C632.437 606.773 623.474 591.443 617.834 574.494C607.056 542.494 610.015 505.762 625.75 476.29C629.952 468.415 634.992 461.072 640.758 454.384C639.376 427.02 643.369 403.006 652.947 381.143C670.105 341.953 698.614 314.826 737.664 300.515C753.315 294.777 770.557 291.678 787.618 291.524C789.419 275.078 794.711 259.26 803.241 245.145C817.314 221.801 840.001 203.958 865.998 195.624C866.975 194.339 867.98 193.083 868.985 191.84C888.112 155.331 921.801 129.279 961.675 120.274C971.755 117.998 982.073 116.839 992.348 116.839C1022.02 116.839 1050.55 126.305 1074.89 144.218C1075.15 144.399 1075.42 144.595 1075.68 144.79C1077.3 145.544 1078.92 146.326 1080.51 147.15C1085.58 146.465 1090.71 146.116 1095.8 146.116C1119.68 146.116 1142.54 153.46 1161.95 167.352L1164.51 169.181C1188.99 186.688 1205.3 212.656 1210.41 242.296C1211.5 248.537 1212.6 257.5 1212.66 268.251C1237.68 274.045 1260.06 287.615 1276.66 307.273C1291.28 323.761 1308.29 351.963 1306.72 392.884C1306.17 406.915 1303.44 420.863 1298.37 435.522C1295.3 444.43 1291.74 452.415 1288.85 458.363C1289.14 461.798 1289.28 465.232 1289.28 468.639C1289.28 498.809 1278.42 527.765 1258.7 550.173C1243.88 567.025 1224.04 579.771 1202.41 586.389C1192.78 598.396 1180.7 608.49 1167.15 615.876C1153.46 631.08 1136.95 645.809 1119.26 658.597C1085.37 683.616 1047.51 701.222 1006.7 710.925L1006.56 710.953C1005.96 711.106 1005.11 711.316 1004.26 711.511L1003.45 711.693C980.998 716.97 957.878 719.651 934.841 719.651H934.897Z" stroke="#93251B" stroke-miterlimit="10"/>
<path d="M934.897 705.689C919.232 705.689 903.4 704.363 887.861 701.752C841.928 694.534 803.828 674.569 784.17 662.549C776.016 660.301 768.198 657.076 760.854 652.901C758.006 653.083 755.13 653.166 752.156 653.166C745.036 653.166 737.916 652.636 730.377 651.547C729.022 651.338 728.254 651.212 727.528 651.086C699.061 646.311 673.233 632.001 654.943 610.822C644.165 598.94 636.137 585.23 631.097 570.082C621.52 541.629 624.116 509.001 638.078 482.865C642.699 474.223 648.395 466.349 655.083 459.396C652.933 431.85 656.437 408.032 665.749 386.741C681.33 351.181 707.145 326.581 742.481 313.611C757.015 308.292 773.071 305.472 788.931 305.472C792.938 305.472 796.945 305.653 800.924 306.002C800.588 287.238 805.489 268.432 815.206 252.363C828.4 230.471 849.844 214.36 874.486 207.672C876.455 204.88 878.549 202.185 880.727 199.603C897.844 166.025 928.377 142.123 964.788 133.9C973.863 131.848 983.148 130.801 992.376 130.801C1019.1 130.801 1044.82 139.359 1066.76 155.554C1067.4 156.001 1068.03 156.462 1068.66 156.923C1071.86 158.361 1075 159.952 1078.09 161.669C1083.95 160.608 1089.9 160.078 1095.83 160.078C1116.77 160.078 1136.83 166.514 1153.85 178.702L1156.41 180.531C1177.88 195.889 1192.19 218.66 1196.67 244.67C1197.89 251.651 1199.45 264.439 1198.33 279.881C1224.78 283.12 1248.97 296.034 1266.13 316.418C1279.1 331.007 1294.21 355.998 1292.8 392.354C1292.29 404.989 1289.82 417.624 1285.2 430.985C1281.57 441.498 1277.17 450.698 1274.58 455.766C1275.09 460.052 1275.35 464.366 1275.35 468.653C1275.35 495.417 1265.73 521.106 1248.25 540.959C1234.05 557.098 1215.02 568.77 1194.17 574.229C1184.81 586.989 1172.58 597.433 1158.42 604.72C1145.04 619.869 1128.72 634.556 1111.05 647.331C1078.67 671.246 1042.48 688.07 1003.5 697.34L1003.29 697.396C1002.76 697.536 1001.95 697.731 1001.14 697.913L1000.42 698.08C978.931 703.134 956.844 705.703 934.883 705.703L934.897 705.689Z" stroke="#93251B" stroke-miterlimit="10"/>
<path d="M934.897 691.728C919.972 691.728 904.908 690.457 890.109 687.972C845.6 680.991 808.826 661.459 789.74 649.578C780.666 647.289 772.093 643.631 764.191 638.632C760.254 639.023 756.275 639.205 752.156 639.205C745.72 639.205 739.256 638.716 732.373 637.725C731.256 637.557 730.6 637.446 729.958 637.334C704.534 633.076 681.568 620.357 665.386 601.565C655.851 591.094 648.772 579.017 644.332 565.684C635.942 540.777 638.203 512.268 650.392 489.455C655.404 480.073 661.854 471.78 669.603 464.743C667.439 445.002 667.104 418.475 678.538 392.353C692.527 360.41 715.661 338.337 747.298 326.735C760.31 321.974 774.704 319.447 788.945 319.447C798.397 319.447 807.779 320.536 816.84 322.7H816.909C812.121 301.241 815.792 278.442 827.171 259.594C839.15 239.727 859.017 225.389 881.69 220.279L883.058 219.972C885.893 215.532 889.048 211.33 892.454 207.393C907.547 176.733 934.925 154.968 967.888 147.526C975.958 145.697 984.195 144.776 992.404 144.776C1016.18 144.776 1039.08 152.427 1058.64 166.905C1059.64 167.617 1060.66 168.343 1061.65 169.083C1066.47 171.163 1071.16 173.634 1075.66 176.454L1076.95 176.161C1083.17 174.765 1089.52 174.053 1095.86 174.053C1113.87 174.053 1131.12 179.596 1145.76 190.067L1148.32 191.896C1166.8 205.103 1179.1 224.691 1182.95 247.057C1184.36 255.197 1186.13 270.945 1183.26 289.318C1183.93 290.547 1184.57 291.789 1185.17 293.046C1212.62 293.046 1238.28 304.899 1255.6 325.562C1266.94 338.267 1280.11 360.019 1278.88 391.809C1278.43 403.062 1276.2 414.384 1272.04 426.419C1267.71 438.97 1262.19 449.455 1260.62 452.373C1260.46 452.653 1260.31 452.932 1260.16 453.225C1261.01 458.335 1261.43 463.501 1261.43 468.652C1261.43 492.024 1253.04 514.432 1237.8 531.744C1224.21 547.199 1205.94 557.74 1185.8 561.873C1176.99 575.415 1164.46 586.417 1149.75 593.467C1136.72 608.588 1120.56 623.275 1102.84 636.077C1071.97 658.89 1037.47 674.946 1000.29 683.784L999.943 683.867C999.483 683.979 998.743 684.16 998.003 684.328L997.346 684.482C976.823 689.298 955.769 691.756 934.883 691.756L934.897 691.728Z" stroke="#93251B" stroke-miterlimit="10"/>
<path d="M934.897 677.766C920.726 677.766 906.416 676.566 892.343 674.192C847.82 667.225 811.004 646.563 795.199 636.524C785.287 634.318 775.891 630.088 767.654 624.141C762.586 624.881 757.462 625.244 752.142 625.244C746.376 625.244 740.568 624.811 734.37 623.903C733.476 623.764 732.918 623.68 732.387 623.582C710.021 619.827 689.902 608.713 675.829 592.309C667.55 583.248 661.407 572.819 657.568 561.272C650.378 539.912 652.291 515.507 662.692 496.017C668.053 485.993 675.452 477.336 684.388 470.565C681.232 448.004 680.52 422.566 691.313 397.924C703.71 369.61 724.164 350.064 752.087 339.817C763.577 335.614 776.31 333.38 788.931 333.38C797.294 333.38 805.587 334.344 813.587 336.243C817.789 337.248 821.908 338.518 825.887 340.068C826.208 340.012 826.529 339.97 826.85 339.915C829.335 337.541 831.946 335.279 834.668 333.171C833.342 329.681 832.197 326.149 831.248 322.574C826.194 303.754 829.056 283.413 839.108 266.771C849.132 250.143 865.774 238.136 884.748 233.85L891.938 232.23C895.386 226.087 899.533 220.293 904.168 215.169C917.236 187.414 941.445 167.77 970.931 161.111C977.996 159.519 985.2 158.709 992.376 158.709C1013.21 158.709 1033.28 165.453 1050.46 178.2C1051.85 179.177 1053.23 180.182 1054.59 181.229C1060.98 183.854 1067.13 187.261 1072.88 191.351L1080.03 189.732C1085.23 188.559 1090.55 187.973 1095.84 187.973C1110.92 187.973 1125.36 192.608 1137.62 201.375L1140.19 203.218C1155.65 214.276 1165.94 230.667 1169.17 249.389C1170.62 257.752 1172.28 273.682 1168.58 291.915C1171.68 296.76 1174.17 301.995 1175.98 307.482C1179.08 307.147 1182.14 306.98 1185.14 306.98C1208.54 306.98 1230.35 317.06 1245.01 334.665C1254.71 345.471 1265.95 364.012 1264.89 391.237C1264.5 401.093 1262.52 411.104 1258.8 421.826C1254.82 433.358 1249.77 442.978 1248.3 445.658C1247.4 447.333 1246.4 448.981 1245.36 450.586C1246.72 456.506 1247.41 462.551 1247.41 468.611C1247.41 510.104 1217.15 543.918 1177.06 549.14C1169.2 563.716 1156.52 575.332 1141.08 582.019C1128.4 597.167 1112.39 611.882 1094.56 624.769C1065.2 646.479 1032.39 661.753 997.025 670.157L996.606 670.255C996.104 670.381 995.462 670.534 994.819 670.688L994.261 670.814C974.659 675.421 954.666 677.752 934.855 677.752L934.897 677.766Z" stroke="#93251B" stroke-miterlimit="10"/>
<path d="M934.897 663.805C921.48 663.805 907.91 662.66 894.577 660.412C850.333 653.501 813.964 632.113 800.561 623.373C800.239 623.317 799.932 623.247 799.611 623.191C789.126 621.111 779.367 616.266 771.395 609.3C765.141 610.64 758.774 611.296 752.142 611.296C747.061 611.296 741.895 610.905 736.38 610.109C735.71 610.012 735.249 609.942 734.816 609.858C715.508 606.619 698.251 597.097 686.3 583.066C679.278 575.429 674.07 566.62 670.831 556.875C664.828 539.06 666.392 518.76 675.02 502.607C680.744 491.898 689.246 483.172 699.564 477.267C695.459 452.778 693.672 427.41 704.115 403.55C714.935 378.853 732.694 361.834 756.903 352.954C766.872 349.31 777.943 347.37 788.931 347.37C796.205 347.37 803.423 348.208 810.361 349.855C815.206 351.014 819.869 352.577 824.309 354.546C826.892 354.043 829.977 353.541 833.37 353.192C838.899 347.328 845.153 342.316 852.092 338.169C848.392 330.84 846.103 324.11 844.721 318.972C840.644 303.81 842.961 287.434 851.059 274.017C859.143 260.614 872.546 250.952 887.833 247.49L901.39 244.432C905.062 236.516 910.046 229.201 915.952 223.044C926.967 198.164 947.993 180.629 974.045 174.751C980.09 173.383 986.275 172.685 992.404 172.685C1010.27 172.685 1027.54 178.521 1042.33 189.55C1044.1 190.779 1045.86 192.091 1047.58 193.473C1054.16 195.986 1060.4 199.435 1066.2 203.763C1067.42 204.601 1068.62 205.466 1069.81 206.388L1083.14 203.372C1087.33 202.423 1091.61 201.948 1095.89 201.948C1108.03 201.948 1119.66 205.676 1129.53 212.754L1132.12 214.597C1144.57 223.504 1152.86 236.698 1155.46 251.79C1156.98 260.53 1158.49 276.795 1153.59 294.875C1160.12 303.112 1164.17 313.053 1165.36 323.733C1168.07 322.979 1170.8 322.379 1173.54 321.932C1177.49 321.29 1181.4 320.969 1185.18 320.969C1204.53 320.969 1222.49 329.29 1234.49 343.824C1242.56 352.745 1251.86 368.047 1250.98 390.72C1250.65 399.181 1248.9 407.879 1245.65 417.302C1242.03 427.801 1237.41 436.569 1236.09 439.012C1234.38 442.14 1232.4 445.1 1230.17 447.85C1232.36 454.565 1233.5 461.616 1233.5 468.638C1233.5 505.804 1204.83 535.039 1167.9 535.891C1161.74 551.737 1149.07 564.316 1132.6 570.431C1120.32 585.677 1104.42 600.504 1086.36 613.516C1058.51 634.137 1027.38 648.629 993.842 656.601L993.284 656.74C992.851 656.852 992.278 656.992 991.706 657.117L991.176 657.229C972.593 661.599 953.661 663.819 934.897 663.819V663.805Z" stroke="#93251B" stroke-miterlimit="10"/>
<path d="M934.897 649.843C922.22 649.843 909.418 648.754 896.824 646.632C861.209 641.09 827.073 624.504 805.81 610.095C804.623 609.928 803.478 609.718 802.361 609.495C791.751 607.387 782.383 601.76 775.653 593.733C768.03 596.148 760.338 597.321 752.156 597.321C747.745 597.321 743.249 596.972 738.39 596.274C737.93 596.204 737.581 596.148 737.245 596.092C720.994 593.37 706.586 585.453 696.757 573.796C690.991 567.569 686.719 560.393 684.081 552.463C679.278 538.194 680.492 521.999 687.333 509.182C693.337 497.943 703.222 489.525 715.214 485.434C710.537 460.694 706.307 433.344 716.904 409.135C726.132 388.067 741.211 373.561 761.706 366.05C770.139 362.965 779.563 361.331 788.931 361.331C795.116 361.331 801.245 362.043 807.122 363.439C812.623 364.752 817.803 366.692 822.592 369.247C825.621 368.479 832.448 366.958 840.029 366.748C848.434 356.487 859.17 348.864 872.029 344.019C863.903 333.059 859.966 321.932 858.193 315.342C855.108 303.838 856.853 291.413 862.996 281.249C869.125 271.085 879.289 263.741 890.891 261.13L911.54 256.467C912.042 255.015 912.601 253.605 913.173 252.237C916.622 244.139 921.606 236.865 927.707 231.002C936.642 208.929 954.457 193.487 977.074 188.377C982.115 187.233 987.266 186.66 992.362 186.66C1007.29 186.66 1021.72 191.589 1034.13 200.901C1036.31 202.395 1038.45 204.042 1040.5 205.787C1046.7 207.909 1052.59 211.037 1058.04 215.141C1060.81 217.04 1063.5 219.176 1066.06 221.564L1086.17 217.026C1089.35 216.314 1092.59 215.951 1095.83 215.951C1105.04 215.951 1113.87 218.785 1121.35 224.146L1123.93 226.003C1133.37 232.747 1139.67 242.771 1141.64 254.205C1143.27 263.615 1144.53 280.523 1137.73 298.435C1147.64 307.273 1152.72 320.215 1151.55 334.386C1151.31 337.248 1150.91 340.152 1150.32 343.084C1151.34 343.265 1152.35 343.475 1153.34 343.712C1160.57 339.677 1168.09 336.996 1175.76 335.74C1178.94 335.223 1182.1 334.958 1185.14 334.958C1200.44 334.958 1214.53 341.52 1223.88 352.996C1230.33 360.047 1237.69 372.123 1236.98 390.217C1236.7 397.296 1235.21 404.667 1232.4 412.779C1229.04 422.524 1224.62 430.817 1223.77 432.381C1221.2 437.1 1217.78 441.274 1213.75 444.737C1217.48 452.108 1219.49 460.318 1219.49 468.68C1219.49 498.572 1196.07 521.985 1166.2 521.985C1163.22 521.985 1160.29 521.748 1157.41 521.273C1154.75 538.306 1142.63 552.812 1125.16 558.243C1124.84 558.34 1124.52 558.438 1124.19 558.536C1112.36 573.949 1096.51 589 1078.09 602.277C1051.74 621.795 1022.3 635.505 990.575 643.044L989.877 643.212C989.514 643.31 989.011 643.421 988.509 643.547C988.397 643.575 988.188 643.617 987.978 643.659C970.429 647.791 952.558 649.885 934.855 649.885L934.897 649.843Z" stroke="#93251B" stroke-miterlimit="10"/>
<path d="M934.897 635.882C922.974 635.882 910.911 634.863 899.058 632.852C863.861 627.394 830.48 610.5 810.92 596.665C808.868 596.469 806.899 596.176 805.098 595.813C794.041 593.621 785.343 586.166 781.308 576.504C778.292 577.97 775.137 579.241 771.842 580.302C765.462 582.368 759.011 583.373 752.142 583.373C748.415 583.373 744.575 583.08 740.387 582.466C740.122 582.424 739.898 582.396 739.689 582.354C726.425 580.134 714.921 573.81 707.215 564.553C702.691 559.751 699.368 554.194 697.33 548.065C693.728 537.357 694.58 525.252 699.661 515.758C704.073 507.507 711.347 501.392 720.185 498.502C720.492 498.39 720.799 498.293 721.106 498.195C724.303 497.218 727.487 496.715 730.642 496.645C730.921 496.645 731.521 496.645 731.549 496.645C731.061 493.923 730.502 490.991 729.944 488.129C725.323 464.031 720.073 436.723 729.692 414.734C737.441 397.031 749.49 385.401 766.509 379.16C773.42 376.633 781.168 375.293 788.931 375.293C794.027 375.293 799.067 375.879 803.897 377.024C810.208 378.532 815.946 381.087 820.93 384.563C822.466 383.865 824.071 383.292 825.733 382.86C827.674 382.357 834.584 380.682 841.747 380.682C842.891 380.682 844.036 380.724 845.153 380.807C845.209 380.807 846.047 380.877 846.047 380.877C846.34 380.905 846.619 380.933 846.884 380.975C854.382 369.596 864.49 361.666 877.502 356.892C880.462 355.803 883.659 354.951 887.023 354.337C887.68 350.776 888.964 347.356 890.835 344.242C878.954 333.087 873.816 319.587 871.694 311.726C869.586 303.88 870.786 295.419 874.975 288.481C879.149 281.556 886.088 276.544 893.99 274.757L922.681 268.278C923.532 264.523 924.663 260.991 926.06 257.71C929.201 250.324 933.836 243.972 939.616 239.099C946.443 219.735 961.019 206.346 980.202 202.004C984.237 201.096 988.341 200.622 992.404 200.622C1004.38 200.622 1016 204.642 1026.02 212.237C1028.63 214.011 1031.13 216.007 1033.52 218.213C1039.36 219.832 1044.86 222.611 1049.94 226.478C1054.09 229.256 1057.95 232.747 1061.51 236.893L1089.28 230.611C1091.45 230.122 1093.67 229.871 1095.87 229.871C1102.15 229.871 1108.17 231.797 1113.27 235.455L1115.86 237.312C1122.3 241.905 1126.59 248.733 1127.93 256.537C1129.59 266.101 1130.79 284.851 1120.19 302.903C1121.04 303.419 1121.87 303.964 1122.68 304.564C1123.26 304.997 1123.7 305.318 1124.02 305.541C1133.55 311.252 1138.65 321.527 1137.69 333.199C1137.11 340.124 1135.12 348.417 1131.35 356.766C1134.06 356.291 1136.81 356.04 1139.59 356.04C1145.1 356.04 1150.43 356.989 1155.38 358.832C1162.71 353.89 1170.31 350.748 1178.09 349.478C1180.52 349.087 1182.91 348.878 1185.2 348.878C1196.46 348.878 1206.68 353.68 1213.39 362.085C1218.26 367.279 1223.62 376.13 1223.1 389.631C1222.88 395.313 1221.62 401.372 1219.28 408.172C1216.29 416.842 1212.35 424.255 1211.58 425.651C1207.69 432.814 1201.07 438.021 1193.34 440.171C1200.89 447.32 1205.61 457.428 1205.61 468.611C1205.61 490.67 1188.34 507.954 1166.28 507.954C1160.29 507.954 1154.5 506.628 1149.25 504.1C1147.38 505.217 1145.39 506.167 1143.3 506.935C1143.45 507.647 1143.59 508.373 1143.7 509.099C1146.13 524.973 1136.63 540.009 1121.1 544.84C1119.52 545.328 1117.81 545.775 1116.02 546.152C1104.89 561.663 1088.75 577.384 1069.93 590.926C1045.09 609.342 1017.34 622.284 987.434 629.376L986.666 629.558C986.261 629.655 985.87 629.753 985.465 629.851C985.312 629.893 985.158 629.921 984.991 629.963C968.446 633.858 951.609 635.84 934.939 635.84L934.897 635.882Z" stroke="#93251B" stroke-miterlimit="10"/>
<path d="M1202.77 371.23C1198.77 365.911 1192.46 362.839 1185.17 362.839C1183.62 362.839 1181.99 362.979 1180.34 363.244C1171.51 364.696 1163.63 369.373 1156.87 375.251C1152.04 371.872 1146.04 369.987 1139.56 369.987C1131 369.987 1122.73 373.296 1116.3 379.3C1115.85 379.718 1115.45 380.165 1115.05 380.612C1110.48 378.071 1105.09 376.661 1099.43 376.661C1098.51 376.661 1097.6 376.703 1096.7 376.773C1115.84 364.612 1122.78 343.949 1123.77 332.026C1124.28 325.799 1121.85 320.285 1116.42 317.241C1116.13 317.032 1115.52 316.599 1114.4 315.775C1111.55 313.681 1108.2 312.466 1104.75 312.466C1103.72 312.466 1102.67 312.578 1101.64 312.801C1097.2 313.779 1093.51 316.389 1091.29 320.355C1090.78 321.108 1087.34 325.841 1081.51 327.991C1081.38 327.991 1081.21 327.991 1080.98 327.991C1076.87 327.991 1069.14 326.107 1062.32 324.431C1061.44 324.208 1060.55 323.998 1059.67 323.775L1068.94 321.681C1087.23 317.548 1100.38 308.878 1108.07 295.922C1116.51 281.681 1115.52 266.589 1114.18 258.868C1113.46 254.736 1111.15 251.064 1107.74 248.621L1105.14 246.764C1102.41 244.809 1099.15 243.79 1095.86 243.79C1094.69 243.79 1093.51 243.916 1092.34 244.181L1055.73 252.46C1051.63 246.094 1046.97 241.179 1041.8 237.801C1037.12 234.157 1031.93 231.811 1026.53 230.89C1024.17 228.391 1021.28 225.808 1017.86 223.518C1010.2 217.627 1001.41 214.513 992.39 214.513C989.374 214.513 986.303 214.862 983.259 215.546C964.09 219.874 955.029 234.883 951.581 247.462C946.108 251.078 941.752 256.411 938.904 263.099C936.866 267.902 935.553 273.472 934.981 279.727L897.076 288.299C892.831 289.262 889.174 291.901 886.94 295.615C884.692 299.329 884.064 303.81 885.195 307.999C887.247 315.622 892.762 329.681 906.751 339.007C909.208 340.892 911.805 342.511 914.527 343.879C911.889 344.201 909.292 345.178 906.988 346.825C900.873 351.223 898.863 359.474 901.892 366.371C901.948 366.511 902.06 366.748 902.213 367.069C901.599 367.055 900.999 367.041 900.399 367.041C893.739 367.041 887.498 368.033 882.346 369.931C873.97 373.003 861.935 379.202 853.767 397.435C852.874 396.947 851.938 396.514 850.961 396.151C850.808 396.095 850.64 396.039 850.487 395.983C850.389 395.942 849.984 395.816 849.9 395.788C849.37 395.606 848.811 395.453 848.253 395.327C848.211 395.327 848.183 395.313 848.141 395.299C847.597 395.16 847.038 395.062 846.48 394.964C846.41 394.964 846.326 394.936 846.256 394.922C845.768 394.853 845.265 394.783 844.762 394.741C844.665 394.741 844.567 394.727 844.455 394.713C844.357 394.713 844.26 394.699 844.162 394.685C843.394 394.629 842.598 394.601 841.775 394.601C836.134 394.601 830.382 396.039 829.279 396.318C825.524 397.296 822.285 399.613 820.12 402.811C819.799 402.434 819.492 402.057 819.171 401.708C814.662 396.235 808.295 392.381 800.686 390.566C796.917 389.673 792.966 389.212 788.945 389.212C782.802 389.212 776.714 390.259 771.325 392.228C762.865 395.327 750.676 401.61 742.495 420.29C734.607 438.3 739.424 463.347 743.668 485.448C744.631 490.432 745.539 495.151 746.153 499.172C747.647 508.875 747.647 515.451 747.06 519.863C744.408 514.99 739.549 511.5 733.713 510.732C732.959 510.62 732.206 510.565 731.438 510.565C731.256 510.565 731.089 510.565 730.907 510.565C729.036 510.606 727.138 510.914 725.253 511.486C725.043 511.556 724.834 511.626 724.638 511.695C719.18 513.455 714.712 517.182 711.989 522.292C708.695 528.463 708.192 536.449 710.593 543.611C712.031 547.953 714.433 551.862 717.7 555.255C723.284 562.152 731.884 566.857 742.076 568.546C742.188 568.56 742.3 568.588 742.397 568.602C745.902 569.105 749.085 569.356 752.156 569.356C757.559 569.356 762.6 568.574 767.584 566.969C777.887 563.646 786.348 557.88 792.91 549.796C794.138 550.927 795.479 551.946 796.903 552.826C794.711 555.451 793.259 558.704 792.91 562.32C791.988 571.716 798.424 580.218 807.862 582.089C810.194 582.563 813.042 582.857 815.904 582.968C830.955 594.305 864.504 613.348 901.306 619.031C912.391 620.929 923.7 621.893 934.897 621.893C950.548 621.893 966.366 620.022 981.933 616.336C982.031 616.322 982.142 616.294 982.24 616.266C982.575 616.183 982.91 616.113 983.245 616.029L984.167 615.806C1012.26 609.132 1038.32 596.972 1061.65 579.66C1081.34 565.489 1097.67 549.042 1107.78 533.377C1111.37 532.945 1114.61 532.205 1116.9 531.507C1125.78 528.742 1131.22 520.198 1129.85 511.193C1128.89 504.882 1124.72 499.842 1119.08 497.539C1119.58 497.497 1120.1 497.455 1120.6 497.371C1124.06 496.868 1134.59 494.872 1134.68 494.844C1141.34 493.574 1145.49 490.139 1148.12 486.397C1152.74 491.074 1159.15 493.978 1166.24 493.978C1180.46 493.978 1191.61 482.823 1191.61 468.597C1191.61 454.37 1180.3 443.326 1166.24 443.326C1164.17 443.326 1162.17 443.606 1160.25 444.066C1165.43 427.76 1169.94 422.329 1172.13 420.542L1173.3 421.868C1176.35 425.33 1180.73 427.285 1185.28 427.285C1185.87 427.285 1186.47 427.257 1187.05 427.187C1192.23 426.601 1196.8 423.529 1199.28 418.964C1199.69 418.21 1203.35 411.411 1206.04 403.592C1207.94 398.092 1208.93 393.345 1209.11 389.059C1209.46 380.109 1206 374.469 1202.76 371.188L1202.77 371.23Z" stroke="#93251B" stroke-miterlimit="10"/>
</svg>
