<svg width="118" height="96" viewBox="0 0 118 96" fill="none" xmlns="http://www.w3.org/2000/svg">
<path d="M116.338 36.9204C115.394 35.6663 113.904 34.9409 112.191 34.9409C111.824 34.9409 111.444 34.9758 111.05 35.037C108.97 35.3778 107.113 36.479 105.522 37.8686C104.382 37.0733 102.971 36.6276 101.445 36.6276C99.4266 36.6276 97.4821 37.4054 95.9657 38.8212C95.8609 38.9174 95.7647 39.0266 95.673 39.1315C94.5936 38.5328 93.322 38.2007 91.9892 38.2007C91.7707 38.2007 91.5566 38.2095 91.3425 38.227C95.8521 35.3604 97.4908 30.4924 97.7224 27.6826C97.8447 26.2144 97.2723 24.9166 95.992 24.1999C95.922 24.1518 95.7778 24.047 95.5157 23.8547C94.8471 23.3609 94.0561 23.0769 93.2434 23.0769C92.9986 23.0769 92.7539 23.1031 92.5092 23.1555C91.4605 23.3871 90.5953 23.9989 90.0709 24.934C89.9485 25.1132 89.1401 26.2275 87.7636 26.7344C87.733 26.7344 87.6937 26.7344 87.6369 26.7344C86.6712 26.7344 84.849 26.2887 83.2409 25.8954C83.0312 25.843 82.8214 25.7949 82.616 25.7425L84.8009 25.2487C89.1095 24.2742 92.2121 22.2335 94.0212 19.179C96.0094 15.823 95.7778 12.266 95.4588 10.4482C95.2884 9.47371 94.7466 8.60849 93.9425 8.03605L93.3308 7.59907C92.6884 7.14024 91.9193 6.89553 91.1459 6.89553C90.8706 6.89553 90.5909 6.92612 90.32 6.9873L81.694 8.93623C80.7283 7.43739 79.6271 6.27502 78.4123 5.47972C77.3111 4.62324 76.0876 4.06828 74.8116 3.85416C74.2566 3.26424 73.5749 2.65683 72.7709 2.11935C70.9662 0.729756 68.8949 0 66.7712 0C66.0589 0 65.3335 0.0830263 64.6212 0.244709C60.1028 1.26724 57.9704 4.8024 57.1532 7.76512C55.8641 8.61723 54.8372 9.87136 54.1643 11.4532C53.6836 12.585 53.3734 13.9003 53.2379 15.3729L44.306 17.3918C43.3054 17.619 42.4445 18.2395 41.9158 19.1178C41.387 19.9962 41.2385 21.0493 41.505 22.0369C41.9901 23.8329 43.2879 27.1452 46.5827 29.3432C47.1595 29.7889 47.7713 30.1691 48.418 30.4924C47.7975 30.5667 47.1857 30.7983 46.6395 31.1872C45.1975 32.2229 44.7255 34.1674 45.4378 35.793C45.4509 35.8236 45.4772 35.8804 45.5121 35.9547C45.3679 35.9547 45.2281 35.9459 45.0839 35.9459C43.5151 35.9459 42.0425 36.1819 40.8321 36.6276C38.8569 37.353 36.0253 38.8125 34.0982 43.108C33.8841 42.9944 33.6656 42.8895 33.4384 42.8021C33.4034 42.789 33.3641 42.7759 33.3291 42.7628C33.3073 42.7541 33.2111 42.7235 33.1893 42.7147C33.0626 42.671 32.9315 42.6361 32.8004 42.6055C32.7916 42.6055 32.7829 42.6011 32.7742 42.5967C32.6431 42.5662 32.512 42.5399 32.3809 42.5181C32.3634 42.5181 32.3459 42.5137 32.3284 42.5094C32.2148 42.4919 32.0968 42.4788 31.9789 42.4657C31.957 42.4657 31.9308 42.4657 31.9089 42.4613C31.8871 42.4613 31.8652 42.4613 31.8434 42.4569C31.6642 42.4438 31.472 42.4351 31.2797 42.4351C29.9513 42.4351 28.5923 42.7715 28.3345 42.8415C27.4518 43.0731 26.687 43.6193 26.1758 44.3709C26.1015 44.2835 26.0272 44.1961 25.9485 44.1087C24.8867 42.8196 23.3835 41.9107 21.5919 41.4868C20.7048 41.2771 19.774 41.1678 18.8258 41.1678C17.3794 41.1678 15.9461 41.4125 14.6745 41.8801C12.6819 42.6099 9.80653 44.0912 7.87945 48.496C6.02229 52.739 7.15407 58.6426 8.15475 63.8514C8.38198 65.0269 8.5961 66.1368 8.7403 67.0851C9.09425 69.3705 9.08988 70.9218 8.95442 71.9618C8.32954 70.8125 7.18465 69.991 5.80817 69.8075C5.63338 69.7812 5.44985 69.7681 5.27068 69.7681C5.22699 69.7681 5.18766 69.7681 5.14833 69.7681C4.70698 69.7769 4.26126 69.8468 3.81554 69.9822C3.76748 69.9954 3.71941 70.0128 3.66697 70.0303C2.38225 70.4454 1.32913 71.3238 0.682402 72.5298C-0.0954214 73.9806 -0.213406 75.864 0.354667 77.5551C0.695511 78.5776 1.25921 79.4997 2.0283 80.2993C3.34361 81.9249 5.37119 83.0348 7.77458 83.4325C7.80079 83.4368 7.82701 83.4412 7.85323 83.4456C8.67912 83.5636 9.43073 83.6247 10.1517 83.6247C11.4234 83.6247 12.6119 83.4412 13.7874 83.061C16.2126 82.2788 18.2096 80.9198 19.7565 79.0146C20.0493 79.2812 20.3596 79.5215 20.6961 79.7269C20.1804 80.343 19.8396 81.1121 19.7565 81.9642C19.5381 84.1753 21.0587 86.1811 23.283 86.6224C23.8336 86.7317 24.5021 86.806 25.1795 86.8278C28.7277 89.4977 36.6327 93.9855 45.3067 95.327C47.9199 95.7728 50.5854 96 53.2248 96C56.9129 96 60.6403 95.5586 64.3066 94.6934C64.3284 94.6891 64.3547 94.6847 64.3809 94.676C64.4595 94.6585 64.5382 94.641 64.6168 94.6191L64.8353 94.5667C71.4556 92.9936 77.5995 90.127 83.0967 86.05C87.7374 82.7115 91.5872 78.8354 93.9687 75.143C94.8121 75.0381 95.5768 74.8677 96.1187 74.7016C98.2118 74.0505 99.4965 72.0361 99.1732 69.9123C98.9459 68.4266 97.9627 67.238 96.6343 66.6962C96.7523 66.6874 96.8747 66.6743 96.9926 66.6568C97.8054 66.5388 100.287 66.0669 100.314 66.0625C103.499 65.4551 104.246 62.7415 104.5 61.6054C104.675 61.6622 104.863 61.6971 105.055 61.6971C106.034 61.6971 106.825 60.9018 106.825 59.923C106.825 59.0184 106.143 58.2712 105.269 58.1663C105.278 58.1401 105.282 58.1183 105.287 58.092C105.409 57.5502 105.544 56.969 105.684 56.3441C107.17 50.7202 108.529 49.0422 109.136 48.5528L109.412 48.8674C110.128 49.6846 111.16 50.1434 112.234 50.1434C112.374 50.1434 112.514 50.1346 112.654 50.1215C113.873 49.9861 114.952 49.2607 115.538 48.1813C115.634 48.0066 116.495 46.4028 117.133 44.5588C117.579 43.2653 117.815 42.1467 117.854 41.1372C117.937 39.0266 117.12 37.7026 116.36 36.9291" fill="white"/>
<path d="M90.1714 16.8325C88.9085 18.9606 86.6187 20.4157 83.3589 21.1542L56.6682 27.1845C55.5408 27.438 54.4702 27.5691 53.4826 27.5691C51.4812 27.5691 49.9431 27.0447 48.7589 26.2843C50.0042 27.2763 51.7259 28.006 54.09 28.006C55.0776 28.006 56.1482 27.8793 57.2756 27.6215L83.9663 21.5912C87.2261 20.8571 89.5159 19.4019 90.7788 17.2695C92.1859 14.8967 91.9499 12.2529 91.7489 11.0949L91.1371 10.658C91.3381 11.816 91.5741 14.4597 90.167 16.8325" fill="#010101"/>
<path d="M79.4042 12.5588C78.657 11.0119 77.5995 9.3951 76.2143 8.54736C77.3067 9.44754 78.1632 10.8065 78.7924 12.1219L56.8998 17.0685L57.5902 17.488L79.3999 12.5588H79.4042Z" fill="#010101"/>
<path d="M72.6747 7.6122C72.7752 7.59035 72.8757 7.57287 72.9718 7.55539C72.5611 6.95673 71.7483 5.93857 70.5641 5.17822C71.9406 6.27504 72.6747 7.6122 72.6747 7.6122Z" fill="#010101"/>
<path d="M71.2414 31.5935C71.2545 31.5455 71.2764 31.493 71.2939 31.4406C71.154 31.3314 70.9924 31.2265 70.8176 31.126C70.9924 31.2877 71.1366 31.4493 71.2414 31.5935Z" fill="#010101"/>
<path d="M93.2783 26.8831C93.2783 26.8831 92.7365 33.4421 86.4964 35.5833C80.4792 37.6459 73.5356 32.2972 71.342 32.2929C69.2576 33.0488 64.4333 40.3071 58.0971 40.3071C55.8904 40.3071 54.1337 39.6341 52.7616 38.7339C54.2124 39.8657 56.1919 40.8008 58.7875 40.8008C65.1281 40.8008 69.948 33.5426 72.0368 32.7866C74.2304 32.7866 81.1696 38.1353 87.1912 36.0727C93.4313 33.9359 93.9688 27.3768 93.9688 27.3768C93.9688 27.3768 93.8508 27.3026 93.2783 26.8831Z" fill="#010101"/>
<path d="M94.8078 70.1395C94.0038 70.3536 93.0817 70.4978 92.234 70.3667C91.1372 70.2006 90.119 69.7899 89.2407 69.1475C88.2706 68.4396 87.886 69.2174 88.6857 69.9472C89.044 70.2749 89.4985 70.5808 89.9967 70.8386C86.5838 75.2434 75.6375 85.2371 59.9237 87.5487C44.293 89.8429 34.024 85.7615 28.837 82.2088C29.3483 81.8855 29.8027 81.5053 30.1436 81.1208C30.8602 80.3124 30.4014 79.5739 29.5143 80.3823C28.7016 81.1164 27.7402 81.632 26.6609 81.9117C25.8306 82.1258 24.8998 82.0821 24.0783 81.9554C23.2655 81.8986 23.3354 82.8031 24.0084 82.9386C24.5721 83.0522 25.564 83.1309 26.4686 83.0435C28.2078 84.6472 36.3618 90.1575 45.8967 91.617C68.6721 95.528 87.3442 80.1681 91.762 71.4286C92.8283 71.5815 94.2703 71.3324 94.9826 71.1139C95.6337 70.9086 95.6118 69.9996 94.8078 70.1438" fill="#FD8204"/>
<path d="M80.6628 73.0586C78.2463 72.2152 75.1262 73.8407 72.7141 78.4989C70.1403 83.4761 67.8068 87.1074 63.5375 91.0097C70.6035 89.4016 76.9441 86.216 82.3102 81.903C83.6954 77.5376 83.6211 74.0898 80.6671 73.0629" fill="#E2211C"/>
<path d="M52.9408 66.8229C52.3246 65.8179 52.3377 64.0306 52.7616 62.0118C52.5999 61.8414 52.4601 61.6447 52.3421 61.4219C51.8134 63.8777 51.8877 66.0014 52.9408 66.8229Z" fill="#010101"/>
<path d="M53.7316 60.5171C53.5655 60.0758 53.583 59.3941 53.7971 58.5726C54.3477 57.148 55.0294 55.7541 55.7854 54.5567C56.1 54.1154 56.3447 53.7571 56.537 53.4643C57.542 52.1315 58.6301 51.1964 59.6614 51.0172C60.0197 50.9517 60.3037 50.9866 60.5222 51.1002C60.3256 50.6327 59.9105 50.3967 59.2244 50.5191C58.1931 50.7026 57.105 51.6334 56.1 52.9705C55.9077 53.2589 55.663 53.6172 55.3528 54.0586C54.5968 55.2559 53.9107 56.6499 53.3645 58.0744C53.0411 59.3504 53.1679 60.2768 53.7403 60.5171" fill="#010101"/>
<path d="M55.082 62.6455C54.1993 62.8465 53.4783 62.6542 52.9452 62.1954C53.487 62.9951 54.3654 63.4058 55.519 63.1436C62.55 61.5355 65.2462 52.0749 62.2048 49.3132C64.512 52.5644 61.7416 61.1248 55.082 62.6498" fill="#010101"/>
<path d="M59.8757 63.397C59.8757 63.397 60.9987 64.0087 60.199 65.4901C59.2988 67.1637 56.6901 70.192 53.4826 70.8737C51.809 71.2276 50.5156 70.8212 49.576 69.908C50.5287 71.1665 51.9663 71.787 53.9196 71.3718C57.1227 70.6902 59.7315 67.6619 60.636 65.9883C60.9943 65.3197 61.0205 64.9439 60.9856 64.4719C60.92 63.5761 59.88 63.397 59.8757 63.397Z" fill="#010101"/>
<path d="M80.4966 53.4469C80.9642 51.5635 82.6378 46.8616 80.7807 45.4065C81.895 47.2331 80.4835 51.2445 80.0597 52.9531C78.9279 57.5021 78.587 58.8218 78.067 60.9542C77.5252 63.1653 78.1981 64.6467 78.788 65.276C78.788 65.276 76.1531 66.5781 74.6193 65.2672C76.0176 67.3603 79.225 65.7741 79.225 65.7741C78.6395 65.1449 77.9622 63.6635 78.504 61.4524C79.0284 59.3199 79.3649 58.0002 80.4966 53.4513" fill="#010101"/>
<path d="M65.163 47.8536C65.4164 48.0546 65.5562 48.2032 65.5999 48.3518C65.5999 48.3518 65.9321 48.2775 66.2379 48.4042C66.0151 47.6657 65.163 47.858 65.163 47.858" fill="#010101"/>
<path d="M66.0108 47.2155C65.954 47.2461 65.9103 47.2767 65.8666 47.3117C65.9191 47.2767 65.9671 47.2418 66.0196 47.2112C66.0196 47.2112 66.0152 47.2112 66.0108 47.2112" fill="#010101"/>
<path d="M74.9208 48.4611C72.9019 48.7932 69.7863 54.3341 68.6894 58.9573C67.5926 63.5806 67.2124 64.7735 66.9459 66.0364C66.6706 67.3298 66.1637 68.0203 65.5039 68.147C64.9183 68.2562 63.1748 68.6757 62.5717 68.7631C62.4275 68.785 62.3052 68.7631 62.1959 68.7238C62.327 69.0778 62.5848 69.3225 63.0087 69.2569C63.6117 69.1695 65.3553 68.75 65.9408 68.6408C66.6007 68.514 67.1076 67.828 67.3829 66.5302C67.6494 65.2673 68.034 64.07 69.1264 59.4511C70.2232 54.8279 73.3389 49.287 75.3577 48.9549C75.6724 48.9024 75.9171 48.9068 76.105 48.9723C75.9739 48.4917 75.6024 48.3475 74.9208 48.4611Z" fill="#010101"/>
<path d="M71.1496 49.182C70.4811 51.8607 70.3675 52.3239 70.35 52.3938C70.3587 52.372 70.7301 51.1091 71.5997 49.5928C71.7002 49.0378 71.4686 48.4523 71.0098 47.9585C71.1934 48.3387 71.2502 48.7625 71.1453 49.182" fill="#010101"/>
<path d="M32.4814 46.6912C32.9359 48.1202 32.1406 50.3793 29.2653 51.4412L29.7022 51.9394C32.5776 50.8819 33.3729 48.6183 32.9184 47.1894C32.831 46.9097 32.6169 46.5121 32.0881 46.3154C32.2848 46.3941 32.4246 46.5121 32.4858 46.6912" fill="#010101"/>
<path d="M32.0182 46.2893C32.0182 46.2893 32.04 46.298 32.0488 46.298C32.04 46.298 32.0313 46.2893 32.0182 46.2893Z" fill="#010101"/>
<path d="M95.1529 43.6717C95.0393 43.5188 94.9126 43.3833 94.7771 43.261C96.9096 46.333 95.4107 52.0399 93.5361 56.5452C91.7139 60.9237 88.8167 64.2273 85.8409 64.6162C84.5605 64.7822 83.4156 64.52 82.5941 63.7509C83.4156 64.9046 84.7484 65.3153 86.2779 65.1143C89.2581 64.7254 92.1509 61.4218 93.9731 57.0433C95.8652 52.4944 97.3815 46.7219 95.1529 43.6674" fill="#010101"/>
<path d="M86.9246 59.9141C86.8547 59.7481 86.7979 59.5471 86.7586 59.3067C86.6056 58.341 86.6668 57.0082 86.9465 55.3477C87.2305 53.6784 87.6238 52.1883 88.1351 50.9167C89.3804 47.8491 90.8312 45.957 92.3344 45.4414C92.6927 45.319 92.9943 45.3147 93.2259 45.4283C93.1428 45.236 93.0336 45.0874 92.8938 44.9913C92.649 44.8209 92.3126 44.8034 91.9018 44.9476C90.3986 45.4589 88.9478 47.3553 87.7024 50.4229C87.1912 51.6946 86.7935 53.1847 86.5139 54.8539C86.2298 56.5144 86.1686 57.8472 86.326 58.8086C86.4265 59.4247 86.6275 59.7918 86.929 59.9141" fill="#010101"/>
<path d="M30.362 56.4927C30.6111 55.9334 30.7684 55.1468 30.4057 54.7885C30.3358 54.7186 30.2528 54.6705 30.1523 54.6443C30.244 55.0419 30.1086 55.5794 29.9251 55.9946C29.1866 57.6769 25.5509 68.5184 26.1496 76.0301C24.3842 76.5675 22.8722 76.6287 21.9152 75.8028C22.8067 77.1312 24.524 77.1575 26.5865 76.5282C25.9879 69.0165 29.6192 58.1707 30.362 56.4883" fill="#010101"/>
<path d="M4.89477 73.5786C4.89477 73.5786 4.88166 73.5873 4.87292 73.5873C4.98654 73.5567 5.10889 73.5349 5.23999 73.5261C5.14385 73.5261 5.03024 73.5392 4.8904 73.5786" fill="#010101"/>
<path d="M19.0049 46.442C16.1995 47.3247 16.3219 51.4979 16.9467 55.3564C17.8251 60.7968 19.9837 68.9552 17.8469 73.7358C16.7195 76.2702 14.9366 78.0968 12.188 78.9839C10.9295 79.3903 9.64918 79.4733 7.94496 79.2286C6.62091 79.0101 5.56342 78.4988 4.84241 77.8084C5.5372 78.7523 6.76075 79.4558 8.38194 79.7267C10.0818 79.9758 11.3621 79.8928 12.6206 79.4864C15.3692 78.5993 17.1477 76.7771 18.2795 74.2383C20.4164 69.4577 18.2577 61.2993 17.3793 55.8589C16.7545 52.0004 16.6321 47.8273 19.4375 46.9446C20.5606 46.5906 21.3996 46.7261 21.9938 47.2286C21.3996 46.3328 20.4251 45.9963 19.0005 46.4464" fill="#010101"/>
<path d="M6.28878 77.2099C5.78625 76.4932 5.50659 75.4488 5.69449 74.0199C5.69449 74.0199 5.71197 73.5523 5.25751 73.5261C5.02154 75.3265 5.52843 76.5238 6.28878 77.2099Z" fill="#010101"/>
<path d="M22.7281 51.1572L23.1651 51.6553C23.5846 51.5199 24.6989 50.9125 24.2881 48.8805C24.1308 48.0896 23.7419 47.2287 23.0995 46.5776C23.5627 47.1807 23.7637 47.8492 23.8511 48.3824C24.2051 50.5935 23.1476 51.0217 22.7281 51.1572Z" fill="#010101"/>
<path d="M48.9074 45.9002V45.909L49.3401 46.4071C49.7596 46.2717 50.8738 45.6643 50.4631 43.6367C50.2708 42.6841 49.7464 41.6222 48.8375 40.958C49.493 41.6747 49.8863 42.5705 50.0086 43.1385C50.4631 45.2972 49.3401 45.7604 48.9031 45.9046" fill="#010101"/>
<path d="M45.1625 41.1898C42.3571 42.0725 42.4795 46.2456 43.1043 50.1042C43.9827 55.5446 46.1413 63.703 44.0045 68.4835C42.8771 71.018 41.0942 72.8446 38.3456 73.7316C37.0871 74.138 35.8068 74.2211 34.1026 73.972C32.8047 73.7579 31.7647 73.2641 31.0437 72.5911C31.7472 73.5131 32.9533 74.2036 34.557 74.4658C36.2569 74.7148 37.5372 74.6318 38.7957 74.2254C41.5443 73.3384 43.3228 71.5162 44.4546 68.9773C46.5871 64.1968 44.4328 56.0383 43.5544 50.598C42.9295 46.7438 42.8072 42.5663 45.6126 41.6836C46.7094 41.3384 47.5397 41.4563 48.134 41.937C47.5353 41.0674 46.5696 40.7441 45.1581 41.1854" fill="#010101"/>
<path d="M31.1617 68.3043C31.2403 68.2912 31.319 68.2781 31.4064 68.2737C31.3365 68.2737 31.2534 68.2824 31.1617 68.3043Z" fill="#010101"/>
<path d="M32.4902 71.9924C31.9745 71.2757 31.6818 70.2182 31.8697 68.7675C31.8697 68.7675 31.8871 68.2868 31.4152 68.2737C31.1749 70.109 31.708 71.3151 32.4902 71.9967" fill="#010101"/>
<path d="M98.5221 41.5742C98.5221 41.5742 98.7755 41.8626 98.9591 42.0724C99.1033 42.1117 99.23 42.1598 99.3393 42.2122C99.23 41.8626 98.9634 41.6966 98.5221 41.5742Z" fill="#010101"/>
<path d="M113.467 39.4023C114.323 41.2071 111.78 45.8827 111.78 45.8827L112.217 46.3809C112.217 46.3809 115.376 40.5691 113.467 39.4023Z" fill="#010101"/>
<path d="M104.277 44.1131C103.962 45.1268 103.678 46.1974 103.678 46.1974C103.678 46.1974 104.072 45.4721 104.749 44.4714C105.046 43.3615 104.74 42.4219 104.098 41.7446C104.461 42.3564 104.57 43.1604 104.273 44.1131" fill="#010101"/>
<path d="M108.297 44.1611C104.535 44.8909 102.608 51.0392 101.577 54.9458C101.074 57.1569 100.676 58.8611 100.405 60.1415C100.126 61.4524 99.8243 61.7408 99.1557 61.8719C98.5614 61.9855 96.5993 62.3482 95.9876 62.44C95.8434 62.4618 95.721 62.4444 95.6161 62.405C95.7472 62.7546 96.0007 62.9993 96.4246 62.9381C97.0363 62.8464 98.9984 62.4793 99.5927 62.3657C100.261 62.239 100.567 61.9506 100.842 60.6396C101.113 59.3593 101.511 57.6551 102.014 55.4439C103.04 51.5374 104.972 45.389 108.73 44.6593C110.041 44.4058 110.963 44.9521 111.527 45.4939C111.081 44.8909 110.028 43.8247 108.293 44.1611" fill="#010101"/>
<path d="M94.716 43.1736C93.9163 42.0768 92.3475 41.8452 91.3818 42.0113C87.8904 42.6056 85.4127 45.3105 83.372 49.8594C81.5061 54.0719 80.8331 57.8998 81.3881 61.2384C81.8251 63.9258 83.6254 64.909 85.8409 64.6162C88.8211 64.2273 91.7139 60.9237 93.5361 56.5452C95.4283 51.9963 96.9402 46.2194 94.716 43.1693M90.9536 56.3092C89.7606 58.5116 88.4235 59.7352 87.3529 59.9405C86.8023 60.041 86.4702 59.6696 86.326 58.8C86.173 57.8343 86.2342 56.5059 86.5139 54.8454C86.7979 53.1761 87.1912 51.686 87.7025 50.4144C88.9478 47.3468 90.3986 45.4547 91.9018 44.939C92.317 44.7992 92.6534 44.8123 92.8938 44.9827C93.1909 45.1881 93.3613 45.6164 93.4094 46.2587C93.6323 49.2739 92.7539 52.9838 90.9536 56.3092Z" fill="#FD8204"/>
<path d="M59.8757 63.3969C59.8757 63.3969 58.1365 66.3946 54.7455 67.1112C52.045 67.6836 51.5949 64.8826 52.3421 61.4217C52.8578 62.3962 53.8016 62.9337 55.082 62.6409C63.7211 60.6658 65.8142 46.8397 58.7701 48.1375C46.6002 50.3836 43.9609 72.8881 53.4827 70.8692C56.6857 70.1919 59.2945 67.1636 60.199 65.4856C60.9987 64.0043 59.8757 63.3925 59.8757 63.3925M59.2202 50.5147C62.9651 49.8549 58.7089 59.853 54.2343 60.5609C53.2511 60.7138 52.9539 59.6607 53.3603 58.0701C53.9109 56.6455 54.5926 55.2516 55.3486 54.0543C55.6588 53.6129 55.9035 53.2546 56.0958 52.9662C57.1052 51.629 58.1889 50.6982 59.2246 50.5147" fill="#FD8204"/>
<path d="M77.8835 44.5762C72.3426 45.6468 70.3631 52.3414 70.3456 52.3938C70.3631 52.3283 70.4767 51.8607 71.1453 49.182C71.6565 47.1282 68.3399 45.0263 65.163 47.8536C65.163 47.8536 66.8192 47.4822 66.1156 49.7807C65.5738 51.5417 64.9445 54.1854 64.8834 54.4214C62.5106 63.5717 63.2185 60.727 61.7065 66.9889C61.5273 67.7274 61.7065 68.8854 62.5674 68.7543C63.1704 68.6669 64.9139 68.2474 65.4995 68.1382C66.1593 68.0114 66.6662 67.3254 66.9415 66.0276C67.2081 64.7647 67.5926 63.5674 68.6851 58.9485C69.7819 54.3252 72.8976 48.7844 74.9164 48.4566C77.0489 48.107 76.1618 50.2308 74.2653 57.4016C71.2021 69.0209 78.7793 65.2716 78.7793 65.2716C78.1894 64.6423 77.5164 63.161 78.0583 60.9499C78.5827 58.8174 78.9191 57.4977 80.0509 52.9488C80.6496 50.5454 83.2103 43.5406 77.8791 44.5719" fill="#FD8204"/>
<path d="M29.9251 55.9945C30.1742 55.4352 30.3315 54.6486 29.9688 54.2903C29.6149 53.9451 28.907 54.1155 27.8713 54.7753C27.8713 54.7753 24.5896 57.8342 21.6007 67.3866C19.4027 75.9776 22.1163 77.2623 26.1496 76.03C25.551 68.5184 29.1823 57.6725 29.9251 55.9902" fill="#FD8204"/>
<path d="M22.7281 51.157C23.1476 51.0216 24.2051 50.5933 23.8511 48.3822C23.6763 47.3073 23.0471 45.6948 20.7049 45.1355C18.9395 44.716 17.1435 44.965 15.9549 45.402C14.3687 45.9832 12.612 47.0145 11.3098 49.9947C9.5488 54.0193 11.6987 61.6795 12.4416 66.5038C13.5734 73.8363 11.7687 76.7946 8.84089 77.7997C7.30709 78.3284 4.78572 77.1398 5.25766 73.5216C3.72386 73.6047 3.54033 75.2696 3.91176 76.362C4.37933 77.7691 5.81699 78.8703 7.94508 79.2242C9.64493 79.4689 10.9253 79.3859 12.1838 78.9795C14.9324 78.0925 16.7109 76.2702 17.8427 73.7314C19.9795 68.9508 17.8208 60.7924 16.9425 55.352C16.3176 51.4935 16.1953 47.3204 19.0007 46.4377C21.8061 45.5506 22.8592 47.7093 22.7237 51.157" fill="#FD8204"/>
<path d="M32.4814 46.6914C32.1712 45.7169 29.2653 46.4772 29.2653 46.4772C29.676 47.9805 29.2653 51.4413 29.2653 51.4413C32.1406 50.3838 32.9359 48.1203 32.4814 46.6914Z" fill="#FD8204"/>
<path d="M48.8856 45.9091C49.3051 45.7737 50.4674 45.3236 50.0086 43.1387C49.7945 42.1249 48.7239 40.1061 46.8536 39.8351C45.0576 39.5729 43.301 39.7215 42.1124 40.1585C40.5261 40.7397 38.7695 41.7709 37.4673 44.7511C35.7063 48.7757 37.8562 56.436 38.5991 61.2602C39.7308 68.5927 37.9261 71.5511 34.9984 72.5561C33.4646 73.0849 30.9432 71.8963 31.4151 68.2781C29.8813 68.3568 29.7022 70.026 30.0692 71.1185C30.5368 72.5256 31.9745 73.6267 34.1025 73.9807C35.8024 74.2298 37.0827 74.1468 38.3456 73.7404C41.0942 72.8533 42.8727 71.0311 44.0045 68.4922C46.1413 63.7117 43.9826 55.5533 43.1043 50.1129C42.4794 46.2544 42.3571 42.0812 45.1625 41.1985C47.9679 40.3158 49.021 42.4701 48.8856 45.9179" fill="#FD8204"/>
<path d="M111.658 38.747C107.31 39.4637 103.679 46.1975 103.679 46.1975C103.679 46.1975 103.963 45.1269 104.277 44.1131C105.352 40.6304 101.105 39.1665 98.5222 41.5743C99.6671 41.8933 99.6365 42.4876 98.7363 45.8567C96.2718 55.0988 96.0139 56.2393 95.1138 60.6528C94.9608 61.4044 95.1138 62.5712 95.9877 62.4401C96.5995 62.3483 98.5615 61.9812 99.1558 61.8676C99.8244 61.7409 100.126 61.4481 100.406 60.1416C100.677 58.8656 101.074 57.1614 101.577 54.9459C102.604 51.0393 104.535 44.891 108.297 44.1612C110.679 43.698 111.78 45.8829 111.78 45.8829C111.78 45.8829 116.054 38.026 111.662 38.7514" fill="#FD8204"/>
<path d="M56.6638 27.1845L83.3545 21.1542C86.6143 20.4157 88.9085 18.9649 90.167 16.8325C91.5741 14.4597 91.3381 11.816 91.1371 10.658L45.1188 21.0581C45.582 22.7754 47.4173 27.5691 53.4782 27.5691C54.4658 27.5691 55.5364 27.438 56.6638 27.1845Z" fill="#E2211C"/>
<path d="M72.6747 7.6122C72.6747 7.6122 70.0747 2.86223 65.434 3.91098C60.7933 4.95973 60.4874 10.3652 60.4874 10.3652C57.5771 11.0206 56.9173 14.298 56.8998 17.0684L78.7924 12.1218C77.5864 9.62667 75.5807 6.95236 72.6747 7.6122Z" fill="#E2211C"/>
<path d="M88.8823 30.3265C85.9283 31.3402 78.1326 27.521 74.5668 28.7446C72.2552 29.5355 71.4949 30.8028 71.2458 31.5937C70.7564 30.9251 69.6246 29.9681 67.1775 29.9681C63.4064 29.9681 57.2712 36.1077 54.1468 36.1077C51.0224 36.1077 48.8724 34.2767 48.8724 34.2767C48.8724 34.2767 51.5118 40.3071 58.1058 40.3071C64.6998 40.3071 69.2663 33.0488 71.355 32.2929C73.5487 32.2929 80.4923 37.6415 86.5051 35.5833C92.7452 33.4421 93.287 26.8831 93.287 26.8831C93.287 26.8831 91.845 29.3127 88.891 30.3265" fill="#E2211C"/>
<path d="M107.729 65.8528C104.421 65.8528 101.734 63.1698 101.734 59.8706C101.734 56.5714 104.426 53.9146 107.729 53.9146C111.033 53.9146 113.707 56.5845 113.707 59.8706C113.707 63.1567 111.081 65.8528 107.729 65.8528Z" fill="white"/>
<path d="M106.908 59.7307H107.415C108 59.7307 108.507 59.5166 108.507 58.9791C108.507 58.5902 108.219 58.21 107.415 58.21C107.174 58.21 107.026 58.2318 106.908 58.2449V59.7307ZM106.908 62.1734H106.182V57.7686C106.563 57.7206 106.912 57.6638 107.441 57.6638C108.123 57.6638 108.573 57.8036 108.839 58.0002C109.11 58.1881 109.25 58.4897 109.25 58.9092C109.25 59.4903 108.848 59.8355 108.372 59.9797V60.0147C108.765 60.0846 109.032 60.4386 109.119 61.0853C109.228 61.7714 109.337 62.0336 109.412 62.1778H108.656C108.56 62.0336 108.455 61.6272 108.363 61.0503C108.254 60.491 107.965 60.2813 107.397 60.2813H106.912V62.1778L106.908 62.1734ZM107.642 56.5451C105.881 56.5451 104.439 58.0308 104.439 59.8705C104.439 61.7102 105.881 63.2178 107.673 63.2178C109.442 63.2352 110.871 61.7451 110.871 59.8836C110.871 58.0221 109.442 56.5407 107.673 56.5407H107.646L107.642 56.5451ZM107.668 55.929C109.849 55.929 111.597 57.6812 111.597 59.8705C111.597 62.0598 109.849 63.8295 107.638 63.8295C105.426 63.8295 103.665 62.0947 103.665 59.8705C103.665 57.6463 105.453 55.929 107.638 55.929H107.664H107.668Z" fill="#FD8204"/>
</svg>
