<svg width="443" height="116" viewBox="0 0 443 116" fill="none" xmlns="http://www.w3.org/2000/svg">
<path d="M215.335 28.7053C214.541 26.8388 213.747 24.9723 212.897 22.9588C215.06 22.0547 216.745 21.3673 218.409 23.7442C219.75 25.6253 221.68 27.118 223.523 28.9512C224.997 24.0353 227.184 19.4373 224.362 13.8419C226.21 14.7173 227.319 15.27 227.801 15.4924C232.225 11.8936 236.372 8.46487 240.585 5.12995C241.288 4.5697 242.249 4.41132 243.044 3.94961C248.016 1.13268 253.449 0.506954 259.052 0.322052C265.067 0.128197 270.613 1.65895 275.921 4.21608C287.24 9.70138 296.897 17.6038 306.769 25.2159C316.448 32.684 326.549 39.6244 337.836 44.3643C345.496 47.5848 353.565 49.8916 361.521 52.3702C364.408 53.2654 367.5 53.6217 370.526 53.8841C371.796 53.9995 373.505 53.645 374.334 52.8333C375.703 51.4596 376.508 52.1777 377.787 52.7056C379.321 53.3338 381.119 53.8716 382.694 53.6575C385.594 53.2402 388.394 52.1477 391.252 51.5037C394.394 50.8006 397.726 50.7337 400.717 49.6476C406.726 47.4802 412.731 45.1753 418.427 42.2951C423.82 39.5801 428.768 35.9647 434.026 32.9246C435.465 32.0839 437.093 30.0167 438.995 32.6C439.218 32.8862 440.485 32.3984 441.868 32.1779C441.856 34.2577 442.447 36.499 441.693 38.1186C439.129 43.6085 436.211 48.9261 433.169 54.167C430.904 58.1212 428.533 62.0564 425.726 65.6678C418.458 75.0905 409.375 82.6847 399.832 89.6222C394.164 93.7401 387.693 96.8117 381.538 100.268C373.19 104.952 363.848 106.885 354.716 109.183C348.424 110.78 341.786 111.083 335.26 111.679C330.686 112.101 326.052 112.239 321.456 112.163C318.259 112.09 315.081 111.444 311.887 111.043C304.883 110.157 297.804 109.697 290.925 108.259C283.568 106.735 276.246 104.698 269.162 102.1C263.263 99.9314 257.749 96.6803 252.101 93.8713C251.447 93.5362 250.874 93.0512 250.297 92.5928C250.227 92.5255 250.269 92.2865 250.224 91.9224C251.433 92.2189 252.558 92.5279 253.715 92.8151C253.837 92.5902 253.928 92.3871 254.05 92.1622C246.275 87.1134 237.43 83.7651 230.485 77.4389C234.019 79.3255 237.553 81.212 241.092 83.072C241.231 82.9049 241.376 82.7113 241.541 82.549C234.434 78.2212 228.01 73.1377 223.098 65.5558C216.751 78.4562 208.023 88.6884 194.296 93.8434C194.472 94.0936 194.673 94.3485 194.844 94.6252C198.782 92.9948 202.72 91.3644 206.658 89.7339C198.743 95.5355 189.226 98.1493 180.721 102.942C182.206 102.767 183.723 102.571 185.208 102.395C185.282 102.6 185.333 102.774 185.407 102.978C182.769 104.237 180.215 105.647 177.504 106.7C169.077 109.973 160.364 112.538 151.387 113.494C142.437 114.455 133.332 114.43 124.317 114.832C121.135 114.981 117.969 115.351 114.808 115.229C110.719 115.079 106.622 114.819 102.61 114.08C96.6078 112.962 90.7201 111.041 84.6848 110.109C78.5962 109.166 73.2768 106.361 67.7977 103.993C62.4954 101.71 57.19 99.2909 52.2541 96.3341C47.7157 93.6121 43.4139 90.3294 39.4204 86.8549C34.2599 82.379 29.3155 77.6128 24.5638 72.6889C21.4825 69.4856 18.8724 65.7906 16.1544 62.2407C9.245 53.2363 5.38007 42.6896 1.14889 32.352C-0.0781152 29.3678 -0.420945 26.3485 0.93728 23.3294C1.06864 23.5171 1.22661 23.7094 1.35797 23.8971C2.40505 23.5622 3.44435 23.1164 4.51167 22.9768C5.16116 22.8728 6.03903 23.0284 6.57247 23.4243C8.86418 25.2001 10.9977 27.2493 13.3301 28.9502C17.6384 32.0423 21.8871 35.3156 26.507 37.8876C32.4958 41.2501 38.732 44.3004 45.0654 46.957C49.2006 48.7036 53.6898 49.691 58.1164 50.7222C59.4855 51.047 61.0696 50.3142 62.5642 50.086C63.3827 49.9572 64.7459 49.5414 64.9648 49.8541C67.1009 52.9721 70.3766 52.2926 73.2154 52.2205C76.5784 52.1317 79.9011 51.1866 83.2455 50.7385C93.6387 49.3756 103.677 46.6076 113.067 42.0811C121.623 37.9271 129.835 33.0821 138.147 28.4466C146.275 23.9157 154.134 18.8984 162.467 14.7599C168.783 11.6334 175.668 9.32 182.905 9.97275C187.738 10.4183 192.992 10.8019 197.101 13.0093C200.308 14.7283 204.221 16.0246 206.672 19.2257C209.035 22.3017 211.612 25.2513 214.096 28.2665C214.254 28.4589 214.417 28.6247 214.601 28.8218C214.864 28.7314 215.096 28.6629 215.359 28.5725L215.335 28.7053ZM249.913 37.7927C249.98 38.6538 250.042 39.5414 250.109 40.4024C250.87 40.2907 251.907 40.4746 252.338 40.0578C254.536 37.8725 256.572 35.5213 258.656 33.2061C258.541 33.0763 258.423 32.9731 258.308 32.8433C255.484 34.5342 252.665 36.1986 249.815 37.8848C249.85 37.0692 249.88 36.2801 249.921 35.2739C248.605 35.8897 247.204 36.518 245.829 37.151C245.886 37.298 245.942 37.4449 245.998 37.5918C247.303 37.6588 248.613 37.6992 249.918 37.7662L249.913 37.7927ZM337.756 59.8275C336.757 60.664 335.78 61.5318 334.813 62.3465C338.1 61.4498 341.328 60.5702 344.579 59.722C344.524 59.411 344.465 59.1265 344.437 58.8202C343.234 58.7987 342.049 58.6709 340.876 58.7916C339.977 58.9063 339.107 59.3273 338.229 59.6373C338.188 59.2467 338.236 58.5154 338.129 58.4966C335.899 58.0739 333.66 57.7044 331.412 57.3881C331.279 57.3645 331.031 57.6767 330.94 57.8798C330.145 59.7384 329.353 61.5705 328.271 64.118C330.96 62.5675 333.051 61.2946 335.226 60.1734C335.949 59.8085 336.916 59.9251 337.783 59.8322L337.756 59.8275ZM375.869 66.309C376.068 66.4264 376.24 66.5391 376.439 66.6565L380.102 61.0053C378.47 60.7708 376.994 60.427 375.547 60.3896C367.412 60.1532 359.256 59.8854 351.106 59.8927C349.485 59.9067 347.862 61.016 346.074 61.658C348.17 64.3853 350.309 64.5452 352.15 62.9814C353.727 61.672 354.919 62.3764 356.044 63.1511C356.436 63.4124 356.022 64.8183 355.973 66.1793C356.976 65.7818 357.912 65.4546 358.831 65.0696C361.94 63.7852 364.486 59.6345 368.619 63.4077C369.187 63.9192 371.012 63.0648 372.267 62.7942C375.943 62.0213 376.836 62.8645 375.901 66.2872L375.869 66.309ZM199.398 57.6296C202.178 55.8761 204.647 54.6426 206.707 52.9259C208.933 51.0468 211.828 48.9575 212.519 46.4502C213.225 43.8633 216.443 41.3384 213.742 37.8463C209.121 44.2591 204.514 50.5922 199.425 57.6343L199.398 57.6296ZM109.119 103.674C110.552 101.161 111.904 98.7984 113.301 96.3341C107.2 94.3761 104.059 99.4076 99.2109 101.836C102.904 102.517 106.038 103.1 109.119 103.674ZM202.81 25.6908C199.981 23.3815 199.955 23.3768 197.407 25.829C196.349 26.8467 194.629 27.8841 194.533 29.045C194.259 31.9824 194.708 35.0205 194.848 37.9489C197.455 33.9186 200.094 29.8664 202.81 25.6908ZM283.509 50.5684C283.509 50.5684 283.338 50.2916 283.224 50.1618C281.604 50.943 280.058 51.929 278.373 52.4523C272.288 54.2774 270.995 58.3216 273.121 63.3553C276.561 59.1164 280.033 54.8557 283.509 50.5684ZM287.345 29.8541C286.866 29.7692 286.351 29.7327 285.872 29.6479C284.65 32.3624 283.429 35.0769 282.439 37.2572C283.53 38.6834 284.223 39.5732 285.069 40.682C285.344 40.676 286.106 40.8659 286.625 40.5742C287.719 39.9737 289.625 38.9694 289.538 38.3786C289.114 35.5093 288.129 32.705 287.345 29.8541ZM344.049 79.4334C342.346 79.1316 341.212 78.8757 339.802 78.6259C337.116 80.3138 334.162 82.1187 331.23 83.9549C333.563 84.2588 335.566 84.2577 337.532 84.0035C339.048 83.8066 340.865 83.7725 341.953 82.897C343.667 81.5846 344.864 79.6326 345.943 78.3446C344.896 77.7482 343.946 77.2238 342.953 76.6368C343.217 77.3136 343.481 77.9905 344.075 79.4381L344.049 79.4334ZM307.67 71.3692C310.496 69.0485 313.37 67.2295 315.504 64.7862C317.566 62.4398 320.969 61.5088 322.405 57.7367C316.768 61.8327 310.02 63.8415 307.67 71.3692ZM297.664 55.8441C297.664 55.8441 297.83 56.1474 297.912 56.299C298.479 56.0434 299.029 55.7298 299.612 55.532C301.279 54.9509 303.693 53.4064 304.491 54.0135C306.739 55.7268 307.995 54.0593 309.652 53.5312C307.319 52.296 305.088 51.1061 302.707 49.8349C301.112 51.7161 299.377 53.7645 297.637 55.8394L297.664 55.8441ZM163.929 85.1462C164.123 85.2902 164.312 85.4607 164.506 85.6047C168.506 82.232 172.502 78.8859 176.501 75.5133C171.447 77.7129 166.425 79.8907 163.96 85.1244L163.929 85.1462ZM170.148 92.1655C171.773 93.5219 173.351 92.9797 174.225 90.8336C175.286 88.2549 176.7 85.8484 177.986 83.3918C178.326 82.7124 178.789 82.1097 179.204 81.4711C179.059 81.3631 178.882 81.277 178.737 81.169C175.866 84.8241 173.023 88.4838 170.148 92.1655ZM52.7876 83.8825C54.4051 85.1279 56.0226 86.3734 57.2255 87.3262C57.6492 84.9359 58.087 82.4659 58.473 80.2881C57.0345 81.1288 55.0997 82.2926 53.1336 83.4781C53.0084 83.5655 52.9269 83.7154 52.7562 83.9043L52.7876 83.8825ZM197.776 73.285C197.671 73.102 197.535 72.9409 197.43 72.758C192.941 74.4004 188.113 78.4206 187.079 81.9354C190.988 78.7658 194.382 76.0254 197.776 73.285ZM105.227 64.332L105.717 64.6653C108.795 61.0745 111.874 57.4837 114.952 53.893C114.767 53.6959 114.552 53.5207 114.367 53.3236C113.367 53.8585 112.027 54.1416 111.415 54.9644C109.23 58.0014 107.293 61.1917 105.254 64.3367L105.227 64.332ZM18.3315 45.314C19.7949 51.2986 21.4955 52.2301 24.6063 49.3847L18.3315 45.314ZM156.76 62.1252C157.003 62.3052 157.219 62.4804 157.461 62.6604C161.924 56.9865 166.413 51.3174 170.876 45.6435C170.709 45.5043 170.515 45.3603 170.347 45.2211C165.81 50.8542 161.298 56.4921 156.76 62.1252ZM355.962 73.9843C355.816 73.8764 355.697 73.7731 355.547 73.6917C352.502 76.6309 349.425 79.592 346.214 82.6936C348.264 82.8925 349.707 82.9565 350.874 80.8623C352.218 78.3885 354.238 76.2811 355.957 74.0109L355.962 73.9843ZM94.8287 64.0229C96.457 62.4213 98.1431 60.8027 99.8027 59.1793C97.3441 59.4284 94.6857 58.7928 93.2651 61.3899C93.7279 62.1842 94.125 62.8846 94.824 64.0494L94.8287 64.0229ZM75.3949 98.436C76.9701 96.3594 78.5407 94.3093 80.1113 92.2593C80.0362 92.2186 79.9392 92.1466 79.8641 92.1059C77.6146 93.6521 75.3338 95.2202 72.9544 96.8803L75.3901 98.4626L75.3949 98.436ZM108.019 70.7164C108.213 70.8604 108.412 70.9778 108.606 71.1217C110.722 67.8534 112.869 64.5633 114.984 61.2949C114.786 61.1775 114.592 61.0336 114.393 60.9162L108.014 70.743L108.019 70.7164ZM295.252 91.7403C295.191 92.0856 295.156 92.4356 295.122 92.7855C298.801 93.5472 302.479 94.3088 306.153 95.0969C306.191 94.8845 306.229 94.672 306.266 94.4595C302.584 93.5604 298.903 92.6613 295.248 91.7669L295.252 91.7403ZM147.468 103.869C145.371 101.306 142.917 101.529 141.767 104.146C143.62 104.064 145.309 103.98 147.468 103.869ZM275.64 24.684C274.044 24.4011 272.922 24.2297 271.885 24.0458C272.335 25.6869 272.694 27.0655 273.083 28.5863L275.614 24.6793L275.64 24.684ZM229.526 26.8104C228.942 25.7754 228.54 25.1015 228.121 24.3698L225.928 27.7614C226.06 27.9491 226.218 28.1414 226.349 28.3291C227.366 27.852 228.357 27.3701 229.526 26.8104ZM129.673 59.3786C128.498 60.5947 127.497 61.5953 126.285 62.8597C129.52 62.7208 130.386 61.8607 129.673 59.3786ZM126.999 52.7958C124.318 54.4572 123.561 56.8707 122.292 58.9195L122.782 59.2528C124.063 57.2884 125.344 55.324 126.972 52.7911L126.999 52.7958ZM263.019 75.1518C265.856 75.7094 265.923 75.6392 265.75 72.8967C264.653 73.8253 263.847 74.5042 263.019 75.1518Z" fill="#990000"/>
</svg>
