<svg width="15" height="24" viewBox="0 0 15 24" fill="none" xmlns="http://www.w3.org/2000/svg">
<path d="M9.20641 24C9.09677 23.9257 9.01686 23.8718 8.93509 23.816C8.91465 23.8365 8.89421 23.8569 8.87377 23.8755C8.91837 23.8959 8.96483 23.9164 9.06703 23.9628C8.94624 23.9759 8.89607 23.9907 8.85147 23.9833C8.5114 23.9368 8.1193 23.9071 7.93533 23.6562C7.78481 23.45 7.77923 23.1675 7.7272 22.9148C7.71047 22.833 7.76065 22.7419 7.76065 22.6546C7.76065 21.4188 7.76065 20.1831 7.76065 18.9491C7.76065 18.4493 7.77923 17.9475 7.77737 17.4476C7.77737 16.8957 7.75321 16.3438 7.76065 15.7919C7.76436 15.5243 7.81268 15.2567 7.84241 14.9891C7.84799 14.9389 7.87958 14.8535 7.85542 14.8404C7.68074 14.7512 7.80896 14.6379 7.80339 14.5338C7.78852 14.1826 7.74392 13.8295 7.75879 13.4783C7.76994 13.194 7.86099 12.9134 7.8963 12.6291C7.94648 12.2258 7.96692 11.8207 8.01895 11.4175C8.08399 10.9008 8.47609 10.5143 8.8143 10.1092C9.20269 9.64463 9.72301 9.28969 10.2768 8.9775C10.4608 8.87529 10.7302 8.82698 10.9551 8.83627C11.6556 8.866 12.3469 8.96635 12.9788 9.23766C13.0921 9.28598 13.1683 9.3919 13.2687 9.46623C13.3486 9.5257 13.4378 9.57959 13.5251 9.63348C13.9432 9.88993 14.0937 10.2913 14.2944 10.6593C14.549 11.1276 14.668 11.633 14.7107 12.1459C14.7516 12.6346 14.798 13.1215 14.8259 13.6102C14.8538 14.0692 14.8519 14.5301 14.8779 14.9891C14.9132 15.6191 14.9839 16.249 14.9987 16.8809C15.0099 17.3491 14.9448 17.8193 14.93 18.2895C14.9114 18.8637 14.9151 19.4397 14.8984 20.014C14.891 20.2964 14.8036 20.5882 14.8519 20.8613C14.93 21.298 14.6308 21.6009 14.4134 21.9373C14.3948 21.9652 14.3502 21.98 14.3167 21.9986C14.1123 22.1064 13.88 22.19 13.7128 22.3275C13.6273 22.3963 13.566 22.4242 13.4601 22.4576C13.2742 22.5134 13.0884 22.6044 12.9453 22.7178C12.6684 22.9371 12.3228 23.0318 11.9846 23.1378C11.546 23.2771 11.0907 23.3793 10.654 23.5206C10.3716 23.6116 10.1151 23.7566 9.83451 23.8513C9.62638 23.922 9.39781 23.9517 9.20827 23.9926L9.20641 24Z" fill="#9EC800"/>
<path d="M6.73672 23.6321C6.6085 23.7231 6.48399 23.8532 6.32418 23.9108C6.18109 23.9628 5.98039 23.974 5.83359 23.9331C5.38016 23.8086 4.9416 23.6451 4.49375 23.5076C3.70212 23.2623 2.96995 22.9203 2.24149 22.571C1.90886 22.4112 1.5725 22.2569 1.25659 22.0767C1.14323 22.0116 1.06519 21.8834 1.00944 21.77C0.890506 21.5378 0.773432 21.3018 0.700958 21.0583C0.639634 20.852 0.639636 20.6328 0.621053 20.4191C0.598753 20.1775 0.582028 19.9378 0.56902 19.6962C0.552296 19.3784 0.552294 19.0606 0.529995 18.7429C0.503979 18.3768 0.455663 18.0107 0.431505 17.6446C0.418497 17.4495 0.42779 17.2525 0.444514 17.0574C0.448231 17.0128 0.526279 16.9701 0.56902 16.9292C0.520704 16.9106 0.425932 16.8902 0.42779 16.8716C0.435224 16.7136 0.40363 16.5278 0.494687 16.4089C0.621051 16.2435 0.63406 16.0985 0.602468 15.9201C0.561586 15.6915 0.561587 15.4574 0.522563 15.2288C0.511413 15.1582 0.424073 15.0969 0.38319 15.0263C0.353457 14.9761 0.323725 14.9185 0.325583 14.8646C0.344166 14.4799 0.370182 14.0971 0.398057 13.7125C0.401774 13.6474 0.370182 13.5415 0.533712 13.5861C0.533712 13.5861 0.578312 13.508 0.56902 13.5025C0.336733 13.3594 0.520703 13.142 0.431505 12.9654C0.373898 12.8483 0.505839 12.6737 0.485397 12.5306C0.444515 12.2537 0.628485 11.9452 0.466813 11.7148C0.33859 11.5308 0.490971 11.4602 0.507696 11.3394C0.531854 11.1684 0.541144 10.9956 0.556011 10.8228C0.559727 10.7726 0.544861 10.7169 0.561586 10.6704C0.637776 10.4511 0.719543 10.2319 0.806883 10.0144C0.942539 9.67622 1.19527 9.41235 1.5279 9.18563C1.78621 9.00909 2.0408 8.82884 2.37901 8.78981C2.86774 8.73221 3.36391 8.60956 3.8322 8.87715C3.9344 8.93662 4.08307 8.93662 4.20386 8.9775C4.81152 9.18191 5.30955 9.52198 5.73881 9.91966C5.90978 10.0795 5.95066 10.3378 6.04729 10.5533C6.09003 10.6481 6.11977 10.7485 6.16622 10.8414C6.46355 11.4528 6.56204 12.0753 6.49514 12.7443C6.42825 13.4096 6.50629 14.0841 6.52488 14.755C6.53789 15.2363 6.54903 15.7194 6.56762 16.2007C6.62522 17.6167 6.69584 19.0328 6.74602 20.4488C6.76832 21.062 6.74787 21.6771 6.75716 22.2904C6.76088 22.5766 6.79247 22.8627 6.79433 23.1489C6.79433 23.227 6.71256 23.3031 6.70327 23.3831C6.69212 23.4611 6.72557 23.5429 6.74044 23.6302L6.73672 23.6321Z" fill="#9EC800"/>
<path d="M1.90514 4.83906C1.86426 4.88366 1.82337 4.92825 1.77134 4.98214C1.75833 4.9617 1.73603 4.93754 1.74161 4.93011C1.86426 4.78145 1.99434 4.6365 2.11141 4.48412C2.16344 4.41722 2.21733 4.33545 2.22291 4.25926C2.23592 4.06043 2.23592 3.85973 2.21548 3.66089C2.19503 3.47506 2.15229 3.28923 2.10212 3.10526C2.02221 2.82094 1.92558 2.54034 1.84196 2.25788C1.83452 2.23558 1.85868 2.20213 1.87541 2.17797C2.03336 1.93825 2.07239 1.64463 2.32511 1.45137C2.58528 1.25253 2.83429 1.02582 3.13719 0.882731C3.76716 0.583544 4.41013 0.299226 5.15531 0.224894C5.66262 0.174719 6.16065 0.0018961 6.66239 3.77974e-05C7.49119 -0.0018205 8.32557 0.0650789 9.1488 0.148702C9.73788 0.208168 10.3214 0.327101 10.8993 0.446032C11.4624 0.563105 12.0236 0.728493 12.4045 1.10759C12.6201 1.32129 12.8691 1.51641 12.9509 1.85091C13.0419 2.22257 13.0995 2.56635 12.9379 2.91571C12.8598 3.08482 12.7297 3.24649 12.5811 3.37843C12.4101 3.52895 12.3284 3.67576 12.3562 3.88946C12.3934 4.16263 12.4027 4.43952 12.3841 4.71455C12.3674 4.98215 12.2317 5.18284 11.8731 5.26275C11.7188 5.2962 11.6129 5.46716 11.4587 5.5192C11.074 5.65113 10.6819 5.78679 10.2786 5.85555C9.45728 5.99306 8.62662 6.11013 7.7941 6.19004C7.39828 6.22906 6.98759 6.16217 6.58434 6.15102C6.26843 6.14173 5.95066 6.15473 5.63289 6.13987C4.83196 6.10456 4.03103 6.0581 3.25984 5.84811C2.87703 5.74405 2.48679 5.65113 2.11884 5.5192C2.02221 5.48389 1.96832 5.32035 1.94416 5.20886C1.92 5.0955 1.95717 4.97099 1.96832 4.85206C1.94788 4.84649 1.92558 4.84277 1.90514 4.8372V4.83906ZM2.76182 3.16287C2.76553 3.65346 2.76182 4.15148 2.77854 4.64765C2.78226 4.73499 2.78411 4.84835 2.98667 4.86693C3.16878 4.88365 3.33975 4.99515 3.51629 5.06391C4.34695 5.39097 5.25937 5.35195 6.13835 5.45044C6.37993 5.47831 6.6308 5.43185 6.87795 5.42814C7.36669 5.4207 7.85728 5.45044 8.34044 5.40398C9.02429 5.33894 9.70815 5.24974 10.3753 5.1178C10.9699 4.99887 11.5627 4.83348 11.9976 4.43581C12.0868 4.35404 12.1332 4.23697 12.1983 4.13662C12.215 4.15892 12.2336 4.18122 12.2503 4.20352C12.267 4.13662 12.3061 4.06786 12.2949 4.00468C12.2763 3.90619 12.241 3.80212 12.176 3.72036C12.1537 3.69248 12.0069 3.70363 11.9418 3.73337C11.7411 3.82814 11.5627 3.96008 11.3546 4.03999C10.9476 4.19794 10.5388 4.36705 10.1095 4.46368C9.48329 4.60305 8.83846 4.68668 8.19735 4.78145C7.72162 4.85207 7.24404 4.92268 6.7646 4.95427C6.43939 4.97471 6.10862 4.93011 5.78156 4.90967C5.72023 4.90595 5.64404 4.85578 5.60502 4.87436C5.4452 4.94312 5.36715 4.98029 5.25751 4.95799C4.75577 4.85764 4.24288 4.77773 3.75787 4.63464C3.50142 4.56031 3.28771 4.37634 3.06286 4.23511C3.02755 4.21281 3.01826 4.14591 3.01826 4.09945C3.01269 3.78911 3.01269 3.47878 3.00897 3.16101H2.76367L2.76182 3.16287ZM2.30653 1.9271C2.31025 2.25416 2.50165 2.48644 2.7804 2.67413C2.8826 2.74289 2.99782 2.80236 3.11675 2.84881C3.38435 2.95102 3.65008 3.02721 3.96228 3.04022C4.43614 3.06066 4.90444 3.17402 5.37831 3.22605C5.70908 3.26136 6.04543 3.25764 6.37807 3.27251C6.77203 3.28923 7.16785 3.33383 7.56181 3.31896C8.21407 3.29666 8.86262 3.23348 9.51488 3.19446C10.4552 3.13871 11.3435 2.94359 12.1462 2.51432C12.3172 2.42326 12.4863 2.33221 12.6759 2.23C12.6759 2.22628 12.6759 2.19655 12.6666 2.16868C12.635 2.05532 12.6015 1.94382 12.5681 1.83047C12.425 1.87135 12.2707 1.8955 12.1407 1.95683C11.8471 2.09434 11.5869 2.30062 11.2747 2.38796C10.4905 2.60538 9.69328 2.79678 8.8682 2.88412C8.71396 2.90085 8.55972 2.92872 8.40548 2.93801C8.05426 2.95845 7.70304 2.97889 7.35182 2.97889C6.81849 2.97889 6.27958 2.98633 5.74997 2.94173C5.11257 2.88598 4.47703 2.80236 3.8545 2.68343C3.46611 2.60909 3.04614 2.52733 2.80084 2.21513C2.72279 2.11664 2.68191 1.99771 2.6243 1.88993C2.51466 1.90108 2.41617 1.91223 2.30839 1.92338L2.30653 1.9271ZM6.48957 1.08715C6.50444 0.901315 6.38364 0.780526 6.22755 0.8084C6.09375 0.832558 5.92279 0.966354 5.8912 1.07414C5.8596 1.18563 6.00641 1.31386 6.19224 1.30085C6.35391 1.2897 6.5416 1.27112 6.48957 1.08529V1.08715ZM7.22917 0.984938C7.32952 1.04255 7.46703 1.16705 7.52464 1.14475C7.65286 1.09644 7.78295 0.986796 7.82755 0.877156C7.84613 0.830699 7.62499 0.644868 7.5711 0.661593C7.44102 0.698759 7.19944 0.715484 7.22917 0.984938ZM4.51419 1.58145C4.60525 1.58145 4.73533 1.61304 4.78922 1.57216C4.88399 1.50155 4.95089 1.39191 4.98806 1.2897C4.99735 1.26368 4.85426 1.1559 4.78551 1.15962C4.57366 1.17263 4.36739 1.2228 4.32836 1.36217C4.41756 1.4681 4.46216 1.52199 4.51234 1.58145H4.51419ZM3.66495 1.5573C3.45125 1.56659 3.29329 1.74127 3.30816 1.8825C3.32488 2.02373 3.4401 2.14638 3.58319 2.10735C3.69097 2.07762 3.79317 1.92152 3.81361 1.81002C3.82848 1.72826 3.71141 1.62791 3.66495 1.5573ZM9.7992 0.944055C9.76761 0.916181 9.71186 0.817692 9.63753 0.8084C9.43684 0.782384 9.24915 0.921758 9.27702 1.08529C9.29189 1.17263 9.42568 1.312 9.50745 1.312C9.71 1.312 9.78062 1.16519 9.7992 0.944055ZM4.85241 1.96612C4.88028 2.17425 5.0308 2.26902 5.18876 2.26159C5.26495 2.25787 5.38945 2.07204 5.38016 1.97727C5.37273 1.89365 5.21849 1.78401 5.10699 1.75985C5.04753 1.74684 4.93975 1.89179 4.85241 1.96612ZM7.95019 2.12965C7.9855 1.9494 8.24752 1.74498 7.99851 1.6372C7.64543 1.48482 7.65286 1.8379 7.52464 1.99585C7.57482 2.0163 7.63986 2.04789 7.70861 2.07019C7.77737 2.09249 7.8517 2.1055 7.95019 2.1278V2.12965ZM8.7474 2.07948C9.05588 2.16868 9.17482 2.1408 9.18782 1.94196C9.1934 1.84162 9.07075 1.64649 9.00385 1.64649C8.63219 1.64649 8.7474 1.88993 8.7474 2.07948ZM10.405 1.83976C10.4626 1.65021 10.6522 1.5034 10.4292 1.36217C10.3753 1.32872 10.2471 1.33988 10.1783 1.36961C10.0166 1.44208 9.9776 1.59632 10.0464 1.70596C10.0928 1.78029 10.2731 1.7933 10.405 1.8379V1.83976ZM7.01175 1.89551C6.91698 1.82861 6.85008 1.7487 6.76088 1.72454C6.69212 1.70596 6.57133 1.73569 6.5193 1.78029C6.40037 1.8825 6.4301 2.0962 6.54903 2.14638C6.74601 2.22814 6.84636 2.17611 7.01361 1.89551H7.01175ZM11.1483 0.968214C11.1019 1.0983 11.0387 1.22094 11.0257 1.34731C11.0238 1.37704 11.1966 1.44208 11.2896 1.44208C11.3397 1.44208 11.4104 1.34731 11.4401 1.28598C11.5181 1.12245 11.4289 1.02582 11.1465 0.970071L11.1483 0.968214ZM8.3776 1.3566C8.42406 1.3566 8.47052 1.35288 8.51512 1.35288C8.57644 1.25067 8.66935 1.15219 8.68608 1.04626C8.69165 1.00538 8.52998 0.908749 8.44079 0.905033C8.36274 0.901316 8.20664 1.00352 8.21221 1.04441C8.2308 1.15404 8.31628 1.25439 8.37574 1.35846L8.3776 1.3566Z" fill="#9EC800"/>
<path d="M7.03034 12.4321C7.01361 12.1905 6.95414 11.9434 6.98945 11.7055C7.10653 10.9194 6.74416 10.2542 6.27215 9.61862C6.17366 9.48482 5.9711 9.4012 5.80385 9.30828C5.2761 9.01467 4.78922 8.65602 4.19643 8.46461C3.743 8.31781 3.24497 8.23047 2.75996 8.19702C2.40316 8.17286 2.08911 8.37356 1.80665 8.5631C1.64869 8.66903 1.49445 8.77681 1.34021 8.88645C1.04846 9.09272 0.879356 9.36403 0.739983 9.65393C0.682376 9.771 0.578311 9.87507 0.496546 9.98471C0.463097 9.97541 0.427788 9.96426 0.394339 9.95497C0.394339 9.86206 0.373898 9.76542 0.394339 9.67437C0.511412 9.18006 0.810599 8.76194 1.21385 8.394C1.44056 8.18773 1.684 7.99446 1.92001 7.79563C1.97018 7.75289 2.01664 7.69342 2.07796 7.67855C2.51094 7.56334 2.49422 7.26787 2.4905 6.97983C2.4905 6.81258 2.47006 6.64348 2.45334 6.47623C2.43661 6.30341 2.6912 6.14731 2.90119 6.21049C3.23382 6.31084 3.56088 6.42234 3.89538 6.51711C4.08121 6.56915 4.27633 6.6026 4.4696 6.63047C4.4919 6.63419 4.53278 6.558 4.56437 6.51897C4.70002 6.65091 5.42662 6.79214 5.63475 6.7494C5.74253 6.7271 5.8689 6.77542 5.98411 6.76798C6.30931 6.74383 6.6308 6.69179 6.956 6.67879C7.46518 6.65649 7.97435 6.67135 8.48353 6.64534C8.81616 6.62861 9.15066 6.51897 9.474 6.54313C9.85495 6.571 10.1913 6.47809 10.5295 6.39447C10.9718 6.28668 11.3936 6.12129 11.9009 5.95776C11.9009 6.18262 11.9047 6.36845 11.9047 6.55428C11.9047 6.71595 11.7541 6.89992 12.0124 7.02071C11.9548 7.35149 12.2856 7.49458 12.5012 7.68227C12.6796 7.83837 12.9342 7.93128 13.1218 8.0818C13.5065 8.39214 13.9302 8.68761 14.2182 9.05369C14.4375 9.33244 14.4877 9.70782 14.5843 10.046C14.6494 10.2727 14.3985 10.1891 14.2777 10.2226C14.1142 9.90852 13.9674 9.58889 13.7853 9.28413C13.6459 9.05184 13.4173 8.89574 13.1014 8.82327C12.949 8.78796 12.8078 8.70062 12.6759 8.62071C12.477 8.49992 12.2559 8.44231 12.0143 8.41258C11.7486 8.37913 11.4865 8.31781 11.2208 8.29179C11.0777 8.27693 10.9235 8.29737 10.7804 8.32524C10.4923 8.38099 10.1894 8.38471 9.94601 8.58354C9.82336 8.68575 9.59107 8.68947 9.4294 8.76752C9.25658 8.84928 9.08376 8.94777 8.95182 9.06856C8.59874 9.39562 8.16576 9.69853 7.95205 10.0832C7.69561 10.5441 7.62127 11.0774 7.49305 11.5847C7.44288 11.778 7.48933 11.988 7.43544 12.1812C7.40571 12.2853 7.25705 12.3689 7.16413 12.46C7.12139 12.4525 7.08051 12.447 7.03777 12.4395L7.03034 12.4321Z" fill="#9EC800"/>
</svg>
