<svg width="29" height="24" viewBox="0 0 29 24" fill="none" xmlns="http://www.w3.org/2000/svg">
<path d="M25.9391 0.589752C26.0844 0.44665 26.2926 0.245007 26.5397 0C27.0384 1.03423 27.6195 1.93621 27.8667 2.99863C27.9946 3.54501 28.2223 4.06755 28.361 4.61177C28.4933 5.13865 28.5648 5.67853 28.6711 6.2119C28.747 6.59784 28.8619 6.97945 28.9161 7.36756C28.9725 7.77518 29.0245 8.19364 28.9876 8.5991C28.9616 8.88964 28.8467 9.13898 28.8944 9.47289C28.9833 10.1038 28.8532 10.763 28.9183 11.4004C29.0028 12.2352 28.6472 12.9594 28.4738 13.7291C28.3979 14.0651 28.2591 14.386 28.0705 14.6939C28.0748 14.6159 28.0792 14.5378 28.0835 14.4381C28.0401 14.4576 27.9903 14.4663 27.9881 14.4836C27.9382 14.7676 27.9079 15.0582 27.8428 15.3379C27.8125 15.4701 27.7019 15.5807 27.6455 15.7108C27.5024 16.0295 27.394 16.3656 27.2271 16.6713C26.9842 17.118 26.7436 17.5776 26.427 17.9722C25.9196 18.6032 25.3516 19.1864 24.8052 19.787C24.7423 19.8564 24.6599 19.941 24.5775 19.9518C24.1114 20.019 23.8663 20.4093 23.5238 20.6521C22.921 21.0771 22.3768 21.5996 21.735 21.9444C21.0824 22.2935 20.3495 22.4995 19.6383 22.7293C18.9597 22.9483 18.2615 23.1 17.5807 23.3125C17.0322 23.4838 16.4988 23.705 15.9589 23.9045C15.8982 23.9261 15.8331 23.9413 15.7443 23.9088L15.87 23.8199L15.857 23.77C15.7616 23.8025 15.664 23.8307 15.5708 23.8698C15.4689 23.911 15.3692 24.0042 15.2716 23.9999C14.7035 23.9717 14.1311 23.963 13.5717 23.8719C12.9147 23.7635 12.2621 23.6052 11.6203 23.4188C10.8745 23.202 10.1351 22.9548 9.41092 22.6772C8.84068 22.4583 8.28346 22.1916 7.74141 21.9097C7.13648 21.5953 6.52071 21.2809 5.96998 20.8841C5.57971 20.6023 5.28483 20.186 4.94876 19.8282C4.88588 19.761 4.83601 19.6634 4.75796 19.6331C4.0663 19.3664 3.66518 18.7853 3.2619 18.2238C2.85861 17.66 2.50519 17.0594 2.1431 16.4675C2.00217 16.2377 1.87858 15.9927 1.77668 15.7412C1.5295 15.1384 1.26499 14.5378 1.06985 13.9155C0.911568 13.4103 0.809662 12.8813 0.75112 12.3566C0.731607 12.1766 0.725097 11.8167 1.13922 11.8753C1.25848 11.8926 1.39724 11.8276 1.51433 11.7733C1.7138 11.6801 1.84172 11.7538 1.8981 11.9338C2.01952 12.3132 2.10841 12.7013 2.232 13.0786C2.28404 13.2391 2.39678 13.3778 2.46833 13.5339C2.79357 14.2234 3.07543 14.9368 3.45053 15.5981C3.62399 15.9038 3.74974 16.2702 4.1552 16.4545C4.39804 16.5651 4.49127 16.9684 4.72544 17.1397C5.43878 17.66 6.18897 18.1262 6.92183 18.6205C7.43136 18.9653 7.93655 19.3187 8.44174 19.6678C8.48077 19.6938 8.5263 19.7437 8.56099 19.7372C8.94259 19.6569 9.10304 19.9843 9.35889 20.1426C9.59739 20.2901 9.86625 20.431 10.1373 20.4765C10.7595 20.5828 11.3905 20.6608 12.0214 20.6912C12.3532 20.7064 12.6893 20.5849 13.0275 20.5567C13.227 20.5416 13.4308 20.6066 13.6324 20.6066C13.9381 20.6066 14.2504 20.6218 14.5474 20.5676C15.2781 20.4332 16.0044 20.277 16.7264 20.1014C17.791 19.8434 18.7906 19.4054 19.7337 18.8547C20.0742 18.6574 20.343 18.3365 20.6379 18.0655C20.9761 17.7554 21.3165 17.4454 21.6374 17.1201C21.7892 16.9662 21.8911 16.7646 22.0385 16.6041C22.2727 16.3483 22.5481 16.1271 22.7627 15.8582C23.3568 15.1167 23.8902 14.3232 24.5211 13.6163C25.0285 13.0483 25.3494 12.4043 25.5879 11.7105C25.7874 11.1294 25.898 10.518 26.0627 9.92387C26.1516 9.60948 26.3034 9.31244 26.3771 8.99805C26.492 8.5037 26.6026 8.00284 26.646 7.49982C26.7132 6.70842 26.7566 5.91053 26.7435 5.11696C26.7349 4.53805 26.6525 3.95481 26.5441 3.3824C26.3706 2.46959 26.1516 1.56544 25.9348 0.589752H25.9391ZM26.9452 15.6761C26.4855 16.474 26.0259 17.2719 25.564 18.0676C26.3099 17.441 26.839 16.6843 26.9452 15.6761ZM21.2298 21.3395C20.9263 21.5194 20.6227 21.7016 20.3213 21.8815C20.6878 21.8165 21.0802 21.7948 21.2298 21.3395Z" fill="#00ADB8"/>
<path d="M16.2733 18.8135C16.2039 18.82 16.1345 18.8244 16.0651 18.833C15.3691 18.9198 14.903 18.6488 14.7642 17.9679C14.5864 17.105 14.465 16.2312 14.3566 15.3574C14.2395 14.4164 14.1636 13.4711 14.079 12.5279C14.0313 11.9924 14.0162 11.4525 13.9685 10.9169C13.9273 10.4638 13.8449 10.015 13.8145 9.56181C13.8037 9.4057 13.8904 9.24525 13.9338 9.08698C14.0552 9.13034 14.2005 9.14552 14.2959 9.2214C15.0439 9.80031 15.7876 10.3857 16.5226 10.982C17.1384 11.4807 17.7455 11.9924 18.3482 12.5062C18.5347 12.6645 18.6821 12.8662 18.8664 13.0266C18.9944 13.1372 19.0854 13.38 19.3434 13.2239C19.3716 13.2066 19.5212 13.2998 19.5321 13.3583C19.6231 13.8267 20.0828 13.9307 20.3603 14.2083C20.7007 14.5487 21.1062 14.8999 20.9501 15.416C20.846 15.765 20.5772 16.112 20.2931 16.3505C19.6752 16.8643 19.0139 17.3283 18.3439 17.775C17.7975 18.1392 17.2186 18.4515 16.6462 18.7767C16.5421 18.8352 16.4034 18.8374 16.2819 18.8656C16.2776 18.8482 16.2754 18.8331 16.2711 18.8157L16.2733 18.8135Z" fill="#00ADB8"/>
<path d="M13.021 9.58128C13.1012 10.3922 13.188 11.1749 13.2552 11.9598C13.3007 12.4932 13.2985 13.0331 13.3571 13.5664C13.4243 14.1931 13.5479 14.811 13.6216 15.4376C13.7452 16.4762 13.936 17.5126 13.6997 18.5598C13.6194 18.9132 13.2031 19.2688 12.8627 19.3382C11.6919 19.5767 10.5666 19.3057 9.49551 18.9197C8.86022 18.6921 8.316 18.1977 7.75227 17.7944C7.50509 17.6188 7.53979 17.3283 7.63519 17.0703C8.06233 15.9103 8.64991 14.8435 9.4001 13.8548C9.99202 13.0764 10.4994 12.2352 11.061 11.4351C11.4794 10.8388 11.9347 10.2686 12.3554 9.67451C12.5613 9.38397 12.7782 9.44685 13.0232 9.58345L13.021 9.58128Z" fill="#00ADB8"/>
<path d="M14.7686 8.46252C15.7096 8.26304 16.6462 8.03972 17.5916 7.87276C18.6735 7.67979 19.762 7.49766 20.8547 7.37841C22.0039 7.25483 23.1595 7.09655 24.3173 7.30903C24.467 7.33722 24.6187 7.37841 24.7532 7.44563C24.8182 7.47815 24.8941 7.59523 24.8811 7.65594C24.6317 8.72487 24.4301 9.81114 24.0897 10.8519C23.862 11.5522 23.6907 12.3371 23.0013 12.7924C22.8538 12.89 22.6652 12.9615 22.4896 12.9724C21.219 13.0526 20.2433 12.3826 19.2806 11.6866C19.144 11.5869 18.9749 11.5349 18.8361 11.4351C18.3244 11.0687 17.8279 10.6806 17.3119 10.3207C16.6874 9.88486 16.0478 9.4729 15.4147 9.04793C15.1849 8.89399 14.9615 8.73354 14.7339 8.57526C14.7447 8.53624 14.7556 8.49938 14.7686 8.46035V8.46252Z" fill="#00ADB8"/>
<path d="M11.2734 8.3454C11.5271 8.62076 11.7288 8.84192 11.9608 9.09343C11.59 9.55526 11.1802 10.0561 10.7813 10.5613C10.0267 11.5196 9.22232 12.4433 8.53934 13.4515C7.98861 14.2624 7.27311 14.8565 6.50773 15.4159C6.34295 15.5373 6.14348 15.611 5.95484 15.6978C5.90714 15.7195 5.81608 15.7238 5.78572 15.6934C5.57758 15.4853 5.31739 15.2945 5.18947 15.043C4.93579 14.5421 4.76233 14.0001 4.54767 13.4797C4.33519 12.9637 4.09886 12.4541 3.90589 11.9316C3.86035 11.8102 3.90589 11.5912 3.99261 11.4958C4.38939 11.0643 4.68861 10.5114 5.3369 10.377C5.72501 10.2946 6.11529 10.2057 6.49255 10.0843C6.73539 10.0062 6.95005 9.83279 7.19506 9.75473C7.58533 9.63114 7.99512 9.56609 8.38757 9.45118C8.67594 9.36662 8.95347 9.2452 9.23317 9.13679C9.92482 8.8701 10.6165 8.60125 11.2734 8.3454Z" fill="#00ADB8"/>
<path d="M14.9355 7.53448C14.8531 7.24178 14.7794 7.00761 14.7209 6.76911C14.71 6.72358 14.7382 6.63251 14.7751 6.61516C15.0222 6.49808 15.2737 6.38967 15.5274 6.2856C15.6228 6.24657 15.7334 6.24007 15.8223 6.1902C16.36 5.88882 16.8912 5.57443 17.4289 5.27305C17.9515 4.98251 18.4805 4.70064 19.0096 4.42094C19.5863 4.11523 20.1761 3.83119 20.7398 3.50596C21.1517 3.26963 21.516 2.95307 21.9323 2.72974C22.3573 2.50208 22.8104 2.32429 23.2679 2.16601C23.5454 2.06844 23.8512 2.04242 24.1439 1.99472C24.2067 1.98388 24.3108 1.99906 24.3347 2.04025C24.7466 2.72974 25.3602 3.32817 25.1824 4.26483C25.1131 4.62909 25.2822 5.02804 25.0046 5.37712C24.6859 5.77824 24.2783 6.01891 23.7796 6.07745C22.8234 6.18803 21.8586 6.2444 20.9067 6.37666C20.278 6.46556 19.6665 6.6607 19.0443 6.78862C18.4523 6.91004 17.8561 7.01194 17.2576 7.10951C16.6679 7.20708 16.0738 7.28731 15.4819 7.38705C15.2933 7.41957 15.1111 7.48461 14.9333 7.53448H14.9355Z" fill="#00ADB8"/>
</svg>
