<svg width="19" height="24" viewBox="0 0 19 24" fill="none" xmlns="http://www.w3.org/2000/svg">
<path d="M0.710736 18.1028C0.645846 18.092 0.585762 17.9472 0.530484 17.6684C0.449371 17.5909 0.377267 17.5548 0.370057 17.508C0.310574 17.1114 0.258304 16.7148 0.215043 16.3183C0.188005 16.0731 0.188 15.8244 0.164567 15.5775C0.150147 15.4296 0.220454 15.3882 0.364655 15.4008C0.364655 15.253 0.364655 15.107 0.364655 14.961C0.364655 14.9412 0.37547 14.9141 0.364655 14.9015C0.141143 14.5915 0.314176 14.3067 0.411512 14.0147C0.416919 13.9966 0.395295 13.9696 0.395295 13.948C0.389888 13.7731 0.328598 13.5947 0.526876 13.4595C0.588161 13.418 0.613394 13.245 0.580949 13.1603C0.503441 12.9566 0.512461 12.8466 0.701726 12.7223C0.678293 12.679 0.653059 12.6357 0.635034 12.6033C0.678294 12.5366 0.730566 12.4843 0.746789 12.423C0.753999 12.396 0.892785 12.3077 0.726953 12.2987C0.730558 12.2806 0.732369 12.2464 0.735974 12.2464C0.784642 12.2464 0.833303 12.2518 0.863946 12.2536C0.968492 11.9382 0.943257 11.5795 1.13432 11.3055C1.14153 10.9035 1.42814 10.6169 1.5453 10.2726C1.66067 9.93015 1.94366 9.64355 2.15456 9.32992C2.27172 9.37678 2.37085 9.51017 2.45197 9.31369C2.38347 9.29747 2.324 9.28305 2.22305 9.25962C2.34022 9.1028 2.43394 8.95499 2.5511 8.82881C2.80886 8.55123 3.07924 8.28806 3.34061 8.01407C3.64884 7.69142 3.93003 7.33633 4.2653 7.04432C4.56092 6.78656 4.761 6.47472 4.95027 6.14847C5.00434 6.05654 5.21884 6.0277 5.08725 5.84925C5.08725 5.84925 5.12151 5.80599 5.14134 5.80599C5.16657 5.80599 5.20983 5.8168 5.21884 5.83483C5.25129 5.91233 5.27471 5.99345 5.30175 6.07456C5.36304 6.07096 5.43154 6.06735 5.5469 6.06014C5.36124 6.70184 4.99353 7.26242 4.81328 7.95639C4.77542 7.85005 4.75739 7.80318 4.73937 7.75091C4.65104 8.35475 4.17518 8.70264 3.87416 9.16228C3.6885 9.44708 3.41812 9.75351 3.46859 10.1663C3.50644 10.4835 3.49022 10.808 3.52808 11.127C3.56773 11.4515 3.64524 11.7723 3.70653 12.0932C3.73717 12.1004 3.76601 12.1076 3.79665 12.1148C3.85613 12.0301 3.91742 11.9454 3.9751 11.8589C4.09046 11.6822 4.27071 11.5146 4.30316 11.3235C4.38788 10.8278 4.74298 10.5052 4.99533 10.1176C5.13232 9.90672 5.3396 9.73729 5.52526 9.55884C5.65865 9.43086 5.80105 9.30648 5.95607 9.20554C6.29314 8.98383 6.63743 8.77113 6.98531 8.56925C7.30616 8.38359 7.64684 8.23218 7.95687 8.0303C8.19841 7.87348 8.4075 7.66619 8.6256 7.47692C9.03297 7.12543 9.45296 6.78656 9.8369 6.41163C10.2299 6.0277 10.5885 5.60771 10.9581 5.20034C11.214 4.91734 11.3799 4.58388 11.4321 4.20895C11.497 3.75111 11.4339 3.30229 11.3059 2.85887C11.2717 2.7381 11.2915 2.6011 11.3024 2.47132C11.3024 2.4533 11.4051 2.41905 11.4466 2.43527C11.8593 2.59209 12.1477 2.8805 12.2757 3.30048C12.3929 3.68622 12.4704 4.08278 12.5623 4.46311C12.8165 4.23239 12.9679 3.90793 13.085 3.56906C13.1986 3.2428 13.3031 2.91114 13.4005 2.57947C13.4311 2.47673 13.4095 2.36137 13.4347 2.25682C13.4654 2.13245 13.523 2.01348 13.5591 1.91614C13.5303 1.8873 13.4654 1.85306 13.4654 1.82061C13.4726 1.65298 13.5321 1.47813 13.5068 1.31771C13.4708 1.08699 13.3969 0.856263 13.3031 0.643566C13.2365 0.495759 13.0959 0.382199 13.0129 0.2398C12.9787 0.182119 13.0093 0.0865867 13.0093 0.00727582C13.0742 0.00907834 13.1625 -0.0161574 13.2004 0.0180905C13.4546 0.239801 13.6997 0.472326 13.9466 0.703049C14.0025 0.755322 14.0494 0.82562 14.1143 0.859868C14.345 0.982439 14.4928 1.21496 14.5036 1.42586C14.5144 1.61152 14.4658 1.75392 14.6388 1.89632C14.6839 1.93417 14.601 2.12704 14.5703 2.28746C14.6244 2.2388 14.6514 2.21536 14.7001 2.1721C14.7253 2.29107 14.7686 2.40824 14.7668 2.5236C14.7668 2.70745 14.765 2.90032 14.7109 3.07336C14.628 3.33653 14.5307 3.59069 14.619 3.86828C14.6568 3.98904 14.7109 4.10621 14.7614 4.22157C14.9272 4.60731 15.0967 4.99125 15.2643 5.37518C15.2715 5.39321 15.2931 5.40763 15.2949 5.42565C15.3526 5.92495 15.5905 6.39 15.5184 6.92175C15.477 7.23178 15.5671 7.55804 15.5923 7.87708C15.614 8.14386 15.6464 8.41243 15.641 8.68101C15.6266 9.47051 15.4409 10.2312 15.2102 10.9828C15.1327 11.2334 15.0624 11.4875 14.9705 11.7327C14.938 11.8192 14.9759 11.9742 14.8065 11.976C14.7974 11.976 14.7812 12.0085 14.7812 12.0265C14.7812 12.3545 14.4892 12.6069 14.5667 13.0017C14.6911 12.9097 14.8046 12.8232 14.9182 12.7403C15.0354 12.6556 15.1507 12.5636 15.2751 12.4897C15.7149 12.2284 16.0844 11.8787 16.4702 11.5506C16.5333 11.4965 16.5693 11.4118 16.6144 11.3397C16.7676 11.0928 16.892 10.8188 17.0812 10.6007C17.2741 10.3808 17.3138 10.1302 17.3552 9.86887C17.3714 9.76613 17.3624 9.66158 17.3714 9.55703C17.4093 9.13704 17.4201 8.71345 17.4976 8.30067C17.5643 7.94558 17.5229 7.61031 17.4652 7.26603C17.4526 7.19393 17.5229 7.10741 17.5553 7.02809C17.5769 7.0335 17.6004 7.04071 17.622 7.04612C17.64 7.1038 17.6761 7.16328 17.6743 7.22097C17.6634 7.47512 17.8942 7.58868 17.9843 7.77794C18.1015 8.02309 18.1393 8.3151 18.2889 8.5332C18.4223 8.72787 18.4205 8.91353 18.4367 9.11722C18.4602 9.39661 18.4926 9.676 18.5233 9.95359C18.5611 10.2943 18.599 10.6349 18.644 10.9756C18.6711 11.1793 18.7161 11.3812 18.745 11.5849C18.781 11.8318 18.8117 12.0806 18.8369 12.3293C18.8729 12.7078 18.9018 13.0864 18.936 13.4757C18.8585 13.4847 18.808 13.4901 18.7215 13.5009C18.7738 13.5514 18.8044 13.5767 18.8333 13.6055C18.8693 13.6433 18.9306 13.6812 18.9342 13.7227C18.9649 14.0435 19.0117 14.3662 18.9973 14.6852C18.9775 15.0926 18.9432 15.5072 18.8459 15.9001C18.7161 16.4318 18.5214 16.9474 18.352 17.4701C18.233 17.8324 18.1177 18.1947 17.9843 18.5516C17.9374 18.676 17.8293 18.7769 17.7716 18.8977C17.6887 19.0671 17.6292 19.2474 17.5553 19.4204C17.5192 19.5069 17.476 19.5917 17.4363 19.6782C17.4075 19.6674 17.375 19.6548 17.3282 19.6367C17.3065 19.8981 17.2146 20.0874 16.9983 20.237C16.8667 20.3289 16.8036 20.52 16.7063 20.6624C16.663 20.7255 16.6054 20.7813 16.5567 20.8408C16.4215 21.0103 16.3025 21.1959 16.1511 21.3473C15.9132 21.5853 15.6717 21.8268 15.3977 22.0197C15.1417 22.1981 14.8515 22.3369 14.5595 22.4523C14.1323 22.6199 13.6871 22.7407 13.2635 22.9263C12.5371 23.2436 11.78 23.4743 10.9887 23.5861C10.5092 23.6527 10.037 23.7735 9.55751 23.842C8.64003 23.9736 7.71713 24.0619 6.79244 23.9466C5.87676 23.833 4.98271 23.6113 4.24187 23.0381C3.61639 22.5532 2.86475 22.2306 2.36545 21.5889C2.15455 21.3185 1.94727 21.0391 1.79225 20.7363C1.49123 20.145 1.21183 19.5412 0.964887 18.9247C0.898194 18.7571 0.878367 18.575 0.763005 18.4182C0.707127 18.3425 0.725155 18.2109 0.708932 18.0956L0.710736 18.1028ZM3.02697 18.3768C3.00895 18.3768 2.99092 18.3732 2.9729 18.3714C2.95127 18.5102 2.89539 18.6544 2.91702 18.7877C2.9711 19.1284 3.045 19.4673 3.13873 19.799C3.23787 20.1486 3.37306 20.4857 3.49022 20.83C3.64704 21.295 3.85434 21.7349 4.21664 22.0737C4.79705 22.6163 5.51625 22.9119 6.26971 23.1048C6.84291 23.2508 7.43233 23.3229 8.02716 23.2256C8.056 23.2201 8.08845 23.2346 8.1209 23.2364C8.31557 23.24 8.53008 23.2995 8.70131 23.2364C9.23486 23.0435 9.77201 22.847 10.2677 22.5766C11.0121 22.1693 11.7512 21.7457 12.3929 21.1725C12.7372 20.8642 13.067 20.5596 13.2563 20.1288C13.3212 19.981 13.3915 19.8296 13.4816 19.698C13.6763 19.415 13.8944 19.1482 14.0854 18.8634C14.1485 18.7679 14.1575 18.6363 14.1954 18.5246C14.3252 18.1515 14.4568 17.7801 14.601 17.3638C14.3126 17.5927 14.0638 17.7982 13.806 17.9892C13.5158 18.2037 13.2365 18.4363 12.8778 18.5426C12.6705 18.6021 12.4812 18.7192 12.2739 18.7805C11.8936 18.8923 11.5223 19.0329 11.2014 19.2636C11.0284 19.3862 10.8842 19.5214 10.657 19.5502C10.5561 19.5628 10.4624 19.6782 10.3759 19.7575C10.3092 19.817 10.2569 19.8927 10.1974 19.9594C10.1235 20.0441 9.95226 20.0531 9.99912 20.2424C10.0063 20.2712 9.81527 20.3487 9.70711 20.41C9.68368 20.3595 9.66205 20.3145 9.61879 20.2243C9.48541 20.3433 9.37365 20.4479 9.25468 20.5434C9.22223 20.5686 9.16636 20.565 9.12129 20.5758C9.38446 20.1775 9.63501 19.808 9.93243 19.4799C10.1325 19.2618 10.347 19.0581 10.5164 18.8112C10.6661 18.5931 10.8319 18.384 10.9869 18.1695C11.0031 18.146 11.0031 18.1082 11.0085 18.0776C11.0194 18.0163 11.0175 17.9514 11.0392 17.8937C11.0734 17.8036 11.1239 17.717 11.1672 17.6305C11.3042 17.3529 11.4411 17.0753 11.5799 16.796C11.4502 16.7473 11.4484 16.6878 11.5817 16.4823C11.5745 16.5616 11.5691 16.6211 11.5637 16.6824C11.7998 16.2083 12.0486 15.7361 12.1784 15.2332C12.2991 14.7609 12.3568 14.2688 12.5191 13.8056C12.5353 13.7371 12.5497 13.6722 12.5641 13.6091C12.5785 13.546 12.5911 13.4829 12.6038 13.4198C12.6344 13.2522 12.6669 13.0864 12.6903 12.9187C12.7083 12.7835 12.7101 12.6466 12.7227 12.5096C12.7624 12.0896 12.7984 11.6696 12.8453 11.2496C12.9012 10.7485 12.7155 10.2816 12.647 9.79857C12.6362 9.72106 12.6038 9.56604 12.4289 9.56785C12.3172 9.56785 12.2036 9.50476 12.081 9.4651C11.9855 10.4709 11.7746 11.4172 11.3348 12.3131C10.9112 13.1765 10.5164 14.0507 9.74136 14.687C9.74136 14.6185 9.73415 14.5518 9.74136 14.4887C9.80445 14.0381 9.8423 13.5803 9.94144 13.1368C10.0838 12.5042 10.0063 11.8336 10.2803 11.2244C10.3092 11.1613 10.3056 11.0207 10.2785 11.0081C10.2046 10.9756 10.1091 10.9918 10.0226 10.9954C9.97028 10.9972 9.91981 11.0117 9.88917 11.0171C9.76119 11.2009 9.60798 11.365 9.51785 11.5578C9.27812 12.0697 8.97349 12.5402 8.65084 13.0017C8.47239 13.2558 8.32278 13.5442 8.10107 13.7533C7.75138 14.0796 7.34401 14.3283 7.07002 14.7501C6.82849 15.1232 6.47881 15.4242 6.19942 15.7775C6.00474 16.0245 5.84431 16.3021 5.67668 16.5688C5.52527 16.8086 5.44416 17.079 5.37566 17.3511C5.34682 17.4683 5.37927 17.6017 5.34322 17.7152C5.20623 18.1406 5.2585 18.5588 5.34322 18.9806C5.35403 19.0365 5.3288 19.0996 5.32159 19.1591C5.30176 19.1591 5.28013 19.1609 5.2603 19.1627C5.24227 19.1122 5.22965 19.0581 5.20262 19.0149C5.16837 18.959 5.1233 18.9085 5.07463 18.8634C5.04219 18.8328 4.98271 18.8274 4.96108 18.795C4.82049 18.5913 4.66006 18.3966 4.55911 18.1749C4.36624 17.7459 4.20221 17.3025 4.03999 16.8609C3.98591 16.713 3.97149 16.5508 3.93905 16.385C3.84171 16.4138 3.78223 16.376 3.78042 16.2372C3.77682 16.0515 3.75159 15.8677 3.73716 15.6838C3.72635 15.5576 3.70111 15.4314 3.71373 15.3071C3.72815 15.1557 3.77502 15.0097 3.80927 14.8601C3.78043 14.8528 3.74979 14.8474 3.72095 14.8402C3.58756 15.3323 3.46138 15.8262 3.32078 16.3147C3.27031 16.4931 3.1892 16.6644 3.12071 16.8374C3.09006 16.9149 3.05221 16.9906 3.01796 17.0663C3.04139 17.1763 3.06663 17.3025 3.09366 17.4286C2.95547 17.4539 2.95067 17.5764 3.07925 17.7964C3.03599 17.8594 2.99273 17.9225 2.94226 18H3.08826V18.721C3.06663 18.721 3.04499 18.721 3.02517 18.721V18.3804L3.02697 18.3768ZM17.7914 8.3908C17.9014 8.27003 17.8942 8.14205 17.8275 8.02489C17.8004 7.97802 17.7139 7.96721 17.6562 7.94017C17.6292 7.95819 17.604 7.97802 17.5769 7.99605C17.8888 8.03751 17.6635 8.27003 17.7932 8.3908H17.7914ZM14.3414 10.2582C14.3612 10.26 14.381 10.2636 14.4027 10.2654C14.4333 10.0203 14.4622 9.77514 14.4928 9.52999L14.4405 9.52278C14.4081 9.76793 14.3756 10.0131 14.3432 10.2582H14.3414Z" fill="#5F2585"/>
<path d="M9.18076 2.73989C9.20599 2.98864 9.25286 3.23739 9.25286 3.48614C9.25286 3.97282 9.23123 4.45769 9.20239 4.94437C9.19518 5.05433 9.1411 5.18231 9.0672 5.26342C8.82746 5.52479 8.55348 5.75551 8.32275 6.02228C8.07581 6.30888 7.73333 6.44047 7.43231 6.63694C7.38364 6.66939 7.29532 6.64055 7.24485 6.68922C7.18356 6.72527 7.11146 6.7523 7.06099 6.80097C6.94383 6.91814 6.8537 7.06234 6.72572 7.16328C6.55088 7.30027 6.38505 7.43185 6.28771 7.64455C6.25707 7.71124 6.1417 7.74189 6.06599 7.78695C6.04977 7.77253 6.03356 7.75811 6.01733 7.74369C6.10926 7.36696 6.19938 6.99023 6.29131 6.61351C6.5671 6.48012 6.6374 6.16468 6.8519 5.97902C7.10606 5.76092 7.39806 5.58427 7.63419 5.34814C7.86131 5.12102 8.03976 4.84343 8.23804 4.58567C8.2831 4.52799 8.32275 4.46851 8.36421 4.40722C8.63098 4.01067 8.80944 3.59068 8.81845 3.09499C8.82025 2.9634 8.9951 2.83362 9.09243 2.70384C9.12308 2.71466 9.15192 2.72367 9.18256 2.73448L9.18076 2.73989Z" fill="#C92421"/>
</svg>
