<svg width="25" height="24" viewBox="0 0 25 24" fill="none" xmlns="http://www.w3.org/2000/svg">
<path d="M22.5179 13.6879C22.4589 13.6249 22.3429 13.5679 22.2642 13.5777C22.1186 13.5974 21.9691 13.6505 21.8432 13.7272C21.3573 14.0223 20.8754 14.3252 20.4052 14.6419C20.2203 14.7659 20.1161 14.6518 20.0059 14.5554C19.9036 14.4649 19.8269 14.3449 19.7305 14.2465C19.4315 13.9357 19.0932 13.6741 18.9417 13.2256C18.7705 12.7181 18.4519 12.6414 18.0053 12.905C17.9699 12.9266 17.9306 12.9384 17.8952 12.96C17.5844 13.141 17.2677 13.3102 16.9647 13.5049C16.5929 13.7449 16.1385 13.7921 15.9339 13.5482C15.7018 13.2708 15.5031 12.964 15.3123 12.6551C15.1825 12.4427 15.0979 12.2007 14.9779 11.9804C14.9484 11.9273 14.8619 11.8624 14.8127 11.8702C14.5511 11.9135 14.2757 11.9411 14.0357 12.0453C13.7308 12.1752 13.4613 12.3876 13.1623 12.5351C12.8318 12.6984 12.6095 12.9423 12.4561 13.2708C12.3125 13.5797 12.1531 13.8787 11.9977 14.1797C11.9761 14.2229 11.9387 14.2623 11.9013 14.2918C11.3958 14.6852 10.902 15.0944 10.3807 15.4622C9.83389 15.8478 9.22998 16.1822 8.54935 16.1763C7.87856 16.1704 7.21171 16.1133 6.67468 15.5488C6.39732 15.2557 5.8957 15.2203 5.64981 14.7973C5.30359 14.1974 4.84329 13.6603 4.70952 12.9561C4.68592 12.8322 4.7528 12.6689 4.69575 12.5764C4.46756 12.2224 4.53248 11.8309 4.54822 11.4611C4.57576 10.8277 4.7705 10.631 5.37244 10.4716C5.4708 10.4461 5.58293 10.4362 5.66161 10.3811C5.84062 10.2552 6.00192 10.0998 5.90553 9.84607C5.81701 9.61199 5.38621 9.372 5.13639 9.39363C4.34757 9.46445 3.68661 9.84607 3.17123 10.389C2.57322 11.0185 2.04603 11.7247 1.56212 12.4466C1.26705 12.8853 1.08214 13.4066 0.903129 13.9102C0.647403 14.6282 0.836247 15.3658 0.875589 16.0976C0.889359 16.3612 0.883458 16.6268 0.910998 16.8904C0.946406 17.2405 1.00542 17.5867 1.05263 17.931C1.24738 18.2005 1.51097 18.4542 1.63687 18.765C1.92997 19.4752 2.3529 20.0928 2.82305 20.6869C3.75546 21.8672 5.0577 22.5399 6.36978 23.1616C7.78611 23.8323 9.3126 24.0527 10.8824 23.9897C12.2436 23.9346 13.5518 23.6848 14.8206 23.1753C16.3589 22.5577 17.787 21.7983 19.0361 20.6751C20.063 19.7506 20.8832 18.6726 21.6583 17.5592C22.1009 16.9218 22.3979 16.1861 22.7638 15.4937C22.8563 15.3206 22.935 15.1357 23.053 14.9803C23.1749 14.8229 23.2163 14.5042 23.0943 14.3606C22.9035 14.1364 22.7205 13.9062 22.5199 13.6918L22.5179 13.6879ZM7.80578 17.8621C7.78611 17.5159 7.59136 17.6005 7.32973 17.748C7.38875 17.4707 7.43596 17.2582 7.48711 17.0163H8.25035C8.33887 17.333 8.15986 17.6831 7.80578 17.8621ZM9.28309 17.3251C9.11982 17.2248 9.01163 17.1579 8.90737 17.093C9.05687 17.0497 9.20441 17.0084 9.43456 16.9435C9.37358 17.0969 9.33424 17.1992 9.28309 17.3251ZM9.7257 17.1559C9.70996 17.1913 9.63127 17.1992 9.5821 17.2189C9.56833 17.1677 9.52505 17.1008 9.54275 17.0674C9.6175 16.9317 9.70996 16.8077 9.79455 16.6799C9.82209 16.6936 9.85159 16.7054 9.87913 16.7192C9.82995 16.8648 9.78668 17.0143 9.72373 17.1559H9.7257ZM10.5952 16.9415C10.5558 16.7448 10.4575 16.6425 10.2293 16.7487C10.1781 16.7723 10.1054 16.7487 10.0444 16.7448C10.068 16.674 10.0719 16.5599 10.1172 16.5382C10.3178 16.4478 10.5283 16.3828 10.8234 16.2786C10.725 16.5677 10.6581 16.7605 10.5971 16.9415H10.5952Z" fill="#E2211C"/>
<path d="M24.9945 0.988107C24.8726 0.714676 24.6995 0.456981 24.4457 0.317315C23.8674 0.00060773 23.2418 -0.133155 22.6163 0.17175C22.2071 0.372397 21.8373 0.647792 21.4419 0.875979C20.2243 1.57824 19.3764 2.66016 18.5797 3.76569C17.7772 4.88105 17.3267 6.16952 17.0749 7.51897C17.0001 7.92813 17.0041 7.93994 16.5752 7.96551C16.4552 7.97338 16.3352 7.99305 16.2192 8.01862C16.1798 8.02649 16.113 8.09337 16.1149 8.09534C16.2369 8.28025 16.0303 8.27041 15.9871 8.25664C15.753 8.18189 15.5228 8.31762 15.3714 8.38844C14.4075 8.84088 13.5439 9.41528 13.1465 10.4933C13.0265 10.8159 12.938 11.0854 13.1505 11.3431C13.2036 11.3096 13.2567 11.2624 13.3177 11.2427C13.5006 11.1837 13.6934 11.1542 13.8685 11.0795C14.1498 10.9614 14.4153 10.806 14.6966 10.69C14.7832 10.6546 14.9386 10.6526 14.9956 10.7057C15.1786 10.8808 15.3517 11.0755 15.4894 11.288C15.7235 11.6539 15.9359 12.0355 16.1425 12.4191C16.3293 12.7633 16.4198 12.785 16.7621 12.5784C17.1929 12.3207 17.6355 12.0847 18.0742 11.8388C18.2158 11.7601 18.3752 11.7011 18.503 11.6027C18.8827 11.3077 18.9456 11.3332 19.1541 11.768C19.3213 12.1161 19.5338 12.4447 19.7364 12.7732C19.7777 12.8381 19.878 12.9266 19.9312 12.9148C20.1731 12.8617 20.2105 13.0505 20.2931 13.1863C20.4269 13.4026 20.7141 13.5049 20.9226 13.3987C21.1527 13.2827 21.3731 13.1489 21.6032 13.0348C22.0871 12.7928 22.5533 12.4919 23.0648 12.3443C23.4444 12.2342 23.409 12.0178 23.3363 11.8053C23.0805 11.0539 22.8327 10.2907 22.2209 9.73002C22.0399 9.56282 21.8491 9.40741 21.6681 9.24218C20.9796 8.61663 20.1338 8.38647 19.2407 8.30189C18.8492 8.26451 18.684 8.06977 18.8374 7.69208C19.0971 7.04686 19.3292 6.38197 19.6656 5.77609C20.3757 4.49549 21.3514 3.52767 22.9035 3.34472C23.2261 3.30735 23.3205 3.388 23.35 3.71455C23.3677 3.90732 23.4425 4.0942 23.4897 4.28501C23.5212 4.27518 23.5526 4.26731 23.5861 4.25747C23.5782 4.09223 23.5684 3.92896 23.5644 3.84241C23.7316 3.8129 23.8457 3.78143 23.9618 3.77553C24.0149 3.77159 24.072 3.8129 24.1447 3.84241C24.2451 3.59455 24.3552 3.33686 24.4556 3.07326C24.5657 2.78213 24.6896 2.49296 24.7683 2.19199C24.8627 1.832 24.9139 1.46218 24.9847 1.0963C24.9926 1.05892 25.0083 1.01368 24.9945 0.984171V0.988107Z" fill="#E2211C"/>
</svg>
