<svg width="25" height="25" viewBox="0 0 25 25" fill="none" xmlns="http://www.w3.org/2000/svg">
<path d="M22.5179 13.8803C22.4589 13.8174 22.3429 13.7603 22.2642 13.7702C22.1186 13.7898 21.9691 13.8429 21.8432 13.9197C21.3573 14.2147 20.8754 14.5177 20.4052 14.8344C20.2203 14.9583 20.1161 14.8442 20.0059 14.7478C19.9036 14.6573 19.8269 14.5373 19.7305 14.439C19.4315 14.1282 19.0932 13.8665 18.9417 13.418C18.7705 12.9105 18.4519 12.8338 18.0053 13.0974C17.9699 13.119 17.9306 13.1308 17.8952 13.1525C17.5844 13.3335 17.2677 13.5026 16.9647 13.6974C16.5929 13.9374 16.1385 13.9846 15.9339 13.7407C15.7018 13.4633 15.5031 13.1564 15.3123 12.8476C15.1825 12.6351 15.0979 12.3932 14.9779 12.1729C14.9484 12.1197 14.8619 12.0548 14.8127 12.0627C14.5511 12.106 14.2757 12.1335 14.0357 12.2378C13.7308 12.3676 13.4613 12.58 13.1623 12.7276C12.8318 12.8909 12.6095 13.1348 12.4561 13.4633C12.3125 13.7721 12.1531 14.0711 11.9977 14.3721C11.9761 14.4154 11.9387 14.4547 11.9013 14.4842C11.3958 14.8777 10.902 15.2868 10.3807 15.6547C9.83389 16.0402 9.22998 16.3746 8.54935 16.3687C7.87856 16.3628 7.21171 16.3058 6.67468 15.7412C6.39732 15.4481 5.8957 15.4127 5.64981 14.9898C5.30359 14.3898 4.84329 13.8528 4.70952 13.1485C4.68592 13.0246 4.7528 12.8613 4.69575 12.7689C4.46756 12.4148 4.53248 12.0234 4.54822 11.6535C4.57576 11.0201 4.7705 10.8234 5.37244 10.6641C5.4708 10.6385 5.58293 10.6287 5.66161 10.5736C5.84062 10.4477 6.00192 10.2923 5.90553 10.0385C5.81701 9.80443 5.38621 9.56444 5.13639 9.58608C4.34757 9.6569 3.68661 10.0385 3.17123 10.5814C2.57322 11.2109 2.04603 11.9171 1.56212 12.6391C1.26705 13.0777 1.08214 13.599 0.903129 14.1026C0.647403 14.8206 0.836247 15.5583 0.875589 16.2901C0.889359 16.5536 0.883458 16.8192 0.910998 17.0828C0.946406 17.433 1.00542 17.7792 1.05263 18.1234C1.24738 18.3929 1.51097 18.6467 1.63687 18.9575C1.92997 19.6676 2.3529 20.2853 2.82305 20.8794C3.75546 22.0596 5.0577 22.7324 6.36978 23.354C7.78611 24.0248 9.3126 24.2451 10.8824 24.1822C12.2436 24.1271 13.5518 23.8773 14.8206 23.3678C16.3589 22.7501 17.787 21.9908 19.0361 20.8676C20.063 19.943 20.8832 18.865 21.6583 17.7516C22.1009 17.1143 22.3979 16.3786 22.7638 15.6861C22.8563 15.513 22.935 15.3281 23.053 15.1727C23.1749 15.0153 23.2163 14.6967 23.0943 14.5531C22.9035 14.3288 22.7205 14.0987 22.5199 13.8843L22.5179 13.8803ZM7.80578 18.0546C7.78611 17.7084 7.59136 17.7929 7.32973 17.9405C7.38875 17.6631 7.43596 17.4507 7.48711 17.2087H8.25035C8.33887 17.5254 8.15986 17.8756 7.80578 18.0546ZM9.28309 17.5175C9.11982 17.4172 9.01163 17.3503 8.90737 17.2854C9.05687 17.2421 9.20441 17.2008 9.43456 17.1359C9.37358 17.2894 9.33424 17.3916 9.28309 17.5175ZM9.7257 17.3484C9.70996 17.3838 9.63127 17.3916 9.5821 17.4113C9.56833 17.3602 9.52505 17.2933 9.54275 17.2598C9.6175 17.1241 9.70996 17.0002 9.79455 16.8723C9.82209 16.8861 9.85159 16.8979 9.87913 16.9117C9.82995 17.0572 9.78668 17.2067 9.72373 17.3484H9.7257ZM10.5952 17.1339C10.5558 16.9372 10.4575 16.8349 10.2293 16.9412C10.1781 16.9648 10.1054 16.9412 10.0444 16.9372C10.068 16.8664 10.0719 16.7523 10.1172 16.7307C10.3178 16.6402 10.5283 16.5753 10.8234 16.471C10.725 16.7602 10.6581 16.953 10.5971 17.1339H10.5952Z" fill="#6B1C55"/>
<path d="M24.9945 1.18049C24.8726 0.907059 24.6994 0.649364 24.4457 0.509698C23.8673 0.192991 23.2418 0.0592278 22.6163 0.364133C22.2071 0.56478 21.8373 0.840175 21.4419 1.06836C20.2242 1.77063 19.3764 2.85255 18.5797 3.95807C17.7771 5.07343 17.3266 6.3619 17.0749 7.71135C17.0001 8.12052 17.004 8.13232 16.5752 8.15789C16.4552 8.16576 16.3352 8.18543 16.2192 8.21101C16.1798 8.21887 16.1129 8.28576 16.1149 8.28772C16.2369 8.47263 16.0303 8.4628 15.987 8.44903C15.7529 8.37427 15.5228 8.51001 15.3713 8.58082C14.4074 9.03326 13.5439 9.60766 13.1465 10.6856C13.0265 11.0083 12.938 11.2778 13.1504 11.5354C13.2036 11.502 13.2567 11.4548 13.3176 11.4351C13.5006 11.3761 13.6934 11.3466 13.8684 11.2719C14.1497 11.1538 14.4153 10.9984 14.6966 10.8824C14.7832 10.847 14.9386 10.845 14.9956 10.8981C15.1785 11.0732 15.3517 11.2679 15.4894 11.4804C15.7234 11.8463 15.9359 12.2279 16.1424 12.6115C16.3293 12.9557 16.4198 12.9774 16.7621 12.7708C17.1929 12.5131 17.6355 12.2771 18.0742 12.0312C18.2158 11.9525 18.3751 11.8935 18.503 11.7951C18.8826 11.5 18.9456 11.5256 19.1541 11.9603C19.3213 12.3085 19.5338 12.637 19.7364 12.9656C19.7777 13.0305 19.878 13.119 19.9311 13.1072C20.1731 13.0541 20.2105 13.2429 20.2931 13.3786C20.4268 13.595 20.714 13.6973 20.9226 13.5911C21.1527 13.475 21.373 13.3413 21.6032 13.2272C22.0871 12.9852 22.5533 12.6843 23.0648 12.5367C23.4444 12.4266 23.409 12.2102 23.3362 11.9977C23.0805 11.2463 22.8326 10.483 22.2209 9.92241C22.0399 9.7552 21.8491 9.5998 21.6681 9.43456C20.9796 8.80901 20.1337 8.57886 19.2407 8.49427C18.8492 8.45689 18.684 8.26215 18.8374 7.88446C19.0971 7.23924 19.3292 6.57435 19.6656 5.96848C20.3757 4.68788 21.3514 3.72005 22.9035 3.53711C23.2261 3.49973 23.3205 3.58038 23.35 3.90693C23.3677 4.09971 23.4424 4.28658 23.4897 4.47739C23.5211 4.46756 23.5526 4.45969 23.586 4.44985C23.5782 4.28462 23.5683 4.12134 23.5644 4.03479C23.7316 4.00528 23.8457 3.97381 23.9618 3.96791C24.0149 3.96397 24.0719 4.00528 24.1447 4.03479C24.245 3.78693 24.3552 3.52924 24.4555 3.26565C24.5657 2.97451 24.6896 2.68534 24.7683 2.38437C24.8627 2.02439 24.9139 1.65457 24.9847 1.28868C24.9925 1.25131 25.0083 1.20606 24.9945 1.17655V1.18049Z" fill="#6B1C55"/>
</svg>
