<svg width="26" height="24" viewBox="0 0 26 24" fill="none" xmlns="http://www.w3.org/2000/svg">
<path d="M24.9658 23.7917C24.7622 23.8936 24.6392 24.0081 24.5246 23.9996C24.0537 23.9635 23.5849 23.8935 23.1183 23.8278C22.3186 23.7154 21.5125 23.6326 20.7234 23.4672C20.3076 23.3802 19.8707 23.2275 19.7201 22.712C19.6331 22.4087 19.5334 22.0863 19.3467 21.8423C19.1049 21.5263 18.7698 21.2823 18.477 21.0044C18.1101 20.6566 17.637 20.5272 17.1746 20.5866C16.5743 20.6608 16.0122 20.9175 15.5413 21.3184C15.2358 21.5793 14.9961 21.9293 14.661 22.1372C14.3513 22.3281 14.0288 22.5445 13.5706 22.4108C13.0806 22.2666 12.5419 22.2899 12.0264 22.222C10.9319 22.0757 9.83942 21.9251 8.74911 21.7575C7.59941 21.5814 6.45184 21.3926 5.30638 21.1954C4.51516 21.0596 3.73031 20.8963 2.94121 20.7541C2.71848 20.7138 2.49152 20.7075 2.26667 20.6799C2.20515 20.6714 2.1394 20.6544 2.08424 20.6269C1.80636 20.489 1.52211 20.3554 1.25484 20.1984C1.16787 20.1475 1.08939 20.0329 1.06606 19.9354C0.957879 19.4941 0.845448 19.0529 0.781812 18.6053C0.677872 17.8608 0.593023 17.112 0.529386 16.3632C0.436052 15.2793 0.355445 14.1953 0.289687 13.1093C0.24302 12.3499 0.23029 11.5884 0.206957 10.8268C0.185744 10.1608 0.158173 9.49471 0.158173 8.82864C0.158173 8.20288 0.506059 7.70016 1.17212 7.68743C1.52424 7.68107 1.88061 7.85076 2.23273 7.95258C2.56788 8.05016 2.89879 8.16046 3.23182 8.26652C3.30818 8.28986 3.38879 8.30682 3.46091 8.33864C3.69001 8.43834 3.91698 8.5444 4.22031 8.68228C4.50456 9.29319 5.05607 9.78531 5.84304 9.86168C6.1485 9.89137 6.55365 9.69198 6.78486 9.46501C7.05426 9.19986 7.3385 9.21683 7.6079 9.25501C8.6282 9.39925 9.65488 9.54138 10.6519 9.79168C11.0316 9.88713 11.4028 9.89986 11.7761 9.95926C12.5228 10.078 13.2716 10.1947 14.0182 10.322C14.3958 10.3856 14.7691 10.5002 15.1488 10.5383C15.5964 10.5829 16.0355 10.6656 16.4979 10.6699C17.9849 10.6826 19.4507 10.9414 20.9016 11.2723C21.8116 11.4802 22.7322 11.5587 23.6655 11.5841C24.198 11.5968 24.7474 11.5777 25.2437 11.845C25.2522 11.8493 25.2649 11.8514 25.2755 11.8493C25.4601 11.8005 25.6955 11.739 25.7868 11.9278C25.9077 12.1738 25.9968 12.4644 25.9989 12.7381C26.0052 13.7456 25.984 14.7553 25.9437 15.7629C25.9077 16.6559 25.8228 17.5447 25.7719 18.4357C25.7358 19.0402 25.7252 19.6469 25.6913 20.2514C25.6658 20.6863 25.6171 21.119 25.5874 21.5538C25.5768 21.7235 25.5916 21.8932 25.5874 22.0629C25.5831 22.2793 25.5874 22.4978 25.5598 22.712C25.5301 22.9432 25.4601 23.1681 25.424 23.3972C25.3604 23.7981 25.2352 23.8808 24.9701 23.7917H24.9658ZM13.6619 11.6647C12.9937 11.5884 12.527 11.9193 12.177 12.4347C12.0391 12.6362 11.9797 12.8887 11.8779 13.1156C11.6212 13.6947 11.8058 14.2271 12.1091 14.7087C12.2788 14.9781 12.5355 15.2178 12.8028 15.3981C13.0616 15.572 13.4052 15.6187 13.6725 15.7841C13.9758 15.9729 14.2813 15.5869 14.5613 15.8393C14.5697 15.8456 14.6397 15.8117 14.6376 15.799C14.6185 15.5635 14.8179 15.6399 14.9282 15.589C15.1594 15.4872 15.4204 15.4172 15.6155 15.2665C16.1755 14.8317 16.5107 14.2675 16.3792 13.5293C16.2837 12.999 16.0398 12.4899 15.6091 12.195C15.0449 11.8068 14.3746 11.6074 13.6619 11.6626V11.6647ZM7.57184 19.7847C7.78396 19.7041 8.00032 19.6363 8.20608 19.5429C8.53699 19.3944 8.88912 19.2905 8.92943 18.809C8.97185 18.2723 9.19246 17.7463 8.84882 17.2202C8.6473 16.9126 8.55397 16.5393 8.18488 16.3462C7.90912 16.202 7.66305 16.0005 7.40002 15.8308C7.16032 15.6759 6.90366 15.5465 6.67244 15.3769C6.45608 15.2178 6.07426 15.1711 5.84941 15.2941C5.66486 15.3938 5.57365 15.5762 5.46759 15.7332C5.20668 16.115 5.34243 16.5711 5.44425 16.9359C5.66061 17.7081 5.86638 18.4993 6.45608 19.1272C6.77426 19.4666 7.05426 19.7657 7.57184 19.7869V19.7847ZM22.8489 19.1208C22.8489 19.1208 22.8552 19.0996 22.8764 19.0826C23.3771 18.6435 23.8013 18.1663 23.674 17.4259C23.6231 17.1269 23.6231 16.7981 23.4873 16.5414C23.358 16.2932 23.1034 16.0938 22.8701 15.9199C22.4331 15.5953 21.9177 15.6208 21.521 15.9962C21.084 16.4099 20.6958 16.8341 20.7807 17.5426C20.8358 18.005 21.0289 18.3444 21.3301 18.6478C21.6546 18.9766 22.1064 18.9808 22.5243 19.0657C22.6219 19.0847 22.7216 19.0996 22.851 19.1208H22.8489ZM8.63033 20.0711C9.05457 20.1263 9.30275 19.999 9.4873 19.7169C9.22214 19.8272 8.9676 19.9332 8.63033 20.0711Z" fill="#FFC31A"/>
<path d="M1.70455 6.64373C1.73212 6.53555 1.72999 6.41676 1.78727 6.34252C2.08636 5.9501 2.37909 5.54919 2.71849 5.19282C2.99637 4.90221 3.33788 4.67312 3.64546 4.41221C3.72818 4.34221 3.78121 4.23827 3.86606 4.17676C4.18636 3.94979 4.50031 3.71009 4.84183 3.51918C5.28729 3.26887 5.75607 3.061 6.21425 2.83402C6.27152 2.80645 6.33517 2.7619 6.39032 2.76827C6.60668 2.79796 6.73819 2.68342 6.90365 2.56251C7.12638 2.39917 7.41487 2.32069 7.6779 2.21675C8.19123 2.01735 8.70456 1.82008 9.22214 1.63129C9.59972 1.49341 9.98155 1.37462 10.3612 1.23887C10.8619 1.06068 11.3497 0.842198 11.8609 0.702198C12.1961 0.608864 12.5631 0.632197 12.9109 0.579167C13.3246 0.517651 13.7361 0.424318 14.1497 0.354318C14.7946 0.244014 15.4394 0.110377 16.0885 0.0488615C16.4492 0.014922 16.814 0.0424976 17.181 0.00219442C17.3676 -0.0190178 17.6434 0.116741 17.7664 0.27159C18.3901 1.06281 19.0158 1.85826 19.561 2.70251C19.9449 3.29645 20.524 3.69312 20.9292 4.25524C21.1922 4.61797 21.1816 4.82161 20.7425 5.04646C20.6937 4.95736 20.6322 4.84706 20.5707 4.73676C20.5452 4.75373 20.5198 4.77282 20.4943 4.78979C20.5092 4.86615 20.5261 4.9404 20.541 5.01464C20.0213 5.16312 19.9789 5.19919 19.9767 5.93313C19.9767 6.46555 20.1231 6.98101 20.5855 7.29495C20.8019 7.44131 21.1073 7.52192 21.3725 7.51768C21.7883 7.51344 22.2167 7.45829 22.6177 7.34586C23.1034 7.20798 23.3473 7.4795 23.6104 7.78495C24.0813 8.33223 24.5458 8.88799 25.0422 9.41193C25.3519 9.7386 25.4495 10.1247 25.4537 10.5404C25.4537 10.6231 25.2819 10.778 25.1843 10.7801C24.6752 10.7992 24.1619 10.8204 23.6592 10.7631C23.3071 10.725 22.9719 10.5362 22.6198 10.4641C21.8625 10.305 21.0989 10.1777 20.3373 10.0334C19.7031 9.91466 19.071 9.79163 18.4367 9.67072C18.4049 9.66435 18.3752 9.66223 18.3434 9.65799C16.8946 9.51163 15.4416 9.40344 14.031 9.0089C13.8379 8.95587 13.6322 8.95798 13.4328 8.9198C13.3225 8.89859 13.2185 8.84769 13.0764 8.7989C13.0679 8.77769 13.0446 8.71193 13.0191 8.63981C12.6182 8.91132 12.2216 8.68223 11.8419 8.64405C11.1949 8.58041 10.5585 8.43405 9.91578 8.32586C9.18396 8.20283 8.45003 8.09041 7.72033 7.95677C7.62275 7.93768 7.51244 7.8295 7.46365 7.73404C6.90153 6.62889 5.67123 6.2407 4.69759 7.11253C4.37516 7.40313 4.08455 7.40738 3.73667 7.29919C3.07273 7.09344 2.41515 6.87283 1.7003 6.64161L1.70455 6.64373ZM15.781 4.40797C15.7131 4.08979 15.7258 3.72494 15.3037 3.57433C15.0364 3.47888 14.7543 3.36645 14.5507 3.1819C14.4234 3.06736 14.3216 2.98675 14.1688 3.00372C13.7255 3.05675 13.2631 3.11615 13.0679 3.59554C12.93 3.93069 12.824 4.26161 13.0891 4.63706C13.4667 5.17373 13.9482 5.40494 14.5867 5.45373C15.1976 5.5004 15.7767 5.03585 15.781 4.40797Z" fill="#FFC31A"/>
</svg>
