<svg width="36" height="36" viewBox="0 0 36 36" fill="none" xmlns="http://www.w3.org/2000/svg">
<rect width="36" height="36" rx="18" fill="white" fill-opacity="0.3"/>
<g clip-path="url(#clip0_1_1255)">
<path d="M18.0011 18.3084C20.2868 18.3084 22.1553 16.4399 22.1553 14.1542C22.1553 11.8685 20.2868 10 18.0011 10C15.7154 10 13.8469 11.8685 13.8469 14.1542C13.8469 16.4399 15.7154 18.3084 18.0011 18.3084Z" fill="white"/>
<path d="M25.1304 21.628C25.0215 21.3559 24.8764 21.1019 24.7132 20.8661C23.8787 19.6325 22.5907 18.8162 21.1395 18.6167C20.9581 18.5985 20.7585 18.6348 20.6134 18.7436C19.8515 19.306 18.9445 19.5962 18.0011 19.5962C17.0578 19.5962 16.1508 19.306 15.3889 18.7436C15.2437 18.6348 15.0442 18.5804 14.8628 18.6167C13.4116 18.8162 12.1054 19.6325 11.2891 20.8661C11.1259 21.1019 10.9807 21.3741 10.8719 21.628C10.8175 21.7369 10.8356 21.8639 10.89 21.9727C11.0352 22.2267 11.2166 22.4807 11.3798 22.6983C11.6338 23.043 11.9059 23.3514 12.2143 23.6416C12.4683 23.8956 12.7585 24.1314 13.0488 24.3673C14.4819 25.4376 16.2052 25.9999 17.983 25.9999C19.7608 25.9999 21.4842 25.4375 22.9173 24.3673C23.2075 24.1496 23.4977 23.8956 23.7517 23.6416C24.042 23.3514 24.3322 23.043 24.5862 22.6983C24.7676 22.4625 24.9309 22.2267 25.076 21.9727C25.1667 21.8639 25.1848 21.7368 25.1304 21.628Z" fill="white"/>
</g>
<defs>
<clipPath id="clip0_1_1255">
<rect width="16" height="16" fill="white" transform="translate(10 10)"/>
</clipPath>
</defs>
</svg>
