<svg width="176" height="32" viewBox="0 0 176 32" fill="none" xmlns="http://www.w3.org/2000/svg">
<path d="M24.7304 20.1624C24.1043 21.9247 24.8278 23.854 25.3171 25.6627C25.5466 26.5206 25.7275 27.418 25.5837 28.2968C25.4423 29.1734 24.9205 30.0337 24.1159 30.3282C23.2927 30.6296 22.3907 30.3004 21.5976 29.9247C20.5843 29.447 19.6057 28.8928 18.6736 28.2644C18.1147 27.8888 17.5605 27.4806 16.9205 27.2952C15.7078 26.945 14.4208 27.4505 13.331 28.1044C12.2411 28.7584 11.2162 29.5769 10.0058 29.934C9.07591 30.2099 7.97214 30.1241 7.20691 29.5629C6.97735 29.396 6.78025 29.1873 6.62488 28.9323C5.86429 27.6754 6.48346 26.0569 6.93098 24.647C7.55009 22.7015 7.74954 20.3664 6.52054 18.7664C6.11939 18.247 5.59997 17.8481 5.10141 17.4331C4.87646 17.2476 4.65618 17.0574 4.44287 16.8557C3.84691 16.2968 3.31124 15.6685 2.97038 14.9195C2.50893 13.8992 2.46953 12.603 3.12575 11.7056C4.67939 9.58614 8.38954 11.1908 10.2168 9.32413L10.88 7.59655C10.9008 7.56411 10.9217 7.53167 10.9379 7.49686C11.4898 6.56236 11.6985 5.45162 12.0464 4.41279C12.4034 3.33455 12.9947 2.23542 14.0058 1.79945C15.0052 1.36586 16.1831 1.71833 17.0481 2.41862C17.1246 2.47891 17.1965 2.54153 17.2684 2.60878C18.1449 3.4296 18.6944 4.55658 19.2232 5.65571C19.5965 6.43713 19.9721 7.21629 20.3478 7.99544C20.633 8.59367 20.9275 9.20123 21.3843 9.66964C21.7089 10.0035 22.0869 10.2424 22.4996 10.4256C23.302 10.7873 24.2272 10.9311 25.0944 11.1235C26.4069 11.4134 27.8562 12.0325 28.2806 13.3589C28.691 14.6343 27.9605 16.0024 27.0956 17.0041C26.233 18.0035 25.1779 18.8986 24.7304 20.1624Z" fill="white"/>
<g clip-path="url(#clip0_1_2436)">
<path d="M45.7854 8.46831C44.291 9.5927 42.2336 9.47926 40.3614 9.55318C39.474 9.59067 38.5636 9.6864 37.768 10.0864C36.9739 10.4835 36.3089 11.2386 36.2685 12.0945C36.227 12.9701 36.8109 13.7325 37.4066 14.3769C38.1654 15.201 38.9868 15.9691 39.8652 16.6707C40.3908 17.0916 40.946 17.4984 41.3143 18.0537C42.0111 19.1063 41.9136 20.4855 41.6154 21.721C41.3173 22.9566 40.8427 24.1793 40.8639 25.4412C40.8787 26.411 41.2906 27.4386 42.0549 28.001C42.2828 28.1702 42.5409 28.2958 42.8307 28.3678C44.2575 28.7178 45.6169 27.643 46.8284 26.7943C48.4998 25.6218 50.6684 24.7333 52.5626 25.4276C53.1782 25.6551 53.7142 26.0315 54.2593 26.3831C54.5036 26.5423 54.7509 26.6956 55.0072 26.8389C55.7187 27.2404 56.4785 27.5637 57.2952 27.665C58.4067 27.8002 59.6555 27.4502 60.3156 26.5557C61.8735 24.4394 59.2328 21.3788 60.4677 19.077L61.9179 17.9276C61.9426 17.898 61.9673 17.8684 61.9957 17.8425C62.7224 17.0364 63.7199 16.5051 64.6072 15.8626C65.5294 15.1994 66.4014 14.3065 66.5151 13.2114C66.63 12.128 65.9414 11.1094 65.0145 10.4934C64.9341 10.4384 64.8529 10.3885 64.7672 10.34C63.7218 9.74906 62.4821 9.56163 61.2752 9.38578C60.4179 9.26319 59.562 9.13772 58.7062 9.01224C58.0501 8.91895 57.3822 8.8196 56.7987 8.52377C56.383 8.31382 56.042 8.02456 55.7438 7.68549C55.1587 7.02804 54.7448 6.18813 54.3019 5.41811C53.6328 4.25236 52.6086 3.05454 51.2161 3.0462C49.8763 3.03593 48.7892 4.14204 48.092 5.26694C47.3962 6.38891 46.8575 7.66338 45.7854 8.46831Z" fill="white"/>
</g>
<g clip-path="url(#clip1_1_2436)">
<path d="M85.9048 26.0013C84.0405 25.8526 82.3642 27.0508 80.7438 27.9915C79.9745 28.4353 79.1545 28.8423 78.2684 28.9309C77.3851 29.0211 76.4191 28.7398 75.9264 28.0388C75.4222 27.3217 75.5067 26.3652 75.6644 25.5019C75.8635 24.3995 76.1455 23.3108 76.5112 22.2478C76.7294 21.6108 76.9803 20.9698 76.9938 20.3036C77.0181 19.0415 76.1967 17.9293 75.283 17.0458C74.3693 16.1623 73.3134 15.3842 72.6552 14.3074C72.148 13.4807 71.9452 12.3923 72.2892 11.5079C72.391 11.243 72.5416 10.9986 72.7477 10.7825C73.7649 9.7225 75.4885 9.90167 76.9662 9.96903C79.0056 10.0635 81.3128 9.65181 82.5401 8.05058C82.938 7.52866 83.1889 6.9237 83.4607 6.33472C83.5817 6.06942 83.7084 5.80743 83.848 5.54917C84.2336 4.82887 84.7019 4.14882 85.3372 3.62572C86.2033 2.91593 87.4451 2.54238 88.4818 2.94398C90.9311 3.89613 90.3414 7.89516 92.6174 9.177L94.4577 9.37048C94.4945 9.38224 94.5312 9.39399 94.569 9.40068C95.6145 9.69186 96.7414 9.606 97.8349 9.6731C98.9688 9.73895 100.184 10.0256 100.866 10.8894C101.544 11.7425 101.508 12.9715 101.056 13.9883C101.017 14.0778 100.975 14.1634 100.929 14.2503C100.363 15.3094 99.4167 16.1319 98.4918 16.9271C97.8336 17.4899 97.1783 18.0544 96.5229 18.6189C96.0189 19.0493 95.5082 19.491 95.174 20.0534C94.9355 20.4534 94.8026 20.8804 94.7325 21.3264C94.5907 22.1951 94.6914 23.126 94.7299 24.0135C94.7897 25.3562 94.5667 26.9164 93.3953 27.6696C92.2697 28.3961 90.7591 28.0446 89.5677 27.4684C88.379 26.8939 87.2413 26.1064 85.9048 26.0013Z" fill="white"/>
</g>
<g clip-path="url(#clip2_1_2436)">
<path d="M118.81 8.35604C120.39 7.35539 121.011 5.39071 121.741 3.66539C122.09 2.84855 122.501 2.03074 123.157 1.4278C123.809 0.825243 124.75 0.470052 125.565 0.734751C126.399 1.00537 126.906 1.82102 127.298 2.60595C127.801 3.60708 128.229 4.64695 128.575 5.71661C128.783 6.35699 128.967 7.02015 129.357 7.56096C130.095 8.58474 131.42 8.98091 132.681 9.13868C133.942 9.29644 135.254 9.28461 136.427 9.75035C137.329 10.1069 138.144 10.8554 138.4 11.7691C138.478 12.0421 138.504 12.328 138.469 12.6246C138.292 14.0829 136.807 14.9747 135.585 15.8082C133.897 16.9573 132.299 18.672 132.279 20.6894C132.275 21.3457 132.437 21.98 132.574 22.6142C132.636 22.899 132.692 23.1846 132.736 23.4749C132.86 24.2825 132.894 25.1075 132.7 25.9072C132.434 26.9949 131.665 28.0393 130.595 28.3407C128.065 29.0502 126.135 25.4983 123.545 25.84L121.957 26.7905C121.921 26.8031 121.884 26.8158 121.85 26.8331C120.839 27.2281 119.99 27.9735 119.075 28.5764C118.129 29.2047 116.985 29.7049 115.921 29.4243C114.867 29.1489 114.157 28.1448 113.908 27.06C113.885 26.9653 113.867 26.8717 113.852 26.7744C113.669 25.5877 113.932 24.3617 114.194 23.1705C114.382 22.3252 114.567 21.4802 114.752 20.6353C114.897 19.9885 115.04 19.3287 114.969 18.6782C114.92 18.2151 114.77 17.794 114.558 17.3952C114.15 16.6154 113.51 15.9315 112.947 15.245C112.092 14.2072 111.334 12.8257 111.818 11.5201C112.282 10.2632 113.701 9.63712 115 9.38237C116.295 9.128 117.678 9.07451 118.81 8.35604Z" fill="white"/>
</g>
<g clip-path="url(#clip3_1_2436)">
<path d="M151.714 19.6277C150.964 17.9146 149.115 17.0037 147.52 16.0204C146.766 15.5522 146.019 15.022 145.523 14.283C145.026 13.5472 144.817 12.563 145.202 11.7975C145.595 11.0141 146.478 10.6365 147.313 10.3674C148.379 10.0218 149.472 9.75578 150.581 9.57559C151.246 9.46677 151.929 9.38485 152.523 9.08185C153.646 8.50676 154.238 7.25722 154.585 6.03441C154.932 4.8116 155.118 3.51332 155.756 2.42431C156.245 1.58657 157.108 0.893393 158.05 0.778527C158.332 0.743003 158.618 0.760197 158.906 0.839714C160.321 1.23507 160.978 2.8387 161.617 4.17271C162.498 6.0146 163.951 7.85314 165.942 8.1779C166.59 8.28184 167.242 8.21696 167.889 8.17813C168.18 8.15934 168.471 8.14713 168.765 8.1481C169.582 8.14743 170.402 8.23872 171.164 8.55126C172.199 8.97898 173.115 9.89681 173.251 11.0002C173.569 13.6087 169.767 14.9792 169.713 17.5908L170.412 19.304C170.419 19.342 170.426 19.3799 170.438 19.4164C170.676 20.4753 171.284 21.4278 171.742 22.4232C172.22 23.4535 172.541 24.6595 172.103 25.6695C171.671 26.6697 170.571 27.2193 169.461 27.3011C169.364 27.3095 169.269 27.3131 169.171 27.3133C167.97 27.3151 166.798 26.8699 165.66 26.4308C164.853 26.1168 164.045 25.8061 163.238 25.4954C162.621 25.2546 161.99 25.0134 161.336 24.9848C160.871 24.9636 160.432 25.0483 160.006 25.1974C159.174 25.483 158.401 26.0117 157.637 26.4652C156.482 27.1525 155.002 27.6935 153.784 27.0172C152.612 26.3686 152.208 24.8714 152.152 23.5491C152.097 22.23 152.253 20.8553 151.714 19.6277Z" fill="white"/>
</g>
<defs>
<clipPath id="clip0_1_2436">
<rect width="32" height="32" fill="white" transform="matrix(-1 0 0 1 68 0)"/>
</clipPath>
<clipPath id="clip1_1_2436">
<rect width="32" height="32" fill="white" transform="translate(72)"/>
</clipPath>
<clipPath id="clip2_1_2436">
<rect width="32" height="32" fill="white" transform="translate(108)"/>
</clipPath>
<clipPath id="clip3_1_2436">
<rect width="32" height="32" fill="white" transform="translate(144)"/>
</clipPath>
</defs>
</svg>
