<svg width="158" height="155" viewBox="0 0 158 155" fill="none" xmlns="http://www.w3.org/2000/svg">
<g clip-path="url(#clip0_397_8248)">
<mask id="path-1-inside-1_397_8248" fill="white">
<path d="M62.6126 21.2544C62.6304 21.2539 62.6476 21.2472 62.6609 21.2356L62.7717 21.2449C62.7922 21.2477 62.8132 21.2445 62.8321 21.2357C63.1816 21.2801 63.529 21.2401 63.8771 21.1896L64.0946 21.169C64.6281 21.2157 65.1602 21.1613 65.6918 21.0948C65.7727 21.1225 65.8504 21.1413 65.9317 21.086C66.3022 21.1182 66.6772 21.0965 67.0442 21.0217C67.415 21.0623 67.7921 21.0419 68.1593 20.9613C68.1772 20.9645 68.1959 20.9616 68.212 20.9529C68.4555 21.0034 68.7097 20.9961 68.953 20.9318L69.0406 20.9407L69.2045 20.9282C69.5056 20.9421 69.807 20.9512 70.1034 20.8652C70.2221 20.8843 70.3414 20.9131 70.4614 20.8619C70.7274 20.8837 70.9962 20.8706 71.2605 20.823C71.2924 20.8357 71.3275 20.84 71.3621 20.8353C71.3968 20.8306 71.4298 20.8171 71.4577 20.7963C71.8412 20.8254 72.228 20.8135 72.6111 20.761L72.8195 20.7313C73.0046 20.7744 73.2 20.7667 73.3837 20.7089L73.6288 20.6992C73.9247 20.7379 74.2203 20.6926 74.516 20.6688C74.5372 20.6687 74.558 20.6625 74.5756 20.6508L74.6679 20.6568L74.8899 20.6342C75.2049 20.6676 75.5251 20.6492 75.8368 20.5796C76.4748 20.6132 77.1114 20.5596 77.7463 20.4946C77.8803 20.5082 78.013 20.5273 78.1438 20.4764C78.4605 20.4992 78.78 20.4829 79.0946 20.4279L79.2419 20.4202C80.2207 20.4148 81.1974 20.364 82.172 20.2679C82.3336 20.301 82.5024 20.2944 82.663 20.2487C82.9495 20.2793 83.2408 20.2627 83.5242 20.1995L83.663 20.1862C83.9634 20.2205 84.2687 20.2104 84.5685 20.1562L84.7838 20.1308C84.9957 20.1762 85.2179 20.1672 85.4283 20.1048L85.4194 20.0909L85.5144 20.0999C85.59 20.1308 85.6601 20.0986 85.7307 20.0761C86.0264 20.1042 86.3259 20.0919 86.6205 20.0395C86.7244 20.0407 86.8274 20.0671 86.9305 20.0201C87.2003 20.0578 87.464 20.0212 87.7294 19.9836L87.8766 19.9706L87.9696 19.9777L88.0949 19.9487C88.2104 20.0147 88.3387 19.9537 88.4558 19.9676C88.7043 20.0014 88.9679 19.8506 89.2058 20.006C89.179 20.1685 89.3053 20.2664 89.3796 20.3815C92.5518 25.2984 95.7261 30.2137 98.9023 35.1276C98.678 35.4012 98.5389 35.7206 98.3687 36.0221C97.3307 37.8674 96.2954 39.7149 95.2629 41.5645C94.3713 43.1685 93.4766 44.7724 92.5789 46.3761C91.6483 48.038 90.7173 49.6997 89.7859 51.3612C88.5654 53.5415 87.3464 55.7224 86.1289 57.904C84.8596 58.6826 83.5907 59.461 82.3222 60.2392L58.2225 75.023C57.1848 75.0749 56.1464 75.1267 55.107 75.1785C52.7445 75.2988 50.3822 75.4196 48.0203 75.5409L41.173 75.8886C38.8333 76.0071 36.4937 76.1261 34.1541 76.2457C33.3108 76.2909 32.4672 76.2952 31.6241 76.4029C28.4491 71.4883 25.2725 66.5744 22.0945 61.6611C22.0201 61.546 21.9835 61.3931 21.8212 61.3458C21.781 61.1912 21.8962 61.0819 21.9543 60.9551C22.0673 60.698 22.2768 60.4814 22.3274 60.1961L22.4054 60.1166C22.5787 59.8802 22.7172 59.6225 22.8169 59.3511L22.8641 59.2974L22.8823 59.2267L22.9707 59.0875C23.1282 58.8758 23.2562 58.6458 23.3514 58.4034L23.5083 58.1395L23.5386 58.0521L23.5404 58.0549C23.894 57.5358 24.1975 56.9875 24.4468 56.4171C24.6492 56.1751 24.8049 55.9007 24.906 55.6076C24.9828 55.5352 25.0358 55.4429 25.0582 55.3427C25.221 55.1918 25.2914 54.9879 25.3892 54.8035C25.7686 54.0871 26.2295 53.4094 26.5428 52.6617C26.5504 52.6586 26.5573 52.6542 26.5631 52.6486C26.5689 52.6431 26.5735 52.6365 26.5767 52.6293C26.7636 52.3765 26.9169 52.1028 27.0328 51.8148L27.2132 51.4607C27.5763 50.9453 27.887 50.3983 28.1407 49.8277C28.1567 49.8191 28.1694 49.8056 28.1766 49.7895C28.2867 49.6091 28.4395 49.4489 28.4728 49.2345C28.5636 49.1672 28.5847 49.0631 28.6301 48.9711L28.6677 48.8824L28.7864 48.7114C28.9369 48.4591 29.1091 48.2175 29.2009 47.9378L29.2748 47.8152C29.4172 47.6288 29.5316 47.4243 29.6144 47.2082C29.6387 47.1961 29.6593 47.1777 29.6737 47.1552C29.6881 47.1327 29.6958 47.107 29.6959 47.081C29.8715 46.7839 30.1168 46.5137 30.1282 46.1512L30.313 45.9938L30.3384 45.9241C30.4795 45.7608 30.5831 45.571 30.6419 45.3678C30.765 45.2271 30.8565 45.0638 30.9103 44.8887C31.0639 44.7129 31.1801 44.5102 31.252 44.2927C31.3453 44.2254 31.3634 44.1192 31.4086 44.0282L31.4379 43.9468C31.7586 43.468 32.039 42.966 32.2762 42.4458L32.3505 42.3137C32.5698 42.0173 32.7504 41.6968 32.8881 41.3595L32.9508 41.226C33.2632 40.7315 33.6078 40.2512 33.7789 39.6888L33.866 39.6006C34.0767 39.3249 34.2444 39.0217 34.3637 38.7011L34.4793 38.5126L34.5191 38.421C34.763 38.2714 35.004 38.1174 35.2478 37.9678L62.126 21.4795C62.2527 21.4018 62.382 21.3271 62.5093 21.2505L62.6126 21.2544Z"/>
</mask>
<path d="M62.6126 21.2544C62.6304 21.2539 62.6476 21.2472 62.6609 21.2356L62.7717 21.2449C62.7922 21.2477 62.8132 21.2445 62.8321 21.2357C63.1816 21.2801 63.529 21.2401 63.8771 21.1896L64.0946 21.169C64.6281 21.2157 65.1602 21.1613 65.6918 21.0948C65.7727 21.1225 65.8504 21.1413 65.9317 21.086C66.3022 21.1182 66.6772 21.0965 67.0442 21.0217C67.415 21.0623 67.7921 21.0419 68.1593 20.9613C68.1772 20.9645 68.1959 20.9616 68.212 20.9529C68.4555 21.0034 68.7097 20.9961 68.953 20.9318L69.0406 20.9407L69.2045 20.9282C69.5056 20.9421 69.807 20.9512 70.1034 20.8652C70.2221 20.8843 70.3414 20.9131 70.4614 20.8619C70.7274 20.8837 70.9962 20.8706 71.2605 20.823C71.2924 20.8357 71.3275 20.84 71.3621 20.8353C71.3968 20.8306 71.4298 20.8171 71.4577 20.7963C71.8412 20.8254 72.228 20.8135 72.6111 20.761L72.8195 20.7313C73.0046 20.7744 73.2 20.7667 73.3837 20.7089L73.6288 20.6992C73.9247 20.7379 74.2203 20.6926 74.516 20.6688C74.5372 20.6687 74.558 20.6625 74.5756 20.6508L74.6679 20.6568L74.8899 20.6342C75.2049 20.6676 75.5251 20.6492 75.8368 20.5796C76.4748 20.6132 77.1114 20.5596 77.7463 20.4946C77.8803 20.5082 78.013 20.5273 78.1438 20.4764C78.4605 20.4992 78.78 20.4829 79.0946 20.4279L79.2419 20.4202C80.2207 20.4148 81.1974 20.364 82.172 20.2679C82.3336 20.301 82.5024 20.2944 82.663 20.2487C82.9495 20.2793 83.2408 20.2627 83.5242 20.1995L83.663 20.1862C83.9634 20.2205 84.2687 20.2104 84.5685 20.1562L84.7838 20.1308C84.9957 20.1762 85.2179 20.1672 85.4283 20.1048L85.4194 20.0909L85.5144 20.0999C85.59 20.1308 85.6601 20.0986 85.7307 20.0761C86.0264 20.1042 86.3259 20.0919 86.6205 20.0395C86.7244 20.0407 86.8274 20.0671 86.9305 20.0201C87.2003 20.0578 87.464 20.0212 87.7294 19.9836L87.8766 19.9706L87.9696 19.9777L88.0949 19.9487C88.2104 20.0147 88.3387 19.9537 88.4558 19.9676C88.7043 20.0014 88.9679 19.8506 89.2058 20.006C89.179 20.1685 89.3053 20.2664 89.3796 20.3815C92.5518 25.2984 95.7261 30.2137 98.9023 35.1276C98.678 35.4012 98.5389 35.7206 98.3687 36.0221C97.3307 37.8674 96.2954 39.7149 95.2629 41.5645C94.3713 43.1685 93.4766 44.7724 92.5789 46.3761C91.6483 48.038 90.7173 49.6997 89.7859 51.3612C88.5654 53.5415 87.3464 55.7224 86.1289 57.904C84.8596 58.6826 83.5907 59.461 82.3222 60.2392L58.2225 75.023C57.1848 75.0749 56.1464 75.1267 55.107 75.1785C52.7445 75.2988 50.3822 75.4196 48.0203 75.5409L41.173 75.8886C38.8333 76.0071 36.4937 76.1261 34.1541 76.2457C33.3108 76.2909 32.4672 76.2952 31.6241 76.4029C28.4491 71.4883 25.2725 66.5744 22.0945 61.6611C22.0201 61.546 21.9835 61.3931 21.8212 61.3458C21.781 61.1912 21.8962 61.0819 21.9543 60.9551C22.0673 60.698 22.2768 60.4814 22.3274 60.1961L22.4054 60.1166C22.5787 59.8802 22.7172 59.6225 22.8169 59.3511L22.8641 59.2974L22.8823 59.2267L22.9707 59.0875C23.1282 58.8758 23.2562 58.6458 23.3514 58.4034L23.5083 58.1395L23.5386 58.0521L23.5404 58.0549C23.894 57.5358 24.1975 56.9875 24.4468 56.4171C24.6492 56.1751 24.8049 55.9007 24.906 55.6076C24.9828 55.5352 25.0358 55.4429 25.0582 55.3427C25.221 55.1918 25.2914 54.9879 25.3892 54.8035C25.7686 54.0871 26.2295 53.4094 26.5428 52.6617C26.5504 52.6586 26.5573 52.6542 26.5631 52.6486C26.5689 52.6431 26.5735 52.6365 26.5767 52.6293C26.7636 52.3765 26.9169 52.1028 27.0328 51.8148L27.2132 51.4607C27.5763 50.9453 27.887 50.3983 28.1407 49.8277C28.1567 49.8191 28.1694 49.8056 28.1766 49.7895C28.2867 49.6091 28.4395 49.4489 28.4728 49.2345C28.5636 49.1672 28.5847 49.0631 28.6301 48.9711L28.6677 48.8824L28.7864 48.7114C28.9369 48.4591 29.1091 48.2175 29.2009 47.9378L29.2748 47.8152C29.4172 47.6288 29.5316 47.4243 29.6144 47.2082C29.6387 47.1961 29.6593 47.1777 29.6737 47.1552C29.6881 47.1327 29.6958 47.107 29.6959 47.081C29.8715 46.7839 30.1168 46.5137 30.1282 46.1512L30.313 45.9938L30.3384 45.9241C30.4795 45.7608 30.5831 45.571 30.6419 45.3678C30.765 45.2271 30.8565 45.0638 30.9103 44.8887C31.0639 44.7129 31.1801 44.5102 31.252 44.2927C31.3453 44.2254 31.3634 44.1192 31.4086 44.0282L31.4379 43.9468C31.7586 43.468 32.039 42.966 32.2762 42.4458L32.3505 42.3137C32.5698 42.0173 32.7504 41.6968 32.8881 41.3595L32.9508 41.226C33.2632 40.7315 33.6078 40.2512 33.7789 39.6888L33.866 39.6006C34.0767 39.3249 34.2444 39.0217 34.3637 38.7011L34.4793 38.5126L34.5191 38.421C34.763 38.2714 35.004 38.1174 35.2478 37.9678L62.126 21.4795C62.2527 21.4018 62.382 21.3271 62.5093 21.2505L62.6126 21.2544Z" fill="#FFEBB9" stroke="white" stroke-width="2.23327" mask="url(#path-1-inside-1_397_8248)"/>
<path d="M93.0774 46.6442L93.0771 46.6448C92.1449 48.3055 91.2141 49.9669 90.2845 51.629C90.2845 51.6291 90.2845 51.6291 90.2845 51.6292L88.4561 54.9004L86.7974 57.8679C86.913 58.0074 87.0413 58.1387 87.1856 58.2864C87.2912 58.3944 87.4054 58.5111 87.5293 58.6463L87.5302 58.6473C88.3407 59.5356 89.1542 60.4218 89.9707 61.3059C90.1869 61.5398 90.4064 61.7715 90.6287 62.0061L90.6411 62.0191C90.8667 62.2573 91.0952 62.4986 91.3209 62.7433M93.0774 46.6442L90.9041 63.1115M93.0774 46.6442C93.9745 45.0409 94.8706 43.4372 95.7659 41.8329M93.0774 46.6442L95.7659 41.8329M91.3209 62.7433C91.321 62.7434 91.3211 62.7435 91.3211 62.7435L90.9041 63.1115M91.3209 62.7433C91.3209 62.7433 91.3208 62.7432 91.3207 62.7431L90.9041 63.1115M91.3209 62.7433C91.7731 63.2327 92.209 63.708 92.6441 64.1825C93.1014 64.6813 93.558 65.1792 94.0317 65.6914M90.9041 63.1115C91.3452 63.5888 91.7845 64.0678 92.2238 64.5468C92.6868 65.0518 93.1499 65.5568 93.6153 66.06M94.0317 65.6914C94.0317 65.6914 94.0317 65.6914 94.0316 65.6914L93.6153 66.06M94.0317 65.6914C94.3339 66.018 94.6396 66.3422 94.9475 66.6686L94.9832 66.7064C95.3025 67.045 95.6241 67.3861 95.9422 67.731L95.9424 67.7313C96.3999 68.2278 96.8543 68.7267 97.3074 69.2244L97.3378 69.2577C97.781 69.7445 98.2232 70.23 98.6677 70.7131L98.6678 70.7131C99.106 71.1894 99.5461 71.6596 99.9881 72.1318C100.263 72.426 100.54 72.721 100.816 73.0188L100.817 73.019C101.209 73.4409 101.598 73.8618 101.988 74.2824C102.483 74.8167 102.977 75.3503 103.474 75.8846L103.474 75.8846C103.942 76.3869 104.412 76.8892 104.883 77.3922C105.828 78.401 106.775 79.4126 107.708 80.4333L107.709 80.4345C108.79 81.6238 109.877 82.8068 110.977 83.9762M94.0317 65.6914L93.6153 66.06M93.6153 66.06L110.977 83.9762M110.977 83.9762L110.564 84.3484M110.977 83.9762L98.2503 71.0806C98.6896 71.558 99.1332 72.032 99.5768 72.5059C99.8519 72.7998 100.127 73.0937 100.401 73.3884C100.791 73.8084 101.181 74.2291 101.57 74.6499C102.066 75.1852 102.562 75.7205 103.059 76.2545C103.529 76.7595 104.001 77.2631 104.472 77.7667C105.415 78.7739 106.359 79.7811 107.289 80.7994C108.371 81.9902 109.46 83.1757 110.564 84.3484M110.977 83.9762C110.977 83.9763 110.977 83.9763 110.977 83.9763L110.564 84.3484M110.977 83.9762C111.526 84.5586 112.066 85.1521 112.604 85.7422C112.666 85.8107 112.729 85.8791 112.791 85.9474M110.564 84.3484C111.109 84.9273 111.645 85.5152 112.181 86.1038C112.282 86.2148 112.384 86.3258 112.485 86.4367C112.592 86.2752 112.693 86.1122 112.791 85.9474M130.227 54.8148C130.14 54.9132 130.09 55.0077 130.067 55.0516C130.064 55.0588 130.06 55.0647 130.058 55.0689L130.058 55.0694C129.426 56.1925 128.796 57.316 128.168 58.44C127.309 59.9743 126.451 61.5083 125.592 63.0422L130.227 54.8148ZM130.227 54.8148C129.963 54.6837 129.726 54.5291 129.524 54.3974C129.456 54.3534 129.393 54.3119 129.334 54.2747L129.332 54.2735C128.626 53.8275 127.908 53.4021 127.181 52.9717L127.062 52.9012L127.062 52.9009C126.49 52.5616 125.92 52.2064 125.355 51.855C125.022 51.6474 124.69 51.441 124.362 51.2401C123.857 50.9315 123.355 50.6281 122.852 50.324C122.435 50.0715 122.016 49.8184 121.594 49.5614C121.147 49.2897 120.715 49.0249 120.284 48.7608C119.824 48.4785 119.365 48.197 118.89 47.9085L130.227 54.8148ZM112.791 85.9474C112.98 85.6296 113.157 85.305 113.34 84.9707C113.48 84.7127 113.624 84.4489 113.779 84.1779M112.791 85.9474C112.923 86.0924 113.055 86.2371 113.187 86.3813C113.422 85.9965 113.638 85.6016 113.854 85.2068C113.991 84.9541 114.129 84.7014 114.272 84.4514C114.807 83.5153 115.33 82.5729 115.853 81.6303C116.091 81.2022 116.328 80.774 116.567 80.3464M113.779 84.1779L123.739 67.5015C122.975 68.8699 122.212 70.2393 121.451 71.6097C120.594 73.1444 119.736 74.6784 118.875 76.2118C118.106 77.5896 117.336 78.9678 116.567 80.3464M113.779 84.1779C114.313 83.2449 114.833 82.3075 115.355 81.3666C115.593 80.9377 115.831 80.5081 116.071 80.0778M113.779 84.1779L125.592 63.0424C124.81 64.4387 124.027 65.8352 123.244 67.232L123.243 67.2327C122.479 68.6014 121.716 69.9712 120.955 71.3419M113.779 84.1779L114.272 84.451L113.78 84.1777C113.78 84.1778 113.78 84.1778 113.779 84.1779ZM116.567 80.3464L116.071 80.0778M116.567 80.3464L116.071 80.0778C116.071 80.0778 116.071 80.0778 116.071 80.0778M116.071 80.0778C116.84 78.6991 117.61 77.3208 118.38 75.9429L118.38 75.942C119.24 74.4093 120.098 72.876 120.955 71.3419M120.955 71.3419C120.955 71.342 120.955 71.342 120.955 71.3421L121.45 71.6095L120.955 71.341C120.955 71.3413 120.955 71.3416 120.955 71.3419ZM95.7659 41.8329C96.7995 39.9849 97.8346 38.1378 98.871 36.2916C98.9355 36.1773 98.9886 36.0768 99.0366 35.9857C99.0547 35.9515 99.0721 35.9186 99.0891 35.8868C99.2913 36.0114 99.4936 36.1362 99.696 36.261C100.525 36.7725 101.357 37.285 102.19 37.7923L102.19 37.7923C104.003 38.8956 105.82 39.9968 107.64 41.0959C110.143 42.6132 112.645 44.1314 115.147 45.6505L115.147 45.6508C115.771 46.0286 116.396 46.4046 117.019 46.7801L117.02 46.7806L117.022 46.7818C117.646 47.1571 118.268 47.532 118.89 47.9085L95.7659 41.8329Z" fill="#FFBF17" stroke="white" stroke-width="1.11663"/>
<path d="M32.2538 76.891C32.3062 77.3332 32.3588 77.7756 32.4115 78.2182C32.5785 79.6208 32.7457 81.0251 32.9046 82.4291L32.9046 82.4292C33.0237 83.4842 33.1371 84.5395 33.2502 85.5932L33.257 85.657C33.3679 86.6898 33.4786 87.721 33.5945 88.7513C33.6843 89.5467 33.7809 90.3418 33.8779 91.1397L33.8796 91.1537C33.976 91.9461 34.0727 92.7413 34.1627 93.5377C34.1627 93.5378 34.1628 93.5378 34.1628 93.5379L33.602 93.5932C33.6941 94.404 33.78 95.2158 33.8659 96.0276C33.955 96.8685 34.044 97.7095 34.1398 98.5495C34.2581 99.5862 34.38 100.621 34.502 101.656C34.6409 102.835 34.7797 104.014 34.9131 105.194L32.2538 76.891ZM32.2538 76.891C32.647 76.8593 33.0411 76.8434 33.4481 76.827C33.6915 76.8172 33.9396 76.8072 34.1948 76.7936C34.1947 76.7936 34.1945 76.7936 34.1944 76.7936L34.1583 76.242L34.1948 76.7936M32.2538 76.891L34.1948 76.7936M72.6553 110.564C72.3637 109.869 72.0714 109.174 71.7784 108.479C71.2331 107.189 70.6876 105.898 70.1418 104.607L72.6553 110.564ZM72.6553 110.564C70.5067 110.676 68.3585 110.786 66.2106 110.894L66.2102 110.894C64.3171 110.991 62.4247 111.087 60.533 111.183L72.6553 110.564ZM34.1948 76.7936C36.5336 76.6699 38.8723 76.551 41.211 76.4366L41.2121 76.4366M34.1948 76.7936L41.2121 76.4366M41.2121 76.4366L48.0595 76.0889L48.0597 76.0889M41.2121 76.4366L48.0597 76.0889M48.0597 76.0889L55.1464 75.7265L55.1113 75.1749M48.0597 76.0889L55.1113 75.1749M55.1113 75.1749L55.1464 75.7265C56.0675 75.6794 56.9883 75.6333 57.9086 75.5882L55.1113 75.1749ZM65.113 92.6499L65.113 92.6499C64.8385 92 64.5588 91.3473 64.2785 90.6931C63.8644 89.7265 63.4488 88.7566 63.0464 87.7879C62.7856 87.1606 62.5189 86.5277 62.2515 85.8933C61.9263 85.1215 61.6002 84.3476 61.2827 83.5793C60.6221 81.9877 59.9455 80.4015 59.2666 78.8134C59.2666 78.8134 59.2666 78.8134 59.2666 78.8134L59.7866 78.6045C59.5279 77.9995 59.274 77.3929 59.0201 76.7863L65.113 92.6499ZM65.113 92.6499C65.6347 93.8844 66.1522 95.1201 66.6701 96.3565C66.9033 96.9133 67.1365 97.4702 67.3702 98.0273L68.126 99.8305L68.8819 101.634L68.8823 101.635M65.113 92.6499L68.8823 101.635M68.8823 101.635C69.1274 102.217 69.3747 102.799 69.6218 103.381M68.8823 101.635L69.6218 103.381M69.6218 103.381C69.7956 103.79 69.9692 104.199 70.1418 104.607L69.6218 103.381ZM35.6569 106.868C35.5975 106.283 35.5377 105.695 35.4737 105.138L60.5329 111.183C59.635 111.228 58.737 111.272 57.8383 111.315L57.831 111.315C56.9301 111.358 56.0285 111.402 55.1267 111.447L55.1266 111.447C53.9959 111.504 52.8634 111.563 51.7321 111.623C50.8902 111.667 50.049 111.711 49.2096 111.754C48.2584 111.801 47.3061 111.847 46.3533 111.893C45.4008 111.938 44.4476 111.984 43.4954 112.031C43.3299 112.039 43.1644 112.047 42.9989 112.056C41.1022 112.149 39.2003 112.242 37.296 112.358C37.2258 112.362 37.15 112.362 37.0535 112.361C37.045 112.36 37.0364 112.36 37.0276 112.36C36.9422 112.359 36.8394 112.357 36.7363 112.361C36.6014 112.366 36.4472 112.381 36.2852 112.423L36.2847 112.418C36.1247 111.076 35.9649 109.736 35.8174 108.395L35.8173 108.394C35.7625 107.906 35.7099 107.389 35.6569 106.868Z" fill="#FFBF17" stroke="white" stroke-width="1.11663"/>
<path d="M75.3196 111.795C76.3824 112.226 77.4532 112.64 78.5241 113.054C79.0334 113.251 79.5426 113.447 80.0511 113.646C80.7564 113.922 81.4614 114.199 82.1664 114.477C83.2368 114.899 84.3069 115.32 85.3778 115.735L75.3196 111.795ZM75.3196 111.795C75.1362 111.721 74.949 111.655 74.7618 111.588C74.549 111.512 74.3361 111.436 74.1286 111.349L75.3196 111.795ZM74.7187 110.986L112.258 87.9577C112.252 88.0426 112.246 88.1276 112.239 88.2126C112.154 89.3863 112.068 90.562 111.99 91.7378L111.99 91.7383C111.925 92.7352 111.863 93.7244 111.8 94.7128C111.731 95.8099 111.662 96.9062 111.589 98.0111C111.528 98.9297 111.461 99.8422 111.394 100.757C111.342 101.48 111.289 102.204 111.238 102.933L111.238 102.933C111.069 105.386 110.903 107.84 110.74 110.294L110.74 110.294C110.69 111.037 110.643 111.777 110.596 112.516C110.535 113.471 110.474 114.426 110.408 115.383C110.342 116.35 110.273 117.306 110.204 118.262C110.151 118.986 110.099 119.71 110.048 120.439L110.048 120.439C109.956 121.744 109.869 123.048 109.785 124.353L109.785 124.354C109.784 124.374 109.78 124.399 109.771 124.458L109.771 124.461C109.765 124.498 109.756 124.553 109.751 124.614C109.682 124.583 109.615 124.556 109.551 124.533C109.45 124.495 109.348 124.462 109.259 124.433C109.245 124.429 109.231 124.424 109.217 124.42C109.114 124.386 109.028 124.357 108.949 124.325L108.949 124.325C108.24 124.037 107.507 123.76 106.782 123.485C106.27 123.292 105.761 123.099 105.268 122.905L105.267 122.905C104.525 122.615 103.765 122.31 103.002 122.004C102.147 121.662 101.289 121.318 100.45 120.991C99.6124 120.665 98.7519 120.339 97.8947 120.015C97.1441 119.73 96.396 119.447 95.6681 119.165C94.9881 118.901 94.3108 118.628 93.63 118.354L93.5887 118.337C92.9223 118.069 92.2524 117.799 91.5788 117.536L74.7187 110.986ZM74.7187 110.986C74.7852 111.01 74.8556 111.035 74.9282 111.061C75.1258 111.132 75.3391 111.208 75.5309 111.285L75.5309 111.285C76.5894 111.715 77.6525 112.125 78.7208 112.538C79.2312 112.735 79.7427 112.933 80.2555 113.133L80.2557 113.133C80.9641 113.41 81.6701 113.688 82.3753 113.966C83.4439 114.387 84.5106 114.807 85.5806 115.221L85.5814 115.222C86.5001 115.579 87.4289 115.936 88.359 116.293C89.4351 116.706 90.5129 117.12 91.5788 117.536L74.7187 110.986Z" fill="#FB8B00" stroke="white" stroke-width="1.11663"/>
<path d="M22.4589 91.0949C22.4614 90.785 22.4538 90.471 22.4464 90.1673C22.444 90.067 22.4416 89.9678 22.4396 89.8703C22.4438 89.8305 22.4439 89.7899 22.4396 89.749C22.4768 89.4038 22.476 89.0562 22.437 88.7121L22.4364 88.6229C22.4707 88.048 22.4698 87.4725 22.4337 86.8993L22.4343 86.8873C22.4421 86.8328 22.4427 86.7767 22.4353 86.7206C22.4649 86.3928 22.4629 86.0634 22.4294 85.7368C22.4732 85.1528 22.4536 84.5739 22.4351 84.0279C22.4333 83.9734 22.4315 83.9193 22.4297 83.8655L22.4298 83.8655L22.4294 83.8584L22.4216 83.688C22.4582 83.3436 22.4566 82.997 22.4166 82.6541C22.4543 82.0728 22.4843 81.4441 22.3938 80.8072L22.4 80.7133C22.4771 80.3206 22.4433 79.9401 22.4168 79.6419C22.416 79.6328 22.4152 79.6238 22.4144 79.6148L22.4126 79.534C22.4551 79.2113 22.4529 78.885 22.4057 78.5639C22.4106 78.5373 22.4137 78.5102 22.4149 78.4828C22.4158 78.463 22.4157 78.4431 22.4147 78.4233C22.4396 78.2163 22.4651 77.9309 22.3893 77.6328C22.3906 77.6246 22.3924 77.6147 22.3951 77.5999C22.3972 77.5885 22.3998 77.574 22.4032 77.5551L22.4042 77.5494C22.4157 77.4853 22.4386 77.3577 22.4182 77.2047C22.445 77.0596 22.4431 76.9103 22.4117 76.7652C22.4144 76.7496 22.4165 76.7339 22.4182 76.7181C22.426 76.6422 22.4212 76.5656 22.4039 76.4913L22.4023 76.4556L22.4015 76.4346C22.4379 76.1198 22.4405 75.8027 22.4091 75.4884C22.4099 75.468 22.4097 75.4475 22.4084 75.4269C22.4376 75.2206 22.4368 75.0114 22.4054 74.8054C22.4245 74.6703 22.4242 74.5329 22.4039 74.3973C22.4348 74.1174 22.434 73.8355 22.4011 73.5565C22.4036 73.5015 22.3988 73.446 22.3864 73.3913C22.4501 73.0788 22.4225 72.778 22.4025 72.5625C22.4045 72.5227 22.4023 72.4822 22.3959 72.4417C22.3957 72.4409 22.3956 72.4401 22.3955 72.4393C22.4383 71.4844 22.4192 70.536 22.3903 69.6029L22.3903 69.6008L22.3866 69.4955C22.4245 69.2023 22.4269 68.9063 22.3933 68.6134C22.3943 68.5797 22.3923 68.5457 22.3874 68.5117C22.4048 68.4087 22.3995 68.3176 22.3897 68.2472C22.3855 68.2177 22.3804 68.1904 22.3757 68.1679C22.3866 68.108 22.3888 68.0464 22.3819 67.9852C22.4169 67.5038 22.4153 67.0213 22.3771 66.5416C22.4105 66.1731 22.4114 65.8031 22.3797 65.4357C22.3921 65.378 22.3984 65.3187 22.398 65.2588C22.3976 65.2065 22.3922 65.1543 22.3819 65.103C22.4116 64.852 22.4081 64.5986 22.3711 64.3488L22.3724 64.329L22.3747 64.2936L22.3724 64.258L22.3611 64.0869L22.3618 64.0651C22.3672 64.0366 22.3706 64.0075 22.372 63.978C22.372 63.9774 22.372 63.9767 22.3721 63.9761C22.4043 63.8269 22.4023 63.6714 22.3641 63.5212C22.3641 63.5097 22.3642 63.4984 22.3642 63.4871C22.3644 63.4278 22.3646 63.3703 22.3651 63.3107C22.3651 63.3105 22.3651 63.3103 22.3651 63.3101L22.3674 63.1091C25.2742 67.6027 28.179 72.0965 31.082 76.5906C31.1511 77.1764 31.2208 77.7616 31.2904 78.3465C31.4572 79.7474 31.6237 81.1464 31.7822 82.5469C31.901 83.5985 32.0141 84.6509 32.1272 85.705L32.1341 85.7698C32.2449 86.8018 32.3558 87.8354 32.4721 88.8686L32.4721 88.8688C32.5625 89.6697 32.6597 90.4695 32.7567 91.2667L32.758 91.2779C32.8546 92.0721 32.9509 92.8637 33.0404 93.6558L33.0405 93.6562C33.1337 94.4746 33.2204 95.2945 33.3074 96.117L33.3088 96.1298C33.3961 96.9559 33.4838 97.7846 33.5783 98.6126C33.7087 99.7561 33.8453 100.912 33.9818 102.066C34.108 103.134 34.2342 104.201 34.3551 105.256L34.3552 105.256C34.4241 105.849 34.4819 106.421 34.5402 106.999C34.5901 107.493 34.6404 107.991 34.6983 108.508C34.7786 109.23 34.8619 109.95 34.9463 110.671L34.9315 110.648L34.9056 110.608L34.8798 110.568L34.8539 110.528L34.8281 110.488L34.8023 110.448L34.7764 110.408L34.7506 110.368L34.7248 110.328L34.6989 110.288L34.6731 110.248L34.6472 110.208L34.6214 110.168L34.5956 110.128L34.5697 110.088L34.5439 110.048L34.5181 110.008L34.4922 109.968L34.4664 109.928L34.4405 109.888L34.4147 109.848L34.3889 109.808L34.363 109.768L34.3372 109.728L34.3113 109.688L34.2855 109.648L34.2597 109.608L34.2338 109.568L34.208 109.528L34.1822 109.488L34.1563 109.448L34.1305 109.408L34.1046 109.368L34.0788 109.328L34.053 109.288L34.0271 109.248L34.0013 109.208L33.9755 109.168L33.9496 109.128L33.9238 109.088L33.8979 109.048L33.8721 109.008L33.8463 108.968L33.8204 108.928L33.7946 108.888L33.7687 108.848L33.7429 108.808L33.7171 108.768L33.6912 108.728L33.6654 108.688L33.6396 108.648L33.6137 108.608L33.5879 108.568L33.562 108.528L33.5362 108.488L33.5104 108.448L33.4845 108.408L33.4587 108.368L33.4328 108.328L33.407 108.288L33.3812 108.248L33.3553 108.208L33.3295 108.168L33.3037 108.128L33.2778 108.088L33.252 108.048L33.2261 108.008L33.2003 107.968L33.1745 107.928L33.1486 107.888L33.1228 107.848L33.0969 107.808L33.0711 107.768L33.0453 107.728L33.0194 107.688L32.9936 107.648L32.9678 107.608L32.9419 107.568L32.9161 107.528L32.8902 107.488L32.8644 107.448L32.8386 107.408L32.8127 107.368L32.7869 107.328L32.761 107.288L32.7352 107.248L32.7094 107.208L32.6835 107.168L32.6577 107.128L32.6318 107.088L32.606 107.048L32.5802 107.008L32.5543 106.968L32.5285 106.928L32.5026 106.888L32.4768 106.848L32.451 106.808L32.4251 106.768L32.3993 106.728L32.3735 106.688L32.3476 106.648L32.3218 106.608L32.2959 106.568L32.2701 106.528L32.2443 106.488L32.2184 106.448L32.1926 106.408L32.1667 106.368L32.1409 106.328L32.1151 106.288L32.0892 106.248L32.0634 106.208L32.0375 106.168L32.0117 106.128L31.9859 106.088L31.96 106.048L31.9342 106.008L31.9083 105.968L31.8825 105.928L31.8567 105.888L31.8308 105.848L31.805 105.808L31.7791 105.768L31.7533 105.728L31.7275 105.688L31.7016 105.648L31.6758 105.608L31.65 105.568L31.6241 105.528L31.5983 105.488L31.5724 105.448L31.5466 105.408L31.5208 105.368L31.4949 105.328L31.4691 105.288L31.4432 105.248L31.4174 105.208L31.3916 105.168L31.3657 105.128L31.3399 105.088L31.314 105.048L31.2882 105.008L31.2624 104.968L31.2365 104.928L31.2107 104.888L31.1848 104.849L31.159 104.809L31.1332 104.769L31.1073 104.729L31.0815 104.689L31.0556 104.649L31.0298 104.609L31.004 104.569L30.9781 104.529L30.9523 104.489L30.9264 104.449L30.9006 104.409L30.8748 104.369L30.8489 104.329L30.8231 104.289L30.7972 104.249L30.7714 104.209L30.7456 104.169L30.7197 104.129L30.6939 104.089L30.668 104.049L30.6422 104.009L30.6164 103.969L30.5905 103.929L30.5647 103.889L30.5388 103.849L30.513 103.809L30.4871 103.769L30.4613 103.729L30.4355 103.689L30.4096 103.649L30.3838 103.609L30.3579 103.569L30.3321 103.529L30.3063 103.489L30.2804 103.449L30.2546 103.409L30.2287 103.369L30.2029 103.329L30.1771 103.289L30.1512 103.249L30.1254 103.209L30.0995 103.169L30.0737 103.129L30.0479 103.089L30.022 103.049L29.9962 103.009L29.9703 102.969L29.9445 102.929L29.9187 102.889L29.8928 102.849L29.867 102.809L29.8411 102.769L29.8153 102.729L29.7895 102.689L29.7636 102.649L29.7378 102.609L29.7119 102.569L29.6861 102.529L29.6602 102.489L29.6344 102.449L29.6086 102.409L29.5827 102.369L29.5569 102.329L29.531 102.289L29.5052 102.249L29.4794 102.209L29.4535 102.169L29.4277 102.129L29.4018 102.089L29.376 102.049L29.3502 102.009L29.3243 101.969L29.2985 101.929L29.2726 101.889L29.2468 101.849L29.221 101.809L29.1951 101.769L29.1693 101.729L29.1434 101.689L29.1176 101.649L29.0917 101.609L29.0659 101.569L29.0401 101.529L29.0142 101.489L28.9884 101.449L28.9625 101.409L28.9367 101.369L28.9109 101.329L28.885 101.289L28.8592 101.249L28.8333 101.209L28.8075 101.169L28.7816 101.129L28.7558 101.089L28.73 101.049L28.7041 101.009L28.6783 100.969L28.6524 100.929L28.6266 100.889L28.6008 100.849L28.5749 100.809L28.5491 100.769L28.5232 100.729L28.4974 100.689L28.4716 100.649L28.4457 100.609L28.4199 100.569L28.394 100.529L28.3682 100.489L28.3423 100.449L28.3165 100.409L28.2907 100.369L28.2648 100.329L28.239 100.289L28.2131 100.249L28.1873 100.209L28.1614 100.169L28.1356 100.129L28.1098 100.089L28.0839 100.049L28.0581 100.009L28.0322 99.9687L28.0064 99.9287L27.9806 99.8887L27.9547 99.8487L27.9289 99.8087L27.903 99.7687L27.8772 99.7287L27.8513 99.6887L27.8255 99.6487L27.7997 99.6087L27.7738 99.5687L27.748 99.5287L27.7221 99.4887L27.6963 99.4487L27.6705 99.4087L27.6446 99.3687L27.6188 99.3287L27.5929 99.2887L27.5671 99.2487L27.5412 99.2087L27.5154 99.1687L27.4896 99.1287L27.4637 99.0887L27.4379 99.0487L27.412 99.0087L27.3862 98.9687L27.3603 98.9287L27.3345 98.8887L27.3087 98.8487L27.2828 98.8087L27.257 98.7687L27.2311 98.7287L27.2053 98.6887L27.1794 98.6487L27.1536 98.6087L27.1278 98.5687L27.1019 98.5287L27.0761 98.4887L27.0502 98.4487L27.0244 98.4087L26.9985 98.3687L26.9727 98.3287L26.9469 98.2887L26.921 98.2487L26.8952 98.2087L26.8693 98.1687L26.8435 98.1287L26.8177 98.0887L26.7918 98.0487L26.766 98.0087L26.7401 97.9687L26.7143 97.9287L26.6884 97.8887L26.6626 97.8487L26.6368 97.8087L26.6109 97.7687L26.5851 97.7287L26.5592 97.6887L26.5334 97.6487L26.5075 97.6087L26.4817 97.5687L26.4559 97.5287L26.43 97.4887L26.4042 97.4487L26.3783 97.4087L26.3525 97.3687L26.3266 97.3287L26.3008 97.2887L26.275 97.2487L26.2491 97.2087L26.2233 97.1687L26.1974 97.1287L26.1716 97.0887L26.1457 97.0487L26.1199 97.0087L26.094 96.9687L26.0682 96.9287L26.0424 96.8887L26.0165 96.8487L25.9907 96.8087L25.9648 96.7687L25.939 96.7287L25.9131 96.6887L25.8873 96.6487L25.8615 96.6087L25.8356 96.5687L25.8098 96.5287L25.7839 96.4887L25.7581 96.4487L25.7322 96.4087L25.7064 96.3687L25.6806 96.3287L25.6547 96.2887L25.6289 96.2487L25.603 96.2087L25.5772 96.1687L25.5513 96.1287L25.5255 96.0887L25.4997 96.0487L25.4738 96.0087L25.448 95.9687L25.4221 95.9286L25.3963 95.8886L25.3704 95.8486L25.3446 95.8086L25.3187 95.7686L25.2929 95.7286L25.2671 95.6886L25.2412 95.6486L25.2154 95.6086L25.1895 95.5686L25.1637 95.5286L25.1378 95.4886L25.112 95.4486L25.0862 95.4086L25.0603 95.3686L25.0345 95.3286L25.0086 95.2886L24.9828 95.2486L24.9569 95.2086L24.9311 95.1686L24.9052 95.1286L24.8794 95.0886L24.8536 95.0486L24.8277 95.0086L24.8019 94.9686L24.776 94.9286L24.7502 94.8886L24.7243 94.8486L24.6985 94.8086L24.6726 94.7686L24.6468 94.7286L24.621 94.6886L24.5951 94.6486L24.5693 94.6086L24.5434 94.5686L24.5176 94.5286L24.4917 94.4886L24.4659 94.4486L24.4401 94.4085L24.4142 94.3685L24.3884 94.3285L24.3625 94.2885L24.3367 94.2485L24.3108 94.2085L24.285 94.1685L24.2591 94.1285L24.2333 94.0885L24.2075 94.0485L24.1816 94.0085L24.1558 93.9685L24.1299 93.9285L24.1041 93.8885L24.0782 93.8485L24.0524 93.8085L24.0265 93.7685L24.0007 93.7285L23.9749 93.6885L23.949 93.6485L23.9232 93.6085L23.8973 93.5685L23.8715 93.5285L23.8456 93.4885L23.8198 93.4485L23.7939 93.4085L23.7681 93.3685L23.7423 93.3285L23.7164 93.2884L23.6906 93.2484L23.6647 93.2084L23.6389 93.1684L23.613 93.1284L23.5872 93.0884L23.5613 93.0484L23.5355 93.0084L23.5097 92.9684L23.4838 92.9284L23.458 92.8884L23.4321 92.8484L23.4063 92.8084L23.3804 92.7684L23.3546 92.7284L23.3287 92.6884L23.3029 92.6484L23.277 92.6084L23.2512 92.5684L23.2254 92.5284L23.1995 92.4884L23.1737 92.4484L23.1478 92.4084L23.122 92.3684L23.0961 92.3283L23.0703 92.2883L23.0444 92.2483L23.0186 92.2083L22.9928 92.1683L22.9669 92.1283L22.9411 92.0883L22.9152 92.0483L22.8894 92.0083L22.8635 91.9683L22.8377 91.9283L22.8118 91.8883L22.786 91.8483L22.7601 91.8083L22.7343 91.7683C22.6839 91.6903 22.6195 91.6032 22.5711 91.5378C22.5536 91.5142 22.5383 91.4934 22.5264 91.4769L22.5264 91.4769L22.5239 91.4735C22.4819 91.4159 22.4575 91.3369 22.4589 91.0949ZM22.4589 91.0949C22.4589 91.0951 22.4589 91.0953 22.4589 91.0955L21.8947 91.0856M22.4589 91.0949C22.4589 91.0947 22.4589 91.0946 22.4589 91.0944L21.8947 91.0856M21.8947 91.0856C21.8972 90.7847 21.8899 90.4843 21.8826 90.1838C21.8797 90.0631 21.8768 89.9423 21.8745 89.8215C21.8781 89.8143 21.8794 89.8062 21.8781 89.7984C21.8769 89.7906 21.8732 89.7834 21.8675 89.7778L21.8947 91.0856Z" fill="#FFBF17" stroke="white" stroke-width="1.11663"/>
<path d="M93.7821 22.7381C94.3121 23.0294 94.8621 23.2865 95.4286 23.5078L95.5375 23.5627L95.5665 23.5773L95.5969 23.5886L95.607 23.5923C95.8854 23.7734 96.188 23.917 96.5066 24.0196L96.5988 24.0674L96.6311 24.0841L96.6654 24.0967L96.6898 24.1057C97.1778 24.379 97.686 24.6187 98.2104 24.8228L98.2405 24.8387L98.279 24.859L98.3202 24.8733L98.3484 24.8831C98.6322 25.0578 98.935 25.2021 99.2515 25.3137C99.2758 25.3284 99.3008 25.3413 99.3264 25.3524C99.5831 25.5072 99.8576 25.6329 100.144 25.7273L100.217 25.7655C100.475 25.9256 100.75 26.0568 101.039 26.1569C101.155 26.2348 101.281 26.295 101.415 26.3358C101.592 26.4516 101.786 26.5419 101.99 26.6042C102.007 26.6136 102.025 26.622 102.043 26.6296C102.323 26.796 102.621 26.9334 102.931 27.0398L102.951 27.05L102.987 27.0687L103.017 27.0793C103.219 27.2226 103.447 27.328 103.688 27.3911C103.819 27.4558 103.951 27.5205 104.087 27.5848C104.303 27.7196 104.536 27.8284 104.779 27.9093C104.795 27.9175 104.811 27.925 104.827 27.9319C104.854 27.943 104.881 27.9523 104.909 27.9598C105.185 28.1399 105.486 28.2829 105.802 28.3851L105.87 28.4185C106.149 28.5873 106.444 28.7304 106.751 28.846C106.809 28.8949 106.871 28.9309 106.93 28.9567C106.989 28.9824 107.041 28.997 107.075 29.0053C107.077 29.006 107.08 29.0067 107.083 29.0074C107.193 29.0589 107.31 29.1166 107.433 29.177C107.768 29.3419 108.143 29.5268 108.522 29.6596C108.529 29.6632 108.536 29.6667 108.543 29.6703C108.602 29.7005 108.656 29.7285 108.711 29.7574C108.988 29.9241 109.282 30.0636 109.589 30.174C109.696 30.2486 109.816 30.3036 109.941 30.3371C110.748 30.7554 111.572 31.1472 112.418 31.5019C112.425 31.5071 112.433 31.512 112.441 31.5169C112.486 31.5449 112.535 31.567 112.584 31.5831C112.763 31.7008 112.958 31.7929 113.163 31.8569C113.287 31.9402 113.423 32.0026 113.567 32.0423C114.099 32.3321 114.65 32.5896 115.217 32.8135C115.256 32.8385 115.297 32.8588 115.34 32.8744C115.437 32.9236 115.524 32.9658 115.607 33.0058C115.746 33.0729 115.873 33.1341 116.015 33.2122L116.017 33.2136C116.128 33.2735 116.24 33.3235 116.33 33.3639L116.337 33.3667C116.431 33.4087 116.503 33.441 116.571 33.4764C116.702 33.5454 116.76 33.5993 116.795 33.6583L116.799 33.6657L116.804 33.673C116.926 33.8633 117.047 34.054 117.168 34.2449C117.435 34.6638 117.702 35.0837 117.972 35.5019L117.98 35.5151L117.989 35.5283L117.997 35.5415L118.006 35.5547L118.014 35.5678L118.023 35.581L118.031 35.5942L118.04 35.6074L118.048 35.6206L118.057 35.6338L118.066 35.647L118.074 35.6602L118.083 35.6733L118.091 35.6865L118.1 35.6997L118.108 35.7129L118.117 35.7261L118.125 35.7393L118.134 35.7525L118.142 35.7657L118.151 35.7788L118.159 35.792L118.168 35.8052L118.176 35.8184L118.185 35.8316L118.193 35.8448L118.202 35.858L118.21 35.8712L118.219 35.8843L118.227 35.8975L118.236 35.9107L118.244 35.9239L118.253 35.9371L118.261 35.9503L118.27 35.9635L118.279 35.9767L118.287 35.9898L118.296 36.003L118.304 36.0162L118.313 36.0294L118.321 36.0426L118.33 36.0558L118.338 36.069L118.347 36.0822L118.355 36.0954L118.364 36.1085L118.372 36.1217L118.381 36.1349L118.389 36.1481L118.398 36.1613L118.406 36.1745L118.415 36.1877L118.423 36.2009L118.432 36.2141L118.44 36.2272L118.449 36.2404L118.457 36.2536L118.466 36.2668L118.474 36.28L118.483 36.2932L118.492 36.3064L118.5 36.3196L118.509 36.3328L118.517 36.346L118.526 36.3591L118.534 36.3723L118.543 36.3855L118.551 36.3987L118.56 36.4119L118.568 36.4251L118.577 36.4383L118.585 36.4515L118.594 36.4647L118.602 36.4779L118.611 36.491L118.619 36.5042L118.628 36.5174L118.636 36.5306L118.645 36.5438L118.653 36.557L118.662 36.5702L118.67 36.5834L118.679 36.5966L118.688 36.6098L118.696 36.6229L118.705 36.6361L118.713 36.6493L118.722 36.6625L118.73 36.6757L118.739 36.6889L118.747 36.7021L118.756 36.7153L118.764 36.7285L118.773 36.7417L118.781 36.7549L118.79 36.7681L118.798 36.7812L118.807 36.7944L118.815 36.8076L118.824 36.8208L118.832 36.834L118.841 36.8472L118.849 36.8604L118.858 36.8736L118.866 36.8868L118.875 36.9L118.884 36.9132L118.892 36.9264L118.901 36.9395L118.909 36.9527L118.918 36.9659L118.926 36.9791L118.935 36.9923L118.943 37.0055L118.952 37.0187L118.96 37.0319L118.969 37.0451L118.977 37.0583L118.986 37.0715L118.994 37.0847L119.003 37.0979L119.011 37.111L119.02 37.1242L119.028 37.1374L119.037 37.1506L119.045 37.1638L119.054 37.177L119.063 37.1902L119.071 37.2034L119.08 37.2166L119.088 37.2298L119.097 37.243L119.105 37.2562L119.114 37.2694L119.122 37.2826L119.131 37.2957L119.139 37.3089L119.148 37.3221L119.156 37.3353L119.165 37.3485L119.173 37.3617L119.182 37.3749L119.19 37.3881L119.199 37.4013L119.207 37.4145L119.216 37.4277L119.224 37.4409L119.233 37.4541L119.242 37.4673L119.25 37.4805L119.259 37.4937L119.267 37.5068L119.276 37.52L119.284 37.5332L119.293 37.5464L119.301 37.5596L119.31 37.5728L119.318 37.586L119.327 37.5992L119.335 37.6124L119.344 37.6256L119.352 37.6388L119.361 37.652L119.369 37.6652L119.378 37.6784L119.386 37.6916L119.395 37.7048L119.403 37.718L119.412 37.7312L119.421 37.7444L119.429 37.7575L119.438 37.7707L119.446 37.7839L119.455 37.7971L119.463 37.8103L119.472 37.8235L119.48 37.8367L119.489 37.8499L119.497 37.8631L119.506 37.8763L119.514 37.8895L119.523 37.9027L119.531 37.9159L119.54 37.9291L119.548 37.9423L119.557 37.9555L119.565 37.9687L119.574 37.9819L119.583 37.9951L119.591 38.0083L119.6 38.0215L119.608 38.0347L119.617 38.0479L119.625 38.061L119.634 38.0742L119.642 38.0874L119.651 38.1006L119.659 38.1138L119.668 38.127L119.676 38.1402L119.685 38.1534L119.693 38.1666L119.702 38.1798L119.71 38.193L119.719 38.2062L119.727 38.2194L119.736 38.2326L119.744 38.2458L119.753 38.259L119.762 38.2722L119.77 38.2854L119.779 38.2986L119.787 38.3118L119.796 38.325L119.804 38.3382L119.813 38.3514L119.821 38.3646L119.83 38.3778L119.838 38.391L119.847 38.4042L119.855 38.4174L119.864 38.4306L119.872 38.4438L119.881 38.457L119.889 38.4702L119.898 38.4834L119.906 38.4966L119.915 38.5098L119.924 38.523L119.932 38.5361L119.941 38.5493L119.949 38.5625L119.958 38.5757L119.966 38.5889L119.975 38.6021L119.983 38.6153L119.992 38.6285L120 38.6417L120.009 38.6549L120.017 38.6681L120.026 38.6813L120.034 38.6945L120.043 38.7077L120.051 38.7209L120.06 38.7341L120.069 38.7473L120.077 38.7605L120.086 38.7737L120.094 38.7869L120.103 38.8001L120.111 38.8133L120.12 38.8265L120.128 38.8397L120.137 38.8529L120.145 38.8661L120.154 38.8793L120.162 38.8925L120.171 38.9057L120.179 38.9189L120.188 38.9321L120.196 38.9453L120.205 38.9585L120.213 38.9717L120.222 38.9849L120.231 38.9981L120.239 39.0113L120.248 39.0245L120.256 39.0377L120.265 39.0509L120.273 39.0641L120.282 39.0773L120.29 39.0905L120.299 39.1037L120.307 39.1169L120.316 39.1301L120.324 39.1433L120.333 39.1565L120.341 39.1697L120.35 39.1829L120.358 39.1961L120.367 39.2093L120.376 39.2225L120.384 39.2357L120.393 39.2489L120.401 39.2621L120.41 39.2753L120.418 39.2885L120.427 39.3017L120.435 39.3149L120.444 39.3281L120.452 39.3413L120.461 39.3545L120.469 39.3677L120.478 39.3809L120.486 39.3941L120.495 39.4073L120.503 39.4205L120.512 39.4337L120.521 39.4469L120.529 39.4601L120.538 39.4733L120.546 39.4865L120.555 39.4997L120.563 39.513L120.572 39.5262L120.58 39.5394L120.589 39.5526L120.597 39.5658L120.606 39.579L120.614 39.5922L120.623 39.6054L120.631 39.6186L120.64 39.6318L120.648 39.645L120.657 39.6582L120.665 39.6714L120.674 39.6846L120.683 39.6978L120.691 39.711L120.7 39.7242L120.708 39.7374L120.717 39.7506L120.725 39.7638L120.734 39.777L120.742 39.7902L120.751 39.8034L120.759 39.8166L120.768 39.8298L120.776 39.843L120.785 39.8562L120.793 39.8694L120.802 39.8826L120.811 39.8958L120.819 39.909L120.828 39.9222L120.836 39.9354L120.845 39.9486L120.853 39.9618L120.862 39.975L120.87 39.9883L120.879 40.0015L120.887 40.0147L120.896 40.0279L120.904 40.0411L120.913 40.0543L120.921 40.0675L120.93 40.0807L120.938 40.0939L120.947 40.1071L120.956 40.1203L120.964 40.1335L120.973 40.1467L120.981 40.1599L120.99 40.1731L120.998 40.1863L121.007 40.1995L121.015 40.2127L121.024 40.2259L121.032 40.2391L121.041 40.2523L121.049 40.2655L121.058 40.2787L121.066 40.292L121.075 40.3052L121.083 40.3184L121.092 40.3316L121.101 40.3448L121.109 40.358L121.118 40.3712L121.126 40.3844L121.135 40.3976L121.143 40.4108L121.152 40.424L121.16 40.4372L121.169 40.4504L121.177 40.4636L121.186 40.4768L121.194 40.49L121.203 40.5032L121.211 40.5164L121.22 40.5296L121.229 40.5429L121.237 40.5561L121.246 40.5693L121.254 40.5825L121.263 40.5957L121.271 40.6089L121.28 40.6221L121.288 40.6353L121.297 40.6485L121.305 40.6617L121.314 40.6749L121.322 40.6881L121.331 40.7013L121.339 40.7145L121.348 40.7277L121.356 40.7409L121.365 40.7542L121.374 40.7674L121.382 40.7806L121.391 40.7938L121.399 40.807L121.408 40.8202L121.416 40.8334L121.425 40.8466L121.433 40.8598L121.442 40.873L121.45 40.8862L121.459 40.8994L121.467 40.9126L121.476 40.9258L121.484 40.9391L121.493 40.9523L121.502 40.9655L121.51 40.9787L121.519 40.9919L121.527 41.0051L121.536 41.0183L121.544 41.0315L121.553 41.0447L121.561 41.0579L121.57 41.0711L121.578 41.0843L121.587 41.0975L121.595 41.1108L121.604 41.124L121.612 41.1372L121.621 41.1504L121.63 41.1636L121.638 41.1768L121.647 41.19L121.655 41.2032L121.664 41.2164L121.672 41.2296L121.681 41.2428L121.689 41.256L121.698 41.2693L121.706 41.2825L121.715 41.2957L121.723 41.3089L121.732 41.3221L121.74 41.3353L121.749 41.3485L121.758 41.3617L121.766 41.3749L121.775 41.3881L121.783 41.4013L121.792 41.4146L121.8 41.4278L121.809 41.441L121.817 41.4542L121.826 41.4674L121.834 41.4806L121.843 41.4938L121.851 41.507L121.86 41.5202L121.868 41.5334L121.877 41.5466L121.886 41.5599L121.894 41.5731L121.903 41.5863L121.911 41.5995L121.92 41.6127L121.928 41.6259L121.937 41.6391L121.945 41.6523L121.954 41.6655L121.962 41.6787L121.971 41.692L121.979 41.7052L121.988 41.7184L121.997 41.7316L122.005 41.7448L122.014 41.758L122.022 41.7712L122.031 41.7844L122.039 41.7976L122.048 41.8108L122.056 41.8241L122.065 41.8373L122.073 41.8505L122.082 41.8637L122.09 41.8769L122.099 41.8901L122.107 41.9033L122.116 41.9165L122.125 41.9297L122.133 41.943L122.142 41.9562L122.15 41.9694L122.159 41.9826L122.167 41.9958L122.176 42.009L122.184 42.0222L122.193 42.0354L122.201 42.0487L122.21 42.0619L122.218 42.0751L122.227 42.0883L122.235 42.1015L122.244 42.1147L122.253 42.1279L122.261 42.1411L122.27 42.1543L122.278 42.1676L122.287 42.1808L122.295 42.194L122.304 42.2072L122.312 42.2204L122.321 42.2336L122.329 42.2468L122.338 42.26C122.41 42.3719 122.497 42.4907 122.571 42.593C122.594 42.6253 122.617 42.6559 122.637 42.6842C122.638 42.687 122.64 42.69 122.642 42.6931C122.67 42.7472 122.725 42.85 122.771 42.9216L122.785 42.943L122.799 42.9644L122.813 42.9858L122.826 43.0072L122.84 43.0286L122.854 43.05L122.868 43.0714L122.882 43.0928L122.895 43.1142L122.909 43.1356L122.923 43.157L122.937 43.1784L122.951 43.1998L122.965 43.2212L122.978 43.2426L122.992 43.264L123.006 43.2854L123.02 43.3068L123.034 43.3282L123.048 43.3496L123.061 43.371L123.075 43.3924L123.089 43.4138L123.103 43.4352L123.117 43.4566L123.131 43.478L123.144 43.4994L123.158 43.5208L123.172 43.5422L123.186 43.5636L123.2 43.585L123.213 43.6065L123.227 43.6279L123.241 43.6493L123.255 43.6707L123.269 43.6921L123.283 43.7135L123.296 43.7349L123.31 43.7563L123.324 43.7777L123.338 43.7991L123.352 43.8205L123.366 43.8419L123.379 43.8633L123.393 43.8847L123.407 43.9061L123.421 43.9275L123.435 43.9489L123.449 43.9703L123.462 43.9917L123.476 44.0131L123.49 44.0345L123.504 44.0559L123.518 44.0773L123.532 44.0987L123.545 44.1201L123.559 44.1415L123.573 44.1629L123.587 44.1843L123.601 44.2057L123.614 44.2271L123.628 44.2485L123.642 44.2699L123.656 44.2913L123.67 44.3127L123.684 44.3341L123.697 44.3555L123.711 44.3769L123.725 44.3983L123.739 44.4197L123.753 44.4411L123.767 44.4625L123.78 44.4839L123.794 44.5053L123.808 44.5267L123.822 44.5481L123.836 44.5696L123.85 44.591L123.863 44.6124L123.877 44.6338L123.891 44.6552L123.905 44.6766L123.919 44.698L123.933 44.7194L123.946 44.7408L123.96 44.7622L123.974 44.7836L123.988 44.805L124.002 44.8264L124.015 44.8478L124.029 44.8692L124.043 44.8906L124.057 44.912L124.071 44.9334L124.085 44.9548L124.098 44.9762L124.112 44.9976L124.126 45.019L124.14 45.0404L124.154 45.0618L124.168 45.0832L124.181 45.1046L124.195 45.126L124.209 45.1474L124.223 45.1688L124.237 45.1902L124.251 45.2116L124.264 45.233L124.278 45.2544L124.292 45.2758L124.306 45.2973L124.32 45.3187L124.334 45.3401L124.347 45.3615L124.361 45.3829L124.375 45.4043L124.389 45.4257L124.403 45.4471L124.416 45.4685L124.43 45.4899L124.444 45.5113L124.458 45.5327L124.472 45.5541L124.486 45.5755L124.499 45.5969L124.513 45.6183L124.527 45.6397L124.541 45.6611L124.555 45.6825L124.569 45.7039L124.582 45.7253L124.596 45.7467L124.61 45.7681L124.624 45.7895L124.638 45.8109L124.652 45.8323L124.665 45.8537L124.679 45.8752L124.693 45.8966L124.707 45.918L124.721 45.9394L124.735 45.9608L124.748 45.9822L124.762 46.0036L124.776 46.025L124.79 46.0464L124.804 46.0678L124.817 46.0892L124.831 46.1106L124.845 46.132L124.859 46.1534L124.873 46.1748L124.887 46.1962L124.9 46.2176L124.914 46.239L124.928 46.2604L124.942 46.2818L124.956 46.3032L124.97 46.3246L124.983 46.346L124.997 46.3674L125.011 46.3889L125.025 46.4103L125.039 46.4317L125.053 46.4531L125.066 46.4745L125.08 46.4959L125.094 46.5173L125.108 46.5387L125.122 46.5601L125.136 46.5815L125.149 46.6029L125.163 46.6243L125.177 46.6457L125.191 46.6671L125.205 46.6885L125.219 46.7099L125.232 46.7313L125.246 46.7527L125.26 46.7741L125.274 46.7955L125.288 46.8169L125.301 46.8384L125.315 46.8598L125.329 46.8812L125.343 46.9026L125.357 46.924L125.371 46.9454L125.384 46.9668L125.398 46.9882L125.412 47.0096L125.426 47.031L125.44 47.0524L125.454 47.0738L125.467 47.0952L125.481 47.1166L125.495 47.138L125.509 47.1594L125.523 47.1808L125.537 47.2022L125.55 47.2236L125.564 47.245L125.578 47.2665L125.592 47.2879L125.606 47.3093L125.62 47.3307L125.633 47.3521L125.647 47.3735L125.661 47.3949L125.675 47.4163L125.689 47.4377L125.703 47.4591L125.716 47.4805L125.73 47.5019L125.744 47.5233L125.758 47.5447L125.772 47.5661L125.785 47.5875L125.799 47.6089L125.813 47.6303L125.827 47.6518L125.841 47.6732L125.855 47.6946L125.868 47.716L125.882 47.7374L125.896 47.7588L125.91 47.7802L125.924 47.8016L125.938 47.823L125.951 47.8444L125.965 47.8658L125.979 47.8872L125.993 47.9086L126.007 47.93L126.021 47.9514L126.034 47.9728L126.048 47.9942L126.062 48.0157L126.076 48.0371L126.09 48.0585L126.104 48.0799L126.117 48.1013L126.131 48.1227L126.145 48.1441L126.159 48.1655L126.173 48.1869L126.187 48.2083L126.2 48.2297L126.214 48.2511L126.228 48.2725L126.242 48.2939L126.256 48.3153L126.27 48.3367L126.283 48.3582L126.297 48.3796L126.311 48.401L126.325 48.4224L126.339 48.4438L126.353 48.4652L126.366 48.4866L126.38 48.508L126.394 48.5294L126.408 48.5508L126.422 48.5722L126.435 48.5936L126.449 48.615L126.463 48.6364L126.477 48.6578L126.491 48.6792L126.505 48.7007L126.518 48.7221L126.532 48.7435L126.546 48.7649L126.56 48.7863L126.574 48.8077L126.588 48.8291L126.601 48.8505L126.615 48.8719L126.629 48.8933L126.643 48.9147L126.657 48.9361L126.671 48.9575L126.684 48.9789L126.698 49.0004L126.712 49.0218L126.726 49.0432L126.74 49.0646L126.754 49.086L126.767 49.1074L126.781 49.1288L126.795 49.1502L126.809 49.1716L126.823 49.193L126.837 49.2144L126.85 49.2358L126.864 49.2572L126.878 49.2786L126.892 49.3001L126.906 49.3215L126.92 49.3429L126.933 49.3643L126.947 49.3857L126.961 49.4071L126.975 49.4285L126.989 49.4499L127.003 49.4713L127.016 49.4927L127.03 49.5141L127.044 49.5355L127.058 49.5569L127.072 49.5783L127.086 49.5998L127.099 49.6212L127.113 49.6426L127.127 49.664L127.141 49.6854L127.155 49.7068L127.168 49.7282L127.182 49.7496L127.196 49.771L127.21 49.7924L127.224 49.8138L127.238 49.8352L127.251 49.8567L127.265 49.8781L127.279 49.8995L127.293 49.9209L127.307 49.9423L127.321 49.9637L127.334 49.9851L127.348 50.0065L127.362 50.0279L127.376 50.0493L127.39 50.0707L127.404 50.0921L127.417 50.1135L127.431 50.135L127.445 50.1564L127.459 50.1778L127.473 50.1992L127.487 50.2206L127.5 50.242L127.514 50.2634L127.528 50.2848L127.542 50.3062L127.556 50.3276L127.57 50.349L127.583 50.3704L127.597 50.3919L127.611 50.4133L127.625 50.4347L127.639 50.4561L127.653 50.4775L127.666 50.4989L127.68 50.5203L127.694 50.5417L127.708 50.5631L127.722 50.5845L127.736 50.6059L127.749 50.6273L127.763 50.6488L127.777 50.6702L127.791 50.6916L127.805 50.713L127.819 50.7344L127.832 50.7558L127.846 50.7772L127.86 50.7986L127.874 50.82L127.888 50.8414L127.902 50.8628L127.915 50.8843L127.929 50.9057L127.943 50.9271L127.957 50.9485L127.971 50.9699L127.985 50.9913L127.998 51.0127L128.012 51.0341L128.026 51.0555L128.04 51.0769L128.054 51.0983L128.067 51.1198L128.081 51.1412L128.095 51.1626L128.109 51.184L128.123 51.2054L128.137 51.2268L128.15 51.2482L128.164 51.2696L128.178 51.291L128.192 51.3124L128.206 51.3338L128.22 51.3553L128.233 51.3767L128.247 51.3981L128.261 51.4195L128.275 51.4409L128.289 51.4623L128.303 51.4837L128.316 51.5051L128.33 51.5265L128.344 51.5479L128.358 51.5693L128.372 51.5908L128.386 51.6122L128.399 51.6336L128.413 51.655L128.427 51.6764L128.441 51.6978L128.455 51.7192L128.469 51.7406L128.482 51.762L128.496 51.7834L128.51 51.8049L128.524 51.8263L128.538 51.8477L128.552 51.8691L128.565 51.8905L128.579 51.9119L128.593 51.9333L128.607 51.9547L128.621 51.9761L128.635 51.9975L128.648 52.019L128.662 52.0404L128.676 52.0618L128.69 52.0832L128.704 52.1046L128.718 52.126L128.731 52.1474L128.745 52.1688L128.759 52.1902L128.773 52.2116L128.787 52.2331L128.801 52.2545L128.814 52.2759L128.828 52.2973L128.842 52.3187L128.856 52.3401L128.87 52.3615L128.884 52.3829L128.897 52.4043L128.911 52.4257L128.925 52.4472L128.939 52.4686L128.953 52.49L128.967 52.5114L128.98 52.5328L128.994 52.5542L129.008 52.5756L129.022 52.597L129.036 52.6184L129.05 52.6399L129.063 52.6613L129.077 52.6827L129.091 52.7041L129.105 52.7255L129.119 52.7469L129.133 52.7683L129.146 52.7897L129.16 52.8111L129.174 52.8326L129.188 52.854L129.202 52.8754L129.216 52.8968L129.222 52.9067C128.834 52.6708 128.444 52.4384 128.057 52.2072C127.918 52.1244 127.779 52.0417 127.641 51.959L127.639 51.958C127.074 51.6229 126.524 51.2802 125.968 50.9338C125.633 50.7253 125.296 50.5154 124.952 50.305L124.952 50.3047C124.449 49.9978 123.94 49.6899 123.432 49.3828C123.013 49.1294 122.595 48.8765 122.183 48.6252C121.814 48.4005 121.443 48.1732 121.072 47.9454C120.541 47.6198 120.008 47.2931 119.476 46.9712C118.853 46.5932 118.228 46.217 117.604 45.8414C116.979 45.4656 116.356 45.0903 115.734 44.7133L115.734 44.7132C113.23 43.1969 110.728 41.6783 108.23 40.1574L108.229 40.1569C106.413 39.0555 104.597 37.9545 102.78 36.854C101.95 36.3486 101.123 35.8391 100.295 35.3286C99.9701 35.128 99.6445 34.9272 99.3184 34.7265C96.4205 30.241 93.5234 25.7549 90.627 21.2682C90.6905 21.2931 90.7546 21.3167 90.8194 21.3388L91.0479 21.4563L91.0479 21.4563L91.0532 21.459C91.1277 21.4964 91.204 21.5352 91.282 21.5749C91.6656 21.7702 92.0894 21.986 92.54 22.1449L92.6719 22.2126C93.0234 22.4214 93.3951 22.5973 93.7821 22.7381Z" fill="#FFBF17" stroke="white" stroke-width="1.11663"/>
<mask id="path-7-inside-2_397_8248" fill="white">
<path d="M73.5588 111.056C74.104 111.393 74.7327 111.553 75.3227 111.792C76.891 112.428 78.4762 113.026 80.0542 113.643C81.8306 114.337 83.6031 115.041 85.3809 115.732C87.3785 116.507 89.3829 117.266 91.3776 118.045C92.7457 118.579 94.1003 119.143 95.4683 119.675C97.0572 120.294 98.6605 120.885 100.249 121.501C101.859 122.128 103.456 122.784 105.066 123.415C106.287 123.894 107.526 124.336 108.74 124.832C109.139 124.994 109.597 125.059 109.92 125.373L109.666 125.36C109.198 125.252 108.723 125.172 108.244 125.118L108.234 125.117C107.39 124.952 106.541 124.805 105.684 124.695L105.395 124.647C104.651 124.49 103.901 124.365 103.146 124.27L103.043 124.251C102.844 124.187 102.635 124.153 102.423 124.151L102.337 124.136C102.035 124.051 101.722 124.004 101.406 123.996C101.167 123.893 100.909 123.88 100.651 123.862C100.491 123.794 100.316 123.763 100.14 123.77L100.145 123.771C100.117 123.751 100.085 123.737 100.051 123.732C100.017 123.726 99.982 123.727 99.9483 123.736L99.9553 123.738L99.851 123.719L99.5987 123.674C99.3781 123.632 99.158 123.584 98.9364 123.547C97.6552 123.338 96.3737 123.131 95.0919 122.925L95.0948 122.924C94.608 122.808 94.1127 122.725 93.6124 122.674L93.5202 122.658C93.323 122.593 93.1157 122.559 92.9058 122.556L92.8913 122.578L92.9061 122.556C92.6593 122.482 92.4028 122.439 92.1428 122.429C92.116 122.41 92.0852 122.397 92.0523 122.392C92.0195 122.386 91.9856 122.387 91.953 122.396C91.7499 122.341 91.5466 122.274 91.3281 122.316L91.1451 122.286L91.1405 122.279C91.1229 122.234 91.0866 122.234 91.0468 122.246L90.3773 122.132C90.1811 122.066 89.974 122.032 89.7642 122.031L89.6646 122.015L89.5723 121.999C88.4805 121.786 87.3836 121.596 86.2779 121.45L86.025 121.405C85.1655 121.23 84.2991 121.085 83.4258 120.971L83.335 120.957L83.2406 120.937L83.0478 120.905C82.8494 120.839 82.6404 120.805 82.4288 120.803C82.278 120.745 82.1154 120.717 81.9511 120.722L81.7548 120.688L81.6718 120.672L81.5616 120.655C81.4281 120.6 81.2821 120.576 81.1354 120.585L80.7604 120.522C80.6126 120.464 80.453 120.436 80.2918 120.441L80.1569 120.418L80.039 120.405L80.0437 120.402C79.4555 120.273 78.8593 120.176 78.2578 120.112L77.9939 120.068C77.9684 120.05 77.9386 120.038 77.907 120.033C77.8754 120.028 77.8429 120.031 77.8119 120.04L77.707 120.02C77.1443 119.896 76.5743 119.801 75.9994 119.736C75.3031 119.587 74.5996 119.469 73.8889 119.383C73.8822 119.374 73.8725 119.369 73.8617 119.367C73.8508 119.365 73.8394 119.367 73.8296 119.372L73.8115 119.355L73.7875 119.364L73.7202 119.357C73.5582 119.299 73.3861 119.269 73.2117 119.268L72.9466 119.225C72.7165 119.155 72.4764 119.116 72.2333 119.11C72.2064 119.089 72.1744 119.075 72.1402 119.069C72.106 119.063 72.0706 119.065 72.037 119.075L71.9477 119.058C71.8304 119.006 71.7009 118.984 71.5708 118.994L71.4613 118.975L71.3006 118.953L71.1392 118.926C71.0756 118.887 70.9982 118.872 70.9225 118.886L70.4649 118.811C70.3276 118.757 70.1787 118.732 70.0286 118.739L69.9549 118.726L69.8432 118.71L69.8532 118.712L69.7392 118.694C69.7368 118.689 69.7334 118.685 69.7291 118.682C69.7249 118.679 69.72 118.676 69.7147 118.675C69.7094 118.674 69.7039 118.674 69.6985 118.675C69.6931 118.676 69.688 118.678 69.6834 118.681C69.4019 118.602 69.1116 118.553 68.8174 118.535L68.7858 118.531C67.2646 118.24 65.7363 117.991 64.1977 117.764L64.1205 117.753L64.0511 117.741L63.9778 117.729C63.7988 117.667 63.609 117.635 63.417 117.636C62.9556 117.526 62.4866 117.444 62.0126 117.392L61.997 117.389L61.8575 117.369L61.7939 117.356C61.6121 117.297 61.421 117.265 61.2275 117.262C61.2217 117.254 61.2127 117.248 61.2024 117.246C61.1921 117.244 61.1813 117.246 61.1721 117.251L61.0449 117.252C61.0258 117.206 60.9893 117.209 60.9482 117.22C60.9222 117.202 60.892 117.189 60.86 117.183C60.8279 117.177 60.7947 117.179 60.7627 117.186L60.6418 117.164C58.8734 116.863 57.1047 116.561 55.3359 116.26C50.4974 115.449 45.6582 114.64 40.8182 113.833C40.7072 113.815 40.5938 113.808 40.4813 113.796C40.3502 113.766 40.2199 113.732 40.0876 113.709C38.7921 113.487 37.4976 113.266 36.2041 113.045C36.5665 112.846 36.9603 112.93 37.3361 112.907C39.3998 112.783 41.4644 112.683 43.5292 112.58C45.4327 112.486 47.3401 112.398 49.2436 112.303C51.2165 112.205 53.1896 112.098 55.161 111.996C56.9632 111.906 58.7651 111.823 60.5673 111.733C62.4604 111.638 64.353 111.542 66.2451 111.443C68.4805 111.329 70.7158 111.214 72.951 111.1C73.1214 111.091 73.2911 111.057 73.4615 111.035L73.5588 111.056Z"/>
</mask>
<path d="M73.5588 111.056C74.104 111.393 74.7327 111.553 75.3227 111.792C76.891 112.428 78.4762 113.026 80.0542 113.643C81.8306 114.337 83.6031 115.041 85.3809 115.732C87.3785 116.507 89.3829 117.266 91.3776 118.045C92.7457 118.579 94.1003 119.143 95.4683 119.675C97.0572 120.294 98.6605 120.885 100.249 121.501C101.859 122.128 103.456 122.784 105.066 123.415C106.287 123.894 107.526 124.336 108.74 124.832C109.139 124.994 109.597 125.059 109.92 125.373L109.666 125.36C109.198 125.252 108.723 125.172 108.244 125.118L108.234 125.117C107.39 124.952 106.541 124.805 105.684 124.695L105.395 124.647C104.651 124.49 103.901 124.365 103.146 124.27L103.043 124.251C102.844 124.187 102.635 124.153 102.423 124.151L102.337 124.136C102.035 124.051 101.722 124.004 101.406 123.996C101.167 123.893 100.909 123.88 100.651 123.862C100.491 123.794 100.316 123.763 100.14 123.77L100.145 123.771C100.117 123.751 100.085 123.737 100.051 123.732C100.017 123.726 99.982 123.727 99.9483 123.736L99.9553 123.738L99.851 123.719L99.5987 123.674C99.3781 123.632 99.158 123.584 98.9364 123.547C97.6552 123.338 96.3737 123.131 95.0919 122.925L95.0948 122.924C94.608 122.808 94.1127 122.725 93.6124 122.674L93.5202 122.658C93.323 122.593 93.1157 122.559 92.9058 122.556L92.8913 122.578L92.9061 122.556C92.6593 122.482 92.4028 122.439 92.1428 122.429C92.116 122.41 92.0852 122.397 92.0523 122.392C92.0195 122.386 91.9856 122.387 91.953 122.396C91.7499 122.341 91.5466 122.274 91.3281 122.316L91.1451 122.286L91.1405 122.279C91.1229 122.234 91.0866 122.234 91.0468 122.246L90.3773 122.132C90.1811 122.066 89.974 122.032 89.7642 122.031L89.6646 122.015L89.5723 121.999C88.4805 121.786 87.3836 121.596 86.2779 121.45L86.025 121.405C85.1655 121.23 84.2991 121.085 83.4258 120.971L83.335 120.957L83.2406 120.937L83.0478 120.905C82.8494 120.839 82.6404 120.805 82.4288 120.803C82.278 120.745 82.1154 120.717 81.9511 120.722L81.7548 120.688L81.6718 120.672L81.5616 120.655C81.4281 120.6 81.2821 120.576 81.1354 120.585L80.7604 120.522C80.6126 120.464 80.453 120.436 80.2918 120.441L80.1569 120.418L80.039 120.405L80.0437 120.402C79.4555 120.273 78.8593 120.176 78.2578 120.112L77.9939 120.068C77.9684 120.05 77.9386 120.038 77.907 120.033C77.8754 120.028 77.8429 120.031 77.8119 120.04L77.707 120.02C77.1443 119.896 76.5743 119.801 75.9994 119.736C75.3031 119.587 74.5996 119.469 73.8889 119.383C73.8822 119.374 73.8725 119.369 73.8617 119.367C73.8508 119.365 73.8394 119.367 73.8296 119.372L73.8115 119.355L73.7875 119.364L73.7202 119.357C73.5582 119.299 73.3861 119.269 73.2117 119.268L72.9466 119.225C72.7165 119.155 72.4764 119.116 72.2333 119.11C72.2064 119.089 72.1744 119.075 72.1402 119.069C72.106 119.063 72.0706 119.065 72.037 119.075L71.9477 119.058C71.8304 119.006 71.7009 118.984 71.5708 118.994L71.4613 118.975L71.3006 118.953L71.1392 118.926C71.0756 118.887 70.9982 118.872 70.9225 118.886L70.4649 118.811C70.3276 118.757 70.1787 118.732 70.0286 118.739L69.9549 118.726L69.8432 118.71L69.8532 118.712L69.7392 118.694C69.7368 118.689 69.7334 118.685 69.7291 118.682C69.7249 118.679 69.72 118.676 69.7147 118.675C69.7094 118.674 69.7039 118.674 69.6985 118.675C69.6931 118.676 69.688 118.678 69.6834 118.681C69.4019 118.602 69.1116 118.553 68.8174 118.535L68.7858 118.531C67.2646 118.24 65.7363 117.991 64.1977 117.764L64.1205 117.753L64.0511 117.741L63.9778 117.729C63.7988 117.667 63.609 117.635 63.417 117.636C62.9556 117.526 62.4866 117.444 62.0126 117.392L61.997 117.389L61.8575 117.369L61.7939 117.356C61.6121 117.297 61.421 117.265 61.2275 117.262C61.2217 117.254 61.2127 117.248 61.2024 117.246C61.1921 117.244 61.1813 117.246 61.1721 117.251L61.0449 117.252C61.0258 117.206 60.9893 117.209 60.9482 117.22C60.9222 117.202 60.892 117.189 60.86 117.183C60.8279 117.177 60.7947 117.179 60.7627 117.186L60.6418 117.164C58.8734 116.863 57.1047 116.561 55.3359 116.26C50.4974 115.449 45.6582 114.64 40.8182 113.833C40.7072 113.815 40.5938 113.808 40.4813 113.796C40.3502 113.766 40.2199 113.732 40.0876 113.709C38.7921 113.487 37.4976 113.266 36.2041 113.045C36.5665 112.846 36.9603 112.93 37.3361 112.907C39.3998 112.783 41.4644 112.683 43.5292 112.58C45.4327 112.486 47.3401 112.398 49.2436 112.303C51.2165 112.205 53.1896 112.098 55.161 111.996C56.9632 111.906 58.7651 111.823 60.5673 111.733C62.4604 111.638 64.353 111.542 66.2451 111.443C68.4805 111.329 70.7158 111.214 72.951 111.1C73.1214 111.091 73.2911 111.057 73.4615 111.035L73.5588 111.056Z" fill="#FB8B00" stroke="white" stroke-width="2.23327" mask="url(#path-7-inside-2_397_8248)"/>
<mask id="path-8-inside-3_397_8248" fill="white">
<path d="M110.409 124.992C110.245 124.809 110.339 124.592 110.349 124.392C110.432 123.089 110.519 121.785 110.611 120.482C110.73 118.796 110.857 117.111 110.972 115.425C111.087 113.739 111.191 112.031 111.303 110.334C111.467 107.881 111.634 105.428 111.802 102.975C111.916 101.334 112.044 99.6925 112.153 98.0513C112.291 95.9577 112.417 93.8712 112.554 91.7782C112.655 90.2875 112.764 88.8004 112.872 87.3116C112.89 87.1913 112.881 87.0695 112.848 86.9538L112.871 86.8625C113.398 86.0901 113.806 85.2557 114.267 84.4495C115.045 83.0882 115.798 81.7135 116.562 80.3445C117.326 78.9756 118.101 77.5877 118.87 76.2099C119.729 74.6755 120.587 73.1415 121.446 71.6078C122.21 70.2387 122.972 68.8693 123.734 67.4996C124.514 66.1019 125.297 64.7052 126.082 63.3097C126.941 61.7755 127.8 60.2414 128.658 58.7073C129.288 57.5839 129.918 56.4606 130.548 55.3376C130.607 55.2313 130.665 55.1179 130.798 55.0721C130.833 55.1849 130.771 55.2835 130.739 55.3879C130.455 56.3931 130.168 57.3978 129.879 58.4018L129.834 58.5628C129.753 58.7234 129.704 58.8958 129.687 59.0716L129.581 59.4153C129.515 59.5388 129.476 59.6735 129.467 59.8108L129.379 60.1182L129.352 60.2023L129.33 60.2689C129.263 60.4037 129.222 60.5484 129.208 60.696L129.2 60.7182C129.102 60.947 129.033 61.1855 128.994 61.4286C128.693 62.3571 128.413 63.294 128.176 64.2404C128.154 64.2626 128.137 64.2896 128.127 64.3191C128.118 64.3487 128.116 64.3798 128.122 64.4098C127.913 65.008 127.736 65.6153 127.591 66.2292C127.421 66.6907 127.284 67.162 127.181 67.6397L127.162 67.7001C127.088 67.8564 127.039 68.0223 127.017 68.1916L126.982 68.3178C126.907 68.4584 126.863 68.6116 126.853 68.7675C126.798 68.845 126.769 68.9363 126.77 69.0288C126.691 69.205 126.639 69.3901 126.613 69.5787L126.632 69.5965L126.618 69.575C126.566 69.6415 126.543 69.7237 126.552 69.8047C126.53 69.8297 126.514 69.8589 126.505 69.8902C126.496 69.9214 126.494 69.9541 126.5 69.9856C126.373 70.304 126.276 70.6318 126.209 70.9651L126.193 71.029L126.168 71.1221L126.142 71.2096C125.606 72.9227 125.103 74.6437 124.634 76.3725C124.534 76.5999 124.465 76.8378 124.428 77.0805L124.412 77.1406L124.383 77.2355L124.354 77.3307L124.356 77.3234L124.325 77.4194L124.326 77.4128C124.281 77.4674 124.26 77.536 124.266 77.604C124.178 77.8102 124.116 78.0251 124.081 78.2441C124.014 78.369 123.973 78.5044 123.961 78.6429L123.912 78.8048C123.827 78.9968 123.77 79.1985 123.743 79.404C123.642 79.6417 123.569 79.8892 123.526 80.1414L123.478 80.3195C123.244 81.0024 123.043 81.6936 122.876 82.3933C122.487 83.5863 122.14 84.7899 121.82 85.9996C121.815 86.0099 121.812 86.0209 121.81 86.0321C121.664 86.4116 121.551 86.8013 121.473 87.1973C121.408 87.3043 121.371 87.4242 121.364 87.5465L121.092 88.4803C120.986 88.7413 120.908 89.0116 120.861 89.2867L120.839 89.3677C120.763 89.5397 120.674 89.7092 120.676 89.9011L120.66 89.9674C120.406 90.7231 120.183 91.4866 119.991 92.2578L119.972 92.3235C119.561 93.6276 119.174 94.9373 118.829 96.2555L118.809 96.3175C118.733 96.4733 118.684 96.6393 118.663 96.8088L118.626 96.9395C118.552 97.0786 118.509 97.2302 118.499 97.3847C118.433 97.4979 118.396 97.6243 118.391 97.7528C118.316 97.8983 118.27 98.0555 118.256 98.216C118.252 98.2176 118.248 98.22 118.245 98.223C118.242 98.226 118.24 98.2297 118.239 98.2336C118.237 98.2376 118.237 98.2418 118.237 98.2458C118.238 98.2499 118.239 98.2538 118.242 98.2572L118.223 98.325L118.178 98.4856C118.032 98.8639 117.919 99.2522 117.839 99.6466C117.817 99.6721 117.801 99.7015 117.792 99.733C117.783 99.7644 117.781 99.7971 117.785 99.8291C117.709 99.9717 117.664 100.127 117.653 100.285C117.454 100.943 117.249 101.599 117.057 102.259C116.649 103.666 116.244 105.073 115.844 106.481C115.81 106.556 115.745 106.623 115.763 106.714C115.743 106.796 115.722 106.878 115.703 106.96L115.697 106.988L115.668 107.083L115.641 107.168L115.611 107.269L115.585 107.355L115.562 107.438C115.471 107.627 115.412 107.827 115.388 108.033L115.344 108.162L115.341 108.172L114.978 109.439L114.936 109.593C114.803 109.933 114.701 110.283 114.63 110.639C114.504 110.947 114.412 111.265 114.352 111.59C114.301 111.663 114.275 111.75 114.276 111.837C113.884 113.093 113.508 114.353 113.176 115.623L113.179 115.621C113.156 115.647 113.139 115.677 113.13 115.71C113.121 115.742 113.119 115.776 113.125 115.809L113.124 115.806C113.053 115.931 113.011 116.07 113.003 116.211C112.941 116.325 112.905 116.451 112.898 116.579C112.853 116.607 112.855 116.648 112.863 116.691L112.714 117.2C112.626 117.392 112.568 117.595 112.542 117.801C112.488 117.88 112.462 117.973 112.467 118.066C112.386 118.222 112.335 118.391 112.317 118.563L112.275 118.718C112.187 118.901 112.13 119.096 112.108 119.295L112.111 119.293C111.784 120.275 111.503 121.267 111.24 122.266L111.196 122.421L110.409 124.992Z"/>
</mask>
<path d="M110.409 124.992C110.245 124.809 110.339 124.592 110.349 124.392C110.432 123.089 110.519 121.785 110.611 120.482C110.73 118.796 110.857 117.111 110.972 115.425C111.087 113.739 111.191 112.031 111.303 110.334C111.467 107.881 111.634 105.428 111.802 102.975C111.916 101.334 112.044 99.6925 112.153 98.0513C112.291 95.9577 112.417 93.8712 112.554 91.7782C112.655 90.2875 112.764 88.8004 112.872 87.3116C112.89 87.1913 112.881 87.0695 112.848 86.9538L112.871 86.8625C113.398 86.0901 113.806 85.2557 114.267 84.4495C115.045 83.0882 115.798 81.7135 116.562 80.3445C117.326 78.9756 118.101 77.5877 118.87 76.2099C119.729 74.6755 120.587 73.1415 121.446 71.6078C122.21 70.2387 122.972 68.8693 123.734 67.4996C124.514 66.1019 125.297 64.7052 126.082 63.3097C126.941 61.7755 127.8 60.2414 128.658 58.7073C129.288 57.5839 129.918 56.4606 130.548 55.3376C130.607 55.2313 130.665 55.1179 130.798 55.0721C130.833 55.1849 130.771 55.2835 130.739 55.3879C130.455 56.3931 130.168 57.3978 129.879 58.4018L129.834 58.5628C129.753 58.7234 129.704 58.8958 129.687 59.0716L129.581 59.4153C129.515 59.5388 129.476 59.6735 129.467 59.8108L129.379 60.1182L129.352 60.2023L129.33 60.2689C129.263 60.4037 129.222 60.5484 129.208 60.696L129.2 60.7182C129.102 60.947 129.033 61.1855 128.994 61.4286C128.693 62.3571 128.413 63.294 128.176 64.2404C128.154 64.2626 128.137 64.2896 128.127 64.3191C128.118 64.3487 128.116 64.3798 128.122 64.4098C127.913 65.008 127.736 65.6153 127.591 66.2292C127.421 66.6907 127.284 67.162 127.181 67.6397L127.162 67.7001C127.088 67.8564 127.039 68.0223 127.017 68.1916L126.982 68.3178C126.907 68.4584 126.863 68.6116 126.853 68.7675C126.798 68.845 126.769 68.9363 126.77 69.0288C126.691 69.205 126.639 69.3901 126.613 69.5787L126.632 69.5965L126.618 69.575C126.566 69.6415 126.543 69.7237 126.552 69.8047C126.53 69.8297 126.514 69.8589 126.505 69.8902C126.496 69.9214 126.494 69.9541 126.5 69.9856C126.373 70.304 126.276 70.6318 126.209 70.9651L126.193 71.029L126.168 71.1221L126.142 71.2096C125.606 72.9227 125.103 74.6437 124.634 76.3725C124.534 76.5999 124.465 76.8378 124.428 77.0805L124.412 77.1406L124.383 77.2355L124.354 77.3307L124.356 77.3234L124.325 77.4194L124.326 77.4128C124.281 77.4674 124.26 77.536 124.266 77.604C124.178 77.8102 124.116 78.0251 124.081 78.2441C124.014 78.369 123.973 78.5044 123.961 78.6429L123.912 78.8048C123.827 78.9968 123.77 79.1985 123.743 79.404C123.642 79.6417 123.569 79.8892 123.526 80.1414L123.478 80.3195C123.244 81.0024 123.043 81.6936 122.876 82.3933C122.487 83.5863 122.14 84.7899 121.82 85.9996C121.815 86.0099 121.812 86.0209 121.81 86.0321C121.664 86.4116 121.551 86.8013 121.473 87.1973C121.408 87.3043 121.371 87.4242 121.364 87.5465L121.092 88.4803C120.986 88.7413 120.908 89.0116 120.861 89.2867L120.839 89.3677C120.763 89.5397 120.674 89.7092 120.676 89.9011L120.66 89.9674C120.406 90.7231 120.183 91.4866 119.991 92.2578L119.972 92.3235C119.561 93.6276 119.174 94.9373 118.829 96.2555L118.809 96.3175C118.733 96.4733 118.684 96.6393 118.663 96.8088L118.626 96.9395C118.552 97.0786 118.509 97.2302 118.499 97.3847C118.433 97.4979 118.396 97.6243 118.391 97.7528C118.316 97.8983 118.27 98.0555 118.256 98.216C118.252 98.2176 118.248 98.22 118.245 98.223C118.242 98.226 118.24 98.2297 118.239 98.2336C118.237 98.2376 118.237 98.2418 118.237 98.2458C118.238 98.2499 118.239 98.2538 118.242 98.2572L118.223 98.325L118.178 98.4856C118.032 98.8639 117.919 99.2522 117.839 99.6466C117.817 99.6721 117.801 99.7015 117.792 99.733C117.783 99.7644 117.781 99.7971 117.785 99.8291C117.709 99.9717 117.664 100.127 117.653 100.285C117.454 100.943 117.249 101.599 117.057 102.259C116.649 103.666 116.244 105.073 115.844 106.481C115.81 106.556 115.745 106.623 115.763 106.714C115.743 106.796 115.722 106.878 115.703 106.96L115.697 106.988L115.668 107.083L115.641 107.168L115.611 107.269L115.585 107.355L115.562 107.438C115.471 107.627 115.412 107.827 115.388 108.033L115.344 108.162L115.341 108.172L114.978 109.439L114.936 109.593C114.803 109.933 114.701 110.283 114.63 110.639C114.504 110.947 114.412 111.265 114.352 111.59C114.301 111.663 114.275 111.75 114.276 111.837C113.884 113.093 113.508 114.353 113.176 115.623L113.179 115.621C113.156 115.647 113.139 115.677 113.13 115.71C113.121 115.742 113.119 115.776 113.125 115.809L113.124 115.806C113.053 115.931 113.011 116.07 113.003 116.211C112.941 116.325 112.905 116.451 112.898 116.579C112.853 116.607 112.855 116.648 112.863 116.691L112.714 117.2C112.626 117.392 112.568 117.595 112.542 117.801C112.488 117.88 112.462 117.973 112.467 118.066C112.386 118.222 112.335 118.391 112.317 118.563L112.275 118.718C112.187 118.901 112.13 119.096 112.108 119.295L112.111 119.293C111.784 120.275 111.503 121.267 111.24 122.266L111.196 122.421L110.409 124.992Z" fill="#FB8B00" stroke="white" stroke-width="2.23327" mask="url(#path-8-inside-3_397_8248)"/>
<path d="M112.047 86.7787C111.943 86.6642 111.839 86.5498 111.735 86.4355C111.208 85.8579 110.686 85.2846 110.153 84.718L110.152 84.7175C109.048 83.5413 107.956 82.3529 106.871 81.1621C105.945 80.1457 105.006 79.1439 104.064 78.1389C103.591 77.6347 103.118 77.1298 102.645 76.6217C102.148 76.0879 101.651 75.5508 101.154 75.0144C100.765 74.5936 100.375 74.1733 99.9869 73.7552C99.7158 73.4637 99.4419 73.1711 99.1673 72.8777C98.722 72.4019 98.2748 71.9241 97.8344 71.4454M112.047 86.7787L103.06 76.2518C102.563 75.7179 102.068 75.1827 101.572 74.6475C101.182 74.2267 100.793 73.8059 100.402 73.3858C100.128 73.091 99.8534 72.7972 99.5783 72.5033C99.1347 72.0293 98.6911 71.5554 98.2518 71.078C97.8062 70.5938 97.3631 70.1072 96.9201 69.6207C96.4566 69.1117 95.9931 68.6027 95.5266 68.0963M112.047 86.7787C112.047 86.7789 112.047 86.7791 112.046 86.7793L73.7509 110.271L73.4058 109.451L72.8247 108.069L72.8245 108.068C72.2802 106.777 71.7345 105.486 71.1875 104.195C71.0136 103.784 70.8396 103.374 70.6658 102.965C70.4195 102.385 70.1736 101.805 69.9286 101.224C69.423 100.024 68.9194 98.8219 68.4177 97.619L68.4175 97.6186L68.4172 97.618C67.6676 95.8244 66.9174 94.0294 66.1588 92.2378C65.8792 91.5759 65.598 90.9197 65.3175 90.265C64.9063 89.3053 64.4965 88.3489 64.0951 87.3826C63.7926 86.6507 63.4782 85.9048 63.1646 85.161C62.883 84.493 62.6022 83.8268 62.3314 83.1741C62.3314 83.174 62.3314 83.174 62.3314 83.174L61.809 83.3774C61.1477 81.7825 60.47 80.1938 59.7906 78.6061C59.5701 78.0874 59.3526 77.568 59.1351 77.0487C58.8869 76.456 58.6388 75.8634 58.3865 75.2723L112.047 86.7787ZM97.8344 71.4454L98.2457 71.0833L97.8344 71.4455C97.8344 71.4454 97.8344 71.4454 97.8344 71.4454ZM97.8344 71.4454C97.3875 70.9599 96.9434 70.4722 96.5005 69.9857L96.47 69.9523C96.0167 69.4545 95.5645 68.958 95.1096 68.4643M95.1096 68.4643L95.5266 68.0963M95.1096 68.4643C95.1096 68.4642 95.1095 68.4641 95.1094 68.4641L95.5266 68.0963M95.1096 68.4643C94.7964 68.1247 94.4791 67.7879 94.1593 67.4489L94.1216 67.4089C93.8149 67.0838 93.506 66.7564 93.2003 66.4259L93.2003 66.4258C92.7432 65.9317 92.2734 65.4194 91.8047 64.9083C91.3613 64.4248 90.9188 63.9424 90.489 63.4772L90.4886 63.4768C90.2688 63.2384 90.0453 63.0025 89.8189 62.7635L89.8056 62.7494C89.5843 62.5159 89.3603 62.2795 89.1388 62.0398L90.9056 63.1088C91.3467 63.5862 91.7859 64.0652 92.2252 64.5442C92.6883 65.0492 93.1513 65.5541 93.6167 66.0573C93.9208 66.386 94.2282 66.7119 94.5357 67.0379C94.8673 67.3895 95.199 67.7411 95.5266 68.0963M58.9734 75.2202C59.2016 75.7566 59.4305 76.3032 59.6588 76.8481C59.8771 77.3696 60.0949 77.8895 60.3109 78.3977L58.9734 75.2202ZM58.9734 75.2202L82.6333 60.7061L82.6407 60.7015L82.6482 60.697L82.6556 60.6924L82.663 60.6879L82.6705 60.6833L82.6779 60.6787L82.6853 60.6742L82.6928 60.6696L82.7002 60.665L82.7077 60.6605L82.7151 60.6559L82.7225 60.6514L82.73 60.6468L82.7374 60.6422L82.7448 60.6377L82.7523 60.6331L82.7597 60.6285L82.7671 60.624L82.7746 60.6194L82.782 60.6149L82.7895 60.6103L82.7969 60.6057L82.8043 60.6012L82.8118 60.5966L82.8192 60.592L82.8266 60.5875L82.8341 60.5829L82.8415 60.5784L82.849 60.5738L82.8564 60.5692L82.8638 60.5647L82.8713 60.5601L82.8787 60.5555L82.8861 60.551L82.8936 60.5464L82.901 60.5419L82.9085 60.5373L82.9159 60.5327L82.9233 60.5282L82.9308 60.5236L82.9382 60.519L82.9456 60.5145L82.9531 60.5099L82.9605 60.5054L82.9679 60.5008L82.9754 60.4962L82.9828 60.4917L82.9903 60.4871L82.9977 60.4826L83.0051 60.478L83.0126 60.4734L83.02 60.4689L83.0274 60.4643L83.0349 60.4597L83.0423 60.4552L83.0498 60.4506L83.0572 60.4461L83.0646 60.4415L83.0721 60.4369L83.0795 60.4324L83.0869 60.4278L83.0944 60.4232L83.1018 60.4187L83.1093 60.4141L83.1167 60.4096L83.1241 60.405L83.1316 60.4004L83.139 60.3959L83.1464 60.3913L83.1539 60.3867L83.1613 60.3822L83.1687 60.3776L83.1762 60.3731L83.1836 60.3685L83.1911 60.3639L83.1985 60.3594L83.2059 60.3548L83.2134 60.3503L83.2208 60.3457L83.2282 60.3411L83.2357 60.3366L83.2431 60.332L83.2505 60.3274L83.258 60.3229L83.2654 60.3183L83.2729 60.3138L83.2803 60.3092L83.2877 60.3046L83.2952 60.3001L83.3026 60.2955L83.31 60.2909L83.3175 60.2864L83.3249 60.2818L83.3323 60.2773L83.3398 60.2727L83.3472 60.2681L83.3547 60.2636L83.3621 60.259L83.3695 60.2545L83.377 60.2499L83.3844 60.2453L83.3918 60.2408L83.3993 60.2362L83.4067 60.2316L83.4141 60.2271L83.4216 60.2225L83.429 60.218L83.4365 60.2134L83.4439 60.2088L83.4513 60.2043L83.4588 60.1997L83.4662 60.1951L83.4736 60.1906L83.4811 60.186L83.4885 60.1815L83.496 60.1769L83.5034 60.1723L83.5108 60.1678L83.5183 60.1632L83.5257 60.1587L83.5331 60.1541L83.5406 60.1495L83.548 60.145L83.5554 60.1404L83.5629 60.1358L83.5703 60.1313L83.5777 60.1267L83.5852 60.1222L83.5926 60.1176L83.6001 60.113L83.6075 60.1085L83.6149 60.1039L83.6224 60.0994L83.6298 60.0948L83.6372 60.0902L83.6447 60.0857L83.6521 60.0811L83.6595 60.0765L83.667 60.072L83.6744 60.0674L83.6819 60.0629L83.6893 60.0583L83.6967 60.0537L83.7042 60.0492L83.7116 60.0446L83.719 60.0401L83.7265 60.0355L83.7339 60.0309L83.7413 60.0264L83.7488 60.0218L83.7562 60.0172L83.7637 60.0127L83.7711 60.0081L83.7785 60.0036L83.786 59.999L83.7934 59.9944L83.8008 59.9899L83.8083 59.9853L83.8157 59.9807L83.8231 59.9762L83.8306 59.9716L83.838 59.9671L83.8454 59.9625L83.8529 59.9579L83.8603 59.9534L83.8678 59.9488L83.8752 59.9443L83.8826 59.9397L83.8901 59.9351L83.8975 59.9306L83.9049 59.926L83.9124 59.9215L83.9198 59.9169L83.9272 59.9123L83.9347 59.9078L83.9421 59.9032L83.9495 59.8986L83.957 59.8941L83.9644 59.8895L83.9719 59.885L83.9793 59.8804L83.9867 59.8758L83.9942 59.8713L84.0016 59.8667L84.009 59.8622L84.0165 59.8576L84.0239 59.853L84.0313 59.8485L84.0388 59.8439L84.0462 59.8393L84.0536 59.8348L84.0611 59.8302L84.0685 59.8257L84.076 59.8211L84.0834 59.8165L84.0908 59.812L84.0983 59.8074L84.1057 59.8029L84.1131 59.7983L84.1206 59.7937L84.128 59.7892L84.1354 59.7846L84.1429 59.78L84.1503 59.7755L84.1577 59.7709L84.1652 59.7664L84.1726 59.7618L84.1801 59.7572L84.1875 59.7527L84.1949 59.7481L84.2024 59.7436L84.2098 59.739L84.2172 59.7344L84.2247 59.7299L84.2321 59.7253L84.2395 59.7208L84.247 59.7162L84.2544 59.7116L84.2618 59.7071L84.2693 59.7025L84.2767 59.6979L84.2841 59.6934L84.2916 59.6888L84.299 59.6843L84.3065 59.6797L84.3139 59.6751L84.3213 59.6706L84.3288 59.666L84.3362 59.6615L84.3436 59.6569L84.3511 59.6523L84.3585 59.6478L84.3659 59.6432L84.3734 59.6387L84.3808 59.6341L84.3882 59.6295L84.3957 59.625L84.4031 59.6204L84.4105 59.6158L84.418 59.6113L84.4254 59.6067L84.4329 59.6022L84.4403 59.5976L84.4477 59.593L84.4552 59.5885L84.4626 59.5839L84.47 59.5794L84.4775 59.5748L84.4849 59.5702L84.4923 59.5657L84.4998 59.5611L84.5072 59.5566L84.5146 59.552L84.5221 59.5474L84.5295 59.5429L84.5369 59.5383L84.5444 59.5337L84.5518 59.5292L84.5593 59.5246L84.5667 59.5201L84.5741 59.5155L84.5816 59.5109L84.589 59.5064L84.5964 59.5018L84.6039 59.4973L84.6113 59.4927L84.6187 59.4881L84.6262 59.4836L84.6336 59.479L84.641 59.4745L84.6485 59.4699L84.6559 59.4653L84.6633 59.4608L84.6708 59.4562L84.6782 59.4516L84.6856 59.4471L84.6931 59.4425L84.7005 59.438L84.708 59.4334L84.7154 59.4288L84.7228 59.4243L84.7303 59.4197L84.7377 59.4152L84.7451 59.4106L84.7526 59.406L84.76 59.4015L84.7674 59.3969L84.7749 59.3924L84.7823 59.3878L84.7897 59.3832L84.7972 59.3787L84.8046 59.3741L84.812 59.3696L84.8195 59.365L84.8269 59.3604L84.8343 59.3559L84.8418 59.3513L84.8492 59.3467L84.8566 59.3422L84.8641 59.3376L84.8715 59.3331L84.8789 59.3285L84.8864 59.3239L84.8938 59.3194L84.9013 59.3148L84.9087 59.3103L84.9161 59.3057L84.9236 59.3011L84.931 59.2966L84.9384 59.292L84.9459 59.2875L84.9533 59.2829L84.9607 59.2783L84.9682 59.2738L84.9756 59.2692L84.983 59.2647L84.9905 59.2601L84.9979 59.2555L85.0053 59.251L85.0128 59.2464L85.0202 59.2419L85.0276 59.2373L85.0351 59.2327L85.0425 59.2282L85.0499 59.2236L85.0574 59.2191L85.0648 59.2145L85.0722 59.2099L85.0797 59.2054L85.0871 59.2008L85.0946 59.1962L85.102 59.1917L85.1094 59.1871L85.1169 59.1826L85.1243 59.178L85.1317 59.1734L85.1392 59.1689L85.1466 59.1643L85.154 59.1598L85.1615 59.1552L85.1689 59.1506L85.1763 59.1461L85.1838 59.1415L85.1912 59.137L85.1986 59.1324L85.2061 59.1278L85.2135 59.1233L85.2209 59.1187L85.2284 59.1142L85.2358 59.1096L85.2432 59.105L85.2507 59.1005L85.2581 59.0959L85.2655 59.0914L85.273 59.0868L85.2804 59.0822L85.2878 59.0777L85.2953 59.0731L85.3027 59.0686L85.3101 59.064L85.3176 59.0594L85.325 59.0549L85.3324 59.0503L85.3399 59.0458L85.3473 59.0412L85.3547 59.0366L85.3622 59.0321L85.3696 59.0275L85.3771 59.0229L85.3845 59.0184L85.3919 59.0138L85.3994 59.0093L85.4068 59.0047L85.4142 59.0001L85.4217 58.9956L85.4291 58.991L85.4365 58.9865L85.444 58.9819L85.4514 58.9773L85.4588 58.9728L85.4663 58.9682L85.4737 58.9637L85.4811 58.9591L85.4886 58.9545L85.496 58.95L85.5034 58.9454L85.5109 58.9409L85.5183 58.9363L85.5257 58.9317L85.5332 58.9272L85.5406 58.9226L85.548 58.9181L85.5555 58.9135L85.5629 58.9089L85.5703 58.9044L85.5778 58.8998L85.5852 58.8953L85.5926 58.8907L85.6001 58.8861L85.6075 58.8816L85.6149 58.877L85.6224 58.8725L85.6298 58.8679L85.6372 58.8633L85.6447 58.8588L85.6521 58.8542L85.6595 58.8497L85.667 58.8451L85.6744 58.8405L85.6818 58.836L85.6893 58.8314L85.6967 58.8269L85.7041 58.8223L85.7116 58.8177L85.719 58.8132L85.7264 58.8086L85.7339 58.8041L85.7413 58.7995L85.7487 58.7949L85.7562 58.7904L85.7636 58.7858L85.771 58.7813L85.7785 58.7767L85.7859 58.7721L85.7933 58.7676L85.8008 58.763L85.8082 58.7585L85.8156 58.7539L85.8231 58.7493L85.8305 58.7448L85.8379 58.7402L85.8454 58.7357L85.8528 58.7311L85.8602 58.7265L85.8677 58.722L85.8751 58.7174L85.8825 58.7129L85.89 58.7083L85.8974 58.7037L85.9048 58.6992L85.9123 58.6946L85.9197 58.6901L85.9271 58.6855L85.9346 58.6809L85.942 58.6764L85.9494 58.6718L85.9569 58.6673L85.9643 58.6627L85.9717 58.6581L85.9792 58.6536L85.9866 58.649L85.994 58.6445L86.0005 58.6405M58.9734 75.2202L86.0005 58.6405M86.0005 58.6405C86.0633 58.7128 86.1264 58.7817 86.1882 58.8475C86.2741 58.9388 86.3487 59.0152 86.4194 59.0877C86.5116 59.1822 86.5972 59.27 86.6928 59.3752L86.6935 59.3759C87.5052 60.2662 88.3203 61.1542 89.1388 62.0398L86.0005 58.6405Z" fill="#FFBF17" stroke="white" stroke-width="1.11663"/>
</g>
<defs>
<clipPath id="clip0_397_8248">
<rect width="111.715" height="113.408" fill="white" transform="matrix(0.852396 -0.522898 0.542657 0.839955 0.899414 59.0352)"/>
</clipPath>
</defs>
</svg>
