<svg width="983" height="449" viewBox="0 0 983 449" fill="none" xmlns="http://www.w3.org/2000/svg">
<g clip-path="url(#clip0_397_4773)">
<path d="M183.159 258.621C183.806 260.476 184.193 262.411 184.309 264.372C184.693 267.439 184.884 270.123 184.501 270.123C183.854 268.268 183.467 266.333 183.351 264.372C183.006 262.475 182.942 260.537 183.159 258.621Z" fill="#2267AC"/>
<path d="M178.174 236.19C178.557 235.998 179.324 238.49 180.091 241.558C180.67 243.422 180.993 245.357 181.049 247.308C180.138 245.628 179.492 243.818 179.132 241.941C178.566 240.073 178.244 238.14 178.174 236.19Z" fill="#2267AC"/>
<path d="M170.699 214.336C171.731 215.957 172.568 217.694 173.191 219.512C174.341 222.579 175.108 225.071 174.725 225.071C172.748 221.764 171.384 218.127 170.699 214.336Z" fill="#2267AC"/>
<path d="M160.539 193.633C161.821 195.12 162.856 196.803 163.606 198.617C164.69 200.253 165.469 202.071 165.907 203.984C164.702 202.443 163.673 200.771 162.839 199C161.756 197.364 160.976 195.546 160.539 193.633Z" fill="#2267AC"/>
<path d="M147.887 174.465C149.423 175.688 150.722 177.183 151.721 178.874C152.891 180.404 153.858 182.079 154.596 183.858C154.213 184.05 152.679 182.133 150.762 179.449C149.592 177.919 148.625 176.244 147.887 174.465Z" fill="#2267AC"/>
<path d="M133.125 156.826C134.775 157.886 136.207 159.253 137.342 160.852C138.756 162.169 139.925 163.727 140.793 165.453C140.409 165.644 138.684 163.919 136.576 161.427C135.162 160.11 133.993 158.552 133.125 156.826Z" fill="#2267AC"/>
<path d="M116.83 140.533C118.457 141.543 119.94 142.769 121.239 144.175C122.735 145.441 124.028 146.928 125.073 148.584C123.446 147.574 121.963 146.349 120.664 144.942C119.119 143.728 117.818 142.232 116.83 140.533Z" fill="#2267AC"/>
<path d="M99.1962 125.773C100.906 126.685 102.513 127.777 103.989 129.032C106.481 130.949 108.206 132.866 108.014 133.058C106.274 132.197 104.662 131.101 103.222 129.799C100.73 127.882 99.0045 125.965 99.1962 125.773Z" fill="#2267AC"/>
<path d="M80.4077 112.547C82.1822 113.213 83.8587 114.116 85.3919 115.231C88.0756 117.148 89.9926 118.681 89.8009 118.873C89.6092 119.065 87.5005 117.914 84.8168 116.189C82.133 114.464 80.216 112.739 80.4077 112.547Z" fill="#2267AC"/>
<path d="M60.2793 101.043C60.471 100.66 62.9631 101.81 65.6468 103.343C67.4064 104.087 69.027 105.124 70.4393 106.411C70.4393 106.794 67.9472 105.644 65.2634 104.11C63.493 103.277 61.8212 102.248 60.2793 101.043Z" fill="#2267AC"/>
<path d="M39.3867 91.6504C41.2424 91.9934 43.0463 92.5732 44.7542 93.3757C47.8214 94.5259 50.1218 95.676 49.9301 96.0594C48.016 95.7035 46.1502 95.1244 44.3709 94.3342C42.5903 93.6812 40.912 92.7775 39.3867 91.6504Z" fill="#2267AC"/>
<path d="M17.1484 85.1328C19.1013 85.1768 21.0378 85.4996 22.8994 86.0913C25.9665 86.8581 28.4586 87.6249 28.4586 88.0083C26.5058 87.9642 24.5692 87.6415 22.7077 87.0498C19.6405 86.283 17.1484 85.5162 17.1484 85.1328Z" fill="#2267AC"/>
<path d="M0.0878906 82.8329C1.00659 82.4873 2.0069 82.4206 2.96335 82.6412C4.68862 82.6412 5.83881 83.0246 5.83881 83.408C4.92011 83.7536 3.9198 83.8203 2.96335 83.5997C1.42977 83.408 0.0878906 83.2163 0.0878906 82.8329Z" fill="#2267AC"/>
<path d="M3.92211 78.4238C4.11381 78.6155 3.34701 79.7657 2.38853 81.1076C1.43004 82.4495 0.279862 83.0246 0.088165 82.8329C-0.103532 82.6412 0.663262 81.491 1.62175 80.3408C2.28337 79.5852 3.05963 78.9384 3.92211 78.4238Z" fill="#2267AC"/>
<path d="M20.0242 62.5156C19.0008 64.1333 17.7034 65.5604 16.1903 66.733C14.8912 68.1399 13.4081 69.3651 11.7812 70.3752C12.8264 68.7183 14.1194 67.2313 15.6152 65.9662C16.8848 64.5811 18.3745 63.4152 20.0242 62.5156Z" fill="#2267AC"/>
<path d="M38.0452 48.5176C36.8216 50.0537 35.3274 51.3531 33.6362 52.3515C32.1878 53.539 30.5731 54.5078 28.8438 55.227C30.0055 53.7561 31.4368 52.5201 33.0611 51.5847C34.5575 50.3157 36.238 49.2815 38.0452 48.5176Z" fill="#2267AC"/>
<path d="M57.2141 36.4414C57.4058 36.8248 55.2971 38.1667 52.6133 39.892C49.9296 41.6172 47.6292 42.5757 47.4375 42.1923C48.8103 40.8076 50.4376 39.7011 52.2299 38.9335L57.2141 36.4414Z" fill="#2267AC"/>
<path d="M77.7247 26.4739C76.2025 27.6556 74.5255 28.6231 72.7405 29.3493C71.073 30.2881 69.258 30.9364 67.373 31.2663C68.8596 30.0325 70.545 29.0602 72.3572 28.3908C75.2326 27.049 77.533 26.0905 77.7247 26.4739Z" fill="#2267AC"/>
<path d="M98.8112 18.2317C97.2608 19.3433 95.4994 20.1261 93.6354 20.5321C91.8868 21.3659 90.005 21.885 88.0762 22.0656C89.6971 21.0336 91.4344 20.1971 93.252 19.5736C96.3192 18.6151 98.8112 17.8483 98.8112 18.2317Z" fill="#2267AC"/>
<path d="M120.666 11.7133C118.986 12.6244 117.175 13.2709 115.298 13.6303C113.52 14.3147 111.642 14.7032 109.739 14.7805C109.547 14.3971 112.039 13.6303 115.106 12.6718C118.174 11.7133 120.666 11.3299 120.666 11.7133Z" fill="#2267AC"/>
<path d="M142.904 6.72822C142.904 7.11161 140.412 7.87842 137.344 8.45351C135.529 8.91306 133.656 9.10678 131.785 9.02861C133.471 8.20882 135.288 7.68983 137.153 7.49503C139.013 6.91663 140.957 6.65735 142.904 6.72822Z" fill="#2267AC"/>
<path d="M165.33 3.47146C163.538 4.10597 161.667 4.49295 159.77 4.62165C157.89 5.08224 155.944 5.21197 154.02 5.00504C154.02 4.62165 156.512 4.04656 159.579 3.66317C161.476 3.31601 163.414 3.2514 165.33 3.47146Z" fill="#2267AC"/>
<path d="M187.951 1.5536C187.951 1.937 185.459 2.32039 182.392 2.51209C179.324 2.70378 176.641 2.7038 176.641 2.32041C178.515 1.80809 180.449 1.55016 182.392 1.5536C184.228 1.20609 186.114 1.20609 187.951 1.5536Z" fill="#2267AC"/>
<path d="M210.763 1.17019C208.871 1.54479 206.938 1.67365 205.012 1.55358C203.152 1.7799 201.265 1.64979 199.453 1.17019C201.263 0.677628 203.14 0.483377 205.012 0.595092C208.271 0.595092 210.763 0.786795 210.763 1.17019Z" fill="#2267AC"/>
<path d="M233.576 1.93568C233.384 2.31908 230.892 2.31909 227.825 2.12739C225.882 2.13083 223.948 1.87293 222.074 1.36061C223.971 1.00774 225.909 0.943097 227.825 1.16891C229.766 1.18678 231.698 1.44432 233.576 1.93568Z" fill="#2267AC"/>
<path d="M256.197 4.23777C254.281 4.4523 252.344 4.38772 250.446 4.04606C248.549 3.91736 246.679 3.53038 244.887 2.89587C246.739 2.67772 248.613 2.74237 250.446 3.08758C253.705 3.47097 256.197 3.85438 256.197 4.23777Z" fill="#2267AC"/>
<path d="M278.623 7.68876C278.623 8.07215 275.939 7.68877 272.872 7.30537C270.957 7.05118 269.087 6.53516 267.312 5.77179C269.247 5.68584 271.184 5.87953 273.063 6.34689C274.978 6.48532 276.856 6.93869 278.623 7.68876Z" fill="#2267AC"/>
<path d="M300.861 12.672C298.921 12.6378 296.991 12.3805 295.11 11.9053C292.043 11.1385 289.742 10.3717 289.742 9.98828L295.301 10.7551C297.234 11.1361 299.104 11.7811 300.861 12.672Z" fill="#2267AC"/>
<path d="M322.522 19.3805C320.619 19.1723 318.751 18.7213 316.963 18.0386C315.118 17.5762 313.367 16.7979 311.787 15.7383C313.69 15.9465 315.558 16.3975 317.346 17.0802C320.222 18.0386 322.714 18.9971 322.522 19.3805Z" fill="#2267AC"/>
<path d="M343.609 27.8156C341.733 27.4533 339.923 26.8069 338.241 25.8986C335.366 24.7484 333.066 23.5982 333.257 23.2148C335.134 23.5771 336.944 24.2236 338.625 25.1318C341.5 26.282 343.801 27.4322 343.609 27.8156Z" fill="#2267AC"/>
<path d="M363.929 37.9769C362.094 37.4847 360.348 36.7086 358.753 35.6765C356.952 35.0139 355.317 33.9673 353.961 32.6094C355.809 33.0643 357.561 33.8432 359.137 34.9098C360.938 35.5724 362.573 36.619 363.929 37.9769Z" fill="#2267AC"/>
<path d="M383.483 49.6688C381.646 49.0949 379.902 48.2553 378.307 47.1768C376.68 46.244 375.195 45.0819 373.898 43.7262C373.898 43.3428 376.199 44.493 378.883 46.2183C380.588 47.1203 382.14 48.2847 383.483 49.6688Z" fill="#2267AC"/>
<path d="M401.885 63.0886C398.515 61.3104 395.47 58.9774 392.875 56.1875C394.607 56.9823 396.22 58.0146 397.667 59.2547C400.159 61.1716 402.076 62.7052 401.885 63.0886Z" fill="#2267AC"/>
<path d="M419.329 77.6578C417.634 76.8197 416.082 75.7199 414.729 74.399C413.13 73.2635 411.763 71.8319 410.703 70.1816C412.429 71.05 413.987 72.2183 415.304 73.6322C417.604 75.7409 419.521 77.4661 419.329 77.6578Z" fill="#2267AC"/>
<path d="M435.434 93.7606C433.777 92.7154 432.29 91.4224 431.025 89.9266C429.64 88.657 428.474 87.1672 427.574 85.5176C429.192 86.541 430.619 87.8384 431.792 89.3515C433.313 90.538 434.556 92.0429 435.434 93.7606Z" fill="#2267AC"/>
<path d="M450.386 110.821C450.194 111.012 448.277 109.287 446.36 106.795C444.965 105.506 443.855 103.938 443.102 102.194C443.293 102.003 445.019 103.728 447.127 106.22C448.448 107.573 449.548 109.126 450.386 110.821Z" fill="#2267AC"/>
<path d="M463.803 129.223C462.473 127.853 461.255 126.379 460.161 124.814C458.949 123.312 457.979 121.631 457.285 119.83C458.734 121.089 459.964 122.579 460.927 124.239C462.844 126.731 464.186 129.032 463.803 129.223Z" fill="#2267AC"/>
<path d="M475.882 148.394C474.524 147.072 473.419 145.513 472.623 143.793C471.544 142.198 470.705 140.455 470.131 138.617C471.489 139.939 472.593 141.498 473.39 143.218C475.115 145.902 476.265 148.202 475.882 148.394Z" fill="#2267AC"/>
<path d="M486.424 168.523C485.161 167.129 484.184 165.501 483.548 163.731C482.504 162.095 481.787 160.272 481.439 158.363C482.621 159.885 483.589 161.562 484.315 163.347C485.848 166.031 486.807 168.523 486.424 168.523Z" fill="#2267AC"/>
<path d="M495.241 189.609C494.209 187.988 493.372 186.251 492.749 184.433C491.946 182.725 491.366 180.921 491.023 179.066C491.407 178.874 492.557 181.175 493.707 184.05C494.857 186.925 495.624 189.418 495.241 189.609Z" fill="#2267AC"/>
<path d="M502.336 211.079C501.953 211.271 501.186 208.778 500.227 205.903C499.269 203.028 498.694 200.344 499.077 200.344C500.027 201.958 500.737 203.701 501.186 205.52C501.87 207.297 502.259 209.175 502.336 211.079Z" fill="#2267AC"/>
<path d="M506.36 227.946C505.752 227.165 505.356 226.241 505.21 225.262C505.018 223.729 504.826 222.387 505.21 222.387C505.593 222.387 505.976 223.537 506.168 225.07C506.36 226.604 506.743 227.946 506.36 227.946Z" fill="#2267AC"/>
<path d="M517.479 207.436C517.862 207.436 517.67 208.777 517.287 210.311C517.141 211.29 516.745 212.214 516.137 212.995C515.753 212.995 515.945 211.653 516.328 210.119C516.475 209.141 516.871 208.216 517.479 207.436Z" fill="#2267AC"/>
<path d="M523.806 184.434C523.743 186.463 523.354 188.47 522.656 190.376C522.161 192.302 521.453 194.166 520.547 195.935C520.623 193.907 521.011 191.903 521.697 189.993C522.192 188.067 522.899 186.203 523.806 184.434Z" fill="#2267AC"/>
<path d="M531.088 161.812C531.471 162.004 530.704 164.496 529.746 167.563C528.787 170.631 527.637 173.123 527.254 173.123C527.466 171.138 527.983 169.198 528.787 167.372C529.299 165.423 530.073 163.553 531.088 161.812Z" fill="#2267AC"/>
<path d="M539.909 139.767C539.566 141.709 538.919 143.585 537.992 145.326C537.43 147.263 536.52 149.082 535.309 150.694C535.648 148.714 536.227 146.783 537.034 144.943C538.376 141.876 539.526 139.575 539.909 139.767Z" fill="#2267AC"/>
<path d="M550.067 118.297C550.45 118.489 549.3 120.789 547.958 123.856C546.616 126.923 545.083 129.032 544.699 128.84C545.223 126.896 545.997 125.027 547 123.281C547.776 121.48 548.809 119.802 550.067 118.297Z" fill="#2267AC"/>
<path d="M562.529 97.977C561.817 99.8278 560.849 101.57 559.654 103.153C558.756 104.967 557.52 106.594 556.012 107.945C556.648 106.001 557.621 104.184 558.887 102.578C560.612 99.8939 562.146 97.7853 562.529 97.977Z" fill="#2267AC"/>
<path d="M576.906 79C576.049 80.8462 574.882 82.5319 573.455 83.9841C572.385 85.6258 571.02 87.0556 569.43 88.2014C570.29 86.4616 571.387 84.8489 572.689 83.409C573.821 81.7005 575.249 80.2075 576.906 79Z" fill="#2267AC"/>
<path d="M593.392 61.9395C592.382 63.6782 591.086 65.2338 589.558 66.5402C588.214 67.9767 586.663 69.2043 584.957 70.1824C586.002 68.5255 587.295 67.0385 588.791 65.7734C590.146 64.2955 591.694 63.006 593.392 61.9395Z" fill="#2267AC"/>
<path d="M611.987 47.1802C610.763 48.7164 609.269 50.0158 607.578 51.0142C606.081 52.3328 604.402 53.4303 602.594 54.273C603.778 52.6484 605.277 51.2792 607.003 50.2474C609.687 48.3304 611.795 46.7968 611.987 47.1802Z" fill="#2267AC"/>
<path d="M632.307 34.7188C630.84 36.0768 629.155 37.1784 627.323 37.9776C624.447 39.7029 622.147 40.8531 621.955 40.4697C623.422 39.1116 625.107 38.01 626.939 37.2108C628.559 36.0557 630.379 35.2107 632.307 34.7188Z" fill="#2267AC"/>
<path d="M653.778 24.7493C652.254 25.9879 650.493 26.9013 648.602 27.433C645.535 28.7749 643.043 29.7334 643.043 29.35C644.567 28.1113 646.328 27.1979 648.219 26.6662C651.286 25.3243 653.778 24.3659 653.778 24.7493Z" fill="#2267AC"/>
<path d="M676.398 16.8906C676.398 17.274 673.906 18.2325 670.839 19.191C668.987 19.8835 667.055 20.3345 665.088 20.5329C666.724 19.4491 668.542 18.6698 670.455 18.2325C672.369 17.528 674.367 17.0769 676.398 16.8906Z" fill="#2267AC"/>
<path d="M699.592 12.0979C697.757 12.8784 695.821 13.3948 693.841 13.6315C690.582 14.2066 687.898 14.3983 687.898 14.0149C689.733 13.2344 691.67 12.718 693.649 12.4813C696.908 11.9062 699.592 11.7145 699.592 12.0979Z" fill="#2267AC"/>
<path d="M723.364 11.3315H717.421C714.162 11.1398 711.479 11.1398 711.479 10.7564C715.407 9.85809 719.501 9.99015 723.364 11.1398V11.3315Z" fill="#2267AC"/>
<path d="M513.645 237.149C513.645 237.533 512.686 238.108 511.153 238.874C509.619 239.641 508.469 239.833 508.277 239.45C508.943 238.709 509.808 238.177 510.769 237.916C512.303 237.149 513.453 236.958 513.645 237.149Z" fill="#2267AC"/>
<path d="M535.497 228.715C535.497 229.098 533.197 230.057 530.13 231.207C527.063 232.357 524.571 233.124 524.379 232.74C526.054 231.684 527.858 230.847 529.746 230.248C531.602 229.529 533.53 229.014 535.497 228.715Z" fill="#2267AC"/>
<path d="M557.736 221.814C557.736 222.198 555.436 223.156 552.177 223.923C548.918 224.69 546.617 225.457 546.426 225.073C548.195 224.167 550.06 223.459 551.985 222.965L557.736 221.814Z" fill="#2267AC"/>
<path d="M580.547 216.447C580.547 216.831 578.055 217.597 574.796 218.173C571.537 218.748 569.045 219.323 569.045 218.939L574.604 217.214C576.551 216.744 578.544 216.486 580.547 216.447Z" fill="#2267AC"/>
<path d="M603.555 212.614C603.555 212.998 601.063 213.573 597.804 213.956C594.545 214.34 592.053 214.723 591.861 214.34L597.612 212.998C599.573 212.652 601.566 212.523 603.555 212.614Z" fill="#2267AC"/>
<path d="M626.748 210.312C626.748 210.696 624.256 211.079 620.997 211.271C617.738 211.463 615.055 211.654 615.055 211.271C616.912 210.66 618.851 210.337 620.806 210.312H626.748Z" fill="#2267AC"/>
<path d="M650.135 209.546C648.195 210.038 646.191 210.232 644.192 210.121C642.267 210.227 640.336 210.099 638.441 209.738C640.315 209.238 642.257 209.044 644.192 209.163C647.451 209.163 650.135 209.163 650.135 209.546Z" fill="#2267AC"/>
<path d="M673.524 210.315C671.563 210.672 669.56 210.737 667.581 210.506C665.638 210.51 663.704 210.252 661.83 209.739C661.83 209.356 664.514 209.356 667.581 209.548C670.648 209.739 673.524 209.931 673.524 210.315Z" fill="#2267AC"/>
<path d="M696.719 212.423C696.719 212.806 694.035 212.615 690.776 212.231C687.517 211.848 685.025 211.465 685.025 211.081C688.971 210.881 692.922 211.335 696.719 212.423Z" fill="#2267AC"/>
<path d="M719.721 216.256C717.786 216.337 715.85 216.144 713.97 215.681C711.99 215.445 710.054 214.928 708.219 214.148C710.217 214.064 712.217 214.258 714.161 214.723C717.229 215.298 719.912 215.873 719.721 216.256Z" fill="#2267AC"/>
<path d="M742.533 221.43C742.533 221.814 739.849 221.238 736.782 220.472C733.715 219.705 731.223 218.938 731.223 218.555C735.127 218.875 738.95 219.847 742.533 221.43Z" fill="#2267AC"/>
<path d="M764.962 228.334C762.992 228.156 761.057 227.704 759.211 226.992C757.298 226.554 755.48 225.775 753.844 224.691C755.746 224.9 757.615 225.351 759.403 226.033C762.47 226.992 764.962 227.95 764.962 228.334Z" fill="#2267AC"/>
<path d="M786.816 236.577C784.83 236.265 782.895 235.684 781.065 234.852C778.19 233.702 775.698 232.551 775.889 232.168C777.81 232.495 779.68 233.075 781.448 233.893C783.364 234.509 785.174 235.414 786.816 236.577Z" fill="#2267AC"/>
<path d="M807.903 246.354C805.994 246.006 804.17 245.29 802.535 244.245C800.678 243.547 798.933 242.578 797.359 241.37C797.551 240.986 800.043 241.945 802.919 243.478C804.731 244.148 806.416 245.12 807.903 246.354Z" fill="#2267AC"/>
<path d="M828.414 257.661C826.523 257.069 824.719 256.231 823.046 255.169C821.288 254.34 819.671 253.24 818.254 251.91C818.446 251.527 820.746 252.677 823.621 254.211C825.365 255.143 826.977 256.303 828.414 257.661Z" fill="#2267AC"/>
<path d="M847.968 270.317C846.213 269.529 844.543 268.566 842.984 267.441C841.245 266.512 839.686 265.278 838.383 263.799C840.185 264.49 841.867 265.46 843.367 266.674C845.106 267.603 846.664 268.837 847.968 270.317Z" fill="#2267AC"/>
<path d="M866.752 284.116C864.945 283.352 863.265 282.318 861.768 281.049C860.126 279.978 858.697 278.614 857.551 277.023C859.387 277.816 861.073 278.918 862.535 280.282C864.146 281.315 865.571 282.611 866.752 284.116Z" fill="#2267AC"/>
<path d="M884.582 299.262C882.856 298.393 881.298 297.225 879.981 295.811C878.355 294.644 876.931 293.219 875.764 291.594C877.535 292.481 879.153 293.646 880.556 295.044C882.155 296.18 883.522 297.611 884.582 299.262Z" fill="#2267AC"/>
<path d="M901.45 315.555C899.711 314.546 898.156 313.25 896.849 311.722C895.376 310.487 894.141 308.993 893.207 307.312C894.864 308.358 896.351 309.651 897.616 311.146C899.162 312.36 900.463 313.856 901.45 315.555Z" fill="#2267AC"/>
<path d="M917.17 332.808C915.52 331.748 914.088 330.382 912.953 328.783C911.464 327.414 910.231 325.791 909.311 323.99C910.936 325.157 912.361 326.582 913.528 328.208C915.034 329.486 916.272 331.049 917.17 332.808Z" fill="#2267AC"/>
<path d="M311.979 262.645C310.776 264.149 309.275 265.389 307.57 266.287C306.121 267.474 304.507 268.443 302.777 269.162C303.939 267.691 305.37 266.455 306.995 265.52C308.525 264.35 310.2 263.383 311.979 262.645Z" fill="#2267AC"/>
<path d="M331.533 251.526C330.17 252.784 328.617 253.819 326.932 254.593C324.056 255.935 321.756 257.085 321.564 256.702C323.057 255.524 324.663 254.497 326.357 253.635C329.232 252.101 331.533 251.143 331.533 251.526Z" fill="#2267AC"/>
<path d="M352.428 242.518C349.123 244.401 345.576 245.82 341.884 246.735C341.693 246.352 343.993 245.201 347.06 244.051C348.745 243.228 350.562 242.708 352.428 242.518Z" fill="#2267AC"/>
<path d="M374.087 236C374.087 236.383 371.787 237.15 368.719 238.109C366.919 238.68 365.048 239.003 363.16 239.067C363.16 238.684 365.461 237.917 368.528 236.958C370.328 236.387 372.199 236.064 374.087 236Z" fill="#2267AC"/>
<path d="M396.326 231.973C396.326 232.356 393.833 232.931 390.766 233.315C387.699 233.698 385.207 234.081 385.207 233.698C386.924 233.001 388.731 232.549 390.575 232.356L396.326 231.973Z" fill="#2267AC"/>
<path d="M418.947 230.439C418.947 230.823 416.455 231.206 413.196 231.206C411.344 231.437 409.468 231.372 407.637 231.014C407.637 230.631 410.129 230.439 413.196 230.248C415.111 230.013 417.051 230.077 418.947 230.439Z" fill="#2267AC"/>
<path d="M441.566 231.399C441.566 231.782 438.882 231.782 435.815 231.59C432.748 231.399 430.256 231.015 430.256 230.632C432.093 230.284 433.978 230.284 435.815 230.632C437.758 230.628 439.692 230.886 441.566 231.399Z" fill="#2267AC"/>
<path d="M463.802 234.847C461.931 234.925 460.058 234.732 458.243 234.272C455.176 233.697 452.684 233.122 452.684 232.739C454.618 232.653 456.555 232.846 458.435 233.314C461.502 233.889 463.994 234.464 463.802 234.847Z" fill="#2267AC"/>
<path d="M485.658 240.599C485.658 240.982 483.166 240.407 480.099 239.449C477.032 238.49 474.732 237.723 474.923 237.34L480.482 238.49C482.316 238.89 484.067 239.603 485.658 240.599Z" fill="#2267AC"/>
<path d="M501.76 246.734C500.74 246.836 499.718 246.564 498.884 245.967C497.351 245.392 496.2 244.817 496.392 244.434C496.584 244.05 497.734 244.434 499.267 245.2C500.801 245.967 501.76 246.351 501.76 246.734Z" fill="#2267AC"/>
</g>
<defs>
<clipPath id="clip0_397_4773">
<rect width="982.64" height="448.38" fill="white" transform="translate(0.0878906 0.59375)"/>
</clipPath>
</defs>
</svg>
