<svg width="918" height="333" viewBox="0 0 918 333" fill="none" xmlns="http://www.w3.org/2000/svg">
<path d="M183.159 258.621C183.806 260.476 184.193 262.411 184.309 264.372C184.693 267.439 184.884 270.123 184.501 270.123C183.854 268.268 183.467 266.333 183.351 264.372C183.006 262.475 182.942 260.537 183.159 258.621Z" fill="white"/>
<path d="M178.174 236.19C178.557 235.998 179.324 238.49 180.091 241.558C180.67 243.422 180.993 245.357 181.049 247.308C180.138 245.628 179.492 243.818 179.132 241.941C178.566 240.073 178.244 238.14 178.174 236.19Z" fill="white"/>
<path d="M170.699 214.336C171.731 215.957 172.568 217.694 173.191 219.512C174.341 222.579 175.108 225.071 174.725 225.071C172.748 221.764 171.384 218.127 170.699 214.336Z" fill="white"/>
<path d="M160.539 193.633C161.821 195.12 162.856 196.803 163.606 198.617C164.69 200.253 165.469 202.071 165.907 203.984C164.702 202.443 163.673 200.771 162.839 199C161.756 197.364 160.976 195.546 160.539 193.633Z" fill="white"/>
<path d="M147.886 174.465C149.422 175.688 150.721 177.183 151.72 178.874C152.89 180.404 153.857 182.079 154.595 183.858C154.212 184.05 152.678 182.133 150.761 179.449C149.591 177.919 148.624 176.244 147.886 174.465Z" fill="white"/>
<path d="M133.125 156.826C134.775 157.886 136.207 159.253 137.342 160.852C138.756 162.169 139.925 163.727 140.793 165.453C140.409 165.644 138.684 163.919 136.576 161.427C135.162 160.11 133.993 158.552 133.125 156.826Z" fill="white"/>
<path d="M116.831 140.533C118.458 141.543 119.941 142.769 121.24 144.175C122.736 145.441 124.029 146.928 125.074 148.584C123.447 147.574 121.964 146.349 120.665 144.942C119.12 143.728 117.819 142.232 116.831 140.533Z" fill="white"/>
<path d="M99.1962 125.773C100.906 126.685 102.513 127.777 103.989 129.032C106.481 130.949 108.206 132.866 108.014 133.058C106.274 132.197 104.662 131.101 103.222 129.799C100.73 127.882 99.0045 125.965 99.1962 125.773Z" fill="white"/>
<path d="M80.4087 112.547C82.1832 113.213 83.8596 114.116 85.3928 115.231C88.0766 117.148 89.9936 118.681 89.8019 118.873C89.6102 119.065 87.5015 117.914 84.8177 116.189C82.134 114.464 80.217 112.739 80.4087 112.547Z" fill="white"/>
<path d="M60.2803 101.043C60.472 100.66 62.964 101.81 65.6478 103.343C67.4074 104.087 69.0279 105.124 70.4402 106.411C70.4402 106.794 67.9482 105.644 65.2644 104.11C63.494 103.277 61.8222 102.248 60.2803 101.043Z" fill="white"/>
<path d="M39.3867 91.6504C41.2424 91.9934 43.0463 92.5732 44.7542 93.3757C47.8214 94.5259 50.1218 95.676 49.9301 96.0594C48.016 95.7035 46.1502 95.1244 44.3709 94.3342C42.5903 93.6812 40.912 92.7775 39.3867 91.6504Z" fill="white"/>
<path d="M17.1484 85.1328C19.1013 85.1768 21.0378 85.4996 22.8994 86.0913C25.9665 86.8581 28.4586 87.6249 28.4586 88.0083C26.5058 87.9642 24.5692 87.6415 22.7077 87.0498C19.6405 86.283 17.1484 85.5162 17.1484 85.1328Z" fill="white"/>
<path d="M0.0878906 82.8329C1.00659 82.4873 2.0069 82.4206 2.96335 82.6412C4.68862 82.6412 5.83881 83.0246 5.83881 83.408C4.92011 83.7536 3.9198 83.8203 2.96335 83.5997C1.42977 83.408 0.0878906 83.2163 0.0878906 82.8329Z" fill="white"/>
<path d="M3.92211 78.4238C4.11381 78.6155 3.34701 79.7657 2.38853 81.1076C1.43004 82.4495 0.279862 83.0246 0.088165 82.8329C-0.103532 82.6412 0.663262 81.491 1.62175 80.3408C2.28337 79.5852 3.05963 78.9384 3.92211 78.4238Z" fill="white"/>
<path d="M20.0242 62.5156C19.0008 64.1333 17.7034 65.5604 16.1903 66.733C14.8912 68.1399 13.4081 69.3651 11.7812 70.3752C12.8264 68.7183 14.1194 67.2313 15.6152 65.9662C16.8848 64.5811 18.3745 63.4152 20.0242 62.5156Z" fill="white"/>
<path d="M38.0452 48.5195C36.8216 50.0557 35.3274 51.3551 33.6362 52.3535C32.1878 53.5409 30.5731 54.5097 28.8438 55.2289C30.0055 53.7581 31.4368 52.522 33.0611 51.5867C34.5575 50.3177 36.238 49.2835 38.0452 48.5195Z" fill="white"/>
<path d="M57.2141 36.4414C57.4058 36.8248 55.2971 38.1667 52.6133 39.892C49.9296 41.6172 47.6292 42.5757 47.4375 42.1923C48.8103 40.8076 50.4376 39.7011 52.2299 38.9335L57.2141 36.4414Z" fill="white"/>
<path d="M77.7247 26.4739C76.2025 27.6556 74.5255 28.6231 72.7405 29.3493C71.073 30.2881 69.258 30.9364 67.373 31.2663C68.8596 30.0325 70.545 29.0602 72.3572 28.3908C75.2326 27.049 77.533 26.0905 77.7247 26.4739Z" fill="white"/>
<path d="M98.8112 18.2317C97.2608 19.3433 95.4994 20.1261 93.6354 20.5321C91.8868 21.3659 90.005 21.885 88.0762 22.0656C89.6971 21.0336 91.4344 20.1971 93.252 19.5736C96.3192 18.6151 98.8112 17.8483 98.8112 18.2317Z" fill="white"/>
<path d="M120.666 11.7133C118.986 12.6244 117.175 13.2709 115.298 13.6303C113.52 14.3147 111.642 14.7032 109.739 14.7805C109.547 14.3971 112.039 13.6303 115.106 12.6718C118.174 11.7133 120.666 11.3299 120.666 11.7133Z" fill="white"/>
<path d="M142.904 6.72822C142.904 7.11161 140.412 7.87842 137.344 8.45351C135.529 8.91306 133.656 9.10678 131.785 9.02861C133.471 8.20882 135.288 7.68983 137.153 7.49503C139.013 6.91663 140.957 6.65735 142.904 6.72822Z" fill="white"/>
<path d="M165.331 3.47146C163.539 4.10597 161.668 4.49295 159.771 4.62165C157.891 5.08224 155.945 5.21197 154.021 5.00504C154.021 4.62165 156.513 4.04656 159.58 3.66317C161.477 3.31601 163.415 3.2514 165.331 3.47146Z" fill="white"/>
<path d="M187.951 1.5536C187.951 1.937 185.459 2.32039 182.392 2.51209C179.324 2.70378 176.641 2.7038 176.641 2.32041C178.515 1.80809 180.449 1.55016 182.392 1.5536C184.228 1.20609 186.114 1.20609 187.951 1.5536Z" fill="white"/>
<path d="M210.764 1.17019C208.872 1.54479 206.939 1.67365 205.013 1.55358C203.153 1.7799 201.266 1.64979 199.454 1.17019C201.264 0.677628 203.141 0.483377 205.013 0.595092C208.272 0.595092 210.764 0.786795 210.764 1.17019Z" fill="white"/>
<path d="M233.575 1.93764C233.383 2.32103 230.891 2.32104 227.824 2.12935C225.881 2.13278 223.947 1.87489 222.073 1.36257C223.97 1.00969 225.908 0.94505 227.824 1.17086C229.765 1.18874 231.697 1.44627 233.575 1.93764Z" fill="white"/>
<path d="M256.197 4.23777C254.281 4.4523 252.344 4.38772 250.446 4.04606C248.549 3.91736 246.679 3.53038 244.887 2.89587C246.739 2.67772 248.613 2.74237 250.446 3.08758C253.705 3.47097 256.197 3.85438 256.197 4.23777Z" fill="white"/>
<path d="M278.624 7.68876C278.624 8.07215 275.94 7.68877 272.873 7.30537C270.958 7.05118 269.088 6.53516 267.313 5.77179C269.248 5.68584 271.185 5.87953 273.064 6.34689C274.979 6.48532 276.857 6.93869 278.624 7.68876Z" fill="white"/>
<path d="M300.861 12.672C298.921 12.6378 296.991 12.3805 295.11 11.9053C292.043 11.1385 289.742 10.3717 289.742 9.98828L295.301 10.7551C297.234 11.1361 299.104 11.7811 300.861 12.672Z" fill="white"/>
<path d="M322.522 19.3805C320.619 19.1723 318.751 18.7213 316.963 18.0386C315.118 17.5762 313.367 16.7979 311.787 15.7383C313.69 15.9465 315.558 16.3975 317.346 17.0802C320.222 18.0386 322.714 18.9971 322.522 19.3805Z" fill="white"/>
<path d="M343.609 27.8156C341.733 27.4533 339.923 26.8069 338.241 25.8986C335.366 24.7484 333.066 23.5982 333.257 23.2148C335.134 23.5771 336.944 24.2236 338.625 25.1318C341.5 26.282 343.801 27.4322 343.609 27.8156Z" fill="white"/>
<path d="M363.929 37.9769C362.094 37.4847 360.348 36.7086 358.753 35.6765C356.952 35.0139 355.317 33.9673 353.961 32.6094C355.809 33.0643 357.561 33.8432 359.137 34.9098C360.938 35.5724 362.573 36.619 363.929 37.9769Z" fill="white"/>
<path d="M383.483 49.6688C381.646 49.0949 379.902 48.2553 378.307 47.1768C376.68 46.244 375.195 45.0819 373.898 43.7262C373.898 43.3428 376.199 44.493 378.883 46.2183C380.588 47.1203 382.14 48.2847 383.483 49.6688Z" fill="white"/>
<path d="M401.885 63.0886C398.515 61.3104 395.47 58.9774 392.875 56.1875C394.607 56.9823 396.22 58.0146 397.667 59.2547C400.159 61.1716 402.076 62.7052 401.885 63.0886Z" fill="white"/>
<path d="M419.33 77.6578C417.635 76.8197 416.083 75.7199 414.73 74.399C413.13 73.2635 411.764 71.8319 410.704 70.1816C412.43 71.05 413.988 72.2183 415.305 73.6322C417.605 75.7409 419.522 77.4661 419.33 77.6578Z" fill="white"/>
<path d="M435.433 93.7606C433.776 92.7154 432.289 91.4224 431.024 89.9266C429.639 88.657 428.473 87.1672 427.573 85.5176C429.191 86.541 430.618 87.8384 431.791 89.3515C433.312 90.538 434.555 92.0429 435.433 93.7606Z" fill="white"/>
<path d="M450.385 110.823C450.193 111.014 448.276 109.289 446.359 106.797C444.964 105.508 443.854 103.94 443.101 102.196C443.292 102.004 445.018 103.73 447.126 106.222C448.447 107.575 449.547 109.127 450.385 110.823Z" fill="white"/>
<path d="M463.804 129.223C462.474 127.853 461.256 126.379 460.162 124.814C458.95 123.312 457.98 121.631 457.286 119.83C458.734 121.089 459.965 122.579 460.928 124.239C462.845 126.731 464.187 129.032 463.804 129.223Z" fill="white"/>
<path d="M475.882 148.394C474.524 147.072 473.419 145.513 472.623 143.793C471.544 142.198 470.705 140.455 470.131 138.617C471.489 139.939 472.593 141.498 473.39 143.218C475.115 145.902 476.265 148.202 475.882 148.394Z" fill="white"/>
<path d="M486.424 168.523C485.161 167.129 484.184 165.501 483.548 163.731C482.504 162.095 481.787 160.272 481.439 158.363C482.621 159.885 483.589 161.562 484.315 163.347C485.848 166.031 486.807 168.523 486.424 168.523Z" fill="white"/>
<path d="M495.242 189.609C494.21 187.988 493.373 186.251 492.75 184.433C491.947 182.725 491.367 180.921 491.024 179.066C491.408 178.874 492.558 181.175 493.708 184.05C494.858 186.925 495.625 189.418 495.242 189.609Z" fill="white"/>
<path d="M502.335 211.079C501.952 211.271 501.185 208.778 500.226 205.903C499.268 203.028 498.693 200.344 499.076 200.344C500.026 201.958 500.736 203.701 501.185 205.52C501.869 207.297 502.258 209.175 502.335 211.079Z" fill="white"/>
<path d="M506.361 227.948C505.753 227.167 505.357 226.243 505.211 225.264C505.019 223.731 504.827 222.389 505.211 222.389C505.594 222.389 505.977 223.539 506.169 225.072C506.361 226.606 506.744 227.948 506.361 227.948Z" fill="white"/>
<path d="M517.479 207.436C517.862 207.436 517.67 208.777 517.287 210.311C517.141 211.29 516.745 212.214 516.137 212.995C515.753 212.995 515.945 211.653 516.328 210.119C516.475 209.141 516.871 208.216 517.479 207.436Z" fill="white"/>
<path d="M523.805 184.434C523.742 186.463 523.353 188.47 522.655 190.376C522.16 192.302 521.453 194.166 520.546 195.935C520.622 193.907 521.01 191.903 521.696 189.993C522.191 188.067 522.898 186.203 523.805 184.434Z" fill="white"/>
<path d="M531.09 161.812C531.473 162.004 530.706 164.496 529.748 167.563C528.789 170.631 527.639 173.123 527.256 173.123C527.468 171.138 527.985 169.198 528.789 167.372C529.301 165.423 530.075 163.553 531.09 161.812Z" fill="white"/>
<path d="M539.908 139.769C539.565 141.711 538.918 143.587 537.991 145.328C537.429 147.265 536.519 149.084 535.308 150.696C535.647 148.716 536.226 146.785 537.033 144.945C538.375 141.878 539.525 139.577 539.908 139.769Z" fill="white"/>
<path d="M550.067 118.297C550.45 118.489 549.3 120.789 547.958 123.856C546.616 126.923 545.083 129.032 544.699 128.84C545.223 126.896 545.997 125.027 547 123.281C547.776 121.48 548.809 119.802 550.067 118.297Z" fill="white"/>
<path d="M562.528 97.977C561.816 99.8278 560.848 101.57 559.653 103.153C558.755 104.967 557.519 106.594 556.011 107.945C556.647 106.001 557.62 104.184 558.886 102.578C560.611 99.8939 562.145 97.7853 562.528 97.977Z" fill="white"/>
<path d="M576.906 79C576.049 80.8462 574.882 82.5319 573.455 83.9841C572.385 85.6258 571.02 87.0556 569.43 88.2014C570.29 86.4616 571.387 84.8489 572.689 83.409C573.821 81.7005 575.249 80.2075 576.906 79Z" fill="white"/>
<path d="M593.392 61.9375C592.382 63.6763 591.086 65.2318 589.558 66.5383C588.214 67.9747 586.663 69.2023 584.957 70.1805C586.002 68.5235 587.295 67.0366 588.791 65.7714C590.146 64.2935 591.694 63.0041 593.392 61.9375Z" fill="white"/>
<path d="M611.986 47.1783C610.762 48.7144 609.268 50.0138 607.577 51.0122C606.08 52.3309 604.401 53.4283 602.593 54.2711C603.777 52.6464 605.276 51.2773 607.002 50.2455C609.686 48.3285 611.794 46.7949 611.986 47.1783Z" fill="white"/>
<path d="M632.306 34.7188C630.839 36.0768 629.154 37.1784 627.322 37.9776C624.446 39.7029 622.146 40.8531 621.954 40.4697C623.421 39.1116 625.106 38.01 626.938 37.2108C628.558 36.0557 630.378 35.2107 632.306 34.7188Z" fill="white"/>
<path d="M653.776 24.7493C652.252 25.9879 650.491 26.9013 648.6 27.433C645.533 28.7749 643.041 29.7334 643.041 29.35C644.565 28.1113 646.326 27.1979 648.217 26.6662C651.284 25.3243 653.776 24.3659 653.776 24.7493Z" fill="white"/>
<path d="M676.395 16.8887C676.395 17.2721 673.903 18.2305 670.836 19.189C668.985 19.8815 667.052 20.3326 665.085 20.5309C666.721 19.4472 668.539 18.6679 670.453 18.2305C672.366 17.5261 674.364 17.0749 676.395 16.8887Z" fill="white"/>
<path d="M699.592 12.0979C697.757 12.8784 695.821 13.3948 693.841 13.6315C690.582 14.2066 687.898 14.3983 687.898 14.0149C689.733 13.2344 691.67 12.718 693.649 12.4813C696.908 11.9062 699.592 11.7145 699.592 12.0979Z" fill="white"/>
<path d="M723.362 11.3296H717.419C714.16 11.1379 711.477 11.1379 711.477 10.7545C715.405 9.85614 719.499 9.9882 723.362 11.1379V11.3296Z" fill="white"/>
<path d="M513.645 237.151C513.645 237.535 512.686 238.11 511.153 238.876C509.619 239.643 508.469 239.835 508.277 239.452C508.943 238.711 509.808 238.179 510.769 237.918C512.303 237.151 513.453 236.959 513.645 237.151Z" fill="white"/>
<path d="M535.498 228.715C535.498 229.098 533.198 230.057 530.131 231.207C527.064 232.357 524.572 233.124 524.38 232.74C526.055 231.684 527.859 230.847 529.747 230.248C531.603 229.529 533.531 229.014 535.498 228.715Z" fill="white"/>
<path d="M557.736 221.814C557.736 222.198 555.436 223.156 552.177 223.923C548.918 224.69 546.617 225.457 546.426 225.073C548.195 224.167 550.06 223.459 551.985 222.965L557.736 221.814Z" fill="white"/>
<path d="M580.547 216.447C580.547 216.831 578.055 217.597 574.796 218.173C571.537 218.748 569.045 219.323 569.045 218.939L574.604 217.214C576.551 216.744 578.544 216.486 580.547 216.447Z" fill="white"/>
<path d="M603.552 212.614C603.552 212.998 601.06 213.573 597.801 213.956C594.542 214.34 592.05 214.723 591.858 214.34L597.609 212.998C599.57 212.652 601.563 212.523 603.552 212.614Z" fill="white"/>
<path d="M626.747 210.312C626.747 210.696 624.255 211.079 620.996 211.271C617.737 211.463 615.054 211.654 615.054 211.271C616.911 210.66 618.85 210.337 620.805 210.312H626.747Z" fill="white"/>
<path d="M650.135 209.544C648.195 210.036 646.191 210.23 644.192 210.119C642.267 210.225 640.336 210.097 638.441 209.736C640.315 209.236 642.257 209.042 644.192 209.161C647.451 209.161 650.135 209.161 650.135 209.544Z" fill="white"/>
<path d="M673.523 210.313C671.562 210.67 669.559 210.735 667.58 210.504C665.637 210.508 663.703 210.25 661.829 209.738C661.829 209.354 664.513 209.354 667.58 209.546C670.647 209.738 673.523 209.929 673.523 210.313Z" fill="white"/>
<path d="M696.716 212.421C696.716 212.804 694.032 212.613 690.773 212.229C687.515 211.846 685.022 211.463 685.022 211.079C688.968 210.879 692.919 211.333 696.716 212.421Z" fill="white"/>
<path d="M719.72 216.255C717.785 216.335 715.849 216.142 713.969 215.679C711.989 215.443 710.053 214.926 708.218 214.146C710.216 214.062 712.216 214.256 714.16 214.721C717.228 215.296 719.911 215.871 719.72 216.255Z" fill="white"/>
<path d="M742.532 221.43C742.532 221.814 739.848 221.238 736.781 220.472C733.714 219.705 731.222 218.938 731.222 218.555C735.126 218.875 738.949 219.847 742.532 221.43Z" fill="white"/>
<path d="M764.962 228.332C762.992 228.154 761.057 227.702 759.211 226.99C757.298 226.553 755.48 225.773 753.844 224.689C755.746 224.898 757.615 225.349 759.403 226.031C762.47 226.99 764.962 227.948 764.962 228.332Z" fill="white"/>
<path d="M786.814 236.577C784.828 236.265 782.893 235.684 781.063 234.852C778.188 233.702 775.696 232.551 775.887 232.168C777.809 232.495 779.678 233.075 781.446 233.893C783.362 234.509 785.172 235.414 786.814 236.577Z" fill="white"/>
<path d="M807.9 246.352C805.991 246.004 804.168 245.288 802.532 244.243C800.675 243.545 798.931 242.576 797.356 241.368C797.548 240.984 800.04 241.943 802.916 243.476C804.728 244.146 806.413 245.118 807.9 246.352Z" fill="white"/>
<path d="M828.412 257.661C826.521 257.069 824.717 256.231 823.044 255.169C821.286 254.34 819.669 253.24 818.252 251.91C818.444 251.527 820.744 252.677 823.619 254.211C825.363 255.143 826.975 256.303 828.412 257.661Z" fill="white"/>
<path d="M847.966 270.315C846.211 269.527 844.541 268.564 842.982 267.439C841.243 266.51 839.684 265.276 838.381 263.797C840.183 264.488 841.865 265.458 843.365 266.672C845.104 267.602 846.662 268.835 847.966 270.315Z" fill="white"/>
<path d="M866.752 284.116C864.945 283.352 863.265 282.318 861.768 281.049C860.126 279.978 858.697 278.614 857.551 277.023C859.387 277.816 861.073 278.918 862.535 280.282C864.146 281.315 865.571 282.611 866.752 284.116Z" fill="white"/>
<path d="M884.58 299.262C882.854 298.393 881.296 297.225 879.979 295.811C878.353 294.644 876.929 293.219 875.762 291.594C877.533 292.481 879.151 293.646 880.554 295.044C882.153 296.18 883.52 297.611 884.58 299.262Z" fill="white"/>
<path d="M901.448 315.554C899.709 314.544 898.154 313.248 896.847 311.72C895.374 310.485 894.139 308.991 893.205 307.311C894.862 308.356 896.349 309.649 897.614 311.144C899.16 312.358 900.461 313.854 901.448 315.554Z" fill="white"/>
<path d="M917.168 332.806C915.518 331.747 914.086 330.38 912.951 328.781C911.462 327.412 910.229 325.789 909.309 323.988C910.934 325.155 912.359 326.58 913.526 328.206C915.032 329.484 916.27 331.047 917.168 332.806Z" fill="white"/>
<path d="M311.979 262.645C310.776 264.149 309.275 265.389 307.57 266.287C306.121 267.474 304.507 268.443 302.777 269.162C303.939 267.691 305.37 266.455 306.995 265.52C308.525 264.35 310.2 263.383 311.979 262.645Z" fill="white"/>
<path d="M331.533 251.526C330.17 252.784 328.617 253.819 326.932 254.593C324.056 255.935 321.756 257.085 321.564 256.702C323.057 255.524 324.663 254.497 326.357 253.635C329.232 252.101 331.533 251.143 331.533 251.526Z" fill="white"/>
<path d="M352.428 242.518C349.123 244.401 345.576 245.82 341.884 246.735C341.693 246.352 343.993 245.201 347.06 244.051C348.745 243.228 350.562 242.708 352.428 242.518Z" fill="white"/>
<path d="M374.089 236C374.089 236.383 371.788 237.15 368.721 238.109C366.921 238.68 365.05 239.003 363.162 239.067C363.162 238.684 365.463 237.917 368.53 236.958C370.33 236.387 372.201 236.064 374.089 236Z" fill="white"/>
<path d="M396.326 231.973C396.326 232.356 393.833 232.931 390.766 233.315C387.699 233.698 385.207 234.081 385.207 233.698C386.924 233.001 388.731 232.549 390.575 232.356L396.326 231.973Z" fill="white"/>
<path d="M418.946 230.441C418.946 230.825 416.454 231.208 413.195 231.208C411.343 231.439 409.467 231.374 407.636 231.016C407.636 230.633 410.128 230.441 413.195 230.25C415.11 230.015 417.05 230.079 418.946 230.441Z" fill="white"/>
<path d="M441.566 231.399C441.566 231.782 438.882 231.782 435.815 231.59C432.748 231.399 430.256 231.015 430.256 230.632C432.093 230.284 433.978 230.284 435.815 230.632C437.758 230.628 439.692 230.886 441.566 231.399Z" fill="white"/>
<path d="M463.803 234.849C461.932 234.927 460.059 234.734 458.244 234.274C455.177 233.699 452.685 233.124 452.685 232.741C454.619 232.655 456.556 232.848 458.435 233.316C461.503 233.891 463.995 234.466 463.803 234.849Z" fill="white"/>
<path d="M485.658 240.599C485.658 240.982 483.166 240.407 480.099 239.449C477.032 238.49 474.732 237.723 474.923 237.34L480.482 238.49C482.316 238.89 484.067 239.603 485.658 240.599Z" fill="white"/>
<path d="M501.76 246.734C500.74 246.836 499.718 246.564 498.884 245.967C497.351 245.392 496.2 244.817 496.392 244.434C496.584 244.05 497.734 244.434 499.267 245.2C500.801 245.967 501.76 246.351 501.76 246.734Z" fill="white"/>
</svg>
