<svg width="315" height="579" viewBox="0 0 315 579" fill="none" xmlns="http://www.w3.org/2000/svg">
<g clip-path="url(#clip0_397_780)" filter="url(#filter0_f_397_780)">
<g opacity="0.8">
<path d="M350.291 14.1289L195.88 39.6218L70.764 121.244L7.81445 292.091L83.5104 488.431L245.413 571.618L389.984 549.927L524.157 464.503L588.56 290.637L513.647 97.3162L350.291 14.1289Z" stroke="#2267AC" stroke-width="0.961574" stroke-miterlimit="10"/>
<path d="M245.413 571.617L190.737 516.159L184.699 337.821L228.194 158.7L195.88 39.6211L69.3105 200.741L7.81445 292.09L66.2916 385.788L190.737 516.159L389.984 549.926L506.156 394.062L513.647 208.903V97.3155" stroke="#2267AC" stroke-width="0.961574" stroke-miterlimit="10"/>
<path d="M70.7654 121.244L69.3119 200.742L66.293 385.789L83.5119 488.431" stroke="#2267AC" stroke-width="0.961574" stroke-miterlimit="10"/>
<path d="M195.434 39.6211L383.723 78.084L513.647 97.3155" stroke="#2267AC" stroke-width="0.961574" stroke-miterlimit="10"/>
<path d="M69.4238 201.411L227.413 158.476L383.724 78.084L513.201 208.456L588.115 290.413L506.157 394.062" stroke="#2267AC" stroke-width="0.961574" stroke-miterlimit="10"/>
<path d="M68.8633 201.412L183.917 337.821L338.328 439.01" stroke="#2267AC" stroke-width="0.961574" stroke-miterlimit="10"/>
<path d="M524.159 465.174L506.157 393.279L378.805 261.343L228.195 158.029" stroke="#2267AC" stroke-width="0.961574" stroke-miterlimit="10"/>
<path d="M513.648 209.686L379.475 262.125L183.918 337.821L65.5098 386.57" stroke="#2267AC" stroke-width="0.961574" stroke-miterlimit="10"/>
<path d="M83.5117 488.431L189.956 515.377L337.546 439.01L506.157 394.062" stroke="#2267AC" stroke-width="0.961574" stroke-miterlimit="10"/>
<path d="M196.552 515.825C196.574 517.006 196.243 518.167 195.6 519.159C194.958 520.15 194.033 520.927 192.946 521.389C191.859 521.852 190.658 521.978 189.498 521.753C188.338 521.528 187.272 520.961 186.437 520.126C185.601 519.291 185.035 518.225 184.81 517.065C184.585 515.905 184.711 514.704 185.174 513.617C185.636 512.53 186.413 511.605 187.404 510.963C188.396 510.32 189.557 509.989 190.738 510.011C192.28 510.011 193.759 510.623 194.849 511.714C195.94 512.804 196.552 514.283 196.552 515.825Z" fill="#2267AC"/>
<path d="M249.775 571.282C249.775 572.055 249.621 572.82 249.322 573.533C249.023 574.246 248.585 574.892 248.033 575.433C247.481 575.975 246.827 576.401 246.109 576.686C245.39 576.972 244.622 577.111 243.849 577.096C242.307 577.096 240.828 576.484 239.738 575.393C238.648 574.303 238.035 572.824 238.035 571.282C238.035 569.74 238.648 568.261 239.738 567.171C240.828 566.08 242.307 565.468 243.849 565.468C244.622 565.453 245.39 565.592 246.109 565.878C246.827 566.163 247.481 566.589 248.033 567.131C248.585 567.672 249.023 568.318 249.322 569.031C249.621 569.744 249.775 570.509 249.775 571.282Z" fill="#2267AC"/>
<path d="M88.2065 489.213C88.2065 490.755 87.5939 492.233 86.5035 493.324C85.4132 494.414 83.9343 495.027 82.3923 495.027C80.8503 495.027 79.3714 494.414 78.2811 493.324C77.1907 492.233 76.5781 490.755 76.5781 489.213C76.5781 487.671 77.1907 486.192 78.2811 485.101C79.3714 484.011 80.8503 483.398 82.3923 483.398C83.9343 483.398 85.4132 484.011 86.5035 485.101C87.5939 486.192 88.2065 487.671 88.2065 489.213Z" fill="#2267AC"/>
<path d="M72.1077 386.235C72.0857 387.38 71.7261 388.492 71.074 389.434C70.4219 390.375 69.5063 391.103 68.4422 391.526C67.378 391.949 66.2127 392.048 65.0923 391.811C63.9719 391.574 62.9464 391.012 62.1444 390.195C61.3425 389.377 60.7997 388.341 60.5843 387.217C60.3689 386.092 60.4903 384.929 60.9335 383.873C61.3766 382.817 62.1217 381.915 63.0753 381.281C64.0289 380.647 65.1484 380.309 66.2936 380.309C67.0666 380.308 67.8319 380.462 68.5447 380.762C69.2575 381.061 69.9035 381.499 70.4448 382.051C70.9862 382.603 71.4121 383.257 71.6977 383.975C71.9832 384.694 72.1226 385.462 72.1077 386.235Z" fill="#2267AC"/>
<path d="M13.7412 292.091C13.7412 293.662 13.1169 295.17 12.0055 296.281C10.8942 297.392 9.38691 298.017 7.81524 298.017C7.04221 298.017 6.27692 297.863 5.56413 297.564C4.85133 297.264 4.20534 296.826 3.66396 296.274C3.12258 295.723 2.69667 295.068 2.41114 294.35C2.12562 293.632 1.98621 292.863 2.00108 292.091C2.00108 290.549 2.61363 289.07 3.704 287.979C4.79437 286.889 6.27323 286.276 7.81524 286.276C8.58812 286.262 9.35621 286.401 10.0746 286.687C10.7929 286.972 11.4472 287.398 11.999 287.939C12.5507 288.481 12.989 289.127 13.2882 289.84C13.5873 290.552 13.7414 291.318 13.7412 292.091Z" fill="#2267AC"/>
<path d="M75.5731 201.412C75.5731 202.983 74.9487 204.491 73.8374 205.602C72.7261 206.713 71.2188 207.338 69.6471 207.338C68.2296 207.142 66.931 206.439 65.991 205.36C65.051 204.281 64.5332 202.899 64.5332 201.468C64.5332 200.037 65.051 198.654 65.991 197.575C66.931 196.496 68.2296 195.794 69.6471 195.598C71.1996 195.597 72.6902 196.206 73.7984 197.294C74.9065 198.381 75.5438 199.86 75.5731 201.412Z" fill="#2267AC"/>
<path d="M76.2441 121.243C76.2589 122.016 76.1195 122.784 75.834 123.502C75.5484 124.221 75.1226 124.875 74.5812 125.427C74.0398 125.978 73.3938 126.417 72.681 126.716C71.9682 127.015 71.2029 127.169 70.4299 127.169C68.8582 127.169 67.3509 126.545 66.2396 125.433C65.1283 124.322 64.5039 122.815 64.5039 121.243C64.5038 120.47 64.6578 119.705 64.9569 118.992C65.2561 118.279 65.6944 117.633 66.2462 117.092C66.798 116.55 67.4522 116.124 68.1705 115.839C68.8889 115.553 69.657 115.414 70.4299 115.429C71.9719 115.429 73.4508 116.041 74.5411 117.132C75.6315 118.222 76.2441 119.701 76.2441 121.243Z" fill="#2267AC"/>
<path d="M201.808 39.6213C201.808 40.3943 201.654 41.1596 201.355 41.8724C201.055 42.5852 200.617 43.2312 200.065 43.7726C199.514 44.314 198.859 44.7399 198.141 45.0254C197.423 45.3109 196.655 45.4503 195.882 45.4355C194.34 45.4355 192.861 44.8229 191.77 43.7325C190.68 42.6422 190.067 41.1633 190.067 39.6213C190.053 38.8484 190.192 38.0803 190.478 37.3619C190.763 36.6436 191.189 35.9894 191.73 35.4376C192.272 34.8858 192.918 34.4475 193.631 34.1483C194.343 33.8492 195.109 33.6952 195.882 33.6953C197.453 33.6953 198.961 34.3197 200.072 35.431C201.183 36.5423 201.808 38.0496 201.808 39.6213Z" fill="#2267AC"/>
<path d="M234.01 158.364C234.025 159.137 233.885 159.905 233.6 160.623C233.314 161.342 232.888 161.996 232.347 162.548C231.805 163.1 231.159 163.538 230.447 163.837C229.734 164.136 228.969 164.29 228.196 164.29C226.624 164.29 225.117 163.666 224.005 162.554C222.894 161.443 222.27 159.936 222.27 158.364C222.269 157.591 222.423 156.826 222.723 156.113C223.022 155.4 223.46 154.754 224.012 154.213C224.564 153.671 225.218 153.246 225.936 152.96C226.655 152.674 227.423 152.535 228.196 152.55C229.738 152.55 231.216 153.162 232.307 154.253C233.397 155.343 234.01 156.822 234.01 158.364Z" fill="#2267AC"/>
<path d="M190.514 337.71C190.528 338.483 190.389 339.251 190.104 339.969C189.818 340.687 189.392 341.342 188.851 341.893C188.309 342.445 187.663 342.884 186.951 343.183C186.238 343.482 185.472 343.636 184.699 343.636C183.128 343.636 181.62 343.011 180.509 341.9C179.398 340.789 178.773 339.281 178.773 337.71C178.773 336.937 178.927 336.171 179.226 335.459C179.526 334.746 179.964 334.1 180.516 333.559C181.068 333.017 181.722 332.591 182.44 332.306C183.158 332.02 183.927 331.881 184.699 331.896C186.241 331.896 187.72 332.508 188.811 333.599C189.901 334.689 190.514 336.168 190.514 337.71Z" fill="#2267AC"/>
</g>
</g>
<defs>
<filter id="filter0_f_397_780" x="0" y="-2" width="590" height="581" filterUnits="userSpaceOnUse" color-interpolation-filters="sRGB">
<feFlood flood-opacity="0" result="BackgroundImageFix"/>
<feBlend mode="normal" in="SourceGraphic" in2="BackgroundImageFix" result="shape"/>
<feGaussianBlur stdDeviation="1" result="effect1_foregroundBlur_397_780"/>
</filter>
<clipPath id="clip0_397_780">
<rect width="586" height="577" fill="white" transform="translate(2)"/>
</clipPath>
</defs>
</svg>
