<svg width="436" height="579" viewBox="0 0 436 579" fill="none" xmlns="http://www.w3.org/2000/svg">
<g clip-path="url(#clip0_397_749)" filter="url(#filter0_f_397_749)">
<g opacity="0.8">
<path d="M196.291 14.1289L41.8804 39.6218L-83.236 121.244L-146.186 292.091L-70.4896 488.431L91.4126 571.618L235.984 549.927L370.157 464.503L434.56 290.637L359.647 97.3162L196.291 14.1289Z" stroke="#2267AC" stroke-width="0.961574" stroke-miterlimit="10"/>
<path d="M91.4126 571.617L36.7371 516.159L30.6993 337.821L74.1938 158.7L41.8804 39.6211L-84.6895 200.741L-146.186 292.09L-87.7084 385.788L36.7371 516.159L235.984 549.926L352.156 394.062L359.647 208.903V97.3155" stroke="#2267AC" stroke-width="0.961574" stroke-miterlimit="10"/>
<path d="M196.292 14.1289L229.277 77.7493L225.475 262.126L185.111 439.01L235.985 549.927" stroke="#2267AC" stroke-width="0.961574" stroke-miterlimit="10"/>
<path d="M41.4336 39.6211L229.723 78.084L359.647 97.3155" stroke="#2267AC" stroke-width="0.961574" stroke-miterlimit="10"/>
<path d="M-84.5762 201.411L73.4126 158.476L229.724 78.084L359.201 208.456L434.115 290.413L352.157 394.062" stroke="#2267AC" stroke-width="0.961574" stroke-miterlimit="10"/>
<path d="M-85.1367 201.412L29.9167 337.821L184.328 439.01" stroke="#2267AC" stroke-width="0.961574" stroke-miterlimit="10"/>
<path d="M370.159 465.174L352.157 393.279L224.805 261.343L74.1953 158.029" stroke="#2267AC" stroke-width="0.961574" stroke-miterlimit="10"/>
<path d="M359.648 209.686L225.475 262.125L29.9175 337.821L-88.4902 386.57" stroke="#2267AC" stroke-width="0.961574" stroke-miterlimit="10"/>
<path d="M-70.4883 488.431L35.9557 515.377L183.546 439.01L352.157 394.062" stroke="#2267AC" stroke-width="0.961574" stroke-miterlimit="10"/>
<path d="M365.237 97.7634C365.041 99.1809 364.339 100.48 363.26 101.42C362.181 102.36 360.798 102.877 359.367 102.877C357.936 102.877 356.554 102.36 355.475 101.42C354.396 100.48 353.693 99.1809 353.497 97.7634C353.381 96.9246 353.446 96.0706 353.688 95.2591C353.93 94.4475 354.343 93.6973 354.899 93.0588C355.455 92.4203 356.142 91.9084 356.913 91.5576C357.684 91.2069 358.521 91.0254 359.367 91.0254C360.214 91.0254 361.051 91.2069 361.822 91.5576C362.593 91.9084 363.279 92.4203 363.836 93.0588C364.392 93.6973 364.805 94.4475 365.047 95.2591C365.288 96.0706 365.353 96.9246 365.237 97.7634Z" fill="#2267AC"/>
<path d="M365.575 208.904C365.575 210.476 364.951 211.983 363.839 213.094C362.728 214.206 361.221 214.83 359.649 214.83C358.232 214.634 356.933 213.932 355.993 212.853C355.053 211.774 354.535 210.391 354.535 208.96C354.535 207.529 355.053 206.146 355.993 205.067C356.933 203.988 358.232 203.286 359.649 203.09C361.202 203.09 362.692 203.699 363.8 204.786C364.909 205.873 365.546 207.352 365.575 208.904Z" fill="#2267AC"/>
<path d="M231.401 262.126C231.401 263.697 230.777 265.205 229.666 266.316C228.554 267.427 227.047 268.052 225.475 268.052C224.702 268.052 223.937 267.898 223.224 267.599C222.511 267.3 221.866 266.861 221.324 266.309C220.783 265.758 220.357 265.103 220.071 264.385C219.786 263.667 219.646 262.899 219.661 262.126C219.661 260.584 220.274 259.105 221.364 258.015C222.455 256.924 223.933 256.312 225.475 256.312C226.248 256.297 227.016 256.436 227.735 256.722C228.453 257.007 229.107 257.433 229.659 257.975C230.211 258.516 230.649 259.162 230.948 259.875C231.248 260.587 231.402 261.353 231.401 262.126Z" fill="#2267AC"/>
<path d="M358.081 393.28C358.081 394.852 357.457 396.359 356.345 397.47C355.234 398.582 353.727 399.206 352.155 399.206C351.382 399.206 350.617 399.052 349.904 398.753C349.191 398.454 348.545 398.016 348.004 397.464C347.462 396.912 347.037 396.258 346.751 395.539C346.465 394.821 346.326 394.053 346.341 393.28C346.341 391.738 346.954 390.259 348.044 389.169C349.134 388.078 350.613 387.466 352.155 387.466C352.928 387.451 353.696 387.59 354.414 387.876C355.133 388.161 355.787 388.587 356.339 389.129C356.891 389.67 357.329 390.316 357.628 391.029C357.927 391.742 358.081 392.507 358.081 393.28Z" fill="#2267AC"/>
<path d="M375.972 464.504C375.972 466.046 375.36 467.524 374.269 468.615C373.179 469.705 371.7 470.318 370.158 470.318C368.616 470.318 367.137 469.705 366.047 468.615C364.956 467.524 364.344 466.046 364.344 464.504C364.344 463.74 364.494 462.984 364.786 462.279C365.079 461.573 365.507 460.932 366.047 460.392C366.587 459.852 367.227 459.424 367.933 459.132C368.638 458.84 369.394 458.689 370.158 458.689C370.921 458.689 371.677 458.84 372.383 459.132C373.088 459.424 373.729 459.852 374.269 460.392C374.809 460.932 375.237 461.573 375.529 462.279C375.822 462.984 375.972 463.74 375.972 464.504Z" fill="#2267AC"/>
<path d="M241.911 549.592C241.911 550.365 241.757 551.13 241.458 551.843C241.159 552.556 240.721 553.202 240.169 553.743C239.617 554.285 238.963 554.711 238.244 554.996C237.526 555.282 236.758 555.421 235.985 555.406C235.222 555.406 234.466 555.256 233.76 554.964C233.055 554.671 232.414 554.243 231.874 553.703C231.334 553.163 230.906 552.522 230.614 551.817C230.321 551.112 230.171 550.356 230.171 549.592C230.156 548.819 230.296 548.051 230.581 547.333C230.867 546.614 231.292 545.96 231.834 545.408C232.375 544.856 233.021 544.418 233.734 544.119C234.447 543.82 235.212 543.666 235.985 543.666C236.763 543.666 237.534 543.819 238.253 544.117C238.972 544.415 239.625 544.851 240.175 545.402C240.726 545.952 241.162 546.605 241.46 547.324C241.758 548.043 241.911 548.814 241.911 549.592Z" fill="#2267AC"/>
<path d="M190.925 438.227C191.041 439.066 190.976 439.92 190.734 440.731C190.492 441.543 190.079 442.293 189.523 442.932C188.967 443.57 188.28 444.082 187.509 444.433C186.739 444.784 185.902 444.965 185.055 444.965C184.208 444.965 183.371 444.784 182.6 444.433C181.83 444.082 181.143 443.57 180.587 442.932C180.03 442.293 179.617 441.543 179.376 440.731C179.134 439.92 179.069 439.066 179.185 438.227C179.381 436.81 180.083 435.511 181.162 434.571C182.241 433.631 183.624 433.113 185.055 433.113C186.486 433.113 187.869 433.631 188.947 434.571C190.026 435.511 190.729 436.81 190.925 438.227Z" fill="#2267AC"/>
<path d="M42.5521 515.825C42.5742 517.006 42.2427 518.167 41.6001 519.159C40.9575 520.15 40.0333 520.927 38.946 521.389C37.8587 521.852 36.6581 521.978 35.4982 521.753C34.3384 521.528 33.2723 520.961 32.4369 520.126C31.6014 519.291 31.0348 518.225 30.8097 517.065C30.5846 515.905 30.7114 514.704 31.1737 513.617C31.636 512.53 32.4128 511.605 33.4043 510.963C34.3957 510.32 35.5567 509.989 36.7379 510.011C38.28 510.011 39.7588 510.623 40.8492 511.714C41.9395 512.804 42.5521 514.283 42.5521 515.825Z" fill="#2267AC"/>
<path d="M95.7753 571.282C95.7754 572.055 95.6214 572.82 95.3223 573.533C95.0231 574.246 94.5848 574.892 94.033 575.433C93.4812 575.975 92.827 576.401 92.1087 576.686C91.3903 576.972 90.6222 577.111 89.8493 577.096C88.3073 577.096 86.8285 576.484 85.7381 575.393C84.6477 574.303 84.0352 572.824 84.0352 571.282C84.0352 569.74 84.6477 568.261 85.7381 567.171C86.8285 566.08 88.3073 565.468 89.8493 565.468C90.6222 565.453 91.3903 565.592 92.1087 565.878C92.827 566.163 93.4812 566.589 94.033 567.131C94.5848 567.672 95.0231 568.318 95.3223 569.031C95.6214 569.744 95.7754 570.509 95.7753 571.282Z" fill="#2267AC"/>
<path d="M47.8076 39.6213C47.8078 40.3943 47.6537 41.1596 47.3546 41.8724C47.0554 42.5852 46.6172 43.2312 46.0654 43.7726C45.5136 44.314 44.8593 44.7399 44.141 45.0254C43.4226 45.3109 42.6545 45.4503 41.8816 45.4355C40.3396 45.4355 38.8608 44.8229 37.7704 43.7325C36.68 42.6422 36.0675 41.1633 36.0675 39.6213C36.0526 38.8484 36.192 38.0803 36.4776 37.3619C36.7631 36.6436 37.189 35.9894 37.7303 35.4376C38.2717 34.8858 38.9177 34.4475 39.6305 34.1483C40.3433 33.8492 41.1086 33.6952 41.8816 33.6953C43.4533 33.6953 44.9606 34.3197 46.0719 35.431C47.1833 36.5423 47.8076 38.0496 47.8076 39.6213Z" fill="#2267AC"/>
<path d="M80.0097 158.364C80.0245 159.137 79.8851 159.905 79.5996 160.623C79.3141 161.342 78.8882 161.996 78.3468 162.548C77.8054 163.1 77.1594 163.538 76.4466 163.837C75.7338 164.136 74.9686 164.29 74.1955 164.29C72.6239 164.29 71.1166 163.666 70.0052 162.554C68.8939 161.443 68.2695 159.936 68.2695 158.364C68.2694 157.591 68.4234 156.826 68.7226 156.113C69.0217 155.4 69.46 154.754 70.0118 154.213C70.5636 153.671 71.2178 153.246 71.9362 152.96C72.6545 152.674 73.4226 152.535 74.1955 152.55C75.7375 152.55 77.2164 153.162 78.3068 154.253C79.3971 155.343 80.0097 156.822 80.0097 158.364Z" fill="#2267AC"/>
<path d="M36.5136 337.71C36.5285 338.483 36.389 339.251 36.1035 339.969C35.818 340.687 35.3921 341.342 34.8507 341.893C34.3093 342.445 33.6633 342.884 32.9505 343.183C32.2377 343.482 31.4724 343.636 30.6994 343.636C29.1277 343.636 27.6205 343.011 26.5091 341.9C25.3978 340.789 24.7734 339.281 24.7734 337.71C24.7733 336.937 24.9273 336.171 25.2265 335.459C25.5256 334.746 25.9639 334.1 26.5157 333.559C27.0675 333.017 27.7217 332.591 28.4401 332.306C29.1584 332.02 29.9265 331.881 30.6994 331.896C32.2414 331.896 33.7203 332.508 34.8107 333.599C35.901 334.689 36.5136 336.168 36.5136 337.71Z" fill="#2267AC"/>
<path d="M235.986 78.6434C235.986 79.4164 235.832 80.1817 235.533 80.8945C235.234 81.6073 234.796 82.2533 234.244 82.7946C233.692 83.336 233.038 83.7619 232.32 84.0475C231.601 84.333 230.833 84.4724 230.06 84.4575C228.518 84.4575 227.039 83.845 225.949 82.7546C224.859 81.6642 224.246 80.1854 224.246 78.6434C224.246 77.1014 224.859 75.6225 225.949 74.5321C227.039 73.4418 228.518 72.8292 230.06 72.8292C230.833 72.8143 231.601 72.9537 232.32 73.2393C233.038 73.5248 233.692 73.9507 234.244 74.4921C234.796 75.0335 235.234 75.6795 235.533 76.3923C235.832 77.105 235.986 77.8703 235.986 78.6434Z" fill="#2267AC"/>
<path d="M202.105 14.1286C202.105 15.6706 201.492 17.1495 200.402 18.2399C199.312 19.3302 197.833 19.9428 196.291 19.9428C194.749 19.9428 193.27 19.3302 192.179 18.2399C191.089 17.1495 190.477 15.6706 190.477 14.1286C190.477 12.5866 191.089 11.1077 192.179 10.0174C193.27 8.92701 194.749 8.31445 196.291 8.31445C197.833 8.31445 199.312 8.92701 200.402 10.0174C201.492 11.1077 202.105 12.5866 202.105 14.1286Z" fill="#2267AC"/>
</g>
</g>
<defs>
<filter id="filter0_f_397_749" x="-154" y="-2" width="590" height="581" filterUnits="userSpaceOnUse" color-interpolation-filters="sRGB">
<feFlood flood-opacity="0" result="BackgroundImageFix"/>
<feBlend mode="normal" in="SourceGraphic" in2="BackgroundImageFix" result="shape"/>
<feGaussianBlur stdDeviation="1" result="effect1_foregroundBlur_397_749"/>
</filter>
<clipPath id="clip0_397_749">
<rect width="586" height="577" fill="white" transform="translate(-152)"/>
</clipPath>
</defs>
</svg>
