<svg width="16" height="16" viewBox="0 0 16 16" fill="none" xmlns="http://www.w3.org/2000/svg">
<path d="M5.5 13.8333L1.15833 15.2808C1.08311 15.3059 1.00299 15.3128 0.924587 15.3008C0.846187 15.2889 0.771756 15.2584 0.707442 15.212C0.643128 15.1656 0.590774 15.1046 0.554705 15.034C0.518635 14.9633 0.499884 14.8851 0.500001 14.8058V2.5275C0.500022 2.42262 0.533026 2.32039 0.594342 2.2353C0.655658 2.1502 0.742181 2.08655 0.841667 2.05333L5.5 0.5M5.5 13.8333L10.5 15.5M5.5 13.8333V0.5M5.5 0.5L10.5 2.16667M10.5 15.5L15.1583 13.9475C15.258 13.9142 15.3446 13.8505 15.4059 13.7652C15.4672 13.6799 15.5002 13.5775 15.5 13.4725V1.19333C15.5 1.1141 15.4811 1.036 15.445 0.965475C15.4089 0.894953 15.3565 0.834026 15.2922 0.787717C15.2279 0.741407 15.1535 0.711042 15.0752 0.699124C14.9969 0.687205 14.9168 0.694075 14.8417 0.719167L10.5 2.16667M10.5 15.5V2.16667" stroke="white" stroke-width="0.833333" stroke-linecap="round" stroke-linejoin="round"/>
</svg>
