<svg width="30" height="30" viewBox="0 0 30 30" fill="none" xmlns="http://www.w3.org/2000/svg">
<circle cx="15" cy="15" r="15" fill="url(#paint0_linear_573_251)"/>
<path d="M21.9308 8.64258C20.6561 8.05768 19.2892 7.62675 17.8599 7.37994C17.8339 7.37518 17.8079 7.38708 17.7945 7.41089C17.6187 7.72357 17.4239 8.13149 17.2876 8.45211C15.7503 8.22196 14.221 8.22196 12.7153 8.45211C12.5789 8.12436 12.3771 7.72357 12.2005 7.41089C12.1871 7.38788 12.1611 7.37597 12.135 7.37994C10.7066 7.62596 9.33963 8.05689 8.06411 8.64258C8.05307 8.64734 8.04361 8.65529 8.03732 8.6656C5.44449 12.5392 4.73421 16.3177 5.08265 20.0492C5.08423 20.0675 5.09447 20.085 5.10867 20.096C6.81934 21.3523 8.47642 22.115 10.1027 22.6205C10.1288 22.6285 10.1563 22.619 10.1729 22.5975C10.5576 22.0722 10.9005 21.5182 11.1946 20.9357C11.2119 20.9016 11.1954 20.8611 11.1599 20.8476C10.6159 20.6413 10.098 20.3897 9.59977 20.104C9.56037 20.081 9.55721 20.0246 9.59347 19.9976C9.69831 19.9191 9.80318 19.8373 9.9033 19.7548C9.92141 19.7397 9.94665 19.7365 9.96794 19.746C13.2411 21.2404 16.7846 21.2404 20.0191 19.746C20.0404 19.7357 20.0657 19.7389 20.0846 19.754C20.1847 19.8365 20.2895 19.9191 20.3952 19.9976C20.4314 20.0246 20.4291 20.081 20.3897 20.104C19.8914 20.3952 19.3735 20.6413 18.8288 20.8468C18.7933 20.8603 18.7775 20.9016 18.7949 20.9357C19.0952 21.5174 19.4381 22.0713 19.8157 22.5967C19.8315 22.619 19.8599 22.6285 19.8859 22.6205C21.5201 22.115 23.1772 21.3523 24.8879 20.096C24.9028 20.085 24.9123 20.0683 24.9139 20.05C25.3309 15.7359 24.2154 11.9885 21.9568 8.66639C21.9513 8.65529 21.9419 8.64734 21.9308 8.64258ZM11.6834 17.7771C10.6979 17.7771 9.88594 16.8724 9.88594 15.7613C9.88594 14.6502 10.6822 13.7455 11.6834 13.7455C12.6924 13.7455 13.4965 14.6582 13.4807 15.7613C13.4807 16.8724 12.6845 17.7771 11.6834 17.7771ZM18.329 17.7771C17.3435 17.7771 16.5316 16.8724 16.5316 15.7613C16.5316 14.6502 17.3278 13.7455 18.329 13.7455C19.338 13.7455 20.1421 14.6582 20.1264 15.7613C20.1264 16.8724 19.338 17.7771 18.329 17.7771Z" fill="#112842"/>
<defs>
<linearGradient id="paint0_linear_573_251" x1="0.5" y1="13.2578" x2="25.5" y2="13.2578" gradientUnits="userSpaceOnUse">
<stop stop-color="#F26523"/>
<stop offset="0.534361" stop-color="#F77916"/>
<stop offset="0.868252" stop-color="#FF9900"/>
</linearGradient>
</defs>
</svg>
