<svg width="30" height="30" viewBox="0 0 30 30" fill="none" xmlns="http://www.w3.org/2000/svg">
<path d="M15.0001 0C6.71682 0 0 6.88562 0 15.3797C0 22.175 4.29797 27.9399 10.258 29.9736C11.0076 30.1159 11.2829 29.6399 11.2829 29.2337C11.2829 28.867 11.2689 27.6554 11.2625 26.3703C7.0894 27.3006 6.20884 24.5557 6.20884 24.5557C5.52651 22.778 4.54337 22.3054 4.54337 22.3054C3.18248 21.3508 4.64595 21.3703 4.64595 21.3703C6.15225 21.4789 6.9454 22.9553 6.9454 22.9553C8.28324 25.3065 10.4545 24.6267 11.3104 24.2339C11.445 23.2397 11.8338 22.5613 12.2627 22.1773C8.9311 21.7883 5.42863 20.4695 5.42863 14.5765C5.42863 12.8975 6.01461 11.5254 6.97422 10.4484C6.81847 10.061 6.30507 8.49675 7.11951 6.37829C7.11951 6.37829 8.37912 5.96492 11.2456 7.9548C12.442 7.61393 13.7253 7.44313 15.0001 7.43734C16.2748 7.44313 17.559 7.61393 18.7578 7.9548C21.6209 5.96492 22.8787 6.37829 22.8787 6.37829C23.6952 8.49675 23.1815 10.061 23.0258 10.4484C23.9875 11.5254 24.5695 12.8973 24.5695 14.5765C24.5695 20.4835 21.0604 21.7843 17.7203 22.165C18.2583 22.6423 18.7377 23.5783 18.7377 25.0131C18.7377 27.0709 18.7203 28.7271 18.7203 29.2337C18.7203 29.643 18.9903 30.1225 19.7507 29.9715C25.7074 27.9356 30 22.1727 30 15.3797C30 6.88562 23.2841 0 15.0001 0Z" fill="url(#paint0_linear_573_251)"/>
<path d="M5.61855 21.9092C5.58561 21.9856 5.46821 22.0085 5.3615 21.9562C5.25268 21.906 5.19151 21.8018 5.2268 21.725C5.25915 21.6464 5.37656 21.6245 5.48515 21.6773C5.5942 21.7273 5.65632 21.8325 5.61855 21.9092ZM6.35641 22.5842C6.28488 22.6523 6.14501 22.6207 6.05007 22.5132C5.95195 22.406 5.9336 22.2627 6.00619 22.1935C6.07995 22.1256 6.21559 22.1574 6.31394 22.2647C6.41206 22.3731 6.43111 22.5156 6.35629 22.5843M6.86263 23.4479C6.77063 23.5134 6.62028 23.452 6.52746 23.3152C6.43558 23.1785 6.43558 23.0145 6.52946 22.9487C6.62264 22.883 6.77063 22.9421 6.86475 23.0778C6.95651 23.2169 6.95651 23.3809 6.86251 23.448M7.7186 24.4482C7.63637 24.5411 7.46131 24.5162 7.33308 24.3893C7.20203 24.2653 7.16544 24.0893 7.24791 23.9963C7.33108 23.9032 7.50719 23.9294 7.63636 24.0552C7.7666 24.179 7.80636 24.3563 7.71872 24.4482M8.82491 24.7859C8.78879 24.9063 8.62009 24.9611 8.45022 24.9099C8.28058 24.8572 8.16952 24.7161 8.20376 24.5944C8.23905 24.4731 8.40846 24.4161 8.57963 24.4709C8.74903 24.5233 8.86032 24.6634 8.82503 24.7859M10.0842 24.9291C10.0884 25.056 9.94428 25.1612 9.76594 25.1635C9.58653 25.1674 9.44148 25.0648 9.4396 24.9401C9.4396 24.812 9.58041 24.7078 9.7597 24.7047C9.93805 24.7011 10.0842 24.803 10.0842 24.9291ZM11.3211 24.8805C11.3425 25.0042 11.2185 25.1314 11.0414 25.1651C10.8673 25.1977 10.7061 25.1214 10.6839 24.9987C10.6623 24.8718 10.7886 24.7448 10.9624 24.7119C11.1398 24.6803 11.2985 24.7547 11.3211 24.8805Z" fill="url(#paint0_linear_573_251)"/>
<defs>
<linearGradient id="paint0_linear_573_251" x1="0.5" y1="13.2578" x2="25.5" y2="13.2578" gradientUnits="userSpaceOnUse">
<stop stop-color="#F26523"/>
<stop offset="0.534361" stop-color="#F77916"/>
<stop offset="0.868252" stop-color="#FF9900"/>
</linearGradient>
</defs>
</svg>
