<svg width="707" height="685" viewBox="0 0 707 685" fill="none" xmlns="http://www.w3.org/2000/svg">
<g style="mix-blend-mode:color-dodge" opacity="0.6">
<path d="M418.916 6.99219L233.195 37.6543L82.7081 135.827L6.99414 341.317L98.0392 577.47L292.771 677.525L466.658 651.435L628.037 548.69L705.5 339.569L615.396 107.048L418.916 6.99219Z" stroke="#2267AC" stroke-width="1.15656" stroke-miterlimit="10"/>
<path d="M292.771 677.527L227.009 610.823L219.746 396.323L272.06 180.881L233.195 37.6562L80.9599 231.446L6.99414 341.319L77.3288 454.016L227.009 610.823L466.658 651.437L606.386 463.968L615.396 241.264V107.05" stroke="#2267AC" stroke-width="1.15656" stroke-miterlimit="10"/>
<path d="M82.7075 135.828L80.9592 231.446L77.3281 454.015L98.0385 577.471" stroke="#2267AC" stroke-width="1.15656" stroke-miterlimit="10"/>
<path d="M418.917 6.99219L458.59 83.5131L454.017 305.276L405.469 518.028L466.659 651.435" stroke="#2267AC" stroke-width="1.15656" stroke-miterlimit="10"/>
<path d="M232.656 37.6562L459.126 83.9185L615.395 107.05" stroke="#2267AC" stroke-width="1.15656" stroke-miterlimit="10"/>
<path d="M81.0938 232.253L271.118 180.611L459.126 83.918L614.857 240.725L704.961 339.301L606.385 463.967" stroke="#2267AC" stroke-width="1.15656" stroke-miterlimit="10"/>
<path d="M80.4219 232.25L218.805 396.319L404.526 518.027" stroke="#2267AC" stroke-width="1.15656" stroke-miterlimit="10"/>
<path d="M628.037 549.496L606.386 463.023L453.209 304.333L272.061 180.07" stroke="#2267AC" stroke-width="1.15656" stroke-miterlimit="10"/>
<path d="M615.395 242.203L454.015 305.276L218.804 396.321L76.3867 454.955" stroke="#2267AC" stroke-width="1.15656" stroke-miterlimit="10"/>
<path d="M98.0391 577.473L226.067 609.883L403.585 518.031L606.385 463.969" stroke="#2267AC" stroke-width="1.15656" stroke-miterlimit="10"/>
<path d="M622.122 107.589C621.886 109.294 621.041 110.856 619.743 111.986C618.445 113.117 616.782 113.74 615.061 113.74C613.34 113.74 611.677 113.117 610.379 111.986C609.081 110.856 608.237 109.294 608.001 107.589C607.861 106.58 607.94 105.553 608.23 104.577C608.521 103.6 609.018 102.698 609.687 101.93C610.356 101.162 611.182 100.546 612.109 100.125C613.036 99.7027 614.043 99.4844 615.061 99.4844C616.08 99.4844 617.086 99.7027 618.013 100.125C618.94 100.546 619.766 101.162 620.435 101.93C621.104 102.698 621.601 103.6 621.892 104.577C622.183 105.553 622.261 106.58 622.122 107.589Z" fill="#2267AC"/>
<path d="M622.525 241.263C622.525 243.153 621.774 244.966 620.437 246.303C619.1 247.639 617.287 248.39 615.397 248.39C613.692 248.154 612.13 247.31 611 246.012C609.869 244.714 609.246 243.051 609.246 241.33C609.246 239.609 609.869 237.946 611 236.648C612.13 235.35 613.692 234.505 615.397 234.27C617.264 234.269 619.057 235.002 620.39 236.309C621.723 237.617 622.489 239.396 622.525 241.263Z" fill="#2267AC"/>
<path d="M461.144 305.276C461.144 307.166 460.393 308.979 459.056 310.316C457.719 311.652 455.906 312.403 454.016 312.403C453.086 312.403 452.166 312.218 451.308 311.858C450.451 311.499 449.674 310.971 449.023 310.308C448.372 309.644 447.859 308.857 447.516 307.993C447.173 307.129 447.005 306.205 447.023 305.276C447.023 303.421 447.76 301.642 449.071 300.331C450.383 299.019 452.161 298.283 454.016 298.283C454.946 298.265 455.869 298.432 456.733 298.776C457.597 299.119 458.384 299.631 459.048 300.283C459.712 300.934 460.239 301.711 460.599 302.568C460.958 303.425 461.144 304.346 461.144 305.276Z" fill="#2267AC"/>
<path d="M613.513 463.026C613.513 464.916 612.762 466.729 611.425 468.066C610.088 469.402 608.275 470.153 606.385 470.153C605.455 470.153 604.535 469.968 603.678 469.608C602.82 469.249 602.043 468.721 601.392 468.058C600.741 467.394 600.229 466.607 599.885 465.743C599.542 464.879 599.374 463.955 599.392 463.026C599.392 461.171 600.129 459.392 601.44 458.081C602.752 456.769 604.53 456.033 606.385 456.033C607.315 456.015 608.239 456.182 609.103 456.526C609.967 456.869 610.753 457.381 611.417 458.033C612.081 458.684 612.608 459.461 612.968 460.318C613.328 461.175 613.513 462.096 613.513 463.026Z" fill="#2267AC"/>
<path d="M635.031 548.692C635.031 550.547 634.294 552.326 632.983 553.637C631.671 554.949 629.893 555.685 628.038 555.685C626.183 555.685 624.405 554.949 623.093 553.637C621.782 552.326 621.045 550.547 621.045 548.692C621.045 547.774 621.226 546.865 621.577 546.016C621.929 545.168 622.444 544.397 623.093 543.747C623.742 543.098 624.513 542.583 625.362 542.232C626.21 541.88 627.12 541.699 628.038 541.699C628.956 541.699 629.866 541.88 630.714 542.232C631.563 542.583 632.334 543.098 632.983 543.747C633.632 544.397 634.147 545.168 634.499 546.016C634.85 546.865 635.031 547.774 635.031 548.692Z" fill="#2267AC"/>
<path d="M473.786 651.034C473.786 651.964 473.601 652.884 473.241 653.741C472.881 654.599 472.354 655.376 471.691 656.027C471.027 656.678 470.24 657.19 469.376 657.534C468.512 657.877 467.588 658.045 466.658 658.027C465.74 658.027 464.831 657.846 463.982 657.495C463.134 657.143 462.363 656.628 461.714 655.979C461.064 655.329 460.549 654.558 460.198 653.71C459.846 652.862 459.665 651.952 459.665 651.034C459.647 650.104 459.815 649.18 460.159 648.316C460.502 647.452 461.014 646.665 461.665 646.002C462.317 645.338 463.094 644.811 463.951 644.451C464.808 644.091 465.729 643.906 466.658 643.906C467.594 643.906 468.521 644.091 469.386 644.449C470.251 644.807 471.037 645.332 471.698 645.994C472.36 646.656 472.885 647.441 473.244 648.306C473.602 649.171 473.786 650.098 473.786 651.034Z" fill="#2267AC"/>
<path d="M412.461 517.088C412.601 518.097 412.523 519.124 412.232 520.1C411.941 521.077 411.444 521.979 410.775 522.747C410.106 523.515 409.28 524.131 408.353 524.553C407.426 524.974 406.42 525.193 405.401 525.193C404.383 525.193 403.376 524.974 402.449 524.553C401.522 524.131 400.696 523.515 400.027 522.747C399.358 521.979 398.861 521.077 398.57 520.1C398.279 519.124 398.201 518.097 398.341 517.088C398.577 515.383 399.421 513.821 400.719 512.691C402.017 511.56 403.68 510.938 405.401 510.938C407.122 510.938 408.785 511.56 410.083 512.691C411.381 513.821 412.226 515.383 412.461 517.088Z" fill="#2267AC"/>
<path d="M234.002 610.42C234.029 611.841 233.63 613.237 232.857 614.43C232.084 615.622 230.972 616.557 229.665 617.113C228.357 617.669 226.913 617.821 225.518 617.55C224.123 617.28 222.841 616.598 221.836 615.593C220.831 614.589 220.149 613.306 219.879 611.911C219.608 610.516 219.76 609.072 220.316 607.764C220.872 606.457 221.807 605.345 222.999 604.572C224.192 603.799 225.588 603.4 227.009 603.427C228.864 603.427 230.642 604.164 231.954 605.475C233.265 606.787 234.002 608.565 234.002 610.42Z" fill="#2267AC"/>
<path d="M298.015 677.123C298.015 678.053 297.83 678.974 297.47 679.831C297.111 680.688 296.583 681.465 295.92 682.116C295.256 682.767 294.469 683.28 293.605 683.623C292.741 683.967 291.817 684.134 290.888 684.116C289.033 684.116 287.254 683.38 285.943 682.068C284.631 680.757 283.895 678.978 283.895 677.123C283.895 675.269 284.631 673.49 285.943 672.178C287.254 670.867 289.033 670.13 290.888 670.13C291.817 670.112 292.741 670.28 293.605 670.623C294.469 670.967 295.256 671.479 295.92 672.13C296.583 672.781 297.111 673.558 297.47 674.416C297.83 675.273 298.015 676.193 298.015 677.123Z" fill="#2267AC"/>
<path d="M103.687 578.411C103.687 580.266 102.951 582.045 101.639 583.356C100.328 584.667 98.549 585.404 96.6943 585.404C94.8396 585.404 93.0609 584.667 91.7494 583.356C90.4379 582.045 89.7012 580.266 89.7012 578.411C89.7012 576.556 90.4379 574.778 91.7494 573.466C93.0609 572.155 94.8396 571.418 96.6943 571.418C98.549 571.418 100.328 572.155 101.639 573.466C102.951 574.778 103.687 576.556 103.687 578.411Z" fill="#2267AC"/>
<path d="M84.3209 454.553C84.2944 455.93 83.8619 457.269 83.0775 458.401C82.2932 459.533 81.192 460.409 79.9121 460.918C78.6321 461.426 77.2305 461.546 75.8829 461.261C74.5354 460.976 73.3019 460.3 72.3373 459.317C71.3727 458.333 70.7199 457.087 70.4608 455.734C70.2017 454.382 70.3478 452.983 70.8808 451.713C71.4138 450.443 72.31 449.358 73.4569 448.596C74.6039 447.833 75.9504 447.426 77.3278 447.426C78.2575 447.426 79.178 447.611 80.0354 447.971C80.8927 448.33 81.6697 448.858 82.3208 449.521C82.972 450.185 83.4843 450.972 83.8277 451.836C84.1711 452.7 84.3388 453.624 84.3209 454.553Z" fill="#2267AC"/>
<path d="M14.122 341.319C14.122 343.209 13.3711 345.022 12.0344 346.359C10.6977 347.695 8.88477 348.446 6.99441 348.446C6.06464 348.446 5.14417 348.261 4.28684 347.901C3.4295 347.542 2.65253 347.014 2.00136 346.351C1.3502 345.687 0.837937 344.9 0.494514 344.036C0.151091 343.172 -0.016587 342.248 0.00129331 341.319C0.00129331 339.464 0.738061 337.685 2.04953 336.374C3.36099 335.062 5.13972 334.326 6.99441 334.326C7.92402 334.308 8.84785 334.475 9.71188 334.819C10.5759 335.162 11.3628 335.674 12.0265 336.326C12.6902 336.977 13.2173 337.754 13.5771 338.611C13.9369 339.468 14.1222 340.389 14.122 341.319Z" fill="#2267AC"/>
<path d="M88.4914 232.251C88.4914 234.141 87.7404 235.954 86.4037 237.291C85.067 238.628 83.2541 239.379 81.3637 239.379C79.6588 239.143 78.0968 238.298 76.9663 237C75.8357 235.702 75.2129 234.039 75.2129 232.318C75.2129 230.597 75.8357 228.934 76.9663 227.636C78.0968 226.338 79.6588 225.494 81.3637 225.258C83.231 225.257 85.0239 225.99 86.3568 227.298C87.6897 228.605 88.4561 230.384 88.4914 232.251Z" fill="#2267AC"/>
<path d="M89.2985 135.83C89.3163 136.76 89.1487 137.684 88.8052 138.548C88.4618 139.412 87.9496 140.199 87.2984 140.862C86.6472 141.526 85.8703 142.053 85.0129 142.413C84.1556 142.773 83.2351 142.958 82.3053 142.958C80.415 142.958 78.6021 142.207 77.2654 140.87C75.9287 139.534 75.1777 137.721 75.1777 135.83C75.1776 134.901 75.3628 133.98 75.7226 133.123C76.0824 132.265 76.6096 131.488 77.2733 130.837C77.937 130.186 78.7238 129.674 79.5879 129.33C80.4519 128.987 81.3757 128.819 82.3053 128.837C84.16 128.837 85.9388 129.574 87.2502 130.885C88.5617 132.197 89.2985 133.976 89.2985 135.83Z" fill="#2267AC"/>
<path d="M240.321 37.655C240.321 38.5847 240.136 39.5052 239.776 40.3625C239.417 41.2199 238.889 41.9968 238.226 42.648C237.562 43.2992 236.775 43.8114 235.911 44.1548C235.047 44.4983 234.123 44.666 233.194 44.6481C231.339 44.6481 229.56 43.9113 228.249 42.5998C226.937 41.2884 226.201 39.5096 226.201 37.655C226.183 36.7253 226.35 35.8015 226.694 34.9375C227.037 34.0734 227.549 33.2866 228.201 32.6229C228.852 31.9592 229.629 31.432 230.486 31.0722C231.343 30.7124 232.264 30.5272 233.194 30.5273C235.084 30.5273 236.897 31.2783 238.234 32.615C239.57 33.9517 240.321 35.7646 240.321 37.655Z" fill="#2267AC"/>
<path d="M279.054 180.479C279.072 181.408 278.905 182.332 278.561 183.196C278.218 184.06 277.705 184.847 277.054 185.511C276.403 186.175 275.626 186.702 274.769 187.061C273.911 187.421 272.991 187.607 272.061 187.606C270.171 187.606 268.358 186.855 267.021 185.519C265.685 184.182 264.934 182.369 264.934 180.479C264.933 179.549 265.119 178.629 265.478 177.771C265.838 176.914 266.365 176.137 267.029 175.486C267.693 174.835 268.48 174.322 269.344 173.979C270.208 173.635 271.132 173.468 272.061 173.486C273.916 173.486 275.695 174.222 277.006 175.534C278.318 176.845 279.054 178.624 279.054 180.479Z" fill="#2267AC"/>
<path d="M226.74 396.186C226.758 397.115 226.59 398.039 226.247 398.903C225.903 399.767 225.391 400.554 224.74 401.218C224.089 401.882 223.312 402.409 222.454 402.769C221.597 403.128 220.677 403.314 219.747 403.313C217.856 403.313 216.043 402.562 214.707 401.226C213.37 399.889 212.619 398.076 212.619 396.186C212.619 395.256 212.804 394.336 213.164 393.478C213.524 392.621 214.051 391.844 214.715 391.193C215.378 390.542 216.165 390.029 217.029 389.686C217.893 389.343 218.817 389.175 219.747 389.193C221.601 389.193 223.38 389.929 224.692 391.241C226.003 392.552 226.74 394.331 226.74 396.186Z" fill="#2267AC"/>
<path d="M466.658 84.5882C466.658 85.5179 466.473 86.4384 466.113 87.2957C465.753 88.1531 465.226 88.93 464.562 89.5812C463.899 90.2324 463.112 90.7446 462.248 91.0881C461.384 91.4315 460.46 91.5992 459.53 91.5813C457.676 91.5813 455.897 90.8445 454.585 89.533C453.274 88.2216 452.537 86.4429 452.537 84.5882C452.537 82.7335 453.274 80.9547 454.585 79.6433C455.897 78.3318 457.676 77.595 459.53 77.595C460.46 77.5772 461.384 77.7448 462.248 78.0883C463.112 78.4317 463.899 78.944 464.562 79.5951C465.226 80.2463 465.753 81.0233 466.113 81.8806C466.473 82.7379 466.658 83.6584 466.658 84.5882Z" fill="#2267AC"/>
<path d="M425.908 6.99312C425.908 8.84781 425.171 10.6265 423.86 11.938C422.548 13.2495 420.77 13.9862 418.915 13.9862C417.06 13.9862 415.282 13.2495 413.97 11.938C412.659 10.6265 411.922 8.84781 411.922 6.99312C411.922 5.13843 412.659 3.3597 413.97 2.04823C415.282 0.736768 417.06 0 418.915 0C420.77 0 422.548 0.736768 423.86 2.04823C425.171 3.3597 425.908 5.13843 425.908 6.99312Z" fill="#2267AC"/>
</g>
</svg>
