<svg width="24" height="25" viewBox="0 0 24 25" fill="none" xmlns="http://www.w3.org/2000/svg">
<path d="M24 2.02252V22.4931C24 22.9611 23.8141 23.41 23.4831 23.7409C23.1522 24.0719 22.7033 24.2578 22.2353 24.2578H1.76471C1.29668 24.2578 0.847817 24.0719 0.51687 23.7409C0.185924 23.41 0 22.9611 0 22.4931L0 2.02252C0 1.55449 0.185924 1.10563 0.51687 0.774683C0.847817 0.443736 1.29668 0.257813 1.76471 0.257813L22.2353 0.257812C22.7033 0.257812 23.1522 0.443736 23.4831 0.774683C23.8141 1.10563 24 1.55449 24 2.02252ZM7.05882 9.43428H3.52941V20.7284H7.05882V9.43428ZM7.37647 5.55193C7.37833 5.28496 7.32759 5.02024 7.22714 4.77287C7.12669 4.52552 6.9785 4.30036 6.79103 4.11027C6.60357 3.92019 6.38049 3.76888 6.13455 3.66501C5.88861 3.56113 5.62462 3.50672 5.35765 3.50487H5.29412C4.7512 3.50487 4.23053 3.72054 3.84663 4.10444C3.46273 4.48834 3.24706 5.00902 3.24706 5.55193C3.24706 6.09484 3.46273 6.61552 3.84663 6.99942C4.23053 7.38332 4.7512 7.59899 5.29412 7.59899C5.56111 7.60556 5.82678 7.55945 6.07594 7.46331C6.32511 7.36717 6.55289 7.22288 6.74627 7.03867C6.93965 6.85447 7.09484 6.63397 7.20297 6.38977C7.3111 6.14557 7.37006 5.88245 7.37647 5.61546V5.55193ZM20.4706 13.8672C20.4706 10.4719 18.3106 9.15193 16.1647 9.15193C15.4621 9.11675 14.7626 9.2664 14.1358 9.58595C13.5091 9.9055 12.9771 10.3838 12.5929 10.9731H12.4941V9.43428H9.17647V20.7284H12.7059V14.7213C12.6549 14.1061 12.8487 13.4956 13.2452 13.0224C13.6417 12.5493 14.2089 12.2517 14.8235 12.1943H14.9576C16.08 12.1943 16.9129 12.9002 16.9129 14.679V20.7284H20.4424L20.4706 13.8672Z" fill="#E0E0E0"/>
</svg>
