<?xml version="1.0" encoding="utf-8"?>
<!-- Generator: Adobe Illustrator 23.0.1, SVG Export Plug-In . SVG Version: 6.00 Build 0)  -->
<svg version="1.1"
	 id="svg2" inkscape:export-filename="D:\Cliparts\icon_letter_mail.png" inkscape:export-xdpi="204.75" inkscape:export-ydpi="204.75" inkscape:output_extension="org.inkscape.output.svg.inkscape" inkscape:version="0.47 r22583" sodipodi:docname="icon_letter_mail.svg" sodipodi:modified="TRUE" sodipodi:version="0.32" xmlns:cc="http://creativecommons.org/ns#" xmlns:dc="http://purl.org/dc/elements/1.1/" xmlns:inkscape="http://www.inkscape.org/namespaces/inkscape" xmlns:ns1="http://sozi.baierouge.fr" xmlns:rdf="http://www.w3.org/1999/02/22-rdf-syntax-ns#" xmlns:sodipodi="http://sodipodi.sourceforge.net/DTD/sodipodi-0.dtd" xmlns:svg="http://www.w3.org/2000/svg"
	 xmlns="http://www.w3.org/2000/svg" xmlns:xlink="http://www.w3.org/1999/xlink" x="0px" y="0px" viewBox="0 0 56 40"
	 style="enable-background:new 0 0 56 40;" xml:space="preserve">
<g id="layer1" transform="translate(-17,42)" inkscape:groupmode="layer" inkscape:label="Calque 1">
	<path id="rect3174" sodipodi:nodetypes="ccscccccccccccccccccccccccccccc" d="M23-42c-3.3,0-6,2.7-6,6c0.1,9.1,0,18.7,0,28
		c0,3.2,2.5,5.8,5.6,6l44.6,0C70.4-2.1,73-4.8,73-8v-29c-0.5-2.8-2.9-5-5.9-5C52.4-42,37.7-42,23-42L23-42z M22.9-38.8h44.4
		L45.8-17.4c-0.4,0.4-1,0.4-1.4,0L22.9-38.8L22.9-38.8z M70-37.3v29.1c0,1.7-0.6,2.7-1.9,3.1L53-20.3L70-37.3L70-37.3z M20.3-37.2
		l16.7,16.7L21.8-5.2c-1-0.4-1.4-1.2-1.4-2.3L20.3-37.2L20.3-37.2z M39.2-18.4l5.2,5.3c0.4,0.4,1,0.4,1.4,0l5.1-5.1L64.1-5H25.8
		L39.2-18.4L39.2-18.4z"/>
</g>
</svg>
