<?xml version="1.0" encoding="utf-8"?>
<!-- Generator: Adobe Illustrator 26.0.0, SVG Export Plug-In . SVG Version: 6.00 Build 0)  -->
<svg version="1.0" id="Layer_1" xmlns="http://www.w3.org/2000/svg" xmlns:xlink="http://www.w3.org/1999/xlink" x="0px" y="0px"
	 viewBox="0 0 176 40" enable-background="new 0 0 176 40" xml:space="preserve">
<g>
	<g>
		<path fill="#1C2E52" d="M39.86,16.25c-0.05-0.2-0.18-0.36-0.36-0.46l-8.15-4.36l-5.87-8.99h0.01l13.02,8.17
			c0.11,0.07,0.25,0.11,0.38,0.11c0.39,0,0.71-0.31,0.72-0.7c0-0.16-0.04-0.31-0.13-0.43l-5.1-8.25C34.27,1.13,34.03,1,33.79,1h-9.6
			c-0.01,0-0.02,0-0.04,0h-0.89c-0.01,0-0.03,0-0.04,0h-0.94v0H10.77c-0.25,0-0.48,0.13-0.61,0.34l-5.1,8.25
			c-0.09,0.13-0.14,0.28-0.13,0.44c0.02,0.38,0.33,0.69,0.72,0.69c0.14,0,0.27-0.04,0.38-0.11l13.03-8.18h0.01l-5.87,8.99
			l-8.15,4.36c-0.18,0.1-0.31,0.26-0.36,0.46c-0.05,0.2-0.01,0.4,0.1,0.57l5.88,8.94c0.14,0.21,0.36,0.32,0.6,0.32
			c0.07,0,0.14-0.01,0.21-0.03c0.3-0.09,0.51-0.37,0.51-0.69v-9.45l2.3-3.53c0.01-0.01,0.01-0.01,0.01-0.02l6.03-9.24l-2.95,16.04
			l-4.76,6.86c-0.17,0.24-0.17,0.57,0,0.82l8.1,11.85c0.14,0.2,0.36,0.31,0.59,0.31c0.1,0,0.21-0.02,0.31-0.07
			c0.32-0.15,0.48-0.51,0.38-0.85l-4.1-13.79l0.86-4.69c0-0.01,0-0.02,0.01-0.03l3.15-17.13h0.36v0h0.35l3.15,17.12
			c0,0.01,0,0.02,0.01,0.03l0.86,4.69l-4.1,13.79c-0.1,0.34,0.06,0.7,0.38,0.85c0.1,0.05,0.2,0.07,0.31,0.07
			c0.23,0,0.46-0.11,0.59-0.31l8.1-11.85c0.17-0.25,0.17-0.57,0-0.82l-4.76-6.86L24.22,3.12l6.03,9.24c0,0.01,0.01,0.01,0.01,0.02
			l2.3,3.53v9.45c0,0.32,0.21,0.6,0.51,0.69c0.07,0.02,0.14,0.03,0.21,0.03c0.24,0,0.47-0.12,0.6-0.32l5.88-8.94
			C39.87,16.65,39.91,16.45,39.86,16.25z M33.39,2.44l3.28,5.31l-8.46-5.31H33.39z M7.89,7.75l3.29-5.31h5.18L7.89,7.75z
			 M10.67,15.31c-0.08,0.12-0.12,0.25-0.12,0.39v7.27l-4.13-6.28l5.14-2.75L10.67,15.31z M19.33,34.09l-5.23-7.65l2.66-3.84
			l-0.29,1.6c-0.02,0.11-0.01,0.23,0.02,0.33L19.33,34.09z M28.09,24.19l-0.29-1.6l2.66,3.84l-5.23,7.65l2.84-9.56
			C28.11,24.42,28.11,24.31,28.09,24.19z M34,22.97V15.7c0-0.14-0.04-0.28-0.12-0.39l-0.89-1.37l5.14,2.75L34,22.97z"/>
	</g>
	<g>
		<g>
			<g>
				<path fill="#1C2E52" d="M52.92,11.74l5.27-5.82h-2.7l-6.5,7.04V5.93h-2.3v13.62h2.3v-3.46l2.31-2.55l4.48,6.01h2.76L52.92,11.74
					z"/>
			</g>
			<g>
				<path fill="#1C2E52" d="M61.68,5.93v13.62h2.3V5.93H61.68z"/>
			</g>
			<g>
				<path fill="#1C2E52" d="M80.18,5.93l-4.48,9.05l-4.5-9.05h-2.72v13.62h2.16V9.37l4.3,8.75h1.5l4.3-8.75l0.02,10.18h2.12V5.93
					H80.18z"/>
			</g>
			<g>
				<path fill="#1C2E52" d="M95.52,12.37c1.48-0.35,2.4-1.5,2.4-3.04c0-2.12-1.75-3.4-4.57-3.4h-5.92v2.04h5.8
					c1.46,0,2.34,0.62,2.34,1.77s-0.88,1.83-2.34,1.83h-5.8v7.98h6.05c3.07,0,4.96-1.4,4.96-3.74
					C98.44,13.98,97.35,12.68,95.52,12.37z M93.22,17.5h-3.5v-3.91h3.5c1.79,0,2.86,0.72,2.86,1.93
					C96.08,16.8,95.01,17.5,93.22,17.5z"/>
			</g>
			<g>
				<path fill="#1C2E52" d="M102.13,5.93v2.07h2.3v0h7.44V5.93H102.13z M104.43,17.48v-3.75h6.65v-2.06h-6.65v-0.01h-2.3v7.89h9.96
					v-2.06H104.43z"/>
			</g>
			<g>
				<path fill="#1C2E52" d="M124.06,14.99c1.81-0.7,2.82-2.24,2.82-4.42c0-2.96-2-4.65-5.49-4.65h-5.53v13.62h2.3v-4.1h3.23
					c0.21,0,0.43,0,0.62-0.02l2.49,4.13h2.61L124.06,14.99z M121.39,13.38h-3.23V7.99h3.23c2.1,0,3.31,0.85,3.31,2.65
					C124.7,12.49,123.5,13.38,121.39,13.38z"/>
			</g>
			<g>
				<path fill="#245FA5" d="M133.21,17.47V5.93h-2.3v13.62h8.19v-2.08H133.21z"/>
			</g>
			<g>
				<path fill="#245FA5" d="M142.27,5.93v13.62h2.3V5.93H142.27z"/>
			</g>
			<g>
				<path fill="#245FA5" d="M147.47,5.93v2.06h4.3v11.56h2.3V7.99h4.32V5.93H147.47z"/>
			</g>
			<g>
				<path fill="#245FA5" d="M163.66,17.48v-3.75h6.65v-2.06h-6.65v-0.01h-2.3v7.89h9.96v-2.06H163.66z M165.14,7.99h5.95V5.93h-9.73
					v2.06L165.14,7.99L165.14,7.99z"/>
			</g>
		</g>
		<g>
			<g>
				<path fill="#626465" d="M118.05,26.99v7.02h-1.39v-7.02h-2.61v-1.25h6.63v1.25H118.05z"/>
			</g>
			<g>
				<path fill="#626465" d="M134.02,29.88c0,2.36-1.91,4.2-4.38,4.2c-2.47,0-4.38-1.83-4.38-4.2c0-2.38,1.91-4.17,4.38-4.17
					C132.11,25.71,134.02,27.51,134.02,29.88z M126.67,29.88c0,1.64,1.36,2.94,2.98,2.94c1.62,0,2.94-1.3,2.94-2.94
					s-1.32-2.92-2.94-2.92C128.02,26.96,126.67,28.24,126.67,29.88z"/>
			</g>
			<g>
				<path fill="#626465" d="M142.45,30.36l-1.41,1.55v2.1h-1.39v-8.27h1.39v4.28l3.95-4.28h1.64l-3.2,3.53l3.41,4.74h-1.68
					L142.45,30.36z"/>
			</g>
			<g>
				<path fill="#626465" d="M153.66,26.99v2.23h4.04v1.25h-4.04v2.28h4.66v1.25h-6.05v-8.27h5.91v1.25H153.66z"/>
			</g>
			<g>
				<path fill="#626465" d="M169.95,34.01l-4.41-5.93v5.93h-1.39v-8.27h1.37l4.43,5.94v-5.94h1.37v8.27H169.95z"/>
			</g>
		</g>
		<g>
			<path fill="#1C2E52" d="M109.99,30.24H46.7c-0.19,0-0.35-0.16-0.35-0.35s0.16-0.35,0.35-0.35h63.29c0.19,0,0.35,0.16,0.35,0.35
				S110.18,30.24,109.99,30.24z"/>
		</g>
	</g>
</g>
</svg>
