<svg width="72" height="73" viewBox="0 0 72 73" fill="none" xmlns="http://www.w3.org/2000/svg">
<path d="M30.8813 56.3516C39.2692 56.3516 46.0688 49.5519 46.0688 41.1641C46.0688 32.7762 39.2692 25.9766 30.8813 25.9766C22.4935 25.9766 15.6938 32.7762 15.6938 41.1641C15.6938 49.5519 22.4935 56.3516 30.8813 56.3516Z" fill="url(#paint0_linear_397_11614)"/>
<path d="M24.5026 21.6113C24.3879 21.6099 24.2741 21.5909 24.1651 21.555C19.3191 20.1069 14.3407 19.1458 9.30385 18.6863C9.02538 18.6583 8.76735 18.5275 8.58012 18.3195C8.3929 18.1115 8.28994 17.8412 8.29134 17.5613V17.4038C8.11133 16.9112 8.04219 16.3849 8.08884 15.8625C8.08716 15.5844 8.18855 15.3155 8.37345 15.1078C8.55835 14.9 8.81366 14.7681 9.09009 14.7375C16.2226 13.9725 21.7688 14.085 26.5388 15.0863C26.6936 15.1052 26.8427 15.156 26.9767 15.2355C27.1108 15.3151 27.2268 15.4216 27.3175 15.5484C27.4082 15.6751 27.4716 15.8193 27.5036 15.9719C27.5356 16.1244 27.5356 16.282 27.5035 16.4345C27.4715 16.587 27.408 16.7312 27.3173 16.858C27.2266 16.9847 27.1105 17.0912 26.9764 17.1707C26.8423 17.2502 26.6932 17.301 26.5385 17.3198C26.3838 17.3386 26.2268 17.3251 26.0776 17.28C21.4703 16.4314 16.7657 16.242 12.1051 16.7175C16.4166 17.241 20.6741 18.1407 24.8288 19.4063C25.1272 19.4496 25.3962 19.6096 25.5766 19.8511C25.7569 20.0927 25.834 20.3961 25.7907 20.6944C25.7475 20.9928 25.5874 21.2618 25.3459 21.4421C25.1043 21.6225 24.801 21.6996 24.5026 21.6563V21.6113Z" fill="white"/>
<path d="M47.3737 34.0637C47.116 34.0648 46.8658 33.9775 46.6649 33.8162C42.819 30.709 38.6736 27.9918 34.2899 25.705C34.148 25.6438 34.0202 25.554 33.9146 25.4412C33.8089 25.3284 33.7276 25.195 33.6758 25.0494C33.6239 24.9038 33.6026 24.7491 33.6132 24.5949C33.6238 24.4407 33.6661 24.2903 33.7374 24.1532C33.8087 24.0161 33.9074 23.8951 34.0275 23.7978C34.1476 23.7005 34.2865 23.6291 34.4355 23.5878C34.5844 23.5466 34.7403 23.5365 34.8933 23.5582C35.0463 23.5798 35.1933 23.6328 35.3249 23.7137C39.322 25.7943 43.1215 28.2343 46.6762 31.0037C43.5636 27.2632 39.9259 23.993 35.8762 21.295C35.624 21.1294 35.448 20.8704 35.3868 20.5751C35.3257 20.2797 35.3843 19.9721 35.5499 19.72C35.7155 19.4679 35.9745 19.2919 36.2698 19.2307C36.5652 19.1695 36.8728 19.2282 37.1249 19.3937C41.2424 21.9925 45.3037 25.7612 49.8937 31.2512C49.9998 31.3767 50.0771 31.5238 50.1203 31.6823C50.1635 31.8409 50.1714 32.0069 50.1435 32.1688C50.1157 32.3307 50.0526 32.4846 49.9589 32.6195C49.8652 32.7545 49.7431 32.8673 49.6012 32.95L47.9362 33.9062C47.7658 34.0074 47.5718 34.0617 47.3737 34.0637Z" fill="white"/>
<path d="M16.5376 58.3986C15.8876 58.3968 15.248 58.2355 14.6749 57.9288C14.1018 57.6221 13.6127 57.1794 13.2506 56.6396C12.8886 56.0998 12.6645 55.4794 12.5981 54.8328C12.5318 54.1862 12.6252 53.5332 12.8701 52.9311L24.8176 23.9174C24.8742 23.7805 24.9573 23.6562 25.0621 23.5516C25.1669 23.4469 25.2913 23.364 25.4283 23.3076C25.5652 23.2511 25.7119 23.2223 25.86 23.2227C26.0081 23.2231 26.1547 23.2527 26.2913 23.3099L31.5001 25.4699C31.7757 25.5822 31.9956 25.7992 32.1115 26.0733C32.2275 26.3474 32.2301 26.6563 32.1188 26.9324L20.2501 55.9461C19.9456 56.6779 19.4296 57.3023 18.7682 57.7392C18.1069 58.1761 17.3302 58.4057 16.5376 58.3986ZM26.4713 25.7736L14.9513 53.7861C14.8653 53.9929 14.821 54.2146 14.821 54.4386C14.821 54.6626 14.8653 54.8843 14.9513 55.0911C15.0374 55.3002 15.1642 55.4902 15.3243 55.65C15.4843 55.8098 15.6745 55.9362 15.8837 56.022C16.093 56.1078 16.3172 56.1513 16.5434 56.1498C16.7695 56.1484 16.9932 56.1021 17.2013 56.0136C17.6208 55.8395 17.9558 55.5085 18.1351 55.0911L29.6326 27.1236L26.4713 25.7736Z" fill="white"/>
<path d="M33.5025 28.6313C33.3562 28.6331 33.211 28.6063 33.075 28.5526L23.04 24.4126C22.7651 24.2984 22.5467 24.0799 22.4325 23.8051C22.3716 23.6708 22.3401 23.525 22.3401 23.3776C22.3401 23.2301 22.3716 23.0843 22.4325 22.9501L25.8075 14.6363C26.1013 13.933 26.6608 13.3742 27.3645 13.0813C28.0682 12.7885 28.859 12.7853 29.565 13.0726L36.315 15.8738C36.6764 16.001 37.0083 16.2002 37.2907 16.4593C37.573 16.7184 37.7998 17.0321 37.9575 17.3813C38.1054 17.7379 38.1816 18.1202 38.1816 18.5063C38.1816 18.8924 38.1054 19.2747 37.9575 19.6313L37.5638 20.5651L34.5263 27.9226C34.4443 28.1284 34.3035 28.3054 34.1214 28.4315C33.9392 28.5576 33.724 28.6271 33.5025 28.6313ZM24.9413 22.7588L32.895 26.0438L35.8875 18.7763C35.9433 18.6199 35.9433 18.449 35.8875 18.2926C35.82 18.1387 35.6947 18.0175 35.5388 17.9551L28.7888 15.1538C28.7134 15.1225 28.6327 15.1065 28.5511 15.1065C28.4696 15.1066 28.3889 15.1228 28.3136 15.1541C28.2383 15.1855 28.17 15.2314 28.1125 15.2893C28.055 15.3472 28.0096 15.4158 27.9788 15.4913L24.9413 22.7588Z" fill="white"/>
<path d="M35.4262 17.1442C35.2792 17.1424 35.1339 17.1118 34.9987 17.0542L29.7562 14.8942C29.4826 14.7797 29.2653 14.5618 29.1515 14.2879C29.0377 14.014 29.0367 13.7063 29.1487 13.4317L30.6562 9.76416C30.7703 9.48926 30.9888 9.27082 31.2637 9.15666C31.5376 9.04414 31.8448 9.04414 32.1187 9.15666L37.3612 11.3167C37.499 11.3722 37.6245 11.4546 37.7303 11.5589C37.8361 11.6632 37.9202 11.7875 37.9778 11.9245C38.0353 12.0616 38.0651 12.2086 38.0655 12.3573C38.0659 12.5059 38.0368 12.6531 37.9799 12.7904L36.4724 16.4467C36.3583 16.7215 36.1398 16.94 35.8649 17.0542C35.7254 17.1108 35.5767 17.1413 35.4262 17.1442ZM31.6574 13.2517L34.8749 14.5454L35.5274 12.9704L32.2987 11.6654L31.6574 13.2517Z" fill="white"/>
<path d="M49.5676 64.8676C47.0417 64.8698 44.5719 64.1228 42.4706 62.7211C40.3693 61.3194 38.731 59.326 37.7628 56.993C36.7946 54.66 36.5402 52.0923 37.0316 49.6147C37.523 47.137 38.7382 44.8608 40.5235 43.0739C42.3088 41.2871 44.5839 40.0699 47.0612 39.5763C49.5384 39.0827 52.1063 39.3349 54.4401 40.301C56.774 41.2671 58.7689 42.9037 60.1724 45.0037C61.5759 47.1038 62.3251 49.5729 62.3251 52.0988C62.3251 55.4834 60.9814 58.7294 58.5892 61.1237C56.197 63.518 52.9521 64.8646 49.5676 64.8676ZM49.5676 41.5913C47.4862 41.5891 45.451 42.2044 43.7195 43.3594C41.9879 44.5143 40.638 46.157 39.8405 48.0795C39.0429 50.002 38.8337 52.1179 39.2392 54.1594C39.6447 56.2009 40.6467 58.0762 42.1185 59.548C43.5902 61.0197 45.4655 62.0217 47.507 62.4273C49.5485 62.8328 51.6644 62.6235 53.5869 61.826C55.5094 61.0284 57.1521 59.6785 58.3071 57.947C59.462 56.2154 60.0773 54.1802 60.0751 52.0988C60.0721 49.313 58.9641 46.6421 56.9942 44.6722C55.0243 42.7023 52.3535 41.5943 49.5676 41.5913Z" fill="white"/>
<path d="M50.625 52.9877H47.34C47.2238 52.9877 47.1088 52.9646 47.0016 52.9198C46.8943 52.875 46.7971 52.8094 46.7155 52.7267C46.6338 52.644 46.5694 52.5459 46.526 52.4382C46.4826 52.3304 46.461 52.2151 46.4625 52.0989V47.7564C46.4625 47.5237 46.5549 47.3005 46.7195 47.1359C46.8841 46.9714 47.1072 46.8789 47.34 46.8789H50.625C51.4089 46.9263 52.1451 47.2711 52.6833 47.843C53.2216 48.4148 53.5213 49.1705 53.5213 49.9558C53.5213 50.7411 53.2216 51.4968 52.6833 52.0686C52.1451 52.6404 51.4089 52.9852 50.625 53.0327V52.9877ZM48.2062 51.2214H50.625C50.9741 51.2214 51.3089 51.0827 51.5557 50.8359C51.8026 50.589 51.9412 50.2542 51.9412 49.9052C51.9412 49.5561 51.8026 49.2213 51.5557 48.9744C51.3089 48.7276 50.9741 48.5889 50.625 48.5889H48.2175L48.2062 51.2214Z" fill="white"/>
<path d="M51.7501 57.3742H47.3626C47.1299 57.3742 46.9067 57.2818 46.7421 57.1172C46.5776 56.9526 46.4851 56.7294 46.4851 56.4967V52.098C46.4851 51.8652 46.5776 51.642 46.7421 51.4775C46.9067 51.3129 47.1299 51.2205 47.3626 51.2205H51.7501C52.1698 51.1951 52.5903 51.2558 52.9856 51.399C53.381 51.5421 53.7429 51.7646 54.0491 52.0528C54.3552 52.341 54.5992 52.6888 54.766 53.0748C54.9327 53.4608 55.0187 53.8769 55.0187 54.2973C55.0187 54.7178 54.9327 55.1338 54.766 55.5198C54.5992 55.9058 54.3552 56.2536 54.0491 56.5418C53.7429 56.83 53.381 57.0526 52.9856 57.1957C52.5903 57.3389 52.1698 57.3996 51.7501 57.3742ZM48.2176 55.6305H51.7501C52.0992 55.6305 52.434 55.4918 52.6808 55.2449C52.9277 54.9981 53.0664 54.6633 53.0664 54.3142C53.0664 53.9651 52.9277 53.6303 52.6808 53.3835C52.434 53.1366 52.0992 52.998 51.7501 52.998H48.2176V55.6305Z" fill="white"/>
<path d="M49.5001 48.5889C49.3848 48.5889 49.2707 48.5662 49.1643 48.5221C49.0578 48.478 48.9611 48.4134 48.8796 48.3319C48.7981 48.2504 48.7335 48.1537 48.6894 48.0472C48.6453 47.9407 48.6226 47.8266 48.6226 47.7114V46.6314C48.6226 46.3987 48.715 46.1755 48.8796 46.0109C49.0441 45.8464 49.2673 45.7539 49.5001 45.7539C49.7328 45.7539 49.956 45.8464 50.1205 46.0109C50.2851 46.1755 50.3776 46.3987 50.3776 46.6314V47.7564C50.366 47.9812 50.2685 48.193 50.1052 48.348C49.9418 48.503 49.7252 48.5892 49.5001 48.5889Z" fill="white"/>
<path d="M49.4999 58.4772C49.3837 58.4772 49.2687 58.4541 49.1615 58.4093C49.0543 58.3645 48.957 58.2989 48.8754 58.2162C48.7938 58.1335 48.7294 58.0355 48.6859 57.9277C48.6425 57.8199 48.6209 57.7046 48.6224 57.5884V56.4634C48.6224 56.2307 48.7148 56.0075 48.8794 55.843C49.044 55.6784 49.2672 55.5859 49.4999 55.5859C49.7326 55.5859 49.9558 55.6784 50.1204 55.843C50.2849 56.0075 50.3774 56.2307 50.3774 56.4634V57.5884C50.3789 57.7046 50.3573 57.8199 50.3138 57.9277C50.2704 58.0355 50.206 58.1335 50.1244 58.2162C50.0428 58.2989 49.9455 58.3645 49.8383 58.4093C49.7311 58.4541 49.6161 58.4772 49.4999 58.4772Z" fill="white"/>
<path d="M47.3399 48.589H46.2149C45.9822 48.589 45.759 48.4965 45.5944 48.332C45.4299 48.1674 45.3374 47.9442 45.3374 47.7115C45.3374 47.4788 45.4299 47.2556 45.5944 47.091C45.759 46.9264 45.9822 46.834 46.2149 46.834H47.3399C47.5726 46.834 47.7958 46.9264 47.9604 47.091C48.125 47.2556 48.2174 47.4788 48.2174 47.7115C48.2174 47.9442 48.125 48.1674 47.9604 48.332C47.7958 48.4965 47.5726 48.589 47.3399 48.589Z" fill="white"/>
<path d="M47.3399 57.3741H46.2149C45.9822 57.3741 45.759 57.2817 45.5944 57.1171C45.4299 56.9526 45.3374 56.7294 45.3374 56.4966C45.3374 56.2639 45.4299 56.0407 45.5944 55.8762C45.759 55.7116 45.9822 55.6191 46.2149 55.6191H47.3399C47.5726 55.6191 47.7958 55.7116 47.9604 55.8762C48.125 56.0407 48.2174 56.2639 48.2174 56.4966C48.2174 56.7294 48.125 56.9526 47.9604 57.1171C47.7958 57.2817 47.5726 57.3741 47.3399 57.3741Z" fill="white"/>
<path d="M54.855 34.4687C54.593 34.4694 54.3389 34.3785 54.1367 34.2118C53.9344 34.045 53.7968 33.813 53.7474 33.5556C53.6981 33.2982 53.7401 33.0316 53.8664 32.8019C53.9926 32.5722 54.1951 32.3938 54.4388 32.2975L59.4676 30.25C59.745 30.1366 60.0562 30.1381 60.3326 30.2541C60.609 30.3702 60.8279 30.5913 60.9413 30.8687C61.0547 31.1462 61.0532 31.4574 60.9371 31.7338C60.8211 32.0101 60.6 32.2291 60.3226 32.3425L55.2826 34.3787C55.1473 34.4364 55.0021 34.467 54.855 34.4687Z" fill="white"/>
<path d="M52.875 25.2567C52.7208 25.254 52.5684 25.2235 52.425 25.1667C52.2849 25.1165 52.1561 25.039 52.0461 24.9386C51.9361 24.8383 51.8472 24.7171 51.7844 24.5821C51.7216 24.4471 51.6862 24.301 51.6803 24.1522C51.6744 24.0035 51.6981 23.855 51.75 23.7155L54.1125 18.2255C54.2319 17.951 54.4554 17.7351 54.7339 17.6254C55.0123 17.5157 55.323 17.5211 55.5975 17.6405C55.872 17.7598 56.0879 17.9833 56.1976 18.2618C56.3073 18.5403 56.3019 18.851 56.1825 19.1255L53.82 24.6042C53.7356 24.7878 53.6033 24.9453 53.437 25.0601C53.2708 25.1749 53.0766 25.2429 52.875 25.2567Z" fill="white"/>
<path d="M41.85 37.6992H36C35.7016 37.6992 35.4155 37.5807 35.2045 37.3697C34.9935 37.1587 34.875 36.8726 34.875 36.5742C34.875 36.2759 34.9935 35.9897 35.2045 35.7787C35.4155 35.5677 35.7016 35.4492 36 35.4492H41.85C42.1484 35.4492 42.4345 35.5677 42.6455 35.7787C42.8565 35.9897 42.975 36.2759 42.975 36.5742C42.975 36.8726 42.8565 37.1587 42.6455 37.3697C42.4345 37.5807 42.1484 37.6992 41.85 37.6992Z" fill="white"/>
<defs>
<linearGradient id="paint0_linear_397_11614" x1="15.6938" y1="41.1641" x2="46.0688" y2="41.1641" gradientUnits="userSpaceOnUse">
<stop stop-color="#F26523"/>
<stop offset="0.534361" stop-color="#F77916"/>
<stop offset="0.868252" stop-color="#FF9900"/>
</linearGradient>
</defs>
</svg>
