<svg width="72" height="72" viewBox="0 0 72 72" fill="none" xmlns="http://www.w3.org/2000/svg">
<path d="M23.625 41.0625C32.0128 41.0625 38.8125 34.2628 38.8125 25.875C38.8125 17.4872 32.0128 10.6875 23.625 10.6875C15.2372 10.6875 8.4375 17.4872 8.4375 25.875C8.4375 34.2628 15.2372 41.0625 23.625 41.0625Z" fill="url(#paint0_linear_397_11562)"/>
<path d="M47.9362 48.5557C47.6378 48.5557 47.3516 48.4371 47.1407 48.2262C46.9297 48.0152 46.8112 47.729 46.8112 47.4307C46.8112 47.1323 46.9297 46.8461 47.1407 46.6352C47.3516 46.4242 47.6378 46.3057 47.9362 46.3057H52.3349C54.4276 46.3079 56.442 45.51 57.9656 44.0754C59.4893 42.6408 60.4068 40.678 60.5305 38.589C60.6541 36.4999 59.9745 34.4426 58.6307 32.8383C57.287 31.234 55.3808 30.2041 53.3024 29.9594C53.0431 29.9259 52.8036 29.8032 52.625 29.6122C52.4463 29.4213 52.3398 29.1741 52.3237 28.9132C52.092 25.1237 50.5485 21.5331 47.9582 18.7576C45.3678 15.9821 41.8922 14.1948 38.1277 13.7024C34.3633 13.2101 30.5449 14.0434 27.3278 16.0594C24.1108 18.0754 21.6958 21.1483 20.4974 24.7507C20.4362 24.9347 20.3283 25.0998 20.1844 25.2299C20.0405 25.36 19.8655 25.4507 19.6762 25.4932C17.1475 26.0643 14.9184 27.5481 13.4156 29.6605C11.9129 31.7729 11.2423 34.3654 11.5321 36.9416C11.8219 39.5177 13.0518 41.8964 14.9862 43.6221C16.9207 45.3479 19.4238 46.2994 22.0162 46.2944H23.4562C23.7545 46.2944 24.0407 46.4129 24.2517 46.6239C24.4626 46.8349 24.5812 47.121 24.5812 47.4194C24.5812 47.7178 24.4626 48.0039 24.2517 48.2149C24.0407 48.4259 23.7545 48.5444 23.4562 48.5444H22.0162C18.9379 48.5277 15.969 47.4014 13.6541 45.3723C11.3393 43.3432 9.8338 40.5474 9.41398 37.4978C8.99416 34.4483 9.68815 31.3497 11.3686 28.7706C13.049 26.1914 15.6032 24.3048 18.5624 23.4569C20.0209 19.534 22.7594 16.2174 26.3354 14.0428C29.9114 11.8683 34.116 10.9628 38.2701 11.4726C42.4242 11.9824 46.2851 13.8778 49.2291 16.8526C52.1731 19.8273 54.0283 23.7077 54.4949 27.8669C56.812 28.3732 58.8889 29.65 60.3866 31.489C61.8844 33.3279 62.7144 35.6204 62.7412 37.9919C62.7531 40.7648 61.6638 43.429 59.7126 45.3993C57.7614 47.3695 55.1078 48.4845 52.3349 48.4994L47.9362 48.5557Z" fill="white"/>
<path d="M47.6324 60.8739H24.3674C24.0691 60.8739 23.7829 60.7554 23.5719 60.5444C23.361 60.3334 23.2424 60.0473 23.2424 59.7489V36.4727C23.2424 36.1743 23.361 35.8881 23.5719 35.6772C23.7829 35.4662 24.0691 35.3477 24.3674 35.3477H47.6324C47.9308 35.3477 48.2169 35.4662 48.4279 35.6772C48.6389 35.8881 48.7574 36.1743 48.7574 36.4727V59.7489C48.7574 60.0473 48.6389 60.3334 48.4279 60.5444C48.2169 60.7554 47.9308 60.8739 47.6324 60.8739ZM25.4924 58.6239H46.5074V37.5977H25.4924V58.6239Z" fill="white"/>
<path d="M36 55.0573C35.7016 55.0573 35.4155 54.9388 35.2045 54.7278C34.9935 54.5169 34.875 54.2307 34.875 53.9323V50.4336C34.875 50.1352 34.9935 49.8491 35.2045 49.6381C35.4155 49.4271 35.7016 49.3086 36 49.3086C36.2984 49.3086 36.5845 49.4271 36.7955 49.6381C37.0065 49.8491 37.125 50.1352 37.125 50.4336V53.9323C37.125 54.2307 37.0065 54.5169 36.7955 54.7278C36.5845 54.9388 36.2984 55.0573 36 55.0573Z" fill="white"/>
<path d="M42.9862 37.5968C42.6878 37.5968 42.4017 37.4783 42.1907 37.2673C41.9797 37.0563 41.8612 36.7702 41.8612 36.4718V32.9843C41.8612 31.4298 41.2436 29.939 40.1444 28.8398C39.0453 27.7406 37.5544 27.123 35.9999 27.123C34.4454 27.123 32.9546 27.7406 31.8554 28.8398C30.7562 29.939 30.1387 31.4298 30.1387 32.9843V36.4718C30.1387 36.7702 30.0201 37.0563 29.8092 37.2673C29.5982 37.4783 29.312 37.5968 29.0137 37.5968C28.7153 37.5968 28.4292 37.4783 28.2182 37.2673C28.0072 37.0563 27.8887 36.7702 27.8887 36.4718V32.9843C27.8887 30.8331 28.7432 28.7699 30.2644 27.2488C31.7856 25.7276 33.8487 24.873 35.9999 24.873C38.1512 24.873 40.2143 25.7276 41.7354 27.2488C43.2566 28.7699 44.1112 30.8331 44.1112 32.9843V36.4718C44.1112 36.7702 43.9926 37.0563 43.7817 37.2673C43.5707 37.4783 43.2845 37.5968 42.9862 37.5968Z" fill="white"/>
<path d="M35.9999 50.8607C35.2568 50.8607 34.5303 50.6403 33.9124 50.2275C33.2945 49.8146 32.8129 49.2277 32.5285 48.5411C32.2441 47.8545 32.1696 47.099 32.3146 46.3702C32.4596 45.6413 32.8175 44.9717 33.343 44.4463C33.8685 43.9208 34.538 43.5629 35.2669 43.4179C35.9958 43.2729 36.7513 43.3473 37.4379 43.6317C38.1245 43.9161 38.7113 44.3977 39.1242 45.0157C39.5371 45.6336 39.7574 46.36 39.7574 47.1032C39.7545 48.0988 39.3576 49.0529 38.6536 49.7569C37.9496 50.4609 36.9956 50.8577 35.9999 50.8607ZM35.9999 45.5957C35.7018 45.5957 35.4103 45.6841 35.1624 45.8498C34.9145 46.0154 34.7213 46.2509 34.6072 46.5263C34.4931 46.8018 34.4632 47.1049 34.5214 47.3973C34.5796 47.6897 34.7231 47.9583 34.934 48.1692C35.1448 48.38 35.4134 48.5236 35.7058 48.5817C35.9983 48.6399 36.3014 48.6101 36.5768 48.496C36.8523 48.3819 37.0877 48.1886 37.2534 47.9407C37.419 47.6928 37.5074 47.4014 37.5074 47.1032C37.5074 46.7034 37.3486 46.32 37.0659 46.0372C36.7832 45.7545 36.3997 45.5957 35.9999 45.5957Z" fill="white"/>
<defs>
<linearGradient id="paint0_linear_397_11562" x1="8.4375" y1="25.875" x2="38.8125" y2="25.875" gradientUnits="userSpaceOnUse">
<stop stop-color="#F26523"/>
<stop offset="0.534361" stop-color="#F77916"/>
<stop offset="0.868252" stop-color="#FF9900"/>
</linearGradient>
</defs>
</svg>
