<svg width="72" height="72" viewBox="0 0 72 72" fill="none" xmlns="http://www.w3.org/2000/svg">
<path d="M41.3887 61.0762C49.7765 61.0762 56.5762 54.2765 56.5762 45.8887C56.5762 37.5008 49.7765 30.7012 41.3887 30.7012C33.0008 30.7012 26.2012 37.5008 26.2012 45.8887C26.2012 54.2765 33.0008 61.0762 41.3887 61.0762Z" fill="url(#paint0_linear_397_11536)"/>
<path d="M40.9388 57.3748H40.7701L30.9938 55.8785C30.8475 55.8565 30.7069 55.8059 30.5802 55.7295C30.4534 55.6531 30.343 55.5525 30.2552 55.4333C30.1674 55.3142 30.104 55.1789 30.0686 55.0352C30.0332 54.8916 30.0265 54.7423 30.0488 54.596C30.0959 54.3025 30.2572 54.0396 30.4975 53.8646C30.7378 53.6896 31.0376 53.6169 31.3313 53.6623L40.5676 55.0685L42.3901 53.3585L29.5651 48.116C28.5616 47.698 27.4853 47.4827 26.3982 47.4827C25.3111 47.4827 24.2348 47.698 23.2313 48.116L6.06383 55.4623C5.92682 55.5267 5.77822 55.5628 5.62692 55.5685C5.47562 55.5741 5.32474 55.5492 5.18331 55.4951C5.04188 55.4411 4.91282 55.359 4.80386 55.2539C4.6949 55.1488 4.60828 55.0227 4.54918 54.8834C4.49009 54.744 4.45974 54.5941 4.45996 54.4427C4.46018 54.2913 4.49096 54.1414 4.55045 54.0022C4.60994 53.863 4.69692 53.7372 4.80619 53.6324C4.91545 53.5276 5.04475 53.4459 5.18633 53.3923L22.3426 46.046C23.6207 45.5141 24.9913 45.2402 26.3757 45.2402C27.7601 45.2402 29.1307 45.5141 30.4088 46.046L44.8538 51.941C45.0298 52.0115 45.185 52.1252 45.3053 52.2717C45.4255 52.4181 45.5068 52.5926 45.5416 52.7789C45.5763 52.9652 45.5635 53.1572 45.5043 53.3372C45.445 53.5172 45.3412 53.6793 45.2026 53.8085L41.7151 57.0935C41.5013 57.2823 41.2239 57.3828 40.9388 57.3748Z" fill="white"/>
<path d="M10.9126 67.4207C10.7283 67.4209 10.5468 67.3759 10.384 67.2896C10.2212 67.2033 10.082 67.0783 9.97885 66.9257C9.89593 66.8031 9.83801 66.6654 9.8084 66.5204C9.77879 66.3754 9.77807 66.226 9.80629 66.0808C9.8345 65.9355 9.8911 65.7972 9.97283 65.6739C10.0546 65.5505 10.1598 65.4445 10.2826 65.3619L20.2613 58.6119C20.4021 58.5181 20.5622 58.4573 20.7297 58.4339C20.8972 58.4105 21.0678 58.4252 21.2288 58.4769L39.9263 64.4619L64.5751 51.3557C64.0534 50.7738 63.3596 50.3737 62.5946 50.2139C61.8297 50.054 61.0336 50.1427 60.3226 50.4669L47.0926 56.4294C46.8211 56.5577 46.5097 56.5729 46.227 56.4716C45.9443 56.3703 45.7134 56.1609 45.5851 55.8894C45.4568 55.6179 45.4416 55.3065 45.5429 55.0238C45.6441 54.7411 45.8536 54.5102 46.1251 54.3819L59.3551 48.3744C60.4999 47.8494 61.7828 47.7049 63.0157 47.962C64.2486 48.2192 65.3668 48.8644 66.2063 49.8032L67.2076 50.9282C67.3212 51.055 67.4045 51.2059 67.4512 51.3696C67.498 51.5333 67.507 51.7055 67.4776 51.8732C67.4487 52.041 67.382 52.2002 67.2826 52.3385C67.1832 52.4769 67.0537 52.5909 66.9038 52.6719L40.5676 66.6894C40.4357 66.7594 40.2911 66.8024 40.1424 66.8159C39.9937 66.8294 39.8437 66.8132 39.7013 66.7682L21.0601 60.8057L11.5426 67.2294C11.3564 67.3545 11.137 67.4212 10.9126 67.4207Z" fill="white"/>
<path d="M40.1176 40.657C37.2401 40.6592 34.4266 39.808 32.033 38.2109C29.6394 36.6139 27.7733 34.3429 26.6706 31.6851C25.5679 29.0273 25.2782 26.1022 25.8382 23.2798C26.3982 20.4573 27.7827 17.8644 29.8166 15.8289C31.8505 13.7935 34.4423 12.407 37.2643 11.8448C40.0863 11.2826 43.0117 11.57 45.6703 12.6706C48.329 13.7713 50.6014 15.6357 52.2003 18.0281C53.7992 20.4204 54.6526 23.2332 54.6526 26.1107C54.6496 29.9657 53.1176 33.6622 50.3928 36.3892C47.6679 39.1162 43.9726 40.651 40.1176 40.657ZM40.1176 13.8257C37.6846 13.8235 35.3057 14.543 33.2819 15.8933C31.2581 17.2436 29.6803 19.1639 28.7482 21.4112C27.8162 23.6585 27.5717 26.1318 28.0458 28.5181C28.5199 30.9044 29.6912 33.0964 31.4116 34.8167C33.1319 36.5371 35.3239 37.7084 37.7102 38.1825C40.0965 38.6566 42.5698 38.4121 44.8171 37.4801C47.0644 36.548 48.9847 34.9702 50.335 32.9464C51.6852 30.9225 52.4048 28.5436 52.4026 26.1107C52.3966 22.8543 51.1004 19.7331 48.7978 17.4305C46.4952 15.1279 43.3739 13.8317 40.1176 13.8257Z" fill="white"/>
<path d="M40.1175 47.1041C35.9651 47.1064 31.9053 45.8771 28.4517 43.5717C24.998 41.2664 22.3056 37.9886 20.715 34.1529C19.1244 30.3172 18.707 26.096 19.5158 22.0231C20.3245 17.9502 22.323 14.2087 25.2584 11.2717C28.1938 8.33471 31.9343 6.33425 36.0067 5.52334C40.0792 4.71243 44.3006 5.12749 48.1372 6.71603C51.9737 8.30457 55.2529 10.9952 57.5601 14.4477C59.8673 17.9001 61.0988 21.9592 61.0988 26.1116C61.0928 31.6754 58.8808 37.0098 54.9476 40.945C51.0145 44.8803 45.6813 47.0952 40.1175 47.1041ZM40.1175 7.3804C36.4097 7.37817 32.7844 8.47579 29.7005 10.5344C26.6166 12.593 24.2126 15.5201 22.7926 18.9453C21.3727 22.3705 21.0005 26.1399 21.7234 29.7766C22.4462 33.4134 24.2315 36.754 26.8533 39.3758C29.4752 41.9977 32.8158 43.783 36.4526 44.5058C40.0893 45.2286 43.8587 44.8565 47.2839 43.4366C50.7091 42.0166 53.6362 39.6126 55.6948 36.5287C57.7534 33.4447 58.851 29.8195 58.8488 26.1116C58.8428 21.1456 56.8674 16.3847 53.3559 12.8732C49.8444 9.36173 45.0835 7.38635 40.1175 7.3804Z" fill="white"/>
<path d="M40.1176 10.665C39.8381 10.6523 39.5734 10.536 39.3751 10.3387C39.2688 10.2345 39.1842 10.1103 39.1263 9.97315C39.0684 9.83604 39.0382 9.6888 39.0376 9.53995C39.0382 9.39111 39.0684 9.24387 39.1263 9.10676C39.1842 8.96965 39.2688 8.8454 39.3751 8.7412C39.5859 8.53167 39.871 8.41406 40.1682 8.41406C40.4654 8.41406 40.7506 8.53167 40.9613 8.7412C41.0676 8.8454 41.1522 8.96965 41.2101 9.10676C41.2681 9.24387 41.2982 9.39111 41.2988 9.53995C41.2982 9.6888 41.2681 9.83604 41.2101 9.97315C41.1522 10.1103 41.0676 10.2345 40.9613 10.3387L40.7926 10.4737C40.705 10.5313 40.6045 10.5661 40.5001 10.575C40.4324 10.6075 40.3605 10.6303 40.2863 10.6425C40.2312 10.6568 40.1746 10.6644 40.1176 10.665Z" fill="white"/>
<path d="M51.8289 15.5147C51.5305 15.5147 51.2443 15.3961 51.0334 15.1852C50.8224 14.9742 50.7039 14.688 50.7039 14.3897C50.7041 14.2389 50.7348 14.0897 50.7939 13.9509C50.8482 13.8138 50.9328 13.6907 51.0414 13.5909C51.1712 13.4592 51.3316 13.3616 51.5082 13.3066C51.6848 13.2517 51.8722 13.2411 52.0539 13.2759L52.2564 13.3434L52.4589 13.4447L52.6276 13.5909C52.8371 13.8017 52.9548 14.0868 52.9548 14.384C52.9548 14.6813 52.8371 14.9664 52.6276 15.1772L52.4589 15.3234L52.2564 15.4247L52.0539 15.4922L51.8289 15.5147Z" fill="white"/>
<path d="M56.6887 27.2372C56.5406 27.2381 56.3939 27.2097 56.2568 27.1537C56.1197 27.0977 55.9951 27.0152 55.8899 26.911C55.8383 26.8604 55.7929 26.8038 55.7549 26.7422C55.7106 26.6788 55.6729 26.6109 55.6424 26.5397C55.6185 26.4738 55.5997 26.4061 55.5862 26.3372C55.5751 26.2626 55.5751 26.1868 55.5862 26.1122C55.5844 25.966 55.6112 25.8207 55.6649 25.6847C55.7261 25.548 55.8098 25.4225 55.9124 25.3135C56.1232 25.1039 56.4084 24.9863 56.7056 24.9863C57.0028 24.9863 57.2879 25.1039 57.4987 25.3135C57.6041 25.4181 57.6878 25.5425 57.745 25.6796C57.8021 25.8167 57.8315 25.9637 57.8315 26.1122C57.8315 26.2607 57.8021 26.4078 57.745 26.5449C57.6878 26.682 57.6041 26.8064 57.4987 26.911C57.3922 27.0166 57.2657 27.0999 57.1266 27.1559C56.9875 27.2119 56.8386 27.2396 56.6887 27.2372Z" fill="white"/>
<path d="M51.8288 38.9583C51.6067 38.9572 51.3899 38.8904 51.2058 38.7663C51.0216 38.6421 50.8782 38.4663 50.7938 38.2608C50.7362 38.1256 50.7056 37.9803 50.7038 37.8333C50.7004 37.6646 50.735 37.4973 50.805 37.3437C50.8751 37.1902 50.9788 37.0543 51.1084 36.9463C51.2381 36.8383 51.3904 36.7608 51.554 36.7196C51.7177 36.6784 51.8885 36.6745 52.0538 36.7083L52.2563 36.7646L52.4588 36.8771L52.6276 37.0121C52.7878 37.17 52.8971 37.3723 52.9412 37.5928C52.9853 37.8134 52.9623 38.0422 52.8751 38.2496C52.8099 38.384 52.7266 38.5089 52.6276 38.6208L52.4588 38.7558L52.2563 38.8571L52.0538 38.9246L51.8288 38.9583Z" fill="white"/>
<path d="M40.1175 43.8075C39.9694 43.8084 39.8226 43.78 39.6856 43.724C39.5485 43.668 39.4238 43.5855 39.3187 43.4813C39.2074 43.3794 39.1225 43.252 39.0712 43.11C38.9933 42.8987 38.9806 42.6689 39.0347 42.4502C39.0889 42.2316 39.2074 42.0343 39.375 41.8838C39.5857 41.6742 39.8709 41.5566 40.1681 41.5566C40.4653 41.5566 40.7504 41.6742 40.9612 41.8838C41.0639 41.9928 41.1476 42.1183 41.2087 42.255C41.2682 42.3897 41.299 42.5353 41.299 42.6825C41.299 42.8298 41.2682 42.9754 41.2087 43.11C41.1518 43.2491 41.0677 43.3753 40.9612 43.4813C40.8508 43.5911 40.7188 43.6768 40.5736 43.733C40.4283 43.7891 40.273 43.8145 40.1175 43.8075Z" fill="white"/>
<path d="M28.3951 38.9596C28.0967 38.9596 27.8106 38.8411 27.5996 38.6301C27.3886 38.4192 27.2701 38.133 27.2701 37.8346C27.2683 37.6884 27.2951 37.5432 27.3489 37.4071C27.4086 37.2697 27.4924 37.1439 27.5964 37.0359C27.7009 36.9305 27.8254 36.8468 27.9625 36.7896C28.0995 36.7325 28.2466 36.7031 28.3951 36.7031C28.5436 36.7031 28.6907 36.7325 28.8278 36.7896C28.9648 36.8468 29.0893 36.9305 29.1939 37.0359C29.298 37.1415 29.3786 37.268 29.4301 37.4071C29.4878 37.5424 29.5183 37.6876 29.5201 37.8346C29.5201 38.133 29.4016 38.4192 29.1906 38.6301C28.9796 38.8411 28.6935 38.9596 28.3951 38.9596Z" fill="white"/>
<path d="M23.5462 27.2357C23.3981 27.2366 23.2513 27.2082 23.1143 27.1522C22.9772 27.0962 22.8525 27.0137 22.7474 26.9095C22.6431 26.8044 22.5607 26.6797 22.5047 26.5426C22.4487 26.4056 22.4203 26.2588 22.4212 26.1107C22.4203 25.9627 22.4487 25.8159 22.5047 25.6788C22.5607 25.5418 22.6431 25.4171 22.7474 25.312C22.8784 25.1823 23.0392 25.0867 23.2158 25.0338C23.3923 24.9808 23.5792 24.972 23.7599 25.0082C23.834 25.0204 23.906 25.0431 23.9737 25.0757C24.0428 25.0982 24.1075 25.1324 24.1649 25.177L24.3337 25.312C24.44 25.4162 24.5245 25.5404 24.5825 25.6775C24.6404 25.8146 24.6705 25.9619 24.6712 26.1107C24.6705 26.2596 24.6404 26.4068 24.5825 26.5439C24.5245 26.681 24.44 26.8053 24.3337 26.9095C24.2825 26.9605 24.2259 27.0058 24.1649 27.0445C24.105 27.0882 24.041 27.1259 23.9737 27.157L23.7599 27.2132C23.6903 27.2317 23.6181 27.2393 23.5462 27.2357Z" fill="white"/>
<path d="M28.3951 15.525H28.1701L27.9676 15.4575L27.7651 15.3563L27.5964 15.21C27.495 15.1041 27.4114 14.9826 27.3489 14.85C27.2951 14.714 27.2683 14.5688 27.2701 14.4225C27.2692 14.2745 27.2976 14.1277 27.3536 13.9906C27.4096 13.8536 27.4921 13.7289 27.5964 13.6238C27.7009 13.5183 27.8254 13.4347 27.9625 13.3775C28.0995 13.3204 28.2466 13.291 28.3951 13.291C28.5436 13.291 28.6907 13.3204 28.8278 13.3775C28.9648 13.4347 29.0893 13.5183 29.1939 13.6238C29.2981 13.7289 29.3806 13.8536 29.4366 13.9906C29.4926 14.1277 29.521 14.2745 29.5201 14.4225C29.5189 14.7177 29.4017 15.0005 29.1939 15.21C28.9797 15.4165 28.6925 15.5298 28.3951 15.525Z" fill="white"/>
<path d="M40.8376 26.8539H37.1251C36.8913 26.8509 36.6681 26.756 36.5039 26.5897C36.3396 26.4233 36.2475 26.1989 36.2476 25.9652V21.0377C36.2476 20.8049 36.34 20.5817 36.5046 20.4172C36.6691 20.2526 36.8923 20.1602 37.1251 20.1602H40.8376C41.6505 20.2658 42.3973 20.6637 42.9383 21.2796C43.4794 21.8955 43.7778 22.6872 43.7778 23.507C43.7778 24.3268 43.4794 25.1186 42.9383 25.7345C42.3973 26.3504 41.6505 26.7483 40.8376 26.8539ZM38.0251 25.0877H40.8376C41.2583 25.0877 41.6617 24.9205 41.9592 24.6231C42.2567 24.3256 42.4238 23.9221 42.4238 23.5014C42.4238 23.0807 42.2567 22.6772 41.9592 22.3798C41.6617 22.0823 41.2583 21.9152 40.8376 21.9152H38.0251V25.0877Z" fill="white"/>
<path d="M42.0749 31.7816H37.1249C37.0087 31.7817 36.8937 31.7586 36.7865 31.7138C36.6793 31.669 36.582 31.6033 36.5004 31.5207C36.4188 31.438 36.3544 31.3399 36.3109 31.2322C36.2675 31.1244 36.2459 31.0091 36.2474 30.8929V25.9654C36.2474 25.7327 36.3398 25.5095 36.5044 25.3449C36.669 25.1803 36.8922 25.0879 37.1249 25.0879H42.0749C42.8879 25.1935 43.6346 25.5914 44.1756 26.2073C44.7167 26.8232 45.0151 27.615 45.0151 28.4348C45.0151 29.2546 44.7167 30.0463 44.1756 30.6622C43.6346 31.2781 42.8879 31.676 42.0749 31.7816ZM38.0249 30.0154H42.0749C42.4711 29.9819 42.8402 29.8009 43.1093 29.5082C43.3784 29.2155 43.5277 28.8324 43.5277 28.4348C43.5277 28.0372 43.3784 27.6541 43.1093 27.3613C42.8402 27.0686 42.4711 26.8876 42.0749 26.8541H38.0249V30.0154Z" fill="white"/>
<path d="M39.6112 21.9146C39.495 21.9161 39.3797 21.8945 39.2719 21.8511C39.1641 21.8076 39.0661 21.7432 38.9834 21.6616C38.9007 21.58 38.8351 21.4827 38.7903 21.3755C38.7455 21.2683 38.7224 21.1533 38.7224 21.0371V19.8109C38.7084 19.6865 38.7207 19.5606 38.7587 19.4414C38.7967 19.3221 38.8594 19.2122 38.9427 19.1189C39.0261 19.0256 39.1283 18.9509 39.2425 18.8998C39.3567 18.8487 39.4804 18.8223 39.6056 18.8223C39.7307 18.8223 39.8544 18.8487 39.9686 18.8998C40.0828 18.9509 40.185 19.0256 40.2683 19.1189C40.3517 19.2122 40.4144 19.3221 40.4524 19.4414C40.4904 19.5606 40.5027 19.6865 40.4887 19.8109V21.0371C40.4887 21.2698 40.3962 21.493 40.2317 21.6576C40.0671 21.8221 39.8439 21.9146 39.6112 21.9146Z" fill="white"/>
<path d="M39.6112 33.0074C39.495 33.0089 39.3797 32.9873 39.2719 32.9439C39.1641 32.9005 39.0661 32.8361 38.9834 32.7544C38.9007 32.6728 38.8351 32.5756 38.7903 32.4684C38.7455 32.3612 38.7224 32.2461 38.7224 32.1299V30.8924C38.7469 30.6754 38.8506 30.475 39.0134 30.3295C39.1763 30.184 39.3871 30.1035 39.6055 30.1035C39.824 30.1035 40.0347 30.184 40.1976 30.3295C40.3605 30.475 40.4641 30.6754 40.4887 30.8924V32.1299C40.4887 32.3627 40.3962 32.5859 40.2317 32.7504C40.0671 32.915 39.8439 33.0074 39.6112 33.0074Z" fill="white"/>
<path d="M37.125 21.9152H35.91C35.6772 21.9152 35.454 21.8227 35.2895 21.6581C35.1249 21.4936 35.0325 21.2704 35.0325 21.0377C35.0325 20.8049 35.1249 20.5817 35.2895 20.4172C35.454 20.2526 35.6772 20.1602 35.91 20.1602H37.125C37.3577 20.1602 37.5809 20.2526 37.7455 20.4172C37.91 20.5817 38.0025 20.8049 38.0025 21.0377C38.0025 21.2704 37.91 21.4936 37.7455 21.6581C37.5809 21.8227 37.3577 21.9152 37.125 21.9152Z" fill="white"/>
<path d="M37.125 31.7816H35.91C35.693 31.7571 35.4926 31.6535 35.347 31.4906C35.2015 31.3277 35.1211 31.1169 35.1211 30.8985C35.1211 30.6801 35.2015 30.4693 35.347 30.3064C35.4926 30.1435 35.693 30.0399 35.91 30.0154H37.125C37.2494 30.0013 37.3753 30.0137 37.4945 30.0517C37.6137 30.0896 37.7236 30.1523 37.8169 30.2357C37.9103 30.3191 37.9849 30.4212 38.036 30.5354C38.0872 30.6497 38.1136 30.7734 38.1136 30.8985C38.1136 31.0237 38.0872 31.1474 38.036 31.2616C37.9849 31.3758 37.9103 31.4779 37.8169 31.5613C37.7236 31.6447 37.6137 31.7074 37.4945 31.7454C37.3753 31.7833 37.2494 31.7957 37.125 31.7816Z" fill="white"/>
<defs>
<linearGradient id="paint0_linear_397_11536" x1="26.2012" y1="45.8887" x2="56.5762" y2="45.8887" gradientUnits="userSpaceOnUse">
<stop stop-color="#F26523"/>
<stop offset="0.534361" stop-color="#F77916"/>
<stop offset="0.868252" stop-color="#FF9900"/>
</linearGradient>
</defs>
</svg>
