<svg width="72" height="73" viewBox="0 0 72 73" fill="none" xmlns="http://www.w3.org/2000/svg">
<path d="M36 51.6934C44.3878 51.6934 51.1875 44.8937 51.1875 36.5059C51.1875 28.118 44.3878 21.3184 36 21.3184C27.6122 21.3184 20.8125 28.118 20.8125 36.5059C20.8125 44.8937 27.6122 51.6934 36 51.6934Z" fill="url(#paint0_linear_397_11576)"/>
<path d="M36 14.546C35.807 14.543 35.6177 14.4927 35.4487 14.3997L28.89 10.7435C28.7145 10.6448 28.5687 10.501 28.4678 10.3268C28.3669 10.1527 28.3145 9.95471 28.3162 9.75346C28.3177 9.55299 28.3727 9.35655 28.4755 9.18447C28.5784 9.0124 28.7253 8.87093 28.9012 8.77471L35.4487 5.14096C35.6197 5.04222 35.8137 4.99023 36.0112 4.99023C36.2087 4.99023 36.4027 5.04222 36.5737 5.14096L43.1775 8.77471C43.3533 8.87093 43.5003 9.0124 43.6031 9.18447C43.706 9.35655 43.761 9.55299 43.7625 9.75346C43.763 9.95583 43.709 10.1546 43.606 10.3288C43.503 10.5031 43.355 10.6463 43.1775 10.7435L36.5737 14.3997C36.4003 14.5021 36.2012 14.5528 36 14.546ZM31.7587 9.76471L36 12.1272L40.275 9.76471L36 7.41346L31.7587 9.76471Z" fill="white"/>
<path d="M35.9999 23.0064C35.8067 23.0058 35.6168 22.9554 35.4487 22.8602L28.8899 19.2039C28.7161 19.1062 28.5714 18.9641 28.4706 18.7922C28.3698 18.6202 28.3165 18.4245 28.3162 18.2252V9.75391C28.3162 9.45554 28.4347 9.16939 28.6457 8.95841C28.8566 8.74743 29.1428 8.62891 29.4412 8.62891C29.7395 8.62891 30.0257 8.74743 30.2367 8.95841C30.4476 9.16939 30.5662 9.45554 30.5662 9.75391V17.5614L35.9999 20.5989L41.4787 17.5614V9.75391C41.4787 9.45554 41.5972 9.16939 41.8082 8.95841C42.0191 8.74743 42.3053 8.62891 42.6037 8.62891C42.902 8.62891 43.1882 8.74743 43.3992 8.95841C43.6101 9.16939 43.7287 9.45554 43.7287 9.75391V18.2252C43.7272 18.4256 43.6722 18.6221 43.5694 18.7941C43.4665 18.9662 43.3195 19.1077 43.1437 19.2039L36.5399 22.8714C36.3741 22.9609 36.1884 23.0073 35.9999 23.0064Z" fill="white"/>
<path d="M36 23.0049C35.7016 23.0049 35.4155 22.8864 35.2045 22.6754C34.9935 22.4644 34.875 22.1783 34.875 21.8799V13.4199C34.875 13.1216 34.9935 12.8354 35.2045 12.6244C35.4155 12.4134 35.7016 12.2949 36 12.2949C36.2984 12.2949 36.5845 12.4134 36.7955 12.6244C37.0065 12.8354 37.125 13.1216 37.125 13.4199V21.8799C37.125 22.1783 37.0065 22.4644 36.7955 22.6754C36.5845 22.8864 36.2984 23.0049 36 23.0049Z" fill="white"/>
<path d="M35.9999 37.046C35.8101 37.0466 35.6235 36.996 35.4599 36.8997L28.9012 33.2322C28.7274 33.1345 28.5827 32.9924 28.4819 32.8205C28.3811 32.6485 28.3278 32.4528 28.3274 32.2535C28.3258 32.0522 28.3781 31.8542 28.479 31.6801C28.58 31.5059 28.7257 31.3621 28.9012 31.2635L35.4599 27.641C35.631 27.5422 35.825 27.4902 36.0224 27.4902C36.2199 27.4902 36.4139 27.5422 36.5849 27.641L43.1887 31.2635C43.3645 31.3607 43.5111 31.5034 43.6132 31.6765C43.7152 31.8496 43.769 32.0469 43.769 32.2478C43.769 32.4488 43.7152 32.6461 43.6132 32.8192C43.5111 32.9923 43.3645 33.1349 43.1887 33.2322L36.5849 36.8997C36.4069 37.0008 36.2046 37.0513 35.9999 37.046ZM31.7587 32.2647L35.9999 34.6272L40.2637 32.2647L35.9999 29.9135L31.7587 32.2647Z" fill="white"/>
<path d="M35.9999 45.5064C35.81 45.507 35.6235 45.4565 35.4599 45.3602L28.8899 41.7039C28.7182 41.6048 28.5758 41.4621 28.477 41.2902C28.3782 41.1183 28.3266 40.9234 28.3274 40.7252V32.2539C28.3274 31.9555 28.4459 31.6694 28.6569 31.4584C28.8679 31.2474 29.154 31.1289 29.4524 31.1289C29.7508 31.1289 30.0369 31.2474 30.2479 31.4584C30.4589 31.6694 30.5774 31.9555 30.5774 32.2539V40.1289L35.9999 43.0989L41.4674 40.0614V32.2539C41.4674 31.9555 41.5859 31.6694 41.7969 31.4584C42.0079 31.2474 42.294 31.1289 42.5924 31.1289C42.8908 31.1289 43.1769 31.2474 43.3879 31.4584C43.5989 31.6694 43.7174 31.9555 43.7174 32.2539V40.7252C43.7159 40.9256 43.6609 41.1221 43.5581 41.2941C43.4552 41.4662 43.3083 41.6077 43.1324 41.7039L36.5399 45.3602C36.3751 45.4536 36.1893 45.5039 35.9999 45.5064Z" fill="white"/>
<path d="M36 45.5049C35.7016 45.5049 35.4155 45.3864 35.2045 45.1754C34.9935 44.9644 34.875 44.6783 34.875 44.3799V35.9199C34.875 35.6216 34.9935 35.3354 35.2045 35.1244C35.4155 34.9134 35.7016 34.7949 36 34.7949C36.2984 34.7949 36.5845 34.9134 36.7955 35.1244C37.0065 35.3354 37.125 35.6216 37.125 35.9199V44.3799C37.125 44.6783 37.0065 44.9644 36.7955 45.1754C36.5845 45.3864 36.2984 45.5049 36 45.5049Z" fill="white"/>
<path d="M36 59.546C35.8071 59.543 35.6178 59.4927 35.4487 59.3997L28.8562 55.7435C28.6804 55.6462 28.5338 55.5036 28.4318 55.3304C28.3297 55.1573 28.2759 54.96 28.2759 54.7591C28.2759 54.5581 28.3297 54.3608 28.4318 54.1877C28.5338 54.0146 28.6804 53.872 28.8562 53.7747L35.4037 50.141C35.5748 50.0422 35.7688 49.9902 35.9662 49.9902C36.1637 49.9902 36.3577 50.0422 36.5287 50.141L43.1325 53.7747C43.3083 53.872 43.4549 54.0146 43.557 54.1877C43.659 54.3608 43.7129 54.5581 43.7129 54.7591C43.7129 54.96 43.659 55.1573 43.557 55.3304C43.4549 55.5036 43.3083 55.6462 43.1325 55.7435L36.5175 59.3997C36.3611 59.4937 36.1824 59.5442 36 59.546ZM31.7587 54.7647L36 57.1272L40.275 54.7647L36 52.4135L31.7587 54.7647Z" fill="white"/>
<path d="M35.9999 68.0064C35.8067 68.0058 35.6168 67.9554 35.4487 67.8602L28.9012 64.2039C28.7253 64.1077 28.5783 63.9662 28.4755 63.7941C28.3726 63.6221 28.3176 63.4256 28.3162 63.2252V54.7539C28.3162 54.4555 28.4347 54.1694 28.6457 53.9584C28.8566 53.7474 29.1428 53.6289 29.4412 53.6289C29.7395 53.6289 30.0257 53.7474 30.2367 53.9584C30.4476 54.1694 30.5662 54.4555 30.5662 54.7539V62.5614L35.9999 65.5989L41.4787 62.5614V54.7539C41.4787 54.4555 41.5972 54.1694 41.8082 53.9584C42.0191 53.7474 42.3053 53.6289 42.6037 53.6289C42.902 53.6289 43.1882 53.7474 43.3992 53.9584C43.6101 54.1694 43.7287 54.4555 43.7287 54.7539V63.2252C43.7283 63.4245 43.675 63.6202 43.5742 63.7922C43.4734 63.9641 43.3287 64.1062 43.1549 64.2039L36.5399 67.8714C36.3741 67.9609 36.1884 68.0073 35.9999 68.0064Z" fill="white"/>
<path d="M36 68.0049C35.7016 68.0049 35.4155 67.8864 35.2045 67.6754C34.9935 67.4644 34.875 67.1783 34.875 66.8799V58.4199C34.875 58.1216 34.9935 57.8354 35.2045 57.6244C35.4155 57.4134 35.7016 57.2949 36 57.2949C36.2984 57.2949 36.5845 57.4134 36.7955 57.6244C37.0065 57.8354 37.125 58.1216 37.125 58.4199V66.8799C37.125 67.1783 37.0065 67.4644 36.7955 67.6754C36.5845 67.8864 36.2984 68.0049 36 68.0049Z" fill="white"/>
<path d="M59.7599 48.8804C59.5715 48.8814 59.3858 48.8349 59.2199 48.7454L52.6612 45.0892C52.4857 44.9906 52.34 44.8467 52.2391 44.6726C52.1381 44.4984 52.0858 44.3004 52.0874 44.0992C52.0889 43.8987 52.1439 43.7023 52.2468 43.5302C52.3496 43.3581 52.4966 43.2166 52.6724 43.1204L59.2199 39.4867C59.391 39.3879 59.585 39.3359 59.7824 39.3359C59.9799 39.3359 60.1739 39.3879 60.3449 39.4867L66.9487 43.1204C67.1246 43.2166 67.2715 43.3581 67.3744 43.5302C67.4772 43.7023 67.5322 43.8987 67.5337 44.0992C67.5342 44.3015 67.4802 44.5003 67.3772 44.6746C67.2743 44.8488 67.1262 44.992 66.9487 45.0892L60.3449 48.7454C60.1658 48.8426 59.9636 48.8892 59.7599 48.8804ZM55.5299 44.1104L59.7712 46.4729L64.0462 44.1104L59.7712 41.7592L55.5299 44.1104Z" fill="white"/>
<path d="M59.7599 57.3521C59.57 57.3527 59.3835 57.3022 59.2199 57.2059L52.6612 53.5496C52.4874 53.4519 52.3427 53.3098 52.2419 53.1379C52.1411 52.9659 52.0877 52.7702 52.0874 52.5709V44.0996C52.0874 43.8012 52.2059 43.5151 52.4169 43.3041C52.6279 43.0931 52.914 42.9746 53.2124 42.9746C53.5108 42.9746 53.7969 43.0931 54.0079 43.3041C54.2189 43.5151 54.3374 43.8012 54.3374 44.0996V51.9071L59.7712 54.9334L65.2499 51.9071V44.0996C65.2499 43.8012 65.3684 43.5151 65.5794 43.3041C65.7904 43.0931 66.0765 42.9746 66.3749 42.9746C66.6733 42.9746 66.9594 43.0931 67.1704 43.3041C67.3814 43.5151 67.4999 43.8012 67.4999 44.0996V52.5709C67.4984 52.7713 67.4434 52.9678 67.3406 53.1398C67.2377 53.3119 67.0908 53.4534 66.9149 53.5496L60.3112 57.2059C60.143 57.3012 59.9532 57.3515 59.7599 57.3521Z" fill="white"/>
<path d="M59.76 57.3521C59.4616 57.3521 59.1755 57.2336 58.9645 57.0226C58.7535 56.8116 58.635 56.5255 58.635 56.2271V47.7559C58.635 47.4575 58.7535 47.1713 58.9645 46.9604C59.1755 46.7494 59.4616 46.6309 59.76 46.6309C60.0584 46.6309 60.3445 46.7494 60.5555 46.9604C60.7665 47.1713 60.885 47.4575 60.885 47.7559V56.2271C60.885 56.5255 60.7665 56.8116 60.5555 57.0226C60.3445 57.2336 60.0584 57.3521 59.76 57.3521Z" fill="white"/>
<path d="M59.7599 24.9292C59.5715 24.9302 59.3858 24.8838 59.2199 24.7942L52.6612 21.138C52.4857 21.0394 52.34 20.8955 52.2391 20.7214C52.1381 20.5473 52.0858 20.3492 52.0874 20.148C52.0889 19.9475 52.1439 19.7511 52.2468 19.579C52.3496 19.4069 52.4966 19.2655 52.6724 19.1692L59.2199 15.5355C59.391 15.4367 59.585 15.3848 59.7824 15.3848C59.9799 15.3848 60.1739 15.4367 60.3449 15.5355L66.9487 19.1692C67.1246 19.2655 67.2715 19.4069 67.3744 19.579C67.4772 19.7511 67.5322 19.9475 67.5337 20.148C67.5342 20.3504 67.4802 20.5491 67.3772 20.7234C67.2743 20.8976 67.1262 21.0408 66.9487 21.138L60.3449 24.7942C60.1658 24.8914 59.9636 24.9381 59.7599 24.9292ZM55.5299 20.1592L59.7712 22.5217L64.0462 20.1592L59.7712 17.808L55.5299 20.1592Z" fill="white"/>
<path d="M59.7599 33.4009C59.57 33.4015 59.3835 33.351 59.2199 33.2547L52.6612 29.5984C52.489 29.5017 52.3454 29.3614 52.2447 29.1915C52.144 29.0217 52.0897 28.8284 52.0874 28.6309V20.1484C52.0874 19.8501 52.2059 19.5639 52.4169 19.3529C52.6279 19.142 52.914 19.0234 53.2124 19.0234C53.5108 19.0234 53.7969 19.142 54.0079 19.3529C54.2189 19.5639 54.3374 19.8501 54.3374 20.1484V27.9559L59.7712 30.9822L65.2499 27.9559V20.1484C65.2499 19.8501 65.3684 19.5639 65.5794 19.3529C65.7904 19.142 66.0765 19.0234 66.3749 19.0234C66.6733 19.0234 66.9594 19.142 67.1704 19.3529C67.3814 19.5639 67.4999 19.8501 67.4999 20.1484V28.6309C67.4984 28.8314 67.4434 29.0278 67.3406 29.1999C67.2377 29.372 67.0908 29.5135 66.9149 29.6097L60.3112 33.2659C60.142 33.3573 59.9522 33.4038 59.7599 33.4009Z" fill="white"/>
<path d="M59.76 41.6022C59.4616 41.6022 59.1755 41.4837 58.9645 41.2727C58.7535 41.0617 58.635 40.7756 58.635 40.4772V23.8047C58.635 23.5063 58.7535 23.2202 58.9645 23.0092C59.1755 22.7982 59.4616 22.6797 59.76 22.6797C60.0584 22.6797 60.3445 22.7982 60.5555 23.0092C60.7665 23.2202 60.885 23.5063 60.885 23.8047V40.4772C60.885 40.7756 60.7665 41.0617 60.5555 41.2727C60.3445 41.4837 60.0584 41.6022 59.76 41.6022Z" fill="white"/>
<path d="M12.1838 48.8804C11.9915 48.8833 11.8017 48.8368 11.6325 48.7454L5.07379 45.0892C4.89834 44.9906 4.75256 44.8467 4.65165 44.6726C4.55073 44.4984 4.49838 44.3004 4.50004 44.0992C4.5015 43.8987 4.5565 43.7023 4.65935 43.5302C4.7622 43.3581 4.90917 43.2166 5.08504 43.1204L11.6325 39.4867C11.8036 39.3879 11.9976 39.3359 12.195 39.3359C12.3925 39.3359 12.5865 39.3879 12.7575 39.4867L19.3613 43.1204C19.5372 43.2166 19.6841 43.3581 19.787 43.5302C19.8898 43.7023 19.9448 43.8987 19.9463 44.0992C19.9468 44.3015 19.8928 44.5003 19.7898 44.6746C19.6869 44.8488 19.5388 44.992 19.3613 45.0892L12.7575 48.7454C12.5817 48.8406 12.3836 48.8872 12.1838 48.8804ZM7.94254 44.1104L12.1838 46.4729L16.4588 44.1104L12.1838 41.7592L7.94254 44.1104Z" fill="white"/>
<path d="M12.1838 57.3521C11.9905 57.3515 11.8006 57.3012 11.6325 57.2059L5.07375 53.5496C4.89998 53.4519 4.75528 53.3098 4.65446 53.1379C4.55365 52.9659 4.50034 52.7702 4.5 52.5709V44.0996C4.5 43.8012 4.61853 43.5151 4.82951 43.3041C5.04048 43.0931 5.32663 42.9746 5.625 42.9746C5.92337 42.9746 6.20952 43.0931 6.42049 43.3041C6.63147 43.5151 6.75 43.8012 6.75 44.0996V51.9071L12.1838 54.9334L17.6625 51.9071V44.0996C17.6625 43.8012 17.781 43.5151 17.992 43.3041C18.203 43.0931 18.4891 42.9746 18.7875 42.9746C19.0859 42.9746 19.372 43.0931 19.583 43.3041C19.794 43.5151 19.9125 43.8012 19.9125 44.0996V52.5709C19.911 52.7713 19.856 52.9678 19.7532 53.1398C19.6503 53.3119 19.5034 53.4534 19.3275 53.5496L12.7238 57.2059C12.5601 57.3022 12.3736 57.3527 12.1838 57.3521Z" fill="white"/>
<path d="M12.1838 57.3521C11.8855 57.3521 11.5993 57.2336 11.3883 57.0226C11.1774 56.8116 11.0588 56.5255 11.0588 56.2271V47.7559C11.0588 47.4575 11.1774 47.1713 11.3883 46.9604C11.5993 46.7494 11.8855 46.6309 12.1838 46.6309C12.4822 46.6309 12.7684 46.7494 12.9793 46.9604C13.1903 47.1713 13.3088 47.4575 13.3088 47.7559V56.2271C13.3088 56.5255 13.1903 56.8116 12.9793 57.0226C12.7684 57.2336 12.4822 57.3521 12.1838 57.3521Z" fill="white"/>
<path d="M12.1838 24.9292C11.9915 24.9321 11.8017 24.8856 11.6325 24.7942L5.07379 21.138C4.89834 21.0394 4.75256 20.8955 4.65165 20.7214C4.55073 20.5473 4.49838 20.3492 4.50004 20.148C4.5015 19.9475 4.5565 19.7511 4.65935 19.579C4.7622 19.4069 4.90917 19.2655 5.08504 19.1692L11.6325 15.5355C11.8036 15.4367 11.9976 15.3848 12.195 15.3848C12.3925 15.3848 12.5865 15.4367 12.7575 15.5355L19.3613 19.1692C19.5372 19.2655 19.6841 19.4069 19.787 19.579C19.8898 19.7511 19.9448 19.9475 19.9463 20.148C19.9468 20.3504 19.8928 20.5491 19.7898 20.7234C19.6869 20.8976 19.5388 21.0408 19.3613 21.138L12.7575 24.7942C12.5817 24.8894 12.3836 24.936 12.1838 24.9292ZM7.94254 20.1592L12.1838 22.5217L16.4588 20.1592L12.1838 17.808L7.94254 20.1592Z" fill="white"/>
<path d="M12.1838 33.4009C11.9905 33.4003 11.8006 33.35 11.6325 33.2547L5.07375 29.5984C4.90162 29.5017 4.75799 29.3614 4.65728 29.1915C4.55656 29.0217 4.50232 28.8284 4.5 28.6309V20.1484C4.5 19.8501 4.61853 19.5639 4.82951 19.3529C5.04048 19.142 5.32663 19.0234 5.625 19.0234C5.92337 19.0234 6.20952 19.142 6.42049 19.3529C6.63147 19.5639 6.75 19.8501 6.75 20.1484V27.9559L12.1838 30.9822L17.6625 27.9559V20.1484C17.6625 19.8501 17.781 19.5639 17.992 19.3529C18.203 19.142 18.4891 19.0234 18.7875 19.0234C19.0859 19.0234 19.372 19.142 19.583 19.3529C19.794 19.5639 19.9125 19.8501 19.9125 20.1484V28.6309C19.911 28.8314 19.856 29.0278 19.7532 29.1999C19.6503 29.372 19.5034 29.5135 19.3275 29.6097L12.7238 33.2659C12.559 33.3584 12.3726 33.405 12.1838 33.4009Z" fill="white"/>
<path d="M12.1838 41.6022C11.8855 41.6022 11.5993 41.4837 11.3883 41.2727C11.1774 41.0617 11.0588 40.7756 11.0588 40.4772V23.8047C11.0588 23.5063 11.1774 23.2202 11.3883 23.0092C11.5993 22.7982 11.8855 22.6797 12.1838 22.6797C12.4822 22.6797 12.7684 22.7982 12.9793 23.0092C13.1903 23.2202 13.3088 23.5063 13.3088 23.8047V40.4772C13.3088 40.7756 13.1903 41.0617 12.9793 41.2727C12.7684 41.4837 12.4822 41.6022 12.1838 41.6022Z" fill="white"/>
<path d="M42.5587 36.7653C42.3078 36.7666 42.0636 36.6839 41.8651 36.5305C41.6666 36.3771 41.525 36.1617 41.4629 35.9186C41.4009 35.6755 41.4219 35.4187 41.5225 35.1889C41.6232 34.959 41.7979 34.7695 42.0187 34.6503L53.6737 28.2041C53.9347 28.0549 54.2444 28.0155 54.5345 28.0946C54.8246 28.1738 55.0713 28.3649 55.2205 28.6259C55.3697 28.887 55.4091 29.1967 55.33 29.4868C55.2508 29.7769 55.0597 30.0236 54.7987 30.1728L43.0987 36.6191C42.9351 36.7154 42.7485 36.7659 42.5587 36.7653Z" fill="white"/>
<path d="M29.4076 36.7866C29.2143 36.786 29.0245 36.7357 28.8563 36.6404L17.2351 30.1604C17.1065 30.0865 16.9938 29.988 16.9033 29.8706C16.8129 29.7532 16.7464 29.6191 16.7077 29.4759C16.6691 29.3328 16.659 29.1835 16.6781 29.0365C16.6971 28.8895 16.745 28.7476 16.8188 28.6191C16.8927 28.4906 16.9912 28.3779 17.1086 28.2874C17.226 28.1969 17.3601 28.1304 17.5032 28.0918C17.7923 28.0137 18.1005 28.0537 18.3601 28.2029L29.9813 34.6829C30.2348 34.835 30.4183 35.0808 30.492 35.3671C30.5656 35.6534 30.5237 35.9573 30.3751 36.2129C30.2783 36.385 30.138 36.5286 29.9682 36.6293C29.7984 36.73 29.605 36.7843 29.4076 36.7866Z" fill="white"/>
<path d="M53.2124 25.1654C53.0244 25.1632 52.8394 25.1169 52.6724 25.0304L42.0637 19.2029C41.8011 19.0537 41.6086 18.8063 41.5284 18.5152C41.4482 18.224 41.487 17.9129 41.6362 17.6504C41.7854 17.3878 42.0328 17.1953 42.3239 17.1151C42.6151 17.0349 42.9261 17.0737 43.1887 17.2229L53.7637 23.0054C53.9854 23.125 54.1606 23.3155 54.2611 23.5465C54.3616 23.7774 54.3818 24.0355 54.3182 24.2792C54.2547 24.523 54.1112 24.7384 53.9107 24.8909C53.7102 25.0434 53.4643 25.1242 53.2124 25.1204V25.1654Z" fill="white"/>
<path d="M18.7876 25.1546C18.5239 25.1734 18.262 25.0987 18.0479 24.9436C17.8338 24.7885 17.6811 24.563 17.6167 24.3066C17.5523 24.0502 17.5802 23.7793 17.6955 23.5415C17.8109 23.3036 18.0064 23.114 18.2476 23.0059L28.8901 17.0996C29.02 17.0283 29.1628 16.9834 29.3101 16.9675C29.4574 16.9515 29.6065 16.9648 29.7486 17.0067C29.8908 17.0485 30.0233 17.118 30.1385 17.2111C30.2538 17.3043 30.3495 17.4193 30.4201 17.5496C30.5614 17.8096 30.5946 18.1148 30.5125 18.399C30.4303 18.6833 30.2395 18.9238 29.9814 19.0684L19.3389 24.9746C19.1725 25.0786 18.9833 25.1404 18.7876 25.1546Z" fill="white"/>
<path d="M53.2126 48.3979C53.0245 48.3957 52.8396 48.3495 52.6726 48.2629L41.4226 42.0642C41.2926 41.9903 41.1784 41.8916 41.0865 41.7736C40.9947 41.6556 40.927 41.5206 40.8873 41.3765C40.8476 41.2323 40.8367 41.0817 40.8552 40.9334C40.8737 40.785 40.9212 40.6417 40.9951 40.5117C41.0689 40.3817 41.1677 40.2675 41.2857 40.1756C41.4037 40.0838 41.5386 40.0161 41.6828 39.9764C41.827 39.9367 41.9775 39.9258 42.1259 39.9443C42.2743 39.9628 42.4176 40.0103 42.5476 40.0842L53.7976 46.2829C54.0193 46.4025 54.1944 46.5931 54.295 46.824C54.3955 47.055 54.4156 47.313 54.3521 47.5568C54.2886 47.8006 54.1451 48.016 53.9446 48.1685C53.7441 48.321 53.4982 48.4018 53.2463 48.3979H53.2126Z" fill="white"/>
<path d="M18.7875 48.386C18.5403 48.3828 18.3011 48.2983 18.1067 48.1455C17.9124 47.9928 17.7738 47.7802 17.7123 47.5408C17.6509 47.3014 17.67 47.0484 17.7667 46.8209C17.8634 46.5934 18.0324 46.4041 18.2475 46.2823L29.4975 40.0723C29.6274 40.001 29.7701 39.9561 29.9175 39.9401C30.0648 39.9242 30.2138 39.9375 30.356 39.9793C30.4982 40.0211 30.6307 40.0906 30.7459 40.1838C30.8611 40.277 30.9568 40.392 31.0275 40.5223C31.1688 40.7822 31.202 41.0874 31.1198 41.3717C31.0377 41.656 30.8469 41.8964 30.5887 42.041L19.3387 48.251C19.1684 48.3393 18.9794 48.3856 18.7875 48.386Z" fill="white"/>
<path d="M42.5587 59.9957C42.3078 59.997 42.0636 59.9143 41.8651 59.7609C41.6666 59.6075 41.525 59.3921 41.4629 59.149C41.4009 58.9059 41.4219 58.649 41.5225 58.4192C41.6232 58.1894 41.7979 57.9999 42.0187 57.8807L53.0324 51.7832C53.1623 51.7119 53.3051 51.667 53.4524 51.6511C53.5997 51.6351 53.7488 51.6484 53.8909 51.6902C54.0331 51.7321 54.1656 51.8015 54.2808 51.8947C54.3961 51.9879 54.4918 52.1029 54.5624 52.2332C54.7037 52.4932 54.7369 52.7984 54.6548 53.0826C54.5726 53.3669 54.3818 53.6074 54.1237 53.7519L43.0987 59.8494C42.9351 59.9458 42.7485 59.9963 42.5587 59.9957Z" fill="white"/>
<path d="M29.4074 60.0297C29.2142 60.0291 29.0243 59.9787 28.8562 59.8834L17.8762 53.7522C17.7477 53.6783 17.6349 53.5798 17.5445 53.4624C17.454 53.345 17.3875 53.2109 17.3489 53.0677C17.3102 52.9246 17.3001 52.7753 17.3192 52.6283C17.3382 52.4813 17.3861 52.3394 17.4599 52.2109C17.5338 52.0824 17.6323 51.9697 17.7497 51.8792C17.8671 51.7887 18.0012 51.7222 18.1444 51.6836C18.2875 51.6449 18.4368 51.6348 18.5838 51.6539C18.7308 51.673 18.8727 51.7208 19.0012 51.7947L29.9474 57.8809C30.0819 57.9533 30.2001 58.0524 30.295 58.172C30.3899 58.2916 30.4595 58.4292 30.4995 58.5766C30.5395 58.7239 30.5491 58.8779 30.5277 59.0291C30.5062 59.1802 30.4543 59.3255 30.3749 59.4559C30.2782 59.628 30.1379 59.7717 29.968 59.8724C29.7982 59.9731 29.6049 60.0273 29.4074 60.0297Z" fill="white"/>
<defs>
<linearGradient id="paint0_linear_397_11576" x1="20.8125" y1="36.5059" x2="51.1875" y2="36.5059" gradientUnits="userSpaceOnUse">
<stop stop-color="#F26523"/>
<stop offset="0.534361" stop-color="#F77916"/>
<stop offset="0.868252" stop-color="#FF9900"/>
</linearGradient>
</defs>
</svg>
