<svg width="72" height="72" viewBox="0 0 72 72" fill="none" xmlns="http://www.w3.org/2000/svg">
<path d="M21.5889 38.0469C29.9767 38.0469 36.7764 31.2472 36.7764 22.8594C36.7764 14.4716 29.9767 7.67188 21.5889 7.67188C13.201 7.67188 6.40137 14.4716 6.40137 22.8594C6.40137 31.2472 13.201 38.0469 21.5889 38.0469Z" fill="url(#paint0_linear_397_11638)"/>
<path d="M52.8749 28.3277H41.2649C40.9665 28.3277 40.6804 28.2092 40.4694 27.9982C40.2584 27.7872 40.1399 27.5011 40.1399 27.2027V15.6152C40.1399 15.3169 40.2584 15.0307 40.4694 14.8197C40.6804 14.6088 40.9665 14.4902 41.2649 14.4902C41.5633 14.4902 41.8494 14.6088 42.0604 14.8197C42.2714 15.0307 42.3899 15.3169 42.3899 15.6152V26.0777H52.8749C53.1733 26.0777 53.4594 26.1963 53.6704 26.4072C53.8814 26.6182 53.9999 26.9044 53.9999 27.2027C53.9999 27.5011 53.8814 27.7872 53.6704 27.9982C53.4594 28.2092 53.1733 28.3277 52.8749 28.3277Z" fill="white"/>
<path d="M37.2037 59.6253H20.1375C19.8391 59.6253 19.5529 59.5067 19.342 59.2957C19.131 59.0848 19.0125 58.7986 19.0125 58.5003V15.6153C19.0125 15.3169 19.131 15.0307 19.342 14.8198C19.5529 14.6088 19.8391 14.4903 20.1375 14.4903H41.265C41.413 14.4894 41.5598 14.5178 41.6968 14.5738C41.8339 14.6297 41.9586 14.7122 42.0637 14.8165L53.6512 26.404C53.7555 26.5091 53.838 26.6338 53.8939 26.7709C53.9499 26.9079 53.9783 27.0547 53.9775 27.2028V32.4453C53.9775 32.7436 53.8589 33.0298 53.6479 33.2407C53.437 33.4517 53.1508 33.5703 52.8525 33.5703C52.5541 33.5703 52.2679 33.4517 52.057 33.2407C51.846 33.0298 51.7275 32.7436 51.7275 32.4453V27.664L40.8037 16.7403H21.2625V57.3753H37.2037C37.5021 57.3753 37.7882 57.4938 37.9992 57.7048C38.2102 57.9157 38.3287 58.2019 38.3287 58.5003C38.3287 58.7986 38.2102 59.0848 37.9992 59.2957C37.7882 59.5067 37.5021 59.6253 37.2037 59.6253Z" fill="white"/>
<path d="M32.1974 45.7988H26.5049C26.2065 45.7988 25.9204 45.6803 25.7094 45.4693C25.4984 45.2583 25.3799 44.9722 25.3799 44.6738C25.3799 44.3755 25.4984 44.0893 25.7094 43.8783C25.9204 43.6674 26.2065 43.5488 26.5049 43.5488H32.1974C32.4958 43.5488 32.7819 43.6674 32.9929 43.8783C33.2039 44.0893 33.3224 44.3755 33.3224 44.6738C33.3224 44.9722 33.2039 45.2583 32.9929 45.4693C32.7819 45.6803 32.4958 45.7988 32.1974 45.7988Z" fill="white"/>
<path d="M32.1974 52.5938H26.5049C26.2065 52.5938 25.9204 52.4752 25.7094 52.2642C25.4984 52.0533 25.3799 51.7671 25.3799 51.4688C25.3799 51.1704 25.4984 50.8842 25.7094 50.6733C25.9204 50.4623 26.2065 50.3438 26.5049 50.3438H32.1974C32.4958 50.3438 32.7819 50.4623 32.9929 50.6733C33.2039 50.8842 33.3224 51.1704 33.3224 51.4688C33.3224 51.7671 33.2039 52.0533 32.9929 52.2642C32.7819 52.4752 32.4958 52.5938 32.1974 52.5938Z" fill="white"/>
<path d="M37.8224 38.9922H26.5049C26.2065 38.9922 25.9204 38.8737 25.7094 38.6627C25.4984 38.4517 25.3799 38.1656 25.3799 37.8672C25.3799 37.5688 25.4984 37.2827 25.7094 37.0717C25.9204 36.8607 26.2065 36.7422 26.5049 36.7422H37.8224C38.1208 36.7422 38.4069 36.8607 38.6179 37.0717C38.8289 37.2827 38.9474 37.5688 38.9474 37.8672C38.9474 38.1656 38.8289 38.4517 38.6179 38.6627C38.4069 38.8737 38.1208 38.9922 37.8224 38.9922Z" fill="white"/>
<path d="M34.1099 32.1973H26.5049C26.2065 32.1973 25.9204 32.0787 25.7094 31.8678C25.4984 31.6568 25.3799 31.3706 25.3799 31.0723C25.3799 30.7739 25.4984 30.4877 25.7094 30.2768C25.9204 30.0658 26.2065 29.9473 26.5049 29.9473H34.1099C34.4083 29.9473 34.6944 30.0658 34.9054 30.2768C35.1164 30.4877 35.2349 30.7739 35.2349 31.0723C35.2349 31.3706 35.1164 31.6568 34.9054 31.8678C34.6944 32.0787 34.4083 32.1973 34.1099 32.1973Z" fill="white"/>
<path d="M32.8836 25.3906H26.5049C26.2065 25.3906 25.9204 25.2721 25.7094 25.0611C25.4984 24.8501 25.3799 24.564 25.3799 24.2656C25.3799 23.9673 25.4984 23.6811 25.7094 23.4701C25.9204 23.2592 26.2065 23.1406 26.5049 23.1406H32.8836C33.182 23.1406 33.4682 23.2592 33.6791 23.4701C33.8901 23.6811 34.0086 23.9673 34.0086 24.2656C34.0086 24.564 33.8901 24.8501 33.6791 25.0611C33.4682 25.2721 33.182 25.3906 32.8836 25.3906Z" fill="white"/>
<path d="M49.5001 61.053C48.8749 61.053 48.2637 60.8676 47.7438 60.5202C47.224 60.1728 46.8188 59.6791 46.5795 59.1015C46.3402 58.5238 46.2776 57.8882 46.3996 57.275C46.5216 56.6618 46.8227 56.0985 47.2648 55.6564C47.7069 55.2143 48.2702 54.9132 48.8834 54.7912C49.4966 54.6692 50.1322 54.7318 50.7099 54.9711C51.2875 55.2104 51.7812 55.6156 52.1286 56.1354C52.476 56.6553 52.6614 57.2665 52.6614 57.8917C52.6614 58.7301 52.3283 59.5342 51.7355 60.1271C51.1426 60.7199 50.3385 61.053 49.5001 61.053ZM49.5001 56.9805C49.3199 56.9805 49.1437 57.0339 48.9939 57.134C48.844 57.2342 48.7272 57.3765 48.6582 57.543C48.5893 57.7095 48.5712 57.8927 48.6064 58.0695C48.6415 58.2463 48.7283 58.4086 48.8558 58.5361C48.9832 58.6635 49.1456 58.7503 49.3223 58.7855C49.4991 58.8206 49.6823 58.8026 49.8488 58.7336C50.0153 58.6646 50.1577 58.5478 50.2578 58.398C50.3579 58.2481 50.4114 58.0719 50.4114 57.8917C50.4114 57.7721 50.3878 57.6536 50.342 57.543C50.2962 57.4324 50.2291 57.332 50.1445 57.2474C50.0599 57.1628 49.9594 57.0956 49.8488 57.0498C49.7383 57.004 49.6198 56.9805 49.5001 56.9805Z" fill="white"/>
<path d="M50.8163 57.4306C50.6683 57.4314 50.5215 57.403 50.3844 57.3471C50.2474 57.2911 50.1227 57.2086 50.0176 57.1043C49.9121 56.9997 49.8285 56.8753 49.7713 56.7382C49.7142 56.6011 49.6848 56.4541 49.6848 56.3056C49.6848 56.1571 49.7142 56.01 49.7713 55.8729C49.8285 55.7358 49.9121 55.6114 50.0176 55.5068L52.7626 52.7618C52.8677 52.6576 52.9924 52.5751 53.1294 52.5191C53.2665 52.4631 53.4133 52.4347 53.5613 52.4356H63.3488C63.6472 52.4356 63.9334 52.5541 64.1443 52.7651C64.3553 52.976 64.4738 53.2622 64.4738 53.5606C64.4738 53.8589 64.3553 54.1451 64.1443 54.3561C63.9334 54.567 63.6472 54.6856 63.3488 54.6856H54.0001L51.5813 57.1043C51.3774 57.3068 51.1036 57.4235 50.8163 57.4306Z" fill="white"/>
<path d="M49.5675 41.299C48.9427 41.2968 48.3326 41.1095 47.8143 40.7608C47.2959 40.4121 46.8924 39.9176 46.6549 39.3398C46.4174 38.7619 46.3564 38.1267 46.4796 37.5142C46.6028 36.9017 46.9048 36.3395 47.3474 35.8985C47.7899 35.4575 48.3532 35.1576 48.9661 35.0365C49.579 34.9154 50.2141 34.9787 50.7911 35.2183C51.3681 35.4579 51.8611 35.8631 52.208 36.3827C52.5549 36.9023 52.74 37.513 52.74 38.1378C52.74 38.5539 52.6578 38.9659 52.4983 39.3502C52.3387 39.7344 52.1048 40.0834 51.8101 40.3771C51.5154 40.6708 51.1655 40.9034 50.7807 41.0616C50.3959 41.2198 49.9836 41.3005 49.5675 41.299ZM49.5675 37.2265C49.3877 37.2288 49.2127 37.2841 49.0643 37.3856C48.916 37.487 48.8009 37.6301 48.7337 37.7968C48.6664 37.9635 48.65 38.1463 48.6864 38.3224C48.7228 38.4984 48.8105 38.6597 48.9383 38.786C49.0662 38.9123 49.2286 38.998 49.4051 39.0323C49.5815 39.0665 49.7641 39.0478 49.93 38.9786C50.0959 38.9093 50.2375 38.7925 50.3372 38.6429C50.4368 38.4933 50.49 38.3175 50.49 38.1378C50.49 38.0172 50.466 37.8978 50.4196 37.7865C50.3731 37.6752 50.3049 37.5742 50.2191 37.4894C50.1333 37.4047 50.0315 37.3378 49.9197 37.2927C49.8078 37.2475 49.6881 37.2251 49.5675 37.2265Z" fill="white"/>
<path d="M63.3488 43.6385H53.5613C53.4125 43.6379 53.2652 43.6077 53.1281 43.5498C52.991 43.4918 52.8668 43.4073 52.7626 43.301L50.0176 40.556C49.8333 40.3408 49.737 40.0639 49.7479 39.7808C49.7588 39.4977 49.8762 39.2291 50.0766 39.0287C50.2769 38.8284 50.5455 38.711 50.8287 38.7001C51.1118 38.6891 51.3886 38.7854 51.6038 38.9697L54.0001 41.3885H63.3263C63.6247 41.3885 63.9109 41.507 64.1218 41.718C64.3328 41.929 64.4513 42.2151 64.4513 42.5135C64.4513 42.8119 64.3328 43.098 64.1218 43.309C63.9109 43.52 63.6247 43.6385 63.3263 43.6385H63.3488Z" fill="white"/>
<path d="M43.3688 51.1877C42.7435 51.1877 42.1323 51.0023 41.6125 50.655C41.0926 50.3076 40.6874 49.8139 40.4482 49.2362C40.2089 48.6586 40.1463 48.023 40.2683 47.4098C40.3902 46.7965 40.6913 46.2333 41.1334 45.7911C41.5755 45.349 42.1388 45.048 42.752 44.926C43.3653 44.804 44.0009 44.8666 44.5785 45.1059C45.1562 45.3451 45.6499 45.7503 45.9973 46.2702C46.3446 46.7901 46.53 47.4012 46.53 48.0265C46.53 48.4416 46.4483 48.8527 46.2894 49.2362C46.1305 49.6198 45.8977 49.9683 45.6041 50.2618C45.3106 50.5554 44.9621 50.7882 44.5785 50.9471C44.195 51.106 43.7839 51.1877 43.3688 51.1877ZM43.3688 47.1152C43.1885 47.1152 43.0124 47.1687 42.8625 47.2688C42.7127 47.3689 42.5959 47.5113 42.5269 47.6778C42.4579 47.8443 42.4399 48.0275 42.475 48.2043C42.5102 48.381 42.597 48.5434 42.7244 48.6708C42.8519 48.7983 43.0142 48.8851 43.191 48.9202C43.3678 48.9554 43.551 48.9373 43.7175 48.8684C43.884 48.7994 44.0263 48.6826 44.1264 48.5327C44.2266 48.3829 44.28 48.2067 44.28 48.0265C44.28 47.7848 44.184 47.553 44.0131 47.3821C43.8422 47.2112 43.6104 47.1152 43.3688 47.1152Z" fill="white"/>
<path d="M63.8889 49.1504H46.2039C45.9055 49.1504 45.6193 49.0319 45.4084 48.8209C45.1974 48.6099 45.0789 48.3238 45.0789 48.0254C45.0789 47.727 45.1974 47.4409 45.4084 47.2299C45.6193 47.0189 45.9055 46.9004 46.2039 46.9004H63.8889C64.1872 46.9004 64.4734 47.0189 64.6844 47.2299C64.8953 47.4409 65.0139 47.727 65.0139 48.0254C65.0139 48.3238 64.8953 48.6099 64.6844 48.8209C64.4734 49.0319 64.1872 49.1504 63.8889 49.1504Z" fill="white"/>
<path d="M49.2861 64.3281C46.0598 64.3281 42.906 63.3714 40.2234 61.579C37.5408 59.7865 35.45 57.2389 34.2154 54.2582C32.9807 51.2774 32.6577 47.9975 33.2871 44.8332C33.9165 41.6689 35.4701 38.7623 37.7515 36.481C40.0328 34.1996 42.9394 32.646 46.1037 32.0166C49.268 31.3872 52.5479 31.7102 55.5287 32.9448C58.5094 34.1795 61.057 36.2703 62.8495 38.9529C64.6419 41.6355 65.5986 44.7893 65.5986 48.0156C65.5957 52.3411 63.8761 56.4885 60.8175 59.547C57.759 62.6056 53.6116 64.3252 49.2861 64.3281ZM49.2861 33.9531C46.5048 33.9531 43.786 34.7779 41.4734 36.3231C39.1609 37.8683 37.3584 40.0646 36.2941 42.6341C35.2297 45.2037 34.9512 48.0312 35.4938 50.7591C36.0365 53.4869 37.3758 55.9926 39.3425 57.9593C41.3091 59.926 43.8148 61.2653 46.5427 61.8079C49.2705 62.3505 52.098 62.072 54.6676 61.0077C57.2372 59.9433 59.4335 58.1409 60.9787 55.8283C62.5239 53.5158 63.3486 50.7969 63.3486 48.0156C63.3427 44.2879 61.8592 40.7145 59.2233 38.0785C56.5873 35.4426 53.0139 33.9591 49.2861 33.9531Z" fill="white"/>
<defs>
<linearGradient id="paint0_linear_397_11638" x1="6.40137" y1="22.8594" x2="36.7764" y2="22.8594" gradientUnits="userSpaceOnUse">
<stop stop-color="#F26523"/>
<stop offset="0.534361" stop-color="#F77916"/>
<stop offset="0.868252" stop-color="#FF9900"/>
</linearGradient>
</defs>
</svg>
