<svg width="30" height="30" viewBox="0 0 30 30" fill="none" xmlns="http://www.w3.org/2000/svg">
<g clip-path="url(#clip0_397_12090)">
<path d="M15 30C23.2843 30 30 23.2843 30 15C30 6.71573 23.2843 0 15 0C6.71573 0 0 6.71573 0 15C0 23.2843 6.71573 30 15 30Z" fill="url(#paint0_linear_573_251)"/>
<path d="M25.0001 14.9999C25.0001 13.7893 24.0176 12.8069 22.8071 12.8069C22.2106 12.8069 21.6843 13.035 21.2983 13.4209C19.8071 12.3507 17.7369 11.649 15.4562 11.5613L16.4562 6.87706L19.7018 7.56127C19.7369 8.38583 20.4211 9.0525 21.2632 9.0525C22.1229 9.0525 22.8246 8.35074 22.8246 7.49109C22.8246 6.63144 22.1229 5.92969 21.2632 5.92969C20.6492 5.92969 20.1229 6.28056 19.8773 6.80688L16.2457 6.03495C16.1404 6.01741 16.0352 6.03495 15.9474 6.08758C15.8597 6.14021 15.8071 6.22793 15.772 6.3332L14.6667 11.5613C12.3334 11.6314 10.2457 12.3157 8.73691 13.4209C8.35095 13.0525 7.80709 12.8069 7.22814 12.8069C6.01761 12.8069 5.03516 13.7893 5.03516 14.9999C5.03516 15.8946 5.56147 16.649 6.3334 16.9999C6.29831 17.2104 6.28077 17.4385 6.28077 17.6665C6.28077 21.035 10.1931 23.7542 15.0352 23.7542C19.8773 23.7542 23.7895 21.035 23.7895 17.6665C23.7895 17.4385 23.772 17.2279 23.7369 17.0174C24.4562 16.6665 25.0001 15.8946 25.0001 14.9999ZM10.0001 16.5613C10.0001 15.7016 10.7018 14.9999 11.5615 14.9999C12.4211 14.9999 13.1229 15.7016 13.1229 16.5613C13.1229 17.4209 12.4211 18.1227 11.5615 18.1227C10.7018 18.1227 10.0001 17.4209 10.0001 16.5613ZM18.7194 20.6841C17.6492 21.7543 15.6141 21.8244 15.0176 21.8244C14.4211 21.8244 12.3685 21.7367 11.3159 20.6841C11.158 20.5262 11.158 20.263 11.3159 20.1051C11.4738 19.9472 11.7369 19.9472 11.8948 20.1051C12.5615 20.7718 14.0001 21.0174 15.0352 21.0174C16.0702 21.0174 17.4913 20.7718 18.1755 20.1051C18.3334 19.9472 18.5966 19.9472 18.7545 20.1051C18.8773 20.2806 18.8773 20.5262 18.7194 20.6841ZM18.4387 18.1227C17.579 18.1227 16.8773 17.4209 16.8773 16.5613C16.8773 15.7016 17.579 14.9999 18.4387 14.9999C19.2983 14.9999 20.0001 15.7016 20.0001 16.5613C20.0001 17.4209 19.2983 18.1227 18.4387 18.1227Z" fill="#112842"/>
</g>
<defs>
<linearGradient id="paint0_linear_573_251" x1="0.5" y1="13.2578" x2="25.5" y2="13.2578" gradientUnits="userSpaceOnUse">
<stop stop-color="#F26523"/>
<stop offset="0.534361" stop-color="#F77916"/>
<stop offset="0.868252" stop-color="#FF9900"/>
</linearGradient>
</defs>
</svg>
