<?xml version="1.0" encoding="utf-8"?>
<!-- Generator: Adobe Illustrator 24.2.3, SVG Export Plug-In . SVG Version: 6.00 Build 0)  -->
<svg version="1.1" id="Layer_1" xmlns="http://www.w3.org/2000/svg" xmlns:xlink="http://www.w3.org/1999/xlink" x="0px" y="0px"
	 viewBox="0 0 385 384" style="enable-background:new 0 0 385 384;" xml:space="preserve">
<style type="text/css">
	.st0{fill:#050505;}
</style>
<g>
	<path class="st0" d="M195.5,0.4c6.5,3,8.6,8.1,8.3,15c-0.4,10.3-0.1,20.7-0.1,31c0,7.5-4.6,12.5-11.4,12.4c-6.6-0.1-11-5.1-11-12.4
		c0-10.3,0.3-20.7-0.1-31c-0.3-7,1.9-12.1,8.3-15C191.5,0.4,193.5,0.4,195.5,0.4z"/>
	<path class="st0" d="M0.9,189c3-6.5,8.1-8.6,15-8.3c10.3,0.4,20.7,0.1,31,0.1c7.5,0,12.5,4.6,12.4,11.4c-0.1,6.6-5,11-12.4,11
		c-10.3,0-20.7-0.3-31,0.1c-7,0.3-12.1-1.9-15-8.3C0.9,193,0.9,191,0.9,189z"/>
	<path class="st0" d="M192.6,96.6c52.8,0.1,95.5,43,95.3,95.6c-0.2,52.8-43.2,95.6-95.6,95.2c-52.7-0.4-95.1-42.8-95.1-95.4
		C97.1,139.3,140,96.5,192.6,96.6z"/>
	<path class="st0" d="M319.8,52.7c4.8,0.7,8.2,2.7,10.2,6.8c2,4.2,1.9,8.6-1.3,11.9c-8.9,9.3-17.9,18.4-27.2,27.2
		c-4.2,4-11,3.3-14.9-0.8c-4.1-4.2-4.5-10.9-0.4-15.2c8.6-9,17.5-17.8,26.5-26.4C314.5,54.4,317.4,53.8,319.8,52.7z"/>
	<path class="st0" d="M331.7,319.2c-0.6,4.8-2.6,8.3-6.6,10.2c-4.3,2.1-8.8,1.9-12.2-1.4c-9.2-8.8-18.2-17.8-27-27
		c-4-4.2-3.4-10.9,0.6-14.9c4-4,10.7-4.8,14.9-0.8c9.3,8.8,18.3,18,27.2,27.2C330.3,314.3,330.8,317,331.7,319.2z"/>
	<path class="st0" d="M66.4,330.8c-6.1-0.2-9.6-2.2-11.5-6.5c-1.9-4.2-1.6-8.5,1.6-11.9c8.7-9.1,17.6-18,26.7-26.7
		c4.3-4.1,11.1-3.7,15.2,0.5c4.1,4.1,4.6,10.9,0.5,15.2c-8.7,9.1-17.6,18-26.7,26.7C70.4,329.7,67.5,330.2,66.4,330.8z"/>
	<path class="st0" d="M65.4,52.5C68,54,71.1,55,73.2,57c8.4,8,16.5,16.3,24.6,24.5c4.9,5,5,11.8,0.5,16.4
		c-4.5,4.5-11.4,4.4-16.4-0.5c-8.3-8.2-16.6-16.5-24.8-24.9c-3.5-3.5-4.3-7.8-2.5-12.4C56.4,55.8,60.4,53.3,65.4,52.5z"/>
	<path class="st0" d="M354.9,203.2c-5.9,0-11.7,0.1-17.6,0c-6.8-0.1-11.6-4.7-11.7-11.1c-0.1-6.5,4.8-11.3,11.7-11.4
		c11.6-0.1,23.2-0.1,34.8,0c6.9,0,11.9,4.8,11.9,11.2c0,6.4-5,11.1-12,11.2C366.4,203.3,360.7,203.2,354.9,203.2z"/>
	<path class="st0" d="M203.7,354.8c0,5.6,0,11.2,0,16.8c-0.1,7-4.8,12-11.2,12c-6.4,0-11.2-5-11.2-11.9c-0.1-11.6-0.1-23.2,0-34.8
		c0-6.9,4.9-11.8,11.4-11.7c6.3,0.1,10.9,4.9,11.1,11.7c0,0.1,0,0.2,0,0.4C203.7,343.1,203.7,349,203.7,354.8z"/>
</g>
<g>
</g>
<g>
</g>
<g>
</g>
<g>
</g>
<g>
</g>
<g>
</g>
</svg>
