<svg width="30" height="30" viewBox="0 0 30 30" fill="none" xmlns="http://www.w3.org/2000/svg">
<rect width="30" height="30" rx="15" fill="white"/>
<path fill-rule="evenodd" clip-rule="evenodd" d="M6.79002 14.8429C11.1628 12.9377 14.0787 11.6817 15.5377 11.0749C19.7033 9.34227 20.5689 9.04129 21.1331 9.03136C21.2572 9.02917 21.5346 9.05992 21.7144 9.20575C21.8661 9.32889 21.9079 9.49522 21.9279 9.61197C21.9478 9.72871 21.9727 9.99466 21.9529 10.2025C21.7272 12.5743 20.7504 18.3302 20.2535 20.9867C20.0432 22.1108 19.6292 22.4877 19.2284 22.5245C18.3573 22.6047 17.6959 21.9489 16.8522 21.3958C15.532 20.5304 14.7861 19.9917 13.5047 19.1472C12.0237 18.1713 12.9838 17.6349 13.8278 16.7583C14.0486 16.5289 17.8866 13.0379 17.9609 12.7213C17.9702 12.6816 17.9788 12.534 17.8911 12.4561C17.8034 12.3781 17.674 12.4048 17.5805 12.426C17.4481 12.456 15.3391 13.85 11.2535 16.6079C10.6548 17.019 10.1126 17.2193 9.62676 17.2088C9.09119 17.1972 8.06095 16.906 7.29507 16.657C6.3557 16.3517 5.6091 16.1902 5.67411 15.6716C5.70797 15.4015 6.07994 15.1253 6.79002 14.8429Z" fill="#112842"/>
</svg>
