<svg width="30" height="30" viewBox="0 0 30 30" fill="none" xmlns="http://www.w3.org/2000/svg">
<rect width="30" height="30" rx="15" fill="white"/>
<path d="M12.255 22.9109C18.9075 22.9109 22.545 17.3984 22.545 12.6209C22.545 12.4634 22.545 12.3059 22.5375 12.1559C23.2425 11.6459 23.8575 11.0084 24.345 10.2809C23.7 10.5659 23.0025 10.7609 22.2675 10.8509C23.0175 10.4009 23.5875 9.69594 23.8575 8.84844C23.16 9.26094 22.3875 9.56094 21.5625 9.72594C20.9025 9.02094 19.965 8.58594 18.9225 8.58594C16.9275 8.58594 15.3075 10.2059 15.3075 12.2009C15.3075 12.4859 15.3375 12.7634 15.405 13.0259C12.3975 12.8759 9.73504 11.4359 7.95004 9.24594C7.64254 9.77844 7.46254 10.4009 7.46254 11.0609C7.46254 12.3134 8.10004 13.4234 9.07504 14.0684C8.48254 14.0534 7.92754 13.8884 7.44004 13.6184C7.44004 13.6334 7.44004 13.6484 7.44004 13.6634C7.44004 15.4184 8.68504 16.8734 10.3425 17.2109C10.0425 17.2934 9.72004 17.3384 9.39004 17.3384C9.15754 17.3384 8.93254 17.3159 8.70754 17.2709C9.16504 18.7109 10.5 19.7534 12.0825 19.7834C10.845 20.7509 9.28504 21.3284 7.59004 21.3284C7.29754 21.3284 7.01254 21.3134 6.72754 21.2759C8.31004 22.3109 10.215 22.9109 12.255 22.9109Z" fill="#112842"/>
</svg>
