<svg id="Layer_1" data-name="Layer 1" xmlns="http://www.w3.org/2000/svg" viewBox="0 0 20 20"><defs><style>.cls-1{fill:#444;}</style></defs><title>arrow-drop-up</title><path class="cls-1" d="M8,13h8L12,9ZM15.9,2.79A9.87,9.87,0,0,1,21.21,8.1,9.68,9.68,0,0,1,22,12a9.68,9.68,0,0,1-.79,3.9,9.83,9.83,0,0,1-2.13,3.17,10.12,10.12,0,0,1-3.18,2.14A9.68,9.68,0,0,1,12,22a9.68,9.68,0,0,1-3.9-.79A10,10,0,0,1,2.79,15.9,9.68,9.68,0,0,1,2,12a9.68,9.68,0,0,1,.79-3.9A10.12,10.12,0,0,1,4.93,4.92,9.83,9.83,0,0,1,8.1,2.79,9.68,9.68,0,0,1,12,2,9.68,9.68,0,0,1,15.9,2.79Z" transform="translate(-2 -2)"/></svg>