<svg width="24" height="24" viewBox="0 0 24 24" fill="none" xmlns="http://www.w3.org/2000/svg">
<g clip-path="url(#clip0_39_146)">
<path d="M17.0963 0.75C14.469 0.75 6.64762 3.32025 4.76025 3.94913C2.25525 4.71525 0.75 7.09837 0.75 10.1576V15.8483L10.8127 17.8256V22.8221L13.959 23.25L16.2259 21.1117V16.4565L23.25 12.2959V6.73762C23.25 2.95912 20.961 0.75 17.0963 0.75ZM13.1164 10.4152L12.3862 9.88238L12.8546 8.90438C12.9893 9.39375 13.0774 9.9 13.1164 10.4152ZM3.82575 6.831L11.4472 6.14437C11.9393 6.75515 12.3324 7.43934 12.6124 8.172L11.8076 9.85312L11.8073 9.85425L11.8054 9.85875L11.0164 11.6089L9.10913 10.4389L3.6255 6.89325C3.68025 6.86212 3.74625 6.83887 3.82575 6.831ZM3.08737 15.5903L4.84237 14.8185L5.1435 15.8726C5.15662 15.9191 5.17763 15.9604 5.1945 16.0046L3.08737 15.5903ZM5.65912 15.7297L3.37538 7.73925C3.33716 7.61042 3.32643 7.47499 3.34387 7.34175L8.61525 10.7501L7.72125 12.486L5.85637 16.107C5.76515 15.9963 5.69797 15.8678 5.65912 15.7297ZM6.3165 16.3807L8.034 13.0455L9.069 11.0363L10.995 12.2167C11.024 12.2339 11.0559 12.2453 11.0891 12.2505L11.115 12.2543C11.1225 12.2546 11.1292 12.2569 11.1368 12.2569C11.1882 12.2569 11.2386 12.2421 11.282 12.2144C11.3253 12.1866 11.3598 12.1469 11.3813 12.1001L12.1594 10.3736L12.6855 10.7576L13.1404 11.0899V13.9646L6.57337 16.3538C6.49126 16.3837 6.40304 16.393 6.3165 16.3807ZM7.71525 16.5L12.4264 14.7863V17.4255L7.71525 16.5ZM13.2443 22.4434L11.5271 22.2098V17.9655L13.1404 18.2828V18.2835L13.2443 18.222V22.4434ZM18.6881 4.7265L14.6632 6.22837L14.6663 12.7961L13.6909 13.2694V3.00712L18.6908 1.31588L18.6881 4.7265Z" fill="white"/>
</g>
<defs>
<clipPath id="clip0_39_146">
<rect width="24" height="24" fill="white"/>
</clipPath>
</defs>
</svg>
