<svg width="23" height="23" viewBox="0 0 23 23" fill="none" xmlns="http://www.w3.org/2000/svg">
<g clip-path="url(#clip0_39_136)">
<path d="M14.95 11.5C14.95 12.415 14.5865 13.2925 13.9395 13.9395C13.2925 14.5865 12.415 14.95 11.5 14.95C10.585 14.95 9.70748 14.5865 9.06048 13.9395C8.41348 13.2925 8.05 12.415 8.05 11.5C8.05 11.3033 8.0707 11.1113 8.10635 10.925H6.9V15.5215C6.9 15.8412 7.15875 16.1 7.47845 16.1H15.5227C15.6759 16.0997 15.8228 16.0386 15.931 15.9301C16.0392 15.8217 16.1 15.6747 16.1 15.5215V10.925H14.8937C14.9293 11.1113 14.95 11.3033 14.95 11.5ZM11.5 13.8C11.8021 13.7999 12.1013 13.7403 12.3803 13.6246C12.6594 13.5089 12.913 13.3394 13.1266 13.1257C13.3402 12.9121 13.5096 12.6584 13.6251 12.3792C13.7406 12.1001 13.8001 11.8009 13.8 11.4988C13.7999 11.1967 13.7403 10.8976 13.6247 10.6185C13.509 10.3394 13.3395 10.0858 13.1258 9.87223C12.9121 9.65865 12.6584 9.48926 12.3793 9.37371C12.1001 9.25817 11.801 9.19874 11.4988 9.19881C10.8887 9.19896 10.3036 9.44149 9.87227 9.87304C9.44093 10.3046 9.1987 10.8898 9.19885 11.5C9.199 12.1101 9.44153 12.6952 9.87308 13.1265C10.3046 13.5579 10.8898 13.8001 11.5 13.8ZM14.26 9.08496H15.6389C15.7305 9.08496 15.8183 9.04865 15.8832 8.98398C15.9481 8.91932 15.9847 8.83157 15.985 8.73996V7.36111C15.985 7.26931 15.9485 7.18126 15.8836 7.11635C15.8187 7.05143 15.7307 7.01496 15.6389 7.01496H14.26C14.1682 7.01496 14.0802 7.05143 14.0152 7.11635C13.9503 7.18126 13.9139 7.26931 13.9139 7.36111V8.73996C13.915 8.92971 14.0703 9.08496 14.26 9.08496ZM11.5 0.459961C8.57201 0.459961 5.76394 1.6231 3.69354 3.6935C1.62314 5.7639 0.459999 8.57197 0.459999 11.5C0.459999 14.428 1.62314 17.236 3.69354 19.3064C5.76394 21.3768 8.57201 22.54 11.5 22.54C12.9498 22.54 14.3854 22.2544 15.7248 21.6996C17.0643 21.1448 18.2813 20.3316 19.3065 19.3064C20.3316 18.2813 21.1448 17.0642 21.6996 15.7248C22.2544 14.3854 22.54 12.9498 22.54 11.5C22.54 10.0502 22.2544 8.61457 21.6996 7.27514C21.1448 5.9357 20.3316 4.71866 19.3065 3.6935C18.2813 2.66834 17.0643 1.85514 15.7248 1.30033C14.3854 0.745519 12.9498 0.459961 11.5 0.459961ZM17.25 15.9723C17.25 16.675 16.675 17.25 15.9724 17.25H7.02765C6.325 17.25 5.75 16.675 5.75 15.9723V7.02761C5.75 6.32496 6.325 5.74996 7.02765 5.74996H15.9724C16.675 5.74996 17.25 6.32496 17.25 7.02761V15.9723Z" fill="white"/>
</g>
<defs>
<clipPath id="clip0_39_136">
<rect width="23" height="23" fill="white"/>
</clipPath>
</defs>
</svg>
