<svg width="23" height="23" viewBox="0 0 23 23" fill="none" xmlns="http://www.w3.org/2000/svg">
<g clip-path="url(#clip0_39_133)">
<path d="M11.5 0.459961C5.4027 0.459961 0.459999 5.40266 0.459999 11.5C0.459999 17.5973 5.4027 22.54 11.5 22.54C17.5973 22.54 22.54 17.5973 22.54 11.5C22.54 5.40266 17.5973 0.459961 11.5 0.459961ZM8.7975 16.0758H6.5619V8.88141H8.7975V16.0758ZM7.6659 7.99821C6.9598 7.99821 6.50325 7.49796 6.50325 6.87926C6.50325 6.24791 6.9736 5.76261 7.69465 5.76261C8.4157 5.76261 8.8573 6.24791 8.8711 6.87926C8.8711 7.49796 8.4157 7.99821 7.6659 7.99821ZM16.9625 16.0758H14.7269V12.0888C14.7269 11.1607 14.4026 10.5305 13.5942 10.5305C12.9766 10.5305 12.6098 10.9572 12.4476 11.3677C12.3878 11.5138 12.3729 11.7208 12.3729 11.9266V16.0747H10.1361V11.1757C10.1361 10.2775 10.1073 9.52656 10.0774 8.88026H12.0198L12.1222 9.87961H12.167C12.4614 9.41041 13.1825 8.71811 14.3888 8.71811C15.8597 8.71811 16.9625 9.70366 16.9625 11.822V16.0758Z" fill="white"/>
</g>
<defs>
<clipPath id="clip0_39_133">
<rect width="23" height="23" fill="white"/>
</clipPath>
</defs>
</svg>
