<svg width="100" height="82" viewBox="0 0 100 82" fill="none" xmlns="http://www.w3.org/2000/svg">
<path d="M100 69.5825C99.8889 67.5689 99.5556 65.5553 98.7778 63.7654C97.6667 61.4161 95.8889 59.7381 93.3334 59.0669C91.4445 58.5075 90.1112 59.2906 89.3334 61.1924C88.8889 62.5348 88.7778 63.8772 88.7778 65.2197C88.7778 66.7858 88.7778 68.4639 88.7778 70.03C88.8889 71.5962 89.0001 73.1623 89.5556 74.6166C90.6667 77.8608 93 79.7626 96.3334 80.4338C97.5556 80.6576 98.5556 80.4338 99.2223 79.0914C99.6667 78.1965 99.7778 77.3015 100 76.4066C100.111 75.9591 100 75.3997 100.111 74.9523V70.03C99.8889 69.8063 100 69.6944 100 69.5825ZM96.2223 70.4775C96.2223 72.3793 96.2223 74.281 96.2223 76.1828C96.2223 76.6303 96.1112 77.0778 95.8889 77.5252C95.6667 77.8609 95.3334 78.0846 95.0001 77.9727C93.8889 77.749 93.3334 76.9659 93 75.9591C92.7778 75.2879 92.7778 74.6166 92.7778 73.9454C92.7778 70.4775 92.7778 67.1214 92.7778 63.6535C92.7778 63.206 92.8889 62.6467 93 62.1992C93.2223 61.528 93.7778 61.1924 94.4445 61.528C95.4445 61.9755 96.0001 62.7585 96.2223 63.8772C96.3334 64.4366 96.4445 64.9959 96.4445 65.5553V70.4775H96.2223Z" fill="#444444"/>
<path d="M2.71201e-05 62.7586C0.888916 62.3111 1.66669 61.8636 2.55558 61.528C3.7778 60.8568 5.11114 60.2974 6.44447 59.6262C6.44447 60.2974 6.44447 60.8568 6.44447 61.528C6.44447 61.6399 6.33336 61.7517 6.22225 61.7517C4.88892 62.3111 5.11114 62.4229 5.11114 63.6535C5.11114 67.9045 5.11114 72.2674 5.11114 76.5184C5.11114 76.6303 5.11114 76.7422 5.11114 76.854C5.11114 77.1897 5.22225 77.3015 5.55558 77.1897C5.7778 77.0778 6.11114 76.9659 6.44447 76.854C6.44447 77.5253 6.44447 78.0846 6.44447 78.7558C6.44447 78.9796 6.22225 78.9796 6.11114 79.0914C4.44447 79.8745 2.88892 80.6576 1.22225 81.4407C0.777805 81.6644 0.33336 81.8882 -0.111084 82.1119C-0.111084 81.4407 -0.111084 80.7695 -0.111084 80.0983C2.71201e-05 79.8745 0.33336 79.7626 0.555583 79.6508C1.00003 79.427 1.11114 79.0914 1.11114 78.644C1.11114 74.1692 1.11114 69.6944 1.11114 65.2197C1.11114 65.1078 1.11114 65.1078 1.11114 64.9959C1.11114 64.6603 1.00003 64.6603 0.666694 64.7722C0.555583 64.6603 0.33336 64.8841 2.71201e-05 64.7722C2.71201e-05 64.101 2.71201e-05 63.4298 2.71201e-05 62.7586Z" fill="#444444"/>
<path d="M50.8889 69.8063C49.6667 72.1555 47.8889 73.9454 45.7778 75.2879C43.5556 76.7422 41.1111 77.5252 38.5556 78.1964C38 78.3083 37.4445 78.5321 36.7778 78.5321C35.6667 78.6439 34.6667 78.5321 33.5556 78.3083C28 77.4134 24.3333 74.281 22.4445 68.9113C22 67.7926 21.7778 66.674 21.7778 65.4434C21.5556 61.7517 22.6667 58.3956 24.7778 55.3752C24.7778 55.2633 24.7778 55.0396 24.8889 54.9277C25.5556 54.2565 26.2222 53.5853 26.8889 52.9141C27 52.8022 27.1111 52.8022 27.2222 52.6903C27.8889 52.3547 28.4445 51.9072 29 51.4598C31.8889 49.6699 35 48.5512 38.3333 47.9918C40.6667 47.5443 43 47.6562 45.3333 47.6562C46.3333 47.6562 47.2222 47.6562 48.2222 47.5443C48.8889 47.5443 49.1111 47.3206 49.1111 46.6494C49.1111 44.9714 49.1111 43.2933 49 41.6153C48.8889 38.5948 48.8889 35.4625 49 32.442C49.1111 29.7572 49.2222 27.0723 49.3333 24.3875C49.5556 21.4789 49.7778 18.4584 50 15.5498C50.2222 12.9768 50.5556 10.4038 50.6667 7.83084C50.7778 5.8172 51 3.91543 51.1111 1.90179C51.1111 1.34244 51.2222 0.783097 51.3333 0.111883C51.3333 1.36793e-05 51.3333 -0.223724 51.4445 -0.223724C51.6667 -0.223724 51.5556 1.36793e-05 51.5556 0.111883C52 1.1187 52.1111 2.01366 52.2222 2.79674C52.4445 4.92225 52.6667 7.04776 52.8889 9.28514C53 10.9632 53.2222 12.7531 53.3333 14.4311C53.4445 16.221 53.6667 18.0109 53.7778 19.8008C53.8889 21.8145 54.1111 23.8281 54.2222 25.8418C54.4445 29.1978 54.5556 32.6658 54.4445 36.0218C54.3333 39.3779 54.2222 42.6221 54.1111 45.9782C54.1111 46.4257 54.1111 46.7613 54.1111 47.2087C54.2222 47.5443 54.3333 47.7681 54.6667 47.7681C55.2222 47.9918 55.7778 47.88 56.4445 47.9918C59 48.2156 61.5556 48.4393 64.1111 48.663C66.7778 48.8868 69.4445 49.1105 72 49.4461C72.1111 49.4461 72.3333 49.558 72.4445 49.4461C72.5556 49.3343 72.4445 49.2224 72.3333 49.1105C72.1111 48.5512 71.8889 47.9918 71.6667 47.5443C71.5556 47.3206 71.5556 47.3206 71.7778 47.2087C72.5556 47.0969 73.3333 47.3206 74.1111 47.5443C75.8889 48.2156 77.6667 48.9986 79 50.4529C79.1111 50.5648 79.2222 50.6767 79.3333 50.9004C76.5556 52.131 73.5556 52.5785 70.5556 52.4666C71.3333 50.7885 72.6667 50.1173 74.1111 50.3411C74.2222 50.3411 74.3333 50.5648 74.4445 50.3411C74.4445 50.1173 74.3334 50.0055 74.2222 50.0055C73.8889 49.8936 73.4445 49.8936 73.1111 50.0055C72.4445 50.2292 71.8889 50.2292 71.2222 50.1173C68.3333 50.0055 65.4445 49.7817 62.5556 49.7817C60.5556 49.6699 58.5556 49.6699 56.5556 49.6699C56.1111 49.6699 55.6667 49.558 55.2222 49.6699C54.5556 49.7817 54.3334 50.0055 54.3334 50.5648C54.2222 51.3479 54.2222 52.2428 54.2222 53.0259C54.1111 55.3752 54.1111 57.6126 53.8889 59.9618C53.6667 62.9823 53 65.8909 51.7778 68.6876C51.7778 68.7995 51.6667 68.7995 51.6667 68.7995C51.4445 68.6876 51.4445 68.5757 51.5556 68.4639C51.5556 67.7926 51.5556 67.1214 51.6667 66.4502C51.7778 65.779 51.6667 65.1078 51.6667 64.3247C51.6667 64.2128 51.5556 64.101 51.4445 64.101H51.3333C50.1111 63.9891 50 64.101 50.1111 65.3315C50.1111 65.779 50 66.3383 49.8889 66.7858C49.7778 67.2333 49.4445 67.5689 49.1111 67.7926C49 67.9045 48.8889 67.9045 48.7778 67.7926C48.6667 67.5689 48.7778 67.3452 48.8889 67.1214C49.3333 65.779 49.3333 64.3247 49.4445 62.8704C49.5556 60.8568 49.5556 58.955 49.6667 56.9413C49.6667 56.0464 49.6667 55.1514 49.7778 54.3684C49.7778 54.1446 49.7778 53.9209 49.6667 53.6971C49.6667 53.5853 49.5556 53.3615 49.6667 53.2497C49.8889 53.1378 50 53.2497 50 53.3615C50.2222 53.6971 50.4445 54.0327 50.4445 54.4802C50.4445 54.8158 50.4445 55.1514 50.4445 55.487C50.4445 55.8227 50.5556 55.9345 50.8889 55.8227C51.1111 55.7108 51.4445 55.7108 51.6667 55.7108C52 55.7108 52.1111 55.5989 52.1111 55.2633C52.1111 55.0396 52.1111 54.704 52.1111 54.4802C52 53.3615 52.3333 52.3547 52.2222 51.3479C52.2222 50.7885 52.2222 50.7885 51.6667 50.7885C51.2222 50.7885 50.6667 50.7885 50.2222 50.7885C50 50.7885 49.8889 50.7885 49.7778 50.6767C49.6667 50.5648 49.6667 50.4529 49.6667 50.3411C49.5556 49.8936 49.2222 49.6699 48.7778 49.558C48.3333 49.4461 48 49.6699 47.6667 49.558C46 49.558 44.3333 49.6699 42.6667 49.6699C39.8889 49.6699 37.2222 50.0055 34.6667 51.0123C33.8889 51.236 33.2222 51.5716 32.5556 51.9072C31.4445 52.3547 30.3333 53.0259 29.3333 53.809C28.5556 54.3684 27.7778 55.0396 27.1111 55.8227C26.7778 56.1583 26.5556 56.6057 26.3333 56.9413C25.2222 58.5075 24.5556 60.1855 24.2222 62.0873C23.7778 64.9959 24.1111 67.7926 25.4445 70.3656C25.7778 71.0368 26.2222 71.708 26.6667 72.2674C27.7778 73.6098 29 74.6166 30.4445 75.3997C31.7778 76.0709 33.1111 76.5184 34.6667 76.7421C37.4445 77.0778 40.1111 76.4065 42.5556 75.0641C44.4445 74.0573 46 72.603 47.2222 70.8131C47.4445 70.4775 47.5556 70.1419 47.8889 69.9181C48 69.8063 48.1111 69.8063 48.2222 69.8063C49.1111 69.8063 50.1111 69.6944 51 69.6944C50.5556 69.5825 50.7778 69.5825 50.8889 69.8063Z" fill="#BF262A"/>
<path d="M70.2223 67.7926C70.2223 67.457 70.1111 67.3452 69.8889 67.3452C69.5556 67.3452 69.2223 67.2333 68.8889 67.1214C68.6667 67.1214 68.6667 67.1214 68.6667 67.3452C68.6667 67.7926 68.6667 68.2401 68.6667 68.6876C68.6667 69.0232 68.5556 69.2469 68.3334 69.4707C68 69.6944 67.4445 69.4707 67.2223 68.9113C67.1111 68.5757 67.1111 68.352 67.1111 68.0164C67.1111 67.1214 67.1111 66.2265 67.1111 65.2197C67 63.6535 66.3334 62.3111 65 61.3042C65.2223 61.3042 65.3334 61.3042 65.5556 61.1924C66.4445 60.9686 67.2223 60.633 67.6667 59.8499C68.5556 58.2838 68.5556 56.7176 68 55.1514C67.3334 53.0259 65.7778 51.9072 63.7778 51.3479C62.1111 50.9004 60.4445 50.9004 58.7778 50.6767C57.5556 50.5648 56.3334 50.5648 55.1111 50.4529C54.8889 50.4529 54.8889 50.4529 54.8889 50.6767C54.8889 51.0123 54.8889 51.4598 54.8889 51.7954C54.8889 52.4666 54.8889 52.4666 55.5556 52.4666C56.2223 52.4666 56.3334 52.6903 56.3334 53.2497V65.2197C56.3334 65.8909 56.3334 66.4502 56.3334 67.1214C56.3334 67.457 56.1111 67.6808 55.7778 67.6808C55.5556 67.6808 55.3334 67.6808 55.1111 67.6808C54.8889 67.6808 54.7778 67.6808 54.8889 67.9045C54.8889 68.352 54.8889 68.9113 54.8889 69.3588C54.8889 69.5825 55 69.6944 55.2223 69.6944C55.7778 69.6944 56.4445 69.6944 57 69.8063C58.4445 69.9182 59.8889 70.03 61.3334 70.2538C62.3334 70.3656 62.3334 70.3656 62.3334 69.4707V69.3588C62.3334 68.352 62.3334 68.352 61.3334 68.2401C60.7778 68.2401 60.5556 68.0164 60.5556 67.457V62.5348C60.5556 62.1992 60.4445 61.7517 60.5556 61.528C60.7778 61.3042 61.2223 61.528 61.5556 61.528H61.6667C62.6667 61.528 63.1111 62.0873 63.1111 63.0941V67.3452C63.1111 67.7926 63.2223 68.2401 63.3334 68.6876C64.1111 71.1487 67.2223 72.0437 68.8889 71.5962C69.8889 71.3725 70.4445 70.5894 70.4445 69.5826C70.2223 68.7995 70.2223 68.352 70.2223 67.7926ZM63.8889 58.2838C63.6667 59.0669 63.2223 59.4025 62.4445 59.4025C61.7778 59.4025 61.2223 59.2906 60.5556 59.2906C60.3334 59.2906 60.3334 59.0669 60.3334 58.955V56.0464C60.3334 55.0396 60.3334 54.1446 60.3334 53.1378C60.3334 52.9141 60.3334 52.8022 60.6667 52.8022C61.1111 52.9141 61.6667 52.9141 62.2223 52.9141C63.2223 53.0259 63.7778 53.5853 64 54.5921C64.2223 55.8227 64.2223 57.0532 63.8889 58.2838Z" fill="#444444"/>
<path d="M84.8889 75.3997C83.6667 75.0641 82.5556 74.6167 81.4445 74.2811C81.2223 74.2811 81.2223 74.0573 81.1112 73.9454C79.5556 70.1419 78.1112 66.3384 76.5556 62.5348C76.2223 61.7517 75.8889 60.9686 75.5556 60.0737C75.5556 60.2974 75.5556 60.4093 75.5556 60.5212C75.5556 63.6535 75.5556 66.674 75.5556 69.8063C75.5556 70.4775 75.6667 70.5894 76.3334 70.8131C76.4445 70.8131 76.5556 70.925 76.6667 70.925C77.0001 70.925 77.1112 71.1487 77.0001 71.3725C77.0001 71.8199 77.0001 72.2674 77.0001 72.7149C77.0001 72.9386 76.8889 72.9386 76.7778 72.9386C75.2223 72.4911 73.6667 72.1555 72.1112 71.8199C72.0001 71.8199 71.8889 71.7081 71.8889 71.5962C71.8889 71.0369 71.8889 70.5894 71.8889 70.03C71.8889 69.8063 72.0001 69.8063 72.1112 69.8063C72.3334 69.8063 72.4445 69.9182 72.6667 69.9182C73.1112 70.03 73.2223 69.9182 73.2223 69.4707C73.2223 68.352 73.2223 67.2333 73.2223 66.0027C73.2223 62.5348 73.2223 59.0669 73.2223 55.5989C73.2223 55.0396 73.1112 54.8158 72.5556 54.704C71.7778 54.4802 71.7778 54.4802 71.7778 53.6972C71.7778 53.3615 71.7778 53.0259 71.7778 52.8022C71.7778 52.5785 71.7778 52.4666 72.0001 52.5785C73.5556 52.9141 75.1112 53.3615 76.6667 53.6972C76.8889 53.809 77.0001 53.9209 77.0001 54.1446C77.6667 55.8227 78.3334 57.5007 79.0001 59.2906C80.1112 62.0873 81.2223 64.8841 82.3334 67.6808C82.3334 67.7927 82.4445 67.7927 82.4445 68.0164C82.4445 67.7927 82.4445 67.6808 82.4445 67.5689C82.4445 64.4366 82.4445 61.4161 82.4445 58.2838C82.4445 57.7244 82.3334 57.5007 81.7778 57.277C81.0001 57.0532 81.0001 57.0532 81.0001 56.2701C81.0001 55.9345 81.0001 55.7108 81.0001 55.3752C81.0001 55.1515 81.0001 55.0396 81.3334 55.1514C82.8889 55.5989 84.4445 56.1583 85.8889 56.7176C86.0001 56.7176 86.1112 56.8295 86.1112 56.9414C86.1112 57.5007 86.1112 58.06 86.1112 58.5075C86.1112 58.7313 86.0001 58.7313 85.8889 58.6194C85.6667 58.5075 85.4445 58.5075 85.2223 58.3957C85.0001 58.2838 84.7778 58.3957 84.7778 58.6194C84.7778 58.7313 84.7778 58.8431 84.7778 58.955C84.7778 64.2128 84.7778 69.5826 84.7778 74.8404C84.8889 75.0641 84.8889 75.176 84.8889 75.3997Z" fill="#444444"/>
<path d="M22.6667 53.809C22.6667 54.4802 22.6667 55.0396 22.6667 55.7108C22.6667 55.9345 22.5556 55.9345 22.4445 55.9345C21 56.2701 21.2222 56.4939 21.2222 57.5007C21.2222 62.6467 21.2222 67.7926 21.2222 72.9386C21.2222 73.2742 21.1111 73.3861 20.7778 73.498C19.7778 73.8336 18.7778 74.0573 17.7778 74.3929C17.5556 74.3929 17.5556 74.5048 17.4445 74.2811C16.5556 72.4912 15.6667 70.8131 14.7778 69.0232C13.8889 67.3452 13.1111 65.779 12.2222 64.101C12.2222 63.9891 12.1111 63.9891 12.1111 63.8772C12.1111 64.8841 12.1111 65.779 12.1111 66.674C12.1111 69.0232 12.1111 71.3725 12.1111 73.7217C12.1111 74.3929 12.2222 74.3929 12.7778 74.1692C13.4445 73.9455 13.4445 73.9455 13.4445 74.7285C13.4445 75.176 13.5556 75.6235 13.3333 75.9591C13.1111 76.2947 12.5556 76.2947 12.2222 76.4066C11.1111 76.854 9.8889 77.3015 8.77779 77.749C8.66668 77.749 8.55557 77.8609 8.44446 77.8609C8.44446 77.1896 8.44446 76.6303 8.44446 75.9591C8.44446 75.8472 8.55557 75.7353 8.66668 75.7353C9.66668 75.5116 9.8889 74.8404 9.77779 73.9454C9.77779 69.5826 9.77779 65.2197 9.77779 60.8568C9.77779 60.7449 9.77779 60.633 9.77779 60.633C9.77779 60.2974 9.55557 60.1856 9.33335 60.2974C9.11112 60.4093 8.77779 60.5212 8.44446 60.633C8.44446 59.9618 8.44446 59.2906 8.44446 58.7313C8.44446 58.6194 8.55557 58.6194 8.66668 58.6194C10.2222 57.9482 11.6667 57.3888 13.2222 56.8295C13.4445 56.7176 13.4445 56.8295 13.5556 56.9414C14.3333 58.3957 15 59.7381 15.7778 61.1924C16.8889 63.206 17.8889 65.3315 19 67.457C19 67.2333 19 67.1214 19 67.0096C19 63.8772 19 60.8568 19 57.7244C19 57.6126 19 57.5007 19 57.3888C19 57.0532 18.7778 57.0532 18.5556 57.0532C18.2222 57.1651 18 57.277 17.6667 57.277C17.6667 56.7176 17.6667 56.0464 17.6667 55.4871C17.6667 55.3752 17.6667 55.2633 17.8889 55.2633C19.3333 54.8158 21 54.3684 22.6667 53.809Z" fill="#444444"/>
<path d="M50.8889 69.8063C49.7778 69.8063 48.6667 70.03 47.5556 69.9182C47.4445 69.9182 47.3334 69.9181 47.3334 70.03C46.6667 70.1419 45.8889 70.03 45.2223 70.1419C44.4445 70.2538 43.6667 70.2538 42.8889 70.2538C41.6667 70.2538 40.3334 70.3656 39.1112 70.3656C38.4445 70.3656 38.3334 70.2538 38.3334 69.6944C38.3334 69.3588 38.3334 68.9113 38.4445 68.5757C38.4445 68.2401 38.6667 68.1282 38.8889 68.1282C39.7778 68.0164 39.7778 68.0164 39.7778 67.1214C39.8889 65.4434 39.7778 63.7654 40 62.0873C40 61.7517 40 61.3042 40 60.8568C40 58.7312 40.1112 56.6057 40.2223 54.3684C40.2223 54.1446 40.2223 53.9209 40.2223 53.5853C40.2223 53.1378 40.1112 53.1378 39.6667 53.1378C39.5556 53.1378 39.3334 53.1378 39.2223 53.1378C38.8889 53.1378 38.7778 52.9141 38.7778 52.6903C38.7778 52.2428 38.8889 51.7954 38.8889 51.236C38.8889 50.9004 39.1112 50.7885 39.4445 50.7885C40.2223 50.7885 40.8889 50.7885 41.6667 50.6767C43.7778 50.5648 46 50.5648 48.2223 50.3411C48.6667 50.3411 49.1112 50.2292 49.5556 50.3411C50.3334 50.3411 51.1112 50.3411 51.8889 50.3411C52.2223 50.3411 52.2223 50.4529 52.2223 50.6767C52.2223 52.2428 52 53.6971 52.1112 55.2633C52.1112 55.3752 52.1112 55.487 51.8889 55.487C51.4445 55.487 51.1112 55.487 50.6667 55.5989C50.3334 55.7108 50.2223 55.5989 50.2223 55.1514C50.2223 54.704 50.2223 54.2565 50.2223 53.809C50.2223 53.3615 50 53.0259 49.6667 52.6903C49.5556 52.6903 49.4445 52.6903 49.3334 52.5785C48.8889 52.3547 48.3334 52.3547 47.8889 52.3547C47 52.4666 46.1112 52.3547 45.1112 52.4666C44.6667 52.4666 44.6667 52.5785 44.6667 52.9141C44.6667 54.1446 44.5556 55.3752 44.5556 56.4939C44.5556 56.9413 44.4445 57.3888 44.4445 57.8363C44.4445 58.06 44.5556 58.1719 44.7778 58.1719C45.2223 58.1719 45.7778 58.1719 46.2223 58.06C46.6667 57.9482 46.8889 57.7244 46.8889 57.277C46.8889 56.7176 46.8889 56.0464 47 55.487C47 55.0396 47.1112 54.9277 47.5556 54.9277C47.8889 54.8158 48.2223 54.8158 48.5556 54.8158C49 54.8158 49.1112 54.9277 49.1112 55.3752C49.1112 56.2701 49 57.0532 49 57.9482C49 58.1719 49 58.3956 49 58.7312C49 60.0737 48.8889 61.3042 48.8889 62.6467C48.8889 62.8704 48.8889 62.9823 48.7778 63.206C48.7778 63.4297 48.6667 63.4297 48.4445 63.5416C48 63.5416 47.6667 63.6535 47.2223 63.6535C46.8889 63.6535 46.7778 63.5416 46.7778 63.206C46.7778 62.6467 46.7778 62.0873 46.7778 61.528C46.7778 60.8568 46.5556 60.7449 46 60.633C45.5556 60.633 45.1112 60.633 44.6667 60.7449C44.4445 60.7449 44.3334 60.9686 44.3334 61.0805C44.3334 61.528 44.2223 61.9755 44.2223 62.5348C44.2223 63.9891 44.1112 65.5553 44 67.0096C44 67.1214 44 67.2333 44 67.3452C44 67.5689 44.1112 67.6808 44.3334 67.5689C45.3334 67.5689 46.3334 67.457 47.3334 67.457C47.7778 67.457 48.1112 67.2333 48.5556 67.2333C49 67.1214 49.5556 66.4502 49.6667 66.0027C49.8889 65.3315 49.8889 64.6603 49.7778 63.9891C49.7778 63.5416 50 63.4297 50.3334 63.4297C50.6667 63.4297 51.1112 63.4297 51.4445 63.4297C51.5556 63.4297 51.6667 63.4297 51.6667 63.6535C51.6667 64.4366 51.7778 65.2197 51.6667 66.0027C51.5556 66.7858 51.6667 67.457 51.5556 68.1282C51.5556 68.2401 51.5556 68.2401 51.5556 68.352C51.5556 68.5757 51.4445 68.7995 51.4445 69.0232C51.4445 69.6944 51.2223 69.8063 50.8889 69.8063Z" fill="#444444"/>
<path d="M67.4445 7.49524C67.2222 8.05458 67.1111 8.61393 66.8889 9.28514C66.1111 11.2988 66.3334 13.3124 67.1111 15.2142C67.7778 17.116 68.5556 19.0177 69.2222 21.0314C69.7778 22.7094 70.1111 24.4993 69.7778 26.2892C69.2222 29.6453 67.4445 31.9946 64.3334 33.4489C62 34.4557 59.6667 34.5675 57.2223 33.7845C56.2223 33.4489 55.8889 33.0014 55.8889 31.8827C55.8889 30.5403 55.8889 29.3097 55.8889 27.9673C55.8889 27.8554 55.8889 27.7435 55.8889 27.6317C56.4445 27.9673 56.8889 28.4147 57.3334 28.8622C58.5556 29.9809 59.8889 30.6521 61.5556 30.5403C64.3334 30.4284 66.6667 28.3029 67.3334 25.5062C67.7778 23.3806 67.5556 21.367 66.8889 19.3534C66.3334 17.5635 65.7778 15.8854 65.5556 13.9836C65.3334 11.8581 65.5556 9.73262 66.8889 7.94272C67.1111 7.83085 67.2222 7.60711 67.4445 7.49524Z" fill="#BF262A"/>
<path d="M36.2223 8.94952C37.1111 10.0682 37.4445 11.4106 37.5556 12.8649C37.6667 14.3192 37.2223 15.7735 36.8889 17.116C36.4445 19.0177 35.8889 20.9195 35.5556 22.8213C34.8889 26.0655 36.6667 29.3097 39.5556 30.5402C42 31.5471 44.8889 30.764 46.5556 28.5266C46.6667 28.4147 46.7778 28.0791 47 28.191C47.2223 28.3029 47.1111 28.5266 47.1111 28.7503C47.1111 29.9809 47.1111 31.3233 47.1111 32.5539C47.1111 33.2251 46.7778 33.6726 46.2223 33.8963C45 34.4557 43.7778 34.6794 42.4445 34.6794C40 34.6794 37.8889 33.5607 36.1111 31.9945C34.1111 30.2046 33.1111 27.9673 33.1111 25.2824C33.1111 23.1569 33.6667 21.0314 34.4445 19.1296C35.1111 17.4516 35.7778 15.8854 36.2223 14.0955C36.5556 12.4175 36.6667 10.7394 36.1111 9.06139C36.3334 9.17326 36.2223 9.06139 36.2223 8.94952Z" fill="#BF262A"/>
<path d="M40.8889 10.6276C40.2222 10.7394 39.5556 10.8513 39 11.075C38.2222 11.1869 38 11.075 37.6667 10.4038C37.1111 9.17326 36.4445 7.83083 35.8889 6.4884C37.8889 7.49522 39.4445 8.83765 40.8889 10.6276Z" fill="#BF262A"/>
<path d="M62.2222 10.1801C63.6667 8.50207 65.1111 6.93591 67.2222 6.04095C66.8889 6.71217 66.6667 7.27151 66.3333 7.94273C66 8.61394 65.6667 9.28516 65.3333 9.95637C65.1111 10.5157 64.7778 10.6276 64.2222 10.5157C63.5556 10.4038 62.8889 10.292 62.2222 10.1801Z" fill="#BF262A"/>
<path d="M27.3334 52.6903C26.7778 53.3616 26.1112 53.9209 25.5556 54.5921C25.3334 54.8159 25.1112 55.0396 24.8889 55.3752C24.6667 55.2633 24.4445 55.4871 24.3334 55.3752C24.2223 55.1515 24.3334 54.9277 24.3334 54.704C24.3334 54.3684 24.3334 54.0328 24.3334 53.6972C24.3334 53.5853 24.3334 53.4734 24.5556 53.3616C25.5556 53.1378 26.4445 52.9141 27.3334 52.6903Z" fill="#454444"/>
<path d="M31.8889 51.7954C32.8889 51.6835 33.8889 51.4598 34.7778 51.3479C35.6667 51.236 36.4445 51.1242 37.3334 51.0123C37.5556 51.0123 37.5556 51.1242 37.5556 51.236C37.5556 52.8022 37.5556 54.3684 37.5556 55.9345C37.5556 56.1583 37.4445 56.2701 37.2223 56.2701C36.7778 56.2701 36.3334 56.382 35.8889 56.382C35.6667 56.382 35.5556 56.382 35.5556 56.1583C35.5556 55.7108 35.5556 55.2633 35.5556 54.9277C35.4445 53.9209 34.6667 53.3615 33.5556 53.4734C32.3334 53.5853 31.1112 53.809 29.8889 54.1446C29.6667 54.1446 29.6667 54.2565 29.6667 54.4802C29.6667 56.2701 29.6667 58.1719 29.6667 59.9618C29.6667 60.0737 29.6667 60.2974 29.8889 60.1856C30.4445 60.0737 31 59.9618 31.5556 59.85C32.2223 59.6262 32.4445 59.4025 32.4445 58.6194C32.4445 57.9482 32.4445 57.3888 32.4445 56.7176C32.4445 56.4939 32.4445 56.382 32.6667 56.382C33.1112 56.2701 33.6667 56.2701 34.1112 56.1583C34.3334 56.1583 34.3334 56.1583 34.3334 56.382C34.3334 58.955 34.3334 61.6399 34.3334 64.2128C34.3334 64.3247 34.3334 64.4366 34.1112 64.5485C33.6667 64.6603 33.1112 64.6603 32.6667 64.7722C32.4445 64.7722 32.4445 64.6603 32.4445 64.5485C32.4445 63.9891 32.4445 63.3179 32.4445 62.7585C32.4445 61.9755 32.1112 61.7517 31.3334 61.8636C30.8889 61.9755 30.4445 62.0873 29.8889 62.0873C29.6667 62.0873 29.5556 62.1992 29.5556 62.4229C29.5556 64.4366 29.5556 66.4502 29.5556 68.4639C29.5556 69.0232 29.6667 69.1351 30.2223 69.0232C30.5556 68.9113 30.8889 68.9113 31.3334 68.7995C31.5556 68.7995 31.5556 68.7995 31.5556 69.0232C31.5556 69.4707 31.5556 70.03 31.5556 70.4775C31.5556 70.7012 31.4445 70.8131 31.2223 70.8131C29.4445 71.1487 27.7778 71.4843 26 71.8199C25.8889 71.8199 25.8889 71.8199 25.7778 71.9318C25.5556 71.7081 25.3334 71.3725 25.1112 71.1487C24.8889 70.8131 24.6667 70.4775 24.5556 70.1419C25.3334 69.9182 25.3334 69.3588 25.3334 68.6876C25.3334 64.8841 25.3334 61.0805 25.3334 57.277C25.3334 57.0532 25.3334 56.7176 25.4445 56.4939C26.1112 55.3752 26.8889 54.5921 27.8889 53.809C28.4445 53.3615 29.1112 52.9141 29.6667 52.4666C30.5556 52.4666 31.2223 52.0191 31.8889 51.7954Z" fill="#444444"/>
</svg>
