<svg width="20" height="20" viewBox="0 0 20 20" fill="none" xmlns="http://www.w3.org/2000/svg">
<path d="M1.66666 15.8332C1.66666 17.2498 2.74999 18.3332 4.16666 18.3332H15.8333C17.25 18.3332 18.3333 17.2498 18.3333 15.8332V9.1665H1.66666V15.8332ZM15.8333 3.33317H14.1667V2.49984C14.1667 1.99984 13.8333 1.6665 13.3333 1.6665C12.8333 1.6665 12.5 1.99984 12.5 2.49984V3.33317H7.49999V2.49984C7.49999 1.99984 7.16666 1.6665 6.66666 1.6665C6.16666 1.6665 5.83332 1.99984 5.83332 2.49984V3.33317H4.16666C2.74999 3.33317 1.66666 4.4165 1.66666 5.83317V7.49984H18.3333V5.83317C18.3333 4.4165 17.25 3.33317 15.8333 3.33317Z" fill="#AB0004"/>
</svg>
