<svg width="37" height="38" viewBox="0 0 37 38" fill="none" xmlns="http://www.w3.org/2000/svg">
    <path d="M31.655 30.615C16.305 37.921 6.778 31.81.68 28.096c-.377-.234-1.019.055-.462.694 2.031 2.463 8.69 8.4 17.38 8.4 8.697 0 13.87-4.744 14.518-5.572.643-.821.189-1.274-.461-1.003zm4.311-2.38c-.412-.537-2.507-.637-3.825-.476-1.32.158-3.301.965-3.129 1.449.089.181.27.1 1.176.019.91-.091 3.457-.413 3.988.281.533.699-.813 4.027-1.059 4.564-.237.537.09.675.537.318.44-.358 1.236-1.283 1.77-2.593.532-1.317.855-3.154.542-3.563z" fill="url(#eip153skca)"/>
    <path fill-rule="evenodd" clip-rule="evenodd" d="M21.334 15.709c0 1.916.048 3.515-.92 5.217-.783 1.384-2.021 2.236-3.405 2.236-1.89 0-2.99-1.44-2.99-3.564 0-3.776 3.046-4.77 6.25-4.93.587-.03 1.065.452 1.065 1.04zM26.295 27.7a.997.997 0 0 1-.87.222c-.203-.041-.374-.17-.53-.305-.11-.095-.214-.185-.311-.273a4.249 4.249 0 0 0-5.054-.494c-1.542.937-3.119 1.265-5.33 1.265-4.14 0-7.364-2.553-7.364-7.667 0-3.993 2.166-6.713 5.245-8.041 2.478-1.091 5.867-1.35 8.62-1.64a.708.708 0 0 0 .633-.706c0-1.17.09-2.554-.595-3.564-.603-.907-1.751-1.28-2.762-1.28-1.875 0-3.55.962-3.958 2.955-.068.364-.3.723-.626.851-.143.056-.302.04-.455.024L8.393 8.56c-.401-.09-.844-.415-.733-1.031C8.76 1.744 13.984 0 18.662 0c2.395 0 5.523.637 7.412 2.45 2.394 2.235 2.166 5.217 2.166 8.463v7.667c0 2.305.955 3.315 1.854 4.56.319.444.388.977-.014 1.309-.998.833-2.771 2.379-3.757 3.253a.02.02 0 0 1-.028 0" fill="url(#7l6blgllzb)"/>
    <path d="M31.655 30.615C16.305 37.921 6.778 31.81.68 28.096c-.377-.234-1.019.055-.462.694 2.031 2.463 8.69 8.4 17.38 8.4 8.697 0 13.87-4.744 14.518-5.572.643-.821.189-1.274-.461-1.003zm4.311-2.38c-.412-.537-2.507-.637-3.825-.476-1.32.158-3.301.965-3.129 1.449.089.181.27.1 1.176.019.91-.091 3.457-.413 3.988.281.533.699-.813 4.027-1.059 4.564-.237.537.09.675.537.318.44-.358 1.236-1.283 1.77-2.593.532-1.317.855-3.154.542-3.563z" fill="url(#sjk2j1fytc)"/>
    <path fill-rule="evenodd" clip-rule="evenodd" d="M21.334 15.709c0 1.916.048 3.515-.92 5.217-.783 1.384-2.021 2.236-3.405 2.236-1.89 0-2.99-1.44-2.99-3.564 0-3.776 3.046-4.77 6.25-4.93.587-.03 1.065.452 1.065 1.04zM26.295 27.7a.997.997 0 0 1-.87.222c-.203-.041-.374-.17-.53-.305-.11-.095-.214-.185-.311-.273a4.249 4.249 0 0 0-5.054-.494c-1.542.937-3.119 1.265-5.33 1.265-4.14 0-7.364-2.553-7.364-7.667 0-3.993 2.166-6.713 5.245-8.041 2.478-1.091 5.867-1.35 8.62-1.64a.708.708 0 0 0 .633-.706c0-1.17.09-2.554-.595-3.564-.603-.907-1.751-1.28-2.762-1.28-1.875 0-3.55.962-3.958 2.955-.068.364-.3.723-.626.851-.143.056-.302.04-.455.024L8.393 8.56c-.401-.09-.844-.415-.733-1.031C8.76 1.744 13.984 0 18.662 0c2.395 0 5.523.637 7.412 2.45 2.394 2.235 2.166 5.217 2.166 8.463v7.667c0 2.305.955 3.315 1.854 4.56.319.444.388.977-.014 1.309-.998.833-2.771 2.379-3.757 3.253a.02.02 0 0 1-.028 0" fill="url(#1dzjnsfdcd)"/>
    <defs>
        <linearGradient id="eip153skca" x1="35.898" y1="27.689" x2="32.986" y2="43.39" gradientUnits="userSpaceOnUse">
            <stop stop-color="#CEEBFF"/>
            <stop offset="1" stop-color="#4899D2"/>
        </linearGradient>
        <linearGradient id="7l6blgllzb" x1="30.233" y1="0" x2="6.556" y2="28.126" gradientUnits="userSpaceOnUse">
            <stop stop-color="#CEEBFF"/>
            <stop offset="1" stop-color="#4899D2"/>
        </linearGradient>
        <linearGradient id="sjk2j1fytc" x1="35.898" y1="27.689" x2="32.986" y2="43.39" gradientUnits="userSpaceOnUse">
            <stop stop-color="#CEEBFF"/>
            <stop offset="1" stop-color="#4899D2"/>
        </linearGradient>
        <linearGradient id="1dzjnsfdcd" x1="30.233" y1="0" x2="6.556" y2="28.126" gradientUnits="userSpaceOnUse">
            <stop stop-color="#CEEBFF"/>
            <stop offset="1" stop-color="#4899D2"/>
        </linearGradient>
    </defs>
</svg>
