<svg width="125" height="39" viewBox="0 0 125 39" fill="none" xmlns="http://www.w3.org/2000/svg">
    <path fill-rule="evenodd" clip-rule="evenodd" d="M71.685 26.186c2.326-.279 7.487-.897 8.408.281.923 1.181-1.024 6.043-1.894 8.215-.264.657.302.922.896.425 3.864-3.233 4.864-10.008 4.072-10.986-.785-.97-7.542-1.806-11.667 1.09-.633.445-.525 1.06.179.976l.006-.001zM50.451 38.035c8.994 0 19.439-2.828 26.644-8.145 1.192-.88.17-2.2-1.047-1.683-8.078 3.426-16.855 5.083-24.84 5.083-11.838 0-23.299-3.248-32.567-8.64-.81-.472-1.412.36-.738.969 8.59 7.756 19.942 12.416 32.548 12.416z" fill="#F90"/>
    <path fill-rule="evenodd" clip-rule="evenodd" d="M71.843 4.748V1.934a.695.695 0 0 1 .713-.713l12.616-.001c.403 0 .727.293.727.71v2.414c-.004.405-.345.933-.95 1.772l-6.534 9.33c2.425-.057 4.99.307 7.195 1.545.497.28.63.693.67 1.099v3.003c0 .413-.454.892-.93.643-3.883-2.034-9.035-2.256-13.33.025-.438.234-.897-.238-.897-.653v-2.854c0-.458.01-1.239.47-1.935l7.57-10.861-6.591-.001c-.403 0-.727-.287-.73-.709zM26.567 21.62l.002-10.441c0-2.28-.108-5.43 2.65-5.43 2.723 0 2.365 3.233 2.365 5.43l.003 10.443a.72.72 0 0 0 .69.707h3.833c.409 0 .74-.316.74-.709V11.178c0-1.12-.036-2.777.358-3.772.395-.995 1.362-1.617 2.294-1.617 1.11 0 1.97.374 2.256 1.7.18.788.108 2.86.108 3.689l.001 10.443a.72.72 0 0 0 .688.707h3.833c.41 0 .74-.316.74-.709l.005-12.43c0-2.115.25-4.518-.968-6.176C45.09 1.52 43.335.857 41.722.857c-2.256 0-4.37 1.161-5.302 3.648C35.345 2.018 33.84.857 31.44.857c-2.364 0-4.12 1.161-5.05 3.648h-.073V1.934a.722.722 0 0 0-.697-.662l-3.574.001c-.41 0-.74.314-.74.709l-.004 19.697c.03.35.322.625.687.649h3.838c.409 0 .74-.316.74-.709zm61.558-9.86c0 6.092 3.045 10.984 8.634 10.984 5.374 0 8.776-4.768 8.776-10.777 0-6.217-3.08-11.109-8.776-11.109-5.553 0-8.634 4.767-8.634 10.902zm11.177-4.974c.502 1.575.573 3.565.573 5.223 0 2.527-.142 6.672-3.116 6.672-3.01 0-2.974-5.14-2.974-7.543 0-2.405.179-6.259 3.009-6.259 1.218 0 2.078.538 2.508 1.907zm14.368 14.834V11.013c0-1.328.072-2.529.61-3.731.43-.953 1.289-1.575 2.221-1.575 2.651 0 2.4 3.15 2.4 5.306v10.695a.723.723 0 0 0 .683.62h3.847c.38 0 .693-.271.736-.62V9.313c0-1.907 0-4.56-1.003-6.134-1.075-1.7-2.759-2.322-4.479-2.322-2.651 0-4.154 1.284-5.23 3.98h-.072V1.822a.73.73 0 0 0-.682-.551l-3.56.001c-.386 0-.704.282-.737.643l.006 19.705a.72.72 0 0 0 .689.707h3.824c.409 0 .74-.316.747-.709zm-51.883-9.528c-2.777 0-5.709.594-5.709 3.862 0 1.662.862 2.784 2.334 2.784 1.076 0 2.046-.665 2.656-1.744.755-1.33.72-2.576.72-4.072v-.83zm3.878 10.196c.766-.682 2.16-1.891 2.943-2.549.313-.255.258-.67.012-1.02-.7-.969-1.448-1.757-1.448-3.556V9.184c0-2.535.18-4.862-1.688-6.606-1.472-1.414-3.912-1.911-5.78-1.911-3.652 0-7.727 1.363-8.583 5.875-.09.48.259.732.573.803l3.72.403c.348-.017.6-.36.667-.706.32-1.555 1.62-2.304 3.085-2.304.79 0 1.687.29 2.154.997.539.79.467 1.868.467 2.783v.498c-2.226.25-5.135.416-7.217 1.33-2.405 1.039-4.093 3.157-4.093 6.273 0 3.987 2.514 5.982 5.745 5.982 2.729 0 4.22-.645 6.327-2.79.697 1.008.926 1.498 2.2 2.557.286.154.653.139.906-.09l.01.01zm-54.19-10.196c-2.775 0-5.708.594-5.708 3.862 0 1.662.862 2.784 2.334 2.784 1.077 0 2.047-.665 2.657-1.744.754-1.33.717-2.576.717-4.072v-.83zm3.879 10.196a164.07 164.07 0 0 1 2.943-2.549c.313-.255.257-.67.012-1.02-.7-.969-1.448-1.757-1.448-3.556V9.184c0-2.535.18-4.862-1.687-6.606C13.702 1.164 11.26.667 9.394.667 5.74.667 1.665 2.03.81 6.542c-.09.48.259.732.573.803l3.72.403c.347-.017.6-.36.666-.706.32-1.555 1.621-2.304 3.085-2.304.79 0 1.687.29 2.154.997.539.79.466 1.868.466 2.783v.498c-2.225.25-5.133.416-7.215 1.33C1.854 11.385.167 13.503.167 16.619c0 3.987 2.513 5.982 5.744 5.982 2.729 0 4.22-.645 6.328-2.79.696 1.008.924 1.498 2.2 2.557.285.154.652.139.906-.09l.009.01z" fill="#333"/>
</svg>
