<svg width="16" height="15" viewBox="0 0 16 15" fill="none" xmlns="http://www.w3.org/2000/svg">
<path fill-rule="evenodd" clip-rule="evenodd" d="M15.5001 0.625C15.5001 0.45924 15.4342 0.300269 15.317 0.183058C15.1998 0.0658481 15.0408 0 14.8751 0H7.37506C7.2093 0 7.05033 0.0658481 6.93312 0.183058C6.81591 0.300269 6.75006 0.45924 6.75006 0.625C6.75006 0.79076 6.81591 0.949731 6.93312 1.06694C7.05033 1.18415 7.2093 1.25 7.37506 1.25H13.3663L0.682557 13.9325C0.624447 13.9906 0.578352 14.0596 0.546903 14.1355C0.515454 14.2114 0.499268 14.2928 0.499268 14.375C0.499268 14.4572 0.515454 14.5386 0.546903 14.6145C0.578352 14.6904 0.624447 14.7594 0.682557 14.8175C0.740667 14.8756 0.809654 14.9217 0.885578 14.9532C0.961502 14.9846 1.04288 15.0008 1.12506 15.0008C1.20724 15.0008 1.28861 14.9846 1.36454 14.9532C1.44046 14.9217 1.50945 14.8756 1.56756 14.8175L14.2501 2.13375V8.125C14.2501 8.29076 14.3159 8.44973 14.4331 8.56694C14.5503 8.68415 14.7093 8.75 14.8751 8.75C15.0408 8.75 15.1998 8.68415 15.317 8.56694C15.4342 8.44973 15.5001 8.29076 15.5001 8.125V0.625Z" fill="#1B288C"/>
</svg>
