<svg width="36" height="36" viewBox="0 0 36 36" fill="none" xmlns="http://www.w3.org/2000/svg">
    <path d="M30.558 24.125a4.825 4.825 0 0 0 4.825-4.825v-5.202a4.825 4.825 0 0 0-4.227-4.787l-18.07-2.26c-1.354-.162-2.896-.952-3.057-2.305l-.057-.48A4.836 4.836 0 0 0 5.179 0h-3.57a1.608 1.608 0 0 0 0 3.217h3.57a1.608 1.608 0 0 1 1.608 1.426l2.541 21.65a4.825 4.825 0 0 0 2.423 3.633c.705.397 1.135 1.361 1.111 2.17a3.217 3.217 0 1 0 6.432.084c-.002-.753.504-1.622 1.257-1.622h3.938c.745 0 1.247.863 1.244 1.608a3.217 3.217 0 0 0 6.433 0c-.004-.745.497-1.608 1.242-1.608h.367a1.609 1.609 0 0 0 0-3.217H14.12a1.608 1.608 0 0 1-1.608-1.425l-.1-.85c-.06-.523.424-.949.95-.941h17.195z" fill="url(#r9227pg6ca)"/>
    <defs>
        <linearGradient id="r9227pg6ca" x1="35.195" y1="0" x2="6.699" y2="40.437" gradientUnits="userSpaceOnUse">
            <stop stop-color="#CEEBFF"/>
            <stop offset="1" stop-color="#4899D2"/>
        </linearGradient>
    </defs>
</svg>
