<svg width="194" height="18" viewBox="0 0 194 18" fill="none" xmlns="http://www.w3.org/2000/svg">
<path d="M0 0.66748H7.3237C10.7146 0.66748 12.7864 2.4822 12.7864 5.38101V6.34688C12.7864 9.29249 10.7146 11.1306 7.3237 11.1306H3.60298V16.3622H0V0.66748ZM3.60298 3.54248V8.25601H6.54681C8.45374 8.25601 9.16047 7.45436 9.16047 6.22907V5.56903C9.16047 4.34334 8.45374 3.54249 6.57021 3.54249H3.60298V3.54248Z" fill="white"/>
<path d="M34.427 0.666992H30.824V16.3617H34.427V0.666992Z" fill="white"/>
<path d="M89.988 0.669434H103.952V3.75625H98.7716V16.3642H95.1924V3.75625H89.988V0.669434Z" fill="white"/>
<path d="M107.107 0.669434H110.734V6.86727H117.303V0.669434H120.93V16.3642H117.303V9.93069H110.734V16.3642H107.107V0.669434Z" fill="white"/>
<path d="M128.418 0.669434H124.815V16.3641H128.418V0.669434Z" fill="white"/>
<path d="M132.303 0.669434H144.501V3.66264H135.836V7.00849H142.523V9.78948H135.836V13.3713H144.501V16.3642H132.303V0.669434Z" fill="white"/>
<path d="M165.034 0.669434H177.232V3.66264H168.567V7.00849H175.254V9.78948H168.567V13.3713H177.232V16.3642H165.034V0.669434Z" fill="white"/>
<path d="M192.915 5.33583V5.68926H189.265V5.38304C189.265 4.22835 188.323 3.26168 186.086 3.26168C184.32 3.26168 183.354 3.94553 183.354 4.9114C183.354 5.47744 183.613 5.87767 184.155 6.13669C184.673 6.39611 185.639 6.70233 187.051 7.05616C191.784 8.06962 193.127 9.20091 193.127 11.8403C193.127 14.9505 190.253 16.6708 186.345 16.6708C181.706 16.6708 179.445 14.6443 179.445 11.5571V11.062H183.072V11.3211C183.072 12.8534 184.249 13.7724 186.486 13.7724C188.37 13.7724 189.477 13.1362 189.477 12.0755C189.477 10.8974 188.746 10.5912 185.639 9.83715C183.401 9.38892 181.847 8.79988 180.999 8.09342C180.128 7.40958 179.705 6.39611 179.705 5.07681C179.705 3.68611 180.293 2.53143 181.47 1.65996C182.648 0.788097 184.226 0.363281 186.227 0.363281C190.725 0.363281 192.915 2.43743 192.915 5.33583" fill="white"/>
<path d="M28.4185 15.7388L22.6058 0.573242H18.5791L12.7588 15.7571L15.9103 16.9669L17.1898 13.4402H23.8305L25.1227 17.0038L28.4185 15.7388V15.7388ZM18.1787 10.7536L20.4864 4.41452H20.5336L22.8646 10.7536H18.1787Z" fill="white"/>
<path d="M51.7569 15.4542L48.4988 10.4019C50.4766 9.76569 51.7482 8.23378 51.7482 6.16043V5.24137C51.7482 2.43697 49.8171 0.669434 46.2613 0.669434H38.3494V16.3642H41.952V10.7558H44.8252L48.9522 17.2658L51.7569 15.4542ZM48.1452 6.06602C48.1452 7.26791 47.3211 7.99816 45.461 7.99816H41.952V3.49763H45.5316C47.4151 3.49763 48.1452 4.18068 48.1452 5.42977V6.06602V6.06602Z" fill="white"/>
<path d="M158.953 0.0186435L154.768 11.9344H154.721L150.505 0L147.038 1.3304L152.837 16.4591H156.44L162.273 1.29828L158.953 0.0186435Z" fill="white"/>
<path d="M70.8182 8.24218V9.35244C70.8182 12.8526 68.7499 14.6526 65.4716 14.6526C62.1928 14.6526 60.1079 12.8526 60.1079 9.35244V8.24218C60.1079 4.74283 62.1928 2.94238 65.4716 2.94238C68.7499 2.94238 70.8182 4.74283 70.8182 8.24218ZM62.6974 8.17515V9.42026C62.6974 11.5741 63.7061 12.4825 65.4715 12.4825C67.2199 12.4825 68.2291 11.5741 68.2291 9.42026V8.17515C68.2291 6.02167 67.2199 5.11292 65.4715 5.11292C63.7061 5.11292 62.6974 6.02167 62.6974 8.17515Z" fill="white"/>
<path d="M73.3921 3.19531H81.866V5.33253H75.9142V8.04094H80.4538V10.1274H75.9142V14.4014H73.3921V3.19531Z" fill="white"/>
</svg>
