<svg width="37" height="38" viewBox="0 0 37 38" fill="none" xmlns="http://www.w3.org/2000/svg">
    <path fill-rule="evenodd" clip-rule="evenodd" d="M36.787 3.595c-1.829 4.563-5.42 10.177-9.34 14.881-1.558 1.872-4.73.927-6.272-.959a11.102 11.102 0 0 0-1.652-1.636c-1.922-1.54-2.908-4.77-1.014-6.346 4.71-3.919 10.316-7.522 14.865-9.353a2.638 2.638 0 0 1 2.819.575c.705.705 1.039 1.762.594 2.838zM21.689 23.052c.126.759-.15 1.535-.748 2.02l-.161.131-3.252 2.598c-.027.022-.072.002-.077-.033-.005-.037-.01-.077-.01-.117-.26-1.984-1.187-3.82-2.69-5.323-1.52-1.52-3.412-2.448-5.49-2.708-.027 0-.06-.004-.092-.009-.038-.005-.059-.053-.035-.082l2.631-3.322.011-.013c.49-.628 1.296-.907 2.085-.803 3.988.557 7.197 3.691 7.828 7.66zm-8.273 11.37a7.601 7.601 0 0 0 2.263-5.454c0-.335-.034-.67-.069-1.022l-.005-.053c-.204-1.54-.91-3.005-2.152-4.248-1.28-1.261-2.8-1.985-4.377-2.189-.371-.037-.76-.055-1.113-.037C4.365 21.494.97 24.09.525 28.152l-.5 4.563c-.279 2.504 1.854 4.637 4.34 4.359l4.544-.501c1.855-.223 3.376-1.002 4.507-2.151z" fill="url(#j7uxupaxoa)"/>
    <defs>
        <linearGradient id="j7uxupaxoa" x1="36.792" y1="0" x2="6.911" y2="42.304" gradientUnits="userSpaceOnUse">
            <stop stop-color="#CEEBFF"/>
            <stop offset="1" stop-color="#4899D2"/>
        </linearGradient>
    </defs>
</svg>
