<svg width="37" height="36" viewBox="0 0 37 36" fill="none" xmlns="http://www.w3.org/2000/svg">
<path d="M18.5 0C14.9399 0 11.4598 1.05568 8.49974 3.03355C5.53966 5.01141 3.23255 7.82263 1.87018 11.1117C0.507799 14.4008 0.151339 18.02 0.845873 21.5116C1.54041 25.0033 3.25474 28.2106 5.77208 30.7279C8.28943 33.2453 11.4967 34.9596 14.9884 35.6541C18.48 36.3487 22.0992 35.9922 25.3883 34.6298C28.6774 33.2674 31.4886 30.9603 33.4665 28.0003C35.4443 25.0402 36.5 21.5601 36.5 18C36.5 13.2261 34.6036 8.64773 31.2279 5.27208C27.8523 1.89642 23.2739 0 18.5 0ZM23.0616 16.2947L22.7632 18.8029C22.7503 18.9193 22.6947 19.0268 22.6073 19.1046C22.5198 19.1825 22.4066 19.2252 22.2895 19.2245H19.6842V26.6613C19.6848 26.7501 19.6503 26.8355 19.5882 26.899C19.5261 26.9624 19.4414 26.9987 19.3526 27H16.7C16.6558 26.9994 16.6122 26.9901 16.5717 26.9726C16.5311 26.9551 16.4944 26.9298 16.4636 26.8981C16.4328 26.8665 16.4085 26.8291 16.3922 26.788C16.3759 26.747 16.3678 26.7031 16.3684 26.6589L16.3826 19.2245H14.4097C14.2841 19.2245 14.1636 19.1746 14.0748 19.0857C13.986 18.9969 13.9361 18.8764 13.9361 18.7508V16.245C13.9361 16.1194 13.986 15.9989 14.0748 15.9101C14.1636 15.8212 14.2841 15.7713 14.4097 15.7713H16.3684V13.3413C16.3684 10.53 18.0429 9 20.4895 9H22.4955C22.6212 9 22.7416 9.0499 22.8305 9.13874C22.9193 9.22757 22.9692 9.34805 22.9692 9.47368V11.5839C22.9692 11.7096 22.9193 11.8301 22.8305 11.9189C22.7416 12.0077 22.6212 12.0576 22.4955 12.0576H21.2663C19.9353 12.0789 19.6842 12.716 19.6842 13.6682V15.7642H22.6021C22.6682 15.7657 22.7332 15.781 22.7931 15.8092C22.8529 15.8373 22.9061 15.8777 22.9494 15.9277C22.9927 15.9776 23.025 16.0361 23.0443 16.0993C23.0637 16.1625 23.0695 16.2291 23.0616 16.2947Z" fill="#7AACF1"/>
</svg>
