<svg width="174" height="30" viewBox="0 0 174 30" fill="none" xmlns="http://www.w3.org/2000/svg">
<path d="M69.8055 6.03877C71.5038 7.68224 72.3536 10.1188 72.3536 13.349V26.1314H67.132V14.0174C67.132 12.0684 66.6725 10.5992 65.7535 9.61035C64.8345 8.62213 63.5252 8.12741 61.8269 8.12741C59.9053 8.12741 58.3872 8.70574 57.2736 9.86101C56.1595 11.0169 55.6028 12.6806 55.6028 14.8527V26.1314H50.3812V3.82479H55.3521V6.70714C56.215 5.6772 57.3011 4.89723 58.6104 4.36784C59.919 3.83921 61.3948 3.57422 63.0383 3.57422C65.8508 3.57422 68.1065 4.39591 69.8055 6.03877H69.8055Z" fill="white"/>
<path d="M100.09 16.6491H82.5876C82.8937 18.2926 83.6946 19.594 84.9895 20.5547C86.2845 21.5155 87.8927 21.9959 89.8142 21.9959C92.2645 21.9959 94.284 21.1886 95.8712 19.5732L98.6701 22.7896C97.6676 23.9873 96.4 24.8926 94.8688 25.5048C93.3368 26.1177 91.6105 26.4238 89.689 26.4238C87.2381 26.4238 85.0796 25.9369 83.2142 24.9617C81.3481 23.9873 79.9069 22.6297 78.8907 20.889C77.8738 19.1488 77.366 17.1784 77.366 14.9782C77.366 12.8059 77.8601 10.8498 78.8489 9.10903C79.8371 7.36899 81.2091 6.01139 82.9635 5.03621C84.718 4.06172 86.6951 3.57422 88.8953 3.57422C91.0675 3.57422 93.0099 4.0546 94.7225 5.01535C96.4352 5.97611 97.772 7.32719 98.7327 9.06731C99.6935 10.808 100.174 12.8203 100.174 15.1035C100.174 15.4656 100.146 15.9807 100.09 16.6491ZM84.6553 9.23436C83.4995 10.2232 82.7965 11.5391 82.5458 13.1819H95.203C94.9797 11.5671 94.2977 10.2578 93.156 9.25531C92.0138 8.25275 90.5936 7.75143 88.8953 7.75143C87.2244 7.75143 85.8106 8.24623 84.6553 9.23436Z" fill="white"/>
<path d="M118.762 26.1313L113.039 18.4034L107.275 26.1313H101.51L110.199 14.811L101.886 3.82471H107.693L113.165 11.1349L118.637 3.82471H124.276L115.922 14.7274L124.652 26.1313H118.762Z" fill="white"/>
<path d="M149.674 3.82471V26.1313H144.703V23.2908C143.868 24.2933 142.823 25.0662 141.57 25.6093C140.317 26.1523 138.966 26.4237 137.518 26.4237C134.538 26.4237 132.192 25.5955 130.48 23.9382C128.767 22.2818 127.911 19.8236 127.911 16.5653V3.82471H133.132V15.8553C133.132 17.8604 133.585 19.3577 134.49 20.3459C135.394 21.3346 136.683 21.8287 138.354 21.8287C140.219 21.8287 141.702 21.2512 142.803 20.0952C143.902 18.9399 144.453 17.2756 144.453 15.1034V3.82471H149.674Z" fill="white"/>
<path d="M158.112 25.7137C156.385 25.2406 155.007 24.6421 153.977 23.9175L155.982 19.949C156.984 20.6174 158.189 21.1539 159.595 21.5574C161.001 21.9614 162.387 22.1631 163.752 22.1631C166.87 22.1631 168.43 21.3419 168.43 19.6984C168.43 18.9191 168.033 18.376 167.24 18.0692C166.446 17.7631 165.172 17.4707 163.417 17.1921C161.579 16.914 160.082 16.5936 158.927 16.2313C157.771 15.8698 156.768 15.2359 155.919 14.3307C155.07 13.426 154.645 12.1656 154.645 10.5502C154.645 8.43422 155.529 6.74242 157.298 5.47487C159.066 4.208 161.454 3.57422 164.462 3.57422C165.993 3.57422 167.525 3.74848 169.057 4.09632C170.588 4.44493 171.841 4.91088 172.816 5.49573L170.811 9.46416C168.917 8.35061 166.787 7.79323 164.42 7.79323C162.888 7.79323 161.726 8.02295 160.932 8.48246C160.138 8.94198 159.741 9.54769 159.741 10.2996C159.741 11.135 160.166 11.7271 161.016 12.0749C161.865 12.4234 163.18 12.7505 164.963 13.0566C166.745 13.3353 168.207 13.6558 169.349 14.0174C170.491 14.3796 171.472 14.9925 172.294 15.8553C173.115 16.7189 173.526 17.9441 173.526 19.5313C173.526 21.62 172.621 23.2909 170.811 24.544C169.001 25.7973 166.536 26.4238 163.417 26.4238C161.607 26.4238 159.839 26.1869 158.112 25.7137V25.7137Z" fill="white"/>
<path d="M20.5173 0L7.73058 22.1487C7.21346 23.0444 6.25774 23.5962 5.22344 23.5962H0.289928C0.0670713 23.5962 -0.0722127 23.355 0.0392202 23.162L12.9947 0.723709C13.2532 0.275875 13.7311 0 14.2482 0H20.5173Z" fill="url(#paint0_linear_1_39)"/>
<path d="M27.3705 8.977L22.3555 0.289526C22.2521 0.110369 22.0609 0 21.8541 0H14.2481C14.9673 0 15.3393 0.464441 15.4631 0.65739L23.2328 14.1162C23.5671 14.6951 24.4027 14.6952 24.7371 14.1163L27.3705 9.55601C27.474 9.37687 27.474 9.15615 27.3706 8.977L27.3705 8.977Z" fill="url(#paint1_linear_1_39)"/>
<path d="M21.1791 29.9996L33.9658 7.85087C34.4829 6.95513 35.4387 6.40332 36.473 6.40332H41.4065C41.6293 6.40332 41.7686 6.64457 41.6572 6.83757L28.7017 29.2758C28.4432 29.7237 27.9653 29.9996 27.4482 29.9996H21.1791Z" fill="url(#paint2_linear_1_39)"/>
<path d="M14.3257 21.0236L19.3408 29.7111C19.4442 29.8903 19.6353 30.0006 19.8422 30.0006H27.4482C26.729 30.0006 26.3569 29.5362 26.2332 29.3432L18.4634 15.8845C18.1292 15.3055 17.2935 15.3054 16.9592 15.8844L14.3258 20.4446C14.2223 20.6238 14.2223 20.8445 14.3257 21.0236Z" fill="url(#paint3_linear_1_39)"/>
<defs>
<linearGradient id="paint0_linear_1_39" x1="8.0411" y1="15.7626" x2="17.8936" y2="-1.60849" gradientUnits="userSpaceOnUse">
<stop stop-color="#6BB884"/>
<stop offset="1" stop-color="#1C8D41"/>
</linearGradient>
<linearGradient id="paint1_linear_1_39" x1="25.6508" y1="12.0682" x2="18.6315" y2="-3.98321e-06" gradientUnits="userSpaceOnUse">
<stop stop-color="#B3E7C4"/>
<stop offset="1" stop-color="#4CBA70"/>
</linearGradient>
<linearGradient id="paint2_linear_1_39" x1="37.8037" y1="6.40332" x2="25.2698" y2="30.5094" gradientUnits="userSpaceOnUse">
<stop stop-color="#497BBE"/>
<stop offset="1" stop-color="#275087"/>
</linearGradient>
<linearGradient id="paint3_linear_1_39" x1="15.9224" y1="18.2264" x2="23.3622" y2="29.7774" gradientUnits="userSpaceOnUse">
<stop stop-color="#79ACF0"/>
<stop offset="1" stop-color="#4A7ABB"/>
</linearGradient>
</defs>
</svg>
