<svg width="219" height="37" viewBox="0 0 219 37" fill="none" xmlns="http://www.w3.org/2000/svg">
<path d="M45.0849 13.3074V16.8621H53.5897V22.0476H45.0849V30.8542H38.852V8.02429H55.8615V13.3074" fill="#333333"/>
<path d="M79.8108 19.4373C79.8108 26.0569 76.4672 31.2112 68.2556 31.2112C60.0421 31.2112 56.7315 26.0569 56.7315 19.4373C56.7315 12.8159 60.0421 7.66345 68.2556 7.66345C76.4672 7.66345 79.8108 12.8159 79.8108 19.4373ZM73.3837 19.4373C73.3837 15.6544 71.9876 12.9797 68.2556 12.9797C64.5236 12.9797 63.1275 15.6544 63.1275 19.4373C63.1275 23.2533 64.5236 25.8949 68.2556 25.8949C71.9876 25.8949 73.3837 23.2534 73.3837 19.4373Z" fill="#333333"/>
<path d="M86.9699 8.02222L90.7038 15.4904L94.4688 8.02222H101.642L94.5659 19.2752L102.032 30.8541H94.63L90.7038 23.6786L86.8068 30.8541H79.4069L86.8728 19.2752L79.7952 8.02222" fill="#333333"/>
<path d="M121.671 22.5685H119.008V30.8541H112.776V8.02222H123.616C130.206 8.02222 133.193 10.4355 133.193 15.2954C133.193 18.9807 131.472 21.2322 127.804 22.1451L133.226 30.8541H126.474M123.228 12.8821H119.008V17.7087H123.195C125.337 17.7087 126.896 17.2854 126.896 15.2954C126.896 13.3054 125.337 12.8821 123.228 12.8821" fill="#333333"/>
<path d="M142.107 8.02222H135.874V30.8541H142.107V8.02222Z" fill="#333333"/>
<path d="M155.493 23.5147L160.07 8.02234H167.309L158.967 30.8542H152.053L143.678 8.02234H150.95" fill="#333333"/>
<path d="M168.948 30.8541V8.02222H185.957V13.3073H175.181V16.862H183.946V22.0144H175.181V25.5709H186.151V30.8541" fill="#333333"/>
<path d="M198.042 22.5685H195.38V30.8541H189.147V8.02222H199.988C206.578 8.02222 209.565 10.4355 209.565 15.2954C209.565 18.9807 207.844 21.2322 204.176 22.1451L209.598 30.8541H202.846M199.6 12.8821H195.38V17.7087H199.569C201.708 17.7087 203.268 17.2854 203.268 15.2954C203.268 13.3054 201.708 12.8821 199.6 12.8821Z" fill="#333333"/>
<path d="M214.868 8.82227C217.419 8.82227 218.854 10.6132 218.854 12.8899C218.854 15.1666 217.419 16.9556 214.868 16.9556C212.299 16.9556 210.862 15.1666 210.862 12.8899C210.862 10.6132 212.299 8.82227 214.868 8.82227ZM214.868 16.2845C217.075 16.2845 218.126 14.7999 218.126 12.8899C218.126 10.978 217.075 9.49337 214.868 9.49337C212.644 9.49337 211.592 10.978 211.592 12.8899C211.592 14.7999 212.644 16.2845 214.868 16.2845ZM215.617 13.1142L216.568 14.8818H215.819L214.93 13.1533H214.04V14.8818H213.37V10.7946H215.254C216.102 10.7946 216.629 11.2843 216.629 11.9749C216.629 12.5232 216.205 12.9699 215.617 13.1142M215.273 11.4053H214.04V12.5231H215.233C215.739 12.5231 215.941 12.2793 215.941 11.9749C215.941 11.6687 215.8 11.4053 215.273 11.4053Z" fill="#333333"/>
<path d="M22.7163 6.15528L25.6599 21.2282C22.3512 22.6934 16.4892 26.0061 14.4153 31.7379C12.3533 26.0021 6.47564 22.6894 3.15721 21.2243L6.1009 6.15528L8.91449 9.45225L9.7397 10.4219H19.0755L22.7163 6.15528ZM24.3279 0L17.8056 7.64765H11.0096L4.48923 0L0 22.9704C0 22.9704 12.4368 26.8606 12.3921 36.0768C12.3921 36.5392 13.3999 36.7675 14.4076 36.7675C15.4153 36.7675 16.425 36.5392 16.425 36.0768C16.425 26.8606 28.8152 22.9704 28.8152 22.9704L24.3279 0L24.3279 0Z" fill="#333333"/>
</svg>
