<svg width="40" height="40" viewBox="0 0 40 40" fill="none" xmlns="http://www.w3.org/2000/svg">
    <path d="M20 0C9 0 0 9 0 20s9 20 20 20 20-9 20-20S31 0 20 0zm0 36c-1.6 0-3.8-3-5.2-8H25c-1.2 5-3.4 8-5 8zm-5.8-12c-.2-1.2-.2-2.6-.2-4s0-2.8.2-4h11.6c.2 1.2.2 2.6.2 4s0 2.8-.2 4H14.2zM4 20c0-1.4.2-2.8.6-4h5.6c-.2 1.2-.2 2.6-.2 4s0 2.8.2 4H4.6c-.4-1.2-.6-2.6-.6-4zM20 4c1.6 0 3.8 3 5.2 8H14.8c1.4-5 3.6-8 5.2-8zm9.8 12h5.6c.4 1.2.6 2.6.6 4s-.2 2.8-.6 4h-5.6c.2-1.2.2-2.6.2-4s0-2.8-.2-4zm4-4h-4.6C28.8 9.6 28 7.4 27 5.6c3 1.4 5.2 3.6 6.8 6.4zm-21-6.4c-.8 1.8-1.6 4-2 6.4H6.2c1.6-2.8 3.8-5 6.6-6.4zM6.2 28h4.6c.4 2.4 1.2 4.6 2.2 6.4-3-1.4-5.2-3.6-6.8-6.4zm21 6.4c.8-1.8 1.6-4 2.2-6.4H34c-1.8 2.8-4 5-6.8 6.4z" fill="url(#kcs9gqclba)"/>
    <defs>
        <linearGradient id="kcs9gqclba" x1="39.788" y1="0" x2="7.602" y2="45.703" gradientUnits="userSpaceOnUse">
            <stop stop-color="#CEEBFF"/>
            <stop offset="1" stop-color="#4899D2"/>
        </linearGradient>
    </defs>
</svg>
