<svg width="40" height="42" viewBox="0 0 40 42" fill="none" xmlns="http://www.w3.org/2000/svg">
    <path fill-rule="evenodd" clip-rule="evenodd" d="M25.123 19.916v-.002l.434-.433c.942-.94 2.42-.255 2.052 1.025-1.688 5.882-7.117 10.198-13.534 10.198-7.89 0-14.303-6.53-14.069-14.512C.326 5.732 11.43-.424 20.314 4.002c.745.372.85 1.359.262 1.948-.42.42-1.07.497-1.607.242-5.572-2.644-11.946-.282-14.841 4.594-1.326 2.233 1.365 3.527 3.202 1.69l5.783-5.783a1.276 1.276 0 0 1 1.804 0l2.14 2.14a3 3 0 0 0 4.243 0l3.405-3.405a2.288 2.288 0 0 0 0-3.235c-.8-.801-.233-2.176.9-2.178L34.515 0h.017c.065 0 .514-.008.895.373.24.24.375.565.374.904l-.008 8.925c-.001 1.133-1.376 1.703-2.178.9a2.321 2.321 0 0 0-3.282 0L20.12 21.308a1.276 1.276 0 0 1-1.804 0l-2.075-2.075a3 3 0 0 0-4.242 0l-3.61 3.61c-1.199 1.198-1.176 3.193.322 3.984 1.6.846 3.424 1.326 5.364 1.326 5.213 0 9.63-3.479 11.048-8.237zm2.661 8.909c1.122-1.124 3.002-1.358 4.124-.235l7.788 7.787c.4.401.4 1.051 0 1.452l-2.903 2.903c-.401.4-1.051.4-1.452 0l-7.787-7.788c-1.121-1.12-.89-2.997.23-4.12z" fill="url(#77qng9m7ha)"/>
    <defs>
        <linearGradient id="77qng9m7ha" x1="39.784" y1="0" x2="6.491" y2="46.081" gradientUnits="userSpaceOnUse">
            <stop stop-color="#CEEBFF"/>
            <stop offset="1" stop-color="#4899D2"/>
        </linearGradient>
    </defs>
</svg>
