<svg width="180" height="30" viewBox="0 0 180 30" fill="none" xmlns="http://www.w3.org/2000/svg">
    <path d="M56.574 29.665V20.09H46.15v9.571h-4.157V6.601h4.157v9.572h10.424V6.61H60.7v23.06l-4.127-.006zm21.493-1.226c-1.328.933-3.235 1.487-5.789 1.487-3.204 0-5.86-.963-7.362-3.238-.895-1.257-1.416-2.978-1.416-5.136 0-2.044.52-3.734 1.501-5.021 1.475-2.065 3.984-3.298 7.247-3.298 3.435 0 5.788 1.257 7.133 3.184 1.182 1.69 1.615 4.13 1.414 6.595H67.31c.04.93.434 1.808 1.1 2.45.75.788 2.166 1.343 3.868 1.343a6.708 6.708 0 0 0 3.29-.758c.837-.468 1.243-1.111 1.3-1.518h3.81a6.363 6.363 0 0 1-2.61 3.91zm-2.023-10.652c-.78-.73-1.934-1.342-3.783-1.342-1.73 0-3 .526-3.837 1.283a3.632 3.632 0 0 0-1.158 2.365h9.674a3.157 3.157 0 0 0-.896-2.306zm7.737 11.878c-.085-.059-.116-.262-.116-1.198V8.187c0-.788-.027-1.49-.058-1.751h3.872c.09.49.128.988.116 1.486v20.256c0 .843 0 1.342.085 1.487H83.78zm7.137-17.919v-3.91h4.086v3.91h-4.086zm4.158 17.919h-3.868c-.147-.059-.205-.41-.205-1.577V13.615h3.927v14.39c0 1.164.03 1.574.146 1.66zm14.908 0-.085-2.275c-1.127 1.865-3.525 2.536-5.833 2.536-3.637 0-5.919-1.428-5.919-5.104 0-9.747-.03-11.12-.146-11.207h3.943c.058 0 .089.582.089 10.126 0 2.217 1.498 3.005 3.548 3.005 2.571 0 4.188-1.256 4.188-3.239v-9.892h3.869v13.451c-.017.867.012 1.735.085 2.599h-3.739zm28.212-9.748c0-1.604-.606-3.035-3.262-3.035-1.934 0-3.494 1.08-3.494 3.121v9.662h-3.695v-9.982c0-1.72-1.185-2.801-3.177-2.801-2.223 0-3.609 1.548-3.609 3.21v9.573h-3.899v-16.05h3.814v2.568c.681-1.81 2.829-2.891 5.196-2.891 2.367 0 4.243.963 4.938 2.918.633-1.955 2.656-2.918 5.281-2.918 4.042 0 5.448 2.189 5.448 5.225 0 6.742.028 11.014.143 11.148h-3.5c-.184 0-.184-4.069-.184-9.748zm15.95 9.748V11.309l-5.602.789V8.8c4.737-.688 6.065-1.432 6.47-2.306h3.204v23.17h-4.072zm25.243-17.247c.34 1.604.377 3.5.377 5.72 0 1.81-.204 4.495-.551 5.806-1.022 4.13-3.926 6.013-8.66 6.013-4.879 0-7.566-1.72-8.662-6.04-.433-1.577-.549-3.969-.549-5.81 0-2.19-.027-3.676.406-5.662.779-3.762 3.667-6.123 8.833-6.123 5.111 0 7.998 2.623 8.806 6.096zm-4.185.932c-.375-2.1-1.935-3.383-4.621-3.383-2.741 0-4.359 1.284-4.706 3.383-.143 1.033-.259 3.532-.259 4.788-.006 1.651.12 3.3.374 4.932.433 2.248 2.023 3.325 4.591 3.325 2.567 0 4.086-1.194 4.532-3.325.204-.905.341-3.531.341-4.963a38.963 38.963 0 0 0-.252-4.757z" fill="#333"/>
    <path d="M.333 6.608v9.575H7.55v-5.59L.333 6.608zm11.374 3.985v5.59h7.219V6.608l-7.22 3.985zm11.376-6.278v11.868H30.3V.333l-7.216 3.982zM.333 20.093H7.55v9.572H.333v-9.572zm11.374 0h7.215v9.572h-7.215v-9.572zm11.376 0H30.3v9.572h-7.216v-9.572z" fill="#0081FF"/>
</svg>
