<svg width="36" height="36" viewBox="0 0 36 36" fill="none" xmlns="http://www.w3.org/2000/svg">
<path d="M18 21C19.6569 21 21 19.6569 21 18C21 16.3431 19.6569 15 18 15C16.3431 15 15 16.3431 15 18C15 19.6569 16.3431 21 18 21Z" fill="#7AACF1"/>
<path d="M21.6138 10.8574H14.3862C13.4503 10.8574 12.5526 11.2293 11.8908 11.8912C11.229 12.5532 10.8571 13.451 10.8571 14.3871V21.6135C10.8571 22.5496 11.229 23.4474 11.8908 24.1093C12.5526 24.7713 13.4503 25.1431 14.3862 25.1431H21.6138C22.5498 25.1431 23.4474 24.7713 24.1092 24.1093C24.771 23.4474 25.1429 22.5496 25.1429 21.6135V14.3847C25.1422 13.449 24.7701 12.5518 24.1084 11.8904C23.4466 11.229 22.5493 10.8574 21.6138 10.8574ZM18 22.6253C17.0851 22.6258 16.1906 22.3548 15.4296 21.8468C14.6686 21.3387 14.0754 20.6164 13.725 19.7711C13.3745 18.9258 13.2826 17.9956 13.4608 17.098C13.639 16.2005 14.0793 15.3759 14.7261 14.7287C15.3729 14.0815 16.1971 13.6407 17.0944 13.462C17.9917 13.2833 18.9219 13.3747 19.7672 13.7248C20.6125 14.0749 21.3351 14.6678 21.8434 15.4287C22.3518 16.1895 22.6231 17.084 22.6231 17.9991C22.6219 19.2253 22.1345 20.4009 21.2678 21.2681C20.4011 22.1354 19.226 22.6234 18 22.6253ZM22.6513 14.5165C22.425 14.517 22.2036 14.4502 22.0152 14.3248C21.8268 14.1993 21.6799 14.0207 21.593 13.8116C21.5062 13.6026 21.4834 13.3724 21.5274 13.1504C21.5715 12.9283 21.6804 12.7243 21.8405 12.5642C22.0005 12.4042 22.2045 12.2952 22.4265 12.2511C22.6485 12.2071 22.8786 12.2299 23.0876 12.3168C23.2967 12.4036 23.4752 12.5506 23.6007 12.739C23.7261 12.9274 23.7929 13.1489 23.7924 13.3752C23.7918 13.6777 23.6714 13.9677 23.4575 14.1816C23.2436 14.3954 22.9538 14.5159 22.6513 14.5165Z" fill="#7AACF1"/>
<path d="M18 0C14.4399 0 10.9598 1.05568 7.99974 3.03355C5.03966 5.01141 2.73255 7.82263 1.37018 11.1117C0.00779907 14.4008 -0.348661 18.02 0.345873 21.5116C1.04041 25.0033 2.75474 28.2106 5.27208 30.7279C7.78943 33.2453 10.9967 34.9596 14.4884 35.6541C17.98 36.3487 21.5992 35.9922 24.8883 34.6298C28.1774 33.2674 30.9886 30.9603 32.9665 28.0003C34.9443 25.0402 36 21.5601 36 18C36 13.2261 34.1036 8.64773 30.7279 5.27208C27.3523 1.89642 22.7739 0 18 0V0ZM27 21.6379C26.9987 23.0596 26.4334 24.4228 25.4281 25.4281C24.4228 26.4334 23.0596 26.9987 21.6379 27H14.3621C12.9406 26.9981 11.5778 26.4326 10.5726 25.4274C9.56742 24.4222 9.00189 23.0594 9.00001 21.6379V14.3621C9.00189 12.9406 9.56742 11.5778 10.5726 10.5726C11.5778 9.56742 12.9406 9.00188 14.3621 9H21.6379C23.0594 9.00188 24.4222 9.56742 25.4274 10.5726C26.4326 11.5778 26.9981 12.9406 27 14.3621V21.6379Z" fill="#7AACF1"/>
</svg>
