<svg width="177" height="24" viewBox="0 0 177 24" fill="none" xmlns="http://www.w3.org/2000/svg">
<path d="M156.478 23.278V0.343408C156.581 0.31925 156.683 0.274518 156.784 0.274752C160.857 0.284176 164.933 0.20703 169.002 0.335008C173.464 0.47533 175.718 2.54248 176.188 6.90879C176.558 10.3457 176.515 13.8123 176.066 17.2434C175.572 21.0259 173.448 22.9368 169.42 23.2075C166.961 23.3728 164.484 23.3028 162.016 23.3237C160.347 23.3378 158.679 23.3274 157.01 23.3241C156.842 23.3237 156.674 23.2958 156.478 23.278ZM160.142 3.31766V20.1588C163.058 20.1588 165.917 20.2349 168.77 20.1335C170.865 20.059 172.102 18.9302 172.422 16.875C172.955 13.4474 172.935 9.99467 172.418 6.56807C172.114 4.55441 170.765 3.49556 168.685 3.41625C167.171 3.35854 165.655 3.33831 164.14 3.32083C162.822 3.30562 161.504 3.31766 160.142 3.31766H160.142ZM95.3796 17.865C95.1114 19.6296 94.2666 20.3426 92.4463 20.3918C90.5025 20.4445 88.5544 20.4533 86.6112 20.3902C84.2868 20.3149 83.0402 19.1955 82.9872 16.9878C82.9045 13.5402 82.9084 10.0881 82.986 6.64029C83.0367 4.39128 84.2663 3.24092 86.5391 3.17617C88.5478 3.11895 90.5609 3.12035 92.5696 3.178C94.5355 3.23441 95.343 4.08136 95.4316 5.98869C95.4482 6.3465 95.4943 6.70298 95.5248 7.0389H99.1398C99.0689 6.13285 99.0544 5.27907 98.9267 4.44203C98.5633 2.05962 97.2389 0.662869 94.8149 0.328309C91.5216 -0.126238 88.199 -0.0744308 84.9008 0.273704C82.7306 0.502767 80.9446 1.54351 80.1485 3.64028C79.6865 4.85685 79.3795 6.1926 79.3312 7.4866C79.2153 10.5914 79.1626 13.7098 79.327 16.8103C79.5215 20.4774 80.994 22.6983 84.9319 23.2712C88.1366 23.7375 91.3768 23.6503 94.5833 23.2137C97.0449 22.8785 98.6621 21.2841 98.9314 18.8899C99.1306 17.1184 99.0823 15.3195 99.1319 13.5325C99.1507 12.8579 99.135 12.1823 99.135 11.5131H87.0576C87.3219 12.3029 87.5884 12.9976 87.7803 13.7117C87.8919 14.127 88.0978 14.2297 88.5085 14.2261C90.6104 14.2073 92.7125 14.2175 94.8146 14.2175C95.0469 14.2175 95.2791 14.2175 95.622 14.2175C95.5442 15.4954 95.5576 16.6943 95.3796 17.865ZM123.62 12.8487H129.466C129.764 11.9518 130.049 11.094 130.365 10.1446H123.61V3.26199C123.878 3.26199 124.11 3.26199 124.342 3.26199C127.572 3.26204 130.801 3.25142 134.03 3.2744C134.481 3.27761 134.689 3.15322 134.798 2.72811C135.003 1.93018 135.253 1.14345 135.498 0.304482H120.042V23.2392C120.093 23.2763 120.111 23.2999 120.128 23.3C124.874 23.3093 129.619 23.3184 134.364 23.3174C134.486 23.3174 134.69 23.2327 134.719 23.1443C135.012 22.2457 135.276 21.3381 135.571 20.3592H123.62V12.8487ZM49.6666 3.25652C50.2218 4.81837 50.783 6.3782 51.3312 7.94243C53.0628 12.8829 54.7878 17.8255 56.5246 22.7642C56.5952 22.9648 56.7547 23.2879 56.8824 23.2925C58.0365 23.3338 59.1928 23.3167 60.4026 23.3167C60.3451 23.0922 60.3241 22.9684 60.2822 22.8519C57.623 15.4598 54.9651 8.06718 52.2846 0.682556C52.2179 0.499049 51.9015 0.291263 51.6969 0.286354C50.2679 0.252077 48.8375 0.279816 47.4079 0.260548C47.0424 0.25562 46.8802 0.378441 46.7603 0.716996C44.1678 8.0414 41.5631 15.3616 38.962 22.6831C38.8951 22.8714 38.8435 23.065 38.7633 23.3263C39.9291 23.3263 40.9884 23.3066 42.0462 23.3362C42.4567 23.3477 42.5973 23.1777 42.7187 22.8261C44.1833 18.5821 45.6646 14.3438 47.141 10.1038C47.9382 7.8142 48.7343 5.52427 49.5309 3.2345L49.6666 3.25652V3.25652ZM8.83201 11.4598C12.1843 7.7332 15.4939 4.05415 18.8982 0.269765C17.363 0.269765 15.9621 0.255351 14.5623 0.286671C14.3714 0.29094 14.1492 0.491958 14.0032 0.655282C11.3717 3.59928 8.74962 6.5514 6.12581 9.50206C5.73415 9.94251 5.55085 12.7676 5.88328 13.2491C5.91948 13.3016 5.96817 13.3458 6.01219 13.3928C9.01965 16.6049 12.0249 19.819 15.0422 23.022C15.1848 23.1735 15.4333 23.3091 15.6351 23.3127C17.0401 23.3378 18.4458 23.3259 20.0485 23.3259C16.2354 19.292 12.5417 15.3843 8.832 11.4598L8.83201 11.4598ZM3.45251 0.314762H0V23.301H3.45251V0.314762Z" fill="#333333"/>
</svg>
