<svg width="37" height="36" viewBox="0 0 37 36" fill="none" xmlns="http://www.w3.org/2000/svg">
<path d="M18.5 0C14.9399 0 11.4598 1.05568 8.49974 3.03355C5.53966 5.01141 3.23255 7.82263 1.87018 11.1117C0.507799 14.4008 0.151339 18.02 0.845873 21.5116C1.54041 25.0033 3.25474 28.2106 5.77208 30.7279C8.28943 33.2453 11.4967 34.9596 14.9884 35.6541C18.48 36.3487 22.0992 35.9922 25.3883 34.6298C28.6774 33.2674 31.4886 30.9603 33.4665 28.0003C35.4443 25.0402 36.5 21.5601 36.5 18C36.5 13.2261 34.6036 8.64773 31.2279 5.27208C27.8523 1.89642 23.2739 0 18.5 0V0ZM13.9195 26.3913C13.9195 26.5527 13.8553 26.7076 13.7412 26.8217C13.627 26.9359 13.4722 27 13.3108 27H10.7245C10.6445 27.0003 10.5652 26.9848 10.4912 26.9543C10.4172 26.9238 10.35 26.879 10.2934 26.8224C10.2368 26.7658 10.192 26.6986 10.1615 26.6246C10.131 26.5506 10.1155 26.4713 10.1158 26.3913V15.5463C10.1158 15.3849 10.1799 15.2301 10.2941 15.1159C10.4082 15.0018 10.563 14.9376 10.7245 14.9376H13.3108C13.4722 14.9376 13.627 15.0018 13.7412 15.1159C13.8553 15.2301 13.9195 15.3849 13.9195 15.5463V26.3913ZM12.0247 13.9168C11.5382 13.9187 11.0621 13.7762 10.6566 13.5073C10.2511 13.2384 9.93454 12.8553 9.74694 12.4063C9.55935 11.9574 9.50917 11.463 9.60277 10.9855C9.69636 10.5081 9.92952 10.0691 10.2727 9.72427C10.6159 9.37941 11.0537 9.14414 11.5307 9.04824C12.0077 8.95235 12.5024 9.00014 12.9522 9.18556C13.402 9.37099 13.7867 9.68572 14.0576 10.0899C14.3284 10.4941 14.4732 10.9695 14.4737 11.456C14.474 11.7789 14.4107 12.0986 14.2875 12.397C14.1642 12.6954 13.9834 12.9666 13.7553 13.1951C13.5272 13.4236 13.2564 13.605 12.9583 13.7288C12.6601 13.8526 12.3405 13.9165 12.0176 13.9168H12.0247ZM27.4479 26.441C27.4479 26.5893 27.389 26.7315 27.2842 26.8363C27.1794 26.9411 27.0372 27 26.8889 27H24.1061C23.9578 27 23.8156 26.9411 23.7108 26.8363C23.606 26.7315 23.5471 26.5893 23.5471 26.441V21.3537C23.5471 20.5934 23.7674 18.0379 21.5624 18.0379C19.8524 18.0379 19.5042 19.7953 19.4308 20.5839V26.4529C19.4277 26.5983 19.3681 26.7367 19.2646 26.8388C19.1612 26.941 19.022 26.9988 18.8766 27H16.1908C16.1173 27.0003 16.0445 26.9861 15.9765 26.9581C15.9086 26.9301 15.8468 26.8889 15.7949 26.837C15.7429 26.785 15.7017 26.7233 15.6738 26.6553C15.6458 26.5874 15.6315 26.5145 15.6318 26.441V15.4989C15.6315 15.4253 15.6458 15.3524 15.6737 15.2843C15.7017 15.2162 15.7428 15.1543 15.7947 15.1022C15.8467 15.05 15.9084 15.0086 15.9763 14.9804C16.0443 14.9522 16.1172 14.9376 16.1908 14.9376H18.8766C18.9511 14.9364 19.0251 14.95 19.0943 14.9776C19.1635 15.0052 19.2265 15.0464 19.2796 15.0986C19.3328 15.1509 19.375 15.2132 19.4038 15.2819C19.4326 15.3507 19.4474 15.4244 19.4474 15.4989V16.4463C20.0821 15.4989 21.0247 14.7576 23.0308 14.7576C27.4787 14.7576 27.4526 18.9118 27.4526 21.1926L27.4479 26.441Z" fill="#7AACF1"/>
</svg>
