<svg width="232" height="40" viewBox="0 0 232 40" fill="none" xmlns="http://www.w3.org/2000/svg">
    <path d="M93.075 8.053c2.264 2.191 3.397 5.44 3.397 9.747v17.043H89.51V18.691c0-2.599-.613-4.558-1.838-5.876-1.225-1.318-2.971-1.977-5.235-1.977-2.563 0-4.587.77-6.072 2.311-1.485 1.541-2.227 3.76-2.227 6.656v15.038h-6.963V5.101h6.629v3.843c1.15-1.373 2.598-2.413 4.344-3.12 1.745-.704 3.712-1.057 5.904-1.057 3.75 0 6.757 1.095 9.023 3.286zM133.455 22.2h-23.337c.408 2.191 1.476 3.927 3.202 5.207 1.727 1.282 3.871 1.922 6.433 1.922 3.267 0 5.96-1.076 8.076-3.23l3.732 4.288c-1.337 1.597-3.027 2.804-5.068 3.62-2.043.818-4.345 1.226-6.907 1.226-3.268 0-6.146-.65-8.633-1.95-2.488-1.299-4.41-3.109-5.765-5.43-1.355-2.32-2.033-4.947-2.033-7.881 0-2.896.659-5.505 1.978-7.826a14.028 14.028 0 0 1 5.486-5.43c2.339-1.3 4.975-1.95 7.909-1.95 2.896 0 5.486.641 7.77 1.922 2.283 1.281 4.066 3.083 5.347 5.403 1.281 2.32 1.921 5.004 1.921 8.048 0 .483-.037 1.17-.111 2.06zm-20.58-9.886c-1.542 1.318-2.479 3.072-2.813 5.263h16.876c-.297-2.153-1.207-3.899-2.729-5.236-1.523-1.336-3.417-2.005-5.681-2.005-2.228 0-4.113.66-5.653 1.977zM158.351 34.843l-7.63-10.304-7.687 10.304h-7.686l11.585-15.094L135.85 5.101h7.741l7.297 9.747 7.296-9.747h7.519l-11.139 14.537 11.641 15.205h-7.854zM199.567 5.1v29.743h-6.628v-3.787c-1.114 1.336-2.506 2.367-4.177 3.09-1.671.725-3.472 1.087-5.403 1.087-3.973 0-7.101-1.104-9.384-3.314-2.284-2.209-3.426-5.486-3.426-9.83V5.1h6.962v16.04c0 2.674.603 4.67 1.81 5.988 1.207 1.318 2.925 1.977 5.152 1.977 2.488 0 4.465-.77 5.932-2.311 1.467-1.54 2.2-3.76 2.2-6.656V5.101h6.962zM210.818 34.286c-2.302-.63-4.14-1.429-5.514-2.395l2.674-5.291c1.337.891 2.942 1.606 4.818 2.144 1.874.539 3.722.808 5.542.808 4.158 0 6.238-1.095 6.238-3.286 0-1.04-.529-1.763-1.588-2.172-1.058-.409-2.757-.799-5.096-1.17-2.451-.37-4.447-.798-5.987-1.281-1.542-.482-2.879-1.327-4.011-2.534-1.133-1.207-1.699-2.887-1.699-5.04 0-2.822 1.179-5.078 3.537-6.768 2.358-1.69 5.542-2.534 9.552-2.534 2.042 0 4.085.232 6.127.696 2.042.465 3.713 1.086 5.013 1.866l-2.674 5.29c-2.525-1.484-5.366-2.227-8.521-2.227-2.043 0-3.593.306-4.651.919-1.058.613-1.587 1.42-1.587 2.423 0 1.114.565 1.903 1.698 2.367 1.133.465 2.887.9 5.264 1.309 2.376.371 4.325.799 5.848 1.28a9.168 9.168 0 0 1 3.927 2.452c1.095 1.151 1.643 2.785 1.643 4.9 0 2.786-1.207 5.014-3.621 6.685-2.414 1.67-5.7 2.506-9.858 2.506-2.414 0-4.772-.316-7.074-.947z" fill="#fff"/>
    <path d="m27.357 0-17.05 29.532a3.86 3.86 0 0 1-3.342 1.93H.387a.386.386 0 0 1-.335-.58L17.326.966A1.93 1.93 0 0 1 18.998 0h8.359z" fill="url(#yz35b9q7ra)"/>
    <path d="M36.494 11.97 29.808.385A.772.772 0 0 0 29.139 0H18.998c.959 0 1.455.62 1.62.877l10.36 17.945c.445.772 1.56.772 2.005 0l3.511-6.08a.772.772 0 0 0 0-.773z" fill="url(#8gqlj9f7cb)"/>
    <path d="m28.239 40 17.05-29.532a3.86 3.86 0 0 1 3.342-1.93h6.578c.297 0 .483.322.334.58L38.27 39.034a1.93 1.93 0 0 1-1.671.965h-8.359z" fill="url(#w2blxj0ykc)"/>
    <path d="m19.101 28.03 6.687 11.584a.772.772 0 0 0 .668.386h10.142c-.96 0-1.455-.62-1.62-.877l-10.36-17.945a1.158 1.158 0 0 0-2.006 0l-3.51 6.08a.772.772 0 0 0 0 .772z" fill="url(#hshjcjnjrd)"/>
    <defs>
        <linearGradient id="yz35b9q7ra" x1="10.722" y1="21.017" x2="23.858" y2="-2.145" gradientUnits="userSpaceOnUse">
            <stop stop-color="#6BB884"/>
            <stop offset="1" stop-color="#1C8D41"/>
        </linearGradient>
        <linearGradient id="8gqlj9f7cb" x1="34.201" y1="16.091" x2="24.842" y2="0" gradientUnits="userSpaceOnUse">
            <stop stop-color="#B3E7C4"/>
            <stop offset="1" stop-color="#4CBA70"/>
        </linearGradient>
        <linearGradient id="w2blxj0ykc" x1="50.405" y1="8.538" x2="33.693" y2="40.68" gradientUnits="userSpaceOnUse">
            <stop stop-color="#497BBE"/>
            <stop offset="1" stop-color="#275087"/>
        </linearGradient>
        <linearGradient id="hshjcjnjrd" x1="21.23" y1="24.301" x2="31.15" y2="39.702" gradientUnits="userSpaceOnUse">
            <stop stop-color="#79ACF0"/>
            <stop offset="1" stop-color="#4A7ABB"/>
        </linearGradient>
    </defs>
</svg>
