<svg width="631" height="273" viewBox="0 0 631 273" fill="none" xmlns="http://www.w3.org/2000/svg">
<g filter="url(#filter0_d_1_4801)">
<circle cx="586" cy="185" r="25" fill="white"/>
</g>
<path fill-rule="evenodd" clip-rule="evenodd" d="M573.091 171H582.909C583.509 171 584 171.367 584 171.818V179.182C584 179.631 583.509 180 582.909 180H573.091C572.491 180 572 179.631 572 179.182V171.818C572 171.367 572.491 171 573.091 171ZM588.091 171H597.909C598.509 171 599 171.653 599 172.454V185.545C599 186.344 598.509 187 597.909 187H588.091C587.491 187 587 186.344 587 185.545V172.454C587 171.653 587.491 171 588.091 171ZM582.909 183H573.091C572.491 183 572 183.613 572 184.364V196.637C572 197.385 572.491 198 573.091 198H582.909C583.509 198 584 197.385 584 196.637V184.364C584 183.613 583.509 183 582.909 183ZM588.091 190H597.909C598.509 190 599 190.327 599 190.727V197.273C599 197.672 598.509 198 597.909 198H588.091C587.491 198 587 197.672 587 197.273V190.727C587 190.327 587.491 190 588.091 190Z" fill="#E8E8E8"/>
<g filter="url(#filter1_d_1_4801)">
<circle cx="30" cy="70" r="30" fill="white"/>
</g>
<path fill-rule="evenodd" clip-rule="evenodd" d="M11.9254 68.7933C11.2491 68.7933 10.7257 68.2008 10.8091 67.5296C11.3335 63.3093 13.285 59.3224 16.3038 56.3035C19.3227 53.2847 23.3095 51.3333 27.5297 50.8088H27.5298C28.201 50.7254 28.7935 51.2488 28.7935 51.9252V56.5021C28.7935 57.0516 28.3967 57.5206 27.8548 57.6116C22.609 58.4924 18.4927 62.6088 17.6118 67.8547C17.5208 68.3965 17.0518 68.7933 16.5024 68.7933H11.9254ZM29.1762 62.1973H30.6771C31.2984 62.1973 31.8021 62.701 31.8021 63.3223V76.4472H28.0512V63.3223C28.0512 62.701 28.5549 62.1973 29.1762 62.1973ZM36.678 76.4472H34.0521V65.1973H36.678C37.2993 65.1973 37.803 65.701 37.803 66.3223V75.3222C37.803 75.9435 37.2993 76.4472 36.678 76.4472ZM25.8011 68.1973H23.1781C22.5568 68.1973 22.0531 68.701 22.0531 69.3223V75.3222C22.0531 75.9435 22.5568 76.4472 23.1781 76.4472H25.8011V68.1973ZM37.1683 80.1011C35.0331 81.6257 32.5293 82.4315 29.9278 82.4315C23.8062 82.4315 18.6266 78.0448 17.6117 72.0007C17.5207 71.4589 17.0517 71.062 16.5023 71.062H11.9253C11.2489 71.062 10.7255 71.6545 10.8089 72.3256V72.3257C12.0045 81.9457 20.2238 89.2001 29.9278 89.2001C34.2508 89.2001 38.3391 87.7969 41.7507 85.1423C42.2847 84.7268 42.3337 83.9374 41.8553 83.4589L38.6175 80.2212C38.2287 79.8324 37.6158 79.7816 37.1683 80.1011ZM42.5698 69.9279C42.5698 63.8063 38.1829 58.6267 32.1389 57.6118C31.597 57.5208 31.2002 57.0518 31.2001 56.5023V51.9254C31.2001 51.249 31.7927 50.7256 32.4639 50.809H32.464C42.0839 52.0046 49.3384 60.2239 49.3384 69.9279C49.3384 74.251 47.9353 78.3393 45.2808 81.7508L45.2807 81.7508C44.8652 82.2848 44.0758 82.3339 43.5974 81.8555L40.3595 78.6176C39.9707 78.2288 39.9199 77.6159 40.2394 77.1684C41.764 75.0331 42.5698 72.5294 42.5698 69.9279Z" fill="url(#paint0_linear_1_4801)"/>
<rect x="20" width="190" height="30" rx="15" fill="#4CBA70"/>
<path d="M51.921 17.732H47.021L46.055 20H44.179L48.589 10.2H50.381L54.805 20H52.901L51.921 17.732ZM51.319 16.304L49.471 12.02L47.637 16.304H51.319ZM63.137 9.612V20H61.457V19.034C61.1677 19.3887 60.8083 19.6547 60.379 19.832C59.959 20.0093 59.4923 20.098 58.979 20.098C58.2603 20.098 57.6117 19.9393 57.033 19.622C56.4637 19.3047 56.0157 18.8567 55.689 18.278C55.3623 17.69 55.199 17.018 55.199 16.262C55.199 15.506 55.3623 14.8387 55.689 14.26C56.0157 13.6813 56.4637 13.2333 57.033 12.916C57.6117 12.5987 58.2603 12.44 58.979 12.44C59.4737 12.44 59.9263 12.524 60.337 12.692C60.7477 12.86 61.0977 13.112 61.387 13.448V9.612H63.137ZM59.189 18.6C59.609 18.6 59.987 18.5067 60.323 18.32C60.659 18.124 60.925 17.8487 61.121 17.494C61.317 17.1393 61.415 16.7287 61.415 16.262C61.415 15.7953 61.317 15.3847 61.121 15.03C60.925 14.6753 60.659 14.4047 60.323 14.218C59.987 14.022 59.609 13.924 59.189 13.924C58.769 13.924 58.391 14.022 58.055 14.218C57.719 14.4047 57.453 14.6753 57.257 15.03C57.061 15.3847 56.963 15.7953 56.963 16.262C56.963 16.7287 57.061 17.1393 57.257 17.494C57.453 17.8487 57.719 18.124 58.055 18.32C58.391 18.5067 58.769 18.6 59.189 18.6ZM72.4263 12.524L69.2203 20H67.4143L64.2083 12.524H66.0283L68.3523 18.068L70.7463 12.524H72.4263ZM76.1436 12.44C77.245 12.44 78.085 12.706 78.6636 13.238C79.2516 13.7607 79.5456 14.554 79.5456 15.618V20H77.8936V19.09C77.679 19.4167 77.371 19.6687 76.9696 19.846C76.5776 20.014 76.1016 20.098 75.5416 20.098C74.9816 20.098 74.4916 20.0047 74.0716 19.818C73.6516 19.622 73.325 19.356 73.0916 19.02C72.8676 18.6747 72.7556 18.2873 72.7556 17.858C72.7556 17.186 73.003 16.6493 73.4976 16.248C74.0016 15.8373 74.7903 15.632 75.8636 15.632H77.7956V15.52C77.7956 14.9973 77.637 14.596 77.3196 14.316C77.0116 14.036 76.5496 13.896 75.9336 13.896C75.5136 13.896 75.0983 13.9613 74.6876 14.092C74.2863 14.2227 73.9456 14.4047 73.6656 14.638L72.9796 13.364C73.3716 13.0653 73.843 12.8367 74.3936 12.678C74.9443 12.5193 75.5276 12.44 76.1436 12.44ZM75.9056 18.824C76.3443 18.824 76.7316 18.726 77.0676 18.53C77.413 18.3247 77.6556 18.0353 77.7956 17.662V16.794H75.9896C74.9816 16.794 74.4776 17.1253 74.4776 17.788C74.4776 18.1053 74.6036 18.3573 74.8556 18.544C75.1076 18.7307 75.4576 18.824 75.9056 18.824ZM86.0336 12.44C86.9762 12.44 87.7322 12.7153 88.3016 13.266C88.8709 13.8167 89.1556 14.6333 89.1556 15.716V20H87.4056V15.94C87.4056 15.2867 87.2516 14.7967 86.9436 14.47C86.6356 14.134 86.1969 13.966 85.6276 13.966C84.9836 13.966 84.4749 14.162 84.1016 14.554C83.7282 14.9367 83.5416 15.492 83.5416 16.22V20H81.7916V12.524H83.4576V13.49C83.7469 13.1447 84.1109 12.8833 84.5496 12.706C84.9882 12.5287 85.4829 12.44 86.0336 12.44ZM94.8739 20.098C94.0992 20.098 93.4039 19.9347 92.7879 19.608C92.1719 19.2813 91.6912 18.8287 91.3459 18.25C91.0006 17.662 90.8279 16.9993 90.8279 16.262C90.8279 15.5247 91.0006 14.8667 91.3459 14.288C91.6912 13.7093 92.1672 13.2567 92.7739 12.93C93.3899 12.6033 94.0899 12.44 94.8739 12.44C95.6112 12.44 96.2552 12.5893 96.8059 12.888C97.3659 13.1867 97.7859 13.616 98.0659 14.176L96.7219 14.96C96.5072 14.6147 96.2366 14.358 95.9099 14.19C95.5926 14.0127 95.2426 13.924 94.8599 13.924C94.2066 13.924 93.6652 14.1387 93.2359 14.568C92.8066 14.988 92.5919 15.5527 92.5919 16.262C92.5919 16.9713 92.8019 17.5407 93.2219 17.97C93.6512 18.39 94.1972 18.6 94.8599 18.6C95.2426 18.6 95.5926 18.516 95.9099 18.348C96.2366 18.1707 96.5072 17.9093 96.7219 17.564L98.0659 18.348C97.7766 18.908 97.3519 19.342 96.7919 19.65C96.2412 19.9487 95.6019 20.098 94.8739 20.098ZM106.497 16.304C106.497 16.4253 106.488 16.598 106.469 16.822H100.603C100.706 17.3727 100.972 17.8113 101.401 18.138C101.84 18.4553 102.381 18.614 103.025 18.614C103.847 18.614 104.523 18.3433 105.055 17.802L105.993 18.88C105.657 19.2813 105.233 19.5847 104.719 19.79C104.206 19.9953 103.627 20.098 102.983 20.098C102.162 20.098 101.439 19.9347 100.813 19.608C100.188 19.2813 99.7026 18.8287 99.3573 18.25C99.0213 17.662 98.8533 16.9993 98.8533 16.262C98.8533 15.534 99.0166 14.8807 99.3433 14.302C99.6793 13.714 100.141 13.2567 100.729 12.93C101.317 12.6033 101.98 12.44 102.717 12.44C103.445 12.44 104.094 12.6033 104.663 12.93C105.242 13.2473 105.69 13.7 106.007 14.288C106.334 14.8667 106.497 15.5387 106.497 16.304ZM102.717 13.84C102.157 13.84 101.681 14.008 101.289 14.344C100.907 14.6707 100.673 15.1093 100.589 15.66H104.831C104.757 15.1187 104.528 14.68 104.145 14.344C103.763 14.008 103.287 13.84 102.717 13.84ZM115.5 9.612V20H113.82V19.034C113.531 19.3887 113.172 19.6547 112.742 19.832C112.322 20.0093 111.856 20.098 111.342 20.098C110.624 20.098 109.975 19.9393 109.396 19.622C108.827 19.3047 108.379 18.8567 108.052 18.278C107.726 17.69 107.562 17.018 107.562 16.262C107.562 15.506 107.726 14.8387 108.052 14.26C108.379 13.6813 108.827 13.2333 109.396 12.916C109.975 12.5987 110.624 12.44 111.342 12.44C111.837 12.44 112.29 12.524 112.7 12.692C113.111 12.86 113.461 13.112 113.75 13.448V9.612H115.5ZM111.552 18.6C111.972 18.6 112.35 18.5067 112.686 18.32C113.022 18.124 113.288 17.8487 113.484 17.494C113.68 17.1393 113.778 16.7287 113.778 16.262C113.778 15.7953 113.68 15.3847 113.484 15.03C113.288 14.6753 113.022 14.4047 112.686 14.218C112.35 14.022 111.972 13.924 111.552 13.924C111.132 13.924 110.754 14.022 110.418 14.218C110.082 14.4047 109.816 14.6753 109.62 15.03C109.424 15.3847 109.326 15.7953 109.326 16.262C109.326 16.7287 109.424 17.1393 109.62 17.494C109.816 17.8487 110.082 18.124 110.418 18.32C110.754 18.5067 111.132 18.6 111.552 18.6ZM128.183 17.732H123.283L122.317 20H120.441L124.851 10.2H126.643L131.067 20H129.163L128.183 17.732ZM127.581 16.304L125.733 12.02L123.899 16.304H127.581ZM136.387 12.44C137.33 12.44 138.086 12.7153 138.655 13.266C139.224 13.8167 139.509 14.6333 139.509 15.716V20H137.759V15.94C137.759 15.2867 137.605 14.7967 137.297 14.47C136.989 14.134 136.55 13.966 135.981 13.966C135.337 13.966 134.828 14.162 134.455 14.554C134.082 14.9367 133.895 15.492 133.895 16.22V20H132.145V12.524H133.811V13.49C134.1 13.1447 134.464 12.8833 134.903 12.706C135.342 12.5287 135.836 12.44 136.387 12.44ZM144.585 12.44C145.686 12.44 146.526 12.706 147.105 13.238C147.693 13.7607 147.987 14.554 147.987 15.618V20H146.335V19.09C146.12 19.4167 145.812 19.6687 145.411 19.846C145.019 20.014 144.543 20.098 143.983 20.098C143.423 20.098 142.933 20.0047 142.513 19.818C142.093 19.622 141.766 19.356 141.533 19.02C141.309 18.6747 141.197 18.2873 141.197 17.858C141.197 17.186 141.444 16.6493 141.939 16.248C142.443 15.8373 143.232 15.632 144.305 15.632H146.237V15.52C146.237 14.9973 146.078 14.596 145.761 14.316C145.453 14.036 144.991 13.896 144.375 13.896C143.955 13.896 143.54 13.9613 143.129 14.092C142.728 14.2227 142.387 14.4047 142.107 14.638L141.421 13.364C141.813 13.0653 142.284 12.8367 142.835 12.678C143.386 12.5193 143.969 12.44 144.585 12.44ZM144.347 18.824C144.786 18.824 145.173 18.726 145.509 18.53C145.854 18.3247 146.097 18.0353 146.237 17.662V16.794H144.431C143.423 16.794 142.919 17.1253 142.919 17.788C142.919 18.1053 143.045 18.3573 143.297 18.544C143.549 18.7307 143.899 18.824 144.347 18.824ZM150.233 9.612H151.983V20H150.233V9.612ZM161.28 12.524L157.78 20.602C157.453 21.414 157.057 21.9833 156.59 22.31C156.123 22.646 155.559 22.814 154.896 22.814C154.523 22.814 154.154 22.7533 153.79 22.632C153.426 22.5107 153.127 22.3427 152.894 22.128L153.594 20.84C153.762 20.9987 153.958 21.1247 154.182 21.218C154.415 21.3113 154.649 21.358 154.882 21.358C155.19 21.358 155.442 21.2787 155.638 21.12C155.843 20.9613 156.03 20.6953 156.198 20.322L156.324 20.028L153.062 12.524H154.882L157.234 18.054L159.6 12.524H161.28ZM167.073 19.594C166.867 19.762 166.615 19.888 166.317 19.972C166.027 20.056 165.719 20.098 165.393 20.098C164.571 20.098 163.937 19.8833 163.489 19.454C163.041 19.0247 162.817 18.3993 162.817 17.578V13.98H161.585V12.58H162.817V10.872H164.567V12.58H166.569V13.98H164.567V17.536C164.567 17.9 164.655 18.18 164.833 18.376C165.01 18.5627 165.267 18.656 165.603 18.656C165.995 18.656 166.321 18.5533 166.583 18.348L167.073 19.594ZM168.512 12.524H170.262V20H168.512V12.524ZM169.394 11.292C169.077 11.292 168.811 11.194 168.596 10.998C168.382 10.7927 168.274 10.5407 168.274 10.242C168.274 9.94333 168.382 9.696 168.596 9.5C168.811 9.29467 169.077 9.192 169.394 9.192C169.712 9.192 169.978 9.29 170.192 9.486C170.407 9.67267 170.514 9.91067 170.514 10.2C170.514 10.508 170.407 10.7693 170.192 10.984C169.987 11.1893 169.721 11.292 169.394 11.292ZM175.989 20.098C175.214 20.098 174.519 19.9347 173.903 19.608C173.287 19.2813 172.806 18.8287 172.461 18.25C172.116 17.662 171.943 16.9993 171.943 16.262C171.943 15.5247 172.116 14.8667 172.461 14.288C172.806 13.7093 173.282 13.2567 173.889 12.93C174.505 12.6033 175.205 12.44 175.989 12.44C176.726 12.44 177.37 12.5893 177.921 12.888C178.481 13.1867 178.901 13.616 179.181 14.176L177.837 14.96C177.622 14.6147 177.352 14.358 177.025 14.19C176.708 14.0127 176.358 13.924 175.975 13.924C175.322 13.924 174.78 14.1387 174.351 14.568C173.922 14.988 173.707 15.5527 173.707 16.262C173.707 16.9713 173.917 17.5407 174.337 17.97C174.766 18.39 175.312 18.6 175.975 18.6C176.358 18.6 176.708 18.516 177.025 18.348C177.352 18.1707 177.622 17.9093 177.837 17.564L179.181 18.348C178.892 18.908 178.467 19.342 177.907 19.65C177.356 19.9487 176.717 20.098 175.989 20.098ZM183.004 20.098C182.397 20.098 181.805 20.0187 181.226 19.86C180.647 19.7013 180.185 19.5007 179.84 19.258L180.512 17.928C180.848 18.152 181.249 18.334 181.716 18.474C182.192 18.6047 182.659 18.67 183.116 18.67C184.161 18.67 184.684 18.3947 184.684 17.844C184.684 17.5827 184.549 17.4007 184.278 17.298C184.017 17.1953 183.592 17.0973 183.004 17.004C182.388 16.9107 181.884 16.8033 181.492 16.682C181.109 16.5607 180.773 16.3507 180.484 16.052C180.204 15.744 180.064 15.3193 180.064 14.778C180.064 14.0687 180.358 13.504 180.946 13.084C181.543 12.6547 182.346 12.44 183.354 12.44C183.867 12.44 184.381 12.5007 184.894 12.622C185.407 12.734 185.827 12.888 186.154 13.084L185.482 14.414C184.847 14.0407 184.133 13.854 183.34 13.854C182.827 13.854 182.435 13.9333 182.164 14.092C181.903 14.2413 181.772 14.442 181.772 14.694C181.772 14.974 181.912 15.1747 182.192 15.296C182.481 15.408 182.925 15.5153 183.522 15.618C184.119 15.7113 184.609 15.8187 184.992 15.94C185.375 16.0613 185.701 16.2667 185.972 16.556C186.252 16.8453 186.392 17.256 186.392 17.788C186.392 18.488 186.089 19.048 185.482 19.468C184.875 19.888 184.049 20.098 183.004 20.098Z" fill="white"/>
<g filter="url(#filter2_d_1_4801)">
<circle cx="270" cy="58" r="25" fill="white"/>
</g>
<path fill-rule="evenodd" clip-rule="evenodd" d="M255.456 55.554C255.456 48.8784 260.889 43.4575 267.564 43.4575C274.228 43.4575 279.649 48.8784 279.649 55.554C279.649 55.7436 279.649 55.9328 279.638 56.1221L277.282 55.6725V55.554C277.282 50.1924 272.926 45.8248 267.564 45.8248C262.191 45.8248 257.823 50.1924 257.823 55.554C257.823 60.9162 262.167 65.2719 267.529 65.2953L268.014 67.651C267.872 67.6626 267.718 67.6626 267.564 67.6626C260.889 67.6626 255.456 62.2299 255.456 55.554ZM274.359 55.1162L271.435 54.56C268.535 54.1017 265.954 56.6242 266.381 59.6141L266.393 59.6852L266.937 62.3484C263.457 62.0404 260.723 59.105 260.723 55.554C260.723 51.7901 263.789 48.7366 267.553 48.7366C271.175 48.7366 274.145 51.5535 274.359 55.1162ZM284.999 69.7208C285.012 70.2711 284.776 70.7953 284.383 71.1754L283.151 72.4335C282.382 73.2031 281.059 73.2712 280.163 72.4335L276.194 68.4382L274.294 70.3254C273.743 70.8761 272.931 71.0725 272.184 70.8367C271.424 70.6009 270.873 69.9587 270.742 69.1854L268.724 59.2902C268.519 57.8026 269.812 56.693 271.057 56.8917L281.083 58.8055C281.895 58.9232 282.524 59.4608 282.786 60.2207C283.049 60.981 282.839 61.7937 282.288 62.3703L280.401 64.2312L284.383 68.2003C284.803 68.6067 284.999 69.1439 284.999 69.7208Z" fill="#E8E8E8"/>
<g filter="url(#filter3_d_1_4801)">
<circle cx="320" cy="129" r="25" fill="white"/>
</g>
<path fill-rule="evenodd" clip-rule="evenodd" d="M328.101 118.068C328.101 117.465 327.732 116.923 327.171 116.701C326.609 116.479 325.969 116.622 325.556 117.062C322.932 119.862 319.266 121.45 315.43 121.45H310.508C309.135 121.45 307.82 121.995 306.849 122.965C305.879 123.937 305.333 125.252 305.333 126.625V128.005C305.333 129.378 305.879 130.693 306.849 131.664C307.82 132.634 309.135 133.179 310.508 133.179H315.43C319.266 133.179 322.932 134.767 325.556 137.567C325.969 138.007 326.609 138.151 327.171 137.928C327.732 137.706 328.101 137.164 328.101 136.561V118.068ZM333.965 126.279H331.895C331.324 126.279 330.861 126.743 330.861 127.314C330.861 127.886 331.324 128.349 331.895 128.349H333.965C334.536 128.349 335 127.886 335 127.314C335 126.743 334.536 126.279 333.965 126.279ZM331.551 134.298L330.087 132.834C329.684 132.43 329.684 131.774 330.087 131.37C330.491 130.967 331.146 130.967 331.551 131.37L333.015 132.834C333.418 133.238 333.418 133.894 333.015 134.298C332.61 134.701 331.955 134.701 331.551 134.298ZM331.551 123.259L333.015 121.795C333.418 121.391 333.418 120.736 333.015 120.331C332.61 119.928 331.955 119.928 331.551 120.331L330.087 121.795C329.684 122.2 329.684 122.855 330.087 123.259C330.491 123.662 331.146 123.662 331.551 123.259ZM310.676 140.149L309.744 134.514C309.895 134.532 312.083 134.546 313.864 134.559C315.052 134.567 316.059 134.573 316.156 134.579L316.995 137.979C317.002 138.004 317.01 138.027 317.022 138.051L317.834 139.675C318.101 140.209 318.072 140.845 317.758 141.353C317.444 141.862 316.888 142.171 316.291 142.171H313.058C311.877 142.171 310.868 141.315 310.676 140.149Z" fill="#E8E8E8"/>
<g filter="url(#filter4_d_1_4801)">
<circle cx="448" cy="99" r="25" fill="white"/>
</g>
<path d="M462.472 102.633L450.242 97.3183C448.387 96.5126 447.862 94.1057 448.594 92.2212C448.845 91.5755 449.04 90.9071 449.176 90.2222C449.282 89.6851 449.738 89.2734 450.285 89.2734C450.771 89.2734 451.164 88.8799 451.164 88.3945V84.8789C451.164 84.3935 450.771 84 450.285 84H446.77C446.284 84 445.891 84.3935 445.891 84.8789V88.3945C445.891 88.8799 446.284 89.2734 446.77 89.2734C447.184 89.2734 447.504 89.6396 447.417 90.0444C446.989 92.0291 445.978 93.8454 444.483 95.2762C442.912 96.7802 440.937 97.7297 438.813 98.0231C438.524 98.0631 438.274 97.8324 438.274 97.5403C438.274 97.055 437.88 96.6614 437.395 96.6614H433.879C433.394 96.6614 433 97.055 433 97.5403V101.056C433 101.541 433.394 101.935 433.879 101.935H437.395C437.88 101.935 438.274 101.541 438.274 101.056C438.274 100.375 438.802 99.8167 439.473 99.6997C440.097 99.5911 440.708 99.4337 441.302 99.2295C443.144 98.597 445.412 99.1559 446.188 100.942L451.633 113.471C451.773 113.794 452.09 114 452.439 114C452.455 114 452.472 114 452.489 113.999C452.856 113.978 453.172 113.73 453.279 113.378L454.875 108.162C455.21 107.065 456.065 106.21 457.162 105.875L462.378 104.279C462.73 104.172 462.978 103.856 462.999 103.488C463.02 103.121 462.809 102.779 462.472 102.633Z" fill="#E8E8E8"/>
<g filter="url(#filter5_d_1_4801)">
<circle cx="193" cy="228" r="25" fill="white"/>
</g>
<path fill-rule="evenodd" clip-rule="evenodd" d="M205.824 223.138C206.583 222.38 207 221.372 207 220.299C207 219.227 206.583 218.219 205.825 217.461H205.824C205.066 216.703 204.058 216.285 202.986 216.285C201.914 216.285 200.905 216.703 200.147 217.461L199.904 217.704L205.581 223.381L205.824 223.138ZM185.801 232.365L184.777 236.929H178.877C178.393 236.929 178 237.322 178 237.806C178 238.291 178.393 238.684 178.877 238.684H185.479C185.544 238.684 185.608 238.676 185.67 238.662L185.67 238.662C185.67 238.662 185.671 238.662 185.671 238.662L190.92 237.484L185.801 232.365ZM198.663 218.945L186.762 230.846L192.439 236.523L204.34 224.622L198.663 218.945Z" fill="#E8E8E8"/>
<g filter="url(#filter6_d_1_4801)">
<circle cx="129" cy="114" r="25" fill="white"/>
</g>
<path d="M137 104V107.333H139.56L130.6 116.667L124.2 110L113 121.667L115.24 124L124.2 114.667L130.6 121.333L141.8 109.667V112.333H145V104H137Z" fill="#E8E8E8"/>
<g filter="url(#filter7_d_1_4801)">
<circle cx="110" cy="196" r="25" fill="white"/>
</g>
<path d="M122.364 186.981C122.08 186.981 121.801 186.843 121.632 186.589C121.363 186.185 121.472 185.64 121.876 185.37L123.634 184.199C124.038 183.929 124.583 184.038 124.853 184.442C125.122 184.846 125.013 185.392 124.609 185.661L122.851 186.833C122.701 186.933 122.532 186.981 122.364 186.981Z" fill="#E8E8E8"/>
<path d="M124.12 201.629C123.953 201.629 123.784 201.581 123.634 201.481L121.876 200.31C121.472 200.04 121.363 199.495 121.632 199.091C121.901 198.687 122.447 198.578 122.851 198.847L124.609 200.019C125.013 200.288 125.122 200.834 124.853 201.238C124.683 201.492 124.404 201.629 124.12 201.629Z" fill="#E8E8E8"/>
<path d="M97.6361 186.981C97.4686 186.981 97.2992 186.933 97.1493 186.833L95.3915 185.661C94.9876 185.392 94.8784 184.846 95.1477 184.442C95.417 184.038 95.9627 183.929 96.3665 184.199L98.1243 185.37C98.5282 185.64 98.6374 186.185 98.3682 186.589C98.1988 186.843 97.9201 186.981 97.6361 186.981Z" fill="#E8E8E8"/>
<path d="M95.8798 201.629C95.5958 201.629 95.3171 201.492 95.1477 201.238C94.8784 200.834 94.9876 200.288 95.3915 200.019L97.1493 198.847C97.5532 198.578 98.0989 198.687 98.3682 199.091C98.6374 199.495 98.5282 200.04 98.1243 200.31L96.3665 201.481C96.2167 201.581 96.0473 201.629 95.8798 201.629Z" fill="#E8E8E8"/>
<path d="M124.122 193.719H122.364C121.878 193.719 121.485 193.325 121.485 192.84C121.485 192.354 121.878 191.961 122.364 191.961H124.122C124.607 191.961 125.001 192.354 125.001 192.84C125.001 193.325 124.607 193.719 124.122 193.719Z" fill="#E8E8E8"/>
<path d="M97.6368 193.719H95.8789C95.3935 193.719 95 193.325 95 192.84C95 192.354 95.3935 191.961 95.8789 191.961H97.6368C98.1222 191.961 98.5157 192.354 98.5157 192.84C98.5157 193.325 98.1222 193.719 97.6368 193.719Z" fill="#E8E8E8"/>
<path d="M110 212C111.296 212 112.415 211.231 112.927 210.125H107.074C107.585 211.231 108.704 212 110 212Z" fill="#E8E8E8"/>
<path d="M109.121 204.266V197.158C107.118 196.804 105.606 195.265 105.606 193.426C105.606 192.94 105.999 192.547 106.484 192.547C106.97 192.547 107.363 192.94 107.363 193.426C107.363 194.317 108.098 195.077 109.121 195.359V182.601C108.518 182.214 107.81 182 107.07 182C105.222 182 103.645 183.335 103.324 185.136C101.208 185.755 99.7461 187.691 99.7461 189.91C99.7461 191.097 100.166 192.231 100.935 193.133C100.166 194.035 99.7461 195.169 99.7461 196.356C99.7461 198.575 101.208 200.511 103.324 201.13C103.645 202.931 105.222 204.266 107.07 204.266H109.121Z" fill="#E8E8E8"/>
<path d="M105.605 206.902C105.605 207.711 106.261 208.367 107.07 208.367H112.93C113.739 208.367 114.395 207.711 114.395 206.902V206.023H105.605V206.902Z" fill="#E8E8E8"/>
<path d="M116.676 185.136C116.355 183.335 114.778 182 112.93 182C112.19 182 111.482 182.214 110.879 182.601V189.108C112.882 189.462 114.395 191.001 114.395 192.84C114.395 193.325 114.001 193.719 113.516 193.719C113.03 193.719 112.637 193.325 112.637 192.84C112.637 191.949 111.902 191.189 110.879 190.907V204.266H112.93C114.778 204.266 116.355 202.931 116.676 201.13C118.792 200.511 120.254 198.575 120.254 196.356C120.254 195.169 119.834 194.035 119.066 193.133C119.834 192.231 120.254 191.097 120.254 189.91C120.254 187.691 118.792 185.755 116.676 185.136Z" fill="#E8E8E8"/>
<defs>
<filter id="filter0_d_1_4801" x="561" y="160" width="70" height="70" filterUnits="userSpaceOnUse" color-interpolation-filters="sRGB">
<feFlood flood-opacity="0" result="BackgroundImageFix"/>
<feColorMatrix in="SourceAlpha" type="matrix" values="0 0 0 0 0 0 0 0 0 0 0 0 0 0 0 0 0 0 127 0" result="hardAlpha"/>
<feOffset dx="10" dy="10"/>
<feGaussianBlur stdDeviation="5"/>
<feComposite in2="hardAlpha" operator="out"/>
<feColorMatrix type="matrix" values="0 0 0 0 0 0 0 0 0 0 0 0 0 0 0 0 0 0 0.1 0"/>
<feBlend mode="normal" in2="BackgroundImageFix" result="effect1_dropShadow_1_4801"/>
<feBlend mode="normal" in="SourceGraphic" in2="effect1_dropShadow_1_4801" result="shape"/>
</filter>
<filter id="filter1_d_1_4801" x="0" y="40" width="80" height="80" filterUnits="userSpaceOnUse" color-interpolation-filters="sRGB">
<feFlood flood-opacity="0" result="BackgroundImageFix"/>
<feColorMatrix in="SourceAlpha" type="matrix" values="0 0 0 0 0 0 0 0 0 0 0 0 0 0 0 0 0 0 127 0" result="hardAlpha"/>
<feOffset dx="10" dy="10"/>
<feGaussianBlur stdDeviation="5"/>
<feComposite in2="hardAlpha" operator="out"/>
<feColorMatrix type="matrix" values="0 0 0 0 0 0 0 0 0 0 0 0 0 0 0 0 0 0 0.1 0"/>
<feBlend mode="normal" in2="BackgroundImageFix" result="effect1_dropShadow_1_4801"/>
<feBlend mode="normal" in="SourceGraphic" in2="effect1_dropShadow_1_4801" result="shape"/>
</filter>
<filter id="filter2_d_1_4801" x="245" y="33" width="70" height="70" filterUnits="userSpaceOnUse" color-interpolation-filters="sRGB">
<feFlood flood-opacity="0" result="BackgroundImageFix"/>
<feColorMatrix in="SourceAlpha" type="matrix" values="0 0 0 0 0 0 0 0 0 0 0 0 0 0 0 0 0 0 127 0" result="hardAlpha"/>
<feOffset dx="10" dy="10"/>
<feGaussianBlur stdDeviation="5"/>
<feComposite in2="hardAlpha" operator="out"/>
<feColorMatrix type="matrix" values="0 0 0 0 0 0 0 0 0 0 0 0 0 0 0 0 0 0 0.1 0"/>
<feBlend mode="normal" in2="BackgroundImageFix" result="effect1_dropShadow_1_4801"/>
<feBlend mode="normal" in="SourceGraphic" in2="effect1_dropShadow_1_4801" result="shape"/>
</filter>
<filter id="filter3_d_1_4801" x="295" y="104" width="70" height="70" filterUnits="userSpaceOnUse" color-interpolation-filters="sRGB">
<feFlood flood-opacity="0" result="BackgroundImageFix"/>
<feColorMatrix in="SourceAlpha" type="matrix" values="0 0 0 0 0 0 0 0 0 0 0 0 0 0 0 0 0 0 127 0" result="hardAlpha"/>
<feOffset dx="10" dy="10"/>
<feGaussianBlur stdDeviation="5"/>
<feComposite in2="hardAlpha" operator="out"/>
<feColorMatrix type="matrix" values="0 0 0 0 0 0 0 0 0 0 0 0 0 0 0 0 0 0 0.1 0"/>
<feBlend mode="normal" in2="BackgroundImageFix" result="effect1_dropShadow_1_4801"/>
<feBlend mode="normal" in="SourceGraphic" in2="effect1_dropShadow_1_4801" result="shape"/>
</filter>
<filter id="filter4_d_1_4801" x="423" y="74" width="70" height="70" filterUnits="userSpaceOnUse" color-interpolation-filters="sRGB">
<feFlood flood-opacity="0" result="BackgroundImageFix"/>
<feColorMatrix in="SourceAlpha" type="matrix" values="0 0 0 0 0 0 0 0 0 0 0 0 0 0 0 0 0 0 127 0" result="hardAlpha"/>
<feOffset dx="10" dy="10"/>
<feGaussianBlur stdDeviation="5"/>
<feComposite in2="hardAlpha" operator="out"/>
<feColorMatrix type="matrix" values="0 0 0 0 0 0 0 0 0 0 0 0 0 0 0 0 0 0 0.1 0"/>
<feBlend mode="normal" in2="BackgroundImageFix" result="effect1_dropShadow_1_4801"/>
<feBlend mode="normal" in="SourceGraphic" in2="effect1_dropShadow_1_4801" result="shape"/>
</filter>
<filter id="filter5_d_1_4801" x="168" y="203" width="70" height="70" filterUnits="userSpaceOnUse" color-interpolation-filters="sRGB">
<feFlood flood-opacity="0" result="BackgroundImageFix"/>
<feColorMatrix in="SourceAlpha" type="matrix" values="0 0 0 0 0 0 0 0 0 0 0 0 0 0 0 0 0 0 127 0" result="hardAlpha"/>
<feOffset dx="10" dy="10"/>
<feGaussianBlur stdDeviation="5"/>
<feComposite in2="hardAlpha" operator="out"/>
<feColorMatrix type="matrix" values="0 0 0 0 0 0 0 0 0 0 0 0 0 0 0 0 0 0 0.1 0"/>
<feBlend mode="normal" in2="BackgroundImageFix" result="effect1_dropShadow_1_4801"/>
<feBlend mode="normal" in="SourceGraphic" in2="effect1_dropShadow_1_4801" result="shape"/>
</filter>
<filter id="filter6_d_1_4801" x="104" y="89" width="70" height="70" filterUnits="userSpaceOnUse" color-interpolation-filters="sRGB">
<feFlood flood-opacity="0" result="BackgroundImageFix"/>
<feColorMatrix in="SourceAlpha" type="matrix" values="0 0 0 0 0 0 0 0 0 0 0 0 0 0 0 0 0 0 127 0" result="hardAlpha"/>
<feOffset dx="10" dy="10"/>
<feGaussianBlur stdDeviation="5"/>
<feComposite in2="hardAlpha" operator="out"/>
<feColorMatrix type="matrix" values="0 0 0 0 0 0 0 0 0 0 0 0 0 0 0 0 0 0 0.1 0"/>
<feBlend mode="normal" in2="BackgroundImageFix" result="effect1_dropShadow_1_4801"/>
<feBlend mode="normal" in="SourceGraphic" in2="effect1_dropShadow_1_4801" result="shape"/>
</filter>
<filter id="filter7_d_1_4801" x="85" y="171" width="70" height="70" filterUnits="userSpaceOnUse" color-interpolation-filters="sRGB">
<feFlood flood-opacity="0" result="BackgroundImageFix"/>
<feColorMatrix in="SourceAlpha" type="matrix" values="0 0 0 0 0 0 0 0 0 0 0 0 0 0 0 0 0 0 127 0" result="hardAlpha"/>
<feOffset dx="10" dy="10"/>
<feGaussianBlur stdDeviation="5"/>
<feComposite in2="hardAlpha" operator="out"/>
<feColorMatrix type="matrix" values="0 0 0 0 0 0 0 0 0 0 0 0 0 0 0 0 0 0 0.1 0"/>
<feBlend mode="normal" in2="BackgroundImageFix" result="effect1_dropShadow_1_4801"/>
<feBlend mode="normal" in="SourceGraphic" in2="effect1_dropShadow_1_4801" result="shape"/>
</filter>
<linearGradient id="paint0_linear_1_4801" x1="48.9966" y1="50.8" x2="18.0982" y2="94.6749" gradientUnits="userSpaceOnUse">
<stop stop-color="#CEEBFF"/>
<stop offset="1" stop-color="#4899D2"/>
</linearGradient>
</defs>
</svg>
