<svg width="38" height="42" viewBox="0 0 38 42" fill="none" xmlns="http://www.w3.org/2000/svg">
    <path fill-rule="evenodd" clip-rule="evenodd" d="M21.96 5.015a1.21 1.21 0 0 0 1.21-1.21V1.21a1.21 1.21 0 0 0-2.421 0v2.593c0 .669.542 1.211 1.21 1.211zm11.23.942-2.594 2.594a1.21 1.21 0 1 1-1.712-1.712l2.594-2.594a1.21 1.21 0 0 1 1.712 1.712zm.44 8.308h2.594a1.21 1.21 0 0 1 0 2.421h-2.593a1.21 1.21 0 1 1 0-2.421zM.355 31.893a1.21 1.21 0 0 1 0-1.712 2.87 2.87 0 0 1 4.058 0l2.842 2.842a2.869 2.869 0 0 1 0 4.058 1.21 1.21 0 0 1-1.712 0L.354 31.893zm22.453.757a3 3 0 0 0-3.399-.593l-2.731 1.285c-1.88.885-2.313 3.366-.844 4.836l2.793 2.793a1.21 1.21 0 0 0 1.713 0l4.538-4.539a1.21 1.21 0 0 0 0-1.712l-2.07-2.07zM15.172 3.018c.388-.068.785.058 1.064.337l16.858 16.858a1.21 1.21 0 0 1-.34 1.952L12.807 31.55a3 3 0 0 1-3.399-.593l-3.917-3.917a3 3 0 0 1-.593-3.4l9.386-19.946a1.21 1.21 0 0 1 .888-.677z" fill="url(#nwnpuj7l1a)"/>
    <defs>
        <linearGradient id="nwnpuj7l1a" x1="37.237" y1="0" x2="3.009" y2="44.026" gradientUnits="userSpaceOnUse">
            <stop stop-color="#CEEBFF"/>
            <stop offset="1" stop-color="#4899D2"/>
        </linearGradient>
    </defs>
</svg>
