<svg width="172" height="34" viewBox="0 0 172 34" fill="none" xmlns="http://www.w3.org/2000/svg">
    <path fill-rule="evenodd" clip-rule="evenodd" d="M133.215 22.181v2.623c-2.07-.156-3.83-.968-5.313-2.435-1.668-1.655-2.471-3.622-2.471-5.995V2.667h2.594V7.88h5.19v2.592h-5.19v5.807c0 1.405.433 2.78 1.36 3.84 1.05 1.218 2.347 1.905 3.83 2.061zM86.292 7.85v2.623c-1.483.156-2.78.843-3.83 2.03-.897 1.06-1.36 2.435-1.36 3.84v8.43h-2.595v-8.462c0-2.373.803-4.34 2.472-5.995 1.513-1.53 3.243-2.341 5.313-2.466zm57.797 16.954c2.378 0 4.324-.812 5.962-2.466 1.668-1.655 2.471-3.622 2.471-5.995l.031-8.462h-2.595l-.031 8.462c0 1.904-.803 3.528-2.409 4.746-.958.749-2.163 1.124-3.368 1.124h-.03c-1.39 0-2.75-.469-3.8-1.374-1.39-1.218-2.101-2.748-2.101-4.528l.031-8.461h-2.594l-.031 8.461c0 2.373.803 4.34 2.44 5.995 1.73 1.655 3.676 2.467 6.024 2.498zm-85.723-8.493c0 2.373-.803 4.34-2.47 5.995-1.669 1.686-3.615 2.498-5.963 2.467-.772 0-1.544-.125-2.286-.312v-2.748c.71.312 1.452.468 2.286.468 1.823 0 3.367-.718 4.572-2.185a5.422 5.422 0 0 0 1.267-3.029c.154-1.873-.402-3.466-1.638-4.746a5.795 5.795 0 0 0-4.139-1.78c-1.76 0-3.244.656-4.448 1.999-.958 1.093-1.452 2.498-1.452 3.965V30.02H41.5V16.31c0-2.373.803-4.34 2.471-5.995 1.668-1.654 3.615-2.466 5.962-2.466 2.348 0 4.294.812 5.962 2.466 1.668 1.655 2.471 3.622 2.471 5.995zm4.263-1.53.402-.936c.958-2.155 3.089-3.56 5.437-3.56 2.347 0 4.479 1.405 5.436 3.56l.402.936H62.63zM76.87 16.25c0-4.964-4.294-8.93-9.36-8.368-3.861.437-6.95 3.528-7.383 7.4-.556 5.09 3.398 9.398 8.34 9.398a8.352 8.352 0 0 0 7.26-4.215H72.67a5.905 5.905 0 0 1-4.201 1.749c-2.688 0-5.066-1.843-5.746-4.465l-.216-.812h14.302c.062-.25.062-.468.062-.687zm27.956.094c0 2.373-.803 4.34-2.471 5.995-1.668 1.654-3.614 2.466-5.931 2.435-.803 0-1.545-.125-2.286-.312v-2.748c.71.312 1.452.468 2.286.468 1.792 0 3.336-.749 4.541-2.185a5.42 5.42 0 0 0 1.266-3.029c.155-1.873-.401-3.466-1.637-4.746a5.794 5.794 0 0 0-4.14-1.78c-1.76 0-3.243.656-4.447 1.999-.958 1.093-1.452 2.498-1.452 3.965V30.02H87.96V16.343c0-2.373.803-4.34 2.471-5.995C92.1 8.693 94.045 7.88 96.393 7.88s4.294.812 5.962 2.467c1.668 1.655 2.471 3.622 2.471 5.995zm4.294-1.562.402-.936c.957-2.155 3.089-3.56 5.437-3.56 2.347 0 4.479 1.405 5.436 3.56l.402.936H109.12zm14.21 1.468c0-4.964-4.294-8.93-9.36-8.368-3.861.437-6.95 3.528-7.383 7.4-.556 5.09 3.398 9.398 8.341 9.398a8.352 8.352 0 0 0 7.259-4.215h-3.058a5.906 5.906 0 0 1-4.201 1.749c-2.688 0-5.066-1.843-5.746-4.465l-.216-.812h14.302c.062-.25.062-.468.062-.687zm47.757.125-.031 8.462h-2.564l.031-8.462c0-1.811-.71-3.31-2.1-4.527-1.051-.906-2.41-1.374-3.8-1.374-1.297 0-2.533.406-3.521 1.217-1.545 1.25-2.286 2.842-2.286 4.715 0 1.592.679 3.091 1.791 4.184 1.112 1.093 2.472 1.655 4.047 1.655.803 0 1.575-.125 2.286-.437v2.748a9.175 9.175 0 0 1-2.286.28h-.031c-2.348 0-4.294-.843-5.962-2.497-1.637-1.655-2.44-3.622-2.44-5.995s.803-4.34 2.471-5.995c1.668-1.655 3.614-2.467 5.962-2.467h.031c2.348 0 4.294.843 5.962 2.498 1.637 1.655 2.44 3.622 2.44 5.995z" fill="#333"/>
    <path fill-rule="evenodd" clip-rule="evenodd" d="M11.813 11.116C11.813 4.996 16.755 0 22.87 0c6.117 0 11.06 4.965 11.06 11.116 0 6.12-4.943 11.115-11.06 11.115h-3.089a.69.69 0 0 1-.68-.687V17.36a.69.69 0 0 1 .68-.687h3.09c3.058 0 5.529-2.497 5.529-5.557 0-3.06-2.471-5.558-5.53-5.558-3.058 0-5.529 2.498-5.529 5.558V25.29c0 4.777-3.861 8.649-8.588 8.649-4.757 0-8.587-3.872-8.587-8.649 0-4.777 3.861-8.649 8.587-8.649h.649c.37 0 .68.312.68.687v4.184a.69.69 0 0 1-.68.687h-.68c-1.699 0-3.058 1.374-3.058 3.091s1.36 3.091 3.058 3.091c1.7 0 3.059-1.374 3.059-3.09v-8.65l.03-5.526z" fill="#6366F1"/>
</svg>
