<svg width="202" height="35" viewBox="0 0 202 35" fill="none" xmlns="http://www.w3.org/2000/svg">
<path d="M60.3232 28.1368H62.3967V34.9809H60.3232V28.1368ZM73.7073 31.5588L70.5027 28.3269H68.4291V34.7907H70.5027V31.3687L73.7073 34.7907H75.7809V28.3269H73.7073V31.5588ZM90.2962 34.7907H94.4434V33.2699H92.3698V32.3193H94.4434V30.6083H92.3698V29.8478H94.4434V28.3269H90.2962V34.7907ZM106.508 29.8478H107.262V34.7907H109.336V28.3269H106.508V29.8478ZM126.302 29.8478H127.056V34.7907H129.129V28.3269H126.302V29.8478H126.302ZM119.327 30.7983C119.327 30.4182 118.761 30.0379 118.384 30.0379C117.819 30.0379 117.442 30.4182 117.442 30.7983C117.442 31.1786 117.819 31.5588 118.384 31.5588C118.761 31.5588 119.327 31.1786 119.327 30.7983ZM121.023 30.7983C121.023 31.3687 121.023 31.749 120.646 32.3193L118.761 34.7907H116.499L117.442 33.2699C116.311 32.8896 115.557 31.9391 115.557 30.7983C115.557 29.4676 116.876 28.3269 118.384 28.3269C119.892 28.3269 121.023 29.4676 121.023 30.7983ZM139.497 31.1786C139.874 30.7983 140.063 30.4181 140.063 30.0379C140.063 29.0873 139.12 28.3269 137.801 28.3269C137.235 28.3269 136.67 28.3269 136.293 28.7071C136.293 28.7071 135.35 29.2774 135.35 30.228H136.858C136.858 30.0379 137.047 29.8478 137.047 29.8478C137.235 29.8478 137.424 29.6577 137.801 29.6577C138.178 29.6577 138.366 29.8478 138.366 30.0379C138.366 30.228 138.178 30.4181 137.989 30.6082C137.989 30.6082 137.801 30.6082 137.235 30.7983V31.9391C137.801 31.9391 138.178 32.1292 138.178 32.1292C138.555 32.1292 138.743 32.3193 138.743 32.6995C138.743 33.0798 138.366 33.2699 137.801 33.2699C137.424 33.2699 137.047 33.0798 137.047 32.8896C137.047 32.8896 136.858 32.6995 136.858 32.5094H135.162C135.162 33.2699 135.539 33.8402 135.539 33.8402C136.104 34.4106 136.858 34.7908 137.801 34.7908C139.309 34.7908 140.44 33.8402 140.44 32.6995C140.44 32.1292 140.063 31.5589 139.497 31.1786L139.497 31.1786ZM79.7397 31.5588C79.7397 33.2699 81.6247 34.7907 83.6983 34.7907C84.2639 34.7907 84.8294 34.7907 85.2064 34.6006V32.6995C84.8294 32.8896 84.4524 33.0797 83.8869 33.0797C82.7558 33.0797 81.8132 32.3193 81.8132 31.5588C81.8132 30.6083 82.7558 30.0379 83.8869 30.0379C84.4524 30.0379 84.8294 30.0379 85.2064 30.4182V28.517C84.8294 28.3269 84.2639 28.3269 83.6983 28.3269C81.6247 28.3269 79.7397 29.6577 79.7397 31.5588ZM53.1598 30.7983C53.1598 30.7983 52.7827 30.6082 52.2172 30.4181C52.2172 30.4181 51.6517 30.228 51.6517 30.0379C51.6517 29.8478 52.2172 29.6577 52.7827 29.8478C52.7827 29.8478 53.3483 29.8478 54.2908 30.6082L54.8564 29.0873C53.9138 28.3269 52.7827 28.3269 52.7827 28.3269H52.5942C51.2747 28.3269 50.1436 29.0873 50.1436 30.0379C50.1436 30.4181 50.1436 30.7983 50.3321 30.9885C50.8976 31.7489 51.6517 31.939 51.6517 31.939L52.7827 32.5094C52.7827 32.5094 53.3483 32.5094 53.1598 32.8896C53.1598 33.0798 52.7827 33.0798 52.4057 33.0798C52.4057 33.0798 51.8402 33.0798 50.7091 32.3193L49.9551 34.0303C51.0862 34.7908 52.2172 34.7908 52.2172 34.7908H52.5942C54.1023 34.7908 55.0449 34.0303 55.0449 32.8896C55.0449 32.5094 54.8564 32.1292 54.4793 31.5589C54.4793 31.5589 54.1023 31.1786 53.1598 30.7984L53.1598 30.7983ZM91.2387 0.380306H56.7414C56.7414 0.380306 49.7666 0.380306 49.7666 7.60456C49.7666 7.60456 49.3896 15.019 56.7414 15.019H63.5278C63.5278 15.019 64.4704 15.019 64.4704 15.7794C64.4704 15.7794 64.6589 16.9202 63.5278 16.9202H50.3321C49.9551 16.9202 50.1436 17.1102 50.1436 17.1102V22.6235C50.1436 22.6235 50.1436 22.8136 50.3321 22.8136H64.4704C64.4704 22.8136 70.8797 23.5741 71.2567 15.9695C71.2567 15.9695 71.6337 8.55512 64.4704 8.55512H57.684C57.684 8.55512 56.7414 8.74529 56.7414 7.60454C56.7414 7.60454 56.5529 6.46386 57.684 6.46386H73.5188C73.5188 6.46386 73.8959 6.46386 73.8959 6.84412V22.4334C73.8959 22.4334 73.8959 22.8136 74.2729 22.8136H80.1167C80.4937 22.8136 80.4937 22.4334 80.4937 22.4334V6.84414C80.4937 6.84414 80.3052 6.46388 80.6822 6.46388H86.526C86.526 6.46388 88.0341 6.46388 88.9766 5.32325L91.2387 0.380306H91.2387ZM157.406 22.4334V17.6806C157.406 17.3004 157.029 17.3004 157.029 17.3004H148.546C148.546 17.3004 147.603 17.4905 147.603 16.1597V0.760516C147.603 0.380306 147.415 0.380306 147.415 0.380306H141.759C141.382 0.380306 141.382 0.760516 141.382 0.760516V19.2015C141.382 19.2015 141.571 22.8136 145.53 22.8136H157.029C157.029 22.8136 157.406 22.8136 157.406 22.4334L157.406 22.4334ZM187.944 10.076L182.1 0.570355C182.1 0.380242 181.912 0.380242 181.912 0.380242H159.668C159.291 0.380242 159.291 0.760453 159.291 0.760453V19.7718C159.291 19.7718 159.479 22.8136 162.118 22.8136H177.576C177.953 22.8136 177.953 22.4334 177.953 22.4334V17.6805C177.953 17.3003 177.576 17.3003 177.576 17.3003H166.643C166.266 17.3003 166.266 16.9201 166.266 16.9201V14.6387C166.266 14.6387 166.266 14.2585 166.643 14.2585H176.634C177.011 14.2585 177.011 13.8783 177.011 13.8783V9.31556C177.011 8.93535 176.634 8.93535 176.634 8.93535H166.454C166.266 8.93535 166.266 8.74524 166.266 8.74524V6.27377C166.266 6.27377 166.266 6.08365 166.454 6.08365H178.707L184.363 15.0189C184.363 15.0189 184.928 15.7794 184.928 17.1102V22.6235C184.928 22.6235 184.928 22.8136 185.305 22.8136H190.96C191.149 22.8136 191.149 22.6235 191.149 22.6235V17.3003C191.149 17.3003 191.149 16.1596 192.091 14.8288L201.14 0.760468C201.14 0.380258 200.951 0.380258 200.951 0.380258H194.731C194.354 0.380258 194.165 0.760468 194.165 0.760468L188.321 10.076C188.133 10.2661 187.944 10.076 187.944 10.076ZM115.557 22.6235C115.557 22.6235 115.556 22.8136 115.934 22.8136H121.589C121.589 22.8136 121.777 22.8136 121.777 22.6235V10.2662C121.777 10.2662 121.777 10.0761 121.966 10.0761L128.187 19.7718C130.637 23.1939 133.465 22.8136 133.465 22.8136H138.743V0.760516C138.743 0.380306 138.366 0.380306 138.366 0.380306H132.711C132.522 0.380306 132.522 0.760516 132.522 0.760516V13.6882C132.522 13.8783 132.334 13.8783 132.334 13.8783L132.145 13.6882L125.359 3.23199C124.039 0.950629 121.777 0.380306 120.835 0.380306H115.557V22.6235L115.557 22.6235ZM102.361 14.2585C100.287 10.0761 98.2136 5.89354 98.2136 5.89354C98.2136 5.89354 96.14 10.076 94.0664 14.2585H102.361H102.361ZM113.671 22.8136H106.697C106.131 22.0532 104.434 18.6311 102.738 15.0189L101.418 17.6806C100.664 19.0113 99.7216 19.3916 98.5906 19.3916H91.4272C90.6732 21.1026 90.1077 22.4334 89.7306 22.8136H82.7558C82.7558 22.8136 89.3536 9.88595 92.9353 3.04186C94.4434 0.950598 96.3285 0.38029 98.2136 0.38029C100.099 0.38029 102.172 0.950613 103.492 3.04186C106.885 9.31558 113.671 22.8136 113.671 22.8136H113.671ZM195.673 20.5322V19.7718H196.05C196.239 19.7718 196.616 19.9619 196.616 20.152C196.616 20.5322 196.239 20.5322 196.05 20.5322H195.673ZM195.296 21.863H195.673V20.9125H196.05L196.616 21.863H196.993L196.427 20.7224C196.804 20.7224 196.993 20.5322 196.993 20.152C196.993 19.5817 196.616 19.3916 196.05 19.3916H195.296V21.863H195.296ZM197.935 20.7224C197.935 21.6729 196.993 22.4334 196.05 22.4334C195.108 22.4334 194.354 21.6729 194.354 20.7224C194.354 19.5817 195.108 18.8212 196.05 18.8212C196.993 18.8212 197.935 19.5817 197.935 20.7224ZM198.312 20.7224C198.312 19.3916 197.181 18.441 196.05 18.441C194.919 18.441 193.976 19.3916 193.976 20.7224C193.976 21.863 194.919 22.8136 196.05 22.8136C197.181 22.8136 198.312 21.863 198.312 20.7224ZM24.5063 33.0798L22.6212 32.5094L21.1131 34.7907H28.2765L29.4075 29.0873L23.5637 27.5664L24.5063 33.0797V33.0798ZM3.95872 23.5741L2.63915 33.46L1.13106 32.6995L0 34.7908H6.59787L9.23699 27.7566L3.95872 23.5741V23.5741ZM38.6445 5.5133L20.9246 7.7947C20.1706 7.7947 19.605 8.36503 19.4165 9.12545C19.4165 9.12545 31.4812 8.17487 34.4973 8.17487C37.325 7.98475 38.2675 7.41444 38.6445 5.5133ZM18.6625 11.2167H32.4237C34.3088 11.2167 35.0628 11.2167 35.8169 9.50571L19.0395 10.076L18.6625 11.2167H18.6625ZM9.04848 10.6464L8.85997 8.93533V8.55512C8.85997 8.36501 8.67146 8.36501 8.48294 8.17491C8.10594 7.9848 7.16337 7.22433 7.16337 7.22433C7.16337 7.22433 6.40933 7.9848 5.8438 8.17491C5.8438 8.36503 5.65529 8.36503 5.65529 8.55512V8.93533L5.46677 10.6464C5.46677 11.0266 5.46677 11.2167 5.65529 11.4069H5.8438C6.03231 11.597 6.22081 11.4069 6.40933 11.2167L7.16337 10.2662L6.97486 10.076C6.59786 10.076 6.40933 9.88593 6.40933 9.50567V8.9353H8.10592V9.50567C8.10592 9.88593 7.91741 10.076 7.54036 10.076L7.35188 10.2662L8.10592 11.2167C8.29443 11.4069 8.48292 11.5969 8.67145 11.4069C9.04845 11.2167 9.04845 11.0266 9.04845 10.6464H9.04848ZM40.7181 0.380306C40.7181 1.71105 39.7756 3.80229 36.9479 3.99241C26.2029 5.32325 22.4327 6.27377 20.1706 6.65402C19.4165 6.65402 18.851 7.22435 18.474 7.7947L15.8348 14.8289L18.097 12.5475H29.0305C30.9156 12.5475 32.6122 13.1179 34.1203 14.2585L37.1365 16.73H38.6445V17.1102C38.6445 17.8707 37.8905 18.6311 37.1365 18.6311V26.9961L38.2675 33.0798L36.9479 34.7908H30.9156L32.2352 32.6995L33.7433 33.0798L31.1041 27.9467L18.097 24.7148L14.8923 34.7908H7.91744L9.23701 32.5094L10.9336 33.0798L11.1221 27.7566L3.2047 20.9125L1.13107 13.308L1.6966 9.12545L0.565545 7.7947V5.32323L1.50808 5.13312L3.5817 5.51333L5.4668 4.75286L7.35191 4.94297L9.23701 4.75286L10.9336 5.51333L13.0072 5.13312L13.9498 5.32323V7.7947L12.8187 9.12545L13.9498 11.7871L16.4004 6.65402C16.9659 5.70344 17.72 4.94297 18.851 4.75288L40.7181 0.380306ZM3.95872 0.570371V3.99241H10.3681V0.570371C10.5566 0.570371 10.5566 0.380258 10.5566 0.380258C10.5566 0.190097 10.5566 0 10.3681 0C10.1795 0 10.1795 0.190113 10.1795 0.380258L10.3681 0.570371L9.80254 1.52095C9.61401 1.90116 9.0485 1.90116 8.85997 1.52095L8.48294 0.570371V0.380258C8.48294 0.190097 8.48294 0 8.29443 0C8.10592 0 8.10592 0.190113 8.10592 0.380258V0.570371L7.72888 1.52095C7.72888 1.71107 7.54036 1.71107 7.35188 1.71107H7.16335C6.97484 1.71107 6.78632 1.71107 6.78632 1.52095L6.40932 0.570371V0.380258C6.40932 0.190097 6.40932 0 6.22079 0C6.03228 0 6.03228 0.190113 6.03228 0.380258V0.570371L5.65528 1.52095C5.46675 1.90116 4.90122 1.90116 4.71271 1.52095L4.14718 0.570371L4.33571 0.380258C4.33571 0.190097 4.14718 0 4.14718 0C3.95867 0 3.95867 0.190113 3.95867 0.380258V0.570371H3.95872Z" fill="#333333"/>
</svg>
