<svg width="34" height="21" viewBox="0 0 34 21" fill="none" xmlns="http://www.w3.org/2000/svg">
<path d="M33.6887 0.308C33.4658 0.087464 33.1554 -0.0240233 32.8417 0.00434964L21.4362 1.02531C21.0255 1.06203 20.6734 1.3307 20.5329 1.71439C20.3924 2.09808 20.489 2.52759 20.7806 2.81616L23.1993 5.21007L18.311 10.0496L12.6697 4.46638C12.2548 4.05574 11.5821 4.05574 11.1671 4.46638L0.311235 15.2105C-0.103745 15.6212 -0.103745 16.287 0.311235 16.6977L4.34529 20.692C4.55274 20.8973 4.82467 21 5.09659 21C5.36851 21 5.64043 20.8973 5.84789 20.692L11.9186 14.6838L17.5599 20.2655C17.9749 20.676 18.6475 20.676 19.0624 20.2654L28.7376 10.6898L31.1562 13.085C31.4478 13.3737 31.8819 13.4696 32.2696 13.3303C32.6574 13.1913 32.9289 12.8428 32.966 12.4362L33.9957 1.14617C34.024 0.835518 33.9116 0.52847 33.6887 0.308Z" fill="#1B288C"/>
</svg>
