<svg width="32" height="28" viewBox="0 0 32 28" fill="none" xmlns="http://www.w3.org/2000/svg">
<path fill-rule="evenodd" clip-rule="evenodd" d="M19.2011 8.64516H26.5559C29.6527 8.64516 31.4592 11.0968 30.943 13.6774L29.2656 24.3871C29.0075 26.4516 27.2011 28 25.0075 28H13.6527C12.7495 28 11.8462 27.6129 11.0721 27.0968L10.0398 26.3226V10.1936C12.2333 8.90323 13.5237 6.58065 13.5237 4.12903V1.03226C13.5237 0.516129 14.0398 0 14.5559 0H15.3301C18.2979 0 20.6204 2.58065 20.1043 5.54839C19.9753 6.70968 19.7172 7.74194 19.2011 8.64516ZM5.39481 27.0967H2.03998C1.00772 27.0967 0.104492 26.1935 0.104492 25.1612V11.9999C0.104492 10.9677 1.00772 10.0645 2.03998 10.0645H5.39481C6.42707 10.0645 7.3303 10.9677 7.3303 11.9999V25.1612C7.3303 26.1935 6.42707 27.0967 5.39481 27.0967Z" fill="#1B288C"/>
</svg>
