<svg width="30" height="36" viewBox="0 0 30 36" fill="none" xmlns="http://www.w3.org/2000/svg">
<path d="M19.4841 6.03535V1.5486L28.4523 10.5221H23.9682C20.8194 10.5221 19.4841 9.18604 19.4841 6.03535ZM29.947 13.5133V29.9647C30.0629 30.7773 29.9881 31.6057 29.7286 32.3844C29.4691 33.1631 29.0321 33.8707 28.452 34.4511C27.8719 35.0315 27.1648 35.4688 26.3865 35.7285C25.6083 35.9881 24.7803 36.0629 23.9682 35.947H6.03179C5.21966 36.0629 4.39171 35.9881 3.61348 35.7285C2.83524 35.4688 2.1281 35.0315 1.54802 34.4511C0.96794 33.8707 0.530857 33.1631 0.27137 32.3844C0.0118829 31.6057 -0.062884 30.7773 0.0529889 29.9647V6.03535C-0.062884 5.22274 0.0118829 4.3943 0.27137 3.61561C0.530857 2.83691 0.96794 2.12935 1.54802 1.54893C2.1281 0.968511 2.83524 0.53117 3.61348 0.27153C4.39171 0.0118895 5.21966 -0.0629209 6.03179 0.0530203H16.4947V6.03535C16.3769 7.04584 16.4891 8.06991 16.8231 9.03083C17.157 9.99174 17.7039 10.8646 18.4229 11.584C19.1418 12.3033 20.0141 12.8506 20.9745 13.1847C21.9348 13.5188 22.9583 13.6311 23.9682 13.5133H29.947ZM21.0386 17.6012C20.9 17.4623 20.7353 17.3521 20.5541 17.2769C20.3728 17.2017 20.1785 17.163 19.9823 17.163C19.7861 17.163 19.5919 17.2017 19.4106 17.2769C19.2294 17.3521 19.0647 17.4623 18.9261 17.6012L13.3459 23.1847L11.0739 20.9313C10.7906 20.6672 10.4158 20.5233 10.0286 20.5302C9.64135 20.537 9.27189 20.694 8.99803 20.968C8.72418 21.242 8.56731 21.6117 8.56048 21.9991C8.55365 22.3866 8.69738 22.7616 8.96141 23.0451L12.2836 26.3753C12.4221 26.5144 12.5867 26.6248 12.768 26.7002C12.9493 26.7755 13.1436 26.8143 13.3399 26.8143C13.5362 26.8143 13.7305 26.7755 13.9118 26.7002C14.093 26.6248 14.2576 26.5144 14.3961 26.3753L21.0386 19.7289C21.1793 19.5898 21.291 19.4241 21.3672 19.2415C21.4435 19.0589 21.4827 18.8629 21.4827 18.665C21.4827 18.4671 21.4435 18.2712 21.3672 18.0886C21.291 17.9059 21.1793 17.7403 21.0386 17.6012V17.6012Z" fill="#1B288C"/>
</svg>
