<svg width="36" height="36" viewBox="0 0 36 36" fill="none" xmlns="http://www.w3.org/2000/svg">
<path d="M18 0C14.4399 0 10.9598 1.05568 7.99974 3.03355C5.03966 5.01141 2.73255 7.82263 1.37018 11.1117C0.00779907 14.4008 -0.348661 18.02 0.345873 21.5116C1.04041 25.0033 2.75474 28.2106 5.27208 30.7279C7.78943 33.2453 10.9967 34.9596 14.4884 35.6541C17.98 36.3487 21.5992 35.9922 24.8883 34.6298C28.1774 33.2674 30.9886 30.9603 32.9665 28.0003C34.9443 25.0402 36 21.5601 36 18C36 13.2261 34.1036 8.64773 30.7279 5.27208C27.3523 1.89642 22.7739 0 18 0V0ZM26.9645 12.5526C26.539 13.1917 26.0192 13.7627 25.4226 14.246C25.3474 14.3087 25.2872 14.3874 25.2462 14.4763C25.2052 14.5652 25.1846 14.6621 25.1858 14.76V14.8192C25.1788 16.1028 24.943 17.3748 24.4895 18.5755C24.0221 19.8358 23.3277 20.9998 22.4408 22.0097C21.2489 23.3666 19.7156 24.3798 18 24.9442C16.8727 25.3101 15.6941 25.4932 14.509 25.4866C12.6287 25.4863 10.7821 24.9887 9.15632 24.0442C9.09806 24.0111 9.0522 23.9599 9.0257 23.8983C8.9992 23.8368 8.99351 23.7682 9.00948 23.7032C9.02587 23.6391 9.06323 23.5824 9.11559 23.542C9.16796 23.5017 9.23232 23.48 9.29843 23.4805H9.74843C11.1771 23.483 12.5741 23.0591 13.7605 22.2632C13.0538 22.1478 12.3925 21.8398 11.8493 21.3731C11.3061 20.9064 10.9021 20.299 10.6816 19.6176C10.6703 19.5835 10.6683 19.547 10.6757 19.5118C10.683 19.4767 10.6996 19.4441 10.7237 19.4174C10.7477 19.3907 10.7784 19.3708 10.8126 19.3598C10.8468 19.3488 10.8833 19.3471 10.9184 19.3547C11.134 19.3953 11.3528 19.4159 11.5721 19.4163H11.655C10.9717 19.1027 10.394 18.5978 9.9917 17.9627C9.58943 17.3275 9.37988 16.5894 9.38843 15.8376C9.38867 15.8025 9.39802 15.7679 9.41556 15.7375C9.43311 15.707 9.45825 15.6815 9.48853 15.6637C9.51882 15.6458 9.55322 15.636 9.58839 15.6354C9.62356 15.6347 9.6583 15.6432 9.68922 15.66C9.96706 15.8151 10.2652 15.9307 10.575 16.0034C9.96321 15.3977 9.56967 14.6062 9.45609 13.7528C9.34251 12.8994 9.5153 12.0325 9.94737 11.2879C9.96395 11.2594 9.98718 11.2354 10.0151 11.2179C10.043 11.2004 10.0747 11.1899 10.1075 11.1874C10.1404 11.1848 10.1733 11.1902 10.2036 11.2032C10.2339 11.2162 10.2605 11.2363 10.2813 11.2618C11.1376 12.3199 12.1973 13.1955 13.3977 13.837C14.5982 14.4785 15.9151 14.8729 17.2705 14.9968H17.2895C17.3094 14.9963 17.329 14.9916 17.3471 14.9832C17.3651 14.9748 17.3813 14.9629 17.3946 14.948C17.4079 14.9332 17.418 14.9158 17.4244 14.8969C17.4308 14.878 17.4332 14.858 17.4316 14.8382C17.3789 14.3628 17.4093 13.882 17.5216 13.4171C17.6744 12.7852 17.9881 12.2037 18.4321 11.7289C18.8762 11.2541 19.4355 10.9023 20.0558 10.7076C20.4537 10.5833 20.8681 10.5195 21.285 10.5182C22.2303 10.5171 23.1434 10.8616 23.8524 11.4868C23.9442 11.569 24.0631 11.6145 24.1863 11.6147C24.2263 11.6139 24.2661 11.6083 24.3047 11.5982C24.9705 11.4296 25.6085 11.1664 26.1995 10.8166C26.2348 10.7948 26.276 10.7844 26.3174 10.787C26.3589 10.7895 26.3985 10.8048 26.4309 10.8307C26.4633 10.8566 26.4869 10.892 26.4985 10.9318C26.5101 10.9717 26.509 11.0142 26.4955 11.0534C26.2984 11.6734 25.9472 12.2333 25.4747 12.6805C25.9007 12.5801 26.3162 12.4398 26.7158 12.2613C26.755 12.2466 26.7977 12.2443 26.8383 12.2548C26.8788 12.2652 26.9151 12.2879 26.9423 12.3198C26.9695 12.3516 26.9862 12.391 26.9902 12.4327C26.9941 12.4744 26.9852 12.5162 26.9645 12.5526Z" fill="#7AACF1"/>
</svg>
