<svg width="30" height="35" viewBox="0 0 30 35" fill="none" xmlns="http://www.w3.org/2000/svg">
    <path fill-rule="evenodd" clip-rule="evenodd" d="M20.367 14.409c-1.64 1.641-3.65 2.473-5.969 2.473-2.318 0-4.326-.832-5.967-2.473-1.642-1.64-2.474-3.649-2.474-5.968 0-2.32.832-4.327 2.473-5.968S12.08 0 14.4 0c2.319 0 4.327.832 5.968 2.472 1.64 1.642 2.473 3.65 2.473 5.969 0 2.32-.832 4.327-2.473 5.968zm8.517 9.878c.141.786.237 1.531.284 2.214.047.668.071 1.364.071 2.07 0 1.83-.581 3.312-1.728 4.403-1.133 1.078-2.631 1.625-4.454 1.625H6.182c-1.822 0-3.321-.547-4.454-1.625C.582 31.882 0 30.401 0 28.571c0-.703.024-1.399.07-2.07.047-.684.143-1.429.284-2.214a17.49 17.49 0 0 1 .544-2.227c.227-.708.535-1.406.916-2.076.394-.695.859-1.3 1.38-1.799a6.08 6.08 0 0 1 1.982-1.245 6.845 6.845 0 0 1 2.531-.459c.358 0 .704.147 1.371.582.418.272.9.582 1.43.922.46.292 1.081.566 1.849.814a7.35 7.35 0 0 0 2.262.366c.75 0 1.512-.123 2.261-.366.768-.248 1.39-.522 1.85-.814.536-.344 1.017-.654 1.429-.922.668-.435 1.014-.582 1.372-.582.91 0 1.762.154 2.53.458a6.086 6.086 0 0 1 1.983 1.246c.521.498.985 1.104 1.38 1.799.381.67.69 1.368.916 2.076.219.685.402 1.434.544 2.227z" fill="url(#s56qgh118a)"/>
    <defs>
        <linearGradient id="s56qgh118a" x1="29.084" y1="0" x2="0" y2="34.901" gradientUnits="userSpaceOnUse">
            <stop stop-color="#CEEBFF"/>
            <stop offset="1" stop-color="#4899D2"/>
        </linearGradient>
    </defs>
</svg>
