<svg width="39" height="40" viewBox="0 0 39 40" fill="none" xmlns="http://www.w3.org/2000/svg">
    <path fill-rule="evenodd" clip-rule="evenodd" d="M.124 11.729 8.172.277a.674.674 0 0 1 1.09 0L17.35 11.73a.664.664 0 0 1-.545 1.049H14.79a2.017 2.017 0 0 0-2.017 2.017 9.305 9.305 0 0 0 3.173 7L17.6 23.24a17.467 17.467 0 0 1 5.93 13.072v2.017a.672.672 0 0 1-.672.673h-6.724a.672.672 0 0 1-.673-.673v-2.017a9.305 9.305 0 0 0-3.174-7l-1.654-1.446a17.362 17.362 0 0 1-5.93-13.071 2.017 2.017 0 0 0-2.018-2.018H.668a.663.663 0 0 1-.544-1.048zm21.587.855a.668.668 0 0 1-.198-.472.656.656 0 0 1 .128-.383L29.69.277a.674.674 0 0 1 1.09 0l8.088 11.452a.664.664 0 0 1-.544 1.049h-2.018a2.017 2.017 0 0 0-2.017 2.017 17.363 17.363 0 0 1-5.93 13.071l-1.655 1.446c-.926.81-2.942.532-3.442-.592a18.633 18.633 0 0 0-2.73-4.384c-.02-.027-.043-.052-.064-.077a.11.11 0 0 1 .006-.149c.295-.298.6-.59.918-.87l1.654-1.445a9.305 9.305 0 0 0 3.174-7 2.017 2.017 0 0 0-2.017-2.018h-2.017a.668.668 0 0 1-.475-.193z" fill="url(#5ccgncdd2a)"/>
    <defs>
        <linearGradient id="5ccgncdd2a" x1="38.785" y1="0" x2="7.4" y2="44.555" gradientUnits="userSpaceOnUse">
            <stop stop-color="#CEEBFF"/>
            <stop offset="1" stop-color="#4899D2"/>
        </linearGradient>
    </defs>
</svg>
