<svg width="201" height="32" viewBox="0 0 201 32" fill="none" xmlns="http://www.w3.org/2000/svg">
<path d="M44.3316 5.50085L52.9363 5.50786C57.0714 5.52342 59.6299 6.27217 61.0887 7.41089C63.2887 9.1201 64.2813 11.7026 64.275 14.577C64.2704 16.5975 63.7018 18.1558 62.9459 19.3241C62.0509 20.7017 60.7779 21.5882 59.5245 22.1206L64.9592 31.7743L58.0172 31.7603L51.1775 19.0867L52.2787 19.0921C53.9867 19.0921 55.4377 18.9575 56.3342 18.3947C57.1472 17.8577 57.8352 16.6186 57.8407 15.1685C57.8407 13.7808 57.1628 12.6763 56.2788 12.1237C55.5228 11.6489 54.463 11.3991 53.5337 11.3991L51.0424 11.396L51.0073 31.7416L44.2871 31.7385L44.3316 5.50085L44.3316 5.50085ZM91.7207 8.58376C90.8265 10.1949 89.3356 11.8022 86.6491 12.4793C87.3114 13.8375 87.7472 16.3772 87.7011 17.7665C87.5605 21.4823 84.6022 25.8558 79.7228 25.8449C75.0987 25.8347 71.8647 22.7907 71.6164 18.302C71.5 17.1781 71.4126 14.6797 71.6273 13.5464C69.671 14.6859 67.2774 13.7176 66.1856 11.8629C65.6538 12.5914 65.3039 15.802 65.2953 17.3649L65.2664 17.5128C65.2523 24.8424 71.0533 31.8676 79.5408 31.8902C87.9244 31.9003 94.0144 25.1148 94.0238 17.1517C94.0347 14.0866 93.285 10.9958 91.7207 8.58376M91.1466 1.44263C89.7573 0.489167 87.3363 1.72049 85.758 4.19248C85.7174 4.24307 85.6932 4.28511 85.6604 4.33803C85.6315 4.38162 85.5987 4.42599 85.569 4.47891C84.0336 6.86994 83.8845 9.55287 85.2293 10.476C85.7744 10.8426 86.4827 10.8636 87.2317 10.6067C88.4398 10.2822 89.7846 9.21507 90.7999 7.63583C92.386 5.16618 92.5446 2.38831 91.1466 1.44263M84.5195 4.52342C85.0279 2.36899 84.3407 0.357006 82.9771 0.0417814C81.6003 -0.272657 80.0766 1.22173 79.5659 3.37849C79.3949 4.11091 79.3558 4.81686 79.4402 5.45508C79.537 6.77125 80.1516 7.80799 81.0786 8.02048C82.0985 8.25709 83.1982 7.46474 83.8776 6.14159C84.1564 5.67147 84.3829 5.12508 84.5195 4.52342M78.5652 4.02025C78.2583 2.17482 77.0744 0.836086 75.8701 1.012C74.6323 1.17855 73.8443 2.85897 74.1106 4.76668C74.259 5.78941 74.6729 6.66425 75.2266 7.22854C75.7085 7.81852 76.3231 8.14308 76.9346 8.05669C78.1271 7.88857 78.8948 6.26808 78.634 4.42576C78.6168 4.28488 78.5902 4.16113 78.5652 4.02025M73.2904 5.44639C72.3946 4.39486 71.1404 3.95978 70.3024 4.50151C69.3692 5.11482 69.3317 6.68551 70.2126 8.0328C70.7 8.75975 71.3505 9.26179 71.9909 9.47972C72.6086 9.77393 73.2467 9.80428 73.7262 9.49374C74.6329 8.91386 74.668 7.379 73.8207 6.07685C73.6621 5.84025 73.4848 5.63631 73.2904 5.4464M70.5646 9.3593C70.2577 9.12346 69.9211 8.96313 69.5923 8.86662C68.6333 8.45099 67.636 8.55218 67.1588 9.21531C66.5567 10.0232 66.9753 11.3479 68.0819 12.166C68.7012 12.6236 69.3963 12.8174 69.9914 12.7746C70.6013 12.8174 71.1503 12.64 71.4666 12.2064C72.043 11.4227 71.6384 10.1454 70.5646 9.3593ZM27.2433 31.7008L42.148 31.7273L42.1605 25.8454L33.9729 25.8275L33.9799 21.3264L41.9246 21.3435L41.9348 15.4554L33.9924 15.4415L34.0018 11.363L42.1862 11.3809L42.2003 5.49201L27.2902 5.46555L27.2433 31.7008H27.2433ZM9.23799 17.7005L0 31.6537L7.50661 31.6732L12.9288 22.3877L18.5994 31.6903L26.2122 31.7004L17.1374 17.8578L25.1985 5.46436L17.6154 5.44647L13.2303 12.9286L8.72178 5.43167L1.11833 5.42311L9.23799 17.7005ZM96.1919 24.0609C96.3676 29.0601 100.02 31.8302 104.437 31.8395C109.345 31.8512 112.59 28.4452 112.596 24.1652C112.6 19.348 108.7 17.9509 106.202 16.9944C102.224 15.6393 99.6273 14.8516 99.6671 11.6643C99.6757 8.92852 101.847 7.16479 104.484 7.1679C107.962 7.17258 108.816 9.76287 109.13 11.4635L112.049 11.4698C111.627 6.50477 107.866 4.69438 104.594 4.69049C100.573 4.68502 96.687 7.25665 96.7518 11.901C96.7448 16.8706 101.331 18.2226 103.467 18.8694C106.518 19.8633 109.687 20.6798 109.681 24.3699C109.674 27.2723 107.145 29.3644 104.408 29.3644C102.767 29.359 99.568 28.4242 99.1462 24.071L96.1919 24.0609L96.1919 24.0609ZM114.877 31.8611L117.792 31.865L117.809 19.8864L130.512 19.902L130.492 31.8844L133.449 31.8953L133.496 5.65538L130.539 5.65384L130.52 17.3179L117.817 17.3L117.838 5.63281L114.925 5.62269L114.877 31.8611V31.8611ZM138.697 18.2862C138.704 12.2214 143.313 7.34591 149.492 7.35446C155.757 7.3638 160.302 12.3685 160.293 18.3609C160.277 24.3618 155.717 29.3424 149.492 29.3307C143.336 29.3221 138.685 24.4918 138.697 18.3243V18.2862ZM135.747 18.4255C135.73 25.9092 141.662 31.9093 149.452 31.9233C157.205 31.9335 163.194 26.0609 163.209 18.3687C163.22 10.6663 157.221 4.78441 149.503 4.77196C142.071 4.75794 135.757 10.3083 135.747 18.3928V18.4255ZM165.493 31.9561L180.081 31.9818L180.086 29.3829L168.416 29.3643L168.428 20.0118L180.028 20.0281L180.03 17.4433L168.438 17.4231L168.45 8.31114L180.122 8.33449L180.126 5.74187L165.54 5.71305L165.493 31.9561V31.9561ZM181.733 24.2159C181.897 29.2097 185.556 31.9883 189.964 32C194.877 32.0039 198.119 28.6002 198.124 24.3225C198.131 19.5008 194.228 18.1068 191.735 17.1502C187.756 15.792 185.158 15.0051 185.201 11.8163C185.204 9.07811 187.372 7.3214 190.008 7.3214C193.494 7.32998 194.35 9.9187 194.663 11.6194H197.586C197.163 6.6567 193.395 4.84863 190.117 4.84397C186.106 4.84008 182.219 7.41403 182.28 12.0568C182.273 17.0202 186.867 18.3792 188.998 19.0174C192.05 20.0152 195.215 20.8286 195.215 24.5249C195.213 27.4296 192.677 29.5194 189.939 29.5117C188.305 29.5117 185.094 28.5831 184.68 24.2237L181.733 24.2159V24.2159ZM199.55 4.41495C199.669 4.41495 199.982 4.42272 199.982 4.7325C199.982 5.06096 199.621 5.05394 199.507 5.05706L199.083 5.06095V4.41494H199.55V4.41495ZM198.872 4.25072L198.869 5.95292H199.083V5.22206L199.503 5.21974C199.911 5.22206 199.931 5.37463 199.953 5.5622C199.961 5.79569 199.977 5.90543 200 5.95291H200.208C200.166 5.88365 200.175 5.8564 200.152 5.52406C200.143 5.32168 200.073 5.19404 199.878 5.13722C200.108 5.0376 200.185 4.89282 200.185 4.71537C200.19 4.30129 199.766 4.25927 199.586 4.25927L198.872 4.25071V4.25072ZM199.525 3.78293C200.267 3.78293 200.822 4.39003 200.822 5.10454C200.816 5.84708 200.236 6.4246 199.507 6.4246C198.764 6.4246 198.195 5.83696 198.205 5.09832C198.205 4.3768 198.76 3.77438 199.507 3.78293H199.525ZM199.525 3.6117C198.657 3.60547 198.017 4.29663 198.015 5.10222C198.015 5.94126 198.68 6.58959 199.507 6.58959C200.337 6.58959 201.008 5.94202 201 5.10454C200.998 4.28963 200.364 3.6117 199.525 3.6117Z" fill="#333333"/>
</svg>
