<svg width="223" height="204" viewBox="0 0 223 204" fill="none" xmlns="http://www.w3.org/2000/svg">
<path d="M106.998 105.496H11.2426V59.0489L15.5332 32.4198L42.5709 9.67279H78.6665L104.41 35.4846L106.998 105.496Z" fill="#EBF8FC"/>
<path fill-rule="evenodd" clip-rule="evenodd" d="M14.0315 103.668H123.839L124.233 189.789H14.5309L14.0315 103.668Z" fill="#D7E5E9"/>
<path d="M101.969 162.538C78.5233 163.192 79.7965 176.537 63.751 174.75C49.5695 173.174 16.5849 183.613 10.3665 183.613L8.79077 188.734L102.166 188.537L101.969 162.531V162.538Z" fill="white"/>
<path d="M53.3258 156.313C53.1499 156.221 52.8967 156.341 52.7138 156.397C52.5027 156.467 52.2214 156.397 52.0033 156.397C51.729 156.397 51.4828 156.327 51.2225 156.221C50.8215 156.059 50.4909 155.673 50.111 155.433C49.7312 155.194 49.3021 155.187 48.887 155.342C48.5001 155.483 48.1133 155.75 47.7334 155.947C47.1355 156.256 46.5516 156.207 46.0381 155.785C45.6723 155.483 45.3839 155.061 44.9829 154.807C44.6031 154.568 44.181 154.526 43.766 154.624C42.8726 154.828 42.2043 155.82 41.3602 156.165C40.4879 156.517 39.8548 155.405 39.0669 155.18C38.6167 155.054 38.1806 155.208 37.7374 155.391C37.456 155.447 37.1817 155.525 36.9074 155.609C36.5134 155.729 36.0843 155.862 35.7326 156.193C35.198 156.7 35.2402 157.607 35.7959 157.938C36.4572 158.332 37.1958 157.375 37.8289 157.15C38.3424 156.96 38.7996 157.354 39.2006 157.684C39.5664 157.98 39.9533 158.191 40.3824 158.282C41.2687 158.472 42.134 157.684 42.9429 157.192C43.2806 156.988 43.6042 156.847 43.9489 156.988C44.181 157.079 44.378 157.29 44.589 157.452C45.0181 157.776 45.4472 158.113 45.9326 158.268C46.7486 158.521 47.4801 157.867 48.1836 157.262C48.5916 156.911 49.077 156.531 49.5553 156.615C50.0759 156.707 50.4979 157.241 50.9974 157.438C51.5742 157.67 52.2495 157.811 52.8545 157.523C53.0936 157.41 53.769 156.545 53.3328 156.327L53.3258 156.313Z" fill="white"/>
<path d="M34.0233 127.564C33.8896 127.493 33.7559 127.592 33.6434 127.676C33.3761 127.88 33.144 128.056 32.8133 127.965C32.335 127.831 31.9974 127.296 31.5049 127.219C31.2306 127.177 30.9703 127.367 30.7241 127.472C30.5271 127.557 30.3513 127.739 30.1754 127.88C29.9714 128.049 29.7252 128.211 29.4931 128.049C29.2961 127.915 29.1484 127.662 28.9796 127.472C28.656 127.099 28.2761 127.156 27.9103 127.367C27.6149 127.535 27.3757 127.817 27.0943 128.007C26.7989 128.211 26.4331 128.52 26.1025 128.281C25.8774 128.119 25.7226 127.852 25.4835 127.711C25.2724 127.585 25.1177 127.507 24.8855 127.528C24.5408 127.571 24.2172 127.796 23.9218 128.042C23.753 128.07 23.5841 128.091 23.4223 128.168C23.2465 128.253 23.0425 128.506 23.2043 128.759C23.3872 129.034 23.7248 128.844 23.9359 128.731C24.3298 128.506 24.6886 128.211 25.1317 128.26C25.4412 128.295 25.7015 128.534 25.9758 128.717C26.1939 128.865 26.4261 128.97 26.6723 128.999C27.1436 129.048 27.5445 128.548 27.9385 128.288C28.1917 128.119 28.4872 128.014 28.7545 128.183C28.9796 128.323 29.1484 128.619 29.3665 128.788C29.7182 129.062 30.084 128.858 30.4287 128.661C30.6397 128.534 30.8226 128.323 31.0266 128.183C31.3291 127.979 31.6316 128.035 31.927 128.246C32.0958 128.372 32.2506 128.548 32.4194 128.682C32.6023 128.823 32.7993 128.858 33.0033 128.837C33.2917 128.802 33.6434 128.541 33.8685 128.309C33.9811 128.197 34.3187 127.704 34.0373 127.564H34.0233Z" fill="white"/>
<path d="M83.5105 147.928C83.3839 147.942 83.2572 147.963 83.1306 147.991C82.8 148.048 82.5257 147.865 82.2584 147.696C81.4424 147.182 80.6334 146.584 79.6204 146.831C79.2195 146.929 78.8326 147.196 78.5442 147.478C78.1573 147.872 77.8407 148.463 77.1935 148.301C76.7433 148.188 76.2861 147.837 75.8851 147.604C75.5334 147.4 75.1606 147.21 74.7526 147.154C74.3516 147.105 73.9296 147.07 73.5427 147.21C73.2331 147.323 73.0151 147.597 72.8111 147.836C72.4805 148.23 72.1428 148.688 71.6293 148.821C71.1017 148.955 70.5601 148.406 70.1943 148.118C69.8566 147.851 69.5612 147.555 69.1391 147.429C68.7874 147.323 68.4075 147.421 68.0839 147.562C67.3875 147.865 66.8459 148.448 66.2831 148.955C66.1846 149.011 66.0791 149.075 65.9736 149.131C65.6993 149.279 65.3968 149.398 65.2139 149.658C65.0943 149.834 65.1928 150.073 65.3124 150.214C65.5164 150.453 65.8048 150.481 66.1002 150.46C66.8599 150.397 67.4508 149.841 68.0769 149.461C68.5341 149.187 69.0688 149.082 69.5823 149.25C70.0043 149.391 70.3561 149.722 70.7289 149.947C71.3057 150.291 72.0373 150.263 72.5649 149.841C72.8674 149.595 73.1347 149.307 73.5075 149.166C74.0632 148.955 74.436 149.032 74.9355 149.335C75.6952 149.792 76.4338 150.073 77.3131 149.771C78.3402 149.412 79.1069 148.519 80.2606 148.512C81.2313 148.505 81.9277 149.56 82.9126 149.215C83.2432 149.103 83.5668 148.962 83.827 148.723C83.9677 148.596 84.1155 148.252 83.9818 148.069C83.8622 147.907 83.6793 147.907 83.4964 147.921L83.5105 147.928Z" fill="white"/>
<path d="M53.8677 139.142L54.6485 138.192C55.2887 137.412 56.2243 136.94 57.2302 136.877L81.6679 135.484C81.9915 135.463 82.2095 135.794 82.0759 136.089L80.6479 139.142" fill="white"/>
<path d="M54.1419 139.367L53.6002 138.924L54.381 137.974C55.0845 137.123 56.1115 136.596 57.2159 136.532L81.6536 135.14C81.9279 135.133 82.1882 135.252 82.343 135.477C82.4977 135.702 82.5188 135.991 82.4063 136.237L80.9783 139.29L80.3382 138.994L81.7661 135.941C81.7661 135.941 81.7661 135.885 81.7661 135.871C81.7521 135.857 81.738 135.829 81.7028 135.836L57.2652 137.229C56.3577 137.285 55.5136 137.721 54.9368 138.418L54.1559 139.367H54.1419Z" fill="#4A4A4A"/>
<path d="M55.8934 132.347L55.9778 132.22C64.9889 118.637 68.7946 102.669 69.2167 100.812C68.6117 106.151 69.8779 133.451 70.3 133.437C70.4125 133.437 55.8934 132.347 55.8934 132.347V132.347Z" fill="#FAB768"/>
<path d="M70.3 133.789C70.3 133.789 70.2719 133.789 70.2578 133.789C69.9975 133.761 60.7331 133.065 55.8723 132.706C55.7457 132.699 55.6402 132.621 55.5839 132.509C55.5276 132.396 55.5347 132.263 55.605 132.157L55.6894 132.03C64.6795 118.489 68.471 102.514 68.879 100.735C68.9212 100.552 69.0971 100.432 69.28 100.467C69.4629 100.496 69.5895 100.671 69.5684 100.854C68.9845 106.018 70.1734 131.468 70.5814 133.219C70.6517 133.276 70.6517 133.346 70.6517 133.451C70.6517 133.641 70.4969 133.789 70.3141 133.796H70.3V133.789ZM56.5195 132.045L68.0771 132.917C68.9072 132.98 69.4699 133.022 69.8568 133.065C69.2448 129.505 68.6961 111.821 68.7594 104.055C67.2048 109.696 63.3992 121.549 56.5265 132.052L56.5195 132.045Z" fill="#4A4A4A"/>
<path d="M70.476 106.946L79.1705 136.842L68.4922 135.245C70.7644 129.273 71.3342 111.898 70.476 106.946Z" fill="#7FB0A1"/>
<path d="M79.1634 137.187C79.1634 137.187 79.1282 137.187 79.1141 137.187L68.4358 135.59C68.3303 135.576 68.2389 135.512 68.1826 135.421C68.1263 135.329 68.1193 135.217 68.1545 135.118C70.4477 129.09 70.9612 111.828 70.1171 107.009C70.0819 106.826 70.2015 106.651 70.3844 106.608C70.5673 106.566 70.7502 106.672 70.7994 106.855L79.494 136.75C79.5292 136.863 79.494 136.99 79.4237 137.081C79.3533 137.158 79.2619 137.201 79.1563 137.201L79.1634 137.187ZM68.9634 134.957L78.671 136.406L71.1371 110.491C71.4255 117.371 70.7713 129.667 68.9634 134.957V134.957Z" fill="#4B4A4B"/>
<path d="M61.3803 98.3921C61.3311 98.5047 61.2959 98.6032 61.2818 98.6876C61.2818 98.6876 66.4662 95.6769 67.5988 96.2115C67.5988 96.2115 66.8531 93.862 67.7606 92.6873L68.8157 95.5432L73.0364 93.1727C73.0364 93.1727 72.1993 88.8888 73.2052 89.2194C74.2112 89.55 74.7036 91.9276 74.7036 91.9276C74.7036 91.9276 82.8284 87.5382 83.6725 84.7033C83.6725 84.7033 83.6866 83.2472 84.1649 83.2754C84.0946 84.4782 84.6292 85.6178 85.6211 86.1243C86.6622 86.6518 87.9002 86.3283 88.7444 85.4208C88.7514 85.4912 88.7655 85.5615 88.7866 85.6319C88.9202 86.0328 89.2157 86.4408 89.6307 86.4971C89.7362 86.5112 89.8206 86.4971 89.891 86.476C90.6999 94.2067 93.2394 102.17 93.8443 104.793C94.6674 108.339 98.1072 118.398 99.8236 123.547C101.153 127.535 105.585 135.97 107.604 140.725C109.616 145.48 112.211 147.049 112.028 148.216C111.845 149.384 111.824 149.602 111.824 149.602L124.001 148.659C123.684 147.203 121.961 147.555 119.119 146.795C116.284 146.043 114.983 145.199 113.217 143.714C111.452 142.223 107.597 133.74 105.922 129.864C104.431 126.417 102.089 121.739 101.048 118.377C100.112 115.352 98.9373 112.109 98.0158 109.478C97.0942 106.84 96.018 103.569 95.1316 100.172C94.5056 97.752 93.169 91.2523 92.4515 87.7211C92.3038 88.1713 92.1561 88.4386 92.1561 88.4386C92.1561 88.4386 92.142 88.326 92.1209 88.1431C92.1068 87.9602 92.0857 87.6929 92.0646 87.3904C92.0505 87.1935 92.0365 86.9684 92.0224 86.7292C92.2545 86.7714 92.4937 86.7855 92.7329 86.7714C93.3871 86.7222 93.978 86.4408 94.4563 86.0047C95.1809 86.3423 95.624 86.4549 95.624 86.4549C95.9265 84.7244 96.6089 87.0035 96.6089 87.0035C97.9876 89.3741 104.853 90.6614 104.853 90.6614C104.853 90.6614 104.537 88.2557 105.142 87.5944C105.747 86.9332 106.359 91.2523 106.359 91.2523L109.953 92.005L109.89 88.9521C110.847 89.7329 110.98 92.2019 110.98 92.2019C111.62 91.3086 116.059 92.3285 116.059 92.3285C116.031 92.2582 115.975 92.1738 115.911 92.0894C115.503 89.0294 112.823 85.8148 112.823 85.8148C110.396 85.7163 112.12 83.8381 112.12 83.8381C111.381 82.3328 109.025 80.328 109.025 80.328C107.477 81.1651 107.836 78.9633 107.836 78.9633C107.758 78.8367 107.639 78.7101 107.477 78.5835C109.967 77.9996 112.148 77.2469 112.148 77.2469C112.148 77.2469 110.861 75.2211 111.339 74.2362C111.817 73.2514 114.174 76.8671 114.174 76.8671L118.753 75.3688L117.529 72.5832C118.964 72.7239 120.062 74.9186 120.062 74.9186C120.484 73.7016 126.168 71.929 126.168 71.929C126.104 71.8868 126.006 71.8446 125.893 71.8024C124.254 69.2278 119.844 67.8913 119.844 67.8913C116.91 69.2841 118.261 66.4985 118.261 66.4985C116.812 65.5629 113.245 65.1479 113.245 65.1479C111.712 66.8643 111.311 64.6133 111.311 64.6133C110.206 64.0717 105.514 65.1268 105.24 65.4011C103.643 66.9628 103.643 65.8091 103.7 65.3097C104.312 64.6063 104.706 64.1209 104.706 64.1209C104.706 64.1209 102.968 63.2627 102.898 62.3482C102.827 61.4338 105.979 62.9391 105.979 62.9391L108.589 59.7948L106.584 58.3668C107.653 57.8111 109.327 58.8803 109.327 58.8803C109.13 57.8252 112.408 53.9844 112.408 53.9844C112.345 53.9844 112.261 53.9915 112.162 54.0126C109.953 52.9222 106.288 53.9704 106.288 53.9704C104.79 56.2917 104.6 53.696 104.6 53.696C103.193 53.696 100.513 55.0044 100.513 55.0044C100.14 56.9248 98.9302 55.4968 98.9302 55.4968C97.9314 55.6094 95.0543 58.4864 94.9698 58.81C94.3719 61.075 93.788 59.2883 93.788 59.2883C92.2616 60.6389 90.0879 64.6696 89.7925 65.2182C89.5814 64.4304 89.3141 63.6637 88.9835 62.9462C88.9835 62.9462 87.5133 62.2146 87.3164 63.2416C87.3164 63.2416 84.7629 58.8873 83.0957 57.5368C83.0957 57.5368 82.6103 59.3094 81.9209 57.1147C81.8224 56.8052 78.875 54.097 77.8972 54.0196C77.8972 54.0196 76.7858 55.4546 76.3285 53.5975C76.3285 53.5975 73.6484 52.4087 72.2697 52.465C72.2697 52.465 72.2064 55.0114 70.6306 52.7956C70.6306 52.7956 67.0079 51.9023 64.8976 53.0489C64.8061 53.0348 64.7217 53.0207 64.6584 53.0278C64.6584 53.0278 68.049 56.6575 67.9013 57.6986C67.9013 57.6986 69.484 56.5942 70.5532 57.0936L68.661 58.5567L71.3622 61.5323C71.3622 61.5323 74.3589 59.9495 74.3378 60.8429C74.3167 61.7363 72.6566 62.6437 72.6566 62.6437C72.6566 62.6437 74.6262 64.8876 76.6662 66.597C76.5255 66.8502 76.1808 66.8713 75.3789 65.9428C75.1468 65.6755 71.0386 64.3319 70.0186 64.7188C70.0186 64.7188 69.5192 66.6955 68.26 65.0283C68.26 65.0283 65.0594 65.0916 63.7087 65.8021C63.7087 65.8021 64.7287 68.4048 62.2104 66.9065C62.2104 66.9065 58.1937 67.7154 56.5688 69.8679C56.4633 69.8961 56.3788 69.9242 56.3155 69.9594C56.3155 69.9594 61.2678 72.0275 61.5632 73.1459C61.5632 73.1459 62.6817 71.2818 63.969 71.2818L62.6958 73.6524L66.6773 75.3828C66.6773 75.3828 69.0127 72.3651 69.3715 73.2796C69.7302 74.194 68.457 75.8893 68.457 75.8893C68.457 75.8893 70.4407 76.7897 72.6917 77.5354C72.9942 77.9011 73.0716 78.3935 71.3903 78.4709C71.0105 78.492 67.0079 81.2565 66.614 82.4594C66.614 82.4594 67.8802 84.3305 65.6362 84.2813C65.6362 84.2813 63.4344 87.2357 63.0616 88.9732C63.0616 88.9732 65.9176 89.9087 62.9138 91.1257C62.9138 91.1257 60.7472 95.3533 61.3733 98.3781L61.3803 98.3921ZM91.2979 86.5885C91.2838 86.5463 91.2767 86.5041 91.2627 86.4619C91.333 86.4971 91.3963 86.5323 91.4667 86.5604C91.4245 86.7574 91.3893 86.8769 91.3893 86.8769C91.3893 86.8769 91.3541 86.7714 91.2979 86.5956V86.5885Z" fill="#5C7965"/>
<path d="M44.7649 116.632C42.9148 115.88 44.6734 115.303 44.6734 115.303C44.4413 114.234 43.0907 112.419 43.0907 112.419C41.7049 112.454 42.4857 111.3 42.4857 111.3C42.2395 110.562 39.7774 108.852 39.5453 108.845C38.5112 108.796 38.5605 108.494 38.7434 108.268C40.1291 107.811 41.3461 107.255 41.3461 107.255C41.3461 107.255 40.5583 106.214 40.7834 105.645C41.0085 105.082 42.4435 106.939 42.4435 106.939L44.8915 105.877L44.1107 104.414C44.9055 104.414 45.5949 105.56 45.5949 105.56C45.7778 104.871 48.8308 103.598 48.8308 103.598C48.7956 103.577 48.7393 103.555 48.676 103.541C47.6771 102.212 45.201 101.719 45.201 101.719C43.6464 102.641 44.2795 101.037 44.2795 101.037C43.4424 100.601 41.4727 100.559 41.4727 100.559C40.6989 101.586 40.3894 100.369 40.3894 100.369C39.7634 100.13 37.231 100.96 37.0903 101.122C36.5979 101.691 36.3868 101.684 36.2954 101.523C37.5546 100.467 38.7645 99.0886 38.7645 99.0886C38.7645 99.0886 37.7445 98.5329 37.7304 97.9772C37.7163 97.4215 39.5664 98.3993 39.5664 98.3993L41.2265 96.5704L40.0588 95.67C40.7201 95.3604 41.6908 96.0428 41.6908 96.0428C41.5993 95.4027 43.6886 93.1657 43.6886 93.1657C43.6534 93.1657 43.5971 93.1657 43.5409 93.1798C42.2395 92.4764 40.0096 93.0251 40.0096 93.0251C39.0459 94.3897 39.0037 92.8211 39.0037 92.8211C38.1595 92.7859 36.5064 93.5175 36.5064 93.5175C36.225 94.6641 35.5427 93.7777 35.5427 93.7777C34.9377 93.827 33.1228 95.4941 33.0666 95.684C32.6375 97.0346 32.342 95.9443 32.342 95.9443C31.315 96.7814 29.7463 99.4615 29.7463 99.4615C29.6267 98.8284 28.7193 99.2786 28.7193 99.2786C28.5153 99.7217 28.3535 100.193 28.2198 100.678C28.0369 100.341 26.7004 97.8576 25.7578 97.0276C25.7578 97.0276 25.399 98.132 25.0262 96.7321C24.9769 96.5352 23.2043 94.7625 22.5852 94.6922C22.5852 94.6922 21.8396 95.5715 21.6074 94.3897C21.6074 94.3897 19.9544 93.5808 19.0891 93.5808C19.0891 93.5808 18.9695 95.1776 18.048 93.7496C18.048 93.7496 15.797 93.1024 14.4323 93.7777C14.376 93.7637 14.3197 93.7566 14.2846 93.7566C14.2846 93.7566 16.3035 96.1201 16.1839 96.7743C16.1839 96.7743 17.2109 96.1131 17.8721 96.4578L16.6341 97.3371L18.245 99.2715C18.245 99.2715 20.1795 98.343 20.1372 98.9058C20.095 99.4685 19.0258 99.9961 19.0258 99.9961C19.0258 99.9961 19.265 100.292 19.6448 100.728C19.68 101.037 19.68 101.748 18.6952 100.784C18.5263 100.615 15.6352 99.9679 14.9529 100.299C14.9529 100.299 14.7066 101.691 13.764 100.629C13.764 100.629 11.5693 100.882 10.6759 101.459C10.6759 101.459 11.506 103.176 9.69812 102.317C9.69812 102.317 6.97577 103.14 5.96985 104.723C5.8995 104.751 5.84323 104.772 5.80103 104.801C5.80103 104.801 9.30419 105.891 9.56446 106.644C9.56446 106.644 10.2398 105.286 11.1261 105.201L10.3734 106.918L13.1942 107.839C13.1942 107.839 14.6433 105.617 14.9388 106.214C15.2342 106.812 14.4393 108.064 14.4393 108.064C14.4393 108.064 15.7759 108.529 17.3164 108.887C17.2179 108.965 17.1476 109.042 17.0984 109.12C17.0984 109.12 17.3235 110.477 16.3668 109.964C16.3668 109.964 14.9177 111.202 14.4604 112.123C14.4604 112.123 15.5226 113.277 14.0313 113.34C14.0313 113.34 12.3782 115.324 12.132 117.202C12.0898 117.258 12.0547 117.308 12.0406 117.35C12.0406 117.35 14.777 116.724 15.1639 117.272C15.1639 117.272 15.2483 115.753 15.8392 115.268L15.797 117.146L18.0128 116.681C18.0128 116.681 18.3857 114.023 18.7655 114.431C19.1383 114.838 18.9414 116.316 18.9414 116.316C18.9414 116.316 23.1691 115.521 24.0132 114.065C24.0132 114.065 24.4353 112.665 24.6182 113.727C24.6182 113.727 24.8925 113.657 25.3357 113.446C25.6311 113.713 25.9969 113.882 26.3979 113.917C26.5456 113.931 26.6933 113.917 26.834 113.896L26.8059 114.304C26.7918 114.494 26.7778 114.656 26.7707 114.768C26.7637 114.881 26.7496 114.951 26.7496 114.951C26.7496 114.951 26.6582 114.789 26.5667 114.508C26.1236 116.681 25.3076 120.684 24.9207 122.175C24.379 124.264 23.7178 126.283 23.148 127.908C22.5782 129.533 21.8536 131.524 21.2768 133.388C20.6367 135.456 19.1946 138.333 18.2731 140.458C17.2391 142.842 14.8684 148.069 13.7781 148.983C12.6948 149.898 11.8929 150.418 10.1483 150.882C8.40377 151.347 7.34157 151.129 7.14461 152.029L14.6433 152.606C14.6433 152.606 14.6293 152.472 14.5167 151.755C14.4042 151.037 16.001 150.066 17.2391 147.14C18.4771 144.214 21.2135 139.015 22.0295 136.561C23.0847 133.388 25.202 127.198 25.7085 125.017C26.0813 123.406 27.643 118.503 28.1425 113.741C28.1847 113.755 28.2409 113.762 28.3042 113.755C28.5645 113.72 28.7474 113.467 28.8248 113.221C28.8389 113.178 28.8459 113.136 28.8529 113.087C29.3735 113.643 30.1332 113.847 30.7733 113.523C31.3853 113.214 31.7159 112.51 31.6737 111.772C31.9692 111.75 31.9762 112.651 31.9762 112.651C32.4968 114.395 37.4983 117.104 37.4983 117.104C37.4983 117.104 37.8007 115.64 38.4198 115.436C39.0388 115.232 38.5253 117.87 38.5253 117.87L41.128 119.333L41.7752 117.575C42.338 118.299 41.8737 119.741 41.8737 119.741C42.5701 119.411 45.7638 121.268 45.7638 121.268C45.7567 121.219 45.7356 121.155 45.7004 121.085C46.0873 119.228 44.7508 116.618 44.7508 116.618L44.7649 116.632ZM27.235 114.001C27.235 114.001 27.2139 113.931 27.1858 113.804C27.228 113.79 27.2702 113.769 27.3124 113.748L27.2913 113.826C27.2561 113.938 27.235 114.001 27.235 114.001V114.001Z" fill="#5C7965"/>
<path d="M222.782 190H0.21791C0.0958802 190 0 189.78 0 189.5C0 189.22 0.0958802 189 0.21791 189H222.782C222.904 189 223 189.22 223 189.5C223 189.78 222.904 190 222.782 190Z" fill="#4A4A4A"/>
<path d="M14.4436 188.857H6.4071C6.33902 149.333 6.20285 67.0442 6.20285 54.077C6.20285 37.868 21.7989 4.70093 58.7799 4.70093C88.3647 4.70093 103.888 25.541 107.952 35.9611L105.84 52.783C103.616 39.1393 91.0889 11.8519 58.7799 11.8519C26.4709 11.8519 15.7602 40.002 14.4436 54.077V188.857Z" fill="white"/>
<path fill-rule="evenodd" clip-rule="evenodd" d="M112.197 188.502C112.197 188.699 112.352 188.854 112.549 188.854C112.746 188.854 112.901 188.699 112.901 188.502V57.551C112.901 28.0701 88.9201 4.09009 59.4387 4.09009C29.9573 4.09009 5.97687 28.0701 5.97687 57.551V188.502C5.97687 188.699 6.13163 188.854 6.32859 188.854C6.52555 188.854 6.68031 188.699 6.68031 188.502V57.551C6.68031 28.464 30.3512 4.79352 59.4387 4.79352C88.5262 4.79352 112.197 28.457 112.197 57.551V188.502ZM104.726 188.502C104.726 188.699 104.881 188.854 105.078 188.854V188.847C105.275 188.847 105.43 188.692 105.43 188.495V57.136C105.43 31.925 84.9175 11.4129 59.706 11.4129C34.4945 11.4129 13.982 31.925 13.982 57.136V188.495C13.982 188.692 14.1368 188.847 14.3338 188.847C14.5307 188.847 14.6855 188.692 14.6855 188.495V57.136C14.6855 32.3119 34.8814 12.1163 59.706 12.1163C84.5306 12.1163 104.726 32.3119 104.726 57.136V188.502Z" fill="#4A4A4A"/>
<path d="M181.212 202.866V55.7784C181.212 17.7437 159.982 -4.87865 136.888 2.00092C116.622 8.03638 101.927 32.5299 101.927 57.347V188.706" fill="#E9E6E2"/>
<path d="M176.351 202.866V55.7784C176.351 17.7437 156.423 -4.87865 134.742 2.00092C115.721 8.03638 101.927 32.5299 101.927 57.347V188.706L176.351 202.859V202.866Z" fill="white"/>
<path d="M176.351 203.218C176.351 203.218 176.309 203.218 176.288 203.218L101.863 189.065C101.695 189.037 101.575 188.889 101.575 188.72V57.347C101.575 31.5803 115.792 7.64244 134.637 1.66326C142.635 -0.876136 150.521 0.460386 157.443 5.53214C169.507 14.3602 176.703 33.1419 176.703 55.7783V202.866C176.703 202.972 176.654 203.07 176.576 203.133C176.513 203.19 176.436 203.218 176.351 203.218ZM102.278 188.418L176 202.437V55.7783C176 33.367 168.909 14.7963 157.028 6.10192C150.296 1.17085 142.628 -0.130498 134.855 2.33855C125.837 5.20152 117.55 12.468 111.508 22.8084C105.556 33.0012 102.278 45.2691 102.278 57.347V188.418V188.418Z" fill="#4A4A4A"/>
<path d="M132.224 175.109C132.182 175.109 132.147 175.109 132.105 175.102L114.378 172.956C113.759 172.879 113.28 172.21 113.28 171.423V142.455C113.28 142.005 113.442 141.597 113.717 141.337C113.921 141.14 114.174 141.055 114.434 141.048L132.161 141.787C132.836 141.815 133.364 142.49 133.364 143.313V173.716C133.364 174.173 133.195 174.588 132.907 174.841C132.71 175.017 132.478 175.109 132.231 175.109H132.224ZM114.399 141.752C114.329 141.752 114.265 141.78 114.202 141.843C114.068 141.97 113.984 142.209 113.984 142.455V171.423C113.984 171.866 114.237 172.232 114.462 172.26L132.189 174.405C132.281 174.405 132.365 174.384 132.435 174.321C132.576 174.194 132.66 173.969 132.66 173.716V143.313C132.66 142.842 132.379 142.497 132.133 142.49L114.406 141.752H114.399V141.752Z" fill="#E9E6E2"/>
<path d="M160.193 178.492C160.144 178.492 160.102 178.492 160.053 178.485L139.892 176.044C139.216 175.96 138.689 175.256 138.689 174.433V143.588C138.689 143.13 138.858 142.708 139.146 142.434C139.371 142.216 139.653 142.117 139.948 142.117L160.109 142.955C160.84 142.983 161.431 143.707 161.431 144.565V177.043C161.431 177.507 161.255 177.936 160.946 178.204C160.728 178.393 160.461 178.499 160.186 178.499L160.193 178.492ZM139.906 142.807C139.786 142.807 139.688 142.87 139.631 142.926C139.484 143.074 139.392 143.313 139.392 143.574V174.419C139.392 174.918 139.702 175.298 139.976 175.334L160.137 177.774C160.299 177.788 160.418 177.725 160.489 177.662C160.643 177.528 160.735 177.289 160.735 177.029V144.551C160.735 144.073 160.439 143.658 160.081 143.644L139.92 142.807H139.906V142.807Z" fill="#E9E6E2"/>
<path d="M132.161 132.298H132.147L114.42 132.002C113.787 131.988 113.288 131.355 113.288 130.553V57.4453C113.288 56.6644 113.773 55.9891 114.385 55.9118L132.112 53.7663C132.4 53.7311 132.689 53.8226 132.914 54.0195C133.202 54.2798 133.371 54.6878 133.371 55.145V130.82C133.371 131.271 133.209 131.693 132.921 131.974C132.71 132.185 132.442 132.298 132.161 132.298V132.298ZM114.469 56.6082C114.244 56.6363 113.991 56.9951 113.991 57.4382V130.546C113.991 130.982 114.223 131.292 114.434 131.292L132.161 131.587C132.252 131.58 132.372 131.524 132.428 131.467C132.576 131.32 132.668 131.081 132.668 130.813V55.138C132.668 54.8848 132.583 54.6597 132.442 54.533C132.365 54.4697 132.281 54.4346 132.196 54.4486L114.469 56.5941V56.6082Z" fill="#E9E6E2"/>
<path d="M160.116 132.769H160.095L139.934 132.431C139.252 132.417 138.696 131.735 138.696 130.905V54.4346C138.696 53.6115 139.223 52.9011 139.899 52.8237L160.059 50.3828C160.383 50.3406 160.707 50.4461 160.96 50.6712C161.269 50.9455 161.445 51.3676 161.445 51.8319V131.221C161.445 131.686 161.276 132.115 160.974 132.41C160.735 132.642 160.432 132.776 160.116 132.776V132.769ZM160.2 51.0721C160.2 51.0721 160.165 51.0721 160.144 51.0721L139.983 53.5131C139.709 53.5482 139.399 53.9281 139.399 54.4275V130.898C139.399 131.334 139.653 131.714 139.948 131.721L160.109 132.058H160.116C160.278 132.058 160.404 131.974 160.474 131.897C160.643 131.735 160.735 131.482 160.735 131.207V51.8248C160.735 51.5575 160.643 51.3254 160.489 51.1917C160.425 51.1355 160.327 51.0721 160.193 51.0721H160.2Z" fill="#E9E6E2"/>
<path d="M167.889 109.605C169.462 109.605 170.738 108.125 170.738 106.299C170.738 104.473 169.462 102.993 167.889 102.993C166.315 102.993 165.04 104.473 165.04 106.299C165.04 108.125 166.315 109.605 167.889 109.605Z" fill="white"/>
<path d="M167.889 109.957C166.123 109.957 164.688 108.318 164.688 106.299C164.688 104.28 166.123 102.641 167.889 102.641C169.654 102.641 171.089 104.28 171.089 106.299C171.089 108.318 169.654 109.957 167.889 109.957ZM167.889 103.337C166.51 103.337 165.391 104.667 165.391 106.292C165.391 107.917 166.51 109.246 167.889 109.246C169.267 109.246 170.386 107.917 170.386 106.292C170.386 104.667 169.267 103.337 167.889 103.337Z" fill="#4A4A4A"/>
<path d="M32.6373 50.158C32.5318 50.158 32.4333 50.0947 32.3982 49.9962C31.6244 48.1814 30.5551 47.084 29.2186 46.7323C26.9324 46.1344 24.5829 47.9 24.5547 47.9141C24.4422 48.0055 24.2734 47.9774 24.1819 47.8648C24.0905 47.7523 24.1186 47.5834 24.2312 47.492C24.3367 47.4146 26.8058 45.5435 29.3452 46.2117C30.6888 46.5635 31.7791 47.5553 32.5951 49.1591C33.0594 48.1462 34.1286 47.3372 35.5426 46.9644C37.0409 46.5705 38.9965 46.7182 39.9954 47.9281C40.0868 48.0407 40.0727 48.2095 39.9602 48.3009C39.8476 48.3924 39.6788 48.3783 39.5874 48.2658C38.7362 47.2317 37.0057 47.1262 35.6762 47.4779C34.4874 47.7874 33.1368 48.5964 32.8976 49.9329C32.8765 50.0455 32.7851 50.1369 32.6655 50.151C32.6584 50.151 32.6444 50.151 32.6373 50.151V50.158Z" fill="#1E1D1D"/>
<path d="M40.1852 63.2699C40.143 63.2699 40.0937 63.2558 40.0515 63.2347C39.9249 63.1644 39.8827 63.0026 39.9601 62.876C40.0304 62.7634 41.6483 60.0341 44.4481 59.3025C45.7846 58.9578 47.1563 59.1267 48.5421 59.809C48.2396 57.966 49.1822 56.3411 50.2515 55.3844C51.5599 54.2097 53.1919 53.7876 54.4018 54.3082C54.5355 54.3644 54.5988 54.5192 54.5425 54.6528C54.4862 54.7865 54.3314 54.8498 54.1978 54.7935C53.1848 54.3644 51.7428 54.7513 50.6032 55.7713C49.548 56.7139 48.6195 58.3881 49.1893 60.2311C49.2174 60.3366 49.1893 60.4491 49.0978 60.5124C49.0134 60.5757 48.8938 60.5898 48.8024 60.5335C47.3674 59.6894 45.9534 59.4432 44.5888 59.7949C42.0001 60.4702 40.4384 63.094 40.4173 63.1222C40.3681 63.2066 40.2766 63.2558 40.1922 63.2558L40.1852 63.2699Z" fill="#1E1D1D"/>
<path d="M43.3438 38.9382H43.3227C43.2172 38.9311 43.1187 38.8538 43.0905 38.7553C42.8443 37.9534 42.4434 37.4539 41.9158 37.2781C40.8888 36.9404 39.6296 37.8619 39.6225 37.869C39.503 37.9534 39.3412 37.9323 39.2568 37.8127C39.1723 37.6931 39.1935 37.5313 39.313 37.4469C39.3764 37.4047 40.7973 36.3566 42.0846 36.7786C42.6614 36.9686 43.1046 37.4047 43.4141 38.0941C43.8081 37.6228 44.3849 37.3414 45.018 37.3414H45.032C45.7918 37.3414 46.4249 37.7494 46.7344 38.4247C46.7977 38.5583 46.7344 38.7131 46.6007 38.7764C46.4671 38.8397 46.3123 38.7764 46.249 38.6427C46.0309 38.1644 45.5737 37.869 45.025 37.869H45.018C44.5326 37.869 43.9065 38.1081 43.59 38.7904C43.5478 38.8819 43.4563 38.9382 43.3508 38.9382H43.3438Z" fill="#1E1D1D"/>
</svg>
