<svg width="169" height="149" viewBox="0 0 169 149" fill="none" xmlns="http://www.w3.org/2000/svg">
<g clip-path="url(#clip0_1_636)">
<path d="M159.803 66.0438H8.90475V147.94H159.803V66.0438Z" fill="#7FB0A1"/>
<path d="M159.803 66.0438H131.38V147.94H159.803V66.0438Z" fill="#7FB0A1"/>
<path d="M159.803 136.617H8.90475V148.033H159.803V136.617Z" fill="#FAB768"/>
<path d="M141.778 11.0922L169 69.3255H0.631714L27.8535 11.0922H141.778Z" fill="#4B4A4B"/>
<path d="M52.441 4.15961H37.6978V21.722H52.441V4.15961Z" fill="#ECEFF9"/>
<path d="M37.7903 -3.05176e-05H52.3487C53.3654 -3.05176e-05 54.1974 0.831874 54.1974 1.84865V5.36113H35.9879V1.84865C35.9879 0.831874 36.8198 -3.05176e-05 37.8366 -3.05176e-05H37.7903Z" fill="#6197A6"/>
<path d="M105.406 26.8983L73.701 51.7168V147.94H136.833V51.7168L105.406 26.8983Z" fill="#7FB0A1" stroke="#4B4A4A" stroke-width="0.75" stroke-miterlimit="10"/>
<path d="M105.36 27.9613L73.701 52.7336V57.0318H60.3443L105.128 20.6128L105.36 27.9613Z" fill="#ECEFF9"/>
<path d="M105.082 27.9613L136.834 52.7336V57.0318H148.757L105.175 20.6129L105.082 27.9613Z" fill="#ECEFF9"/>
<path d="M95.6539 148.634H114.464V117.345H95.6539V148.634Z" fill="#FAB768"/>
<path d="M92.7882 90.3541H117.792V60.3131H92.7882V90.3541Z" fill="#254D32"/>
<path d="M104.019 62.8087H95.7922V74.3167H104.019V62.8087Z" fill="white"/>
<path d="M114.787 62.8088H106.561V74.3168H114.787V62.8088Z" fill="white"/>
<path d="M104.019 76.6739H95.7923V88.1819H104.019V76.6739Z" fill="white"/>
<path d="M114.787 76.6739H106.561V88.1819H114.787V76.6739Z" fill="white"/>
<path d="M87.6585 87.9508C88.4243 87.9508 89.045 87.33 89.045 86.5643C89.045 85.7986 88.4243 85.1778 87.6585 85.1778C86.8928 85.1778 86.272 85.7986 86.272 86.5643C86.272 87.33 86.8928 87.9508 87.6585 87.9508Z" fill="#038198"/>
<path d="M92.1416 87.581C92.8308 87.581 93.3894 87.0223 93.3894 86.3331C93.3894 85.6439 92.8308 85.0852 92.1416 85.0852C91.4524 85.0852 90.8937 85.6439 90.8937 86.3331C90.8937 87.0223 91.4524 87.581 92.1416 87.581Z" fill="#038198"/>
<path d="M89.5073 87.5811C90.6048 87.5811 91.4946 86.6913 91.4946 85.5937C91.4946 84.4962 90.6048 83.6064 89.5073 83.6064C88.4097 83.6064 87.5199 84.4962 87.5199 85.5937C87.5199 86.6913 88.4097 87.5811 89.5073 87.5811Z" fill="#6197A6"/>
<path d="M95.377 87.581C96.1428 87.581 96.7635 86.9602 96.7635 86.1945C96.7635 85.4287 96.1428 84.808 95.377 84.808C94.6113 84.808 93.9905 85.4287 93.9905 86.1945C93.9905 86.9602 94.6113 87.581 95.377 87.581Z" fill="#6197A6"/>
<path d="M99.7211 87.1651C100.436 87.1651 101.015 86.5857 101.015 85.871C101.015 85.1563 100.436 84.577 99.7211 84.577C99.0064 84.577 98.427 85.1563 98.427 85.871C98.427 86.5857 99.0064 87.1651 99.7211 87.1651Z" fill="#038198"/>
<path d="M99.2588 85.0853C99.8204 85.0853 100.276 84.6301 100.276 84.0686C100.276 83.507 99.8204 83.0518 99.2588 83.0518C98.6973 83.0518 98.242 83.507 98.242 84.0686C98.242 84.6301 98.6973 85.0853 99.2588 85.0853Z" fill="#038198"/>
<path d="M101.431 87.2575C101.865 87.2575 102.217 86.9058 102.217 86.4719C102.217 86.0379 101.865 85.6862 101.431 85.6862C100.997 85.6862 100.646 86.0379 100.646 86.4719C100.646 86.9058 100.997 87.2575 101.431 87.2575Z" fill="#038198"/>
<path d="M97.4564 86.7954C98.2987 86.7954 98.9815 86.1126 98.9815 85.2702C98.9815 84.4279 98.2987 83.7451 97.4564 83.7451C96.614 83.7451 95.9312 84.4279 95.9312 85.2702C95.9312 86.1126 96.614 86.7954 97.4564 86.7954Z" fill="#6197A6"/>
<path d="M102.217 90.4464H86.3644L85.6249 86.1945H102.91L102.217 90.4464Z" fill="#FAB768"/>
<path d="M108.456 87.5349C109.222 87.5349 109.843 86.9141 109.843 86.1484C109.843 85.3826 109.222 84.7619 108.456 84.7619C107.69 84.7619 107.07 85.3826 107.07 86.1484C107.07 86.9141 107.69 87.5349 108.456 87.5349Z" fill="#038198"/>
<path d="M113.124 87.5809C113.992 87.5809 114.695 86.8774 114.695 86.0096C114.695 85.1417 113.992 84.4382 113.124 84.4382C112.256 84.4382 111.552 85.1417 111.552 86.0096C111.552 86.8774 112.256 87.5809 113.124 87.5809Z" fill="#038198"/>
<path d="M115.481 86.564C116.349 86.564 117.052 85.8605 117.052 84.9927C117.052 84.1248 116.349 83.4213 115.481 83.4213C114.613 83.4213 113.909 84.1248 113.909 84.9927C113.909 85.8605 114.613 86.564 115.481 86.564Z" fill="#038198"/>
<path d="M117.653 85.7323C118.649 85.7323 119.456 84.9253 119.456 83.9298C119.456 82.9344 118.649 82.1274 117.653 82.1274C116.658 82.1274 115.851 82.9344 115.851 83.9298C115.851 84.9253 116.658 85.7323 117.653 85.7323Z" fill="#038198"/>
<path d="M110.397 86.9802C111.494 86.9802 112.384 86.0905 112.384 84.9929C112.384 83.8953 111.494 83.0056 110.397 83.0056C109.299 83.0056 108.409 83.8953 108.409 84.9929C108.409 86.0905 109.299 86.9802 110.397 86.9802Z" fill="#6197A6"/>
<path d="M112.246 87.1651C113.139 87.1651 113.864 86.4409 113.864 85.5475C113.864 84.6541 113.139 83.9299 112.246 83.9299C111.353 83.9299 110.628 84.6541 110.628 85.5475C110.628 86.4409 111.353 87.1651 112.246 87.1651Z" fill="#6197A6"/>
<path d="M116.683 87.581C117.449 87.581 118.069 86.9602 118.069 86.1945C118.069 85.4288 117.449 84.808 116.683 84.808C115.917 84.808 115.296 85.4288 115.296 86.1945C115.296 86.9602 115.917 87.581 116.683 87.581Z" fill="#6197A6"/>
<path d="M121.027 87.1649C121.742 87.1649 122.321 86.5855 122.321 85.8708C122.321 85.1561 121.742 84.5768 121.027 84.5768C120.312 84.5768 119.733 85.1561 119.733 85.8708C119.733 86.5855 120.312 87.1649 121.027 87.1649Z" fill="#038198"/>
<path d="M120.518 85.0853C121.08 85.0853 121.535 84.6301 121.535 84.0686C121.535 83.507 121.08 83.0518 120.518 83.0518C119.957 83.0518 119.502 83.507 119.502 84.0686C119.502 84.6301 119.957 85.0853 120.518 85.0853Z" fill="#038198"/>
<path d="M122.968 87.2113C123.504 87.2113 123.939 86.7767 123.939 86.2407C123.939 85.7047 123.504 85.2702 122.968 85.2702C122.432 85.2702 121.997 85.7047 121.997 86.2407C121.997 86.7767 122.432 87.2113 122.968 87.2113Z" fill="#038198"/>
<path d="M118.762 86.7952C119.604 86.7952 120.287 86.1124 120.287 85.27C120.287 84.4277 119.604 83.7449 118.762 83.7449C117.92 83.7449 117.237 84.4277 117.237 85.27C117.237 86.1124 117.92 86.7952 118.762 86.7952Z" fill="#6197A6"/>
<path d="M123.476 90.4464H107.67L106.931 86.1945H124.216L123.476 90.4464Z" fill="#FAB768"/>
<path d="M30.4876 112.862H55.3985L55.3985 83.0059H30.4876L30.4876 112.862Z" fill="#254D32"/>
<path d="M41.6722 85.455H33.4918V96.9168H41.6722V85.455Z" fill="white"/>
<path d="M52.3944 85.455H44.214V96.9168H52.3944V85.455Z" fill="white"/>
<path d="M41.6722 99.2739H33.4919V110.736H41.6722V99.2739Z" fill="white"/>
<path d="M52.3944 99.2739H44.214V110.736H52.3944V99.2739Z" fill="white"/>
<path d="M36.0339 109.996C36.7996 109.996 37.4204 109.376 37.4204 108.61C37.4204 107.844 36.7996 107.223 36.0339 107.223C35.2681 107.223 34.6474 107.844 34.6474 108.61C34.6474 109.376 35.2681 109.996 36.0339 109.996Z" fill="#0C8190"/>
<path d="M40.6554 110.043C41.5232 110.043 42.2267 109.339 42.2267 108.471C42.2267 107.603 41.5232 106.9 40.6554 106.9C39.7875 106.9 39.084 107.603 39.084 108.471C39.084 109.339 39.7875 110.043 40.6554 110.043Z" fill="#038198"/>
<path d="M42.9662 108.98C43.834 108.98 44.5376 108.276 44.5376 107.408C44.5376 106.54 43.834 105.837 42.9662 105.837C42.0983 105.837 41.3948 106.54 41.3948 107.408C41.3948 108.276 42.0983 108.98 42.9662 108.98Z" fill="#038198"/>
<path d="M45.1849 108.194C46.1804 108.194 46.9874 107.387 46.9874 106.391C46.9874 105.396 46.1804 104.589 45.1849 104.589C44.1894 104.589 43.3824 105.396 43.3824 106.391C43.3824 107.387 44.1894 108.194 45.1849 108.194Z" fill="#038198"/>
<path d="M37.9283 109.395C39.0259 109.395 39.9156 108.506 39.9156 107.408C39.9156 106.311 39.0259 105.421 37.9283 105.421C36.8307 105.421 35.941 106.311 35.941 107.408C35.941 108.506 36.8307 109.395 37.9283 109.395Z" fill="#6197A6"/>
<path d="M39.7774 109.627C40.6707 109.627 41.3949 108.902 41.3949 108.009C41.3949 107.116 40.6707 106.392 39.7774 106.392C38.884 106.392 38.1598 107.116 38.1598 108.009C38.1598 108.902 38.884 109.627 39.7774 109.627Z" fill="#6197A6"/>
<path d="M44.168 110.043C44.9337 110.043 45.5545 109.422 45.5545 108.656C45.5545 107.89 44.9337 107.27 44.168 107.27C43.4023 107.27 42.7815 107.89 42.7815 108.656C42.7815 109.422 43.4023 110.043 44.168 110.043Z" fill="#6197A6"/>
<path d="M48.5123 109.58C49.2015 109.58 49.7601 109.022 49.7601 108.332C49.7601 107.643 49.2015 107.085 48.5123 107.085C47.8231 107.085 47.2644 107.643 47.2644 108.332C47.2644 109.022 47.8231 109.58 48.5123 109.58Z" fill="#038198"/>
<path d="M48.0499 107.547C48.6114 107.547 49.0667 107.092 49.0667 106.53C49.0667 105.969 48.6114 105.513 48.0499 105.513C47.4883 105.513 47.0331 105.969 47.0331 106.53C47.0331 107.092 47.4883 107.547 48.0499 107.547Z" fill="#038198"/>
<path d="M50.4534 109.673C50.9894 109.673 51.4239 109.238 51.4239 108.702C51.4239 108.166 50.9894 107.732 50.4534 107.732C49.9174 107.732 49.4828 108.166 49.4828 108.702C49.4828 109.238 49.9174 109.673 50.4534 109.673Z" fill="#038198"/>
<path d="M46.2474 109.211C47.0898 109.211 47.7726 108.528 47.7726 107.686C47.7726 106.843 47.0898 106.16 46.2474 106.16C45.4051 106.16 44.7223 106.843 44.7223 107.686C44.7223 108.528 45.4051 109.211 46.2474 109.211Z" fill="#6197A6"/>
<path d="M50.9617 112.862H35.2017L34.4622 108.656H51.7012L50.9617 112.862Z" fill="#FAB768"/>
</g>
<defs>
<clipPath id="clip0_1_636">
<rect width="168.368" height="148.587" fill="white" transform="translate(0.631714)"/>
</clipPath>
</defs>
</svg>
