<svg width="33" height="32" viewBox="0 0 33 32" fill="none" xmlns="http://www.w3.org/2000/svg">
<path d="M32.4444 16C32.4444 7.16349 25.1814 0 16.2222 0C7.26299 0 0 7.16337 0 16C0 23.986 5.93226 30.6053 13.6875 31.8056V20.625H9.56857V16H13.6875V12.475C13.6875 8.46499 16.1094 6.24999 19.8148 6.24999C21.5897 6.24999 23.4462 6.56249 23.4462 6.56249V10.5H21.4006C19.3853 10.5 18.7569 11.7334 18.7569 12.9987V16H23.2561L22.5368 20.625H18.7569V31.8056C26.5122 30.6053 32.4444 23.9861 32.4444 16Z" fill="#3377FF"/>
<path d="M22.5369 20.625L23.2561 16H18.757V12.9987C18.757 11.7332 19.3854 10.5 21.4007 10.5H23.4462V6.5625C23.4462 6.5625 21.5898 6.25 19.8148 6.25C16.1094 6.25 13.6875 8.465 13.6875 12.475V16H9.5686V20.625H13.6875V31.8056C14.526 31.9352 15.3735 32.0002 16.2222 32C17.071 32.0002 17.9185 31.9352 18.757 31.8056V20.625H22.5369Z" fill="white"/>
</svg>
