<svg width="34" height="32" viewBox="0 0 34 32" fill="none" xmlns="http://www.w3.org/2000/svg">
<path d="M25.4749 0H8.2388C4.03914 0 0.634644 3.35786 0.634644 7.49999V24.5C0.634644 28.6421 4.03914 32 8.2388 32H25.4749C29.6746 32 33.0791 28.6421 33.0791 24.5V7.49999C33.0791 3.35786 29.6746 0 25.4749 0Z" fill="url(#paint0_radial_59_135)"/>
<path d="M25.4749 0H8.2388C4.03914 0 0.634644 3.35786 0.634644 7.49999V24.5C0.634644 28.6421 4.03914 32 8.2388 32H25.4749C29.6746 32 33.0791 28.6421 33.0791 24.5V7.49999C33.0791 3.35786 29.6746 0 25.4749 0Z" fill="#3377FF"/>
<path d="M16.858 3.5C13.4161 3.5 12.984 3.51487 11.6323 3.5755C10.283 3.6365 9.36204 3.84712 8.55625 4.15625C7.72258 4.4755 7.01552 4.90262 6.31113 5.59762C5.60609 6.2925 5.17304 6.98987 4.84834 7.81175C4.53403 8.60674 4.32023 9.51549 4.25952 10.8456C4.19907 12.179 4.18323 12.6052 4.18323 16.0001C4.18323 19.395 4.19844 19.8197 4.25978 21.153C4.32188 22.4837 4.53543 23.3921 4.84859 24.1869C5.17253 25.0091 5.60559 25.7065 6.31024 26.4012C7.01451 27.0966 7.72157 27.5247 8.55461 27.844C9.36103 28.1531 10.2821 28.3637 11.6311 28.4247C12.983 28.4853 13.4147 28.5002 16.8564 28.5002C20.2987 28.5002 20.7294 28.4853 22.0811 28.4247C23.4304 28.3637 24.3524 28.1531 25.1588 27.844C25.9921 27.5247 26.6981 27.0966 27.4023 26.4012C28.1073 25.7065 28.5402 25.0091 28.8651 24.1872C29.1766 23.3921 29.3905 22.4835 29.4539 21.1532C29.5146 19.82 29.5304 19.395 29.5304 16.0001C29.5304 12.6052 29.5146 12.1792 29.4539 10.8459C29.3905 9.51512 29.1766 8.60687 28.8651 7.81212C28.5402 6.98987 28.1073 6.2925 27.4023 5.59762C26.6974 4.90237 25.9923 4.47525 25.158 4.15637C24.3501 3.84712 23.4286 3.63637 22.0794 3.5755C20.7275 3.51487 20.2971 3.5 16.854 3.5H16.858ZM15.721 5.75262C16.0585 5.75212 16.4351 5.75262 16.858 5.75262C20.2419 5.75262 20.6429 5.76462 21.9792 5.8245C23.2149 5.88025 23.8856 6.08387 24.3324 6.255C24.9238 6.4815 25.3455 6.75237 25.7888 7.19C26.2324 7.6275 26.5069 8.04412 26.7372 8.62749C26.9107 9.06749 27.1174 9.72899 27.1736 10.9477C27.2344 12.2655 27.2475 12.6612 27.2475 15.9972C27.2475 19.3332 27.2344 19.7291 27.1736 21.0467C27.1171 22.2655 26.9107 22.927 26.7372 23.3671C26.5075 23.9505 26.2324 24.3659 25.7888 24.8031C25.3452 25.2406 24.9241 25.5114 24.3324 25.738C23.8861 25.9099 23.2149 26.113 21.9792 26.1687C20.6432 26.2286 20.2419 26.2416 16.858 26.2416C13.4739 26.2416 13.0727 26.2286 11.7368 26.1687C10.5011 26.1125 9.83046 25.9088 9.38333 25.7377C8.79198 25.5111 8.36944 25.2404 7.92587 24.8029C7.48229 24.3654 7.20778 23.9497 6.9775 23.3661C6.804 22.926 6.5973 22.2645 6.54102 21.0457C6.48032 19.728 6.46815 19.3322 6.46815 15.9941C6.46815 12.6561 6.48032 12.2624 6.54102 10.9446C6.59755 9.72587 6.804 9.06437 6.9775 8.62374C7.20728 8.04037 7.48229 7.62375 7.926 7.18625C8.36957 6.74875 8.79198 6.47787 9.38346 6.25087C9.8302 6.079 10.5011 5.87587 11.7368 5.81987C12.906 5.76775 13.359 5.75212 15.721 5.7495V5.75262ZM23.6231 7.82812C22.7835 7.82812 22.1023 8.49937 22.1023 9.32762C22.1023 10.1557 22.7835 10.8276 23.6231 10.8276C24.4628 10.8276 25.144 10.1557 25.144 9.32762C25.144 8.4995 24.4628 7.82762 23.6231 7.82762V7.82812ZM16.858 9.58074C13.2637 9.58074 10.3496 12.455 10.3496 16.0001C10.3496 19.5452 13.2637 22.4181 16.858 22.4181C20.4523 22.4181 23.3655 19.5452 23.3655 16.0001C23.3655 12.4551 20.4521 9.58074 16.8577 9.58074H16.858ZM16.858 11.8334C19.1911 11.8334 21.0826 13.6987 21.0826 16.0001C21.0826 18.3012 19.1911 20.1669 16.858 20.1669C14.5248 20.1669 12.6335 18.3012 12.6335 16.0001C12.6335 13.6987 14.5248 11.8334 16.858 11.8334Z" fill="white"/>
<defs>
<radialGradient id="paint0_radial_59_135" cx="0" cy="0" r="1" gradientUnits="userSpaceOnUse" gradientTransform="translate(9.25269 34.4646) rotate(-90) scale(31.7144 29.9065)">
<stop stop-color="#FFDD55"/>
<stop offset="0.1" stop-color="#FFDD55"/>
<stop offset="0.5" stop-color="#FF543E"/>
<stop offset="1" stop-color="#C837AB"/>
</radialGradient>
</defs>
</svg>
