<svg width="560" height="328" viewBox="0 0 560 328" fill="none" xmlns="http://www.w3.org/2000/svg">
<path d="M549.674 44.0849C540.973 35.7551 528.354 31.836 514.146 33.0353C502.883 33.9889 492.211 37.4656 483.458 42.9675C477.688 38.3733 468.414 34.0151 454.486 35.1849C444.795 35.991 434.966 39.34 425.63 44.9664C423.011 39.9823 419.182 35.8829 414.37 33.0091C406.432 28.2675 396.918 27.4286 387.583 30.653C371.954 36.0402 361.121 52.4016 360.361 70.1196C354.815 69.3659 349.068 69.4773 343.344 70.4702C342.446 70.6275 341.518 70.811 340.584 71.0142C339.834 71.1059 339.018 71.2239 338.147 71.3746C332.11 72.4265 326.222 74.2747 320.527 76.8961C321.281 71.7089 321.422 68.029 321.07 64.9782C320.067 56.2814 314.85 48.4038 306.379 42.7971C296.599 36.3286 284.707 34.2215 274.559 37.1674C263.733 40.3099 252.851 50.3241 254.387 64.9159C254.417 66.1644 254.035 71.4795 249.298 92.884C248.854 92.9987 248.41 93.1199 247.969 93.2477C244.15 94.3553 240.36 95.9741 236.626 98.0876C234.054 91.9533 229.777 86.943 224.146 83.5777C224.054 83.5252 223.965 83.4695 223.873 83.4171C224.119 82.3652 224.343 81.3101 224.544 80.2615C226.205 73.5472 226.971 67.0033 226.817 60.8002C226.379 43.0101 219.205 27.9103 206.063 17.1327C187.355 1.78385 158.071 -3.04297 121.369 3.17979C76.7028 10.7494 41.3001 27.8677 21.6646 51.389C7.59167 67.2851 -0.125715 89.5219 1.01906 110.848C1.03222 111.113 1.04867 111.375 1.0717 111.605C3.9797 145.32 24.4245 166.319 54.5079 166.407H54.5144C54.7118 166.414 54.9092 166.417 55.1099 166.417L55.3796 166.414C56.4948 166.4 57.6067 166.345 58.7218 166.246C53.4355 187.366 44.8694 223.152 45.093 232.482C45.2904 240.769 48.9846 248.266 55.498 253.588C68.4031 264.13 88.3019 262.576 99.0128 260.712C114.869 257.946 120.267 244.95 122.017 234.451L122.076 234.058C122.507 231.069 123.076 227.501 123.754 223.533C137.754 243.118 158.406 252.382 185.421 251.124C197.72 250.547 208.915 249.236 221.123 246.913C216.26 256.77 213.797 267.082 214.037 277.031C214.27 286.74 216.971 295.991 221.846 303.783C228.291 314.511 238.482 322.078 251.357 325.682C251.89 325.83 252.423 325.958 252.979 326.069C253.39 326.151 253.788 326.216 254.19 326.282L254.601 326.351C258.798 327.265 263.17 327.73 267.595 327.73C267.871 327.73 268.147 327.72 268.427 327.714L268.598 327.711L268.743 327.714C269.003 327.724 269.262 327.73 269.519 327.73C294.29 327.73 310.774 315.983 317.8 310.972L318.896 310.196C348.196 289.604 366.947 234.73 375.993 201.463C411.797 187.369 426.712 186.461 431.634 186.776C430.693 195.682 428.16 199.241 427.071 200.401C422.584 205.212 420.146 211.051 420.021 217.277C419.929 221.625 421.057 225.918 423.238 229.611C423.436 235.149 425.456 240.392 429.054 244.593C433.736 250.059 440.568 253.191 448.276 253.414C460.204 253.762 479.589 244.334 496.448 229.926C508.301 219.797 528.732 198.592 532.417 170.369C534.052 157.835 531.854 148.155 528.752 141.139C541.799 132.678 549.776 119.056 550.48 103.465C550.674 99.205 550.184 95.1155 549.019 91.2521C555.622 84.3805 559.635 76.3129 559.97 68.9596C560.375 59.8007 556.625 50.7369 549.674 44.0849Z" fill="#EA0029"/>
<path d="M548.322 68.4318C548.585 62.6154 546.134 56.7924 541.604 52.4538C535.354 46.4735 525.949 43.6849 515.133 44.6024C503.781 45.5593 493.247 49.5243 485.484 55.7602C483.639 57.238 480.902 56.9726 479.388 55.1605C478.852 54.5248 478.303 53.9317 477.75 53.4074C474.023 49.8356 467.138 45.7755 455.457 46.7521C445.121 47.6139 434.433 52.1228 424.548 59.794C423.344 60.7246 421.715 60.9671 420.291 60.4199C418.866 59.8726 417.824 58.6045 417.56 57.1069C416.472 50.8776 413.212 45.8542 408.376 42.9673C403.442 40.0214 397.408 39.543 391.392 41.6238C378.474 46.077 369.95 62.1763 372.394 77.5316C372.421 77.6955 372.46 77.8561 372.509 78.0691L372.628 78.5999C372.954 80.1433 372.417 81.7457 371.22 82.7812C370.026 83.8167 368.358 84.1247 366.868 83.5938C360.22 81.2017 352.779 80.6185 345.351 81.9063C344.515 82.0504 343.65 82.2274 342.781 82.4207C342.63 82.4535 342.479 82.4797 342.331 82.4994C341.673 82.578 340.939 82.6763 340.153 82.814C330.61 84.4753 321.452 88.5485 312.935 94.9252C311.481 96.0099 309.478 96.0853 307.948 95.1055C306.418 94.1257 305.652 92.2775 306.047 90.508C308.958 77.3416 309.958 70.3324 309.494 66.3117C308.885 61.0687 305.491 56.1534 299.928 52.4735C292.97 47.8695 284.7 46.3195 277.812 48.3151C268.71 50.9563 265.315 58.0277 265.986 63.8475L266.009 64.0998C266.167 66.718 265.68 73.2914 259.634 100.037C259.232 101.803 257.759 103.153 255.956 103.393C254.374 103.606 252.785 103.943 251.232 104.395C245.732 105.991 240.199 109.019 234.787 113.394C233.527 114.409 231.817 114.649 230.327 114.02C228.833 113.39 227.82 111.998 227.682 110.392C227.623 109.691 227.547 108.878 227.415 108.052C226.396 101.649 223.106 96.4949 218.155 93.5391C216.892 92.7822 215.477 92.1694 213.948 91.7139C212.836 91.383 211.885 90.6063 211.342 89.5807C210.796 88.5616 210.684 87.3426 211.033 86.2383C211.898 83.4955 212.606 80.6938 213.139 77.8954C213.152 77.8266 213.168 77.7545 213.191 77.666C214.635 71.8922 215.3 66.3149 215.172 61.0916C214.82 46.7717 209.109 34.6703 198.658 26.098C182.637 12.9577 156.59 8.98619 123.323 14.6257C81.3475 21.7397 48.4022 37.4589 30.5694 58.8765L30.4674 58.9977C12.4733 79.2553 12.2825 103.38 12.6542 110.32L12.6707 110.589C15.0885 138.622 30.3193 154.741 54.5571 154.807L55.1426 154.817C59.1592 154.767 63.1955 153.991 67.1365 152.513C68.6694 151.936 70.3767 152.257 71.5939 153.345C72.811 154.433 73.3176 156.088 72.9097 157.667C61.5573 201.781 56.6065 226.894 56.7348 232.216C56.8532 237.144 58.9783 241.434 62.8798 244.626C72.5446 252.52 89.963 250.517 97.0027 249.289C106.799 247.581 109.365 239.497 110.513 232.58C110.523 232.527 110.533 232.475 110.539 232.423C111.668 224.581 113.618 213.469 116.033 201.138C116.401 199.261 117.994 197.822 119.902 197.639C121.819 197.468 123.658 198.573 124.372 200.345C135.751 228.487 154.965 240.946 184.864 239.54C198.26 238.914 210.296 237.367 223.925 234.526L235.656 231.918C237.459 231.518 239.33 232.295 240.311 233.864C241.291 235.427 241.169 237.446 240.015 238.885C230.465 250.766 225.373 264.218 225.672 276.762C225.856 284.42 227.958 291.662 231.804 297.786C236.758 306.06 244.383 311.687 254.459 314.508C254.699 314.574 254.976 314.642 255.239 314.691C255.472 314.737 255.709 314.777 255.943 314.816L256.933 314.986C260.348 315.743 263.927 316.127 267.637 316.127C267.641 316.127 267.647 316.127 267.65 316.127L268.539 316.104H268.611L269.502 316.127C290.539 316.127 304.372 306.267 311.014 301.532L312.136 300.732C324.527 292.025 336.334 274.783 347.222 249.482C355.881 229.368 362.029 208.737 365.657 194.971C366.006 193.647 366.973 192.553 368.246 192.042C414.291 173.534 431.176 174.488 436.311 175.762C436.489 175.805 436.637 175.844 436.762 175.88C436.92 175.923 437.081 175.956 437.245 175.972C437.472 175.995 437.703 176.034 437.907 176.087C442.065 177.158 443.871 180.891 443.282 187.185C442.384 196.728 439.792 203.838 435.561 208.328C433.031 211.041 431.716 214.131 431.65 217.513C431.594 220.17 432.429 222.772 434.002 224.837C434.64 225.675 434.953 226.714 434.883 227.766C434.647 231.269 435.689 234.484 437.897 237.063C440.417 240.002 444.219 241.689 448.565 241.814C448.69 241.817 448.818 241.821 448.95 241.821C456.549 241.821 473.112 234.566 488.846 221.117C499.432 212.07 517.663 193.251 520.847 168.871C522.288 157.821 520.41 148.345 515.258 140.703C514.541 139.641 514.33 138.324 514.679 137.095C515.028 135.863 515.9 134.851 517.067 134.316C535.815 125.77 538.529 109.527 538.828 102.944C539.022 98.6445 538.272 94.8073 536.532 91.2126C535.67 89.4332 536.124 87.2934 537.627 86.0122C543.98 80.6021 548.075 73.8714 548.322 68.4318Z" fill="#001F60"/>
<path d="M468.76 129.575C436.811 128.69 397.221 142.492 356.052 157.943C355.381 158.195 354.877 158.759 354.703 159.45C353.756 163.219 352.45 166.558 351.502 170.234C351.298 171.034 351.92 172.263 352.545 172.803C353.17 173.344 354.052 173.482 354.815 173.17C386.941 159.889 417.718 147.965 441.193 147.965C442.844 147.965 444.466 148.027 446.012 148.145C456.799 148.977 463.73 151.71 467.829 156.737C471.789 161.593 473.089 168.75 471.799 178.617C469.96 192.717 460.786 206.821 444.522 220.547C442.709 222.094 441.535 222.903 441.305 224.65C441.173 225.604 441.749 226.865 442.239 227.425C442.871 228.176 443.996 228.595 445.512 228.638L445.723 228.641C451.516 228.641 465.569 221.701 479.056 210.091C488.458 201.997 504.633 185.318 507.343 164.536C508.607 154.843 506.758 147.018 501.846 141.283C495.576 133.963 484.448 130.024 468.76 129.575Z" fill="#F9AE42"/>
<path d="M211.3 177.614C211.945 183.181 214.119 187.339 217.596 189.64C219.511 190.908 221.728 191.547 224.146 191.547C225.577 191.547 227.08 191.324 228.63 190.872C238.936 187.88 246.482 179.973 250.992 175.244C252.877 173.265 253.976 172.138 254.611 171.951C254.864 171.869 255.433 172.282 256.351 172.96C259.223 175.081 265.947 180.052 276.786 176.896C279.22 176.188 279.214 174.337 279.151 173.77C279.049 172.885 278.806 172.305 278.5 171.571C277.99 170.355 277.292 168.691 276.809 164.493C275.651 154.456 279.358 139.74 283.289 124.158C283.819 122.061 284.349 119.957 284.895 117.755C290.852 93.8831 296.612 70.1062 295.958 64.4437C295.708 62.2548 293.856 59.8725 290.879 57.8998C286.523 55.0162 281.224 54.0823 277.256 55.0359C274.161 55.7797 272.194 56.9725 272.444 59.1024C273.236 65.9708 268.825 88.083 263.67 110.084C263.568 110.438 263.338 110.893 262.838 111.037C262.729 111.067 262.456 111.015 261.904 110.887C259.996 110.457 256.029 109.556 250.67 111.113C228.975 117.414 208.369 152.215 211.3 177.614ZM258.996 126.583C259.239 128.69 256.854 138.524 252.561 149.138C247.824 160.846 242.785 168.474 239.077 169.549C238.261 169.785 237.525 169.703 236.949 169.323C236.258 168.864 235.804 167.996 235.676 166.879C234.995 160.98 237.222 151.028 241.216 142.109C245.538 132.455 251.009 125.852 255.844 124.446C256.315 124.309 256.696 124.26 256.999 124.26C257.608 124.26 257.91 124.46 258.038 124.545C258.555 124.895 258.877 125.577 258.996 126.583Z" fill="#F9AE42"/>
<path d="M206.402 145.418C205.971 142.699 203.845 139.903 200.859 138.121C199.276 137.177 196.658 136.05 193.151 136.05C191.217 136.05 189.055 136.43 187.052 137.121C183.947 138.19 182.266 139.182 182.601 141.283C183.871 149.246 181.792 157.461 179.532 164.64C177.351 171.578 175.042 177.623 176.124 184.423C176.358 185.901 177.45 188.512 180.137 190.118C182.437 191.491 185.608 192.196 188.96 192.196C191.542 192.196 194.23 191.776 196.7 190.924C199.608 189.918 200.388 184.308 199.974 181.71C198.72 173.839 201.211 167.059 203.408 161.082C205.461 155.491 207.237 150.665 206.402 145.418Z" fill="#F9AE42"/>
<path d="M188.825 123.457C189.322 126.567 190.822 128.953 193.164 130.349C194.598 131.207 196.296 131.64 198.098 131.64C199.421 131.64 200.799 131.404 202.168 130.932C210.069 128.205 215.569 116.841 213.941 106.611C213.395 103.18 211.859 100.624 209.5 99.2183C207.171 97.8289 204.26 97.6716 201.089 98.7628C192.766 101.63 187.147 112.942 188.825 123.457Z" fill="#F9AE42"/>
<path d="M370.365 139.55C372.664 140.926 375.839 141.631 379.188 141.631C381.77 141.631 384.451 141.211 386.922 140.359C389.833 139.353 390.612 133.743 390.198 131.142C388.945 123.274 391.435 116.494 393.632 110.514C395.685 104.927 397.461 100.1 396.623 94.8537C396.192 92.1339 394.067 89.3387 391.083 87.5561C388.81 86.1962 384.02 84.2596 377.438 86.5271C374.332 87.5987 372.743 89.4141 373.082 91.508C374.349 99.4708 372.016 106.893 369.756 114.076C367.572 121.013 365.204 126.777 366.289 133.58C366.526 135.058 367.677 137.948 370.365 139.55Z" fill="#F9AE42"/>
<path d="M383.388 79.7829C384.822 80.6415 386.52 81.0773 388.323 81.0773C389.645 81.0773 391.023 80.8414 392.392 80.3662C400.293 77.6399 405.794 66.2757 404.162 56.0486C403.616 52.6177 402.083 50.0585 399.728 48.656C397.418 47.2764 394.468 47.1126 391.313 48.1972C382.987 51.0678 377.372 62.3762 379.049 72.8917C379.546 76.0014 381.046 78.387 383.388 79.7829Z" fill="#F9AE42"/>
<path d="M408.034 124.699C411.396 127.924 416.074 129.647 421.367 129.647C422.064 129.647 422.774 129.618 423.492 129.559C450.779 127.285 462.246 105.91 462.503 101.679C462.542 100.722 462.184 99.7787 461.542 99.1561C460.806 98.445 459.111 98.3631 458.253 98.93C457.664 99.3167 456.733 100.401 455.677 101.404C452.45 104.478 448.295 108.725 440.111 109.406C435.232 109.809 432.291 107.804 431.39 103.472C439.775 100.985 449.213 96.0103 456.634 90.1644C463 85.1475 470.678 77.283 471.092 68.2815C471.289 64.015 469.928 60.2564 467.26 57.6972C464.118 54.6825 459.118 53.339 452.894 53.8534C429.051 55.8392 403.583 83.3223 402.435 108.308C402.119 115.213 404.053 120.882 408.034 124.699ZM431.969 92.3599C435.301 80.0159 445.565 67.9833 451.213 67.5114C451.338 67.5016 451.456 67.495 451.575 67.495C452.302 67.495 452.884 67.6982 453.305 68.1012C453.512 68.3011 454.147 68.9074 454.062 70.7064C453.782 76.7358 444.193 87.5363 431.969 92.3599Z" fill="#F9AE42"/>
<path d="M510.297 67.4325C514.923 66.9869 516.327 72.8295 516.768 75.4772C516.89 76.3194 517.025 77.1812 517.202 77.7809C517.502 78.7902 518.669 79.865 519.712 79.747C524.301 79.2555 534.506 69.8869 534.729 64.9552C534.861 62.0159 533.584 59.1027 531.13 56.7532C527.091 52.8865 520.341 51.0351 512.584 51.6938C493.82 53.283 479.767 63.9787 479.175 77.1255C478.819 85.0228 484.694 88.9714 489.879 92.4514C494.705 95.6955 499.695 99.0477 499.415 105.277C499.317 107.473 497.646 109.262 495.521 109.439C491.58 109.779 487.741 104.966 486.836 98.3792C486.727 97.7829 486.563 97.3175 486.329 96.9538C485.958 96.3738 485.349 96.0232 484.704 95.9609C484.477 95.9249 484.119 95.8757 483.441 95.9347C477.135 96.4688 466.283 106.037 466.026 111.706C465.927 113.938 467.635 117.097 470.115 119.469C472.326 121.586 478.385 126.147 489.517 126.147C490.685 126.147 491.912 126.095 493.195 125.987C512.587 124.345 524.568 114.429 525.245 99.4606C525.624 90.9965 519.841 86.8774 514.245 82.8928C509.906 79.8027 505.81 76.8863 506.018 72.2331C506.139 69.569 507.853 67.6357 510.297 67.4325Z" fill="#F9AE42"/>
<path d="M354.144 141.723C356.792 131.584 358.979 123.86 360.766 117.549C363.47 107.997 364.957 102.734 364.888 99.9098C364.851 98.3533 363.595 96.4527 361.443 94.6963C357.101 91.1507 348.788 87.9951 338.495 89.7908C309.063 94.9158 286.934 128.14 287.539 153.3C287.684 159.405 289.464 164.022 292.684 166.653C295.296 168.786 298.652 169.51 302.675 168.812C313.155 166.987 321.518 159.765 325.534 156.298C326.751 155.246 327.485 154.614 327.758 154.565C328.087 154.509 328.172 154.578 328.202 154.604C328.232 154.63 328.307 154.689 328.311 154.869C328.324 155.423 328.186 155.823 328.024 156.249C328.001 156.311 327.982 156.37 327.962 156.432C326.567 161.331 325.258 165.791 323.962 170.064C280.151 186.501 234.222 202.446 196.539 201.132C164.416 200.018 153.097 185.42 146.087 136.05C177.996 124.241 201.174 87.8345 200.582 63.1761C200.326 52.5001 196.362 43.954 188.802 37.7772C176.44 27.6746 155.554 24.8335 128.409 29.5588C71.9887 39.3861 37.4315 66.0336 38.2243 99.1037C38.4677 109.334 43.7574 115.76 48.1523 119.351C55.7348 125.548 65.8766 127.711 71.9821 126.652C75.2158 126.089 75.525 124.25 75.5053 123.487C75.5053 123.441 75.502 123.395 75.4987 123.349C75.4362 122.641 75.0941 122.035 74.2618 120.718C72.5315 117.978 69.6366 113.391 69.3669 102.102C69.0741 89.8039 74.6006 77.9908 85.351 67.9309C93.95 59.8862 105.878 53.067 118.099 49.2003C118.017 49.3052 117.836 49.5214 117.569 49.8295C111.99 56.2718 107.714 63.1925 104.868 70.3885C91.9434 102.295 62.9456 217.729 63.1989 228.17C63.2417 230.083 64.3831 232.465 65.9424 233.737C70.8143 237.718 82.7851 237.83 91.8414 236.254C95.5027 235.615 96.2823 232.551 97.0554 227.898C100.125 206.562 109.674 158.887 116.582 136.742C117.438 133.976 118.099 133.419 119.648 133.15C121.533 167.597 126.895 190.561 136.521 205.422C146.261 220.466 160.798 227.308 180.986 226.364C225.662 224.27 273.282 206.916 318.087 188.474C317.593 189.932 317.09 191.39 316.583 192.838L314.662 198.235C300.145 238.141 286.056 258.769 271.585 261.289C267.641 261.977 264.275 261.295 261.848 259.313C259.565 257.448 258.259 254.47 258.173 250.924C257.877 238.416 266.953 229.615 269.828 227.15C270.299 226.797 270.713 226.443 271.065 226.105C271.762 225.44 272.055 224.329 271.499 223.546C270.808 222.573 269.009 222.91 268.062 223.074C258.097 224.876 236.146 244.79 236.686 267.164C236.88 275.389 240.021 282.218 245.768 286.914C250.735 290.974 257.328 293.081 264.792 293.081C267.22 293.081 269.743 292.858 272.332 292.406C318.646 284.342 333.969 222.786 353.371 144.855L354.144 141.723ZM339.591 105.729C339.673 110.383 325.623 145.458 316.383 147.067C315.514 147.218 314.731 147.067 314.159 146.602C313.511 146.074 313.139 145.15 313.109 144.01C312.803 131.174 328.468 105.045 337.4 103.488C337.584 103.455 337.758 103.439 337.919 103.439C338.331 103.439 338.663 103.544 338.913 103.747C339.341 104.098 339.568 104.763 339.591 105.729ZM149.666 43.0824C150.327 42.9677 151.008 42.912 151.702 42.912C155.13 42.912 158.85 44.2817 161.821 46.7066C164.877 49.2036 168.561 53.9583 168.769 62.4192C169.338 86.2846 149.419 112.408 127.78 116.176C125.918 116.501 124.82 116.369 124.122 115.799C123.671 115.432 123.435 114.859 123.418 114.089C123.395 113.083 123.369 112.044 124.02 110.091C130.968 87.5363 140.08 59.6633 144.84 49.0201C146.416 45.2222 147.491 43.4625 149.666 43.0824Z" fill="#F9AE42"/>
<path d="M466.516 130.869C435.268 130.007 395.987 142.817 354.844 158.261C353.894 162.032 352.742 166.6 351.795 170.283C385.707 156.265 415.82 144.914 439.012 144.914C440.713 144.914 442.374 144.976 443.999 145.101C455.424 145.982 462.842 148.967 467.345 154.489C471.704 159.833 473.155 167.531 471.786 178.02C469.875 192.674 460.447 207.246 443.765 221.321C442.183 222.671 441.808 223.496 441.67 224.545C441.65 224.683 441.621 225.02 441.732 225.151C441.857 225.299 442.348 225.558 443.381 225.587C443.433 225.587 443.486 225.587 443.542 225.587C453.904 225.587 498.442 198.265 502.995 163.376C504.176 154.315 502.498 147.063 498.001 141.814C492.149 134.982 481.556 131.302 466.516 130.869Z" fill="white" stroke="white" stroke-width="0.5" stroke-miterlimit="10" stroke-linecap="round" stroke-linejoin="round"/>
<path d="M216.623 186.95C219.116 188.601 222.307 188.932 225.84 187.903C235.584 185.076 242.873 177.434 247.232 172.866C249.624 170.356 250.644 169.327 251.811 168.986C253.13 168.596 254.114 169.327 255.473 170.33C258.302 172.42 264.19 176.779 274 173.928C274.868 173.675 274.825 173.315 274.806 173.141C274.74 172.564 274.585 172.197 274.309 171.529C273.75 170.192 272.983 168.36 272.463 163.861C271.259 153.431 275.016 138.528 278.993 122.75C279.523 120.656 280.052 118.555 280.572 116.455C284.951 98.9169 292.277 69.5726 291.612 63.8151C291.438 62.3111 289.862 60.4039 287.494 58.8376C283.714 56.3373 278.964 55.2953 275.687 56.2489C274.947 56.4619 272.549 57.2712 272.71 58.6803C273.496 65.4798 269.631 84.0367 263.588 109.812C263.223 111.064 262.368 111.933 261.262 112.25C260.604 112.437 260.062 112.319 259.243 112.133C257.515 111.739 253.92 110.927 249.101 112.326C228.245 118.378 208.458 151.953 211.29 176.484C211.853 181.396 213.698 185.013 216.623 186.95ZM253.045 121.485C254.634 121.023 255.986 121.147 257.058 121.858C258.137 122.573 258.785 123.785 258.979 125.456C259.627 131.056 247.946 167.731 237.498 170.762C236.995 170.91 236.495 170.982 236.011 170.982C235.12 170.982 234.278 170.739 233.554 170.261C232.317 169.442 231.524 168.019 231.32 166.253C229.827 153.313 240.811 125.034 253.045 121.485Z" fill="white" stroke="white" stroke-width="0.5" stroke-miterlimit="10" stroke-linecap="round" stroke-linejoin="round"/>
<path d="M202.059 144.878C201.73 142.81 199.961 140.542 197.553 139.104C196.263 138.334 194.013 137.344 190.97 137.344C189.427 137.344 187.681 137.6 185.75 138.265C185.009 138.52 182.611 139.461 182.832 140.85C184.18 149.318 181.769 156.989 179.434 164.408C177.331 171.096 175.345 177.413 176.348 183.708C176.585 185.196 177.503 186.428 179.082 187.369C182.582 189.463 188.773 189.721 193.802 187.985C195.016 187.565 196.046 183.741 195.635 181.166C194.293 172.737 196.885 165.676 199.174 159.45C201.122 154.148 202.803 149.567 202.059 144.878Z" fill="white" stroke="white" stroke-width="0.5" stroke-miterlimit="10" stroke-linecap="round" stroke-linejoin="round"/>
<path d="M188.796 122.235C189.187 124.689 190.329 126.544 192.102 127.602C194.036 128.759 196.645 128.903 199.266 127.995C206.122 125.63 211.047 115.183 209.596 106.073C209.155 103.301 207.977 101.269 206.194 100.204C204.434 99.1558 202.161 99.0607 199.618 99.9389C192.358 102.439 187.302 112.86 188.796 122.235Z" fill="white" stroke="white" stroke-width="0.5" stroke-miterlimit="10" stroke-linecap="round" stroke-linejoin="round"/>
<path d="M369.302 136.804C372.802 138.894 378.997 139.157 384.023 137.423C385.237 137.004 386.267 133.18 385.856 130.604C384.513 122.176 387.106 115.117 389.395 108.888C391.346 103.583 393.027 99.0051 392.28 94.3159C391.951 92.2482 390.181 89.9806 387.773 88.5421C385.829 87.3788 381.707 85.724 375.97 87.7032C375.23 87.9588 372.832 88.8993 373.052 90.2854C374.401 98.7561 371.99 106.427 369.654 113.846C367.549 120.534 365.562 126.852 366.565 133.147C366.806 134.631 367.723 135.863 369.302 136.804Z" fill="white" stroke="white" stroke-width="0.5" stroke-miterlimit="10" stroke-linecap="round" stroke-linejoin="round"/>
<path d="M382.326 77.0402C384.26 78.1969 386.872 78.3411 389.491 77.4334C396.346 75.0675 401.271 64.6176 399.82 55.5112C399.379 52.7357 398.201 50.7073 396.418 49.6423C395.458 49.0656 394.343 48.7805 393.112 48.7805C392.093 48.7805 390.994 48.9804 389.843 49.3769C382.582 51.8804 377.526 62.3009 379.02 71.676C379.411 74.1238 380.553 75.9818 382.326 77.0402Z" fill="white" stroke="white" stroke-width="0.5" stroke-miterlimit="10" stroke-linecap="round" stroke-linejoin="round"/>
<path d="M421.127 126.511C446.921 124.361 457.931 104.094 458.138 100.706C458.158 100.28 457.977 99.9715 457.835 99.8339C457.355 100.148 456.467 100.997 455.73 101.695C452.49 104.782 447.065 109.946 438.108 110.693C432.114 111.178 428.199 108.472 427.071 103.032C426.841 101.925 427.499 100.827 428.588 100.506C443.759 96.0065 466.073 81.5916 466.73 67.2979C466.898 63.6672 465.773 60.4984 463.566 58.3816C461.266 56.1762 457.743 55.0359 453.292 55.0359C452.519 55.0359 451.723 55.0687 450.898 55.1408C428.002 57.0479 403.544 83.4856 402.435 107.528C402.146 113.79 403.853 118.882 407.366 122.254C410.705 125.459 415.587 126.976 421.127 126.511ZM427.811 90.4654C431.19 77.9477 441.608 65.0697 448.845 64.4667C450.792 64.3029 451.973 65.027 452.635 65.6595C453.664 66.6491 454.144 68.0844 454.059 69.9292C453.714 77.4824 442.809 88.2862 430.726 93.0541C430.463 93.1589 430.193 93.2081 429.92 93.2081C429.394 93.2081 428.874 93.018 428.466 92.6543C427.851 92.1071 427.597 91.2584 427.811 90.4654Z" fill="white" stroke="white" stroke-width="0.5" stroke-miterlimit="10" stroke-linecap="round" stroke-linejoin="round"/>
<path d="M507.919 64.3853C512.488 63.9757 515.775 67.7604 516.929 74.7139C517.002 75.2153 517.143 76.1885 517.298 76.7095C520.897 76.3229 530.193 67.8489 530.367 63.9822C530.473 61.6753 529.43 59.3553 527.436 57.4449C523.844 54.0107 517.709 52.3854 510.587 52.985C492.929 54.4793 479.718 64.3066 479.175 76.3458C478.875 83.0241 483.754 86.3009 488.919 89.7711C493.998 93.1824 499.751 97.0523 499.416 104.497C499.268 107.781 496.738 110.461 493.531 110.73C488.31 111.185 483.57 105.651 482.507 97.8879C482.425 97.439 482.329 97.2817 482.31 97.2489C482.316 97.2686 482.172 97.2063 481.826 97.2063C481.721 97.2063 481.593 97.2129 481.445 97.2227C476.28 97.6618 466.523 106.762 466.316 111.333C466.263 112.522 467.049 114.724 469.444 117.018C471.674 119.152 478.227 124.005 490.826 122.936C509.024 121.396 520.258 112.254 520.88 98.481C521.206 91.1998 516.146 87.5953 510.791 83.781C506.169 80.4878 501.389 77.0864 501.653 71.2536C501.82 67.5081 504.396 64.6835 507.919 64.3853Z" fill="white" stroke="white" stroke-width="0.5" stroke-miterlimit="10" stroke-linecap="round" stroke-linejoin="round"/>
<path d="M360.522 99.0838C360.509 98.5464 359.937 97.1832 357.878 95.4989C353.91 92.2548 346.259 89.3876 336.689 91.0522C308.3 95.997 286.957 128.074 287.539 152.366C287.668 157.815 289.174 161.869 291.885 164.087C293.984 165.801 296.754 166.371 300.112 165.784C309.994 164.064 318.047 157.111 321.916 153.768C323.718 152.212 324.324 151.687 325.209 151.533C326.077 151.386 326.814 151.556 327.406 152.041C327.969 152.503 328.288 153.175 328.307 153.935C328.33 154.912 328.077 155.62 327.876 156.144C326.501 160.964 325.449 164.542 324.123 168.917C323.926 169.566 323.439 170.087 322.801 170.323C278.783 186.838 232.357 203.744 194.279 202.423C161.137 201.273 148.863 185.629 141.738 135.47C141.593 134.458 142.179 133.481 143.139 133.127C174.213 121.625 196.786 86.2712 196.214 62.3436C195.974 52.3295 192.279 44.3339 185.233 38.5765C173.377 28.8868 153.702 25.2265 127.208 29.8404C71.9296 39.4743 37.458 66.2562 38.2244 98.1728C38.4481 107.577 43.3134 113.486 47.3531 116.789C54.429 122.569 63.8043 124.607 69.4197 123.631C69.9394 123.539 71.15 123.264 71.1368 122.661C71.1171 122.412 70.6236 121.632 70.2256 121.003C68.3769 118.073 65.2814 113.168 64.9952 101.276C64.6859 88.3422 70.4526 75.9622 81.6668 65.4697C90.4961 57.212 102.73 50.2126 115.234 46.2673C116.135 45.9789 117.122 46.3099 117.671 47.0767C118.221 47.8467 118.211 48.8789 117.645 49.6392C117.55 49.7637 117.342 50.0127 117.03 50.3732C111.612 56.632 107.464 63.3463 104.701 70.326C91.8251 102.115 63.2648 217.651 63.5148 228.009C63.5444 229.293 64.0576 230.299 65.1333 231.177C69.2815 234.566 80.4168 234.775 89.2724 233.232C91.0816 232.918 91.8317 231.931 92.7001 226.714C95.7759 205.333 105.368 157.455 112.3 135.224C113.204 132.305 114.234 130.627 117.076 130.132C117.691 130.024 118.323 130.185 118.813 130.571C119.3 130.958 119.599 131.535 119.635 132.154C123.28 198.694 140.373 225.122 178.69 223.31C223.021 221.236 270.434 203.95 315.064 185.577C315.853 185.252 316.764 185.416 317.389 185.999C318.014 186.583 318.241 187.474 317.965 188.283C317.55 189.509 317.123 190.741 316.695 191.97C315.804 192.327 314.725 192.756 314.182 192.986C314.182 192.986 253.591 218.057 230.758 221.855C238.525 220.649 267.345 215.052 314.767 197.406L314.524 198.091C299.718 238.799 285.079 259.88 269.772 262.547C265.177 263.353 261.203 262.504 258.272 260.109C255.489 257.838 253.903 254.279 253.801 250.088C253.479 236.548 263.262 227.134 266.269 224.568C266.749 224.208 267.105 223.9 267.368 223.647C258.163 225.312 236.176 245.235 236.679 266.224C236.86 273.796 239.725 280.062 244.966 284.341C251.051 289.312 259.861 291.102 269.769 289.375C314.679 281.553 329.854 220.606 349.065 143.443L349.851 140.294C352.519 130.083 354.716 122.327 356.48 116.091C359.036 107.043 360.582 101.581 360.522 99.0838ZM123.912 117.644C122.754 117.644 121.53 117.408 120.55 116.605C119.889 116.065 119.089 115.045 119.046 113.279C119.02 112.201 118.987 110.854 119.741 108.58C126.705 85.9763 135.86 57.9788 140.629 47.3159C142.176 43.5966 143.653 40.6638 147.103 40.0609C151.63 39.2744 156.969 40.8375 161.022 44.1471C164.43 46.9325 168.542 52.2017 168.765 61.4916C169.358 86.3204 148.561 113.512 125.971 117.444C125.366 117.546 124.652 117.644 123.912 117.644ZM314.577 148.332C314.208 148.394 313.863 148.424 313.544 148.424C312.162 148.424 311.192 147.899 310.59 147.404C309.445 146.467 308.787 144.966 308.744 143.181C308.432 130.089 323.982 102.357 334.841 100.467C336.472 100.182 337.522 100.703 338.117 101.191C339.055 101.958 339.551 103.173 339.591 104.799C339.699 109.357 325.587 146.415 314.577 148.332Z" fill="white" stroke="white" stroke-width="0.5" stroke-miterlimit="10" stroke-linecap="round" stroke-linejoin="round"/>
<path d="M66.5216 132.121C48.1229 132.551 38.7377 120.678 38.7377 120.678C38.7377 120.678 17.283 96.9638 46.8696 62.039C70.7882 33.8055 127.905 24.283 151.367 23.4539C151.367 23.4539 88.1869 15.419 43.1754 54.748C23.5003 71.709 18.7567 94.2702 19.4245 106.716C22.5825 143.348 48.6229 141.523 51.6987 141.631C58.8667 141.542 65.2288 137.997 68.0282 135.293C69.6796 133.704 69.7816 131.971 66.5216 132.121Z" fill="white"/>
<path d="M465.957 175.002C466.214 162.491 460.256 143.164 410.985 156.383C410.985 156.383 397.336 159.08 349.825 178.433C344.87 197.209 339.781 214.6 333.942 229.85C327.817 246.461 320.379 263.097 312.471 272.866C312.471 272.866 284.296 308.682 250.453 294.876C250.453 294.876 231.103 288.159 233.225 266.515C233.225 266.515 227.774 294.414 253.815 301.699C280.082 306.896 295.727 294.418 302.885 289.388C331.189 269.494 349.825 200.047 354.173 182.408C370.917 175.418 414.817 157.799 435.344 162.871C435.344 162.871 451.94 164.801 450.032 185.095C449.364 192.183 447.391 203.973 439.657 212.175C438.825 213.069 438.459 213.774 438.44 214.708C438.413 215.907 439.338 216.33 440.621 216.179C446.226 215.53 465.566 193.903 465.957 175.002Z" fill="white"/>
<path d="M540.015 150.311C536.996 150.311 534.305 148.188 534.305 144.537C534.305 140.883 536.996 138.76 540.015 138.76C543.022 138.76 545.713 140.883 545.713 144.537C545.713 148.188 543.022 150.311 540.015 150.311ZM540.015 140.104C537.762 140.104 535.943 141.876 535.943 144.537C535.943 147.195 537.762 148.984 540.015 148.967V148.981C542.21 148.981 544.075 147.195 544.075 144.534C544.075 141.876 542.21 140.104 540.015 140.104ZM539.071 147.637H537.762V141.418H540.048C541.627 141.418 542.558 141.876 542.558 143.298C542.558 144.445 541.897 144.858 541.085 144.917L542.647 147.637H541.098L539.686 145.025H539.071V147.637ZM540.226 143.97C540.812 143.97 541.157 143.849 541.157 143.161C541.157 142.519 540.483 142.473 539.983 142.473H539.068V143.97H540.226Z" fill="#EA0029"/>
</svg>
