<svg width="63" height="63" viewBox="0 0 63 63" fill="none" xmlns="http://www.w3.org/2000/svg">
<circle cx="31.5" cy="31.5" r="31.5" fill="white"/>
<path d="M30.875 39.3001L24.275 32.7001C24.175 32.6001 24.104 32.4917 24.062 32.3751C24.0207 32.2584 24 32.1334 24 32.0001C24 31.8667 24.0207 31.7417 24.062 31.6251C24.104 31.5084 24.175 31.4001 24.275 31.3001L30.875 24.7001C31.0583 24.5167 31.2873 24.4207 31.562 24.4121C31.8373 24.4041 32.075 24.5001 32.275 24.7001C32.475 24.8834 32.5793 25.1124 32.588 25.3871C32.596 25.6624 32.5 25.9001 32.3 26.1001L27.4 31.0001H38.575C38.8583 31.0001 39.096 31.0957 39.288 31.2871C39.4793 31.4791 39.575 31.7167 39.575 32.0001C39.575 32.2834 39.4793 32.5207 39.288 32.7121C39.096 32.9041 38.8583 33.0001 38.575 33.0001H27.4L32.3 37.9001C32.4833 38.0834 32.5793 38.3167 32.588 38.6001C32.596 38.8834 32.5 39.1167 32.3 39.3001C32.1167 39.5001 31.8833 39.6001 31.6 39.6001C31.3167 39.6001 31.075 39.5001 30.875 39.3001Z" fill="black"/>
</svg>
