<svg width="241" height="149" viewBox="0 0 241 149" fill="none" xmlns="http://www.w3.org/2000/svg">
<path d="M229.295 28.3986C225.778 25.0694 220.678 23.5031 214.935 23.9824C210.382 24.3635 206.069 25.7531 202.53 27.952C200.198 26.1158 196.45 24.374 190.82 24.8415C186.903 25.1637 182.93 26.5022 179.156 28.7509C178.098 26.7589 176.55 25.1205 174.605 23.9719C171.397 22.0768 167.551 21.7416 163.778 23.0303C157.46 25.1834 153.082 31.7225 152.775 38.8038C150.533 38.5026 148.21 38.5471 145.896 38.944C145.533 39.0068 145.158 39.0802 144.781 39.1614C144.478 39.198 144.148 39.2452 143.796 39.3054C141.356 39.7258 138.976 40.4645 136.674 41.5122C136.978 39.439 137.036 37.9683 136.893 36.749C136.488 33.2731 134.379 30.1247 130.955 27.8839C127.002 25.2986 122.195 24.4565 118.093 25.6339C113.717 26.8898 109.319 30.8922 109.94 36.7241C109.952 37.2231 109.798 39.3473 107.883 47.902C107.703 47.9479 107.524 47.9963 107.346 48.0474C105.802 48.4901 104.27 49.137 102.761 49.9818C101.721 47.5301 99.9927 45.5276 97.7164 44.1826C97.6791 44.1616 97.6432 44.1394 97.606 44.1184C97.7057 43.698 97.7961 43.2763 97.8772 42.8572C98.5487 40.1737 98.8585 37.5583 98.796 35.0792C98.6192 27.969 95.7192 21.9341 90.4072 17.6266C82.8455 11.4922 71.0089 9.56305 56.1739 12.0501C38.1199 15.0754 23.8101 21.9171 15.8734 31.3178C10.1852 37.671 7.06578 46.5583 7.5285 55.0816C7.53382 55.1877 7.54047 55.2924 7.54978 55.3841C8.72519 68.8592 16.989 77.2515 29.1487 77.2869H29.1514C29.2311 77.2895 29.3109 77.2908 29.392 77.2908L29.5011 77.2895C29.9518 77.2842 30.4012 77.262 30.852 77.2227C28.7152 85.6635 25.2528 99.9663 25.3432 103.695C25.423 107.007 26.9162 110.003 29.5489 112.13C34.7652 116.344 42.8082 115.723 47.1376 114.978C53.5465 113.872 55.7285 108.678 56.4359 104.482L56.4598 104.325C56.634 103.13 56.864 101.704 57.1379 100.118C62.797 107.946 71.1445 111.648 82.0637 111.146C87.0352 110.915 91.5601 110.391 96.4944 109.463C94.5292 113.402 93.5333 117.524 93.6303 121.5C93.7247 125.38 94.8164 129.077 96.7869 132.192C99.3917 136.48 103.511 139.504 108.715 140.944C108.931 141.003 109.146 141.054 109.371 141.099C109.537 141.131 109.698 141.158 109.86 141.184L110.026 141.211C111.723 141.577 113.49 141.763 115.278 141.763C115.39 141.763 115.502 141.759 115.615 141.756L115.684 141.755L115.742 141.756C115.848 141.76 115.953 141.763 116.056 141.763C126.069 141.763 132.731 137.068 135.572 135.065L136.014 134.755C147.858 126.525 155.437 104.593 159.093 91.2976C173.565 85.6648 179.594 85.302 181.583 85.4277C181.203 88.9874 180.179 90.4097 179.739 90.8733C177.925 92.7959 176.94 95.1297 176.889 97.618C176.852 99.3559 177.308 101.072 178.19 102.548C178.27 104.761 179.086 106.856 180.541 108.535C182.433 110.72 185.194 111.972 188.31 112.061C193.131 112.2 200.967 108.432 207.781 102.673C212.572 98.6252 220.83 90.1503 222.32 78.8702C222.981 73.8608 222.092 69.9921 220.838 67.1881C226.112 63.8065 229.336 58.3623 229.621 52.1309C229.699 50.4284 229.501 48.7939 229.03 47.2498C231.699 44.5035 233.321 41.2791 233.457 38.3402C233.62 34.6797 232.105 31.0572 229.295 28.3986Z" fill="#EA0029"/>
<path d="M228.749 38.1294C228.855 35.8048 227.864 33.4775 226.033 31.7435C223.507 29.3534 219.706 28.2389 215.334 28.6056C210.745 28.988 206.487 30.5727 203.349 33.065C202.604 33.6556 201.497 33.5496 200.886 32.8253C200.669 32.5713 200.447 32.3342 200.223 32.1247C198.717 30.6971 195.934 29.0745 191.212 29.4647C187.035 29.8092 182.715 31.6113 178.719 34.6772C178.232 35.0491 177.574 35.146 176.998 34.9273C176.423 34.7086 176.001 34.2018 175.895 33.6033C175.455 31.1136 174.137 29.1059 172.182 27.9521C170.188 26.7747 167.749 26.5835 165.317 27.4151C160.096 29.1949 156.651 35.6293 157.639 41.7664C157.649 41.8319 157.665 41.896 157.685 41.9812L157.733 42.1933C157.865 42.8102 157.648 43.4506 157.164 43.8644C156.681 44.2783 156.007 44.4014 155.405 44.1892C152.717 43.2332 149.71 43.0001 146.707 43.5148C146.37 43.5724 146.02 43.6431 145.669 43.7204C145.608 43.7335 145.547 43.744 145.487 43.7518C145.221 43.7833 144.924 43.8225 144.607 43.8775C140.749 44.5415 137.048 46.1694 133.605 48.718C133.017 49.1515 132.208 49.1817 131.589 48.7901C130.971 48.3985 130.661 47.6598 130.821 46.9526C131.997 41.6904 132.402 38.8891 132.214 37.2821C131.968 35.1866 130.596 33.2222 128.348 31.7514C125.535 29.9113 122.193 29.2919 119.408 30.0894C115.729 31.145 114.357 33.9713 114.628 36.2972L114.638 36.3981C114.701 37.4445 114.505 40.0717 112.061 50.7611C111.898 51.467 111.303 52.0066 110.574 52.1022C109.935 52.1873 109.292 52.3222 108.665 52.503C106.442 53.1408 104.205 54.3509 102.018 56.0993C101.508 56.5053 100.817 56.6009 100.215 56.3494C99.6111 56.098 99.2016 55.5414 99.1457 54.8996C99.1218 54.6194 99.0912 54.2946 99.038 53.9645C98.6258 51.4055 97.2962 49.3454 95.295 48.1641C94.7844 47.8615 94.2127 47.6166 93.5944 47.4346C93.145 47.3023 92.7607 46.9919 92.5413 46.582C92.3206 46.1747 92.2754 45.6875 92.4163 45.2461C92.766 44.15 93.0519 43.0302 93.2673 41.9117C93.2726 41.8842 93.2793 41.8554 93.2886 41.8201C93.8723 39.5124 94.1409 37.2834 94.089 35.1958C93.9468 29.4726 91.6385 24.636 87.4142 21.21C80.9387 15.9582 70.4105 14.3709 56.9637 16.6248C39.9973 19.4681 26.6808 25.7505 19.4728 34.3105L19.4315 34.3589C12.1583 42.4553 12.0812 52.097 12.2315 54.8708L12.2381 54.9782C13.2154 66.1824 19.3717 72.6246 29.1686 72.6508L29.4053 72.6547C31.0288 72.6351 32.6603 72.3247 34.2532 71.734C34.8728 71.5035 35.5629 71.6319 36.0549 72.0667C36.5469 72.5015 36.7516 73.1629 36.5868 73.7941C31.9981 91.4248 29.997 101.462 30.0488 103.589C30.0967 105.559 30.9557 107.273 32.5326 108.549C36.4392 111.704 43.4797 110.903 46.3251 110.412C50.2849 109.73 51.322 106.499 51.786 103.734C51.79 103.713 51.794 103.692 51.7967 103.671C52.2528 100.537 53.0412 96.0963 54.0172 91.1681C54.1661 90.4176 54.8097 89.8427 55.5809 89.7693C56.3561 89.7012 57.0993 90.1426 57.3879 90.8511C61.9872 102.098 69.7537 107.078 81.8389 106.516C87.2533 106.266 92.1185 105.648 97.6272 104.512L102.369 103.47C103.097 103.31 103.854 103.62 104.25 104.248C104.646 104.872 104.597 105.679 104.131 106.254C100.271 111.003 98.2123 116.379 98.3333 121.392C98.4077 124.453 99.2574 127.347 100.812 129.795C102.814 133.102 105.896 135.351 109.969 136.478C110.066 136.505 110.178 136.532 110.284 136.552C110.379 136.57 110.474 136.586 110.569 136.601L110.969 136.67C112.349 136.972 113.796 137.125 115.296 137.125C115.297 137.125 115.3 137.125 115.301 137.125L115.66 137.116H115.689L116.05 137.125C124.553 137.125 130.144 133.185 132.829 131.292L133.282 130.973C138.291 127.493 143.063 120.601 147.464 110.489C150.964 102.451 153.449 94.2052 154.915 88.7033C155.056 88.1742 155.447 87.7367 155.962 87.5324C174.573 80.1355 181.398 80.5166 183.474 81.026C183.546 81.0431 183.605 81.0588 183.656 81.0732C183.72 81.0902 183.785 81.1033 183.851 81.1099C183.943 81.119 184.036 81.1348 184.119 81.1557C185.799 81.584 186.529 83.0757 186.291 85.5915C185.928 89.4053 184.881 92.2472 183.171 94.0415C182.148 95.1259 181.616 96.3609 181.59 97.7124C181.567 98.7746 181.905 99.8144 182.54 100.64C182.798 100.975 182.925 101.39 182.897 101.81C182.801 103.21 183.222 104.495 184.115 105.526C185.133 106.701 186.67 107.375 188.427 107.425C188.477 107.426 188.529 107.427 188.582 107.427C191.654 107.427 198.349 104.528 204.708 99.1531C208.987 95.5371 216.356 88.0157 217.643 78.2718C218.226 73.8557 217.466 70.0681 215.384 67.014C215.094 66.5897 215.009 66.0632 215.15 65.5721C215.291 65.0796 215.643 64.6749 216.115 64.4615C223.693 61.0459 224.79 54.5539 224.911 51.9228C224.99 50.2045 224.686 48.6709 223.983 47.2342C223.635 46.5231 223.818 45.6679 224.426 45.1558C226.993 42.9935 228.649 40.3035 228.749 38.1294Z" fill="#001F60"/>
<path d="M196.589 62.5664C183.676 62.2128 167.673 67.7291 151.033 73.9041C150.762 74.005 150.558 74.2302 150.488 74.5066C150.105 76.0127 149.577 77.3472 149.194 78.8167C149.112 79.1362 149.363 79.6274 149.615 79.8434C149.868 80.0595 150.224 80.1145 150.533 79.9901C163.518 74.6821 175.959 69.9162 185.447 69.9162C186.114 69.9162 186.77 69.9411 187.395 69.9883C191.755 70.3209 194.556 71.4132 196.213 73.4222C197.814 75.3631 198.339 78.2234 197.818 82.1668C197.075 87.8022 193.366 93.439 186.793 98.9252C186.06 99.5433 185.585 99.8668 185.492 100.565C185.439 100.946 185.672 101.45 185.87 101.674C186.125 101.974 186.58 102.142 187.193 102.159L187.278 102.16C189.619 102.16 195.3 99.3862 200.751 94.7461C204.551 91.5112 211.089 84.845 212.185 76.5392C212.696 72.6652 211.948 69.5377 209.963 67.2458C207.429 64.3201 202.931 62.7458 196.589 62.5664Z" fill="#F9AE42"/>
<path d="M92.5241 81.766C92.7847 83.9912 93.6636 85.6531 95.069 86.5725C95.8429 87.0793 96.7391 87.3347 97.7164 87.3347C98.2948 87.3347 98.9024 87.2457 99.5287 87.0649C103.695 85.8692 106.745 82.709 108.568 80.8192C109.33 80.0281 109.774 79.5776 110.03 79.503C110.133 79.4702 110.363 79.6352 110.734 79.9063C111.894 80.7537 114.612 82.7404 118.994 81.4792C119.977 81.1963 119.975 80.4564 119.95 80.2298C119.908 79.8762 119.81 79.6444 119.686 79.351C119.48 78.8652 119.198 78.1998 119.003 76.5222C118.535 72.5107 120.033 66.629 121.622 60.4016C121.836 59.5634 122.05 58.7226 122.271 57.8425C124.679 48.3016 127.007 38.7987 126.743 36.5356C126.642 35.6608 125.893 34.7087 124.69 33.9202C122.929 32.7677 120.787 32.3945 119.184 32.7756C117.932 33.0729 117.137 33.5496 117.238 34.4009C117.559 37.1459 115.776 45.9835 113.692 54.7766C113.651 54.918 113.558 55.1001 113.356 55.1577C113.312 55.1695 113.202 55.1485 112.978 55.0974C112.207 54.9259 110.603 54.5657 108.437 55.1878C99.6683 57.7063 91.3394 71.6149 92.5241 81.766ZM111.803 61.3707C111.901 62.2128 110.937 66.1431 109.202 70.3851C107.287 75.0645 105.25 78.1134 103.752 78.543C103.422 78.6373 103.124 78.6045 102.891 78.4526C102.612 78.2693 102.429 77.9222 102.377 77.4756C102.102 75.1182 103.002 71.1408 104.616 67.5759C106.363 63.7176 108.574 61.0787 110.529 60.5168C110.719 60.4618 110.873 60.4422 110.996 60.4422C111.242 60.4422 111.364 60.5221 111.416 60.5561C111.625 60.6962 111.755 60.9687 111.803 61.3707Z" fill="#F9AE42"/>
<path d="M90.5443 68.8986C90.3701 67.8116 89.5112 66.6945 88.3038 65.982C87.6643 65.6048 86.6059 65.1543 85.1885 65.1543C84.4066 65.1543 83.533 65.3062 82.7233 65.5826C81.4681 66.0095 80.7886 66.4063 80.9243 67.2458C81.4375 70.4283 80.5972 73.7116 79.6837 76.5811C78.8021 79.3536 77.8687 81.7699 78.3062 84.4875C78.4006 85.0781 78.842 86.122 79.9283 86.7637C80.8578 87.3124 82.1396 87.594 83.4945 87.594C84.5383 87.594 85.6246 87.4264 86.6232 87.0859C87.7986 86.6838 88.1137 84.4417 87.9462 83.4031C87.4396 80.2573 88.4461 77.5476 89.3343 75.1588C90.164 72.9245 90.882 70.9954 90.5443 68.8986Z" fill="#F9AE42"/>
<path d="M83.4398 60.1211C83.6405 61.364 84.2468 62.3174 85.1936 62.8753C85.7733 63.2185 86.4594 63.3913 87.188 63.3913C87.7226 63.3913 88.2797 63.297 88.8328 63.1084C92.0267 62.0188 94.2498 57.4769 93.5917 53.3882C93.3709 52.0169 92.75 50.9954 91.7966 50.4336C90.8552 49.8783 89.6785 49.8154 88.3967 50.2515C85.0327 51.3975 82.7616 55.9184 83.4398 60.1211Z" fill="#F9AE42"/>
<path d="M156.818 66.5529C157.748 67.103 159.031 67.3845 160.384 67.3845C161.428 67.3845 162.512 67.2169 163.51 66.8764C164.687 66.4743 165.002 64.2322 164.835 63.1923C164.328 60.0478 165.335 57.3381 166.223 54.948C167.053 52.715 167.771 50.7859 167.432 48.6891C167.257 47.6021 166.398 46.485 165.192 45.7725C164.274 45.229 162.338 44.455 159.677 45.3613C158.422 45.7896 157.78 46.5151 157.917 47.352C158.428 50.5345 157.486 53.5008 156.572 56.3716C155.689 59.1442 154.732 61.4478 155.171 64.1667C155.267 64.7574 155.732 65.9125 156.818 66.5529Z" fill="#F9AE42"/>
<path d="M162.082 42.6661C162.662 43.0093 163.348 43.1835 164.077 43.1835C164.611 43.1835 165.168 43.0892 165.722 42.8993C168.915 41.8096 171.139 37.2677 170.479 33.1803C170.258 31.8091 169.639 30.7862 168.687 30.2257C167.753 29.6743 166.561 29.6088 165.285 30.0423C161.92 31.1896 159.65 35.7092 160.328 39.9119C160.529 41.1548 161.136 42.1082 162.082 42.6661Z" fill="#F9AE42"/>
<path d="M172.044 60.6175C173.403 61.9062 175.294 62.5951 177.433 62.5951C177.715 62.5951 178.002 62.5833 178.292 62.5597C189.322 61.6508 193.957 53.1079 194.061 51.4172C194.076 51.0347 193.932 50.6576 193.672 50.4087C193.374 50.1245 192.69 50.0918 192.343 50.3183C192.105 50.4729 191.728 50.9064 191.302 51.3071C189.997 52.5356 188.318 54.2329 185.01 54.5053C183.038 54.6664 181.849 53.8649 181.485 52.1335C184.874 51.1395 188.689 49.1514 191.688 46.815C194.261 44.8099 197.365 41.6667 197.532 38.0691C197.612 36.3639 197.062 34.8617 195.983 33.8389C194.713 32.634 192.692 32.097 190.177 32.3027C180.539 33.0963 170.245 44.0804 169.781 54.0666C169.653 56.826 170.435 59.0918 172.044 60.6175ZM181.719 47.6925C183.066 42.759 187.214 37.9499 189.497 37.7613C189.548 37.7574 189.596 37.7548 189.643 37.7548C189.937 37.7548 190.173 37.836 190.343 37.9971C190.427 38.077 190.683 38.3192 190.649 39.0382C190.536 41.448 186.66 45.7647 181.719 47.6925Z" fill="#F9AE42"/>
<path d="M213.379 37.73C215.249 37.5519 215.816 39.887 215.994 40.9452C216.044 41.2818 216.098 41.6263 216.17 41.8659C216.291 42.2693 216.763 42.6989 217.185 42.6517C219.039 42.4553 223.164 38.7109 223.254 36.7399C223.308 35.5651 222.792 34.4009 221.8 33.4618C220.167 31.9164 217.438 31.1765 214.303 31.4397C206.719 32.0749 201.039 36.3496 200.799 41.604C200.656 44.7603 203.03 46.3384 205.126 47.7293C207.076 49.0258 209.094 50.3656 208.981 52.8553C208.941 53.7327 208.265 54.4478 207.406 54.5185C205.813 54.6547 204.262 52.7309 203.896 50.0984C203.852 49.8601 203.786 49.6741 203.691 49.5287C203.541 49.2969 203.295 49.1568 203.034 49.1319C202.943 49.1175 202.798 49.0979 202.524 49.1214C199.975 49.3349 195.588 53.1591 195.485 55.4248C195.445 56.3167 196.135 57.5792 197.137 58.5274C198.031 59.3735 200.48 61.1965 204.98 61.1965C205.452 61.1965 205.948 61.1755 206.466 61.1323C214.305 60.4762 219.147 56.5132 219.421 50.5306C219.574 47.1478 217.236 45.5015 214.975 43.909C213.221 42.674 211.565 41.5084 211.649 39.6487C211.698 38.5839 212.391 37.8112 213.379 37.73Z" fill="#F9AE42"/>
<path d="M150.262 67.4212C151.332 63.3691 152.216 60.2823 152.938 57.7599C154.031 53.9422 154.632 51.8389 154.604 50.71C154.59 50.0879 154.082 49.3283 153.212 48.6263C151.457 47.2093 148.097 45.9481 143.937 46.6657C132.04 48.7141 123.096 61.9927 123.34 72.0483C123.399 74.4882 124.118 76.3335 125.42 77.3851C126.475 78.2377 127.832 78.5271 129.458 78.2482C133.694 77.5187 137.074 74.6322 138.698 73.2466C139.19 72.8262 139.486 72.5734 139.597 72.5538C139.729 72.5315 139.764 72.559 139.776 72.5695C139.788 72.58 139.819 72.6036 139.82 72.6756C139.825 72.8969 139.769 73.0567 139.704 73.227C139.695 73.2518 139.687 73.2754 139.679 73.3003C139.115 75.2582 138.586 77.0407 138.062 78.7485C120.354 85.3177 101.789 91.6905 86.5579 91.1654C73.5738 90.7201 68.9985 84.8856 66.165 65.1542C79.0626 60.4342 88.4314 45.8839 88.1921 36.0287C88.0883 31.7618 86.4861 28.3462 83.4306 25.8775C78.4337 21.8398 69.9917 20.7044 59.0194 22.5929C36.2145 26.5206 22.2465 37.1707 22.5669 50.3878C22.6653 54.4766 24.8034 57.0448 26.5798 58.4802C29.6447 60.9568 33.744 61.8211 36.2118 61.3981C37.5189 61.1729 37.6439 60.4381 37.6359 60.133C37.6359 60.1146 37.6346 60.0963 37.6332 60.078C37.608 59.7951 37.4697 59.5528 37.1333 59.0263C36.4339 57.9314 35.2638 56.0979 35.1548 51.5861C35.0364 46.671 37.2702 41.9497 41.6156 37.929C45.0913 34.7138 49.9126 31.9884 54.8523 30.443C54.819 30.4849 54.7459 30.5713 54.6382 30.6944C52.3831 33.2692 50.6546 36.0352 49.5044 38.9113C44.2802 51.6634 32.5593 97.7988 32.6617 101.971C32.6789 102.736 33.1403 103.688 33.7706 104.196C35.7398 105.788 40.5784 105.832 44.239 105.202C45.7189 104.947 46.034 103.722 46.3465 101.863C47.587 93.3355 51.447 74.2812 54.2393 65.4306C54.585 64.3252 54.8523 64.1026 55.4785 63.9952C56.2404 77.7623 58.4078 86.9404 62.2983 92.8797C66.2355 98.8924 72.1112 101.627 80.2713 101.25C98.3293 100.413 117.577 93.4769 135.687 86.1061C135.488 86.6889 135.284 87.2718 135.08 87.8506L134.303 90.0076C128.435 105.957 122.74 114.201 116.891 115.208C115.297 115.483 113.937 115.211 112.956 114.418C112.033 113.673 111.505 112.483 111.47 111.066C111.351 106.067 115.019 102.549 116.181 101.564C116.371 101.423 116.539 101.281 116.681 101.146C116.963 100.88 117.081 100.436 116.857 100.123C116.578 99.7345 115.85 99.8694 115.467 99.9349C111.44 100.655 102.567 108.614 102.785 117.556C102.863 120.844 104.133 123.573 106.456 125.45C108.464 127.072 111.129 127.914 114.146 127.914C115.127 127.914 116.147 127.825 117.193 127.645C135.913 124.422 142.107 99.8196 149.949 68.6733L150.262 67.4212ZM144.379 53.0359C144.413 54.8956 138.734 68.9142 134.999 69.5573C134.648 69.6175 134.331 69.5573 134.1 69.3713C133.838 69.1605 133.688 68.7911 133.676 68.3354C133.552 63.2054 139.884 52.7622 143.494 52.1401C143.568 52.127 143.639 52.1205 143.704 52.1205C143.87 52.1205 144.004 52.1624 144.105 52.2436C144.278 52.3837 144.37 52.6496 144.379 53.0359ZM67.6116 27.9979C67.8789 27.952 68.1541 27.9298 68.4347 27.9298C69.8202 27.9298 71.324 28.4772 72.5247 29.4463C73.76 30.4443 75.2492 32.3446 75.333 35.7262C75.563 45.2644 67.5119 55.705 58.7655 57.2111C58.0129 57.3408 57.5688 57.2884 57.2869 57.0605C57.1047 56.9138 57.009 56.6846 57.0023 56.3769C56.993 55.9748 56.9824 55.5596 57.2457 54.7791C60.0539 45.7647 63.737 34.6247 65.661 30.371C66.298 28.8531 66.7327 28.1498 67.6116 27.9979Z" fill="#F9AE42"/>
<path d="M195.683 63.0836C183.052 62.7391 167.175 67.8586 150.545 74.031C150.161 75.5384 149.695 77.3641 149.312 78.8362C163.02 73.2334 175.191 68.6968 184.565 68.6968C185.253 68.6968 185.924 68.7216 186.581 68.7714C191.199 69.1237 194.197 70.3168 196.018 72.5236C197.78 74.6596 198.366 77.736 197.813 81.9283C197.04 87.7851 193.229 93.6091 186.487 99.2341C185.847 99.7737 185.696 100.104 185.64 100.523C185.632 100.578 185.62 100.713 185.665 100.765C185.716 100.824 185.914 100.927 186.331 100.939C186.352 100.939 186.374 100.939 186.396 100.939C190.585 100.939 208.587 90.0193 210.427 76.0754C210.905 72.4542 210.226 69.5559 208.409 67.4578C206.043 64.7272 201.762 63.2564 195.683 63.0836Z" fill="white" stroke="white" stroke-width="0.5" stroke-miterlimit="10" stroke-linecap="round" stroke-linejoin="round"/>
<path d="M94.6753 85.4971C95.6832 86.1572 96.9729 86.2895 98.401 85.8782C102.339 84.748 105.286 81.6939 107.048 79.8682C108.014 78.865 108.427 78.4538 108.899 78.3176C109.432 78.1617 109.829 78.4538 110.379 78.8545C111.522 79.6901 113.902 81.4319 117.867 80.2925C118.218 80.1917 118.201 80.0476 118.193 79.9782C118.166 79.7477 118.104 79.601 117.992 79.3339C117.766 78.7995 117.456 78.0674 117.246 76.2693C116.76 72.1006 118.278 66.1443 119.886 59.8383C120.1 59.0014 120.314 58.1619 120.524 57.3224C122.294 50.3131 125.255 38.5851 124.986 36.284C124.916 35.6829 124.279 34.9207 123.321 34.2947C121.794 33.2954 119.874 32.8789 118.549 33.26C118.25 33.3452 117.281 33.6686 117.346 34.2318C117.664 36.9493 116.101 44.3659 113.659 54.6677C113.511 55.168 113.165 55.5151 112.719 55.6421C112.453 55.7168 112.233 55.6696 111.902 55.595C111.204 55.4378 109.751 55.113 107.803 55.6722C99.373 58.0912 91.3751 71.5099 92.5199 81.3141C92.7473 83.2772 93.4932 84.7231 94.6753 85.4971ZM109.397 59.3327C110.039 59.1481 110.586 59.1978 111.019 59.482C111.456 59.7675 111.717 60.2521 111.796 60.92C112.058 63.1582 107.336 77.816 103.113 79.0274C102.91 79.0863 102.708 79.1151 102.512 79.1151C102.152 79.1151 101.812 79.0182 101.519 78.827C101.019 78.4996 100.699 77.9312 100.616 77.2253C100.013 72.0535 104.452 60.7511 109.397 59.3327Z" fill="white" stroke="white" stroke-width="0.5" stroke-miterlimit="10" stroke-linecap="round" stroke-linejoin="round"/>
<path d="M88.789 68.6823C88.656 67.8559 87.9407 66.9496 86.9674 66.3747C86.4462 66.0669 85.5367 65.6714 84.3067 65.6714C83.6831 65.6714 82.9771 65.7735 82.1966 66.0394C81.8974 66.1416 80.9281 66.5174 81.0172 67.0727C81.5623 70.4569 80.5877 73.5228 79.6436 76.4879C78.794 79.1609 77.9909 81.6859 78.3964 84.2018C78.4922 84.7963 78.8631 85.2888 79.5014 85.6647C80.9161 86.5015 83.4185 86.605 85.4516 85.9109C85.9422 85.7432 86.3584 84.2149 86.1922 83.1855C85.6497 79.817 86.6975 76.9947 87.6229 74.5064C88.4101 72.3873 89.0895 70.5564 88.789 68.6823Z" fill="white" stroke="white" stroke-width="0.5" stroke-miterlimit="10" stroke-linecap="round" stroke-linejoin="round"/>
<path d="M83.4278 59.6326C83.586 60.6135 84.0474 61.3548 84.7641 61.7778C85.5459 62.2401 86.6003 62.2977 87.6601 61.935C90.4311 60.9894 92.4216 56.8142 91.8352 53.1733C91.657 52.0654 91.181 51.2534 90.4603 50.8277C89.749 50.4087 88.8302 50.3707 87.8023 50.7217C84.8678 51.7209 82.8241 55.8856 83.4278 59.6326Z" fill="white" stroke="white" stroke-width="0.5" stroke-miterlimit="10" stroke-linecap="round" stroke-linejoin="round"/>
<path d="M156.389 65.4553C157.803 66.2909 160.307 66.3957 162.339 65.7028C162.83 65.5352 163.246 64.0068 163.08 62.9774C162.537 59.609 163.585 56.788 164.51 54.2983C165.299 52.178 165.978 50.3484 165.676 48.4743C165.543 47.6479 164.828 46.7416 163.855 46.1666C163.069 45.7017 161.403 45.0403 159.084 45.8314C158.785 45.9335 157.815 46.3094 157.904 46.8634C158.45 50.2489 157.475 53.3148 156.531 56.2798C155.68 58.9529 154.877 61.4779 155.282 63.9937C155.379 64.587 155.75 65.0794 156.389 65.4553Z" fill="white" stroke="white" stroke-width="0.5" stroke-miterlimit="10" stroke-linecap="round" stroke-linejoin="round"/>
<path d="M161.653 41.5697C162.435 42.032 163.49 42.0896 164.549 41.7268C167.32 40.7812 169.31 36.6047 168.724 32.9652C168.546 31.8559 168.07 31.0452 167.349 30.6196C166.961 30.3891 166.51 30.2751 166.013 30.2751C165.601 30.2751 165.156 30.355 164.691 30.5135C161.756 31.5141 159.713 35.6788 160.316 39.4257C160.475 40.4041 160.936 41.1466 161.653 41.5697Z" fill="white" stroke="white" stroke-width="0.5" stroke-miterlimit="10" stroke-linecap="round" stroke-linejoin="round"/>
<path d="M177.336 61.3417C187.762 60.4826 192.212 52.3823 192.296 51.0281C192.304 50.8579 192.231 50.7348 192.174 50.6798C191.979 50.8055 191.62 51.1447 191.323 51.4236C190.013 52.6573 187.82 54.7214 184.2 55.02C181.777 55.2138 180.195 54.132 179.739 51.958C179.646 51.5153 179.911 51.0766 180.352 50.9482C186.484 49.1501 195.503 43.3889 195.769 37.6761C195.837 36.225 195.382 34.9586 194.49 34.1126C193.56 33.2312 192.136 32.7754 190.337 32.7754C190.025 32.7754 189.703 32.7885 189.369 32.8173C180.115 33.5795 170.229 44.1459 169.781 53.7548C169.664 56.2576 170.354 58.2928 171.774 59.6404C173.124 60.9213 175.097 61.5277 177.336 61.3417ZM180.038 46.9354C181.403 41.9325 185.614 36.7856 188.54 36.5446C189.327 36.4791 189.804 36.7685 190.071 37.0213C190.488 37.4168 190.682 37.9905 190.647 38.7278C190.507 41.7466 186.1 46.0645 181.216 47.9701C181.109 48.012 181 48.0316 180.89 48.0316C180.677 48.0316 180.467 47.9557 180.302 47.8103C180.054 47.5916 179.951 47.2524 180.038 46.9354Z" fill="white" stroke="white" stroke-width="0.5" stroke-miterlimit="10" stroke-linecap="round" stroke-linejoin="round"/>
<path d="M212.418 36.5119C214.265 36.3482 215.593 37.8609 216.06 40.64C216.089 40.8403 216.146 41.2293 216.209 41.4375C217.663 41.283 221.421 37.8962 221.491 36.3508C221.534 35.4288 221.112 34.5016 220.307 33.738C218.855 32.3655 216.375 31.7159 213.496 31.9556C206.358 32.5528 201.019 36.4805 200.799 41.2922C200.678 43.9613 202.65 45.2709 204.738 46.6578C206.791 48.0212 209.116 49.5679 208.981 52.5435C208.921 53.8557 207.898 54.927 206.602 55.0344C204.492 55.2165 202.576 53.0045 202.146 49.9019C202.113 49.7224 202.074 49.6596 202.066 49.6465C202.069 49.6543 202.011 49.6295 201.871 49.6295C201.828 49.6295 201.777 49.6321 201.717 49.636C199.629 49.8115 195.685 53.4484 195.602 55.2754C195.58 55.7508 195.898 56.6309 196.866 57.5477C197.768 58.4003 200.416 60.3399 205.509 59.9129C212.864 59.2974 217.405 55.6434 217.657 50.1389C217.788 47.2289 215.743 45.7882 213.579 44.2638C211.71 42.9476 209.778 41.5881 209.885 39.257C209.953 37.76 210.994 36.6311 212.418 36.5119Z" fill="white" stroke="white" stroke-width="0.5" stroke-miterlimit="10" stroke-linecap="round" stroke-linejoin="round"/>
<path d="M152.84 50.3798C152.834 50.165 152.603 49.6202 151.771 48.9471C150.167 47.6505 147.074 46.5045 143.206 47.1699C131.732 49.1461 123.105 61.9664 123.34 71.6749C123.392 73.8529 124.001 75.4729 125.097 76.3596C125.945 77.0445 127.064 77.2724 128.422 77.038C132.416 76.3504 135.671 73.5713 137.235 72.2354C137.964 71.6133 138.208 71.4038 138.566 71.3422C138.917 71.2833 139.215 71.3514 139.454 71.5452C139.682 71.7299 139.811 71.9984 139.818 72.3022C139.828 72.6925 139.725 72.9754 139.644 73.1849C139.089 75.1114 138.663 76.5416 138.127 78.29C138.047 78.5493 137.851 78.7575 137.593 78.8518C119.801 85.4525 101.035 92.2091 85.6443 91.6813C72.2481 91.2216 67.2871 84.9693 64.4071 64.9223C64.3486 64.5176 64.5853 64.1273 64.9735 63.9859C77.5334 59.389 86.6575 45.2591 86.4262 35.6959C86.3291 31.6936 84.8359 28.498 81.9878 26.197C77.1957 22.3243 69.243 20.8614 58.534 22.7054C36.1905 26.5558 22.257 37.2597 22.5668 50.0157C22.6572 53.7745 24.6238 56.1358 26.2566 57.4559C29.1167 59.7662 32.9062 60.5808 35.1759 60.1905C35.386 60.1538 35.8753 60.0438 35.87 59.8028C35.8621 59.7033 35.6626 59.3916 35.5017 59.1401C34.7544 57.9693 33.5032 56.0088 33.3876 51.256C33.2626 46.0868 35.5935 41.1389 40.1263 36.9453C43.6951 33.645 48.64 30.8476 53.6941 29.2707C54.0584 29.1555 54.4573 29.2878 54.6793 29.5942C54.9014 29.902 54.8974 30.3145 54.6687 30.6184C54.6301 30.6681 54.5464 30.7677 54.42 30.9117C52.2301 33.4132 50.5534 36.0967 49.4365 38.8863C44.2322 51.5913 32.6882 97.7673 32.7892 101.907C32.8012 102.42 33.0086 102.823 33.4434 103.174C35.1201 104.528 39.621 104.612 43.2004 103.995C43.9317 103.869 44.2349 103.475 44.5859 101.39C45.8291 92.8442 49.7064 73.7088 52.508 64.8241C52.8737 63.6572 53.2898 62.9866 54.4387 62.7889C54.6873 62.7456 54.9426 62.8098 55.1407 62.9644C55.3375 63.1189 55.4585 63.3494 55.4731 63.5969C56.9464 90.1909 63.8553 100.753 79.3431 100.029C97.2615 99.2 116.426 92.2916 134.465 84.9483C134.784 84.8186 135.153 84.8841 135.405 85.1172C135.658 85.3504 135.75 85.7066 135.638 86.0301C135.471 86.5199 135.298 87.0123 135.125 87.5034C134.764 87.6462 134.328 87.8178 134.109 87.9094C134.109 87.9094 109.618 97.9297 100.389 99.4476C103.528 98.9656 115.177 96.7287 134.346 89.6762L134.247 89.9499C128.262 106.22 122.345 114.645 116.159 115.711C114.301 116.033 112.695 115.694 111.51 114.737C110.385 113.829 109.744 112.407 109.703 110.732C109.573 105.32 113.527 101.557 114.743 100.532C114.937 100.388 115.08 100.265 115.187 100.164C111.466 100.829 102.579 108.792 102.782 117.18C102.855 120.207 104.014 122.711 106.132 124.421C108.592 126.408 112.152 127.123 116.157 126.433C134.31 123.307 140.443 98.9486 148.209 68.1087L148.526 66.8501C149.605 62.7692 150.493 59.6692 151.206 57.177C152.239 53.561 152.864 51.3778 152.84 50.3798ZM57.2017 57.7977C56.7337 57.7977 56.239 57.7034 55.8428 57.3826C55.5755 57.1665 55.2524 56.7592 55.2351 56.0533C55.2245 55.6224 55.2112 55.0841 55.5157 54.1752C58.3306 45.1412 62.031 33.9515 63.959 29.6898C64.5839 28.2034 65.181 27.0312 66.5758 26.7902C68.4054 26.4759 70.5634 27.1006 72.2015 28.4234C73.5791 29.5366 75.2411 31.6425 75.3315 35.3554C75.5709 45.2787 67.1648 56.1463 58.034 57.7179C57.7894 57.7585 57.5009 57.7977 57.2017 57.7977ZM134.269 70.0627C134.12 70.0876 133.98 70.0994 133.851 70.0994C133.293 70.0994 132.9 69.8898 132.657 69.6921C132.194 69.3175 131.928 68.7177 131.911 68.0039C131.785 62.7718 138.07 51.6882 142.459 50.9325C143.119 50.8186 143.543 51.0268 143.784 51.2219C144.162 51.5284 144.363 52.0143 144.379 52.6639C144.423 54.4856 138.719 69.2966 134.269 70.0627Z" fill="white" stroke="white" stroke-width="0.5" stroke-miterlimit="10" stroke-linecap="round" stroke-linejoin="round"/>
<path d="M34.0047 63.584C26.5679 63.7555 22.7744 59.0106 22.7744 59.0106C22.7744 59.0106 14.1024 49.5326 26.0613 35.5743C35.7292 24.2902 58.816 20.4844 68.2991 20.153C68.2991 20.153 42.7618 16.9417 24.5681 32.6603C16.6154 39.4391 14.6981 48.4561 14.968 53.4302C16.2445 68.0709 26.77 67.3414 28.0132 67.3846C30.9106 67.3492 33.4821 65.9322 34.6136 64.8517C35.2811 64.2165 35.3224 63.5237 34.0047 63.584Z" fill="white"/>
<path d="M195.457 80.7222C195.56 75.7219 193.152 67.9976 173.237 73.2807C173.237 73.2807 167.72 74.3586 148.516 82.0934C146.513 89.5978 144.456 96.5481 142.096 102.643C139.62 109.282 136.614 115.931 133.418 119.835C133.418 119.835 122.029 134.15 108.35 128.632C108.35 128.632 100.529 125.947 101.386 117.297C101.386 117.297 99.183 128.448 109.709 131.359C120.326 133.436 126.65 128.449 129.543 126.439C140.983 118.488 148.516 90.7319 150.274 83.6821C157.042 80.8885 174.786 73.8465 183.083 75.8739C183.083 75.8739 189.791 76.6452 189.02 84.756C188.75 87.5888 187.952 92.3009 184.826 95.579C184.49 95.9365 184.342 96.2181 184.334 96.5914C184.323 97.0707 184.697 97.2396 185.216 97.1794C187.481 96.9201 195.298 88.2763 195.457 80.7222Z" fill="white"/>
<path d="M225.391 70.8539C224.171 70.8539 223.083 70.0052 223.083 68.5462C223.083 67.086 224.171 66.2373 225.391 66.2373C226.607 66.2373 227.694 67.086 227.694 68.5462C227.694 70.0052 226.607 70.8539 225.391 70.8539ZM225.391 66.7743C224.48 66.7743 223.745 67.4828 223.745 68.5462C223.745 69.6084 224.48 70.3234 225.391 70.3169V70.3221C226.278 70.3221 227.032 69.6084 227.032 68.5449C227.032 67.4828 226.278 66.7743 225.391 66.7743ZM225.01 69.7852H224.48V67.2994H225.405C226.043 67.2994 226.419 67.4828 226.419 68.0512C226.419 68.5096 226.152 68.6746 225.823 68.6982L226.455 69.7852H225.829L225.258 68.7414H225.01V69.7852ZM225.476 68.3197C225.713 68.3197 225.853 68.2712 225.853 67.9962C225.853 67.7395 225.58 67.7212 225.378 67.7212H225.008V68.3197H225.476Z" fill="#EA0029"/>
</svg>
