<svg width="63" height="63" viewBox="0 0 63 63" fill="none" xmlns="http://www.w3.org/2000/svg">
<circle cx="31.5" cy="31.5" r="31.5" fill="white"/>
<path d="M31.3 39.3C31.1167 39.1167 31.0207 38.8834 31.012 38.6C31.004 38.3167 31.0917 38.0834 31.275 37.9L36.175 33H25C24.7167 33 24.479 32.904 24.287 32.712C24.0957 32.5207 24 32.2834 24 32C24 31.7167 24.0957 31.479 24.287 31.287C24.479 31.0957 24.7167 31 25 31H36.175L31.275 26.1C31.0917 25.9167 31.004 25.6834 31.012 25.4C31.0207 25.1167 31.1167 24.8834 31.3 24.7C31.4833 24.5167 31.7167 24.425 32 24.425C32.2833 24.425 32.5167 24.5167 32.7 24.7L39.3 31.3C39.4 31.3834 39.471 31.4874 39.513 31.612C39.5543 31.7374 39.575 31.8667 39.575 32C39.575 32.1334 39.5543 32.2584 39.513 32.375C39.471 32.4917 39.4 32.6 39.3 32.7L32.7 39.3C32.5167 39.4834 32.2833 39.575 32 39.575C31.7167 39.575 31.4833 39.4834 31.3 39.3Z" fill="black"/>
</svg>
