<svg width="1440" height="15" viewBox="0 0 1440 15" fill="none" xmlns="http://www.w3.org/2000/svg">
<g clip-path="url(#clip0_1_3551)">
<rect width="1440" height="15" fill="white"/>
<path d="M10 0L18.6603 15H1.33975L10 0Z" fill="#F1193D"/>
<path d="M27 0L35.6603 15H18.3397L27 0Z" fill="#F1193D"/>
<path d="M44 0L52.6603 15H35.3397L44 0Z" fill="#F1193D"/>
<path d="M61 0L69.6603 15H52.3397L61 0Z" fill="#F1193D"/>
<path d="M78 0L86.6603 15H69.3397L78 0Z" fill="#F1193D"/>
<path d="M95 0L103.66 15H86.3397L95 0Z" fill="#F1193D"/>
<path d="M112 0L120.66 15H103.34L112 0Z" fill="#F1193D"/>
<path d="M129 0L137.66 15H120.34L129 0Z" fill="#F1193D"/>
<path d="M146 0L154.66 15H137.34L146 0Z" fill="#F1193D"/>
<path d="M163 0L171.66 15H154.34L163 0Z" fill="#F1193D"/>
<path d="M180 0L188.66 15H171.34L180 0Z" fill="#F1193D"/>
<path d="M197 0L205.66 15H188.34L197 0Z" fill="#F1193D"/>
<path d="M214 0L222.66 15H205.34L214 0Z" fill="#F1193D"/>
<path d="M231 0L239.66 15H222.34L231 0Z" fill="#F1193D"/>
<path d="M248 0L256.66 15H239.34L248 0Z" fill="#F1193D"/>
<path d="M265 0L273.66 15H256.34L265 0Z" fill="#F1193D"/>
<path d="M282 0L290.66 15H273.34L282 0Z" fill="#F1193D"/>
<path d="M299 0L307.66 15H290.34L299 0Z" fill="#F1193D"/>
<path d="M316 0L324.66 15H307.34L316 0Z" fill="#F1193D"/>
<path d="M333 0L341.66 15H324.34L333 0Z" fill="#F1193D"/>
<path d="M350 0L358.66 15H341.34L350 0Z" fill="#F1193D"/>
<path d="M367 0L375.66 15H358.34L367 0Z" fill="#F1193D"/>
<path d="M384 0L392.66 15H375.34L384 0Z" fill="#F1193D"/>
<path d="M401 0L409.66 15H392.34L401 0Z" fill="#F1193D"/>
<path d="M418 0L426.66 15H409.34L418 0Z" fill="#F1193D"/>
<path d="M435 0L443.66 15H426.34L435 0Z" fill="#F1193D"/>
<path d="M452 0L460.66 15H443.34L452 0Z" fill="#F1193D"/>
<path d="M469 0L477.66 15H460.34L469 0Z" fill="#F1193D"/>
<path d="M486 0L494.66 15H477.34L486 0Z" fill="#F1193D"/>
<path d="M503 0L511.66 15H494.34L503 0Z" fill="#F1193D"/>
<path d="M520 0L528.66 15H511.34L520 0Z" fill="#F1193D"/>
<path d="M537 0L545.66 15H528.34L537 0Z" fill="#F1193D"/>
<path d="M554 0L562.66 15H545.34L554 0Z" fill="#F1193D"/>
<path d="M571 0L579.66 15H562.34L571 0Z" fill="#F1193D"/>
<path d="M588 0L596.66 15H579.34L588 0Z" fill="#F1193D"/>
<path d="M605 0L613.66 15H596.34L605 0Z" fill="#F1193D"/>
<path d="M622 0L630.66 15H613.34L622 0Z" fill="#F1193D"/>
<path d="M639 0L647.66 15H630.34L639 0Z" fill="#F1193D"/>
<path d="M656 0L664.66 15H647.34L656 0Z" fill="#F1193D"/>
<path d="M673 0L681.66 15H664.34L673 0Z" fill="#F1193D"/>
<path d="M690 0L698.66 15H681.34L690 0Z" fill="#F1193D"/>
<path d="M707 0L715.66 15H698.34L707 0Z" fill="#F1193D"/>
<path d="M724 0L732.66 15H715.34L724 0Z" fill="#F1193D"/>
<path d="M741 0L749.66 15H732.34L741 0Z" fill="#F1193D"/>
<path d="M758 0L766.66 15H749.34L758 0Z" fill="#F1193D"/>
<path d="M775 0L783.66 15H766.34L775 0Z" fill="#F1193D"/>
<path d="M792 0L800.66 15H783.34L792 0Z" fill="#F1193D"/>
<path d="M809 0L817.66 15H800.34L809 0Z" fill="#F1193D"/>
<path d="M826 0L834.66 15H817.34L826 0Z" fill="#F1193D"/>
<path d="M843 0L851.66 15H834.34L843 0Z" fill="#F1193D"/>
<path d="M860 0L868.66 15H851.34L860 0Z" fill="#F1193D"/>
<path d="M877 0L885.66 15H868.34L877 0Z" fill="#F1193D"/>
<path d="M894 0L902.66 15H885.34L894 0Z" fill="#F1193D"/>
<path d="M911 0L919.66 15H902.34L911 0Z" fill="#F1193D"/>
<path d="M928 0L936.66 15H919.34L928 0Z" fill="#F1193D"/>
<path d="M945 0L953.66 15H936.34L945 0Z" fill="#F1193D"/>
<path d="M962 0L970.66 15H953.34L962 0Z" fill="#F1193D"/>
<path d="M979 0L987.66 15H970.34L979 0Z" fill="#F1193D"/>
<path d="M996 0L1004.66 15H987.34L996 0Z" fill="#F1193D"/>
<path d="M1013 0L1021.66 15H1004.34L1013 0Z" fill="#F1193D"/>
<path d="M1030 0L1038.66 15H1021.34L1030 0Z" fill="#F1193D"/>
<path d="M1047 0L1055.66 15H1038.34L1047 0Z" fill="#F1193D"/>
<path d="M1064 0L1072.66 15H1055.34L1064 0Z" fill="#F1193D"/>
<path d="M1081 0L1089.66 15H1072.34L1081 0Z" fill="#F1193D"/>
<path d="M1098 0L1106.66 15H1089.34L1098 0Z" fill="#F1193D"/>
<path d="M1115 0L1123.66 15H1106.34L1115 0Z" fill="#F1193D"/>
<path d="M1132 0L1140.66 15H1123.34L1132 0Z" fill="#F1193D"/>
<path d="M1149 0L1157.66 15H1140.34L1149 0Z" fill="#F1193D"/>
<path d="M1166 0L1174.66 15H1157.34L1166 0Z" fill="#F1193D"/>
<path d="M1183 0L1191.66 15H1174.34L1183 0Z" fill="#F1193D"/>
<path d="M1200 0L1208.66 15H1191.34L1200 0Z" fill="#F1193D"/>
<path d="M1217 0L1225.66 15H1208.34L1217 0Z" fill="#F1193D"/>
<path d="M1234 0L1242.66 15H1225.34L1234 0Z" fill="#F1193D"/>
<path d="M1251 0L1259.66 15H1242.34L1251 0Z" fill="#F1193D"/>
<path d="M1268 0L1276.66 15H1259.34L1268 0Z" fill="#F1193D"/>
<path d="M1285 0L1293.66 15H1276.34L1285 0Z" fill="#F1193D"/>
<path d="M1302 0L1310.66 15H1293.34L1302 0Z" fill="#F1193D"/>
<path d="M1319 0L1327.66 15H1310.34L1319 0Z" fill="#F1193D"/>
<path d="M1336 0L1344.66 15H1327.34L1336 0Z" fill="#F1193D"/>
<path d="M1353 0L1361.66 15H1344.34L1353 0Z" fill="#F1193D"/>
<path d="M1370 0L1378.66 15H1361.34L1370 0Z" fill="#F1193D"/>
<path d="M1387 0L1395.66 15H1378.34L1387 0Z" fill="#F1193D"/>
<path d="M1404 0L1412.66 15H1395.34L1404 0Z" fill="#F1193D"/>
<path d="M1421 0L1429.66 15H1412.34L1421 0Z" fill="#F1193D"/>
<path d="M1438 0L1446.66 15H1429.34L1438 0Z" fill="#F1193D"/>
</g>
<defs>
<clipPath id="clip0_1_3551">
<rect width="1440" height="15" fill="white"/>
</clipPath>
</defs>
</svg>
