<svg width="139" height="96" viewBox="0 0 139 96" fill="none" xmlns="http://www.w3.org/2000/svg">
<mask id="mask0_956_2336" style="mask-type:alpha" maskUnits="userSpaceOnUse" x="0" y="-1" width="139" height="97">
<path d="M70.4601 95.9999C108.281 95.9999 138.94 74.5095 138.94 47.9999C138.94 21.4902 108.281 -0.00012207 70.4601 -0.00012207C32.6396 -0.00012207 0.0600555 15.3414 0.0600586 47.9999C0.0600617 80.6583 32.6396 95.9999 70.4601 95.9999Z" fill="white"/>
</mask>
<g mask="url(#mask0_956_2336)">
<path d="M13.0583 64.4927C13.0583 64.4927 13.0583 64.5375 13.0583 64.5567V64.6399C13.0634 65.5413 13.4251 66.404 14.0642 67.0396C14.7034 67.6751 15.5682 68.0319 16.4695 68.0319H16.5335C17.4349 68.0319 18.2997 67.6751 18.9389 67.0396C19.578 66.404 19.9397 65.5413 19.9447 64.6399V64.5695C19.9447 64.5695 19.9447 64.5247 19.9447 64.5055L13.0583 64.4927Z" fill="#1E1D1D"/>
<path d="M4.54004 64.4927V64.6399C4.54004 65.0875 4.62832 65.5308 4.79983 65.9443C4.97133 66.3578 5.2227 66.7335 5.53954 67.0497C5.85639 67.366 6.23249 67.6166 6.64631 67.7873C7.06014 67.9581 7.50358 68.0455 7.95124 68.0447H8.01524C8.4629 68.0455 8.90634 67.9581 9.32017 67.7873C9.73399 67.6166 10.1101 67.366 10.4269 67.0497C10.7438 66.7335 10.9951 66.3578 11.1667 65.9443C11.3382 65.5308 11.4264 65.0875 11.4264 64.6399V64.5055L4.54004 64.4927Z" fill="#1E1D1D"/>
<path d="M96.5016 44.2687L77.3975 25.6319L65.1479 44.3647L96.5016 44.2687Z" fill="#E6E2DC"/>
<path d="M51.4778 44.2559L61.4682 36.2111H64.0474L77.3594 25.6063V34.1567L71.1578 37.5359V40.8639L65.7114 44.2559H51.4778Z" fill="white"/>
<path d="M132.527 41.5743L109.059 16.5247L97.2185 41.5743H132.527Z" fill="#E6E2DC"/>
<path d="M76.5271 41.6703L94.5751 26.0479H98.1207L109.122 16.5247V28.4415L105.276 31.3407L105.18 35.1871L97.9415 41.6383L76.5271 41.6703Z" fill="white"/>
<path d="M126.364 24.9343L141.878 41.5743H118.812L126.364 24.9343Z" fill="#E6E2DC"/>
<path d="M104.598 41.8943L112.284 35.2127H114.927L126.364 24.9471V32.5055L124.022 34.7519V36.9983L121.417 39.3151L118.812 41.5295L105.052 41.5551" fill="white"/>
<path d="M51.3689 66.2719C51.7785 66.8671 52.0089 67.3919 52.7513 67.3919H82.0377C82.4152 67.3911 82.7859 67.2922 83.1136 67.1048C83.4412 66.9174 83.7145 66.648 83.9065 66.3231L84.3673 65.5615C84.5584 65.2357 84.8314 64.9656 85.1593 64.7781C85.4872 64.5906 85.8584 64.4922 86.2361 64.4927H101.18C101.53 64.4927 101.875 64.5771 102.186 64.7386C102.497 64.9001 102.764 65.1341 102.966 65.4207L103.606 66.3743C103.813 66.6735 104.092 66.9155 104.418 67.0777C104.743 67.24 105.105 67.3172 105.468 67.3023C107.593 67.2191 109.724 67.0719 111.868 66.8607L128.815 65.1711C130.153 65.0392 131.394 64.4145 132.296 63.4185C133.199 62.4225 133.699 61.1264 133.699 59.7823V55.6159C133.695 54.6986 133.458 53.7974 133.01 52.9969C132.562 52.1964 131.918 51.5229 131.139 51.0399L115.772 41.3055C109.777 37.5174 102.831 35.5068 95.7401 35.5071H29.3337C28.7566 35.5071 28.2031 35.7363 27.7951 36.1444C27.387 36.5525 27.1577 37.106 27.1577 37.6831V65.2031C27.1577 65.7808 27.3868 66.3349 27.7947 66.744C28.2026 67.1531 28.756 67.3838 29.3337 67.3855C29.7119 67.3839 30.0832 67.2847 30.4117 67.0975C30.7403 66.9102 31.0149 66.6413 31.2089 66.3167L31.6633 65.5551C31.8544 65.2293 32.1275 64.9592 32.4553 64.7717C32.7832 64.5842 33.1544 64.4858 33.5321 64.4863H50.2681L51.3689 66.2719Z" fill="#7FB0A1" stroke="#1E1D1D" stroke-width="0.48" stroke-miterlimit="10"/>
<path d="M133.15 58.2399C133.19 58.8733 133.19 59.5088 133.15 60.1422C133.052 61.39 132.556 62.5642 131.745 63.4691C130.934 64.3741 129.858 64.9552 128.694 65.1154C128.694 65.1154 108.529 67.3711 105.461 67.3507C102.762 67.3507 104.054 64.3817 100.369 64.3681C96.2507 64.3681 85.8563 64.4293 85.8563 64.4293C85.418 64.4425 85.15 64.8322 84.806 65.1222C84.462 65.4123 84.0603 65.5874 83.9467 66.0394C83.4184 67.7312 81.3051 67.8399 81.3051 67.8399L74.9399 67.5002L82.9347 58.4301L133.15 58.2399Z" fill="#5C7965"/>
<path d="M87.7399 58.2399H26.9399V64.6399H87.7399V58.2399Z" fill="#5C7965"/>
<path d="M1.74949 66.6046C1.33989 67.1998 1.10949 67.7246 0.367092 67.7246H-28.9193C-29.2967 67.7239 -29.6675 67.6249 -29.9951 67.4375C-30.3228 67.2502 -30.5961 66.9808 -30.7881 66.6558L-31.2489 65.8942C-31.44 65.5684 -31.713 65.2984 -32.0409 65.1108C-32.3688 64.9233 -32.74 64.8249 -33.1177 64.8254H-48.0617C-48.412 64.8255 -48.7571 64.9098 -49.0678 65.0714C-49.3786 65.2329 -49.646 65.4668 -49.8473 65.7534L-50.4873 66.707C-50.6943 67.0062 -50.9736 67.2482 -51.2992 67.4105C-51.6248 67.5727 -51.9862 67.65 -52.3497 67.635C-54.4745 67.5518 -56.6057 67.4046 -58.7497 67.1934L-75.6969 65.5038C-77.0345 65.372 -78.2753 64.7473 -79.1778 63.7513C-80.0804 62.7553 -80.5802 61.4592 -80.5801 60.115V55.9486C-80.5765 55.0314 -80.3396 54.1301 -79.8918 53.3296C-79.444 52.5291 -78.7999 51.8557 -78.0201 51.3726L-62.6537 41.6382C-56.659 37.8502 -49.713 35.8396 -42.6217 35.8398H23.7847C24.3618 35.8398 24.9153 36.0691 25.3234 36.4772C25.7314 36.8853 25.9607 37.4387 25.9607 38.0158V65.5358C25.9607 66.1135 25.7316 66.6677 25.3237 67.0768C24.9159 67.4859 24.3624 67.7165 23.7847 67.7182C23.4065 67.7167 23.0352 67.6175 22.7067 67.4302C22.3781 67.243 22.1035 66.974 21.9095 66.6494L21.4551 65.8878C21.264 65.562 20.991 65.292 20.6631 65.1045C20.3352 64.9169 19.964 64.8185 19.5863 64.819H2.85029L1.74949 66.6046Z" fill="#7FB0A1" stroke="#1E1D1D" stroke-width="0.48" stroke-miterlimit="10"/>
<path d="M25.6601 58.8799H-7.61987V64.6399H25.6601V58.8799Z" fill="#5C7965"/>
<path d="M50.2681 63.8591L50.3193 64.2431L51.5417 66.1631L51.9833 66.7647C52.0633 66.8872 52.1723 66.9882 52.3007 67.0585C52.4291 67.1288 52.5729 67.1664 52.7193 67.1679H56.0281V63.8719L50.2681 63.8591Z" fill="#5C7965"/>
<path d="M51.3689 66.2719C51.7785 66.8671 52.0089 67.3919 52.7513 67.3919H82.0377C82.4152 67.3911 82.7859 67.2922 83.1136 67.1048C83.4412 66.9174 83.7145 66.648 83.9065 66.3231L84.3673 65.5615C84.5584 65.2357 84.8314 64.9656 85.1593 64.7781C85.4872 64.5906 85.8584 64.4922 86.2361 64.4927H101.18C101.53 64.4927 101.875 64.5771 102.186 64.7386C102.497 64.9001 102.764 65.1341 102.966 65.4207L103.606 66.3743C103.813 66.6735 104.092 66.9155 104.418 67.0777C104.743 67.24 105.105 67.3172 105.468 67.3023C107.593 67.2191 109.724 67.0719 111.868 66.8607L128.815 65.1711C130.153 65.0392 131.394 64.4145 132.296 63.4185C133.199 62.4225 133.699 61.1264 133.699 59.7823V55.6159C133.695 54.6986 133.458 53.7974 133.01 52.9969C132.562 52.1964 131.918 51.5229 131.139 51.0399L115.772 41.3055C109.777 37.5174 102.831 35.5068 95.7401 35.5071H29.3337C28.7566 35.5071 28.2031 35.7363 27.7951 36.1444C27.387 36.5525 27.1577 37.106 27.1577 37.6831V65.2031C27.1577 65.7808 27.3868 66.3349 27.7947 66.744C28.2026 67.1531 28.756 67.3838 29.3337 67.3855C29.7119 67.3839 30.0832 67.2847 30.4117 67.0975C30.7403 66.9102 31.0149 66.6413 31.2089 66.3167L31.6633 65.5551C31.8544 65.2293 32.1275 64.9592 32.4553 64.7717C32.7832 64.5842 33.1544 64.4858 33.5321 64.4863H50.2681L51.3689 66.2719Z" stroke="#1E1D1D" stroke-width="0.48" stroke-miterlimit="10"/>
<path d="M110.857 38.7007L105.097 38.8223C104.842 38.8193 104.591 38.8805 104.366 39.0002C104.141 39.1199 103.95 39.2943 103.811 39.5073C103.671 39.7202 103.587 39.9649 103.567 40.2188C103.547 40.4727 103.591 40.7275 103.695 40.9599L103.862 41.3503C104.347 42.4882 105.103 43.4907 106.063 44.2712C107.023 45.0518 108.159 45.5869 109.372 45.8303C114.382 46.8877 119.514 47.2495 124.623 46.9055L116.45 41.7407C114.666 40.5855 112.796 39.5692 110.857 38.7007Z" fill="white" stroke="#1E1D1D" stroke-width="0.48" stroke-miterlimit="10"/>
<path d="M61.3144 40.1919H55.388C55.105 40.1919 54.8249 40.2477 54.5636 40.3562C54.3022 40.4647 54.0649 40.6236 53.8651 40.824C53.6654 41.0244 53.5071 41.2622 53.3994 41.5238C53.2917 41.7855 53.2367 42.0658 53.2376 42.3487V58.3487H63.4776V42.3487C63.4776 42.0649 63.4216 41.7839 63.3128 41.5219C63.204 41.2598 63.0445 41.0217 62.8436 40.8213C62.6426 40.621 62.4041 40.4623 62.1417 40.3542C61.8793 40.2462 61.5981 40.1911 61.3144 40.1919Z" stroke="#1E1D1D" stroke-width="0.48" stroke-miterlimit="10"/>
<path d="M59.8936 42.9374H56.796C56.128 42.9374 55.5864 43.479 55.5864 44.147V49.2158C55.5864 49.8839 56.128 50.4254 56.796 50.4254H59.8936C60.5617 50.4254 61.1032 49.8839 61.1032 49.2158V44.147C61.1032 43.479 60.5617 42.9374 59.8936 42.9374Z" fill="white"/>
<path d="M109.033 49.427L105.884 47.2062C101.951 44.4328 97.2566 42.9419 92.4439 42.9374H67.5479V50.4318H96.0791C98.5745 50.4327 101.067 50.6167 103.535 50.9822L108.137 51.667C108.412 51.7062 108.693 51.6518 108.933 51.5126C109.174 51.3733 109.361 51.1572 109.464 50.899C109.568 50.6407 109.581 50.3552 109.503 50.0883C109.425 49.8214 109.259 49.5886 109.033 49.427Z" fill="white" stroke="#1E1D1D" stroke-width="0.48" stroke-miterlimit="10"/>
<path d="M49.98 42.8799H30.78V50.5599H49.98V42.8799Z" fill="white" stroke="#1E1D1D" stroke-width="0.48" stroke-miterlimit="10"/>
<path d="M22.46 42.8799H3.26001V50.5599H22.46V42.8799Z" fill="white" stroke="#1E1D1D" stroke-width="0.48" stroke-miterlimit="10"/>
<path d="M94.377 64.4927V64.6399C94.377 65.5429 94.7357 66.4089 95.3742 67.0474C96.0127 67.686 96.8787 68.0447 97.7818 68.0447H97.8522C98.7558 68.0447 99.6224 67.6862 100.262 67.0478C100.902 66.4095 101.262 65.5435 101.263 64.6399V64.5695C101.267 64.5483 101.267 64.5267 101.263 64.5055L94.377 64.4927Z" fill="#1E1D1D"/>
<path d="M85.8647 64.4927C85.8647 64.4927 85.8647 64.5375 85.8647 64.5567V64.6399C85.8664 65.5435 86.2266 66.4095 86.8661 67.0478C87.5057 67.6862 88.3723 68.0447 89.2759 68.0447H89.3463C90.2488 68.043 91.1139 67.6837 91.752 67.0456C92.3902 66.4074 92.7495 65.5424 92.7511 64.6399V64.5695C92.7511 64.5695 92.7511 64.5247 92.7511 64.5055L85.8647 64.4927Z" fill="#1E1D1D"/>
<path d="M41.7368 64.4927C41.7368 64.4927 41.7368 64.5375 41.7368 64.5567V64.6399C41.7419 65.5413 42.1035 66.404 42.7427 67.0396C43.3819 67.6751 44.2466 68.0319 45.148 68.0319H45.212C46.1134 68.0319 46.9782 67.6751 47.6173 67.0396C48.2565 66.404 48.6181 65.5413 48.6232 64.6399V64.5695C48.6232 64.5695 48.6232 64.5247 48.6232 64.5055L41.7368 64.4927Z" fill="#1E1D1D"/>
<path d="M33.2185 64.4927V64.6399C33.2185 65.0875 33.3068 65.5308 33.4783 65.9443C33.6498 66.3578 33.9012 66.7335 34.218 67.0497C34.5349 67.366 34.911 67.6166 35.3248 67.7873C35.7386 67.9581 36.182 68.0455 36.6297 68.0447H36.6937C37.1414 68.0455 37.5848 67.9581 37.9986 67.7873C38.4125 67.6166 38.7886 67.366 39.1054 67.0497C39.4222 66.7335 39.6736 66.3578 39.8451 65.9443C40.0166 65.5308 40.1049 65.0875 40.1049 64.6399V64.5055L33.2185 64.4927Z" fill="#1E1D1D"/>
<path d="M126.313 65.4207L111.868 66.8607C109.353 67.1167 107.426 67.5647 104.905 67.6415L130.268 67.5135L129.75 64.9535C128.614 65.1727 127.466 65.3287 126.313 65.4207Z" fill="#1E1D1D"/>
<path d="M128.064 53.6502C128.445 52.9722 127.977 51.9862 127.018 51.4479C126.06 50.9096 124.974 51.0228 124.593 51.7008C124.213 52.3788 124.681 53.3648 125.639 53.9031C126.598 54.4414 127.683 54.3282 128.064 53.6502Z" fill="white" stroke="#1E1D1D" stroke-width="0.48" stroke-miterlimit="10"/>
<path d="M27.1513 38.8223H25.5833V62.9311H27.1513V38.8223Z" fill="#1E1D1D"/>
<path d="M27.5352 58.3679H133.462" stroke="#1E1D1D" stroke-width="0.48" stroke-miterlimit="10"/>
<path d="M1.97998 58.8799H25.02" stroke="#1E1D1D" stroke-width="0.48" stroke-miterlimit="10"/>
<path d="M134.652 67.7247H19.6567" stroke="#4A4A4A" stroke-width="0.48" stroke-linecap="round" stroke-linejoin="round"/>
<path d="M85.7624 60.6847L80.2456 66.2015" stroke="#1E1D1D" stroke-width="0.48" stroke-linecap="round" stroke-linejoin="round"/>
<path d="M74.3513 58.6879L79.8169 64.1535" stroke="#1E1D1D" stroke-width="0.48" stroke-linecap="round" stroke-linejoin="round"/>
<path d="M71.1001 60.7999L75.1129 64.0575" stroke="#1E1D1D" stroke-width="0.48" stroke-linecap="round" stroke-linejoin="round"/>
<path d="M80.4441 17.6447C80.4441 17.6447 80.2201 18.9823 79.4713 19.4815C79.1263 19.7167 78.7673 19.9304 78.3961 20.1215C78.7744 19.7784 79.0698 19.3538 79.2601 18.8799C79.5033 18.1695 79.6185 17.9007 79.4201 17.8687C79.0898 17.8111 78.752 17.8111 78.4217 17.8687C78.1254 17.9448 77.8237 17.9983 77.5193 18.0287C77.5193 18.0287 78.3001 17.8111 78.2233 17.7087C78.1465 17.6063 77.7049 17.7087 77.7049 17.7087C77.9481 17.6055 78.2044 17.5366 78.4665 17.5039C78.7471 17.4803 79.0186 17.3927 79.2601 17.2479C79.4245 17.1717 79.5991 17.1199 79.7785 17.0943C79.9201 16.7759 79.9942 16.4316 79.9961 16.0831C79.9449 15.6735 79.6889 14.5791 79.6889 14.5791C80.0882 15.0382 80.4063 15.562 80.6297 16.1279C80.7199 16.4567 80.7065 16.8054 80.5913 17.1263C80.7322 17.1336 80.8718 17.1572 81.0073 17.1967C81.1801 17.2543 81.1993 17.1647 81.1993 17.1647C81.1993 17.1647 80.9881 17.7407 80.4441 17.6447Z" fill="#CEC8C0"/>
<path d="M67.3817 12.7295C67.5987 12.9678 67.7294 13.272 67.7529 13.5935C67.7389 13.7801 67.7154 13.966 67.6825 14.1503C67.6629 13.9252 67.5952 13.707 67.4841 13.5103C67.3049 13.2287 67.2409 13.1071 67.1769 13.1711C67.0607 13.2678 66.9631 13.3849 66.8889 13.5167C66.833 13.6435 66.7667 13.7656 66.6905 13.8815C66.6905 13.8815 66.8313 13.5423 66.7737 13.5423C66.7161 13.5423 66.6137 13.7151 66.6137 13.7151C66.6496 13.6008 66.699 13.4912 66.7609 13.3887C66.8319 13.283 66.8778 13.1627 66.8953 13.0367C66.9107 12.957 66.9411 12.881 66.9849 12.8127C66.9127 12.6723 66.8125 12.5481 66.6905 12.4479C66.5305 12.3519 66.0505 12.1343 66.0505 12.1343C66.3257 12.1246 66.6004 12.1614 66.8633 12.2431C67.006 12.3007 67.1254 12.4043 67.2025 12.5375C67.2454 12.4882 67.295 12.4451 67.3497 12.4095C67.4137 12.3647 67.3881 12.3327 67.3881 12.3327C67.3881 12.3327 67.5481 12.5631 67.3817 12.7295Z" fill="#CEC8C0"/>
<path d="M89.308 16.2495C88.9969 16.4506 88.6271 16.5408 88.2584 16.5055C88.0404 16.4554 87.8265 16.3891 87.6184 16.3071C87.8842 16.3388 88.1537 16.3082 88.4056 16.2175C88.764 16.0639 88.9112 16.0127 88.86 15.9231C88.77 15.7746 88.6553 15.6425 88.5208 15.5327C88.386 15.4438 88.2576 15.3454 88.1368 15.2383C88.1368 15.2383 88.4952 15.4623 88.5144 15.3983C88.5336 15.3343 88.3416 15.1807 88.3416 15.1807C88.4662 15.2424 88.5823 15.3198 88.6872 15.4111C88.7961 15.5128 88.9246 15.5912 89.0648 15.6415C89.1536 15.6804 89.2374 15.7299 89.3144 15.7887C89.4878 15.7373 89.6474 15.6476 89.7816 15.5263C89.9224 15.3663 90.2552 14.8863 90.2552 14.8863C90.2176 15.199 90.1244 15.5024 89.98 15.7823C89.8865 15.9326 89.7475 16.0492 89.5832 16.1151C89.6276 16.1731 89.6661 16.2352 89.6984 16.3007C89.7368 16.3903 89.7752 16.3647 89.7752 16.3647C89.7752 16.3647 89.4552 16.4991 89.308 16.2495Z" fill="#CEC8C0"/>
</g>
</svg>
